<svg xmlns="http://www.w3.org/2000/svg" width="178.093" height="77.44" viewBox="0 0 178.093 77.44">
  <path id="パス_81" data-name="パス 81" d="M47.52-52.56h-.56a4.972,4.972,0,0,0,1.44.6,3.072,3.072,0,0,1,1.44.84,3.964,3.964,0,0,1,.72,1.04q.56.72,1,1.2a6.3,6.3,0,0,1,.84,1.2,1.965,1.965,0,0,0,.16.72q.4,0,.4.32a7.139,7.139,0,0,1,.84,1.84,3.668,3.668,0,0,0,.92,1.6,18.515,18.515,0,0,1-.12,2.04,2.648,2.648,0,0,0,.28,1.72.652.652,0,0,1-.16.48,1.861,1.861,0,0,0-.32.48,11.107,11.107,0,0,1-2.84,5.04A24.927,24.927,0,0,1,47.12-30q1.52,1.04,3.08,2.04a23.9,23.9,0,0,1,2.92,2.2,14.689,14.689,0,0,1,2.36,2.64,9.056,9.056,0,0,1,1.4,3.36q.32.32.32.08t.4-.24a2.42,2.42,0,0,0,.16,1.12q0,.4-.16.48a.866.866,0,0,0-.32.4,4.369,4.369,0,0,1-.08,2.52,2.7,2.7,0,0,0-.16,1.8q-.24,0-.2.32a4.587,4.587,0,0,1,.04.56.23.23,0,0,0-.16-.08q-.16,0-.16.08,0,.16-.04.84a5.617,5.617,0,0,1-.36,1.56,4.561,4.561,0,0,1-.68,1.4q-.44.6-1.08,1.48a13.954,13.954,0,0,0-1,1.28,8.525,8.525,0,0,1-1,1.2,8.709,8.709,0,0,1-2.76,1.4,19.45,19.45,0,0,0-2.68,1,4.471,4.471,0,0,1-.48.28.931.931,0,0,0-.4.44q-.32,0-.28-.2t-.12-.2a4.884,4.884,0,0,1-1.56.6q-.92.2-1.88.32l-1.92.24a5.946,5.946,0,0,0-1.68.44.948.948,0,0,1-.6-.16.948.948,0,0,0-.6-.16q-2.48.16-4.76.52T28.16.32q-.4.16-.32-.2t-.16-.2a23.655,23.655,0,0,1-3.6.2Q22.32.08,20.6.08T17.2.16a16.781,16.781,0,0,0-3.28.48l-.16.08L13.8.64a.307.307,0,0,0,.04-.12q0-.04-.24-.04a17.342,17.342,0,0,1-1.8.28q-1.08.12-2.2.28H8.32A4.35,4.35,0,0,1,7.12.88a.729.729,0,0,0-.4.4q-.08.24-.72.08A.652.652,0,0,1,5.84.64,1.588,1.588,0,0,0,6-.08a52.165,52.165,0,0,0,.04-5.4,40.674,40.674,0,0,1,.12-5.4,21.3,21.3,0,0,1,2.28-.2,21.3,21.3,0,0,0,2.28-.2,50.27,50.27,0,0,0,.48-6.08q.08-3.36.08-6.96v-7.24q0-3.64.16-6.92a10.816,10.816,0,0,0-.04-2.8,18.189,18.189,0,0,1-.2-2.8,6.23,6.23,0,0,0-1.88-.56,16.77,16.77,0,0,0-2.44-.16q-.56,0-.6.36t-.68.36a1.461,1.461,0,0,1-.8-.84,4.454,4.454,0,0,1-.28-1.44q-.04-.84-.04-1.8T4.4-50.08q-.08-.56-.2-1.64a13.829,13.829,0,0,1-.08-2.08,4.683,4.683,0,0,1,.36-1.72,1.009,1.009,0,0,1,1.12-.64q-.24.16-.2.24a1.569,1.569,0,0,1,.04.48,1.393,1.393,0,0,0,.52-.44.689.689,0,0,1,.6-.28q1.36.16,2.88.24t3.04.08h.56a.878.878,0,0,1,.56-.32q1.2,0,2.52.08T18.8-56q1.2-.16,2.56-.28a6.617,6.617,0,0,1,2.88.44.388.388,0,0,0,.36-.28.5.5,0,0,1,.52-.28q.4,0,.44.28t.28.28q2.32.16,4.32.36l3.6.36q.16,0,.2-.08t.2-.08a3.378,3.378,0,0,0,1.2.36,2.06,2.06,0,0,0,1.36-.2.493.493,0,0,1-.08.28q-.08.12.08.12a6.741,6.741,0,0,1,2.92,0,14.155,14.155,0,0,0,3,.32,1.63,1.63,0,0,1,.56.12q.32.12.88.28a1.383,1.383,0,0,0,.8.08,3.442,3.442,0,0,1,.64-.08q-.16,0-.04.2t.44-.04a.741.741,0,0,0,.8.56A.782.782,0,0,1,47.52-52.56ZM6-53.84a.37.37,0,0,1,.28-.4.324.324,0,0,0,.28-.32q-.32.16-.44,0a.346.346,0,0,0-.28-.16,1.214,1.214,0,0,1-.12.44Q5.6-54,6-53.84ZM20.24-52.4a1.277,1.277,0,0,0,.56-.72q.16-.48.72-.16,0,.16.08.16t.08-.16q-.16-.24.04-.36a3.639,3.639,0,0,0,.4-.28,2.3,2.3,0,0,0,.36-.36q.16-.2-.08-.44H20.08a26.066,26.066,0,0,1-4.56,4.04q-2.48,1.72-5.04,3.48.24,0,.24.4-.32,0-.24-.28t-.32-.12q.16.4-.28.36a1.538,1.538,0,0,0-1,.36,10.492,10.492,0,0,0,1.32.24,4.454,4.454,0,0,1,1.24.32,5.025,5.025,0,0,1,1.48-1.12,2.942,2.942,0,0,0,1.24-1.04q.16,0,.16.08t.16.08a5.508,5.508,0,0,1,1.04-.96,7.1,7.1,0,0,1,1.28-.64,3.53,3.53,0,0,1,.92-1.08,1.662,1.662,0,0,1,1.48-.52q-.32-.4.16-.64A3.376,3.376,0,0,0,20.24-52.4Zm-9.52-2.16q-.56.4-1.28,1t-1.12,1a6.123,6.123,0,0,0-1.76,1.28l-.52.52q-.36.36-.04.36a5.077,5.077,0,0,1,1.64-1.16,3.874,3.874,0,0,0,1.64-1.4,2.541,2.541,0,0,0,1.12-.76,3.183,3.183,0,0,1,1.2-.84Zm3.44.32-.2.4a.832.832,0,0,0-.04.32q-2.16,1.36-4.24,2.92A19.029,19.029,0,0,0,6-46.96a3.116,3.116,0,0,1,1.12.16,1.116,1.116,0,0,1,.68-.84,2.049,2.049,0,0,0,.92-.76,11,11,0,0,0,.96-.76,2.586,2.586,0,0,0,.64-.92,1.83,1.83,0,0,0,1.32-.72,2.37,2.37,0,0,1,1.24-.88.185.185,0,0,1-.12.2.788.788,0,0,0-.28.2q.72,0,.6-.28a.745.745,0,0,1,.12-.68,10.179,10.179,0,0,0,1.48-1.12q.6-.56,1.24-1.2a2.743,2.743,0,0,1-1.24.04,1.55,1.55,0,0,0-1.08.12.463.463,0,0,1,.32.08A.326.326,0,0,0,14.16-54.24Zm.32,3.68q-.24-.16,0-.36t.4-.36v.16a2.127,2.127,0,0,1,.84-1.04q.6-.4,1.32-.8-.4-.4.36-.8a3.423,3.423,0,0,0,1.08-.8h-.72a.493.493,0,0,1-.2.4.6.6,0,0,1-.36.16,11.079,11.079,0,0,0-1.88,1.4q-.92.84-1.72,1.48a5.936,5.936,0,0,1-.68.44,2.688,2.688,0,0,0-.6.44.788.788,0,0,0-.2.28.788.788,0,0,1-.2.28,10.662,10.662,0,0,1-1.8,1.44,4.7,4.7,0,0,0-1.56,1.6q.8-.4,1.64-.76a1.545,1.545,0,0,0,1-1q.32,0,.36.08t.2.08q.32-.4.64-.76a.887.887,0,0,1,.64-.36q.16-.24-.08-.16t-.08-.32a.687.687,0,0,0,.72-.4.966.966,0,0,1,.56-.56.461.461,0,0,0,.16.32Q14.48-50.32,14.48-50.56ZM6.72-53.12q-.16.16-.6.68T6-51.68a3.976,3.976,0,0,1,.88-1.04q.56-.48.96-.8a2.136,2.136,0,0,1,.56-.4.316.316,0,0,0,.16-.48,2.217,2.217,0,0,1-.88.64A3.026,3.026,0,0,0,6.72-53.12Zm11.76,4.48q0-.24.52-.52t1.08-.52q.56-.4,1.44-1.04T23.36-52a.461.461,0,0,0,.16.32,1.318,1.318,0,0,1,.48-.88,5.753,5.753,0,0,1,.84-.56q.44-.24.92-.48a2.361,2.361,0,0,0,.8-.64,6.164,6.164,0,0,1-1.08-.08,7.356,7.356,0,0,0-1.24-.08q-2.56,2.08-5.16,4.08t-5.16,3.84a.655.655,0,0,1,.24.4.491.491,0,0,0-.56-.12,1.251,1.251,0,0,0-.56.44,1.412,1.412,0,0,0-.28.72.51.51,0,0,0,.28.56A14.822,14.822,0,0,1,15.6-46.8Q16.96-47.76,18.48-48.64ZM16.8-44.96h-.08q-.08,0-.08-.24a8.688,8.688,0,0,1,1.44-.8,4.847,4.847,0,0,0,1.44-.96v.08q0,.08.16.08a1.991,1.991,0,0,1,.56-.72q.32-.24.68-.48t.72-.52a2.067,2.067,0,0,0,.6-.84,5.479,5.479,0,0,0,2.08-1.24,5.377,5.377,0,0,1,2.24-1.24,3.156,3.156,0,0,1,1.12-1.36q.72-.48,1.6-1.04h-1.6a.55.55,0,0,1-.24.72q-2.72,1.68-5.36,3.48t-5.04,3.56q-1.12.88-2.2,1.68a22.208,22.208,0,0,1-2.2,1.44,15.755,15.755,0,0,1,0,4.48,3.973,3.973,0,0,0,.8-.44.68.68,0,0,1,.72-.12v-.32a37.761,37.761,0,0,0,5.12-3.08q2.4-1.72,4.96-3.24A1.915,1.915,0,0,1,25.36-47a1.586,1.586,0,0,0,1.04-.92,26.371,26.371,0,0,0,4-2.72q1.84-1.52,3.76-2.88-.4.16-.56,0t-.72,0q.16.24-.16.56-4.88,3.04-9.72,6.2a83.322,83.322,0,0,0-9.08,6.84q-.56-.24-.52-.56a1.126,1.126,0,0,1,.36-.64,1.394,1.394,0,0,1,.68-.4q.36-.08.44.16a8.333,8.333,0,0,0,.44-.84,1.111,1.111,0,0,1,.76-.6.326.326,0,0,1-.08.24q-.08.08.08.24a5.15,5.15,0,0,1,2.16-2.24,8.654,8.654,0,0,0,2.4-1.92,7.6,7.6,0,0,0,2-1.2,1.373,1.373,0,0,1,.56.08.71.71,0,0,0,.32.08q.4-.56.64-.36t.64-.36a.783.783,0,0,0-.64-.04,2.469,2.469,0,0,0-.44.28.99.99,0,0,1-.36.2q-.16.04-.4-.28a2.154,2.154,0,0,0,1.44-.8,2.588,2.588,0,0,1,1.84-.8.687.687,0,0,1,.4-.72,1.04,1.04,0,0,1,.8,0q0-.4.16-.36a1.38,1.38,0,0,1,.4.2q.16-.4.04-.52t.12-.44a1.3,1.3,0,0,0,.96-.32q-.4,0-.4-.16a5.606,5.606,0,0,0,1.6-.8q.64-.48,1.28-.88a2.479,2.479,0,0,0-2,.56A11.142,11.142,0,0,1,28-52a24.516,24.516,0,0,0-2.24,1.68,12.739,12.739,0,0,1-2.24,1.52q-1.76,1.36-3.64,2.68t-3.8,2.6a11.128,11.128,0,0,1-.88,1.08,2.439,2.439,0,0,1-1.44.68.986.986,0,0,1,.16-.56.552.552,0,0,0-.36.2q-.2.2-.36-.2a10.043,10.043,0,0,1,1.76-1.52A15.52,15.52,0,0,1,16.8-44.96Zm10.16-4.88q-.16,0-.2.08t-.2.08q-.16-.16-.08-.28t-.08-.12q-.16.4-.24.64t-.64.08q.16.32-.08.44t.08.12a3.073,3.073,0,0,1,.84-.52Q26.96-49.6,26.96-49.84Zm8.48-2.56a3.144,3.144,0,0,1,.56-.44,1.551,1.551,0,0,0,.48-.44.95.95,0,0,1-.84-.08q-.44-.24-.6.08.72.16.56.44A.985.985,0,0,0,35.44-52.4Zm-25.28-.72q-.24.16-.24.24a.071.071,0,0,0,.08.08.23.23,0,0,0,.16-.08Q10.24-52.96,10.16-53.12Zm28.72,0a34.687,34.687,0,0,0-4.72,3.48,21.174,21.174,0,0,1-4.72,3.16q.72,0,1.12-.04a2.024,2.024,0,0,1,1.04.28q2.48-1.84,5.04-3.48t5.12-3.24a2.847,2.847,0,0,1-1.6-.16Q39.28-53.44,38.88-53.12ZM20.8-52.4a.807.807,0,0,1,.36-.32q.2-.08.2-.24a1.294,1.294,0,0,0-.52.2Q20.48-52.56,20.8-52.4Zm22.96.16a.7.7,0,0,1,.36-.2.588.588,0,0,0,.36-.28q-.56,0-.72-.24a.386.386,0,0,1-.08.52Q43.44-52.24,43.76-52.24ZM9.6-51.68q.24-.08.56-.16a1.778,1.778,0,0,0,.56-.24A.606.606,0,0,0,11-52.4q.04-.16-.28-.32a1.551,1.551,0,0,1-.48.44A2.64,2.64,0,0,0,9.6-51.68Zm14.96-.88-.4.24.16-.08a2.616,2.616,0,0,0,.28-.16Q24.72-52.64,24.56-52.56Zm-8.24.32q.32,0,.32-.16Q16.32-52.4,16.32-52.24Zm9.52,6.32A5.237,5.237,0,0,0,27-46l.84-.24q.24,0,.04-.24a.752.752,0,0,1-.2-.48q.16,0,.2-.2a.588.588,0,0,1,.28-.36,2.924,2.924,0,0,1,.76-.2.854.854,0,0,0,.52-.2,20.8,20.8,0,0,0,3.12-2.12,19.529,19.529,0,0,0,2.48-2.36q-2.32,1.6-4.6,3.24T25.84-45.92Zm12.8-2.88q1.12-.8,2.32-1.64a15.98,15.98,0,0,1,2.4-1.4.886.886,0,0,1,.04-.28q.04-.12-.2-.12a42.7,42.7,0,0,1-3.64,2.28A34.748,34.748,0,0,0,36-47.68a4.483,4.483,0,0,0-1.2.68,2.448,2.448,0,0,0-.8,1.08,5.247,5.247,0,0,0,2.44-1.12Q37.52-47.92,38.64-48.8ZM19.92-51.68a1.316,1.316,0,0,0,.4-.08q.24-.08-.08-.24a.141.141,0,0,1-.16.16A.141.141,0,0,0,19.92-51.68ZM8.16-50.56a.633.633,0,0,0,.4-.08q.08-.08.32.24a.848.848,0,0,1,0-.72q.16-.32.56-.16a.493.493,0,0,1,.08-.28q.08-.12-.08-.12a2.755,2.755,0,0,1-.72.52A1.119,1.119,0,0,0,8.16-50.56ZM45.2-51.68q-2.32,1.6-4.6,3.24T36-45.2a.983.983,0,0,0,1.16.04,2.565,2.565,0,0,0,.76-.76q1.6-.96,3.12-2t3.04-1.92a8.259,8.259,0,0,1,1.2-.56,1.211,1.211,0,0,0,.8-.88A.94.94,0,0,0,45.2-51.68ZM25.28-50.56q0-.16.44-.24t.12-.32q0,.24-.48.32T25.28-50.56Zm-2.88,0q0-.08-.16-.08a.23.23,0,0,0-.16.08q-.16.24.16.12T22.4-50.56Zm-14.24.88q0-.32.2-.28t.2-.12q-.16.16-.52,0T8-50.4a1.4,1.4,0,0,0-.92.64A1.509,1.509,0,0,1,6-49.12v.48a1.36,1.36,0,0,0,.64-.52,1.36,1.36,0,0,1,.64-.52q.4-.16.44-.08t-.12-.32q.32,0,.36.2T8.16-49.68Zm5.76-.16q0-.32.2-.28t.2-.12q-.32.16-.44-.04t-.12.04q.24,0,.2.08a.465.465,0,0,1-.08.12.465.465,0,0,0-.08.12Q13.76-49.84,13.92-49.84Zm33.76-.56q-2.32,1.36-4.56,2.76a44.716,44.716,0,0,0-4.24,3,2.2,2.2,0,0,0,1.72-.44,12.307,12.307,0,0,1,1.64-1,17.3,17.3,0,0,1,2-1.08,5.9,5.9,0,0,0,1.68-1.08q.64-.56,1.2-1t1.12-.84a.439.439,0,0,0-.28-.16A.439.439,0,0,1,47.68-50.4Zm-20.96.32a1.928,1.928,0,0,0,.96-.16q-.16,0-.64-.04T26.72-50.08Zm-2.64.56q0-.24.16-.2t.16-.12q-.16,0-.16-.12t-.16-.12q0,.32-.08.36T24.08-49.52Zm-6.72.16q0-.16.24-.24t-.08-.24a.434.434,0,0,1-.2.32Q17.12-49.36,17.36-49.36Zm5.76.56q0-.24.2-.24t.2-.32q-.32-.16-.44.2T23.12-48.8Zm-6.64,0q.56,0,.28-.2t-.44.2Zm8.8.16q.16-.16-.08-.36t-.24.2q.24,0-.04.08T25.28-48.64Zm18.24,4.56v.16a12.662,12.662,0,0,1,2.96-2.32,25.873,25.873,0,0,0,3.2-2.16.313.313,0,0,1-.36-.28q-.04-.28-.2-.28-2.16,1.6-4.56,3.04l-4.8,2.88q.56-.08.52.32t.36.4a3.472,3.472,0,0,0,1.56-.92A2.957,2.957,0,0,1,43.52-44.08Zm-21.6-4q-.56.16-.44.36T21.92-48.08Zm-1.68,1.12q.32.16.68-.24t.04-.16A.786.786,0,0,0,20.24-46.96Zm1.68.32q.24.4.68,0t.76-.72q-.32.16-.44-.04t-.12.04q.16.4-.24.36A.64.64,0,0,0,21.92-46.64ZM40.8-38.88a.788.788,0,0,0,.2-.28.788.788,0,0,1,.2-.28q1.12-.88,2.44-1.8a21.974,21.974,0,0,0,2.28-1.8,15.437,15.437,0,0,0,2.56-1.76,23.018,23.018,0,0,1,2.48-1.84q-.4-.24-.4-.32a2.026,2.026,0,0,0-1.2.4,6,6,0,0,1-1.12.64q-1.92,1.36-3.76,2.6a21.954,21.954,0,0,1-4,2.12,3.15,3.15,0,0,1-.52,2,6.474,6.474,0,0,0-.92,1.6,3.656,3.656,0,0,1,.96-.68A2.231,2.231,0,0,0,40.8-38.88ZM25.84-46.8q.56,0,.56-.16H26Zm-9.92.32a1.014,1.014,0,0,1,.6-.12q.28.04.28-.2-.4.16-.56.04T15.92-46.48Zm3.6.24q0-.32.28-.32t.28-.24a1.064,1.064,0,0,0-.48.2Q19.28-46.4,19.52-46.24Zm5.76-.24a.708.708,0,0,1,.44-.12q.12.04.12-.2h-.32Q25.52-46.64,25.28-46.48Zm-19.12.24a.988.988,0,0,1,.72-.12q.56.04.24-.28,0,.16-.16.12a2.837,2.837,0,0,1-.36-.12.424.424,0,0,0-.36,0Q6.08-46.56,6.16-46.24Zm15.04-.24v.56a.493.493,0,0,0,.4-.2,4.364,4.364,0,0,1,.32-.36q-.4,0-.44-.08T21.2-46.48Zm-5.6.4q-.24.16-.24.2t.12.04a.445.445,0,0,0,.2-.04Q15.76-45.92,15.6-46.08Zm8.8.56q0-.32.28-.28t.28-.12q-.32-.16-.56.2T24.4-45.52Zm.4.16q-.56.24-.56.56-.96.56-1.96,1.12a7.459,7.459,0,0,0-1.64,1.2,31.206,31.206,0,0,0-2.84,1.64q-1.56,1-2.92,1.96-.16.16-.08.2t.08.2a4.15,4.15,0,0,0-1,.6,7.277,7.277,0,0,1-1,.68q.16.16.08.28a.853.853,0,0,0-.08.44.807.807,0,0,0,.84-.12,2.312,2.312,0,0,1,.6-.44.071.071,0,0,0,.08.08.326.326,0,0,0,.24-.08l.24-.4a1.088,1.088,0,0,1,.72-.16.5.5,0,0,0,.16-.36.5.5,0,0,1,.16-.36.326.326,0,0,0,.08.24.071.071,0,0,0,.08.08,1.973,1.973,0,0,0,.68-.72.828.828,0,0,1,1-.32,1.213,1.213,0,0,1,.72-.8,5.862,5.862,0,0,0,1.04-.48q-.16,0,.04-.24t.36.08q0-.56.4-.64a1.784,1.784,0,0,0,.64-.24,2.623,2.623,0,0,1,1.04-.8,2.981,2.981,0,0,0,1.12-.88,5.6,5.6,0,0,1,.8-.4,1.456,1.456,0,0,0,.64-.48q.4-.24.92-.52t1.08-.52q0-.32-.12-.36t.12-.2q-.4.16-.48-.04a1.065,1.065,0,0,0-.24-.36,1.592,1.592,0,0,1-.64.36A.716.716,0,0,0,24.8-45.36Zm-7.04.56a.435.435,0,0,1,.36-.48.435.435,0,0,0,.36-.48l-.72.36Q17.36-45.2,17.76-44.8Zm0,1.04a.538.538,0,0,1,.48.24.275.275,0,0,1,.12-.36q.2-.12.44-.28a5.626,5.626,0,0,0,.48-.36.572.572,0,0,0,.24-.44.477.477,0,0,0,.56-.04q.24-.2,0-.36a7,7,0,0,1-1.08.68A5.164,5.164,0,0,0,17.76-43.76Zm5.6-1.04q-.16-.32-.04-.04t.36.04q.32-.4-.08-.56t-.08,0q.16.32.08.36A1.138,1.138,0,0,0,23.36-44.8Zm25.92,3.04a1.208,1.208,0,0,0-.4.48,2.507,2.507,0,0,1-.48.64,8.437,8.437,0,0,1-1.64,1.04,3.377,3.377,0,0,0-1.4,1.28q.56-.4,1.08-.72a6.03,6.03,0,0,0,1.08-.88,8.492,8.492,0,0,0,2.6-1.48,11.727,11.727,0,0,1,2.6-1.64q-.24-.56-.52-1.24a3.265,3.265,0,0,0-.68-1.08q-3.6,2.56-7.04,5.2t-6.72,5.44a1.064,1.064,0,0,1,.64-.24q.32,0-.08-.32a2.923,2.923,0,0,0,1.12-.4,9.14,9.14,0,0,0,.88-.8q0,.56.16.36a.6.6,0,0,0,.16-.36q-.32,0-.32-.24a1.262,1.262,0,0,1,.64-.12q.24.04-.16-.2.32,0,.36-.08t.2-.08q.32,0,.16.08t0,.08a.771.771,0,0,0,.4-.36.807.807,0,0,1,.32-.36q.16-.16.2-.12t.2-.12a6,6,0,0,0,.44-.52,1.609,1.609,0,0,1,.68-.52,1.28,1.28,0,0,1,.56-.2.326.326,0,0,0,.32-.36q0,.4.16.4v-.56a1.728,1.728,0,0,0,1-.64,1.728,1.728,0,0,1,1-.64,3.734,3.734,0,0,1,2.16-1.84q1.52-.56,2.88-1.2,0,.16.08.16t.08.16a2.049,2.049,0,0,1-1.2,1.16A5.348,5.348,0,0,0,49.28-41.76ZM22.24-44.08q.32.16.64-.2t-.24-.36q.16.32-.12.28T22.24-44.08Zm10.8,8.48q.56-.16,1.56-.4a5.447,5.447,0,0,0,1.4-.48,4.543,4.543,0,0,0,1.28-1.36,6.233,6.233,0,0,0,.88-1.6,4.071,4.071,0,0,0-.32-2.04,4.021,4.021,0,0,0-1.16-1.44,6.355,6.355,0,0,0-1.72-.96,17.677,17.677,0,0,0-1.92-.6q-1.2-.24-2.72-.4a5.1,5.1,0,0,0-2.48.24.8.8,0,0,0-.44.24.659.659,0,0,0-.28.48,22.66,22.66,0,0,1,.72,3.96q.16,1.88.32,3.96,1.12.16,2.4.36A8.619,8.619,0,0,0,33.04-35.6Zm5.84-8.48a1.928,1.928,0,0,0-.96-.16q0,.56.32.48A1.8,1.8,0,0,0,38.88-44.08Zm-17.36.56a1.066,1.066,0,0,1,.36-.24.311.311,0,0,0,.2-.32.7.7,0,0,1-.36.2Q21.52-43.84,21.52-43.52Zm-4.16.32a.461.461,0,0,0,.32-.16.23.23,0,0,0,.08-.16q-.32-.16-.28,0A.332.332,0,0,1,17.36-43.2Zm3.28-.32q0,.48.16.48,0-.24.28-.24t.28-.24a1.094,1.094,0,0,0-.4.28Q20.88-43.12,20.64-43.52Zm3.92.32h.24v-.32h-.24Zm-7.92.56q.64-.16.48-.36T16.64-42.64Zm3.44.16q0-.24.28-.24t.28-.32a1.013,1.013,0,0,0-.6.2Q19.76-42.64,20.08-42.48Zm4.16-.56v.24q-.32.16-.32.2t.12-.04a.714.714,0,0,0,.2-.2Q24.32-42.96,24.24-43.04Zm-2.32,2a3.467,3.467,0,0,1-.72.68q-.4.28-.8.6-1.44.96-3,1.92T14.48-36a7,7,0,0,1-1.08.68q-.68.36-.36.76A12.062,12.062,0,0,1,15.24-36a17.924,17.924,0,0,0,2.52-1.6q-.32.48,0,.72.16,0,.08-.08t.08-.08q.16,0,.16-.08v-.08q-.4,0-.24-.2t-.08-.36l.4-.16.32.16a.781.781,0,0,1,.16-.56,4.964,4.964,0,0,1,2.88-1.44A2.349,2.349,0,0,1,22.76-41a10.894,10.894,0,0,0,1.48-.76.75.75,0,0,1,.48-.76q.48-.2.24-.52a5.69,5.69,0,0,1-1.4,1.16Q22.8-41.44,21.92-41.04Zm17.68-.72q.48,0,.48-.56a1.39,1.39,0,0,1-.28-.44.439.439,0,0,0-.44-.28.432.432,0,0,0,.08.64A.494.494,0,0,1,39.6-41.76Zm-20.08-.32q0-.16.2-.2t.2-.2a.321.321,0,0,0-.48.12Q19.28-42.08,19.52-42.08Zm-.72,0q-.4.24,0,.24T18.8-42.08Zm7.04.16a65.921,65.921,0,0,1-6.48,4.4,65.92,65.92,0,0,0-6.48,4.4.477.477,0,0,1-.04.56q-.2.24.2.4a1.3,1.3,0,0,1,.8-.68,4.167,4.167,0,0,0,1.04-.44.7.7,0,0,0,.2-.36.588.588,0,0,1,.28-.36.652.652,0,0,1,.48-.16.652.652,0,0,0,.48-.16q.24-.32.64-.8a.86.86,0,0,1,.96-.32A2.382,2.382,0,0,1,19.2-36.6a3.774,3.774,0,0,0,1.44-1q.56,0,.64-.36t.64-.2a1.1,1.1,0,0,1,.8-.96,1.028,1.028,0,0,0,.8-.8q.8-.4,1.52-.8A2,2,0,0,0,26-41.76.141.141,0,0,0,25.84-41.92Zm-3.2.16q-.56.16-.36.28T22.64-41.76Zm-5.84.72v.4q.32-.16.84-.36t.28-.6a2.045,2.045,0,0,1-.56.2q-.24.04.16.2A1.088,1.088,0,0,1,16.8-41.04Zm4.56,0a1,1,0,0,0,.72-.32H22q-.08,0-.08-.24h-.16q-.08,0-.08.24.32.24-.08.16T21.36-41.04Zm26.88,4.56h.56a2.654,2.654,0,0,1,.28-.56q.12-.16.76-.16a.692.692,0,0,1,.32-.56,5.848,5.848,0,0,1,.6-.4,2.089,2.089,0,0,0,.44-.32q.16-.16-.08-.4a1.423,1.423,0,0,0,.96-.28,1.291,1.291,0,0,1,.88-.28v-1.92Q46-37.52,39.64-33.24t-12.92,8.6a.8.8,0,0,0,.96,0q-.24-.08-.12-.16a.942.942,0,0,1,.36-.12,2.122,2.122,0,0,0,.44-.12.311.311,0,0,0,.2-.32.552.552,0,0,0-.36.2q-.2.2-.2-.2a2.661,2.661,0,0,0,1.72-.68,1.736,1.736,0,0,1,1.4-.52q0-.24-.08-.28a.17.17,0,0,0-.16,0l-.16.08q-.08.04-.16-.2a.961.961,0,0,1,.64-.08.961.961,0,0,0,.64-.08,3.054,3.054,0,0,1,1.08-.92,5.164,5.164,0,0,0,1.24-.92.857.857,0,0,0,.6-.04,3.64,3.64,0,0,0,.4-.28q.2-.16.44-.32a1,1,0,0,1,.72-.08q.16-.16.04-.24t.12-.24q0,.4.36.08t.36-.48a1.424,1.424,0,0,0,.96-.16,7.632,7.632,0,0,0,.76-.52,4.55,4.55,0,0,1,.76-.48,1.6,1.6,0,0,1,.96-.12q0-.4.08-.28t.08-.28a2.742,2.742,0,0,0,1.84-1.04,3.307,3.307,0,0,1,.44.04q.28.04.28-.2-.16-.08,0-.16l.32-.16a1.773,1.773,0,0,1,.56-.08q-.16-.16.32-.24a.769.769,0,0,0,.64-.48,1.683,1.683,0,0,1,.4.04q.16.04.32-.2a.543.543,0,0,0-.4.16,3.127,3.127,0,0,1,1.44-.92A2.4,2.4,0,0,0,48.24-36.48Zm-2,1.6q0-.16.24-.28t-.08-.12q0,.16-.2.2T46.24-34.88Zm-6.48-5.44q.24.16.24-.16t-.24-.16Zm-24.16.4q.16.24.48-.08t0-.48q0,.24-.24.2T15.6-39.92Zm4.48-.4v.4q.24.16.36-.2t-.2-.36A.141.141,0,0,1,20.08-40.32Zm-7.2,9.6a4.09,4.09,0,0,1-.08.68.5.5,0,0,0,.24.6,2.008,2.008,0,0,1,.56-.64q.4-.32.56-.48h.48a1.792,1.792,0,0,0,.4-.52q.08-.2.32-.04a2.47,2.47,0,0,1,1.04-.84q.64-.28,1.36-.6-.08,0-.08-.16a.23.23,0,0,1,.08-.16,1.714,1.714,0,0,0,.96-.56,2.008,2.008,0,0,1,.64-.56q1.6-1.2,3.44-2.36t3.6-2.52a2.4,2.4,0,0,0-.4-1.28q-3.28,2.48-6.64,4.72T12.88-30.72Zm6.64-8.88q.32,0,.36-.16a.189.189,0,0,1,.2-.16Q19.52-40.24,19.52-39.6Zm-5.04.72a.878.878,0,0,1,.44-.52.978.978,0,0,0,.44-.36q-.16-.16-.48.16h0a2.338,2.338,0,0,0-.2.24q-.12.16-.2.28T14.48-38.88Zm6.48-.16a.354.354,0,0,0,.4-.4q-.32-.16-.28.04A.381.381,0,0,1,20.96-39.04Zm-2.48.16h.32v-.32q-.16,0-.16-.12t-.16-.12Zm-1.44,1.12a.607.607,0,0,1,.32-.36,4.471,4.471,0,0,0,.48-.28q.24-.16.4-.28t0-.36a1.648,1.648,0,0,1-.8.64Q16.88-38.16,17.04-37.76Zm3.04-.56a.189.189,0,0,1,.16-.2.189.189,0,0,0,.16-.2q-.24,0-.12-.08t-.04-.08a.346.346,0,0,1-.16.28Q19.92-38.48,20.08-38.32ZM43.76-37.2h.4v-.08a.23.23,0,0,1-.08-.16H44q-.08,0-.08-.16a1.009,1.009,0,0,0,.68-.24q.28-.24.6-.48a3.329,3.329,0,0,1-.84.36A.922.922,0,0,0,43.76-37.2Zm-24.4-.56q.32,0,.32-.4a1.315,1.315,0,0,0-.32.04Q19.2-38.08,19.36-37.76Zm-3.44.56a3.627,3.627,0,0,1,.72-.4,2.915,2.915,0,0,0-.48.04Q15.92-37.52,15.92-37.2ZM36.48-27.12q.16.24.52-.04a.726.726,0,0,1,.76-.12q.16-.16.08-.28t.08-.28a11.335,11.335,0,0,0,1.6-.88,5.334,5.334,0,0,1,1.68-.72q-.16-.56.4-.64a6.614,6.614,0,0,1,.88-.08q-.4-.32-.08-.12t.24-.12q-.16,0-.16-.08v-.08a.788.788,0,0,0,.2-.28q.04-.12.28-.12a1.854,1.854,0,0,1-.04.36q-.04.2.28.04v-.56a2.214,2.214,0,0,0,1.24-.64,2.136,2.136,0,0,1,1.08-.64q-.72,0-.72-.48a21.5,21.5,0,0,0,2.48-1.2q1.12-.64,2.24-1.2.32,0,.72.96a4.856,4.856,0,0,1,1.2-1.6,2.2,2.2,0,0,0,.8-1.68,83.62,83.62,0,0,1-9.96,5.72q-5.32,2.6-10.12,5.32-.64.4-1.28.88t-1.2.88q1.2.16,2.28.2a4.511,4.511,0,0,0,2.2-.52A.346.346,0,0,0,34-25.4q-.16-.12.16-.12.4,0,.48-.2a1.066,1.066,0,0,1,.24-.36.489.489,0,0,1,.44-.12q.28.04.28-.36a.163.163,0,0,1,.12.04.163.163,0,0,0,.12.04.23.23,0,0,0,.16.08.381.381,0,0,0,.12-.36Q36.08-26.96,36.48-27.12Zm6.48-9.76a.865.865,0,0,0,.44-.2q.28-.2.12-.36,0,.32-.28.32T42.96-36.88ZM12.88-27.12q.56-.56,1.08-1.12a2.442,2.442,0,0,1,1.4-.72q0-.48.56-.48a5.7,5.7,0,0,0,1.56-1.04,3.08,3.08,0,0,1,1.32-.8,5.51,5.51,0,0,1,1.36-1.24q.8-.52,1.64-1t1.64-.92a11.5,11.5,0,0,0,1.52-1,9.934,9.934,0,0,0,.92-.64,1.182,1.182,0,0,0,.52-.96,68.607,68.607,0,0,0-6.84,4.32Q16.08-30.24,12.64-28q.32.16.12.44T12.88-27.12Zm2.16-9.6a1,1,0,0,0,.72-.32Q15.2-37.04,15.04-36.72Zm-.88.56a1.945,1.945,0,0,1-.96.4q-.56.08-.16.48a.738.738,0,0,1,.36-.4q.28-.16.6-.32t.6-.32a.464.464,0,0,0,.28-.4.47.47,0,0,0-.44.2A1.86,1.86,0,0,1,14.16-36.16Zm26.88.56a.712.712,0,0,0,.8-.24,4.206,4.206,0,0,1,.8-.64.532.532,0,0,0,.32-.12q.16-.12,0-.12a2.336,2.336,0,0,0-1,.48A5.483,5.483,0,0,1,41.04-35.6ZM16.8-36.16q0-.32.24-.32h-.4Q16.32-36.16,16.8-36.16Zm-1.76.88-.08-.08a.071.071,0,0,0-.08.08q.24.16.4.04l.48-.36q-.4,0-.44.16T15.04-35.28Zm25.6,0q0-.16.2-.08t.2-.08q-.32-.16-.48,0T40.64-35.28Zm-1.28.72q.4.16.56-.08t.72-.08a.311.311,0,0,0-.2-.32,1.066,1.066,0,0,1-.36-.24,1.032,1.032,0,0,1-.36.44A1.86,1.86,0,0,0,39.36-34.56Zm-21.6-.16h.16v-.32h-.16Zm-3.44,6.48q.4,0,0,.4a.493.493,0,0,1-.28-.08q-.12-.08-.12.08.16.24-.48.44a1.155,1.155,0,0,0-.8.6q1.28-.56,2.16-1.04a8.3,8.3,0,0,0,1.84-1.44q-.24.16-.28,0t-.44-.16q0,.24.08.28t.08.2a3.83,3.83,0,0,1-.88.4A6.279,6.279,0,0,0,14.32-28.24Zm9.04-3.6a2.853,2.853,0,0,1,.64-.6q.48-.36,1-.72a9.26,9.26,0,0,0,.96-.76,2.245,2.245,0,0,0,.6-.8q0,.32-.08,0t-.24-.16Q22.8-32.8,19.56-30.6a60.32,60.32,0,0,1-6.92,4.04,7.91,7.91,0,0,0,.08,1.12.785.785,0,0,1-.24.8,9.871,9.871,0,0,0,1.68-.88q.72-.48,1.6-1.04a.788.788,0,0,1,.28-.2.788.788,0,0,0,.28-.2q-.16.08-.08.08a.23.23,0,0,0,.16-.08.931.931,0,0,1,.24-.16,4.033,4.033,0,0,0,.84-.76,1.2,1.2,0,0,1,1-.36.326.326,0,0,0-.08-.24q-.08-.08.08-.08a.543.543,0,0,0,.4-.16.326.326,0,0,0,.08-.24q.72,0,.84-.44t.84-.6a.326.326,0,0,1-.08.24q-.08.08.08.08a7.28,7.28,0,0,1,.56-.8q.32-.4.88-.08-.32-.56.28-.76A3.212,3.212,0,0,0,23.36-31.84Zm-3.28,11.6a9.932,9.932,0,0,0-2.6,1.6,9.933,9.933,0,0,1-2.6,1.6,2.14,2.14,0,0,0-.8.16.494.494,0,0,1-.64-.16,2.225,2.225,0,0,1,1.2-.92,7.187,7.187,0,0,0,1.44-.68,6.931,6.931,0,0,1,.64-.52,1.7,1.7,0,0,1,1.04-.36,1.069,1.069,0,0,1,.72-.68,2.281,2.281,0,0,0,.88-.44q-.32-.24.2-.48t.68-.08A3,3,0,0,1,21-22q.52-.4,1.16-.8t1.24-.76a2.954,2.954,0,0,0,.84-.68,3.276,3.276,0,0,0,1.48-.92,3.3,3.3,0,0,1,1.4-.92h-.08q-.08,0-.08-.16h.72a.98.98,0,0,1,.64-.72.971.971,0,0,0,.64-.56,2.126,2.126,0,0,0,.96-.2q.4-.2.08-.52a3.512,3.512,0,0,1,.6-.24,2.5,2.5,0,0,1,.68-.08.981.981,0,0,1,.68-.72,2.2,2.2,0,0,0,.92-.56q-.16-.24.36-.56a1.011,1.011,0,0,1,.92-.16.31.31,0,0,0,.08-.36q-.08-.2.08-.2.16.24.24.16a.931.931,0,0,0,.16-.24.6.6,0,0,1,.2-.24q.12-.08.28.16,0-.56.12-.4t.12-.16q.24-.24.36-.12a.775.775,0,0,0,.52.12.431.431,0,0,1,.12-.48,1.591,1.591,0,0,1,.4-.24q.2-.08.28-.12t-.24-.2q.64.24.8-.2t.8-.36q-.08-.16.04-.24a2.615,2.615,0,0,1,.28-.16.364.364,0,0,0,.2-.2q.04-.12-.12-.28,0,.4-.64.48a1.412,1.412,0,0,0-1.04.72,5.5,5.5,0,0,0-.68.32,2.462,2.462,0,0,0-.52.4q-.72.4-1.36.72a8.934,8.934,0,0,0-1.2.72q-1.92,1.28-3.76,2.48L26-26.08l-1.12.8a5.194,5.194,0,0,1-1.2.64,11.2,11.2,0,0,0-1.04.72q-.4.32-.96.72a5.38,5.38,0,0,1-1.08.48,2.752,2.752,0,0,0-.92.48q-.8.56-1.72,1.16a11.628,11.628,0,0,1-1.88,1q-.56.24-1.2.56a2.84,2.84,0,0,1-1.28.32q.4-.4.76-.72a1.453,1.453,0,0,1,1-.32,6.943,6.943,0,0,1,2-1.4,7.892,7.892,0,0,0,2-1.32,6.261,6.261,0,0,0,1.44-.8q.64-.48,1.28-1.04a.493.493,0,0,1-.08.28q-.08.12.08.12a2.657,2.657,0,0,1,.6-.72q.44-.4.44,0,.16-.4.28-.4h.28a1.032,1.032,0,0,0,.44-.36,1.86,1.86,0,0,1,.28-.36,6.662,6.662,0,0,1,.64-.28,6.661,6.661,0,0,0,.64-.28,2.089,2.089,0,0,0,.32-.44,1.069,1.069,0,0,1,.56-.44,1.7,1.7,0,0,0,1.04-.8,1.862,1.862,0,0,1,1.36-.8,3.107,3.107,0,0,1,1.08-1.04,6.174,6.174,0,0,0,1.24-.96.439.439,0,0,1-.28.16q-.12,0-.12.16a1.388,1.388,0,0,0,.92-.72.75.75,0,0,1,.76-.48H32.4q-.08,0-.08.16.56,0,.56-.4-.16-.16-.28-.08t-.28-.08a1.987,1.987,0,0,0,1.08-.56,6.413,6.413,0,0,1,.76-.72q0,.56.32.24a2.943,2.943,0,0,1,.72-.56q-.56-.16-.16-.2t.4-.2a.842.842,0,0,0-.92.08,2.033,2.033,0,0,1-1.08.32.7.7,0,0,0-.2.36q-.04.2-.36.2-3.36,2.56-7.04,5.08t-7.36,5q-.72.4-1.32.72t-1.24.72a9.93,9.93,0,0,0-1.24.92,1.685,1.685,0,0,1-1.48.36,49.38,49.38,0,0,1,4.44-3.52q2.28-1.6,4.44-3.2.24.32.28.08t.44-.24a.878.878,0,0,0,.32-.56q2.16-1.44,4.2-2.92t3.96-3a2.84,2.84,0,0,0-1.04-.16H28.96a49.794,49.794,0,0,0-4,3.08Q23.04-29.6,21.12-28t-4.04,3.04a30.526,30.526,0,0,1-4.6,2.56,26.549,26.549,0,0,1,.4,3.6,18.056,18.056,0,0,1-.24,3.76q2.08-1.36,3.8-2.56T20.08-20.24ZM36.48-34q.56,0,.56-.16Q36.88-34.32,36.48-34ZM21.2-32a4.868,4.868,0,0,1,.72-.56,1.408,1.408,0,0,0-.68.2Q20.88-32.16,21.2-32Zm-3.28,0-.48.24.12-.04a2.2,2.2,0,0,0,.28-.12Q18-32,17.92-32Zm1.6,1.04a.922.922,0,0,0,.64-.32q.32-.32-.08-.16,0,.24-.48.24T19.52-30.96Zm-3.2.24q0-.24.16-.24,0-.32-.4-.32a1.854,1.854,0,0,0,.04.36Q16.16-30.72,16.32-30.72Zm29.04.16q0-.16.28-.28t-.12-.28a.292.292,0,0,1-.24.4Q44.96-30.64,45.36-30.56Zm-26.88.4a.78.78,0,0,0,.52-.28q.28-.28-.04-.28,0,.16-.32.16T18.48-30.16Zm-1.68.72q.4.4.72-.08a.889.889,0,0,1,.72-.48.651.651,0,0,0-.8.2A.736.736,0,0,1,16.8-29.44Zm20.96,4.8a1.9,1.9,0,0,1,.76-.28.854.854,0,0,0,.52-.2q.16,0,.08-.2t.08-.2l.16.16a1.138,1.138,0,0,0,.2-.24,1.138,1.138,0,0,1,.2-.24.588.588,0,0,1,.44-.12.588.588,0,0,0,.44-.12.714.714,0,0,0,.4-.44.725.725,0,0,1,.48-.44,2.378,2.378,0,0,0,.64-.36,1.256,1.256,0,0,1,.8-.2q-.08-.24.2-.4t.6-.32q.32-.16.64-.36a.849.849,0,0,0,.4-.52.846.846,0,0,1-.76-.04q-.36-.2.04-.52a1.361,1.361,0,0,0-1.16.24q-.6.4-1.16.72a30.448,30.448,0,0,1-3.36,2.04q-1.76.92-3.36,1.88.4,0,.28.36t-.28.36a.381.381,0,0,1-.12-.36q.04-.2-.2-.2a.513.513,0,0,1-.48.32.538.538,0,0,0-.48.24,3.213,3.213,0,0,1,1.4.56,3.126,3.126,0,0,0,1.16.56.772.772,0,0,0-.16-.96.775.775,0,0,1,.52.12.489.489,0,0,0,.36.12A3.168,3.168,0,0,0,37.76-24.64Zm2.56,1.12q.16-.56.44-.56a.6.6,0,0,0,.44-.16q.64-.4,1.4-.84a6.064,6.064,0,0,1,1.32-.6q0-.4.16-.4a2.867,2.867,0,0,1,1.36-.76,2.615,2.615,0,0,0,1.36-.84,10.964,10.964,0,0,1-1.12-.56,27.1,27.1,0,0,1-4,2.44,12.723,12.723,0,0,0-3.76,2.84q.32-.16.44.08t.52.08a1.574,1.574,0,0,0,.48-.52Q39.44-23.52,40.32-23.52Zm6.08-.16q-.16,0-.16-.12t.16-.12q.16.4.24.04t.32-.36a.2.2,0,0,1,.32,0q.16.16-.16-.4a.384.384,0,0,1,.28.12l.28.28a.991.991,0,0,1,.36-.68,3.236,3.236,0,0,1,.68-.36,6.643,6.643,0,0,0,.76-.36,1.152,1.152,0,0,0,.52-.6q-.16,0-.16-.08t-.16-.24Q47.2-25.2,44.92-23.8t-4.44,3q.08,0,.08.16a.23.23,0,0,1-.08.16,16.427,16.427,0,0,0,2.92-1.6A15.4,15.4,0,0,1,46.4-23.68ZM16.08-25.84q-.24.08-.2.12a.232.232,0,0,0,.16.04h.2Q16.32-25.68,16.08-25.84Zm30,0q-.24.24-.16.24a.389.389,0,0,0,.2-.08.453.453,0,0,0,.16-.16Q46.32-25.92,46.08-25.84Zm-1.28.72h.72a.788.788,0,0,0,.2-.28.788.788,0,0,1,.2-.28,1.976,1.976,0,0,1-.64.2A.6.6,0,0,0,44.8-25.12Zm.16,4.32a1.17,1.17,0,0,1,.4-.56,5.23,5.23,0,0,1,.56-.32.326.326,0,0,1-.08.24l.08-.08q.16,0,.16-.08t-.16-.08a2.015,2.015,0,0,0,1.24-.72,1.486,1.486,0,0,1,1.24-.56.543.543,0,0,0-.16-.4,6.473,6.473,0,0,0,1.6-.92q.64-.52,1.28-1.08-2.56,1.52-5.2,2.96T40.8-19.36q.16.16.08.16t-.24.16a.354.354,0,0,1,.4.4,5.37,5.37,0,0,0,1.92-1.16A3.96,3.96,0,0,1,44.96-20.8Zm-5.92-.88a.789.789,0,0,0,.76.08,1.02,1.02,0,0,0,.52-.48,1.777,1.777,0,0,0,1.04-.72,1.91,1.91,0,0,1,1.28-.72,1.557,1.557,0,0,1,1.12-.8q.88-.24.88-.8-1.36.8-2.88,1.56A11.493,11.493,0,0,0,39.04-21.68ZM13.76-24.4q-.32.16-.28.12a.434.434,0,0,1,.16-.08l.24-.08Zm18.8,0a.714.714,0,0,0-.52-.16q-.36,0-.04.32,0-.24.08-.2a1.552,1.552,0,0,0,.2.08,1.552,1.552,0,0,1,.2.08Q32.56-24.24,32.56-24.4Zm8.64,7.92a5.9,5.9,0,0,0,1.04-.64,2.707,2.707,0,0,1,.96-.48h-.16q-.08,0-.08-.16a.573.573,0,0,0,.64-.08q.32-.24.6-.48a2.2,2.2,0,0,1,.56-.36q.28-.12.6.2.16-.64.52-.76a2.388,2.388,0,0,1,.76-.12q-.16-.4.08-.28a.943.943,0,0,0,.4.12,1.066,1.066,0,0,0,.24-.36.807.807,0,0,1,.32-.36,2.53,2.53,0,0,0,1.08-.68q.52-.52.92-.28a.461.461,0,0,0-.16-.32,5.89,5.89,0,0,0,1.84-.92,12.72,12.72,0,0,1,1.6-1.08.439.439,0,0,0-.28-.44,1.39,1.39,0,0,1-.44-.28,60.217,60.217,0,0,1-5.44,3.32q-2.88,1.56-5.6,3.16.24.56-.04.84T41.2-16.48ZM22.96-22.24q-.16.16-.16.24t.16-.08a11.389,11.389,0,0,0,1.68-.6,2.373,2.373,0,0,0,1.2-1.24,4.889,4.889,0,0,0-1.4.84A4.67,4.67,0,0,1,22.96-22.24ZM28-11.76a6.145,6.145,0,0,1,1.28.12,1.13,1.13,0,0,1,.72.36,18.438,18.438,0,0,1,3.6-.32,8.239,8.239,0,0,0,3.28-.56v-.16a.141.141,0,0,1,.16-.16q0-.16.12,0a.346.346,0,0,0,.28.16,2.234,2.234,0,0,0,.8-1,2.234,2.234,0,0,1,.8-1,2.7,2.7,0,0,1,.08-1.44,2.7,2.7,0,0,0,.08-1.44,4,4,0,0,0-.52-1.2,2.058,2.058,0,0,1-.36-1.12.429.429,0,0,1-.48-.32,3.126,3.126,0,0,0-.24-.64,7.848,7.848,0,0,1-2.08-1.12,6.351,6.351,0,0,0-2.08-1.04,7.5,7.5,0,0,0-3.08-.16,7.5,7.5,0,0,1-3.08-.16h-.16a14.024,14.024,0,0,1,.52,2.8q.12,1.44.12,2.92v2.88A13.262,13.262,0,0,0,28-11.76ZM37.04-22.4a.807.807,0,0,1,.52.16.589.589,0,0,0,.6,0,.778.778,0,0,1,.16-.4q-.4-.16-.76-.28T37.04-22.4Zm7.2,6.08a2.258,2.258,0,0,1,.92-.56,6.562,6.562,0,0,0,1.48-.88q0-.16.52-.44a2.249,2.249,0,0,1,1.08-.28,2.235,2.235,0,0,1,1.28-.92,3.492,3.492,0,0,0,1.44-.84q0,.16.08.16h.08a2.814,2.814,0,0,1,1.52-1.2,2.935,2.935,0,0,0,1.52-1.12,1.775,1.775,0,0,0-.8.2,4.532,4.532,0,0,0-.8.52q-2.8,1.44-5.76,3.16t-5.76,3.08a.676.676,0,0,1-.04.68q-.2.28.2.44a1.214,1.214,0,0,1,.68-.72,6.046,6.046,0,0,0,1.08-.56.071.071,0,0,1-.08-.08.326.326,0,0,1,.08-.24h.96q-.16-.32,0-.2T44.24-16.32Zm-29.6,2.16a4.851,4.851,0,0,1,.84-.4,6.633,6.633,0,0,0,1-.48,3.47,3.47,0,0,0,.88-.68,5.313,5.313,0,0,1,.88-.76h.56q.4-.4.92-.88a5.882,5.882,0,0,1,.92-.72,1.17,1.17,0,0,1,.72-.24,6.158,6.158,0,0,0,.96-.76,2.737,2.737,0,0,1,1.2-.68,2.068,2.068,0,0,1,1.16-.96,1.924,1.924,0,0,0,1.16-1.36,5.5,5.5,0,0,0-1.76.6q-.8.44-1.68,1a43.966,43.966,0,0,0-4.88,3.36,32.012,32.012,0,0,1-4.88,3.2v1.04a3.094,3.094,0,0,0,1.12-.52A8.2,8.2,0,0,0,14.64-14.16Zm24.4-7.04q0-.48-.4-.48-.16.24.04.28A.7.7,0,0,1,39.04-21.2Zm-17.84.24a1.312,1.312,0,0,0,.6-.2q.36-.2.12-.36a.807.807,0,0,1-.36.32A1.066,1.066,0,0,0,21.2-20.96Zm33.2.32a.141.141,0,0,1,.16.16q.56,0,.32-.36T54.4-20.64Zm-14.32.56q-.16-.32.04-.28t.2-.28q-.32-.24-.48.08T40.08-20.08Zm-14.4,0a31.3,31.3,0,0,1-4.8,3.2,49.671,49.671,0,0,0-4.8,2.96,19.458,19.458,0,0,1-2.04,1.28,3.335,3.335,0,0,0-1.56,1.6q.32-.16.4.08a.314.314,0,0,0,.32.24.687.687,0,0,0,.72-.4q.16-.4.72-.16a.815.815,0,0,1,.4-.68.567.567,0,0,1,.72-.04A2.414,2.414,0,0,1,17-12.96a2.414,2.414,0,0,0,1.24-.96q.32.24.44-.08t.52-.16a2.214,2.214,0,0,1,1-1.08,7.32,7.32,0,0,0,1.16-.68H21.2a.856.856,0,0,1,.88-.24,5.118,5.118,0,0,1,1.96-1.52A4.243,4.243,0,0,0,26-19.52a.381.381,0,0,1-.12-.36Q25.92-20.08,25.68-20.08Zm26.16,3.04a18.1,18.1,0,0,0,2-.84,4.133,4.133,0,0,0,1.44-1.16,5.081,5.081,0,0,0-1.56.8Q52.8-17.6,51.84-17.04ZM40.48-18.48q.56,0,.28-.2t-.28-.36Zm-28,9.76q.4.16.92-.32t.92-.8a1.758,1.758,0,0,0,.84-.24,1.264,1.264,0,0,0,.6-.64.406.406,0,0,0,.68-.12,1.6,1.6,0,0,1,.6-.6q-.32.16,0,.12t.16-.44q.56.24.64-.08t.24-.32h.2q-.12,0,.2-.16a4.532,4.532,0,0,1,.8-.52,7.481,7.481,0,0,0,.96-.6,2.776,2.776,0,0,1,.48-.36q.32-.2.64-.36.4-.24.36-.16t-.2-.16a1.5,1.5,0,0,0,.96-.4q.48-.4.92-.72a1.4,1.4,0,0,1,.8-.32q.36,0,.6.72a52.646,52.646,0,0,1-6.52,4.24,52.646,52.646,0,0,0-6.52,4.24,4.578,4.578,0,0,0-2,.96A7.9,7.9,0,0,1,7.6-4.56q0,.24-.04.64t.28.4A2.535,2.535,0,0,1,9.6-4.4,6.59,6.59,0,0,1,11-5.44a1.725,1.725,0,0,1,1.48-.24q-.16-.32.56-.72.4-.24.84-.52a6.992,6.992,0,0,1,1-.52.418.418,0,0,1,.44-.08.418.418,0,0,0,.44-.08l.16-.4a.31.31,0,0,1,.36-.08.31.31,0,0,0,.36-.08.185.185,0,0,0,.2-.12q.04-.12.36-.28a6.473,6.473,0,0,0,1.6-.92,1.427,1.427,0,0,1,1.28-.36q-.56-.24.08-.4a2.688,2.688,0,0,0,1.04-.48,1.781,1.781,0,0,0,.6-.36,2.878,2.878,0,0,1,.44-.36q.4-.24.68-.4t.6-.32q.56-.24.68-.16t-.12-.16a1.077,1.077,0,0,0,.96-.48,1.077,1.077,0,0,1,.96-.48V-15.8a14.085,14.085,0,0,0-.16-1.96q-3.28,2.32-6.8,4.52T11.92-8.88a.326.326,0,0,0,.08.24q.08.08-.08.08,0-.16-.32-.16-.56.4-1.08.72t-1.08.72a14.284,14.284,0,0,1-1.28.64.975.975,0,0,0-.56,1.2A6.114,6.114,0,0,0,9-6.32a2.1,2.1,0,0,1,1.32-.56.326.326,0,0,1-.24-.08A.23.23,0,0,1,10-7.12a6.9,6.9,0,0,1,1.48-.68A1.354,1.354,0,0,0,12.48-8.72ZM50.56-17.6q-.64.16-.44.36T50.56-17.6Zm-3.44,4a5.536,5.536,0,0,1,1.2-.92,2.467,2.467,0,0,1,1.2-.36q-.4,0-.4.24.64,0,.4-.56a7.978,7.978,0,0,1,.96-.48q.4-.16,1.04-.48a.833.833,0,0,0-.08-.48q-.08-.08.24-.4-2.56,1.52-5.08,2.96t-4.84,3.04a6.607,6.607,0,0,0-1.44.68q-.88.52-1.44.92-.32.16-.6.28t-.12.44q0-.16.08-.08a.326.326,0,0,0,.24.08.675.675,0,0,1,.4-.56.789.789,0,0,0,.8.04,2.709,2.709,0,0,0,.6-.52q.28-.32.56-.6a.71.71,0,0,1,.68-.2q-.24-.16,0-.16h.4q.16-.56.4-.44t.48-.44a.876.876,0,0,0,.84-.16q.52-.32.84-.56a3.8,3.8,0,0,1,.92-.36q.68-.2.28-.36.4-.32.44-.16t.28.16a2.622,2.622,0,0,0,.32-.4,3.178,3.178,0,0,1,.4-.48Zm-3.36,2.88q-3.84,2.08-7.52,4.4T28.96-1.68a3.657,3.657,0,0,0,2.4-.44,8.626,8.626,0,0,0,1.52-1.16q.4,0,.44-.16t.44-.4a6.662,6.662,0,0,1,.64-.28,1.34,1.34,0,0,0,.48-.28q.16-.16.56-.52a1.074,1.074,0,0,1,1.04-.2.748.748,0,0,1,.6-.48,1.826,1.826,0,0,0,.68-.24l.32-.32q.16-.16.56,0-.16-.4.32-.4a.649.649,0,0,0,.64-.56q.16,0,.2.08t.28-.08A.326.326,0,0,0,40-7.36q-.08-.08.08-.08a2.151,2.151,0,0,0,1.2-.44q.64-.44,1.2-.84a.071.071,0,0,1-.08-.08.071.071,0,0,1,.08-.08.461.461,0,0,0,.32.16.141.141,0,0,0,.16-.16.538.538,0,0,1-.48-.24,2.867,2.867,0,0,0,1.48-.4,2.821,2.821,0,0,0,.84-.64q.32-.16.44.04t.28-.04q-.16-.16,0-.24t.36-.16a.939.939,0,0,0,.32-.2q.12-.12-.12-.28a1.62,1.62,0,0,0,1.4-.6,1.363,1.363,0,0,1,1.32-.52,3.119,3.119,0,0,1,.36-.52,2.732,2.732,0,0,1,.68-.36q0,.16-.08.16h.08a8.881,8.881,0,0,0,1.52-1.2,3.981,3.981,0,0,1,1.76-.96.493.493,0,0,1,.2-.4,3.64,3.64,0,0,1,.4-.28q.2-.12.32-.2T54-16.16a24.793,24.793,0,0,1-5,2.8A41.91,41.91,0,0,0,43.76-10.72Zm1.6-3.92a.815.815,0,0,0,.6-.2,2.878,2.878,0,0,1,.44-.36A1.372,1.372,0,0,0,45.36-14.64ZM43.52-13.6a.493.493,0,0,1,.28.08q.12.08.28-.08,0-.24.56-.36a.9.9,0,0,0,.72-.68A2.742,2.742,0,0,0,43.52-13.6Zm5.04-.56q.4,0,.4-.32Q48.56-14.48,48.56-14.16Zm-6.64,1.28a.765.765,0,0,0,.96-.04q.56-.36.32-.68a1.394,1.394,0,0,1-.68.4A1.194,1.194,0,0,0,41.92-12.88Zm-.72,7.6a.764.764,0,0,0,.84-.28A1.568,1.568,0,0,1,43.2-6a.859.859,0,0,1,.72-.6,3.375,3.375,0,0,0,1.04-.28,5.952,5.952,0,0,0,1.16-.48q.6-.32.84-.48-.16,0,.2-.24t.52-.08q0-.56.4-.56a6.7,6.7,0,0,0,1.4-.64A11.367,11.367,0,0,1,50.72-10,7.009,7.009,0,0,0,52-10.88h.4a3.513,3.513,0,0,0,.52-.44,3.514,3.514,0,0,1,.52-.44q.88-.56,1.24-.76t.04-.92q-3.12,2.16-6.64,4.12T41.2-5.28ZM34.32-7.6a.729.729,0,0,1,.4-.4,1.066,1.066,0,0,0,.48-.4q.16,0,.12-.08t.12-.24a.493.493,0,0,1,.28.08q.12.08.28-.08v-.16q0-.24.16-.24.4-.16.44-.36t.44-.36l.16.24a3.213,3.213,0,0,0,.68-.48q.36-.32.76-.64a3.307,3.307,0,0,1,.44-.16,1.115,1.115,0,0,0,.28-.16.623.623,0,0,0,.56-.24.23.23,0,0,1,.08-.16q.08-.08.32,0l-.08.08a.071.071,0,0,0,.08.08,9.141,9.141,0,0,1,.88-.8,6.94,6.94,0,0,0,.72-.64,2.033,2.033,0,0,0-1.08.32q-.52.32-1.08.64Q35.2-9.2,30.72-6.64t-8.8,5.12h2.64a2.809,2.809,0,0,0,1.2-.76,2.361,2.361,0,0,1,1.36-.68.429.429,0,0,1,.32-.48,5.673,5.673,0,0,0,.72-.24q0-.4.52-.48a1.953,1.953,0,0,0,.76-.24,1.066,1.066,0,0,0,.24-.36A.807.807,0,0,1,30-5.12l.16.16a.708.708,0,0,0,.2-.32.189.189,0,0,1,.2-.16q.56-.32.76-.44a2.317,2.317,0,0,0,.52-.52A3.126,3.126,0,0,0,33-6.96a4.455,4.455,0,0,1,1.16-.64q-.32,0-.24-.2t.24-.2q.16.16.08.28T34.32-7.6Zm16.8-4.72a.788.788,0,0,1,.28-.2.185.185,0,0,0,.12-.2q-.32-.16-.44.12T51.12-12.32Zm-.88.56.16-.16q.16-.16,0-.24,0,.16-.24.28T50.24-11.76ZM47.12-10a8.934,8.934,0,0,1,1.2-.72,8.934,8.934,0,0,0,1.2-.72q-.72.32-1.56.76T47.12-10ZM9.04-.64A2.714,2.714,0,0,0,10.2-.8a1.35,1.35,0,0,1,.68-.16,1.086,1.086,0,0,1,.68-.76q.52-.2,1.08-.36a.574.574,0,0,1,.44-.56,2.457,2.457,0,0,1,.84-.16.878.878,0,0,1,.44-.52q.28-.12.64-.24t.72-.28a1.338,1.338,0,0,0,.6-.56l.16.16a1.119,1.119,0,0,1,.56-.6,4.7,4.7,0,0,0,.72-.44.071.071,0,0,0,.08.08.326.326,0,0,0,.24-.08,3.1,3.1,0,0,0,.4-.56q.24-.4.48,0,0-.32.24-.32a6.157,6.157,0,0,1,1.24-.68q.68-.28,1.08-.44,0-.56.36-.56A.714.714,0,0,0,22.4-8a1,1,0,0,1,.24-.4q.32-.32.48,0,0-.48.4-.48.24.16.44-.12a.554.554,0,0,1,.44-.28q-.24-.4.48-.52a1.835,1.835,0,0,0,.96-.36.687.687,0,0,1-.04-.6q.12-.28-.12-.28-4.24,2.56-8.52,5A70.352,70.352,0,0,0,9.04-.64ZM54-10.56q.4,0,.4-.16h-.24ZM22.24-2.8a1.3,1.3,0,0,0,1.2-.52,1.208,1.208,0,0,1,1.12-.52q0-.4.24-.4a4.064,4.064,0,0,0,1.32-.88,1.416,1.416,0,0,1,1.56-.32,1.512,1.512,0,0,1,1.6-1.28q0-.4.68-.52t.44-.36q0,.16-.08.04t.08-.28q.96,0,1.2-.56A1.457,1.457,0,0,0,32.68-9q.52-.6.92-1a1.08,1.08,0,0,0-.76-.04q-.2.12-.52-.12v.72q-3.36,1.92-6.6,3.88T19.2-1.52A2.216,2.216,0,0,0,21-1.88,9.93,9.93,0,0,1,22.24-2.8Zm5.6-6.32q.16-.24.32-.24t0-.24q-.4-.4-.44-.04A.613.613,0,0,0,27.84-9.12ZM28.96-10h-.8a.354.354,0,0,0,.4.4A.354.354,0,0,0,28.96-10ZM7.6-9.28v2q.88-.56,1.68-1.08t1.76-1.08a4.389,4.389,0,0,0-1.68,0A11.888,11.888,0,0,1,7.6-9.28Zm4.16,5.6A2.3,2.3,0,0,1,12.8-4.6q.64-.28,1.36-.68a.515.515,0,0,1,.24-.32q.24-.16.48.16A2.735,2.735,0,0,1,17.2-6.88a4.54,4.54,0,0,1,.72-.72.856.856,0,0,1,.88-.24V-8.4a1.63,1.63,0,0,0,.56-.12A3.584,3.584,0,0,0,20-8.84a2.776,2.776,0,0,0,.48-.36q.16-.16-.08-.24a59.442,59.442,0,0,1-6.44,3.52A66.258,66.258,0,0,0,7.44-2.4q.32.56.16.84a1.956,1.956,0,0,0-.16.92,1.142,1.142,0,0,1,.84,0q.44.16.6-.16-.56,0-.56-.72a12.227,12.227,0,0,0,1.72-1.2A5.194,5.194,0,0,1,11.76-3.68ZM45.2-8.88q.4.16.56-.08l.32-.48a.68.68,0,0,0-.56.2A4.366,4.366,0,0,1,45.2-8.88ZM37.76-2.24a12.344,12.344,0,0,0,1.36-.08,13.777,13.777,0,0,1,1.52-.08,6.8,6.8,0,0,1,1.12-.92,1.472,1.472,0,0,1,1.2-.2A9.053,9.053,0,0,1,46-5.64,11.667,11.667,0,0,0,49.12-7.6q.88,0,1.12-.48a1.047,1.047,0,0,1,1.04-.48q-.16-.24,0-.36a4.216,4.216,0,0,1,.36-.24,1.7,1.7,0,0,0,.24-.16q.04-.04-.2-.12a45.908,45.908,0,0,1-6.96,3.76A76.834,76.834,0,0,0,37.76-2.24ZM25.84-9.12a71.2,71.2,0,0,1-6.52,4.16q-3.4,1.92-6.84,4a3.223,3.223,0,0,0,1.28-.24,9.451,9.451,0,0,0,1.04-.52q.48-.28.92-.52A1.759,1.759,0,0,1,16.8-2.4a1.211,1.211,0,0,1,.48-.6,3.655,3.655,0,0,0,.64-.52q.08,0,.24.16l.08.08a.96.96,0,0,1,.24-.36.832.832,0,0,1,.32-.04A7.892,7.892,0,0,1,20.8-5a6.943,6.943,0,0,0,2-1.4.386.386,0,0,1,.56,0q0-.4.28-.4a.488.488,0,0,0,.44-.32.292.292,0,0,0,.36-.08,4.215,4.215,0,0,0,.24-.36.638.638,0,0,1,.36-.28q.24-.08.8.24-.4-.64.04-.64a.8.8,0,0,0,.68-.32,1.066,1.066,0,0,1-.24-.36Q26.24-9.12,25.84-9.12Zm11.6.72q0-.16.32-.24t0-.24a1,1,0,0,1-.44.24Q37.04-8.56,37.44-8.4Zm6.64,5.28a7.543,7.543,0,0,1,1.76-.52A14.675,14.675,0,0,0,47.52-4a3.556,3.556,0,0,0,1.12-.48q.48-.32.88-.64a1.088,1.088,0,0,1,.72-.16,6.222,6.222,0,0,0,1.6-1.52,10.282,10.282,0,0,1,1.44-1.6.557.557,0,0,1,.04-.24q.04-.08-.2-.08a17.321,17.321,0,0,1-4.4,2.92A30.486,30.486,0,0,0,44.08-3.12Zm-.16-5.04h.72v-.4q-.4,0-.48.12A1.939,1.939,0,0,1,43.92-8.16ZM30.56-4.24a5.772,5.772,0,0,0-1.04.6,5.412,5.412,0,0,1-1.36.68q-.56.4-1.04.8a7.162,7.162,0,0,1-.88.64,3.455,3.455,0,0,0,1.48-.44,11.221,11.221,0,0,0,1.16-.8q.56-.44,1.12-.8A2.93,2.93,0,0,1,31.28-4a5.5,5.5,0,0,1,.32-.68,1.155,1.155,0,0,1,.72-.44q.16,0,.12.12t.12.28q.24-.16.04-.28t.12-.28a13.889,13.889,0,0,0,2.16-1.24A8.192,8.192,0,0,1,37.04-7.6a.444.444,0,0,1,.08-.56q.24-.24-.08-.24A11.887,11.887,0,0,1,33.8-6.36,10.831,10.831,0,0,0,30.56-4.24ZM42.08-7.12a2.757,2.757,0,0,0,1-.52A1.353,1.353,0,0,1,43.92-8a1.1,1.1,0,0,0-.96.16A3.038,3.038,0,0,0,42.08-7.12Zm-.72.4a.354.354,0,0,0,.4-.4A.354.354,0,0,0,41.36-6.72ZM39.92-6a2.534,2.534,0,0,0,.72-.12.867.867,0,0,0,.56-.44,1.446,1.446,0,0,0-.84.2A3.555,3.555,0,0,0,39.92-6Zm-1.6,1.04a1.617,1.617,0,0,0,.8-.44,1,1,0,0,1,.8-.28q-.32,0-.32-.16.16,0,0-.16a5.936,5.936,0,0,1-.68.44A1.618,1.618,0,0,0,38.32-4.96Zm2,.24A.71.71,0,0,0,40-4.8a.071.071,0,0,0-.08.08q-.4.4.04.28T40.32-4.72Zm-4,1.04a4.073,4.073,0,0,1,.76-.44,1.492,1.492,0,0,0,.68-.6,10.535,10.535,0,0,0-1,.48Q36.16-3.92,36.32-3.68Zm-.88.16A.986.986,0,0,0,36-3.68.781.781,0,0,0,35.44-3.52Zm-15.76.56q0-.16.12-.16a.439.439,0,0,0,.28-.16q-.32-.16-.48.08T19.68-2.96Zm15.04,0a.778.778,0,0,1,.4-.16.461.461,0,0,0,.32-.16Q34.88-3.28,34.72-2.96ZM16.08-1.36a5.618,5.618,0,0,0,3.44-1.6q-.8.4-1.68.8Zm18.96-.72h1.44q0-.56.16-.56t.4-.32a7.47,7.47,0,0,0-1.08.4A9.681,9.681,0,0,0,35.04-2.08ZM81.12-56a1.578,1.578,0,0,1,.72,1.28q.08.88.08,1.52h.48a.781.781,0,0,1,.56.16.981.981,0,0,1-.36.88,4.461,4.461,0,0,0-.68.56,24.384,24.384,0,0,0-.2,4.48,31.238,31.238,0,0,1-.04,4.16q-.16,1.6-.36,3.04a22.105,22.105,0,0,0-.2,3.04q-.16,2.32-.12,4.64t-.12,4.4a21.456,21.456,0,0,1-.12,2.36,19.909,19.909,0,0,0-.12,2.2,8.662,8.662,0,0,1-.04,2.48q-.2,1.36-.36,2.8a1.507,1.507,0,0,0,.12.6,1.507,1.507,0,0,1,.12.6,1.724,1.724,0,0,1-.12.68,1.214,1.214,0,0,0-.12.44,17.483,17.483,0,0,0-.04,3.12,6.922,6.922,0,0,1-.36,2.88,4.808,4.808,0,0,0,1.24.2q.76.04,1.6.04t1.64.04a3.012,3.012,0,0,1,1.36.36,13.915,13.915,0,0,0-.28,3.48,40.807,40.807,0,0,1-.12,4.12.866.866,0,0,1-.32.4.866.866,0,0,0-.32.4,1,1,0,0,0-.08.68,3.5,3.5,0,0,1,.08.76,1.734,1.734,0,0,1-1.76.36,3.16,3.16,0,0,0-2.24.28.78.78,0,0,0-.88-.36,3.4,3.4,0,0,1-1.36-.04Q77.12.88,75.64.72T72.88.4q-1.28,0-2.2.04A3.843,3.843,0,0,0,69.12.8q-.64.16-.72-.12T67.92.4A13.543,13.543,0,0,0,66.04.2l-2-.08a13.543,13.543,0,0,1-1.88-.2,3.541,3.541,0,0,1-1.44-.56A5.483,5.483,0,0,1,60.6-3.4a10.063,10.063,0,0,0,.12-2.92,1.758,1.758,0,0,0-.24-.84q-.24-.44.08-.6a.748.748,0,0,0-.56-.4q-.4-.08-.08-.88a3.537,3.537,0,0,1,1.6-.48q.96-.08,2-.12t1.92-.16a2.086,2.086,0,0,0,1.36-.68q.32-.48,0-.48t-.16-.32a.616.616,0,0,1,.12-.72.719.719,0,0,0,.28-.56q.24-4.32.32-8.4t.04-8.16q-.04-4.08-.08-8.32t-.04-8.88q-.4-.16-.56.04a1.412,1.412,0,0,1-.48.36,1.717,1.717,0,0,1-.56-.32,1.717,1.717,0,0,0-.56-.32,1.452,1.452,0,0,0-1,.04,3.456,3.456,0,0,1-1.08.2v-.4a.71.71,0,0,0-.32.08.568.568,0,0,1-.48-.08,14.021,14.021,0,0,1-.72-4.32A25.3,25.3,0,0,1,61.84-56q.72-.96,1.84,0A5.591,5.591,0,0,1,66-56.36q1.36.04,2.96.2.64.16,1.36.4a4.307,4.307,0,0,0,1.36.24,2.534,2.534,0,0,0,.72-.12,2.534,2.534,0,0,1,.72-.12,11.233,11.233,0,0,1,2.84.04,20.057,20.057,0,0,0,2.84.2,2.736,2.736,0,0,0,1.16-.24A2.736,2.736,0,0,1,81.12-56Zm-17.44.88q.4,0,.4-.24a.326.326,0,0,1-.24-.08.23.23,0,0,1-.16-.08Zm2.72.24q.16.16.36-.08t-.12-.4a.269.269,0,0,1-.12.24A.269.269,0,0,0,66.4-54.88Zm-2.88,1.84a.865.865,0,0,0,.64-.24l.4-.4a4.308,4.308,0,0,1,1.12-.6q.72-.28.56-.6a3.743,3.743,0,0,1-1.48.92A2.227,2.227,0,0,0,63.52-53.04Zm3.76-.8a1.026,1.026,0,0,0,.8-.36,2.2,2.2,0,0,1,.64-.52,6.209,6.209,0,0,0-.8.32A2.008,2.008,0,0,0,67.28-53.84Zm0,1.2q-.96.64-1.76,1.28a9.192,9.192,0,0,0-1.44,1.44,12.9,12.9,0,0,1,2.08-1.12,5.559,5.559,0,0,0,1.76-1.12,8.179,8.179,0,0,1,1.84-1.28,10.018,10.018,0,0,0,1.92-1.28,9.634,9.634,0,0,0-2.48.88A16.8,16.8,0,0,0,67.28-52.64Zm.16,1.92a2.945,2.945,0,0,1-.6.48,2.089,2.089,0,0,0-.44.32q-.16.16-.48.44t-.16.44q2.08-1.28,4.24-2.68t4.4-2.76a.316.316,0,0,1,.04-.2q.04-.04-.28-.04-1.6.96-3.36,2T67.44-50.72ZM78.8-54.48q-2.56,1.6-5.04,3.36T68.72-47.6a.692.692,0,0,0,.56.32,1.408,1.408,0,0,0,.68-.2,5.936,5.936,0,0,0,.68-.44,2.081,2.081,0,0,1,.56-.32,4.929,4.929,0,0,1,.48-.36l.4-.2q1.44-1.12,2.96-2.2t2.88-2.04a5.486,5.486,0,0,1,1.12-.56,1.211,1.211,0,0,0,.8-.88,2.175,2.175,0,0,0-.6.08A.418.418,0,0,1,78.8-54.48Zm-12.16.8a7.747,7.747,0,0,1-1.72,1.24,2.2,2.2,0,0,0-1.24,1.48,9.556,9.556,0,0,1,1.68-1.48,11.7,11.7,0,0,0,1.68-1.4q-.16,0-.2.08T66.64-53.68Zm6.88,1.04a.523.523,0,0,0,.64-.16,1,1,0,0,0,.24-.4.413.413,0,0,1-.44.28A.413.413,0,0,0,73.52-52.64Zm-4.56,7.12a3.5,3.5,0,0,1-.08.76.54.54,0,0,0,.08.52,30.324,30.324,0,0,0,2.56-1.68q1.2-.88,2.48-1.68a31.166,31.166,0,0,1,3.24-2.28,18.142,18.142,0,0,0,3-2.28.769.769,0,0,0,.08-.56,1.253,1.253,0,0,0-.24-.32q-2.72,2.08-5.6,3.88T68.96-45.52Zm0-3.92q-.8.48-1.48.92T66-47.6a7.067,7.067,0,0,0,2.72-1.48,9.128,9.128,0,0,1,2.72-1.64,3,3,0,0,1,.32-.28.968.968,0,0,1,.56-.12.7.7,0,0,1,.2-.52,1.688,1.688,0,0,1,.44-.32,1.523,1.523,0,0,0,.4-.28q.16-.16,0-.4a12.891,12.891,0,0,1-2.32,1.6A7.728,7.728,0,0,0,68.96-49.44Zm11.28-.48q-.16,0-.2-.2t-.2-.2q-2.72,1.92-5.32,3.68a33.881,33.881,0,0,1-5.56,3.04,10.311,10.311,0,0,1-.08,1.28,2.923,2.923,0,0,0,.24,1.44,18.912,18.912,0,0,1,1.72-1.52,9.123,9.123,0,0,1,2.04-1.2,27.147,27.147,0,0,1,3.72-3.12q1.96-1.36,3.88-2.72,0-.88-.24-1.04Q80.08-50.32,80.24-49.92Zm-17.36,2.8a.532.532,0,0,0,.32-.12.8.8,0,0,1,.48-.12.6.6,0,0,1,.32-.52.6.6,0,0,0,.32-.52l-.64-.64a.447.447,0,0,1,.24-.44q.24-.12-.24.04a9.012,9.012,0,0,0-.84.96A1.306,1.306,0,0,0,62.88-47.12ZM75.2-44.24a13.5,13.5,0,0,1-2.48,1.68,9.607,9.607,0,0,0-2.32,1.68,2.944,2.944,0,0,0-.48.6,2.089,2.089,0,0,1-.32.44.477.477,0,0,1-.48.08q-.32-.08-.16.32a1.787,1.787,0,0,0,1.08-.32,3.914,3.914,0,0,0,.76-.72,7.355,7.355,0,0,1,1.04-.68l1.04-.52a8.065,8.065,0,0,0,1.68-1.52,8.186,8.186,0,0,1,1.08-.6,8.187,8.187,0,0,0,1.08-.6,1,1,0,0,1,.4-.24,1,1,0,0,0,.4-.24.708.708,0,0,0,.2-.32.708.708,0,0,1,.2-.32,10.909,10.909,0,0,1,1.2-.52,2.2,2.2,0,0,0,.96-.68q-.16,0-.16-.12a.922.922,0,0,1,.08-.32.983.983,0,0,0,.08-.36q0-.16-.24-.24-1.12.88-2.24,1.72Zm-6.24,6.72v1.28q1.36-.8,2.84-1.88A18.377,18.377,0,0,1,75.04-40a1.96,1.96,0,0,1,.88-1.16,7.982,7.982,0,0,0,1.2-.76q.48-.32,1.04-.72t1.04-.72a3.136,3.136,0,0,0,.72-.32,5.233,5.233,0,0,1,.56-.32q0-.32.04-.84t-.28-.68q-2.8,2.08-5.76,3.92A42.18,42.18,0,0,0,68.96-37.52Zm10.88-4.8Q77.6-40.96,75.4-39.4a53.8,53.8,0,0,1-4.6,2.92,5.839,5.839,0,0,1-.44.72,1.676,1.676,0,0,1-.6.56.578.578,0,0,1-.48-.2.434.434,0,0,0-.32-.2,6.941,6.941,0,0,1-.08.96,1.508,1.508,0,0,0,.08.88,9.03,9.03,0,0,1,1.92-1.44,21.769,21.769,0,0,0,2-1.28,7.269,7.269,0,0,0,1.28-1.28,9.5,9.5,0,0,0,1.16-.68,3.517,3.517,0,0,1,1.16-.52,2.825,2.825,0,0,1,1.28-1.16,2.644,2.644,0,0,0,1.2-1,.269.269,0,0,1,.24.12.269.269,0,0,0,.24.12.747.747,0,0,1,.56-.56q.4-.08.24-.88ZM69.6-32.24q.64,0,.8-.36a2.25,2.25,0,0,1,.64-.76,2.053,2.053,0,0,1,.72-.2.916.916,0,0,0,.56-.2q.16-.16.08-.28t.08-.12a3.723,3.723,0,0,1,.96-.64,3.723,3.723,0,0,0,.96-.64,4.555,4.555,0,0,1,1.72-1.12,6.941,6.941,0,0,0,1.8-.96.931.931,0,0,0,.16-.24,1.716,1.716,0,0,1,.32-.4,6.444,6.444,0,0,1,1.12-.68A.966.966,0,0,0,80.08-40q-1.76.88-3.68,2.08T72.88-35.6l-.64.32a.316.316,0,0,0-.16.48,1.093,1.093,0,0,0,.52-.28q.36-.28.52.04-.96.64-1.96,1.44a5.885,5.885,0,0,1-2.44,1.12v.8a.7.7,0,0,0,.52-.2Zm1.2.4q-.32.32-.6.64a2.305,2.305,0,0,0-.44.8,2.873,2.873,0,0,0-.76.08q-.28.08-.28.56A6.29,6.29,0,0,0,70.96-31a6.088,6.088,0,0,1,2.4-1.24,3.183,3.183,0,0,1,1.68-1.2,3.358,3.358,0,0,0,1.68-1.12,12.785,12.785,0,0,0,1.68-.92q.8-.52,1.68-1a3.232,3.232,0,0,0-.04-.64q-.04-.16-.2-.64-2.32,1.44-4.48,2.96T70.8-31.84Zm-.4,2.32q.8,0,.4.4a2.383,2.383,0,0,1-1.08.64,1,1,0,0,0-.76.64v.56q2.56-1.84,5.36-3.64t5.52-3.64q0-.48-.24-.48a47.6,47.6,0,0,1-4.56,2.68A37.934,37.934,0,0,0,70.4-29.52Zm.4,2.08q.24.32.48.24a2.019,2.019,0,0,0,.48-.24q.24-.16.52-.32a.784.784,0,0,1,.6-.08.524.524,0,0,1,.24-.52.943.943,0,0,1,.4-.12,1.069,1.069,0,0,1,.44-.56,2.089,2.089,0,0,0,.44-.32A27.737,27.737,0,0,1,77-30.8q1.32-.64,2.6-1.28a.573.573,0,0,1,.08-.64q.24-.32-.24-.16-2.08,1.28-4.24,2.64T70.8-27.44Zm2.72,1.28a8.27,8.27,0,0,1,.76-.68q.36-.28.76-.6.64-.32,1.32-.72a8.728,8.728,0,0,0,1.16-.8,5.1,5.1,0,0,1,1.2-.44,1.292,1.292,0,0,0,.88-.76,2.188,2.188,0,0,1,.08-.48q.08-.32-.24-.16-2.88,1.6-5.76,3.08a17.068,17.068,0,0,0-4.96,3.8q0,.64.04,1.08t.2,1.24a.645.645,0,0,0,.52-.24,1.591,1.591,0,0,1,.52-.4,1.982,1.982,0,0,0-.6-.2.752.752,0,0,1-.44-.2,3.894,3.894,0,0,1,1.92-2.04A22.329,22.329,0,0,0,73.52-26.16Zm5.92-.88A7.959,7.959,0,0,1,77.76-26a7.959,7.959,0,0,0-1.68,1.04q-2.4,1.44-4.4,2.72-.64.4-1.28.76t-1.44.76a6.941,6.941,0,0,1-.08.96,1.508,1.508,0,0,0,.08.88q2.56-1.6,5.04-3.32A26.542,26.542,0,0,0,78.4-26a1.066,1.066,0,0,1,.36-.24,1.111,1.111,0,0,1,.68.08,1.972,1.972,0,0,1,.08-1.24,1.1,1.1,0,0,0-.08-1.08.515.515,0,0,1-.32.24l-.48.16a.868.868,0,0,0-.32.16q-.08.08.08.24,0-.32.4-.12t.4.36A.655.655,0,0,0,79.44-27.04Zm-5.92,2.32a9.809,9.809,0,0,1,1.88-1.16,6.082,6.082,0,0,0,1.88-1.4q-.88.48-2.08,1.2A5.909,5.909,0,0,0,73.52-24.72ZM69.6-26a.326.326,0,0,0,.24-.08.23.23,0,0,0,.16-.08Q69.6-26.16,69.6-26Zm-.64.64q-.16-.32.2-.2t.2-.2h-.4q.16.16-.12.28T68.96-25.36Zm7.28,2.72q-1.36.96-2.68,1.84T70.8-19.04a5.587,5.587,0,0,1-1.28.76,1.32,1.32,0,0,0-.8,1.32,27.722,27.722,0,0,0,2.72-1.72q1.28-.92,2.56-1.88a5.515,5.515,0,0,0,1.44-.84q.64-.52,1.28-1,.8-.48,1.52-.92a3.317,3.317,0,0,0,1.2-1.4l-.24-.24a8.14,8.14,0,0,1-1.48,1.16A8.14,8.14,0,0,0,76.24-22.64Zm2.72,0q-1.12.8-2.36,1.72T74-19.04a11.527,11.527,0,0,0-1.24.72l-1.08.72q-.8.48-1.68,1t-1.52.92q.4,0,.12.24a.423.423,0,0,0-.12.56,10.748,10.748,0,0,0,2.28-1.16q1-.68,2.12-1.32a.434.434,0,0,0,.32-.2q.16-.2.32-.04,0-.4.48-.4a7.86,7.86,0,0,0,2.68-1.72A11.291,11.291,0,0,1,79.2-21.6a3.978,3.978,0,0,1,.12-.68Q79.44-22.8,78.96-22.64Zm-.16,2.48a44.555,44.555,0,0,1-4.44,3q-2.36,1.4-4.6,2.68a1.239,1.239,0,0,1-.8.36q-.48.04-.48.68a2.981,2.981,0,0,0,1.76-.64,4.319,4.319,0,0,1,1.84-.8,2.3,2.3,0,0,1,1.56-1.04,2.3,2.3,0,0,0,1.56-1.04,2.671,2.671,0,0,0,1.32-.64,2.733,2.733,0,0,1,1.4-.64.578.578,0,0,1,.2-.48,2.469,2.469,0,0,1,.44-.28,1.688,1.688,0,0,0,.44-.32.815.815,0,0,0,.2-.6A.655.655,0,0,0,78.8-20.16Zm-10.32,8v.88a7.915,7.915,0,0,0,1.2-.4,1.2,1.2,0,0,0,.72-.72,1.42,1.42,0,0,0,.52-.08,1.42,1.42,0,0,1,.52-.08,2.089,2.089,0,0,1,.44-.32q.28-.16.6-.32a5.14,5.14,0,0,0,1.96-1.04,5.171,5.171,0,0,1,2.28-1.04,2.044,2.044,0,0,1,1.12-.88,2.816,2.816,0,0,0,1.12-.64.762.762,0,0,1,0-.68A.35.35,0,0,0,78.8-18a36.018,36.018,0,0,1-5,3.08Q71.2-13.6,68.48-12.16Zm10.08-3.12q-2.32,1.36-4.84,2.64t-5.24,2.56a2.8,2.8,0,0,1-.4.8,3.131,3.131,0,0,0-.4.72q-.48.16-.8.24a.665.665,0,0,1-.64-.24,4.772,4.772,0,0,1-1.04.76q-.64.36-1.12.68a3.643,3.643,0,0,1-1.12.56.9.9,0,0,0-.72.88A15.13,15.13,0,0,1,65.4-7.2a11.544,11.544,0,0,0,3.08-1.6,1.4,1.4,0,0,0,1.2-.44,1.3,1.3,0,0,1,1.12-.44q0-.4.24-.4a1.535,1.535,0,0,0,1.12-.48.912.912,0,0,1,.96-.32.532.532,0,0,1,.12-.32,3,3,0,0,1,.28-.32,1.916,1.916,0,0,0,1.52-.64,1.6,1.6,0,0,1,1.2-.64,3.478,3.478,0,0,1,1.08-1.08,4.225,4.225,0,0,1,1.48-.6q0-.16.04-.56T78.56-15.28ZM62.24-4.8v1.44A2.261,2.261,0,0,0,63.4-3.8a12.039,12.039,0,0,0,1.16-.84.381.381,0,0,1,.36-.12q.2.04.2-.28.4,0,.44.08t.2-.08q1.12-.64,2.2-1.24a23.975,23.975,0,0,1,2.2-1.08,3.071,3.071,0,0,1,1.92-1.2q.16,0,.2-.24t.2-.24a4.267,4.267,0,0,0,1.12-.44,3.912,3.912,0,0,0,.8-.6q1.28-.64,2.36-1.16a9.868,9.868,0,0,0,2.04-1.32q-.16-.16-.12-.28t-.12-.12a85.24,85.24,0,0,1-8.04,4.28Q66.32-6.72,62.24-4.8ZM73.12-8.16a3.372,3.372,0,0,0,1.8-.76,3.372,3.372,0,0,1,1.8-.76,1.7,1.7,0,0,1,1.08-.8,1.442,1.442,0,0,0,1-.8q-1.28.64-2.76,1.56A24.036,24.036,0,0,1,73.12-8.16Zm5.44-1.52Q76.32-8.4,74-7.28L69.36-5.04q-.8.48-1.48.88a4.723,4.723,0,0,1-1.48.56,2.193,2.193,0,0,1-1.48,1.12,1.982,1.982,0,0,0-1.4,1.04h1.44a30.163,30.163,0,0,1,4.6-2.72,30.163,30.163,0,0,0,4.6-2.72,9.553,9.553,0,0,0,1.88-.88,7.248,7.248,0,0,1,1.88-.8q0-.48.2-.6a3.758,3.758,0,0,1,.68-.28Q78.8-9.84,78.56-9.68Zm1.28,1.52a.185.185,0,0,0,.2-.12.788.788,0,0,1,.2-.28A.354.354,0,0,0,79.84-8.16Zm.64,0q.64,0,.64-.4a.549.549,0,0,1-.48.12Q80.32-8.48,80.48-8.16Zm3.36,0a.9.9,0,0,1,.64-.08q.32.08.16-.32a4.244,4.244,0,0,0-.48.04A.326.326,0,0,0,83.84-8.16Zm-21.6,0a1.031,1.031,0,0,1,0,.8.316.316,0,0,0,.16.48,1.149,1.149,0,0,1,.48-.8,6.208,6.208,0,0,1,.8-.32q0-.4-.16-.4a.916.916,0,0,1-.56.2Q62.56-8.16,62.24-8.16ZM78.96-8Q76.64-6.72,74.2-5.4T69.6-2.96a14.039,14.039,0,0,1-1.72.8A3.48,3.48,0,0,0,66.4-1.04a1.309,1.309,0,0,0,.72-.16q.24-.16.56.16a10.736,10.736,0,0,1,1.44-1.2,4.232,4.232,0,0,1,1.68-.72q0-.48.2-.36a.876.876,0,0,0,.68-.04,1.833,1.833,0,0,1,.76-.68,4.142,4.142,0,0,0,.92-.6,5.446,5.446,0,0,0,2.08-1.04l2.24-.96a5.559,5.559,0,0,0,1.76-1.12Q79.44-8,78.96-8Zm-6.64.64a.189.189,0,0,1,.16-.2q.16-.04,0-.2t-.36.04Q71.92-7.52,72.32-7.36Zm9.6,0a1.854,1.854,0,0,0,.36-.04q.2-.04.04-.36h-.16a.185.185,0,0,1-.12.2A.185.185,0,0,0,81.92-7.36Zm-10.48.24a.865.865,0,0,0,.64-.24Q71.44-7.6,71.44-7.12ZM78.8-5.84a.655.655,0,0,0,.4-.24.461.461,0,0,0-.32.16ZM76.24-1.68a.891.891,0,0,1-.84.56.9.9,0,0,0-.84.72,2.52,2.52,0,0,1,1-.12,3.655,3.655,0,0,0,1.16-.12,4.119,4.119,0,0,1,.68-.8,2.336,2.336,0,0,1,1-.48,1.02,1.02,0,0,1,.52-.48q.36-.16.68-.32.8-.48,1.76-1t1.6-.92A2.033,2.033,0,0,1,83.92-5q.48-.04.32-.84A30.309,30.309,0,0,1,81.28-4.4,24.174,24.174,0,0,0,78.4-2.96a4.142,4.142,0,0,1-.92.6,1.833,1.833,0,0,0-.76.68q.16,0,.2-.08t.2.08q-.32.32-.36.16T76.24-1.68Zm-5.44.24q1.44-.8,3.04-1.68T76.72-4.8a1.834,1.834,0,0,0,.56-.16q.4-.16.24-.48A28.639,28.639,0,0,1,74-3.52,12.7,12.7,0,0,0,70.8-1.44ZM66.24-4.16a.8.8,0,0,0,.44-.24q.28-.24-.04-.24,0,.16-.28.08T66.24-4.16Zm-.88.4a.47.47,0,0,0,.4-.24Q65.36-4,65.36-3.76Zm-.64.4q0-.16.28-.2t-.04-.2q0,.16-.28.2T64.72-3.36ZM79.44-.64a.382.382,0,0,0-.52-.2.858.858,0,0,0-.52.44,4.472,4.472,0,0,0,2.8-.92,8.972,8.972,0,0,1,2.64-1.4.545.545,0,0,1,.04-.6q.2-.28-.28-.28a3.964,3.964,0,0,1-1.04.72l-1.28.64a9.5,9.5,0,0,0-1.16.68A1.653,1.653,0,0,0,79.44-.64ZM63.68-3.12q-.24.08-.2.12a.434.434,0,0,0,.16.08.258.258,0,0,0,.2,0Q63.92-2.96,63.68-3.12Zm12.16.4a.071.071,0,0,0,.08-.08q0-.16-.08-.16a.23.23,0,0,0-.08.16A.071.071,0,0,0,75.84-2.72Zm-13.44.4q0-.16.56-.12t.08-.28q0,.16-.48.2T62.4-2.32ZM72.08-.64a2.662,2.662,0,0,0,1.52-.68,14.233,14.233,0,0,0,1.2-1,5.3,5.3,0,0,1-1.44.76A2.653,2.653,0,0,0,72.08-.64ZM127.84-30.4q.32.4-.12.56t-.12.64a29.427,29.427,0,0,1,.84,2.84,29.429,29.429,0,0,0,.84,2.84q.16.4.4.88a7.332,7.332,0,0,1,.4.96,14.947,14.947,0,0,1,.32,3.8,11.473,11.473,0,0,1-.72,3.64,18.4,18.4,0,0,1-.84,1.92q-.52,1.04-1,1.92-.56,1.12-.96,1.88a15.325,15.325,0,0,1-.8,1.36,6.289,6.289,0,0,1-.96,1.12q-.56.52-1.36,1.16a20.17,20.17,0,0,1-3.12,2.04,25.415,25.415,0,0,1-3.76,1.56,7.073,7.073,0,0,1-1.56.4l-2.04.24q-1.12.16-2.24.36a6.1,6.1,0,0,1-2.08.04,2.23,2.23,0,0,1-1.08-.24,4.586,4.586,0,0,0-1.08-.4,5.83,5.83,0,0,0-.96.08,2.777,2.777,0,0,1-1.12-.08,7.708,7.708,0,0,1-2.56-.48,5.979,5.979,0,0,0-2.72-.32q-.64-.4-1.24-.72a2.073,2.073,0,0,1-.92-1.12,3.129,3.129,0,0,1-1.84-.56A4.406,4.406,0,0,1,94.12-5.2,18.912,18.912,0,0,1,92.8-6.96a.716.716,0,0,1-.2-.4.716.716,0,0,0-.2-.4,29.281,29.281,0,0,0-2.04-3.32,10.431,10.431,0,0,1-1.64-3.72q-.4-1.6-.88-3.44a10.779,10.779,0,0,1-.32-3.68,13.629,13.629,0,0,1,.2-2.12,13.629,13.629,0,0,0,.2-2.12,3.557,3.557,0,0,1,.6-1.04,3.179,3.179,0,0,0,.6-1.2,2.469,2.469,0,0,0,.4-1,1.465,1.465,0,0,1,.4-.84,6.038,6.038,0,0,1,1.16-1.52,4.461,4.461,0,0,0,1.08-1.68,5.226,5.226,0,0,0,1.36-1.16,11.856,11.856,0,0,1,1.28-1.32,10.084,10.084,0,0,1,2.72-1.4,8.317,8.317,0,0,0,2.8-1.64,16.789,16.789,0,0,0,3.52-.68,16.7,16.7,0,0,1,3.36-.68,8.5,8.5,0,0,1,1.2.08,3.113,3.113,0,0,0,1.2-.08,12.489,12.489,0,0,1,2.68-.04,15.346,15.346,0,0,1,2.76.44,1.225,1.225,0,0,1,.84.32,2.336,2.336,0,0,0,1,.48,2.119,2.119,0,0,0,1.04.36,4.232,4.232,0,0,1,1.04.2,9.88,9.88,0,0,1,1.6,1.08,2.439,2.439,0,0,0,1.6.6,4.943,4.943,0,0,0,1.72,1.68,4.738,4.738,0,0,1,1.72,1.76,1.915,1.915,0,0,1,.64,1,4.59,4.59,0,0,0,.56,1.24.714.714,0,0,0,.44.4A1.468,1.468,0,0,1,127.84-30.4ZM115.68-9.12a2.622,2.622,0,0,0,.32-.4q.16-.24.48-.08a1.315,1.315,0,0,1,.84-.92,3.019,3.019,0,0,1,1-.28.071.071,0,0,0,.08.08.071.071,0,0,0,.08-.08q-.16-.32.32-.44a3.945,3.945,0,0,1,.96-.12,1.863,1.863,0,0,1,.8-.88,3.045,3.045,0,0,0,.8-.56,8.594,8.594,0,0,0,2.12-1.2,5.838,5.838,0,0,1,2.12-1.04q.8-.64,1.56-1.32a6.047,6.047,0,0,1,1.72-1.08.633.633,0,0,1,.08-.4.633.633,0,0,0,.08-.4,9.175,9.175,0,0,0-3.04,1.6q-2.72,1.68-5.56,3.4T115.04-10q-2.4,1.6-4.72,2.84t-4.8,2.44a16.863,16.863,0,0,1-2.04,1.08,4.936,4.936,0,0,0-1.8,1.4,2.619,2.619,0,0,0,1.96-.36,2.191,2.191,0,0,1,1.32-.52.47.47,0,0,1-.24-.4,3.213,3.213,0,0,0,1.4-.56,1.429,1.429,0,0,1,1.24-.24q-.16-.32.08-.48a1.846,1.846,0,0,1,.52-.24q.28-.08.48-.12t-.04-.12q.16-.16.2-.08t.36.08q.32-.8,1.68-.8a.528.528,0,0,1,.52-.56.836.836,0,0,0,.68-.72,2.514,2.514,0,0,0,.4-.04q.24-.04.24-.36a.623.623,0,0,0,.56.24q-.08-.16,0-.16h.2a.445.445,0,0,0,.2-.04q.08-.04,0-.2-.16-.16.24-.4a3.094,3.094,0,0,0,.56-.4.778.778,0,0,1,.4.16q.24.16.4-.16-.72,0-.28-.28A1.03,1.03,0,0,1,115.68-9.12ZM104.96-33.04q-3.04,2-6,4.08T93.2-24.72a9.93,9.93,0,0,0-1.24.92,3,3,0,0,1-1.4.68q0-.16-.08-.2t-.08-.2a.958.958,0,0,1,.32-.76,3.056,3.056,0,0,1,.64-.44,34.989,34.989,0,0,1,3.44-2.64.532.532,0,0,0,.32-.12.8.8,0,0,1,.48-.12,3.229,3.229,0,0,1,1.04-1.04q.32-.16.68-.32a1.02,1.02,0,0,0,.52-.48,21.967,21.967,0,0,0,3.92-2.76,17.163,17.163,0,0,1,4.16-2.68,3.111,3.111,0,0,1,2.24-1.6,2.874,2.874,0,0,1,1.36-1.28,4.11,4.11,0,0,0,1.52-1.2,4.211,4.211,0,0,0-1.64.68q-.76.52-1.4,1-3.36,2.56-6.72,4.96T94.4-27.6a20.605,20.605,0,0,0-2.64,2.04,20.605,20.605,0,0,1-2.64,2.04,1.687,1.687,0,0,1-.12,1.2.886.886,0,0,0,.12,1.04,17.422,17.422,0,0,1,2.48-1.84A14.421,14.421,0,0,0,94-24.96q1.36-.8,2.72-1.76l2.72-1.92a1.6,1.6,0,0,0,.8-.6,1.887,1.887,0,0,1,.64-.6.543.543,0,0,1,.4-.16h.4q.16-.32.32-.6a1.1,1.1,0,0,1,.48-.44q.64-.32,1.2-.64a2.56,2.56,0,0,0,.88-.8h.4q.88-.64,1.68-1.24a10.628,10.628,0,0,0,1.52-1.4.461.461,0,0,0,.32-.16q.16-.16.48.16a.866.866,0,0,1,.64-.92,1.115,1.115,0,0,0,.8-.84q-1.36.88-2.72,1.8T104.96-33.04Zm-.24-4.08q-3.52,2.56-6.92,4.96T91.2-27.2q-.48.32-1.16.68a.972.972,0,0,0-.52,1.16,24.528,24.528,0,0,1,3.84-2.52,14.936,14.936,0,0,0,3.52-2.52q.16,0,.32-.28t.48.04q.16,0,.08-.28t.08-.28A4.275,4.275,0,0,0,99-31.76a6.706,6.706,0,0,0,.8-.68,6.706,6.706,0,0,1,.8-.68,4.543,4.543,0,0,1,1.08-.56,5.706,5.706,0,0,1,1.4-1.28q.76-.48,1.88-1.12a2.609,2.609,0,0,1,1.48-1.32A2.972,2.972,0,0,0,108-38.72a2.874,2.874,0,0,0-1.76.48Q105.6-37.76,104.72-37.12ZM90.96-29.6A2.165,2.165,0,0,1,90.4-28q.4.16.8-.44a1.346,1.346,0,0,1,1.2-.6,2.54,2.54,0,0,1,2-1.36q.16-.48.32-.48t.32-.32a6.632,6.632,0,0,0,1.8-1.2,4.5,4.5,0,0,1,1.8-1.04q0-.32.12-.4a1.094,1.094,0,0,0,.28-.4,11.687,11.687,0,0,0,2.76-1.88,24.011,24.011,0,0,1,2.52-2.04.071.071,0,0,0,.08-.08.071.071,0,0,0-.08-.08,22.382,22.382,0,0,0-3.52,2Q99.2-35.2,97.64-34t-3.16,2.32A27.832,27.832,0,0,1,90.96-29.6ZM112-35.12q.96-.64,1.84-1.28a8.6,8.6,0,0,0,1.6-1.52,3.408,3.408,0,0,0-2.08.88,18.428,18.428,0,0,1-1.52,1.36q.32.16.48-.2t.32-.04A2.361,2.361,0,0,1,112-35.12Zm5.92-1.36q.8,0,.8-.24a.71.71,0,0,1-.32-.08.71.71,0,0,0-.32-.08q0,.16-.08.2T117.92-36.48Zm1.2.56q.32.16.32.08t.32-.08q0-.32-.24-.36a2.045,2.045,0,0,1-.56-.2q0,.32.08.36T119.12-35.92ZM112-32.88q1.36-.88,2.76-1.72t2.92-1.72a16.178,16.178,0,0,0-3.04,1.52A30.216,30.216,0,0,0,112-32.88Zm4.08-.96a2.794,2.794,0,0,0,.84-.44,3.127,3.127,0,0,1,.76-.44.071.071,0,0,0,.08.08q.16,0,.16-.08-.16-.16,0-.2a2.836,2.836,0,0,0,.36-.12q.2-.08.36-.16t.08-.32a1.166,1.166,0,0,0-.92.32,1.166,1.166,0,0,1-.92.32,3.424,3.424,0,0,1-1.12.84l-1.52.76a14.9,14.9,0,0,0-1.2,1,5.14,5.14,0,0,1-1.2.84,8.749,8.749,0,0,0-.76.44q-.44.28-.28.6a8.179,8.179,0,0,1,2.64-1.76A8.932,8.932,0,0,0,116.08-33.84Zm-4.48,4.4q.16.32.36.08a.842.842,0,0,1,.68-.24,6.1,6.1,0,0,1,2.24-1.76,7.867,7.867,0,0,0,2.24-1.52.781.781,0,0,1,.56-.16,1.872,1.872,0,0,1,.8-.68q.56-.28,1.08-.56t.96-.56a.8.8,0,0,0,.44-.68q-2.48,1.36-4.92,2.8A26.2,26.2,0,0,0,111.6-29.44Zm-16-4.8a4.468,4.468,0,0,0,.6-.36,1.393,1.393,0,0,0,.44-.52q-.32.16-.6.32A1.069,1.069,0,0,0,95.6-34.24Zm12,2.16a4.409,4.409,0,0,1,1.56-1.12,6.125,6.125,0,0,0,1.64-1.04,2.514,2.514,0,0,0-.04-.4q-.04-.24-.36-.24a2.185,2.185,0,0,1-.68.8q-.44.32-.88.6a6.258,6.258,0,0,0-.8.6A1.333,1.333,0,0,0,107.6-32.08Zm13.92-2.16a.424.424,0,0,0,.48-.48,1,1,0,0,1-.4.24Q121.36-34.4,121.52-34.24Zm-1.36.96a.884.884,0,0,1,.6-.44.847.847,0,0,0,.6-.52q-.32.16-.84.4T120.16-33.28Zm-1.84,2.24q-1.36.8-2.88,1.68a6.95,6.95,0,0,0-2.16,1.76q.4.32,1.16-.12a5.991,5.991,0,0,0,1.24-.92,4.9,4.9,0,0,1,.88-.48,2.131,2.131,0,0,0,.72-.48q0-.24.4-.24a7.828,7.828,0,0,1,.8-.48,2.507,2.507,0,0,0,.64-.48q.32-.16.6-.32a2.261,2.261,0,0,0,.6-.56h.64a1.215,1.215,0,0,1,.48-.68,4.532,4.532,0,0,1,.72-.36,4.532,4.532,0,0,0,.72-.36,1.211,1.211,0,0,0,.48-.6,8.817,8.817,0,0,0-2.6,1.08Q119.52-31.84,118.32-31.04Zm-23.52-2a.47.47,0,0,0,.4-.24Q94.8-33.28,94.8-33.04Zm24.56.16a.434.434,0,0,0,.32-.2q.16-.2-.16-.2,0,.16-.08.12T119.36-32.88Zm-7.76.4a.185.185,0,0,1,.12-.2.788.788,0,0,0,.28-.2q-.32-.16-.44.12T111.6-32.48Zm6.88,0q.4,0,.44-.12a.788.788,0,0,1,.2-.28.532.532,0,0,0-.32.12A3,3,0,0,0,118.48-32.48Zm-9.04.24h.16v-.24h-.16Zm7.28,1.04a1.922,1.922,0,0,1,.88-.6,1.083,1.083,0,0,0,.72-.68,4.274,4.274,0,0,1-.88.52Q116.72-31.6,116.72-31.2ZM114.08-26q0,.32.16.16a.931.931,0,0,1,.24-.16,6.431,6.431,0,0,0,2.08-1.24,5.329,5.329,0,0,1,2.16-1.16,1.782,1.782,0,0,1,.44-.56.506.506,0,0,1,.6-.08,7.341,7.341,0,0,1,2.8-1.76.735.735,0,0,1,.36-.48,5.482,5.482,0,0,1,.56-.28,3,3,0,0,0,.56-.32.924.924,0,0,0,.36-.6,52.223,52.223,0,0,0-5.36,3Q116.48-27.84,114.08-26ZM92.96-31.84q.4,0,.4-.24Q92.96-32.08,92.96-31.84Zm13.84,0a.623.623,0,0,0,.56-.24Q106.8-32.08,106.8-31.84Zm7.04,2.4a.673.673,0,0,0,.64-.28.59.59,0,0,1,.56-.28,1.017,1.017,0,0,1,.6-.48q.44-.16.28-.32a7.323,7.323,0,0,0-1.12.68Q114.32-29.76,113.84-29.44Zm-6.24-.16a1.34,1.34,0,0,1-.28-.48q-.12-.32-.52-.16a2.488,2.488,0,0,1-1.04.4,5.944,5.944,0,0,0-1.04.24,2.94,2.94,0,0,0-.6.4q-.28.24-.6.56a7.229,7.229,0,0,0-1.44,2.8,11.519,11.519,0,0,0-.4,4.16q.16.4.4.96a7.916,7.916,0,0,1,.4,1.2,13.1,13.1,0,0,0,1.28,4.2,4.206,4.206,0,0,0,2.16,2.28,1.031,1.031,0,0,0,.64-.48q.16-.32.8-.32a1.1,1.1,0,0,1,.4.64.5.5,0,0,1-.32.52.849.849,0,0,0-.48.52,1.1,1.1,0,0,1,.72.2,2.249,2.249,0,0,0,.72.36q-.16.16-.16.24,0,.16.32.16a3.632,3.632,0,0,0,3.48-.76,5.268,5.268,0,0,0,1.64-2.84,18.438,18.438,0,0,0,.32-3.6,21.694,21.694,0,0,0-.32-3.8,15.447,15.447,0,0,0-.92-3.24,3.534,3.534,0,0,0-1.56-1.92q-.16-.32-.36.12t-.6.28q-.32-.64-.08-.84a1.087,1.087,0,0,0,.24-.84,3.75,3.75,0,0,1-1.24-.88Q108.64-30.08,107.6-29.6Zm17.6-.4q-.64.4-1.36.88l-1.44.96a14.146,14.146,0,0,1-1.96,1.24,20.992,20.992,0,0,0-1.96,1.16,2.312,2.312,0,0,0-.6.44l-.6.6a6.443,6.443,0,0,1-1.12.68,1.549,1.549,0,0,0-.88,1.08q.88-.64,1.72-1.2a8.943,8.943,0,0,1,1.96-.96.708.708,0,0,0,.2-.32.189.189,0,0,1,.2-.16q1.6-1.04,3.24-2.12a26.815,26.815,0,0,0,3-2.28Zm-3.44.96a.071.071,0,0,0,.08-.08.71.71,0,0,0-.08-.32.493.493,0,0,1-.08.28Q121.6-29.04,121.76-29.04Zm-7.28,4.08q.4.16.48.04t.48.2q.8-.64,1.56-1.24a11.13,11.13,0,0,1,1.48-1,8.386,8.386,0,0,0,1.04-.6q.4-.28.8-.6a2.135,2.135,0,0,1,.64-.36q.48-.2.16-.52a14.941,14.941,0,0,1-3.32,2.12A19.426,19.426,0,0,0,114.48-24.96Zm3.44,1.44a2.833,2.833,0,0,1-.6.4q-.44.24-.04.4a27.3,27.3,0,0,0,2.4-1.68,8.136,8.136,0,0,1,2.72-1.36q0-.32.2-.4t.2-.24q.4-.16,1.12-.52a1.944,1.944,0,0,0,.88-.68h.4q.16,0,.2-.2t.2-.2a.752.752,0,0,1,.44-.2q.28-.04-.04-.44-1.68,1.12-3.96,2.52T117.92-23.52ZM100.08-26.8a.633.633,0,0,0,.4-.08.633.633,0,0,1,.4-.08.493.493,0,0,1,.08-.28q.08-.12-.08-.12a.716.716,0,0,1-.4.2A.579.579,0,0,0,100.08-26.8Zm20.64,3.28a6.733,6.733,0,0,0-1.76.8q-.64.4-1.8,1a5.012,5.012,0,0,0-1.48,1,.433.433,0,0,0-.12.4q.04.24-.28.24.88.32,1.28-.24a1.3,1.3,0,0,1,1.12-.56q0-.4.24-.4a1.982,1.982,0,0,0,.52-.36q.2-.2.68-.04a11.678,11.678,0,0,1,3.72-2.72,14.4,14.4,0,0,0,3.8-2.56,16.737,16.737,0,0,0-3.16,1.6Q122-24.4,120.72-23.52ZM91.36-22.16a3.174,3.174,0,0,1-1.2,1.04q-.32.16-.68.32a.515.515,0,0,0-.36.48q.64-.32,1.32-.68t1.16-.68a2.261,2.261,0,0,1,.6-.56q.28-.16.6-.32a3.692,3.692,0,0,1,1.12-.72,1.764,1.764,0,0,0,.88-.64.071.071,0,0,1-.08-.08q0-.16.08-.16a6.1,6.1,0,0,0,1.92-1.08q.8-.68,1.52-1.32-1.68,1.12-3.52,2.24T91.36-22.16Zm8.32-4.24a.463.463,0,0,0,.32-.08.071.071,0,0,0,.08-.08q-.16-.16-.28-.08A.269.269,0,0,0,99.68-26.4Zm-1.04.8a.716.716,0,0,1,.4-.2.579.579,0,0,0,.4-.36,1.2,1.2,0,0,0-.64.2Q98.48-25.76,98.64-25.6Zm25.12,2.08a3.239,3.239,0,0,0-1,.4q-.36.24-.76.56a1.17,1.17,0,0,0,.72-.24,6.008,6.008,0,0,0,.64-.56q.64-.32,1.24-.68t1.24-.68a4.146,4.146,0,0,1,.76-.28.851.851,0,0,0,.6-.6,15.273,15.273,0,0,0-1.72.92Q124.64-24.16,123.76-23.52Zm-34,5.44a.768.768,0,0,1-.24.56q-.24.24.24.24,0-.4.24-.48a1.773,1.773,0,0,1,.56-.08,10.739,10.739,0,0,1,1.56-1.56A5.385,5.385,0,0,1,94-20.32a1.458,1.458,0,0,1,.8-.8,1.69,1.69,0,0,0,.8-.56q.24-.24.4,0a2.939,2.939,0,0,1,1.44-1.4q.96-.44,1.84-.84v-.16q0-.08.16-.24.4-.16.72-.28a.5.5,0,0,0,.32-.52.269.269,0,0,0-.12-.24,1.939,1.939,0,0,1-.28-.24q-2.4,2-5.08,3.84T89.76-18.08Zm6.88-5.84q0-.32.2-.28t.2-.12q-.16-.16-.44.04T96.64-23.92Zm-.8.4q.16.16.32-.12T96-23.92q0,.16-.08.2T95.84-23.52Zm-5.92,7.68a1.407,1.407,0,0,0,.76-.6,1.007,1.007,0,0,1,.92-.44q-.24,0-.24-.4a26,26,0,0,0,4.6-2.84q2.12-1.64,4.52-3.24v-.08a.23.23,0,0,0-.16-.08,28.259,28.259,0,0,1-2.72,1.8q-1.44.84-2.8,1.72t-2.64,1.88A12.086,12.086,0,0,0,89.92-15.84Zm26.8-2a2.131,2.131,0,0,1-.72.48,2.131,2.131,0,0,0-.72.48q-.16.16-.08.24a.633.633,0,0,1,.08.4,1.9,1.9,0,0,0,.88-.32q.32-.24.64-.52a5,5,0,0,1,.64-.48,2.278,2.278,0,0,1,.88-.28,1.793,1.793,0,0,1,.52-.6,4.145,4.145,0,0,1,.68-.44,1.99,1.99,0,0,1,1.44-.64.961.961,0,0,1,.32-.52,1.918,1.918,0,0,1,.56-.32,6.662,6.662,0,0,0,.64-.28,1.047,1.047,0,0,0,.48-.48.212.212,0,0,0,.24.24q.16-.64.56-.76a1.956,1.956,0,0,0,.8-.52,1.433,1.433,0,0,1,.88-.68q.72-.28.56-.68-2.32,1.36-4.76,2.84T116.72-17.84ZM94.24-22.56a.413.413,0,0,0,.52-.04q.2-.2-.12-.36,0,.32-.2.28T94.24-22.56Zm23.68,6.08q-.8.48-1.76,1a1.986,1.986,0,0,0-1.12,1.24,1.171,1.171,0,0,0,.8-.28,1.565,1.565,0,0,1,1.04-.28,1.887,1.887,0,0,1,.8-.8,1,1,0,0,1,.44-.24,3.512,3.512,0,0,0,.6-.24l.16-.16.24-.24a12.638,12.638,0,0,1,1.08-.8,3.872,3.872,0,0,1,1.32-.56,3.141,3.141,0,0,1,.96-1,9.512,9.512,0,0,1,1.28-.68,9.007,9.007,0,0,1,1.88-1.56q1.08-.68,2.2-1.48a.071.071,0,0,0,.08-.08.71.71,0,0,0-.08-.32q-2.48,1.6-5.04,3.28Zm3.2-5.44a2.089,2.089,0,0,1,.44-.32,2.089,2.089,0,0,0,.44-.32,1.17,1.17,0,0,0-.72.24Q120.96-22.08,121.12-21.92Zm-27.92.24a2.514,2.514,0,0,0,.4-.04q.24-.04.24-.44a2.07,2.07,0,0,0-.52.04Q93.2-22.08,93.2-21.68Zm27.12.16q.32,0,.4-.12a1.939,1.939,0,0,1,.24-.28q-.32,0-.4.12A1.939,1.939,0,0,1,120.32-21.52Zm-22.48,1.2q-1.36.88-2.68,1.8t-2.6,1.64a15.063,15.063,0,0,0-1.24,1.04,2.69,2.69,0,0,0-.76,1.04q2.48-1.68,5-3.36t4.92-3.52a3.551,3.551,0,0,0-1.24.6A6.333,6.333,0,0,1,97.84-20.32Zm-5.68-.56a.552.552,0,0,0,.36-.2q.2-.2.04-.2,0,.16-.28.12T92.16-20.88Zm27.36,0q.32,0,.4-.12a1.94,1.94,0,0,1,.24-.28Q119.52-21.28,119.52-20.88Zm-3.84,7.44-1.4,1.12a15.172,15.172,0,0,0-1.24,1.12,2.353,2.353,0,0,1-.8,1.04.543.543,0,0,1-.4.16h-.4l-.64.64q-1.36.88-2.72,1.6a16.3,16.3,0,0,0-2.72,1.84.606.606,0,0,0,.56.04,1.181,1.181,0,0,0,.4-.32,1,1,0,0,1,.32-.28q.16-.08.32.16a2.622,2.622,0,0,1,.4-.32,1.208,1.208,0,0,0,.4-.48.592.592,0,0,0,.76-.32q.28-.48,1.08-.32.16-.16.12-.28t.12-.12q1.04-.72,2-1.44t2-1.36h-.08q-.08,0-.08-.24h.8a2.729,2.729,0,0,1,1.04-.72q.72-.32,1.2-.48,0-.4.16-.4a24.544,24.544,0,0,1,2.64-1.52,24.544,24.544,0,0,0,2.64-1.52q.32-.16.52-.24a1.792,1.792,0,0,0,.52-.4q1.36-.88,2.72-1.68t2.72-1.76q0-.4-.04-.8a.652.652,0,0,0-.36-.56q-2.88,2.08-6.12,4.04T115.68-13.44ZM91.36-20.32a3.555,3.555,0,0,1,.44-.36q.28-.2-.04-.2-.72.4-1.44.88a4.832,4.832,0,0,0-1.2,1.12,5.384,5.384,0,0,0,1.2-.64A7.185,7.185,0,0,0,91.36-20.32Zm26.96.24a.728.728,0,0,1,.52-.4.728.728,0,0,0,.52-.4q-.32.16-.76.4T118.32-20.08Zm-17.44-.24h-.4q-1.84,1.36-3.84,2.6T92.96-15.2q-.64.4-1.32.92a2.131,2.131,0,0,0-.84,1.24,1.866,1.866,0,0,0,1.36-.68,1.938,1.938,0,0,1,1.44-.68.463.463,0,0,1,.08-.32.23.23,0,0,1,.16-.08,4.59,4.59,0,0,1,.84-.64,1.011,1.011,0,0,1,.92-.16,2.162,2.162,0,0,1,1-1.16,15.341,15.341,0,0,1,1.48-.68,3.076,3.076,0,0,1,1.28-1.08,7.693,7.693,0,0,1,1.52-.6.769.769,0,0,0,.08-.56A1.664,1.664,0,0,1,100.88-20.32Zm16.64.64q.16.16.32-.12t-.16-.28q0,.16-.08.2T117.52-19.68ZM96.64-15.44a20.754,20.754,0,0,0-2.04,1.32,20.754,20.754,0,0,1-2.04,1.32.894.894,0,0,1-.48.88q-.48.24-.32.56a2.245,2.245,0,0,0,1.12-.68,8.273,8.273,0,0,1,1.12-1,63.966,63.966,0,0,0,6.32-3.84q.32-.16.64-.36a.661.661,0,0,0,.32-.6q0-.24-.4-.24-1.12.64-2.12,1.24T96.64-15.44Zm.8,2a8.779,8.779,0,0,1,1.12-.48,2.833,2.833,0,0,0,.88-.48q.32-.24.68-.56t.68-.56a.872.872,0,0,1,.64-.2,1.013,1.013,0,0,1,.64.52q.32,0,.08-.4a1.013,1.013,0,0,1-.08-.88A19.221,19.221,0,0,0,99.48-15q-1.24.84-2.44,1.56a26.278,26.278,0,0,1-2.32,1.48,11.764,11.764,0,0,0-2.16,1.56.434.434,0,0,0,.2.32.578.578,0,0,1,.2.48,20.256,20.256,0,0,0,2.28-1.84Zm23.68,3.04a11.523,11.523,0,0,1-.96.68,4.069,4.069,0,0,0-1.04,1,6.67,6.67,0,0,0,2.32-1.36,5.8,5.8,0,0,1,2.32-1.28,4.44,4.44,0,0,1,.76-.6,8.989,8.989,0,0,0,.92-.68q.88-.4,1.72-.88t.84-.88q.24-.24-.16-.24a26.05,26.05,0,0,1-3.28,2.2Q122.8-11.44,121.12-10.4Zm-20.24-3.84q-.32.08-.36.2a.258.258,0,0,0,0,.2q.04.08.16,0A.685.685,0,0,0,100.88-14.24Zm1.6.4a23.029,23.029,0,0,1-3.12,2.44Q97.6-10.24,96-9.12q-.4.32-1,.72a1.787,1.787,0,0,0-.76.88A5.539,5.539,0,0,1,95-8.04q.36-.2.84-.52.4-.32.8-.6t.8-.6q1.12-.8,2.16-1.44a24.334,24.334,0,0,0,2.08-1.44,8.747,8.747,0,0,0,.76-.44.861.861,0,0,0,.44-.76ZM96.24-10.8a3.83,3.83,0,0,0,1.84-1.12,3.83,3.83,0,0,1,1.84-1.12.316.316,0,0,1,.16-.48q.32-.16,0-.32a13.888,13.888,0,0,1-1.92,1.6Q97.12-11.52,96.24-10.8Zm7.68-1.84a14.134,14.134,0,0,0-2.28,1.52,16.258,16.258,0,0,1-2.2,1.52q-1.2.8-2.48,1.48A8.992,8.992,0,0,0,94.8-6.56q1.68-1.04,3.56-2.08t3.56-2.16a8.542,8.542,0,0,0,2.24-1.6q0-.24-.16-.24ZM109.2-1.68a2.433,2.433,0,0,0,1.48-.12A3.083,3.083,0,0,1,112-2.08a2.988,2.988,0,0,1,1-1,5.579,5.579,0,0,0,1.08-.84,7.1,7.1,0,0,0,1.32-.76,3.534,3.534,0,0,1,1.48-.6q0-.32.12-.4a1.939,1.939,0,0,0,.28-.24.633.633,0,0,0,.4-.08.633.633,0,0,1,.4-.08,11.7,11.7,0,0,1,1.2-.8,9.488,9.488,0,0,1,1.44-.64.283.283,0,0,1,.32-.32.283.283,0,0,0,.32-.32,29.956,29.956,0,0,1,2.88-1.64,8.184,8.184,0,0,0,2.56-1.96q-4.56,2.32-9.08,4.68A59.767,59.767,0,0,0,109.2-1.68Zm-4.48-9.12a.493.493,0,0,1,.08-.28q.08-.12-.08-.12-1.68,1.12-3.52,2.16T97.68-6.96q-.48.32-1.16.68a.834.834,0,0,0-.52,1,18.361,18.361,0,0,0,4.4-2.76A18.947,18.947,0,0,1,104.72-10.8Zm1.84.8q0-.16-.2-.16t-.2.16a7.842,7.842,0,0,0-2.28,1.12q-1.16.8-2.36,1.52a17.737,17.737,0,0,0-1.68,1.04q-.8.56-1.6,1.04-.32.16-.64.36a.661.661,0,0,0-.32.6,4.317,4.317,0,0,0,1.36-.56l1.28-.8q1.84-1.12,3.64-2.08A36.317,36.317,0,0,0,107.2-10a.378.378,0,0,1-.4-.32q-.08-.32-.24.16.16,0,.16.08T106.56-10ZM94.8-9.6q.16,0,.4-.4A.354.354,0,0,0,94.8-9.6Zm24.32,3.92Q118-5.04,117-4.4t-1.96,1.28a4.145,4.145,0,0,1-.76.28.558.558,0,0,0-.44.6,2.219,2.219,0,0,1,1.52-.36,3.313,3.313,0,0,0,1.36-.04,9.034,9.034,0,0,0,3.56-1.72,35.014,35.014,0,0,1,3.08-2.2,1.577,1.577,0,0,1,.76-1.2,3.308,3.308,0,0,0,1.08-.96q0-.16.08-.2t-.32-.04a26.816,26.816,0,0,1-2.84,1.6A31.142,31.142,0,0,0,119.12-5.68Zm-.8-2.64q0-.16.2-.2t.2-.2q-.16-.16-.36.12T118.32-8.32Zm-1.2.56a.326.326,0,0,0,.24-.08.23.23,0,0,0,.16-.08q-.16-.16-.28-.08A.269.269,0,0,0,117.12-7.76Zm-15.6,3.28a3.145,3.145,0,0,1,1.32-1.32,12.938,12.938,0,0,0,1.72-1.16v-.08h-.08q-.08,0-.08-.04t-.08-.04a10.955,10.955,0,0,1-3,1.76,6.69,6.69,0,0,0-2.68,1.84,1.568,1.568,0,0,0,1,.12,1.893,1.893,0,0,0,.64-.36q.28-.24.52-.48A.978.978,0,0,1,101.52-4.48Zm10.96-1.6a.414.414,0,0,1,.56-.28q.4.12.24-.36a1.064,1.064,0,0,0-.64.24Q112.32-6.24,112.48-6.08Zm-6.96.4a.983.983,0,0,1-.36-.08q-.2-.08-.2.08a.931.931,0,0,0,.24.16Q105.36-5.28,105.52-5.68Zm-.8,3.84A5.228,5.228,0,0,0,107.32-3a6.58,6.58,0,0,1,2.28-1.32v-.4a11.247,11.247,0,0,1,1.24-.24.861.861,0,0,0,.76-.72q-1.84.88-3.56,1.72A17.867,17.867,0,0,0,104.72-1.84Zm-1.2-2.88a1.394,1.394,0,0,1,.68-.4.728.728,0,0,0,.52-.4q-.32.16-.84.4T103.52-4.72Zm-.64,0q-.4.48-.04.56T102.88-4.72Zm4.48,2.88a.584.584,0,0,0,.72-.16q.24-.32.08-.48a1.861,1.861,0,0,0-.48.32Zm6.08,0A4.162,4.162,0,0,0,114.72-2a4.038,4.038,0,0,0,.96-.48,4.162,4.162,0,0,0-1.28.16A4.038,4.038,0,0,0,113.44-1.84Zm-1.44,0q-.16,0-.2-.08t-.2.08a.493.493,0,0,1,.28.08Q112-1.68,112-1.84Zm37.44-39.44q.4,0,.32.36t.08.36a13.583,13.583,0,0,1,3.6.44,13.613,13.613,0,0,1,2.92,1.16,12.879,12.879,0,0,1,2.4,1.68q1.08.96,2.12,2a1.75,1.75,0,0,0,.4-1.48,3.118,3.118,0,0,1,.08-1.56,2.35,2.35,0,0,1,.48-1.16,1.856,1.856,0,0,0,.4-1.16,2.387,2.387,0,0,1,.76.12,5.183,5.183,0,0,1,.68.28,5.671,5.671,0,0,1,2,.04,5.292,5.292,0,0,0,2.16-.04,1.484,1.484,0,0,0,.8-.2,1.33,1.33,0,0,1,.72-.2q.4-.16.48.12a.714.714,0,0,0,.4.44,4.065,4.065,0,0,1,2.4-.08,5.593,5.593,0,0,0,2.48.08,5.136,5.136,0,0,0,.92-.08,6.164,6.164,0,0,1,1.08-.08,5.14,5.14,0,0,0,1.28,0,10,10,0,0,1,1.24-.08,3.4,3.4,0,0,1,1.08.16,1.542,1.542,0,0,1,.8.64q.16.72-.28.88t-.44.48a13.734,13.734,0,0,1,.48,1.68,9.223,9.223,0,0,1,.24,2.08q-.08.4.36.36t.28.36a.815.815,0,0,1-.2.6l-.44.44a5.44,5.44,0,0,0,.16,1.8,1.308,1.308,0,0,1-.4,1.48q-.64.24-.84-.08t-.36-.64a10.715,10.715,0,0,0-2.8.04q-1.2.2-2.4.36a7.217,7.217,0,0,1,.44,1.88q.12,1.08.16,2.28t.04,2.48q0,1.28.08,2.48.24,3.92.2,7.92t-.2,7.84q0,1.44.08,2.68A11.453,11.453,0,0,1,175.6.24a9.383,9.383,0,0,1-.24,1.92,9.968,9.968,0,0,0-.24,2.08,2.055,2.055,0,0,0-.04.68,4.907,4.907,0,0,1,.04.68,1.3,1.3,0,0,1-.4.52,1.758,1.758,0,0,0-.48.68A8.125,8.125,0,0,0,174,7.96a3.4,3.4,0,0,1-.32,1.08,3.214,3.214,0,0,1-.48.68,5.066,5.066,0,0,0-.56.76,3.39,3.39,0,0,0-.32.96,1.293,1.293,0,0,1-.32.72.777.777,0,0,1-.48.32,1.007,1.007,0,0,0-.56.4q-.16.24-.32.52a2.462,2.462,0,0,1-.4.52,3.925,3.925,0,0,1-.84.76q-.52.36-1.08.76-.56.32-.96.6a8.721,8.721,0,0,1-.76.48,8.368,8.368,0,0,1-.84.4q-.48.2-1.2.44a7.589,7.589,0,0,1-1.64.6,14.965,14.965,0,0,0-1.88.6,4.966,4.966,0,0,0-.84.36,1.7,1.7,0,0,1-.84.2,6.814,6.814,0,0,1-1.64.28q-.84.04-1.48.04-.8.16-1.44.32a4.961,4.961,0,0,1-1.2.16,2.671,2.671,0,0,1-.92-.16,1.362,1.362,0,0,0-.92,0,1.621,1.621,0,0,0-.96.6,1.743,1.743,0,0,1-1.12.6q-.08-.72.36-.76a.664.664,0,0,0,.6-.44,9.3,9.3,0,0,1-2.6-.04q-1.16-.2-2.2-.44t-2.04-.4a6.042,6.042,0,0,0-1.96,0q.32-.32.4-.32a21.945,21.945,0,0,1-3.04-1.84,7.913,7.913,0,0,1-2.32-2.64,1.233,1.233,0,0,1,.08-.76.789.789,0,0,0-.08-.76q.24-.32.32,0t.48.16q1.2-1.36,2.4-2.68a29.381,29.381,0,0,0,2.32-2.92q.24-.48.56-1.08a1.447,1.447,0,0,1,.96-.76.881.881,0,0,1,.32.8,2.076,2.076,0,0,1-.48.88,1.86,1.86,0,0,0,.36.28q.2.12-.36.12a1.069,1.069,0,0,1,.56.44,1.235,1.235,0,0,0,.8.44,7.651,7.651,0,0,0,1.8.12,1.746,1.746,0,0,1,1.48.52,10.908,10.908,0,0,1,2.64,0,7.87,7.87,0,0,0,2.24,0,.86.86,0,0,0,.48-.16,2.623,2.623,0,0,0,.4-.32,2.081,2.081,0,0,1,.64.08.362.362,0,0,0,.4-.08,5.1,5.1,0,0,0,2.2-1.8,15.03,15.03,0,0,0,1.72-2.76,9.8,9.8,0,0,0,.84-2.6,26.527,26.527,0,0,0,.28-2.92q-.4-.24-.8.24a1.211,1.211,0,0,1-.96.48,5.3,5.3,0,0,1-1.44.76,3.17,3.17,0,0,0-1.36.92,69.185,69.185,0,0,1-7.88.32,10.313,10.313,0,0,1-6.12-2,6.411,6.411,0,0,1-.76-.72,6.413,6.413,0,0,0-.76-.72,5.755,5.755,0,0,0-.88-.72l-.72-.48a5.764,5.764,0,0,1-.92-1.44,2.825,2.825,0,0,0-1.16-1.28q-1.04-1.84-2.08-3.92a24.2,24.2,0,0,1-1.68-4.4,2.5,2.5,0,0,1,.08-.68q.08-.28-.32-.68a4.6,4.6,0,0,0,.24-2.32,15.727,15.727,0,0,0-.4-2.24,8.7,8.7,0,0,0,.52-3.24,18.028,18.028,0,0,1,.36-3.8,8.4,8.4,0,0,1,1.28-3.24,31.771,31.771,0,0,1,2.16-2.68,2.41,2.41,0,0,1,.4-.68,5,5,0,0,0,.48-.68A20.587,20.587,0,0,1,140-36.84a23.289,23.289,0,0,1,3.04-1.72,9.086,9.086,0,0,1,2.16-1.12,14.208,14.208,0,0,1,2.88-.72.907.907,0,0,0,.44-.64Q148.64-41.52,149.44-41.28Zm-14.16,15.6a2.775,2.775,0,0,1-.48.36q-.32.2-.08.6a14.575,14.575,0,0,0,1.8-1.6A16.492,16.492,0,0,1,138.4-28a21.758,21.758,0,0,0,1.96-1.88q.92-1,1.88-1.88a48.645,48.645,0,0,1,4-3.44,48.031,48.031,0,0,0,3.92-3.36.283.283,0,0,0-.32-.32q-3.44,3.36-7.32,6.6T135.28-25.68Zm-.56,6.32a2.388,2.388,0,0,1,1.44-1.52q2.08-2.08,4.24-4.08t4.24-4.24q1.04-1.04,2.12-2.04t2.04-1.96l1.16-1.16a8.593,8.593,0,0,1,1.08-.92l.96-1.28a2.425,2.425,0,0,1,1.28-.88q0,.16.48.16a1.2,1.2,0,0,1,.04.8,1.555,1.555,0,0,1-.36.56,2.283,2.283,0,0,0,.8-.96,2.536,2.536,0,0,1,.72-.96,2.4,2.4,0,0,0-1.04-.52q-.56-.12-1.2-.2a2.406,2.406,0,0,1,.08.4,3.993,3.993,0,0,1-.08.48q-4.56,4.24-9.12,8.28t-9.04,8.2a6.288,6.288,0,0,0-.2,1.72,4.544,4.544,0,0,0,.2,1.16,2.193,2.193,0,0,0,1.16-.8,9.643,9.643,0,0,0,.76-1.04,2.557,2.557,0,0,0-.84.68A.648.648,0,0,1,134.72-19.36Zm28.4-17.92a1.412,1.412,0,0,1,.36-.48,1.352,1.352,0,0,0,.36-.56.781.781,0,0,1-.56-.16,1.33,1.33,0,0,1-.2.72Q162.88-37.44,163.12-37.28Zm15.44-1.04a55.905,55.905,0,0,1-4.28,4.44q-2.28,2.12-4.36,4.2-.32.24-.72.6t-.32.6q2.32-2,4.56-3.92T178-36.24a2.161,2.161,0,0,1,.72-1,8.2,8.2,0,0,0,.88-.76q.4.24.64,0a.386.386,0,0,1,.56,0q-.16-.64-.96-.48A6.883,6.883,0,0,1,178.56-38.32Zm-15.44,4.16a9.116,9.116,0,0,1,1.24-1.56,7.321,7.321,0,0,0,1.24-1.72q-.32.16-.36.12t.04-.16a2.615,2.615,0,0,0,.16-.28.158.158,0,0,0-.08-.24,4.126,4.126,0,0,1-.8.88,8.8,8.8,0,0,0-.88.84,3.048,3.048,0,0,0-.6.96A1.6,1.6,0,0,0,163.12-34.16Zm10.72-2.48a22.82,22.82,0,0,0-1.8,1.68q-.76.8-1.64,1.6l-1.6,1.6q-1.36,1.36-2.68,2.44t-2.6,2.36q-.32.32-.8.84a1.09,1.09,0,0,0-.32,1.08,9.109,9.109,0,0,0,2.72-2.04,7.843,7.843,0,0,1,2.48-1.88q-.16-.32.36-.44t.36-.68a1.447,1.447,0,0,0,.92-.6,3.09,3.09,0,0,1,.68-.76q1.68-1.68,3.32-3.28T176.48-38a2.62,2.62,0,0,0-1.44.36A7.421,7.421,0,0,0,173.84-36.64Zm-3.92-1.2q-2.32,2.48-4.76,4.8a48.919,48.919,0,0,0-4.6,5.04,1.213,1.213,0,0,0,.8-.72,3,3,0,0,1,.56-.96,15.232,15.232,0,0,1,1.72-1.48,15.234,15.234,0,0,0,1.72-1.48q1.36-1.36,2.6-2.68t2.6-2.52Zm2.56,0Q170-35.36,167.32-33a40.934,40.934,0,0,0-4.92,5.16,2.149,2.149,0,0,0,1-.64,9.494,9.494,0,0,1,.92-.88q1.36-1.28,2.96-2.76a31.338,31.338,0,0,0,2.8-2.92,6.46,6.46,0,0,0,1.76-1.36,12.824,12.824,0,0,1,1.52-1.44Zm-5.68,1.2a.5.5,0,0,0,.52-.28,3.224,3.224,0,0,1,.28-.52,1.038,1.038,0,0,0-.52.36Q166.96-36.88,166.8-36.64Zm-10.4.56a3.005,3.005,0,0,1,.32-.28.519.519,0,0,0,.16-.44,1.064,1.064,0,0,1-.48-.2q-.32-.2-.4.04.32,0,.2.36A.382.382,0,0,0,156.4-36.08Zm9.84.16a1.175,1.175,0,0,0,.32-.28,1.94,1.94,0,0,1,.24-.28.205.205,0,0,0-.28.08,2.1,2.1,0,0,0-.2.32l-.12.24Zm-28.72,4.16A9.6,9.6,0,0,1,138.64-33,13.8,13.8,0,0,1,140-34.12a13.609,13.609,0,0,0,1.32-1.08,4.249,4.249,0,0,0,.92-1.2q-1.36,1.04-2.76,2.16A6.269,6.269,0,0,0,137.52-31.76Zm36.16.88a4.892,4.892,0,0,0,1.48-.4,5.192,5.192,0,0,0,1.08-.88q0,.08-.04.04a.163.163,0,0,1-.04-.12l-.08-.08a.5.5,0,0,1,.36-.16.5.5,0,0,0,.36-.16q.16-.24.08-.36t.08-.2l.44-.44a.815.815,0,0,1,.6-.2,1,1,0,0,1,.28-.8,3.859,3.859,0,0,1,.64-.44,3.929,3.929,0,0,0,.68-.48,1.057,1.057,0,0,0,.32-.84,30.011,30.011,0,0,1-3.04,2.8Q175.28-32.32,173.68-30.88ZM156-33.84q-.48.4-.92.72a.958.958,0,0,0-.44.8q.16.16.28.08t.12.08a7.652,7.652,0,0,0,1.72-1.6,13.1,13.1,0,0,1,1.56-1.68,1.138,1.138,0,0,1-.2-.24q-.04-.08-.2-.08a10.935,10.935,0,0,0-1,.96Q156.4-34.24,156-33.84Zm-3.28,1.52a4.393,4.393,0,0,0,1.32-1.2,11.172,11.172,0,0,1,1.16-1.36,4.9,4.9,0,0,0-1.36,1.2Q153.28-32.96,152.72-32.32ZM151.2-34q-1.68,1.6-3.36,3.44t-3.04,3.44q.56-.48,1.16-1.08a2.708,2.708,0,0,1,1.24-.76,4.087,4.087,0,0,1,1.64-1.84,6.615,6.615,0,0,0,1.88-1.68q-.4,0-.08-.32a5.756,5.756,0,0,0,.72-.88,5.756,5.756,0,0,1,.72-.88.578.578,0,0,0-.48.2A1.749,1.749,0,0,1,151.2-34Zm7.92-.56a10.232,10.232,0,0,1-1.4,1.44,4.043,4.043,0,0,0-1.16,1.68.714.714,0,0,0,.6-.08l.4-.32a2.3,2.3,0,0,0,.36-.36.845.845,0,0,1,.4-.28,1.559,1.559,0,0,1,.8-1q.64-.36.4-.92-.16,0-.2-.08T159.12-34.56Zm17.68,3.28a2.843,2.843,0,0,0,2.4-.76,1.712,1.712,0,0,0,.56-1.96q-.8.64-1.56,1.28A10.232,10.232,0,0,0,176.8-31.28Zm-33.2.16a3.969,3.969,0,0,0,1.12-.76q.56-.52.96-.92,0-.16.28-.2t-.12-.2a3.45,3.45,0,0,1-1.08.96A3.566,3.566,0,0,0,143.6-31.12Zm14.56.24q0,.8.64.8a9.149,9.149,0,0,0,1.2-1.08,16.516,16.516,0,0,1,1.2-1.16.829.829,0,0,0-.8.08,3.192,3.192,0,0,0-.6.6,3.634,3.634,0,0,1-.64.64A1.125,1.125,0,0,1,158.16-30.88Zm-17.2,2.08a10.493,10.493,0,0,0,1.4-1.08,3.114,3.114,0,0,0,.92-1.16,5.959,5.959,0,0,1-1.16,1.16A7.247,7.247,0,0,0,140.96-28.8ZM157.92-9.44a7.319,7.319,0,0,1,1.04-2.16,17.688,17.688,0,0,0,1.28-2.16,24.553,24.553,0,0,0,1-2.64,9.427,9.427,0,0,0,.52-2.88,2.611,2.611,0,0,0-.2-.92,3.209,3.209,0,0,1-.2-1.16,8.561,8.561,0,0,1-.24-2.08,6.735,6.735,0,0,0-.24-1.92,6.2,6.2,0,0,0-1.12-2.04,9.092,9.092,0,0,0-1.88-1.76,10.773,10.773,0,0,0-2.32-1.24,6.728,6.728,0,0,0-2.44-.48,3.184,3.184,0,0,0-2,.68q-.88.68-1.52,1.24a5.641,5.641,0,0,0-1.08,1.44,16.975,16.975,0,0,0-.76,1.84,17.792,17.792,0,0,0-.56,2.2q-.16.92-.32,2.28a3.935,3.935,0,0,1-.16,1.16,3.179,3.179,0,0,0-.16.92,14.453,14.453,0,0,0,.76,3.76q.6,1.68,1.24,3.28a22.288,22.288,0,0,0,3.52,2.44,9.052,9.052,0,0,0,4.96.92Q157.12-9.2,157.92-9.44Zm-22.8-17.52a1.119,1.119,0,0,0,.52-.6,7.247,7.247,0,0,0,.2-.72,7.247,7.247,0,0,1,.2-.72.857.857,0,0,1,.6-.52.257.257,0,0,0-.24-.28.716.716,0,0,1-.4-.2,10.02,10.02,0,0,0-.72,1.36A2.337,2.337,0,0,0,135.12-26.96Zm37.52-1.68a2.333,2.333,0,0,1,1.2.48,1.062,1.062,0,0,1-.08-.68,2.5,2.5,0,0,0,.08-.68h-.48q.16.4-.2.48A.728.728,0,0,0,172.64-28.64Zm-9.52,8.48a1.069,1.069,0,0,1,.44-.56,4.133,4.133,0,0,0,.76-.64,3.377,3.377,0,0,0,.64-.88q.24-.48.64-.16a.815.815,0,0,1,.2-.6,2.878,2.878,0,0,1,.44-.36q.24-.16.44-.32a.857.857,0,0,0,.28-.48,1.1,1.1,0,0,0,.6-.36,1.86,1.86,0,0,1,.28-.36l1.36-1.36a.261.261,0,0,0,.08-.32.158.158,0,0,1,.08-.24,7.034,7.034,0,0,1,1.24-1.12,4.151,4.151,0,0,0,1.16-1.28q-2.24,1.6-4.4,3.32t-4.24,3.48Zm-23.36-7.12a2.07,2.07,0,0,1,.68-.68q.44-.28.2-.68a.493.493,0,0,1-.2.4l-.4.32a3.966,3.966,0,0,0-.32.28Q139.6-27.52,139.76-27.28Zm27.2.56q0-.08.16-.04t.16-.04q-.24-.16.04-.2t-.04-.28a2.427,2.427,0,0,0,.6-.32,1.416,1.416,0,0,1,.44-.24q-.4-.16-1,.32T166.96-26.72Zm-29.28.96a4.294,4.294,0,0,0,1.08-.68,1.186,1.186,0,0,0,.52-.84,3.5,3.5,0,0,1-.8.72A2.857,2.857,0,0,0,137.68-25.76Zm25.76,8.48a4.775,4.775,0,0,0,1.48-1.24,3.934,3.934,0,0,1,1.48-1.16q.16,0,.16-.08a.071.071,0,0,1,.08-.08.493.493,0,0,1,.08-.28.493.493,0,0,0,.08-.28l.48-.32a2.622,2.622,0,0,0,.4-.32,17.589,17.589,0,0,1,2.68-3,14.346,14.346,0,0,0,2.68-3.24,44.261,44.261,0,0,0-5,4.24,35.68,35.68,0,0,1-5.24,4.24,7.344,7.344,0,0,1-.56,2.64,1.758,1.758,0,0,0,.68-.48Q163.2-16.96,163.44-17.28Zm-25.92-2.08q-.64.4-1.68,1.2a2.515,2.515,0,0,0-1.12,1.44,1.793,1.793,0,0,0-.12.84,1.468,1.468,0,0,0,.2.68q-.08-.64.28-.72a.435.435,0,0,0,.36-.48,62.652,62.652,0,0,0,5.68-5.24q2.64-2.76,4.88-5.16-1.92,1.6-4.2,3.56T137.52-19.36Zm27.04-5.52a6.441,6.441,0,0,0,2.08-1.84,12.754,12.754,0,0,0-1.28.92A2.587,2.587,0,0,0,164.56-24.88Zm-27.52-.16q.24.16.4-.16t-.08-.32Q137.04-25.2,137.04-25.04ZM160.4-9.76q0-.56.32-.72.24.24.52-.2a4.943,4.943,0,0,1,.68-.84,1.914,1.914,0,0,1,.76-.4q.36-.08-.04-.48a.535.535,0,0,0,.72-.08q.32-.32-.08-.48h.56q.16-.24.36-.56t.36-.64a.326.326,0,0,1,.24-.08.071.071,0,0,1,.08.08.463.463,0,0,0,.08-.32.231.231,0,0,0-.08-.16h.48a1.184,1.184,0,0,0,.32-.6q0-.2.4.12a1.815,1.815,0,0,1,.6-1,4.944,4.944,0,0,1,.92-.6.913.913,0,0,1,.36-1,2.917,2.917,0,0,1,1.08-.6,1.256,1.256,0,0,1,.64-.88,3.377,3.377,0,0,0,.88-.64.261.261,0,0,0,.08-.32.158.158,0,0,1,.08-.24,14.106,14.106,0,0,1,1.56-1.48,2.783,2.783,0,0,1,1.72-.76,4.987,4.987,0,0,1-.08-1.56,3.323,3.323,0,0,0-.08-1.32q-.88,1.12-1.8,2.36a12.564,12.564,0,0,1-1.96,2.12,11.722,11.722,0,0,0-1.24,1.48,11.724,11.724,0,0,1-1.24,1.48,3.179,3.179,0,0,1-1,.92,3.179,3.179,0,0,0-1,.92,3.3,3.3,0,0,0-.56.76,5.753,5.753,0,0,1-.56.84,40.377,40.377,0,0,1-3.12,2.96,31.779,31.779,0,0,0-3.04,2.96.783.783,0,0,0,.64.04,1.032,1.032,0,0,0,.4-.36,3.179,3.179,0,0,1,.4-.48A.865.865,0,0,1,160.4-9.76Zm1.52-1.28q.24-.16.24-.24t-.12-.08a.271.271,0,0,0-.2.08Q161.76-11.2,161.92-11.04Zm-25.6-13.28a.464.464,0,0,0,.4-.28q.16-.28.08-.28a1.254,1.254,0,0,1-.32.24A.322.322,0,0,0,136.32-24.32Zm6.56,2.96a3.454,3.454,0,0,1,1.48-1.52A4.019,4.019,0,0,0,146-24.72a14.814,14.814,0,0,0-2.08,1.8q-.96,1-1.92,2.04a.538.538,0,0,0,.48-.24A.47.47,0,0,1,142.88-21.36Zm20.8-2.8a.593.593,0,0,1,.4-.28.716.716,0,0,0,.4-.2q-.24-.32-.6,0T163.68-24.16ZM134.56-22.8q.64,0,.56-.28t.32-.6q-.64,0-.72-.16a1.773,1.773,0,0,1-.08.56A1.51,1.51,0,0,0,134.56-22.8Zm5.92,5.36q1.28-1.04,2.52-2.12t2.28-2.04a.493.493,0,0,0-.08-.28q-.08-.12-.08.12-2.24,1.68-4.36,3.52a42.281,42.281,0,0,0-3.96,3.92,9.223,9.223,0,0,0,1.96-1.48Q139.6-16.64,140.48-17.44ZM159.2-5.12a2.224,2.224,0,0,1,.72-.92,7.322,7.322,0,0,1,1.12-.68,1.211,1.211,0,0,1,.6-.92,8.336,8.336,0,0,0,.84-.44,2.491,2.491,0,0,1,1.12-1.16,2.977,2.977,0,0,0,1.12-.92V-10H165q.12,0-.12-.16h-.08q-.08,0-.08-.16,2.48-1.92,4.76-3.96t4.6-4.04a4.192,4.192,0,0,0,.04-1.52,9.242,9.242,0,0,1-.12-1.52,12.248,12.248,0,0,0-2.88,2.44,14.972,14.972,0,0,1-2.8,2.52,10.55,10.55,0,0,1-1.2,1.32l-1.44,1.36q-.72.68-1.32,1.28a7.385,7.385,0,0,0-.92,1.08,1.908,1.908,0,0,0,.84-.64,1.518,1.518,0,0,1,.92-.56,10.635,10.635,0,0,1,2.28-2.24q1.24-.88,2.44-1.92A5.915,5.915,0,0,0,171-17.96a1.9,1.9,0,0,1,1.32-.84.708.708,0,0,0,.32.2q.16.04.16.28a10.39,10.39,0,0,1-2.36,2.64l-2.76,2.24a7.156,7.156,0,0,0-1.08.96,7.156,7.156,0,0,1-1.08.96Q162.72-9.2,160-6.88T154.8-2q0,.24.08.28a.433.433,0,0,1,.16.2q-.4-.24-.6.12a2.688,2.688,0,0,1-.44.6,16.445,16.445,0,0,0,1.92-.56,4.1,4.1,0,0,0,1.52-.96.448.448,0,0,0-.52.24q-.2.32-.36-.08a5.026,5.026,0,0,1,.88-1.72A3.719,3.719,0,0,1,159.2-5.12Zm-21.28-8.32q-.4.4-.96.88a1.285,1.285,0,0,1-1.2.32.5.5,0,0,1-.16-.36,2.036,2.036,0,0,1,.04-.4.64.64,0,0,0,0-.32q-.04-.12-.36-.12a1.455,1.455,0,0,0,.08,1.04q.24.64.4,1.2,2-1.92,4.28-3.76a25.211,25.211,0,0,0,3.88-3.84,28.365,28.365,0,0,0-3.04,2.64Q139.44-14.72,137.92-13.44Zm27.6-4.8a34.086,34.086,0,0,1-2.88,3,10.074,10.074,0,0,0-2.4,3.4.554.554,0,0,0,.6-.4,2.282,2.282,0,0,1,.36-.72.971.971,0,0,1,.64-.56q.48-.16.08-.4.24-.32.4-.28a.332.332,0,0,0,.32-.12q-.16-.16,0-.4a2.621,2.621,0,0,1,.32-.4v.32a.141.141,0,0,0,.16.16,2.51,2.51,0,0,0,.6-1,.809.809,0,0,1,.84-.6,4.7,4.7,0,0,1,.48-1.08,5.371,5.371,0,0,1,1.04-1,.832.832,0,0,0-.32.04A.557.557,0,0,1,165.52-18.24Zm-21.44,1.36q-1.84,1.44-3.56,3.04t-3.32,3.2a14.085,14.085,0,0,0,2-1.72,24.991,24.991,0,0,1,1.92-1.8,20.325,20.325,0,0,1,2.04-1.64,16.176,16.176,0,0,0,2.12-1.8.652.652,0,0,0-.76.16A5.6,5.6,0,0,0,144.08-16.88Zm23.2,6.24q-2.08,1.6-3.92,3.08a43.783,43.783,0,0,0-3.52,3.16,2.5,2.5,0,0,1,.68.08,2.5,2.5,0,0,0,.68.08q-.4-.56-.04-.36a.764.764,0,0,0,.6.12,1,1,0,0,0,.24-.4,1,1,0,0,1,.24-.4,3.778,3.778,0,0,1,1.92-1.04q0-.56.32-.72.16.16.24-.08t.32-.08a11.855,11.855,0,0,1,4-3.44,1.61,1.61,0,0,1,.52-.68,7.29,7.29,0,0,0,.68-.6,7.477,7.477,0,0,0,.8-.76q.32-.36.72-.76.64-.56,1.44-1.2a2.361,2.361,0,0,0,.88-1.76q0-.16-.24-.16-1.68,1.44-3.32,2.96T167.28-10.64Zm-23.68-4q-1.36,1.12-2.68,2.28a21.332,21.332,0,0,0-2.2,2.2q1.68-1.36,3.4-2.72t3.4-2.96a1.446,1.446,0,0,0-1,.4Q144.08-15.04,143.6-14.64Zm-8.8.48a.915.915,0,0,1,.24-.28q.08-.04.08-.2-.24.16-.32-.16t-.08,0q.16-.16.04.24T134.8-14.16Zm3.6,6.24a.517.517,0,0,0-.52-.04q-.28.12-.04.28.32.4.8.04l.8-.6a1.748,1.748,0,0,1,.36-.4,4.366,4.366,0,0,0,.36-.32,31.265,31.265,0,0,0,3.76-3.76,11.742,11.742,0,0,0,1.2-.72,4.549,4.549,0,0,1,.56-.44q.4-.28,0-.28a42.276,42.276,0,0,1-3.72,3.04A23.4,23.4,0,0,0,138.4-7.92ZM172-10.64a3.9,3.9,0,0,1,.92-1.04,3.4,3.4,0,0,0,.92-1.2,1.854,1.854,0,0,1,.36.04q.2.04.2-.12-.32,0-.12-.48t-.2-.48a4.55,4.55,0,0,1-1.44,1.64,16.164,16.164,0,0,0-1.76,1.4.523.523,0,0,0-.24.24,1.253,1.253,0,0,1-.24.32,3.247,3.247,0,0,1-1.16.96,7.236,7.236,0,0,0-1.4.96,14.5,14.5,0,0,0-1.72,1.48,20.044,20.044,0,0,1-1.64,1.48q-.4.24-.72.4a4.2,4.2,0,0,0-.64.4q-.48.32-1.2.88a.884.884,0,0,0-.16,1.36,35.754,35.754,0,0,0,5.04-4.12A31.855,31.855,0,0,1,172-10.64Zm-25.84-2.24a33.329,33.329,0,0,1-3.6,3.4A25.528,25.528,0,0,0,139.04-6a42.783,42.783,0,0,0,3.88-3.16q1.88-1.72,3.56-3.56Q146.48-12.88,146.16-12.88Zm1.04,2a.532.532,0,0,1,.04-.28q.04-.04-.2-.04-1.36,1.2-2.68,2.4t-2.68,2.32a7.618,7.618,0,0,1-.96.8,1.461,1.461,0,0,0-.64,1.04,21.1,21.1,0,0,0,3.6-3.08A26.555,26.555,0,0,1,147.2-10.88ZM162.24,1.6a9.969,9.969,0,0,0,1.52-.84,2.654,2.654,0,0,0,.96-1.24q.4-.16.48-.08t.32-.08a1,1,0,0,1,.24-.4.652.652,0,0,0,.16-.48.807.807,0,0,0,.84-.52.807.807,0,0,1,.84-.52q.8-.88,1.6-1.72a5.182,5.182,0,0,1,1.76-1.24,3.789,3.789,0,0,1,.96-1.16q.56-.44,1.12-.84a2.461,2.461,0,0,0,.52.4.519.519,0,0,1,.28.48,1.316,1.316,0,0,1-.8.92,6.478,6.478,0,0,0-.88.44,6.457,6.457,0,0,0-.68.6l-.76.76q-1.36,1.12-2.84,2.36T165.04.72a6.639,6.639,0,0,1-1.32,1.04,12.807,12.807,0,0,0-1.48,1.04L161,4.04a4.762,4.762,0,0,0-.84,1.24q-.16.16-.4.36a.3.3,0,0,0-.08.44,3.179,3.179,0,0,1-.68.64q-.44.32-.2.64a1.032,1.032,0,0,0,.44-.36.717.717,0,0,0,.12-.36,6.161,6.161,0,0,0,1.52-.96,6.645,6.645,0,0,0,1.04-1.12A58.919,58.919,0,0,0,168-.36q2.8-2.6,5.68-5.08.24-.08.32.04t.4.12A8.465,8.465,0,0,1,174.36-8a12.7,12.7,0,0,0,.04-3.04,2.406,2.406,0,0,0-1.04.64,10.905,10.905,0,0,1-.88.8,1.107,1.107,0,0,1,1.2.8q-1.36,1.36-2.84,2.64t-3,2.56q-1.44,1.2-2.96,2.44t-3.12,2.44a1.588,1.588,0,0,1-.16.72q-.16.32,0,.48a.912.912,0,0,1,.32-.48A.866.866,0,0,0,162.24,1.6Zm-.88-10.88a3.065,3.065,0,0,0,1.04-.76q.48-.52.24-.76a1.542,1.542,0,0,1-.64.8A1.614,1.614,0,0,0,161.36-9.28Zm-25.04-.88q.48,0,.56-.32a.37.37,0,0,1-.44.04Q136.16-10.56,136.32-10.16Zm4.88,6.72a4.225,4.225,0,0,0,1.6-1q.56-.6,1.12-1.24a10.933,10.933,0,0,0,2.36-2.04,19.889,19.889,0,0,1,2.12-2.12q0-.32-.16-.32a29.692,29.692,0,0,1-3.56,3.32A23.249,23.249,0,0,0,141.2-3.44Zm27.6-3.2a8.431,8.431,0,0,0-.72.48l-.64.48a1.065,1.065,0,0,0-.24.36,1.065,1.065,0,0,1-.24.36q-.64.56-1.28,1.04a11.187,11.187,0,0,0-1.2,1.04,11.493,11.493,0,0,0-1.4.92,3.064,3.064,0,0,0-1,1.32,1.489,1.489,0,0,0,.96-.32q.4-.32.8-.68t.8-.68a1.944,1.944,0,0,1,.96-.4A3.077,3.077,0,0,1,166.8-4a1.591,1.591,0,0,0,.88-1.12.477.477,0,0,1,.48-.08q.32.08.32-.08-.16-.32.28-.76a1.468,1.468,0,0,1,1.08-.44q0-.16-.08-.2t-.08-.2a3.2,3.2,0,0,0,1.24-1.04,3.2,3.2,0,0,1,1.24-1.04.326.326,0,0,1,.08-.24q.08-.08-.08-.24a17.552,17.552,0,0,1-1.68,1.48Q169.6-7.28,168.8-6.64ZM148.4-7.92a4.442,4.442,0,0,0-1.16.84l-.92.92q-.88.88-1.92,1.88a5.247,5.247,0,0,0-1.36,1.88q1.84-1.6,3.64-3.2t3.64-3.2q-.56-.72-1.08-.16A8.456,8.456,0,0,0,148.4-7.92Zm12.96-1.2q-.72.16-.56.28T161.36-9.12ZM160-7.92h.24v-.32H160Zm-8.32-.16q-1.84,1.68-3.8,3.24a28.005,28.005,0,0,0-3.64,3.48A.854.854,0,0,0,145-1.6q.36-.32.68-.56a41.042,41.042,0,0,0,3.2-2.88,41.042,41.042,0,0,1,3.2-2.88,1.139,1.139,0,0,1-.2-.24Q151.84-8.24,151.68-8.08ZM155.04-6q-1.36,1.2-2.92,2.88T149.6-.32a1.588,1.588,0,0,1,.72-.16h.72q-.16-.64.28-.6a.6.6,0,0,0,.6-.2,4.979,4.979,0,0,1,1.36-1.96q.88-.76,1.76-1.4.16-.4-.12-.24t-.28-.24a8.865,8.865,0,0,0,1.24-1.36,2.789,2.789,0,0,1,1.72-1.04.652.652,0,0,1-.16.48,2.488,2.488,0,0,0,.72-.44q.32-.28-.08-.44a3.236,3.236,0,0,0-1.68.72Q155.76-6.64,155.04-6Zm4.32-1.52h.32a.189.189,0,0,1,.16-.2q.16-.04,0-.2h-.32q0,.16-.08.2T159.36-7.52Zm-5.6-.16a31.33,31.33,0,0,1-2.4,2.16q-1.28,1.04-2.4,2.08a11.692,11.692,0,0,0-1.44,1.36,3.256,3.256,0,0,0-.8,1.6,2.871,2.871,0,0,0,1.8-.92,15.384,15.384,0,0,1,1.32-1.32,18.428,18.428,0,0,1,1.36-1.52q.72-.72,1.36-1.28a.781.781,0,0,1,.56-.16,4.788,4.788,0,0,0,.76-.96,3.342,3.342,0,0,1,.76-.88.769.769,0,0,1-.56.08A1.254,1.254,0,0,1,153.76-7.68Zm4.72,1.04a.691.691,0,0,0,.48-.24Q158.48-6.88,158.48-6.64Zm-.32,4.08a2.07,2.07,0,0,1,.88-.84.835.835,0,0,0,.48-1,1.559,1.559,0,0,1-.8,1Q158.08-3.04,158.16-2.56ZM145.12,17.52a4.432,4.432,0,0,1,1.4.2q.6.2,1.24.36a4.075,4.075,0,0,1,.6-.32,1.967,1.967,0,0,0,.6-.4.16.16,0,1,1,0-.32q.4.16.44-.12t.44-.12q.24-.16.08-.32t.24-.16l.64-.64.4-.4a1.713,1.713,0,0,1,.84-.6,1.683,1.683,0,0,0,.76-.44,1.428,1.428,0,0,0,.4-.4.771.771,0,0,1,.4-.32A8.448,8.448,0,0,1,155.72,12a5.232,5.232,0,0,0,1.88-1.52q.4-.16.8-.36a1.112,1.112,0,0,0,.56-.68q.4.16.48-.2t.56-.2a1.232,1.232,0,0,1,.68-.88,9.681,9.681,0,0,0,.92-.48q.48-.4.84-.76t.84-.76q.88-.64,1.76-1.24a16.162,16.162,0,0,0,1.76-1.4q3.36-2.88,6.4-5.92a2.452,2.452,0,0,1,.44-.24.863.863,0,0,1,.6.08V-3.92Q171.2-1.6,168.28,1t-6.04,4.92q-2.72,2.08-5.6,4.04t-5.6,3.96a2.055,2.055,0,0,1-.76.6,2.884,2.884,0,0,0-.84.6,3.116,3.116,0,0,0-.76.92q-.28.52-1.08.28a3.684,3.684,0,0,1,1.04-.84q.64-.36.48-.84a9.5,9.5,0,0,1-2.04,1.4A6.9,6.9,0,0,0,145.12,17.52Zm7.6-18.16a.269.269,0,0,0,.24-.12q.08-.12.32.12a.978.978,0,0,1,.24-.72.865.865,0,0,0,.24-.64,1.521,1.521,0,0,0-.68.6A6.645,6.645,0,0,0,152.72-.64ZM174-.96Q171.04,1.52,168.12,4t-6.04,4.72q-1.04.8-2.08,1.52a15.27,15.27,0,0,1-2.24,1.28,13.989,13.989,0,0,1-2.12,1.76q-1.08.72-2.2,1.52a19.969,19.969,0,0,0-2.32,1.68q-1.04.88-2.16,1.76h2.24a9.344,9.344,0,0,0,1.16-1,11.592,11.592,0,0,1,1.24-1.08q.64-.88,1.2-.72a3.809,3.809,0,0,1,1.48-1.56,18.723,18.723,0,0,0,1.8-1.16,13.762,13.762,0,0,0,1.64-1.4,4.259,4.259,0,0,1,1.88-1.08,1.589,1.589,0,0,1,.84-.92,2.353,2.353,0,0,0,1-.92q.4.4.2.12t.2-.28a6.435,6.435,0,0,1,1.28-1.12q.72-.48,1.44-1.04.16-.24.32-.44a.68.68,0,0,1,.56-.2q1.04-1.12,2.12-2.08a17.517,17.517,0,0,1,2.36-1.76A5.1,5.1,0,0,1,173,.16q.68-.64,1.24-1.28Q174-1.12,174-.96ZM162.08,10.96l-.08.16h-.08a33.217,33.217,0,0,0,3.8-2.48q1.8-1.36,3.64-2.72.88-.64,1.84-1.36a12.544,12.544,0,0,0,1.76-1.6.322.322,0,0,1,.44-.12.37.37,0,0,0,.44-.04,2.241,2.241,0,0,0,.16-.84,4.276,4.276,0,0,1,.08-.84q-3.04,2.48-5.96,5T162.08,10.96Zm4-1.2a5,5,0,0,0-.68.48,2.41,2.41,0,0,1-.68.4l-1.76,1.28L161.2,13.2q-1.92,1.2-3.8,2.48t-3.64,2.72a4.393,4.393,0,0,1,1.44-.16,17.729,17.729,0,0,1,3.2-2.8,42.232,42.232,0,0,1,3.68-2.24q.64-.4,1.2-.68a5.371,5.371,0,0,0,1.04-.68q0-.16.12-.16a.439.439,0,0,0,.28-.16,6.579,6.579,0,0,0,.96-.56,8.429,8.429,0,0,1,.72-.48,18.171,18.171,0,0,1,2.08-1.64,19.63,19.63,0,0,1,2.24-1.32,2.923,2.923,0,0,1,1.24-1.36,5.392,5.392,0,0,0,1.4-1.12q0-.32-.16-.32-1.76,1.36-3.52,2.64T166.08,9.76Zm-8.96,8.16a6.6,6.6,0,0,0,1.36-.12,5.721,5.721,0,0,1,1.2-.12,4.857,4.857,0,0,0,.72-1.36,7.91,7.91,0,0,0,2.56-1.68,6.878,6.878,0,0,1,2.64-1.6,9.636,9.636,0,0,1,3-2.28,9.133,9.133,0,0,0,3-2.36,1.137,1.137,0,0,1,.64-.16q.4,0,.4-.56-.16-.16-.08-.24t-.08-.08a50.548,50.548,0,0,1-7.56,5.4A83.931,83.931,0,0,0,157.12,17.92ZM142.24,9.44q.24-.08.76-.32a.429.429,0,0,0,.2-.72,1.407,1.407,0,0,0-.56.56A1.208,1.208,0,0,1,142.24,9.44Zm2.24,0a19.876,19.876,0,0,1-3.16,2,7.077,7.077,0,0,0-2.76,2.48,4.177,4.177,0,0,0,2.08-1.2,4.3,4.3,0,0,1,2.4-1.2,2.028,2.028,0,0,1,1.08-.96,2.439,2.439,0,0,0,1.16-.96q-.4,0-.4-.12T144.48,9.44Zm16.96,7.6q2.16-.64,4.2-1.36a8.46,8.46,0,0,0,3.4-2.16.461.461,0,0,1-.16-.32v-.32a8.333,8.333,0,0,1,.84-.44,2.883,2.883,0,0,0,.84-.6q.16,0,.08-.2a.983.983,0,0,1-.08-.36,1.851,1.851,0,0,1,.4-.24.71.71,0,0,1,.32-.08,1.232,1.232,0,0,0,.2-.48q.04-.24-.2-.24a45.957,45.957,0,0,1-4.92,3.4A45.957,45.957,0,0,0,161.44,17.04ZM146.88,10.4a14.793,14.793,0,0,0-2.08,1q-1.04.6-1.92,1.16-1.04.64-1.92,1.2a8.881,8.881,0,0,0-1.52,1.2,9.4,9.4,0,0,1,.88.48,45.135,45.135,0,0,1,3.88-2.32,12.265,12.265,0,0,0,3.4-2.64A1.987,1.987,0,0,1,146.88,10.4Zm2.96.08q-.96.72-2.04,1.52t-2.12,1.6a15.28,15.28,0,0,1-2.24,1.2,4.78,4.78,0,0,0-1.92,1.52.954.954,0,0,0,1.28-.24,12.016,12.016,0,0,1,1.28-1.12q.56-.32,1-.6a4.159,4.159,0,0,1,.92-.44,8.726,8.726,0,0,0,.72-.64q.32-.32.8-.72a10.5,10.5,0,0,1,1.68-.96,4.506,4.506,0,0,0,1.52-1.12q-.32.16-.4.08A.833.833,0,0,0,149.84,10.48Zm11.36,1.36a2.217,2.217,0,0,1,.52-.2q.2-.04.36-.36-.32,0-.32-.16a.586.586,0,0,1-.44.36Q161.04,11.52,161.2,11.84Zm-18,5.04a2.545,2.545,0,0,0,1.68-.6,15.466,15.466,0,0,1,1.6-1.16q.88-.56,1.68-1.12a10.5,10.5,0,0,1,1.68-.96q0-.16.32-.48a.714.714,0,0,1,.52-.16q.36,0,.36-.4-2.08,1.12-4.08,2.32A38.728,38.728,0,0,0,143.2,16.88Zm16.96-4.16h.24v-.24h-.24Zm-2.08,1.36q.4.16.56-.04t.32-.44Q158.16,13.6,158.08,14.08Zm-.32.32-.4.16.16-.08a2.2,2.2,0,0,1,.28-.12Q157.92,14.32,157.76,14.4Z" transform="translate(-4.11 56.48)" fill="#222"/>
</svg>
