<svg xmlns="http://www.w3.org/2000/svg" width="722.018" height="97.478" viewBox="0 0 722.018 97.478">
  <g id="グループ_1" data-name="グループ 1" transform="translate(-1327.522 771.5)">
    <path id="パス_82" data-name="パス 82" d="M30.558,15.478c8.553,0,13.122-4.218,15.582-9.841l1.289,8.436H60.083V-34.667H33.37v11.716h9.256v10.076c0,8.2-1.875,14.411-9.139,14.411-7.381,0-8.9-5.975-8.9-13.825V-54.467c0-7.03.469-13.708,8.318-13.708,7.5,0,8.084,5.389,8.084,12.771v6.678H59.731v-5.507C59.731-71.221,53.053-82,32.667-82,11.344-82,4.9-69.347,4.9-49.078v31.75C4.9,2.473,11.227,15.478,30.558,15.478Zm33.625-1.406h18.16L85.975-6.783h15l3.515,20.855h17.808l-18.277-94.9H82.577Zm23.549-32.8,5.624-38.194L99.1-18.733Zm39.717,32.8h19.214v-43h7.03l10.779,43h19.8L171.151-32.207c9.139-4.1,11.716-11.95,11.716-23.549,0-19.449-11.716-25.072-30.813-25.072h-24.6Zm19.214-54.48V-67.824h6.678c8.9,0,11.365,4.8,11.365,13.591,0,9.256-3.046,13.825-12.3,13.825ZM191.3,14.072h28.353c17.926,0,27.65-8.9,27.65-27.884,0-13.473-5.507-21.44-16.637-23.081,8.787-1.523,13.825-7.85,13.825-19.331,0-20.034-12.653-24.6-29.056-24.6H191.3Zm19.214-56.589V-67.589h3.632c9.021,0,13.473,3.163,13.473,11.833s-2.343,13.239-12.185,13.239Zm0,43V-29.512h5.155c9.724,0,13.122,4.569,13.122,15.348,0,9.841-3.046,14.645-12.771,14.645Zm38.9,13.591h18.16l3.632-20.855h15l3.515,20.855h17.808l-18.277-94.9h-21.44Zm23.549-32.8,5.624-38.194,5.741,38.194Zm62.681,34.211c8.553,0,13.122-4.218,15.582-9.841l1.289,8.436h12.653V-34.667H338.456v11.716h9.256v10.076c0,8.2-1.875,14.411-9.139,14.411-7.381,0-8.9-5.975-8.9-13.825V-54.467c0-7.03.469-13.708,8.318-13.708,7.5,0,8.084,5.389,8.084,12.771v6.678h18.746v-5.507c0-16.988-6.678-27.767-27.064-27.767-21.323,0-27.767,12.653-27.767,32.922v31.75C309.986,2.473,316.313,15.478,335.644,15.478Zm38.312-1.406h41.592V.95H393.17V-28.809h17.105V-42.283H393.17v-25.19h22.143V-80.828H373.956Zm46.981,0H449.29c17.926,0,27.65-8.9,27.65-27.884,0-13.473-5.507-21.44-16.637-23.081,8.787-1.523,13.825-7.85,13.825-19.331,0-20.034-12.653-24.6-29.056-24.6H420.937Zm19.214-56.589V-67.589h3.632c9.021,0,13.473,3.163,13.473,11.833s-2.343,13.239-12.185,13.239Zm0,43V-29.512h5.155c9.724,0,13.122,4.569,13.122,15.348,0,9.841-3.046,14.645-12.771,14.645Zm38.9,13.591h18.16l3.632-20.855h15l3.515,20.855H537.16l-18.277-94.9h-21.44Zm23.549-32.8,5.624-38.194,5.741,38.194ZM566.1,15.36c14.762,0,24.487-9.959,24.487-23.549,0-12.888-6.561-21.206-14.528-28.119l-9.607-8.436c-5.272-4.569-8.553-8.2-8.553-15,0-4.1,2.226-8.084,6.678-8.084,6.327,0,7.264,5.975,7.5,14.645l16.754-2.46C588.125-67.824,584.259-82,565.162-82c-15.817,0-25.775,8.553-25.775,24.135,0,11.13,5.038,18.043,12.068,24.018l9.841,8.553c6.327,5.507,10.427,10.076,10.427,18.16,0,4.1-1.523,7.733-6.444,7.733-6.21,0-9.021-5.741-9.373-17.574l-16.637,2.812C540.089,5.988,548.525,15.36,566.1,15.36Zm30.227-1.289h41.592V.95H615.541V-28.809h17.106V-42.283H615.541v-25.19h22.143V-80.828H596.327Z" transform="translate(1411.622 -689.5)" fill="#2c3e50"/>
    <path id="パス_81" data-name="パス 81" d="M44.57,23.7a95.473,95.473,0,0,0,21.808-3.074l-1.729-9.127a71.838,71.838,0,0,1-18.734,3.074c-23.153,0-32.376-13.162-30.263-35.643,1.537-20.463,12.393-36.315,34.009-36.315,20.655,0,28.053,12.97,26.516,31.511-.769,11.817-7.109,20.655-12.97,19.6-2.4-.48-1.633-5.668-1.249-8.166l4.419-32.28H54.946l-.961,5.188C53.024-43.267,51.2-47.3,47.068-47.3c-14.8,0-21.712,17.389-22.1,29.3C24.587-6.952,30.543,2.079,41.111,1.214a10.992,10.992,0,0,0,9.223-6.821c1.249,5.092,6.533,7.494,11.817,7.494,15.66,0,23.249-14.987,24.114-28.053C88.09-48.743,76.946-66.42,50.718-66.42,24.01-66.42,6.814-49.031,4.8-20.882,2.3,7.267,17,23.7,44.57,23.7ZM44.185-8.681c-4.708.384-6.533-4.035-6.533-9.223.1-9.127,4.611-18.83,12.3-18.83.865,0,2.594.384,2.882,1.249L49.758-12.908C48.7-9.834,45.434-8.873,44.185-8.681Z" transform="translate(1323 -700.199)" fill="#2c3e50"/>
  </g>
</svg>
