<?xml version="1.0" encoding="utf-8"?>
<!-- Generator: Adobe Illustrator 25.4.1, SVG Export Plug-In . SVG Version: 6.00 Build 0)  -->
<svg version="1.1" id="_x31_0" xmlns="http://www.w3.org/2000/svg" xmlns:xlink="http://www.w3.org/1999/xlink" x="0px" y="0px"
	 viewBox="0 0 512 512" style="enable-background:new 0 0 512 512;" xml:space="preserve">
<style type="text/css">
	.st0{fill:#CCCCCC;}
</style>
<g>
	<path class="st0" d="M510.9,46.8c0,0-2.2-0.7-6.4-1.9c-0.5-0.1-1-0.3-1.6-0.5c-4.2-1.2-9.9-3-17.2-3.8l-1.3-0.2
		c-3.5-0.6-7.5-1.2-11.9-1.2c-0.2,0-0.5,0-0.7,0h-0.1c-1.5,0-2.9-0.1-4.5-0.1c-1.7-0.1-3.4-0.1-5.1-0.1c-2.6,0-4.7,0.1-6.7,0.4
		c-1.4,0.2-2.9,0.3-4.4,0.4c-4.6,0.4-9.4,0.9-14.3,2.1l-10,2.2c-2.3,0.6-4.5,1.3-6.8,2.1c-1.1,0.4-2.3,0.8-3.4,1.1
		c-12.7,3.9-26.2,10.5-42.7,20.6l-0.1,0.1c-1.9,1.4-3.8,2.7-5.8,4.1c-5,3.5-10.3,7.1-15,11.4c-1.1,0.9-2.2,1.9-3.3,2.8
		c-2.3,1.9-4.6,3.9-6.9,6l-9.6,9.6c-3.4,3.3-6.5,6.9-9.4,10.4c-0.9,1.1-1.9,2.3-2.9,3.4c-2.1,2.4-4.2,4.9-6.2,7.6
		c-1.4,2.1-2.9,4.1-4.4,6.2c-4.1,5.7-8.3,11.5-11.8,17.8c-0.8,1.4-1.6,2.7-2.4,4.1c-1.7,2.8-3.4,5.7-5.1,8.8
		c-2.3,4.7-4.6,9.4-6.9,14.1c-0.3,0.7-0.7,1.4-1,2.1c-0.8,1.7-1.7,3.5-2.3,5l-2.5,6.1l-2.5,6.1l-1.8,4.3l-0.2-0.2l-0.5,1.9
		c0,0.2-0.2,0.6-0.4,1.6c-5.6,17.3-11.7,37.8-14.2,59.1c-1.3,7.5-1.7,15.3-2.1,22.7c-0.1,2.5-0.3,5.1-0.5,7.7
		c-0.1,3.5,0,7.1,0.1,10.6c0,1.5,0.1,3.1,0.1,4.6c0.1,4.7,0.2,10,0.8,15.2l0.5,4.4c0.4,3.5,0.8,7,1.1,10.5c0.5,3.5,1.2,7,1.9,10.4
		c0.3,1.4,0.6,2.9,0.8,4.3c1.2,7.4,3.4,14.6,5.5,21.6c0.7,2.3,1.4,4.7,2,7l0,0.1c7.4,20.8,15.5,37.5,24.7,51.1
		c0.8,1.3,1.7,2.5,2.5,3.7l0,0c3.3,5.7,7.3,10.9,11.9,15.6c14.6,14.9,34.2,23.1,55.1,23.1c16.1,0,31.4-4.9,44.5-14.1
		c20.5-14.5,32.7-38.1,32.7-63.1c0-29.6-16.8-55.4-41.3-68.3c-8.7-11.9-22.8-19.7-38.7-19.7c-0.8,0-1.5,0.1-2.3,0.1
		c-0.5-1.5-1.1-3.1-1.6-4.6c-1.1-2.6-1.8-5.4-2.5-8.4l-0.2-0.8c-0.3-1.3-0.6-2.6-1-3.8c-0.5-1.9-1-3.9-1.4-5.8
		c-0.3-2.2-0.7-4.5-1.1-6.6c-0.8-4.5-1.6-9.1-1.8-13.8l0,0l0,0c-1.7-14.2-0.7-29.4,0.4-43.7l-0.1,0l0.9-4.9l2.3-12.9
		c0.2-1.2,0.5-2.2,0.7-3.2c0.2-0.6,0.3-1.3,0.5-2l2.3-10.1c0.6-2.1,1.3-4.4,2.1-6.6c0.4-1.3,0.9-2.7,1.3-4.1
		c1.4-4.9,3.4-9.6,5.3-14.1c0.9-2.2,1.9-4.4,2.7-6.6c0.9-2.1,2-4.1,3-6.1c0.6-1.2,1.3-2.5,1.9-3.7l0.1-0.2c1.6-3.1,3.2-6.4,5.2-9.2
		c1.9-3.1,3.8-6.1,5.7-9.1c1.2-1.8,2.6-3.6,3.9-5.3c0.8-1,1.6-2.1,2.4-3.2c2.6-3.9,5.8-7.2,8.8-10.5c1.5-1.6,3-3.2,4.4-4.9
		c11.4-11,20.4-18.2,29.1-23.2c0.9-0.5,1.9-1.1,2.8-1.7c1.6-1,3.1-1.9,4.6-2.7l7.5-3.5c3.3-1.8,6.8-2.9,10.1-3.9
		c1.3-0.4,2.7-0.9,4.1-1.4c3-1.2,5.9-1.7,8.8-2.2c1.5-0.3,2.8-0.5,4.2-0.8c3.5-0.9,6.8-1.1,10-1.3c0.5,0,0.9-0.1,1.4-0.1
		c2.4-0.3,4.7-0.4,7.2-0.4c2.8,0,5.3,0.2,7.4,0.3c0.6,0,1.1,0.1,1.7,0.1c3.9,0.2,5.9,0.4,5.9,0.4l1,0.1l4-16.1L510.9,46.8z"/>
	<path class="st0" d="M248.5,44.9c-0.5-0.1-1-0.3-1.6-0.5c-4.2-1.2-9.9-3-17.2-3.8l-1.3-0.2c-3.5-0.6-7.5-1.2-11.9-1.2
		c-0.2,0-0.5,0-0.7,0h-0.1c-1.5,0-2.9-0.1-4.5-0.1c-1.7-0.1-3.4-0.1-5.1-0.1c-2.6,0-4.7,0.1-6.7,0.4c-1.4,0.2-2.9,0.3-4.4,0.4
		c-4.6,0.4-9.4,0.9-14.3,2.1l-10,2.2c-2.3,0.6-4.5,1.3-6.8,2.1c-1.1,0.4-2.3,0.8-3.4,1.1c-12.7,3.9-26.2,10.5-42.7,20.6l-0.1,0.1
		c-1.9,1.4-3.8,2.7-5.8,4.1c-5,3.5-10.3,7.1-15,11.4c-1.1,0.9-2.2,1.9-3.3,2.8c-2.3,1.9-4.6,3.9-6.9,6l-9.6,9.6
		c-3.4,3.3-6.5,6.9-9.4,10.4c-0.9,1.1-1.9,2.3-2.9,3.4c-2.1,2.4-4.2,4.9-6.2,7.6c-1.4,2.1-2.9,4.1-4.4,6.2
		c-4.1,5.7-8.3,11.5-11.8,17.8c-0.8,1.4-1.6,2.7-2.4,4.1c-1.7,2.8-3.4,5.7-5.1,8.8c-2.3,4.7-4.6,9.4-6.9,14.1
		c-0.3,0.7-0.7,1.4-1,2.1c-0.8,1.7-1.7,3.5-2.3,5l-2.5,6.1l-2.5,6.1l-1.8,4.3l-0.2-0.2l-0.5,1.9c0,0.2-0.2,0.6-0.4,1.6
		C11.1,218.5,5.1,239,2.6,260.2c-1.3,7.5-1.7,15.3-2.1,22.7c-0.1,2.5-0.3,5.1-0.4,7.7c-0.1,3.5,0,7.1,0.1,10.6
		c0,1.5,0.1,3.1,0.1,4.6c0.1,4.7,0.2,10,0.8,15.2l0.5,4.4c0.4,3.5,0.8,7,1.1,10.5c0.5,3.5,1.2,7,1.9,10.4c0.3,1.4,0.6,2.9,0.8,4.3
		c1.2,7.4,3.4,14.6,5.5,21.6c0.7,2.3,1.4,4.7,2,7l0,0.1c7.4,20.8,15.5,37.5,24.7,51.1c0.8,1.3,1.7,2.5,2.5,3.7l0,0
		c3.3,5.7,7.3,10.9,11.9,15.6c14.6,14.9,34.2,23.1,55.1,23.1c16.1,0,31.4-4.9,44.5-14.1c20.5-14.5,32.7-38.1,32.7-63.1
		c0-42.6-34.7-77.3-77.3-77.3c-0.2,0-0.4,0-0.7,0c-0.2-0.5-0.4-0.9-0.7-1.4c-0.8-1.6-1.5-3.3-2.2-4.9c-1-2.9-2-5.9-3.1-8.9
		c-1.1-2.6-1.8-5.4-2.5-8.4l-0.2-0.8c-0.3-1.3-0.6-2.6-1-3.8c-0.5-1.9-1-3.9-1.4-5.8c-0.3-2.2-0.7-4.5-1.1-6.6
		c-0.8-4.5-1.6-9.1-1.8-13.8l0,0l0,0c-1.7-14.2-0.7-29.4,0.4-43.7l-0.1,0l0.9-4.9l2.3-12.9c0.2-1.2,0.5-2.2,0.7-3.2
		c0.2-0.6,0.3-1.3,0.5-2l2.3-10.1c0.6-2.1,1.3-4.4,2.1-6.6c0.4-1.3,0.9-2.7,1.3-4.1c1.4-4.9,3.4-9.6,5.3-14.1
		c0.9-2.2,1.9-4.4,2.7-6.6c0.9-2.1,2-4.1,3-6.1c0.6-1.2,1.3-2.5,1.9-3.7l0.1-0.2c1.6-3.1,3.2-6.4,5.2-9.2c1.9-3.1,3.8-6.1,5.7-9.1
		c1.2-1.8,2.6-3.6,3.9-5.3c0.8-1,1.6-2.1,2.4-3.2c2.6-3.9,5.8-7.2,8.8-10.5c1.5-1.6,3-3.2,4.4-4.9c11.4-11,20.4-18.2,29.1-23.2
		c0.9-0.5,1.9-1.1,2.8-1.7c1.6-1,3.1-1.9,4.6-2.7l7.5-3.5c3.3-1.8,6.8-2.9,10.1-3.9c1.3-0.4,2.7-0.9,4.1-1.4c3-1.2,5.9-1.7,8.8-2.2
		c1.5-0.3,2.8-0.5,4.2-0.8c3.5-0.9,6.8-1.1,10-1.3c0.4,0,0.9-0.1,1.4-0.1c2.4-0.3,4.7-0.4,7.2-0.4c2.8,0,5.3,0.2,7.4,0.3
		c0.6,0,1.1,0.1,1.7,0.1c3.9,0.2,5.9,0.4,5.9,0.4l1,0.1l4-16.1l-1.1-0.3C254.9,46.8,252.7,46.1,248.5,44.9z"/>
</g>
</svg>
