<?xml version="1.0" encoding="UTF-8"?><svg id="_レイヤー_2" xmlns="http://www.w3.org/2000/svg" viewBox="0 0 175.86 77.45"><defs><style>.cls-1{fill:#424242;}</style></defs><g id="_Шар_1"><g id="_40"><path class="cls-1" d="m32.56,35.31c-.1-2.07-.19-3.95-.28-5.82-.1-2.01-.29-4.02-.28-6.04.03-3.8,2.04-6.85,3.93-9.94,1.98-3.24,4.87-5.62,7.68-8.07.64-.56,1.26-1.16,2-1.84,3.47-.89,7.07-1.84,10.69-2.73.87-.21,1.79-.27,2.69-.32,4.22-.21,8.43-.46,12.65-.54,1.94-.04,3.89.27,5.84.48,4.64.5,9.07,1.9,13.48,3.35.35.11.71.2,1.07.27,3.46.62,6.37,2.52,9.09,4.49,2.47,1.79,3.66,4.58,3.17,7.75-.25,1.59-.34,3.1-.09,4.71.3,1.91.24,3.88.36,6.22,3.13-3.12,5.4-6.58,8.25-9.46.69-.2,1.34-.38,1.91-.54,2.42.58,3.53,2.18,3.84,4.39-.28,3.02-2.03,5.19-3.84,7.38-2.03,2.46-3.93,5.03-6.19,7.95,1.09.02,1.71.04,2.33.04,3.47,0,6.95-.04,10.42-.01,2.32.02,4.64.15,6.96.21,2.7.07,5.35.4,7.87,1.46.67.28,1.4.42,2.13.64,1.36,1.89,1.54,4.04,1.46,6.42,1.08.31,2.16.7,3.28.93,4.12.87,8.24,1.75,12.38,2.52,2.7.51,5.44.81,8.15,1.26,2.83.46,5.65,1.02,8.49,1.46,1.33.21,2.4.84,3.5,1.67.52,2.41.52,4.8-.36,7.19-1.87,1.66-4.26,2.02-6.53,2.6-3.02.78-6.1,1.33-9.13,2.06-1.76.42-3.47,1.03-5.22,1.51-3.65,1.01-7.31,1.94-10.94,3.01-2.92.86-5.82,1.7-8.89,2-1.97.19-3.88.95-5.84,1.35-2.25.47-4.53.83-6.65,1.21-1.99.55-3.82,1.21-5.71,1.56-2.93.55-5.89.99-8.86,1.3-2.62.27-5.22-.18-7.81-.67-2.09-.39-4.22-.62-6.32-.97-3-.49-6-.99-8.98-1.56-4.2-.79-8.38-1.68-12.58-2.45-5.16-.95-10.38-1.63-15.49-2.76-7.86-1.73-15.88-2.76-23.58-5.21-1.68-.53-3.46-.76-5.19-1.12-2.21-.46-4.42-.92-6.64-1.35-1.9-.37-3.82-.65-5.72-1.03-2.09-.42-4.17-.91-6.26-1.36-.65-.14-1.32-.21-1.97-.35-1.94-.43-3.88-.88-5.66-1.29-1.48-2.11-1.52-3.96-.29-6.94,1.29-1.28,2.83-1.95,4.65-2.27,2.63-.47,5.21-1.25,7.82-1.9,1.78-.44,3.56-.86,5.34-1.31.34-.08.65-.24.97-.67-.98-.19-1.97-.4-2.96-.58-3.35-.6-6.71-1.17-10.07-1.78-1.81-.33-3.56-.7-4.69-2.48-.7-1.1-1-2.3-.96-3.45.09-2.27.38-4.6,3.36-5.25-.06-.13-.12-.25-.18-.38,1.57.14,3.15.18,4.7.43,2.23.36,4.44.86,6.66,1.31,2.4.48,4.8.96,7.19,1.47,1.37.29,2.71.72,4.08.97,1.83.34,3.68.57,5.77.89Zm81.25,12.72c.29-.03.78-.18.85-.08.51.83,1.38.77,2.11.83,1.47.11,2.96.03,4.54.03.44-.22.98-.48,1.56-.77.66.38,1.29.75,1.85,1.08,2.29-.39,4.49-.77,6.61-1.14.77-.35,1.49-.67,2.32-1.04.67-1.35,2.96-1.54,3.14-3.75-2.34-3.24-5.49-3.3-9.06-1.8-.16-.44-.29-.82-.45-1.25-1.35-.17-2.71-.34-4.08-.51-.06.56-.1.97-.18,1.78-.45-.76-.67-1.15-.97-1.65-.7.38-1.32.72-2.03,1.11-.05-.48-.09-.8-.14-1.36h-7.88c-.14.24-.27.47-.29.5-1.66-.48-3.2-.27-4.75-.1-1.18,1.7-2.33,3.35-3.44,4.96.25.46.46.83.8,1.45-.69-.2-1.07-.31-1.58-.46-.22.46-.4.86-.58,1.24,1,.61,1.69.15,2.3-.41.31.38.53.66.71.89,1.05.16,2.01.35,2.98.46,1.64.19,3.28.34,4.93.48.34.03.78.14.72-.48h0Zm-17.77-5.3c.21-.26.41-.52.63-.79-.34-.28-.58-.48-1.05-.87h1.69c1.08-2.18,2.22-4.39,3.29-6.64.47-.98,1.08-2.02,1.11-3.05.11-3.52.2-7.07-.13-10.57-.19-2.06-.47-4.04.12-6.05.08-.28.01-.6.01-1.05-.35-.28-.77-.6-1.21-.96-.97.46-1.9.79-2.72,1.31-1.02.65-1.94,1.45-2.96,2.23-.56,2.19-2.51,3.88-2.46,6.39.3.64.61,1.29.92,1.95-2.37,7.21-2.03,14.57-1.75,21.91.38.29.71.54,1.15.88-.36.19-.61.31-.89.46-.01.92-.64,1.99.54,2.65.94-1.84,1.88-3.63,2.77-5.43.37-.76.63-1.57.93-2.36h0Zm-73.71,11.78l-.05.07c.73,0,1.48-.09,2.19.02,3.48.56,6.95,1.16,10.43,1.76,5,.87,10,1.75,14.99,2.65,2.16.39,4.31.87,6.47,1.27,1.68.32,3.39.52,5.06.88,3.4.74,6.78,1.58,10.18,2.33,2.14.47,4.29.91,6.46,1.27,2.34.38,4.71.64,7.06.97,2.79.4,5.57.79,8.35,1.24,2.9.46,5.79,1.01,8.69,1.47,1.92.3,3.84.63,5.82.38,4.3-.55,8.51-1.56,12.74-2.45,1.51-.32,2.93-1.38,4.59-.6.35-1.05,1.12-.28,1.57-.53,2.57-1.43,5.54-1.25,8.27-2.1,3.29-1.02,6.73-1.56,10.1-2.34,2.98-.69,5.95-1.43,8.93-2.12,2.56-.59,5.13-1.13,7.68-1.72,2.78-.64,5.56-1.31,8.33-1.99,1.07-.27,2.2-.44,3.28-1.38-.76-.26-1.31-.51-1.88-.62-1.91-.38-3.84-.7-5.75-1.08-1.31-.26-2.6-.77-3.92-.84-2.54-.14-5.03-.43-7.51-.99-3.5-.79-7.03-1.48-10.55-2.18-1.67-.33-3.35-.61-5.03-.92-1.04,1.19-2.06,2.25-2.95,3.41-2.5,3.25-6.11,4.75-9.7,6.28-3.25,1.39-6.71.98-10.09.92-3.26-.06-6.52-.41-9.78-.64-2.13-.15-4.27-.27-6.4-.49-.89-.09-1.75-.43-2.67-.67-.29-.83-.54-1.57-.82-2.36-.86-.2-1.74-.41-2.57-.61-3.07,1.59-5.17,1.97-8.14,1.6-2.04-.25-4.05-.86-6.14-.42-.29.06-.61,0-.92-.03-2.61-.22-5.19-.76-7.83-.39-.35.05-.72-.09-1.09-.12-2.13-.16-4.26-.35-6.39-.46-3.1-.15-6.2-.18-9.3-.37-3.73-.22-7.46-.42-11.17-.87-4.27-.52-7.32-2.67-8.47-7.08-.68-2.59-1.14-5.24-1.72-7.98-9.09-1.85-18.25-3.71-26.98-5.48-1.48.37-2.3.81-2.39,2.08.82,1.15,2.1,1.59,3.4,1.92,2.67.68,5.35,1.3,8.04,1.86,3.53.74,7.07,1.38,10.6,2.12,2.06.43,2.59,1.27,2.33,3.42-.92,1.19-2.14,1.9-3.71,2.05-.61.06-1.2.24-1.79.4-1.93.52-3.86,1.09-5.8,1.57-2.78.69-5.58,1.29-8.36,1.96-1.38.33-2.74.71-4.11,1.07,5.48,2.31,11.34,2.69,16.87,4.48-.97.17-1.91.14-2.82-.03-2.01-.39-4-1.03-6.03-1.23-2.33-.22-4.52-.97-6.78-1.42-1.11-.22-2.24-.31-3.3-.45-.32.74-.53,1.25-.77,1.81.26,1.01-.24,2.18.69,3.33,2.9.74,5.93,1.62,9.02,2.28,3.34.71,6.73,1.2,10.09,1.83,2.94.55,5.9,1.07,8.81,1.76,5.4,1.28,10.75,2.72,16.21,3.74,6.68,1.26,13.32,2.69,19.98,4.02,2.16.43,4.34.74,6.49,1.16,5.28,1.02,10.53,2.16,15.82,3.09,4.16.73,8.37,1.17,12.54,1.83,1.57.25,3.11.55,4.74.19,1.02-1.82.08-3.8.62-5.72-.46-.14-.79-.27-1.13-.34-3.73-.68-7.44-1.41-11.18-2.02-4.52-.74-9.06-1.35-13.58-2.08-4.1-.66-8.2-1.32-12.27-2.11-5.09-.99-10.14-2.16-15.22-3.16-3.12-.61-6.29-.99-9.41-1.57-6.37-1.17-12.72-2.4-19.08-3.64-.67-.13-1.51-.05-1.85-.91Zm84.64,21.52c.27.05.44.11.61.12,3.23.18,6.29-.8,9.39-1.41,4.54-.88,9.04-1.98,13.56-2.99,3.58-.79,7.17-1.52,10.73-2.4,2.9-.71,5.76-1.62,8.65-2.4,3.36-.9,6.74-1.74,10.12-2.6,3.43-.88,6.87-1.71,10.28-2.64,1.28-.35,2.51-.91,3.72-1.37.45-1.92,1.12-3.64.43-5.61-.81.26-1.53.55-2.28.72-3.17.76-6.39,1.29-9.54,2.18-5.75,1.62-11.56,3.02-17.38,4.4-4.85,1.15-9.74,2.16-14.62,3.22-2.86.62-5.75,1.11-8.58,1.83-3.72.94-7.44,1.89-11.25,2.4-1.25.17-2.47.52-3.85.82v5.71ZM2.47,34.34c-.86,3.82.2,5.49,3.76,6.15,4.36.81,8.73,1.61,13.09,2.45.81.16,1.58.52,2.59.86,1.52-.49,3.76-.03,4.72-2.28-.57-.9-1.39-1.1-2.23-1.28-3.88-.83-7.8-1.47-11.61-2.53-3.48-.96-7.34-.73-10.31-3.37Zm40.07-16.05c2.05-.18,4.11-.25,6.14-.57,3.07-.49,6.14-.57,9.23-.43,2.74.12,5.47.27,8.2.48,2.01.16,4.02.32,6,.69,2.7.5,5.38,1.09,8.03,1.82,2.8.78,5.72,1.21,8.36,2.72.97-.38,1.07-1.15.97-2.07-3.26-1.25-6.47-2.42-9.88-2.96-.96-.15-1.91-.42-2.86-.64-6-1.42-12.03-2.41-18.23-1.75-1.15.12-2.32.07-3.48.13-1.88.1-3.78-.03-5.55.92-.61.33-1.55.61-2.1.37-2-.87-3.25.72-4.83,1.28Zm80.79,32.31c0,.13,0,.27,0,.4.95,0,1.91.1,2.84-.02,2.78-.34,5.52-.86,8.19-1.74,1.64-.54,4.24-3.1,4.33-4.61.09-1.52-.28-2.98-.79-4.27-2.81-1.34-5.64-1.81-8.74-2.11.48,1.2,1.39.99,2.07,1.05,2.05.17,3.96.71,5.69,2.04.34.68.71,1.43,1.09,2.19-.47.84-.7,1.83-1.32,2.28-1.94,1.39-3.68,3.14-6.28,3.46-2.37.29-4.71.87-7.06,1.32Zm4.64-11.55c.03-.15.06-.3.09-.46-.34-.13-.67-.37-1.02-.38-2.13-.1-4.26-.14-6.39-.21-2.08-.07-4.16-.25-6.23-.19-1.97.06-3.94.37-5.9.57,3.26.25,6.52-.03,9.72.33,3.27.37,6.5-.35,9.73.34Zm-6.23,11.86c.03-.21.06-.42.09-.64-1.6-.59-3.34-.14-4.99-.4-1.73-.28-3.49-.31-5.24-.48-1.69-.16-3.39-.33-5.07-.57-3.22-.45-3.87-.47-5.13.09,6.87.68,13.61,1.34,20.34,2Zm-28.2-34.28c-.12-.06-.23-.12-.35-.18-.24.31-.55.58-.71.92-.58,1.26-1.2,2.47-1.65,3.81-.54,1.6-.8,2.88.25,4.12v2.54c.07,0,.14.02.21.03.29-.97.57-1.93.88-2.97-.31-.69-.63-1.41-1.11-2.48.76-1.76,1.62-3.77,2.48-5.78Zm10.91,13.71c2.43-2.5,5.02-4.89,6.18-8.33-2.27,2.61-4.79,5.04-6.18,8.33Zm7.2.46c-.39-1.35-1.59-1.52-2.51-2.01-1.06-.58-1.29-.43-1.91.82,1.23.68,2.45,1.37,3.75,2.09.22-.3.47-.63.67-.89Zm-9.29-18.24c-.25-1.17-.29-1.29-.95-1.29-1.79,0-3.59.18-5.04,1.33-.85.67-1.93,1.23-2.38,2.77,2.39-1.56,4.22-3.47,6.94-3.66.45.27.91.54,1.43.85Zm-12.33,36.06h.37v-9.9c-.12,0-.24,0-.37,0v9.9Zm2.41,3.5c-.76-.67-1.38-1.22-2.02-1.79.09.84-.16,1.78.73,2.51.42-.24.83-.46,1.29-.72Zm10.65-37.33c-.86,1.2-.63,2.38-.72,3.5.52-1.02,1.14-2.02.72-3.5Zm-.24,12.86c.41-1.31.77-2.76,0-4.18v4.18Zm.04-4.81q.36-1.67-.35-2.42c.1.66.19,1.31.35,2.42Zm-12.4,8.27c.13,0,.27,0,.4,0,.03-.53.07-1.07.1-1.6l-.28-.03c-.07.54-.15,1.08-.22,1.62Zm-.07,2.97h.17v-1.87c-.06,0-.12,0-.17,0v1.87Z"/><path class="cls-1" d="m22.32,54.51c-.26.08-.52.16-.78.24,0-.12,0-.25.01-.37.24.07.48.13.72.2l.05-.07Z"/><path class="cls-1" d="m9.36,32.49c.17.83.27,1.29.36,1.75-.62.65-1.31.72-2.03.48-1.29-.42-1.7-.33-1.5-1.92.97-.1,1.99-.2,3.17-.31Z"/><path class="cls-1" d="m99.19,29.31c-.2-.15-.39-.3-.59-.46.05-.09.09-.17.14-.26.24.11.48.21.72.32-.09.13-.18.26-.27.39Z"/><path class="cls-1" d="m93.03,40.33c-.24-.13-.47-.27-.71-.4.05-.1.09-.21.14-.31.26.09.51.18.77.28l-.2.43Z"/><path class="cls-1" d="m97.09,31.25c.26.06.52.11.78.17-.03.12-.06.24-.09.36-.25-.07-.51-.15-.76-.22l.08-.32Z"/><path class="cls-1" d="m94.07,28.95c-.15.24-.29.47-.44.71-.09-.04-.19-.08-.28-.13.07-.26.15-.52.22-.78.17.07.33.13.5.2Z"/><path class="cls-1" d="m94.08,24.32c.03-.25.06-.5.08-.75.11,0,.22,0,.33,0v.79c-.14-.02-.27-.03-.41-.05Z"/><path class="cls-1" d="m97.13,37.69c.14.11.32.23.31.25-.07.14-.18.26-.27.38-.09-.07-.27-.16-.26-.22.03-.14.14-.27.22-.41Z"/><path class="cls-1" d="m99.53,20.19c.04.22.09.43.13.65-.1.02-.2.04-.3.06-.04-.22-.09-.43-.13-.65.1-.02.2-.04.3-.06Z"/><path class="cls-1" d="m96.64,24.67c-.54.23-.74.3-.95.4q-.03-.67.95-.4Z"/><path class="cls-1" d="m96.03,42.73c-.35.14-.59.92-1.26.08.52-.03.89-.05,1.26-.07h0Z"/><path class="cls-1" d="m92.6,45.59c.42.02.67.04.91.05.02.08.03.16.05.24-.18.09-.36.22-.55.24-.09,0-.19-.23-.41-.53Z"/><path class="cls-1" d="m96.4,40.44c-.22-.32-.37-.53-.5-.73.14-.13.19-.17.23-.21.13-.13.26-.26.38-.38.03.23.1.45.09.68,0,.16-.1.32-.2.64Z"/><path class="cls-1" d="m126.79,40.53c-.02.45-.04.89-.06,1.45h-1.43c.52-.7.86-1.15,1.2-1.61.1.05.2.11.3.16Z"/><path class="cls-1" d="m121.65,45.78c.34.48.68.97,1.26,1.78-1.11-.35-1.44-.87-1.68-1.47.14-.1.28-.21.42-.31Z"/><path class="cls-1" d="m106.29,45.29c.63.59,1.01.95,1.53,1.43q-.93-.01-1.53-1.43Z"/><path class="cls-1" d="m127.43,47.7c-.38.1-.76.21-1.2.33-.04-.24-.15-.47-.08-.57.38-.54.82-.54,1.29.24Z"/><path class="cls-1" d="m117.95,44.3c.39.44.54.6.8.89-.38.31-.63.5-.88.7-.09-.04-.18-.09-.28-.13.09-.36.18-.72.36-1.46Z"/><path class="cls-1" d="m129.63,46.51c-.02-.38-.05-.77-.09-1.37.86.5.73.92.09,1.37Z"/><path class="cls-1" d="m127.7,44.42c.29.57.42.82.64,1.25-.5-.04-.77-.06-1.25-.1.19-.36.31-.59.61-1.16Z"/><path class="cls-1" d="m126.39,44.63v1.32q-.62-.48,0-1.32Z"/><path class="cls-1" d="m123.68,47.55c.13-.6.18-.86.25-1.18q.64.55-.25,1.18Z"/><path class="cls-1" d="m107.82,41.92c-.3-.08-.59-.15-1.28-.33.57-.28.78-.45,1-.47.23-.02.47.12.7.18-.14.2-.29.41-.43.61Z"/><path class="cls-1" d="m132.17,45.58c1.02,0,.98.39.59,1.14-.23-.44-.38-.73-.59-1.14Z"/><path class="cls-1" d="m133.28,41.98c-.26-.07-.52-.15-.77-.22l.09-.33c.26.07.52.14.78.2-.03.12-.06.23-.1.35Z"/><path class="cls-1" d="m107.05,44.05c-.27-.21-.55-.42-.82-.63.08-.11.16-.22.24-.34.28.21.57.41.85.62-.09.12-.18.24-.27.35Z"/><path class="cls-1" d="m110.33,47.71c.37-.46.54-.68.74-.94q.24.76-.74.94Z"/><path class="cls-1" d="m112.39,42.08c.25.05.49.11.74.16-.01.09-.02.18-.03.27h-.77c.02-.14.04-.29.06-.43Z"/><path class="cls-1" d="m115.66,43.07c-.26-.3-.39-.46-.73-.85.49.08.71.11.92.14-.05.18-.1.37-.2.71Z"/><path class="cls-1" d="m119.27,42.1c.21.06.42.11.62.17-.02.09-.04.18-.06.28-.21-.04-.42-.08-.63-.12l.07-.32Z"/><path class="cls-1" d="m109.47,46.63c-.11-.21-.22-.41-.34-.62.09-.06.17-.12.26-.18.15.19.3.37.46.56-.13.08-.25.16-.38.24Z"/><path class="cls-1" d="m108.63,43.18c.24.4.37.6.49.81-.07.07-.13.14-.2.22-.16-.1-.37-.17-.46-.31-.06-.09.06-.3.17-.71Z"/><path class="cls-1" d="m131.99,44.39c-.02-.21-.03-.43-.05-.64.09-.02.18-.04.27-.06.06.22.12.44.19.67-.14.01-.27.03-.41.04Z"/><path class="cls-1" d="m114.53,43.84c-.04.21-.08.41-.12.62-.1-.02-.2-.04-.3-.05.03-.21.07-.42.1-.62.11.02.21.04.32.06Z"/><path class="cls-1" d="m119.92,47.71c-.51-.1-.76-.14-1.02-.19,0-.09,0-.19,0-.28.18-.04.37-.15.53-.11.12.03.21.23.5.59Z"/><path class="cls-1" d="m113.8,48.01c-.16-.37-.33-.74-.52-1.17.92.12.26.85.53,1.18,0,0,0-.01,0-.01Z"/></g></g></svg>