  <svg class="logo" xmlns="http://www.w3.org/2000/svg" width="50" height="79" viewBox="0 0 65.434 103">
    <g id="_97" data-name="97" transform="translate(-1335.378 -1176.75)">
      <path
        id="パス_1"
        data-name="パス 1"
        d="M1398,1204.272a24.186,24.186,0,0,1,.528,6.543c-.132,2.153-.071,4.317-.118,6.475-.014.612-.113,1.221-.167,1.832-.121,1.35-.234,2.7-.357,4.051a57.355,57.355,0,0,1-1.243,7.376,8.366,8.366,0,0,1,1.444,2.785,2.558,2.558,0,0,1-1.132,2.739c-.417.245-.817.516-1.234.761a2.509,2.509,0,0,1-.759.37,1.492,1.492,0,0,0-1.276,1.014,8,8,0,0,1-.379.792,2.94,2.94,0,0,0,.238.434,6.963,6.963,0,0,1,1.139,3.345,1.254,1.254,0,0,1-.161.834,5.168,5.168,0,0,1-2.33,2.357,3.338,3.338,0,0,0-.648.417,3.242,3.242,0,0,1-2.081.655,2.307,2.307,0,0,0-2.124.884,18.513,18.513,0,0,1-5.073,3.991,23.5,23.5,0,0,1-4.039,1.854,29.185,29.185,0,0,1-4.962,1.252c-.34.065-.676.154-1.068.245.14.645.221,1.219.392,1.764a38.06,38.06,0,0,1,1.057,4.387,12.5,12.5,0,0,0,.67,2.006q.556,1.482,1.156,2.95a1.548,1.548,0,0,0,1.054.992,18.59,18.59,0,0,1,4,1.684,6.009,6.009,0,0,1,2.836,7.258,3.405,3.405,0,0,1-2.485,2.1,18.735,18.735,0,0,1-4.552.9.794.794,0,0,0-.193.014c-1.853.625-3.762.378-5.655.356-.935-.01-1.875,0-2.8-.1-1.148-.127-2.284-.362-3.425-.553a3.646,3.646,0,0,0-.374-.091,34.024,34.024,0,0,1-4.525-.983c-2.81-.559-5.213-2.007-7.661-3.369-.367-.2-.746-.384-1.115-.584a6.969,6.969,0,0,1-2.777-2.344c-.269-.429-.669-.739-.649-1.325a4.532,4.532,0,0,1,.648-2.851c.5-.63,1.089-1.191,1.648-1.773.669-.694,1.367-1.359,2.019-2.068a6.663,6.663,0,0,0,1.758-4.194c.109-1.74.121-3.486.2-5.229.039-.864.13-1.726.2-2.616-.539-.262-1.052-.524-1.576-.764a20.466,20.466,0,0,1-4.488-3.146c-1.041-.869-2.119-1.7-3.107-2.625a15.96,15.96,0,0,1-1.591-1.933c-.354-.458-.674-.944-1-1.423a6.065,6.065,0,0,1-1.32-2.531c-.016-.116-.129-.22-.2-.325a18.73,18.73,0,0,1-1.582-3.193c-.895-2-1.131-4.169-1.841-6.209a1.691,1.691,0,0,1-.1-.572,15.59,15.59,0,0,0-.521-3.341,42.893,42.893,0,0,1-.793-6.422c-.058-1.192-.147-2.388-.109-3.579a31.484,31.484,0,0,1,.465-5.968c.177-.782.188-1.6.288-2.4a28.375,28.375,0,0,1,1.041-4.521c.44-1.481.832-2.977,1.247-4.465a1.5,1.5,0,0,1,.191-.543,10.109,10.109,0,0,0,1.092-2.46,21.461,21.461,0,0,1,.992-1.987c.486-.833,1-1.651,1.561-2.438.706-1,1.47-1.957,2.2-2.939a23.086,23.086,0,0,1,3.174-3.5.943.943,0,0,0,.29-.372,1.182,1.182,0,0,1,.969-.828,1.71,1.71,0,0,0,.653-.408,23.171,23.171,0,0,1,3.244-2.106,21.526,21.526,0,0,1,5.257-2.141c1.268-.37,2.518-.818,3.805-1.1a11.676,11.676,0,0,1,2.866-.427c.673.02,1.349-.135,2.026-.167a16,16,0,0,1,4.434.364c1.1.258,2.208.475,3.311.721a25.487,25.487,0,0,1,4.167,1.523,34.949,34.949,0,0,1,4.594,2.66,23.758,23.758,0,0,1,3.3,2.175c1.124.968,2.208,1.983,3.284,3a1.792,1.792,0,0,0,.807.464,16.351,16.351,0,0,1,2.363.831,6.906,6.906,0,0,1,1.334.948.978.978,0,0,1,.327.47,4.076,4.076,0,0,1,0,2.934c-.176.372-.3.77-.432,1.136.345.667.693,1.316,1.017,1.977a1.114,1.114,0,0,0,.69.615c.936.324,1.872.662,2.77,1.076a13.061,13.061,0,0,1,1.634,1.021,1.171,1.171,0,0,1,.456,1.017,3.517,3.517,0,0,1-1.124,2.779C1399.118,1203.061,1398.575,1203.656,1398,1204.272Zm-16.813,14.97-1.173-.884c.061.716.618.791,1.093.97a2.432,2.432,0,0,0,1.631,1.018Zm18.237-17.6c-.586.494-1.177.984-1.757,1.484a6.722,6.722,0,0,0-1.686,1.6c.341-.186.62-.463.953-.635a10.354,10.354,0,0,0,2.3-2.039c.1-.1.111-.288.164-.435.137-.074.351-.116.4-.229a2.642,2.642,0,0,0,.282-2.012c-.014-.038-.1-.049-.2-.092a3.4,3.4,0,0,1-.241,1.741C1399.565,1201.236,1399.494,1201.442,1399.42,1201.647Zm-5.269,4.444a1.56,1.56,0,0,0-.444.124c-.916.591-1.825,1.194-2.73,1.8a2.718,2.718,0,0,0-.352.4,2.564,2.564,0,0,0,.451-.113c.7-.4,1.412-.766,2.069-1.22a7.125,7.125,0,0,0,.988-1.009c.288.03.432-.152.669-.444C1394.422,1205.716,1394.232,1205.829,1394.151,1206.092Zm-1.063,30.02a2.275,2.275,0,0,0,1.376-1.069c.362-.937,1.052-1.766.995-2.87-.028-.555.054-.559-.687-.842-.132.5-.268.983-.391,1.473a18.113,18.113,0,0,1-1.272,3.329c-.2.406-.41.806-.587,1.221-.229.536-.217.541.375,1A1.944,1.944,0,0,0,1393.088,1236.112Zm-40.627-37.225a1.393,1.393,0,0,0-.688-1.236c-.424-.289-.821-.618-1.237-.92-.964-.7-1.893-1.464-2.91-2.078a7.316,7.316,0,0,0-3.308-1,2.135,2.135,0,0,0-2.178,1.112,25.784,25.784,0,0,0-1.6,3.507,54.813,54.813,0,0,0-1.759,5.209c-.176.643-.274,1.307-.411,1.961a19.982,19.982,0,0,0-.56,2.736,45.839,45.839,0,0,0-.484,6.058c.056.863-.1,1.739-.051,2.6.116,1.9.289,3.792.471,5.683a23.561,23.561,0,0,0,.634,4.012,15.78,15.78,0,0,1,.349,2.39c.013.113-.136.243-.211.365-.125-.079-.292-.131-.362-.244a1.193,1.193,0,0,1-.1-.467c-.219-1.7-.433-3.392-.653-5.088-.129-.987-.3-1.97-.394-2.96-.131-1.313-.222-2.631-.306-3.948-.02-.316.078-.639.081-.959.012-1.156-.032-2.316.016-3.47a54.947,54.947,0,0,1,.757-5.537,36.075,36.075,0,0,1,1.7-6.718c.52-1.487,1.176-2.927,1.766-4.39a1.008,1.008,0,0,0,.024-.276l-.717.055c-.564,1.4-1.12,2.808-1.691,4.206a33.768,33.768,0,0,0-1.645,6.145c-.438,2.172-.679,4.388-.927,6.594a32.1,32.1,0,0,0-.1,5.885c.094,1.32.136,2.647.322,3.954.257,1.819.645,3.618.942,5.432a30.9,30.9,0,0,0,.775,3.975,22.828,22.828,0,0,0,.8,2.786c.7,1.565,1.082,3.3,2.269,4.628a1.017,1.017,0,0,1,.147.357,17.943,17.943,0,0,0,2.44,4.018c.983,1.5,2.541,2.445,3.856,3.625.037.033.119.016.237.028.272-.52.029-.889-.364-1.221a18.761,18.761,0,0,1-3.447-4.035c-.483-.726-.94-1.469-1.4-2.209a2.574,2.574,0,0,0-1.142-1.134.931.931,0,0,1-.546-1.2,1.142,1.142,0,0,0-.158-.909c-.34-.728-.64-1.475-.922-2.228-.351-.933-.661-1.881-1-2.818a4.89,4.89,0,0,1-.395-1.534c.31-.063.535-.07.619.221s.122.571.222.841c.638,1.723,1.309,3.433,1.922,5.164a1.655,1.655,0,0,0,1.347,1.1,13.634,13.634,0,0,0,3.468.229,1.522,1.522,0,0,0,.544-.155,26.414,26.414,0,0,0,4.6-3,1.708,1.708,0,0,0,.283-.4c-.194-.083-.308-.13-.42-.18a6.12,6.12,0,0,1-1.559-.743,3.307,3.307,0,0,0-1.418-.77,10.882,10.882,0,0,1-3.268-1.653,24.313,24.313,0,0,1-2.869-2.594,8.324,8.324,0,0,1-2.2-2.9,3.221,3.221,0,0,1,.082-3.232c.105-.162.185-.34.287-.505a6.138,6.138,0,0,1,3.57-2.945,6.7,6.7,0,0,0,.9-.4c-.023-.3-.048-.551-.063-.8-.048-.831-.156-1.665-.123-2.493a25.038,25.038,0,0,1,.318-2.877,20.288,20.288,0,0,1,3.062-8.577,8.287,8.287,0,0,1,2.316-2.686,1.514,1.514,0,0,0,.36-.323,2.886,2.886,0,0,1,1.393-.829C1351.988,1199.034,1352.231,1198.96,1352.461,1198.887Zm.671-14.922a3.24,3.24,0,0,1,2.68-1.488.637.637,0,0,0,.267-.111.781.781,0,0,1,.959.171,10.251,10.251,0,0,1,3.57,4.579,1.476,1.476,0,0,0,.184.34,10.532,10.532,0,0,1,1.146,2.54c.465,1.328.909,2.662,1.368,4.011a1.8,1.8,0,0,0,.3-.131,32.576,32.576,0,0,1,4.116-2.338,11.529,11.529,0,0,1,3.358-1.213c1.339-.21,2.682-.406,4.029-.552a5.707,5.707,0,0,1,2.951.359,18.694,18.694,0,0,0,1.883.713,24.508,24.508,0,0,1,5.2,2.494,5.28,5.28,0,0,1,1.731,1.526,6.5,6.5,0,0,0,.573.644,10.892,10.892,0,0,1,4-.546c.506-.372.336-.782.07-1.185a44.837,44.837,0,0,0-2.739-4.083,16.906,16.906,0,0,0-2.377-2.782,9.452,9.452,0,0,1-1.343-1.076,7.416,7.416,0,0,0-1.742-1.358,44.96,44.96,0,0,0-6.385-3.628,17.3,17.3,0,0,0-4.5-1.384,16.318,16.318,0,0,1-2.636-.516,11.249,11.249,0,0,0-4.8-.2c-1.193.165-2.4.4-3.585.689a29.488,29.488,0,0,0-7.249,2.919c-.558.3-1.086.664-1.687,1.036Zm1.034,68.024c-.078.774-.216,1.534-.221,2.294q-.022,3.62-.21,7.233a27.487,27.487,0,0,1-.475,3.641,7.8,7.8,0,0,1-.372,1.3c-.092.246-.308.311-.563.092.166-.611.367-1.219.49-1.842a2.82,2.82,0,0,0,.1-1.849c-1.01,1.089-1.988,2.156-2.981,3.211a1.133,1.133,0,0,0-.155,1.708,5.6,5.6,0,0,0,1.871,1.79,29.528,29.528,0,0,0,3.827,1.846,16,16,0,0,0,2.9.74,31.127,31.127,0,0,0,3.442.505,7.517,7.517,0,0,0,4.14-.766,1.549,1.549,0,0,0,.947-1.228,5.023,5.023,0,0,0-.094-2.3c-.366-1.1-.68-2.209-1.129-3.289a22.764,22.764,0,0,1-1.023-3.633c-.483-2.1-.911-4.2-1.372-6.359-.12-.04-.3-.112-.486-.16-1.811-.464-3.621-.938-5.438-1.378a3.615,3.615,0,0,1-1.768-.947A1.962,1.962,0,0,0,1354.166,1251.989Zm20.662-10.884c.467-.061.884-.085,1.288-.173.725-.158,1.439-.362,2.162-.53a14.418,14.418,0,0,0,4.206-1.691c.883-.532,1.713-1.153,2.561-1.741a2.312,2.312,0,0,0,.346-.337c.352-.375.708-.746,1.047-1.132s.776-.7.779-1.276c-.581-.7-1.157-1.387-1.728-2.079q-1.75-2.118-3.5-4.24-1.786-2.16-3.579-4.314c-.485-.581-.584-.588-1.178-.158-.208.15-.4.328-.6.481a.649.649,0,0,1-.328.162,3.707,3.707,0,0,1-2-.153,3.059,3.059,0,0,0-.768-.188c-.306.4-.592.79-.887,1.169-.79,1.016-1.544,2.064-2.393,3.028a1.4,1.4,0,0,0-.218,1.743c.529,1.107,1.073,2.212,1.5,3.358.481,1.3,1.163,2.5,1.607,3.821C1373.618,1238.254,1374.228,1239.607,1374.828,1241.1Zm-20.517-26.51c-.534.328-.869.572-1.236.752a23.592,23.592,0,0,1-2.715,1.25c-1.3.445-2.666.72-3.984,1.131-.979.305-1.933.693-2.885,1.079a4.849,4.849,0,0,0-2.374,1.741,11.1,11.1,0,0,0-.808,1.2,3.9,3.9,0,0,0-.454,1.444,3.956,3.956,0,0,0,1.235,2.834c.865.951,1.794,1.847,2.733,2.728a10.442,10.442,0,0,0,4.244,2.6,4.879,4.879,0,0,1,.9.351c1.045.541,2.079,1.1,3.032,1.607l3.773-3.043c-.332-1.307-.682-2.477-.918-3.67a28.02,28.02,0,0,1-.634-6.146c.013-.509-.009-1.019,0-1.528.024-1.081.061-2.162.089-3.243C1354.317,1215.388,1354.311,1215.1,1354.311,1214.6Zm11.206,40.865a9.1,9.1,0,0,0,.3,2.578c.393,1.592.829,3.176,1.3,4.748a19.9,19.9,0,0,0,1.813,4.766,32.814,32.814,0,0,0,2.669,4.1,2.553,2.553,0,0,1,.7,2.3,4.412,4.412,0,0,1-.579.393c-.169.08-.38.069-.557.138a6.107,6.107,0,0,1-2.374.357,14.992,14.992,0,0,1-4.708-.346,2.651,2.651,0,0,0-.481-.047,13.385,13.385,0,0,1-1.816-.281,58.737,58.737,0,0,1-5.693-1.77,18.694,18.694,0,0,1-5.783-3.195,5.791,5.791,0,0,1-1.173-1.389c-.107-.184-.21-.369-.369-.649-.182.26-.419.447-.4.607a1.713,1.713,0,0,0,.348.776c.226.311.528.565.77.867a9.469,9.469,0,0,0,1.993,1.8,21.559,21.559,0,0,0,3,1.55,30.6,30.6,0,0,0,7.319,2.451c1.641.341,3.307.576,4.971.781a32.08,32.08,0,0,0,3.669.237,22.6,22.6,0,0,0,2.306-.264c1.412-.136,2.825-.254,4.239-.371a17.872,17.872,0,0,0,4.442-.927,2.814,2.814,0,0,0,1.526-1.265.632.632,0,0,0,.012-.726,7.28,7.28,0,0,0-2.331-2.77c-.5-.288-.975-.644-1.5-.884a14.646,14.646,0,0,0-2.606-.944.972.972,0,0,0,.937,1.09,4.846,4.846,0,0,1,.658.164,3.221,3.221,0,0,1,2.553,3.828c-1.069.626-1.559.509-2.2-.528-.017-.027-.023-.061-.041-.088-.439-.673-.89-1.34-1.317-2.021-.341-.543-.664-1.1-.974-1.658-.186-.336-.3-.717-.508-1.035a9.17,9.17,0,0,1-.958-1.992,40.035,40.035,0,0,1-1.843-5.595c-.268-1.321-.616-2.626-.948-3.933a6.956,6.956,0,0,0-.329-.867Zm-1.242-59.325c.266.885.5,1.719.772,2.537a1.427,1.427,0,0,0,.875.977,5.733,5.733,0,0,0,1.23.232,4.962,4.962,0,0,1,3.63,1.964,6.768,6.768,0,0,1,1.517,2.775,10.5,10.5,0,0,0,.36,1.147,6.651,6.651,0,0,0,1.162-1.465,5.98,5.98,0,0,1,.812-1.072c.515-.534,1.127-.981,1.6-1.544a12.4,12.4,0,0,1,2.693-2.332,20.222,20.222,0,0,1,5.349-2.892,5.609,5.609,0,0,0,.927-.467c-.075-.153-.094-.268-.161-.318a13.956,13.956,0,0,0-2.117-1.519,26.64,26.64,0,0,0-4.3-1.739,10.181,10.181,0,0,0-3.693-.5c-1.022.093-2.068.026-3.068.22a29.1,29.1,0,0,0-3.239.981,14.888,14.888,0,0,0-2.5,1.443A5.138,5.138,0,0,0,1364.275,1196.136Zm-9.967,17.82a1.945,1.945,0,0,0,.171-.715,19.093,19.093,0,0,1,.287-3.076,5.917,5.917,0,0,1,.215-1.135c.4-1.549.8-3.1,1.173-4.51-1.274-1.682-2.732-3.057-3.391-4.949a2.259,2.259,0,0,0-1.611.517c-.44.373-.89.734-1.33,1.107a12.365,12.365,0,0,0-2.312,3.3,22.433,22.433,0,0,0-1.154,2.644,23.082,23.082,0,0,0-1.142,4.369,17.11,17.11,0,0,0-.2,4.724,1.881,1.881,0,0,0,.28,1.117c.836-.2,1.656-.349,2.449-.592A26.716,26.716,0,0,0,1354.308,1213.955Zm14.375,5.713c-.839-1.55-.424-3.171-.561-4.75-.4-.107-.733-.2-1.074-.288a10.851,10.851,0,0,1-1.766-.43,10.442,10.442,0,0,0-3.673-.737,14.722,14.722,0,0,0-4.493.56c-.714.186-.856.348-.875,1.056-.037,1.385-.08,2.77-.089,4.156a30.486,30.486,0,0,0,.914,7.473,4.537,4.537,0,0,0,.684,1.906c.642-.492,1.263-.951,1.869-1.431,1.209-.959,2.42-1.917,3.61-2.9,1.041-.861,2.05-1.762,3.08-2.636C1367.07,1221,1367.839,1220.37,1368.683,1219.668Zm22.3,6.044c.134-.673.275-1.2.339-1.736.182-1.535.638-3.017.759-4.573a52.206,52.206,0,0,0,.314-5.988c-.045-1.223-.13-2.446-.22-3.667a1.921,1.921,0,0,0-.176-.546,4.893,4.893,0,0,0-.924.728,6.83,6.83,0,0,1-3.968,2.441c-.437.1-.887.391-1.295.334a2.249,2.249,0,0,0-1.734.657c-.31.228-.617.465-.945.666-.877.539-1.767,1.056-2.644,1.594a.737.737,0,0,0-.3.347,1.923,1.923,0,0,0,.766,2.353q1.024.733,2.049,1.462l1.813,1.29c.759.541,1.538,1.055,2.271,1.628.99.775,1.938,1.6,2.915,2.391A11.345,11.345,0,0,0,1390.986,1225.712Zm-2.755-26.385c-.641-.8-1.216-1.452-1.716-2.158a.948.948,0,0,0-1.169-.4,17.419,17.419,0,0,0-2.243.825,21.385,21.385,0,0,0-5.683,3.776c-.372.355-.726.733-1.125,1.054a9.694,9.694,0,0,0-1.992,2.206c-.7,1.045-1.406,2.084-2.109,3.125a1.51,1.51,0,0,0,.07,2.191,3.345,3.345,0,0,0,.422.393,4.092,4.092,0,0,1,5.453.688c.252-.284.489-.528.7-.792a6.814,6.814,0,0,1,.883-1.148,25.883,25.883,0,0,0,3.59-3.918c.736-.9,1.443-1.816,2.19-2.7C1386.395,1201.411,1387.317,1200.378,1388.232,1199.327Zm-45.186,39.566c.01.147-.017.261.027.329.771,1.184,1.56,2.357,2.326,3.545a22.24,22.24,0,0,0,3.193,3.334.641.641,0,0,0,.252.142,3.164,3.164,0,0,0,3.124-.416c.832-.661,1.591-1.413,2.394-2.109a1.418,1.418,0,0,0,.455-.93c.138-.919.263-1.842.434-2.755.279-1.484.6-2.961.887-4.444.071-.362.089-.734.131-1.1-.771-.07-1.441-.136-2.111-.189a1.362,1.362,0,0,0-.988.292c-1.019.786-2.08,1.517-3.091,2.312a7.965,7.965,0,0,1-6.178,1.955A5.012,5.012,0,0,0,1343.045,1238.893Zm40,35.507a6.768,6.768,0,0,1-3,1.325q-2.574.431-5.177.679c-1.244.117-2.5.107-3.737.315a6.161,6.161,0,0,1-1.929.059c-1.624-.252-3.277-.2-4.89-.563-1.474-.332-2.968-.572-4.448-.877a19.26,19.26,0,0,1-3.923-1.336,32.2,32.2,0,0,1-4.713-2.244,9.172,9.172,0,0,1-2.231-2.106,2.636,2.636,0,0,0-1.093-.941,1.756,1.756,0,0,0-.2.5c-.027.318.014.641.015.962a.762.762,0,0,0,.268.686,1.493,1.493,0,0,1,.311.474,3.387,3.387,0,0,0,1.3,1.4c.7.387,1.431.736,2.133,1.127.958.532,1.894,1.1,2.854,1.632a21.051,21.051,0,0,0,5.853,2.233c1.481.309,2.983.521,4.464.832a21.664,21.664,0,0,0,5.377.546c.289-.012.58.049.87.049a14.826,14.826,0,0,0,4.431-.3,3.2,3.2,0,0,1,.575-.079,22.479,22.479,0,0,0,4.085-.788,4.534,4.534,0,0,0,2.106-1.14A2.639,2.639,0,0,0,1383.047,1274.4Zm-21.237-35.973c-.478.552-.883,1.011-1.277,1.478a41.918,41.918,0,0,1-5.22,5.587,1.564,1.564,0,0,0-.543.882c-.125.889-.147,1.793-.2,2.692-.009.158.055.321.054.481a.777.777,0,0,0,.613.769c1.083.41,2.16.834,3.24,1.252a2.683,2.683,0,0,1,.718.279,7.962,7.962,0,0,0,2.979,1.051,7.374,7.374,0,0,0,1.016.156c.048-.166.109-.261.1-.344a35.481,35.481,0,0,1-.24-3.649c-.076-1.577-.227-3.151-.27-4.727-.037-1.353-.01-2.711.074-4.063a1.442,1.442,0,0,0-.538-1.441C1362.159,1238.719,1362.016,1238.593,1361.809,1238.426Zm10.092,14.979c.778-.164,1.483-.261,2.155-.465,1.635-.5,3.264-1.017,4.876-1.584a9.332,9.332,0,0,0,3.143-1.642c.921-.8,1.881-1.567,2.766-2.408a18.678,18.678,0,0,0,1.72-1.948c.581-.733,1.054-1.554,1.664-2.26a16.6,16.6,0,0,0,2.416-4.036.686.686,0,0,0,0-.545,11.951,11.951,0,0,0-1.463-1.97c-.122.505-.193.885-.3,1.253-.384,1.26-.719,2.539-1.189,3.766a14.86,14.86,0,0,1-2.34,4.108,11.856,11.856,0,0,1-3.969,3.326,3.037,3.037,0,0,1-3.12-.087,5.321,5.321,0,0,1-1.9-2.153c-.507-1-.89-2.058-1.33-3.09-.124-.29-.26-.575-.4-.887-.7.069-1.341.161-1.981.188a11.786,11.786,0,0,0-2.039-.112c.07.76.133,1.461.2,2.162.12,1.219.262,2.435.36,3.655A31.985,31.985,0,0,0,1371.9,1253.405Zm3.613-10.537c-.207.481.167.768.272,1.124a10.561,10.561,0,0,0,2.31,4.038,2.367,2.367,0,0,0,2.536.708,9.12,9.12,0,0,0,1.356-.741,12.888,12.888,0,0,0,4.044-4.48,22.442,22.442,0,0,0,1.272-2.715,15.041,15.041,0,0,0,1.162-4.517c-.491.174-.71.588-1.027.887a14.393,14.393,0,0,1-1.916,1.741,38.267,38.267,0,0,1-3.543,1.926c-.6.3-1.266.481-1.881.761A16.024,16.024,0,0,1,1375.514,1242.868Zm-5.606-.246a28.57,28.57,0,0,1-2.762-.76c-.88-.336-1.7-.828-2.636-1.3,0,1.088.054,2.041-.012,2.984a33.368,33.368,0,0,0,.295,5.773c.089.863.119,1.732.162,2.6a2.164,2.164,0,0,0,.36,1.35,15.465,15.465,0,0,0,5.909,0C1370.471,1249.771,1370.582,1246.138,1369.908,1242.621Zm-9.058-46.342a6.249,6.249,0,0,0-.449-.812c-.709-.949-1.442-1.88-2.164-2.82-.175-.228-.354-.456-.509-.7a20.451,20.451,0,0,0-2.857-3.631,5.949,5.949,0,0,1-.908-.993,6.38,6.38,0,0,0-1.191-1.114c-.12.554-.233.987-.3,1.426-.087.54-.131,1.087-.208,1.629-.246,1.712-.684,3.419-.124,5.152a.683.683,0,0,1,0,.287,1.018,1.018,0,0,0,.437.907c1,.958,2,1.911,2.938,2.926.724.782,1.635,1.308,2.4,2.07Zm18.637,20.035a11.183,11.183,0,0,0-.286-1.628,24.422,24.422,0,0,0-1.041-2.7c-.149-.327-.516-.552-.768-.837a2.373,2.373,0,0,0-1.581-.862,3.59,3.59,0,0,0-1.8.158,4.433,4.433,0,0,0-2.351,2.058,2.145,2.145,0,0,1-.232.424,5.293,5.293,0,0,0-.895,3.663,29.335,29.335,0,0,0,.822,4.07,2.379,2.379,0,0,0,1.492,1.773,1.031,1.031,0,0,1,.409.248,3.948,3.948,0,0,0,1.708.843,1.533,1.533,0,0,0,1.4-.18,4.634,4.634,0,0,0,1.827-1.822A16.22,16.22,0,0,0,1379.487,1216.314Zm-.342-3.527c.2.409.435.322.635.228a9,9,0,0,1,2.768-.755,2.22,2.22,0,0,0,.788-.334c1.363-.789,2.723-1.583,4.074-2.393,1.158-.693,2.3-1.409,3.451-2.115.055-.034.135-.056.159-.105.081-.163.221-.347.2-.5a19.8,19.8,0,0,0-1.511-5.163,6.945,6.945,0,0,0-.422-.715Zm-16.894-14.626a11.65,11.65,0,0,0-2.8,3.979c.505.569.974,1.143,1.492,1.669.973.99,1.974,1.952,2.964,2.925.367.36.732.724,1.108,1.075.517.484,1.056.946,1.563,1.44.99.963,1.966,1.942,2.942,2.909l1.138-.923c-.585-1.027-1.144-2.043-1.736-3.039-.724-1.219-1.473-2.422-2.216-3.629a3.17,3.17,0,0,0-.386-.557,29.98,29.98,0,0,1-2.283-3.235C1363.454,1199.977,1362.918,1199.14,1362.251,1198.161Zm31.476,9.319c.153,1.267.3,2.417.426,3.569q.131,1.2.211,2.409c.048.708.1,1.417.087,2.125-.022.963-.107,1.924-.168,2.886a16.679,16.679,0,0,1-.438,3.634c-.469,1.63-.783,3.3-1.178,5.021l2,1.643a3.4,3.4,0,0,0,.269-.694c.194-1.517.462-3.025.735-4.526s.268-3.016.451-4.519c.168-1.373.243-2.756.354-4.136.054-.672.139-1.346.131-2.018-.016-1.356-.049-2.713-.143-4.065-.07-1.012-.247-2.017-.4-3.2A12,12,0,0,0,1393.727,1207.48Zm-5.308,25.548c.139-.284.272-.426.265-.561a30.757,30.757,0,0,0-.263-3.751,9.314,9.314,0,0,0-1.975-4.031,20.53,20.53,0,0,0-3.595-3.318,27.2,27.2,0,0,0-2.316-1.554,7.675,7.675,0,0,0-.828-.4l-.775,2.017c.231.247.443.442.616.666,1.028,1.318,2.046,2.645,3.07,3.966a6.339,6.339,0,0,1,.483.593,14.316,14.316,0,0,0,1.882,2.313,15.536,15.536,0,0,1,2.4,2.869A8.218,8.218,0,0,0,1388.419,1233.028Zm.812-45.355a20.611,20.611,0,0,0-3.367-3.165,25.962,25.962,0,0,0-2.473-1.679c-.935-.616-1.861-1.249-2.821-1.822a26.735,26.735,0,0,0-5.047-2.158,28.725,28.725,0,0,0-6.9-1.4,21.936,21.936,0,0,0-4.442.113,26.048,26.048,0,0,0-6.1,1.516c-.181.067-.36.142-.547.191a15.313,15.313,0,0,0-4.015,1.569c-.83.5-1.669.981-2.5,1.482a3.486,3.486,0,0,0-.442.4,2.144,2.144,0,0,1,.48.094,1.292,1.292,0,0,0,1.414-.162,32.126,32.126,0,0,1,6.616-3.167,45.823,45.823,0,0,1,5.533-1.314,2.243,2.243,0,0,1,.484-.023c1.957.035,3.929-.2,5.852.421.64.206,1.343.2,2,.375a23.775,23.775,0,0,1,3.611,1.072,42.775,42.775,0,0,1,6.254,3.458,17.049,17.049,0,0,1,2.626,1.8,26.147,26.147,0,0,1,3.455,3.626,33.645,33.645,0,0,1,2.878,4.229,2.97,2.97,0,0,0,.453.547.479.479,0,0,0,.23-.709c-.2-.437-.376-.886-.609-1.3-.454-.815-.792-1.753-1.886-1.964-.085-.016-.153-.115-.231-.171C1389.073,1189.052,1389.106,1188.384,1389.231,1187.673Zm-20.148,33.942a6.307,6.307,0,0,0-.567.335,18.887,18.887,0,0,0-1.795,1.443c-.99.957-2.109,1.779-3.163,2.67q-1.991,1.682-3.962,3.389c-.337.291-.642.618-.984.951.505.721.537,1.631,1.232,2.237a3.893,3.893,0,0,0,.632-.226c.983-.551,2-1.057,2.926-1.695a9.762,9.762,0,0,0,2.929-2.907c.4-.652.96-1.2,1.414-1.823a4.452,4.452,0,0,0,1.02-2.022c.07-.535.159-1.068.235-1.6C1369.032,1222.149,1369.049,1221.93,1369.083,1221.614Zm22.169,17.882c-.236.432-.418.8-.634,1.154a18.127,18.127,0,0,1-1.684,2.6,19.941,19.941,0,0,0-1.592,2.055,23.134,23.134,0,0,1-3.639,3.851,30.912,30.912,0,0,1-2.756,2.1,1.9,1.9,0,0,1-.537.194c-.212.07-.429.128-.64.2-.819.292-1.633.6-2.455.88-.58.2-1.189.327-1.75.569a16.374,16.374,0,0,1-5.484,1.024,30.687,30.687,0,0,1-5.316-.217,38.765,38.765,0,0,1-5.2-1.1,4.8,4.8,0,0,1-.889-.382,10.368,10.368,0,0,0-1.285-.635,19.318,19.318,0,0,1-5.112-2.486c-.426-.294-.837-.608-1.258-.908a2.215,2.215,0,0,0-1.817-.183,5.471,5.471,0,0,0,.384.425,10.815,10.815,0,0,0,2.665,1.715c.617.276,1.246.525,1.853.82a10.744,10.744,0,0,1,2.142,1.1,4.158,4.158,0,0,0,1.235.683c.881.3,1.788.519,2.686.765a45.012,45.012,0,0,0,5.129.983,25.921,25.921,0,0,0,8.181-.329,17.7,17.7,0,0,0,4.543-1.213c.966-.442,1.954-.836,2.921-1.276a18.228,18.228,0,0,0,5.958-4.365,1.173,1.173,0,0,0,.418-1.2.923.923,0,0,1,.72-1.1,1.437,1.437,0,0,0,.7-.461,31.861,31.861,0,0,0,2.829-4.372C1391.757,1240.045,1391.64,1239.769,1391.252,1239.5Zm-29.652,33.851-.016.152c.406.074.81.155,1.217.222q.862.141,1.725.264c.669.1,1.338.227,2.01.264.869.047,1.744.048,2.615.008a10.871,10.871,0,0,0,1.821-.247.8.8,0,0,0,.583-1.251,11.5,11.5,0,0,0-.671-1.065c-.571-.86-1.166-1.706-1.715-2.581-.309-.49-.486-1.068-.827-1.529a10.615,10.615,0,0,1-1.272-2.909c-.506-1.417-.836-2.9-1.222-4.357-.263-1-.521-2-.733-3-.139-.657-.193-1.332-.293-2.065l-.909-.091a2.218,2.218,0,0,0-.037.552c.4,1.724.8,3.45,1.237,5.165.377,1.465.8,2.92,1.229,4.371.2.677.458,1.337.7,2a7.123,7.123,0,0,1,.469,3.409,1.83,1.83,0,0,1-1,1.549,7.683,7.683,0,0,1-2.8.973Zm-16.957-82.242a4.186,4.186,0,0,0,.667.084,4.017,4.017,0,0,1,1.67.358,11.941,11.941,0,0,1,2.692,1.685c.515.371,1.039.728,1.672,1.169a29.5,29.5,0,0,1,.968-8.621c-1.7-.887-1.384-.982-3.092.273a.927.927,0,0,0-.072.066c-.842.753-1.714,1.474-2.517,2.267A6.969,6.969,0,0,0,1344.642,1191.105Zm17.807,3.693c.285-.123.286-.335.21-.568-.1-.305-.212-.606-.31-.912-.34-1.067-.618-2.159-1.029-3.2-.5-1.255-1.089-2.475-1.677-3.692a9.5,9.5,0,0,0-2.654-3.151,1.967,1.967,0,0,0-2.25-.109,1.344,1.344,0,0,0-.856,1.457c.521.48,1.183,1.046,1.792,1.665a20.431,20.431,0,0,1,1.728,1.945c1.46,1.927,2.873,3.889,4.318,5.827C1361.924,1194.335,1362.074,1194.684,1362.449,1194.8Zm-21.242-.649c.283-.152.555-.32.845-.448a4.26,4.26,0,0,1,2.095-.643,8.928,8.928,0,0,1,4.2,1.317c.753.5,1.48,1.04,2.2,1.593a30.855,30.855,0,0,1,3.853,3.23q1.055,1.132,2.158,2.217c1.06,1.035,2.152,2.036,3.215,3.067,1.159,1.124,2.286,2.281,3.452,3.4q2.543,2.433,5.125,4.826c.529.494,1.091.953,1.647,1.436.271-.282.119-.446-.044-.614-.74-.765-1.476-1.534-2.217-2.3a24.162,24.162,0,0,0-2.438-2.453c-1.316-1.012-2.345-2.3-3.589-3.381-.508-.441-.941-.966-1.419-1.443-1.257-1.254-2.5-2.519-3.785-3.746-1-.957-2.061-1.85-3.068-2.8-.42-.4-.719-.933-1.169-1.281a42.909,42.909,0,0,0-3.937-3.1,7.2,7.2,0,0,0-3.189-1.222,4.593,4.593,0,0,0-3.789,1.539A.587.587,0,0,0,1341.207,1194.149Zm27.967,35.023-1.548,2c.094.534.157.947.243,1.356a10.532,10.532,0,0,0,.316,1.3,3.815,3.815,0,0,0,1.115,1.768,1.059,1.059,0,0,1,.3.488c.232.763.456,1.529.651,2.3a12.359,12.359,0,0,0,.453,2.319,7.212,7.212,0,0,0,3.347.318c-.426-1.129-.822-2.177-1.218-3.224q-.291-.765-.587-1.53c-.161-.418-.3-.847-.49-1.253-.537-1.166-1.11-2.315-1.635-3.486C1369.785,1230.782,1369.506,1230,1369.175,1229.172Zm-20.67,17.723c.005.513.25.635.564.656.189.013.388-.062.571-.03a4.359,4.359,0,0,0,3.742-1.108c.73-.634,1.46-1.269,2.154-1.94.9-.875,1.8-1.764,2.649-2.688.63-.683,1.185-1.435,1.783-2.149,1.469-1.752,2.958-3.488,4.407-5.256.57-.7,1.029-1.483,1.59-2.187,1.021-1.283,2.081-2.534,3.123-3.8.388-.471.741-.975,1.158-1.417a37.274,37.274,0,0,0,2.742-3.605l-.5-.46c-.979,1.223-1.916,2.4-2.867,3.573-.506.623-1.058,1.209-1.551,1.843-.673.864-1.281,1.777-1.966,2.63q-3.419,4.267-6.88,8.5c-.652.8-1.362,1.549-2.067,2.3-.505.539-1.087,1.01-1.563,1.572a21.6,21.6,0,0,1-3.2,2.949,3.656,3.656,0,0,1-3.279.657A3.691,3.691,0,0,0,1348.505,1246.894Zm23.582-36.035c-.409-.586-.779-1.076-1.107-1.592-.5-.788-.951-1.608-1.458-2.392-1.063-1.647-2.244-3.225-3.2-4.929a64.412,64.412,0,0,0-3.955-5.918c-.938-1.307-1.9-2.6-2.848-3.9a40.09,40.09,0,0,0-3.682-4.719,26.329,26.329,0,0,0-3.59-3.362,2.9,2.9,0,0,0-3.722.182c-.051.041-.045.151-.091.327.444-.1.811-.192,1.181-.266.218-.043.478-.147.657-.073.92.378,1.82.805,2.726,1.215a35.429,35.429,0,0,1,3.728,4.059c1.072,1.491,2.129,2.993,3.243,4.452,1.352,1.771,2.606,3.607,3.8,5.482.38.6.756,1.2,1.166,1.771.5.7,1.032,1.389,1.559,2.076a11.147,11.147,0,0,1,.713.882c.586.96,1.14,1.941,1.706,2.914a26.455,26.455,0,0,1,2.2,3.84c.072.191.275.333.454.539Zm-4.525,3.228.034-.173a11.319,11.319,0,0,0-1.519-.983,15.6,15.6,0,0,1-4.758-3.561,7.542,7.542,0,0,0-2.243-1.762,9.157,9.157,0,0,0-.954,5.519c.571-.053,1.151-.085,1.724-.165a12.232,12.232,0,0,1,4.492.338c.83.194,1.664.422,2.49.656A7.1,7.1,0,0,0,1367.561,1214.088Zm28.417,15.91c.158-.165.232-.206.241-.257.308-1.836.667-3.666.9-5.511.249-1.984.349-3.986.569-5.973.195-1.767.156-3.536.18-5.306.011-.872.011-1.744.011-2.616,0-1.1.047-2.2-.029-3.288a17.364,17.364,0,0,0-.432-2.268c-.007-.036-.093-.056-.183-.107l-.566.45c.129,1.1.3,2.149.368,3.208.1,1.409.122,2.823.17,4.236a9.091,9.091,0,0,1-.02,1.063c-.1,1.187-.221,2.372-.324,3.559-.182,2.12-.334,4.243-.546,6.36-.106,1.059-.312,2.107-.483,3.159-.138.853-.289,1.7-.452,2.659Zm-6.434,4.345,2.3,2.875a17.381,17.381,0,0,0,2.341-6.905l-2.116-1.539c-.364.965-.666,1.906-1.07,2.8S1390.078,1233.335,1389.544,1234.343Zm-32.273-31.305a1.464,1.464,0,0,0-.193.329c-.35,1.271-.687,2.547-1.036,3.819a14.492,14.492,0,0,0-.5,1.758c-.252,1.785-.523,3.572-.633,5.369-.123,1.99-.087,3.99-.1,5.986a32.084,32.084,0,0,0,.895,7.279,4.838,4.838,0,0,0,.749,2.052c.391-.08.539-.285.491-.626-.036-.255-.076-.511-.136-.761-.2-.843-.457-1.675-.613-2.526a29.1,29.1,0,0,1-.676-5.83c.05-2.377.145-4.754.241-7.13a9.341,9.341,0,0,1,.2-1.531c.23-1.1.473-2.2.75-3.292.318-1.248.669-2.489,1.027-3.726C1357.917,1203.594,1357.914,1203.536,1357.271,1203.038Zm5.986-6.91c.3-.287.556-.52.8-.764a7.155,7.155,0,0,1,2.092-1.541,5.145,5.145,0,0,0,.47-.334,8.844,8.844,0,0,1,1.341-.755c1.267-.473,2.556-.888,3.839-1.318a.717.717,0,0,1,.381-.037,7.293,7.293,0,0,0,2.693-.036,11.756,11.756,0,0,1,4.1.474,22.348,22.348,0,0,1,3.574,1.442,5.2,5.2,0,0,1,.825.495c.535.361,1.054.746,1.593,1.1a8.057,8.057,0,0,1,2.134,2.083c.445.62.968,1.183,1.5,1.82l.446-.506c-.864-.943-1.761-1.787-2.486-2.757a5.844,5.844,0,0,0-2-1.758c-.115-.06-.224-.129-.334-.2a15.937,15.937,0,0,0-4.456-2.06,3.758,3.758,0,0,1-.789-.344,6.334,6.334,0,0,0-3.825-.733c-.448.058-.9.074-1.351.116a17.554,17.554,0,0,0-4.32.963,22.184,22.184,0,0,0-2.517,1.213,29.214,29.214,0,0,0-2.825,1.629,3.074,3.074,0,0,0-1.259,1.161Zm27.525-7.238c.308.12.511.191.708.277.44.193.893.366,1.311.6a1.808,1.808,0,0,1,.913,1.891,4.917,4.917,0,0,1-.8,2.361c-1.735,2.487-3.564,4.9-5.508,7.232a6.761,6.761,0,0,1-.435.519c-1.412,1.378-2.514,3.016-3.787,4.51-.732.859-1.482,1.707-2.274,2.511a14.565,14.565,0,0,0-2.284,2.766l.34.539c.516-.6.978-1.128,1.43-1.664,1.448-1.718,2.872-3.457,4.345-5.153a50.139,50.139,0,0,0,4.012-4.817,42.336,42.336,0,0,1,3.334-4.142,14,14,0,0,0,2.014-3.5,4.57,4.57,0,0,0,.259-1.508,2.04,2.04,0,0,0-.99-1.871,8.988,8.988,0,0,0-3.009-1.238c-.4-.115-.629.178-.476.561a.557.557,0,0,0,.576.422Zm-35.262,53.339a20.115,20.115,0,0,0,4.755-5.308l-2.5-2.874-.687.2c-.3,1.329-.6,2.609-.864,3.9A20.754,20.754,0,0,0,1355.52,1242.229Zm15.639-34.169c.879-1.081.894-1.145.821-2.167a6.456,6.456,0,0,0-2.389-4.377,4.334,4.334,0,0,0-3.316-1.036A59.294,59.294,0,0,0,1371.159,1208.06Zm-6.509,28.367c-.045.26-.067.419-.1.576a1.127,1.127,0,0,0,.531,1.288,16.43,16.43,0,0,0,4.574,2.208c.04.014.105-.045.259-.116-.122-.818-.217-1.675-.384-2.517a8.365,8.365,0,0,0-.493-1.561,1.1,1.1,0,0,0-1.12-.736A9.365,9.365,0,0,0,1364.65,1236.427Zm14.1-14.319c-.446.3-.365.53-.143.794q1.06,1.257,2.1,2.531c1.286,1.561,2.558,3.134,3.854,4.686.93,1.114,1.883,2.209,2.839,3.3.551.629,1.187,1.192,1.684,1.859,1.08,1.451,2.1,2.945,3.134,4.43.276.4.5.832.754,1.243a3.447,3.447,0,0,1,.484,2.032,2.279,2.279,0,0,1-1.217,1.766,5.632,5.632,0,0,1-3.376.94.917.917,0,0,0-.376.073c-.22.076-.467.189-.365.465a.565.565,0,0,0,.43.275,3.866,3.866,0,0,0,2.926-.7,1.968,1.968,0,0,1,.592-.329,2.413,2.413,0,0,0,1.155-.984c.228-.351.507-.669.732-1.022a.81.81,0,0,0,.149-.526,6.979,6.979,0,0,0-1.485-3.712,10.075,10.075,0,0,1-.667-.816c-1.011-1.286-2.012-2.58-3.032-3.86-.6-.756-1.232-1.489-1.845-2.236-.553-.674-1.087-1.364-1.653-2.026-.625-.731-1.3-1.419-1.914-2.164-.675-.823-1.292-1.693-1.944-2.534-.356-.459-.735-.9-1.1-1.35C1379.907,1223.543,1379.346,1222.843,1378.755,1222.108Zm14.232-25.928-2.418,2.889c.343.785.644,1.422.9,2.076.274.691.473,1.412.768,2.092a7.765,7.765,0,0,0,.71,1.974,1.511,1.511,0,0,0,.676-1.084,15.535,15.535,0,0,0,.251-4.711A6.427,6.427,0,0,0,1392.987,1196.18Zm-30.685,41.706c.31.3.587.606.9.864s.7.46,1.028.714a11.922,11.922,0,0,0,5.138,2.346c.794.146,1.585.307,2.381.44a2.79,2.79,0,0,0,1.05.072,23.753,23.753,0,0,1,3.272-.257,2.692,2.692,0,0,0,.578-.057,23.962,23.962,0,0,0,4.459-1.548,1.61,1.61,0,0,1,.355-.144,12.061,12.061,0,0,0,4.434-2.492,11.243,11.243,0,0,0,2.25-2.489c-.34-.233-.451-.242-.644-.051-.434.43-.886.844-1.29,1.3a16.108,16.108,0,0,1-3.935,2.935,14.642,14.642,0,0,1-4.579,1.73,15.647,15.647,0,0,1-3.727.557,16.112,16.112,0,0,1-3.438-.433,16.842,16.842,0,0,1-3.18-1.094,17.991,17.991,0,0,1-4.51-2.768c-.036-.032-.113-.019-.206-.032Zm-20.853-.536c.045.163.041.31.112.38a1.469,1.469,0,0,0,1.042.433c.644.01,1.288.057,1.929.114a5.6,5.6,0,0,0,3-.526,16.516,16.516,0,0,0,2.976-1.981c1.343-1.059,2.717-2.078,4.073-3.121.587-.451,1.163-.915,1.741-1.377.907-.724,1.9-1.333,2.746-2.145.906-.865,1.937-1.6,2.9-2.409.908-.767,1.794-1.559,2.693-2.336,1.048-.908,2.089-1.826,3.154-2.713.794-.661,1.622-1.281,2.437-1.918.239-.186.211-.349-.008-.541-.807.642-1.594,1.246-2.358,1.88-.992.824-1.979,1.657-2.944,2.512a55.907,55.907,0,0,1-4.843,3.993,17.182,17.182,0,0,0-2.051,1.616,17.019,17.019,0,0,1-2.784,2.246,9.649,9.649,0,0,0-.919.712c-1.488,1.191-2.966,2.4-4.465,3.573a12.049,12.049,0,0,1-1.525,1.021,5.075,5.075,0,0,1-1.582.706,10.287,10.287,0,0,1-4.892-.114A1.661,1.661,0,0,0,1341.449,1237.349Zm17.005-33.277a5.529,5.529,0,0,0-.339.949.839.839,0,0,0,.129.621,15.881,15.881,0,0,0,2.392,2.338,11.213,11.213,0,0,1,1.583,1.413,13.489,13.489,0,0,0,3.129,2.517c.757.422,1.5.875,2.245,1.314.141.083.281.168.421.251l.119-.154ZM1392,1226.443c.078-.127.129-.208.177-.289a8.724,8.724,0,0,0,.686-2.486,17.948,17.948,0,0,0,.8-4.351c0-.512.047-1.023.058-1.535.031-1.353.114-2.709.063-4.059-.05-1.318-.227-2.631-.373-3.944a3.939,3.939,0,0,0-.479-1.836c-.151.2-.364.365-.335.453a14.122,14.122,0,0,1,.321,2.962,24.881,24.881,0,0,1,.118,4.422c-.118,1.667-.247,3.336-.437,5-.106.923-.343,1.831-.526,2.745-.151.757-.305,1.515-.467,2.27C1391.535,1226.1,1391.506,1226.381,1392,1226.443Zm-29.824,8.357q2.145-2.656,4.3-5.315a.579.579,0,0,0,.036-.728c-.623.6-1.2,1.239-1.864,1.774a19.558,19.558,0,0,1-2.149,1.46c-.734.446-1.507.829-2.247,1.23C1360.444,1234.261,1361.192,1234.572,1362.172,1234.8Zm2.225,18.552a5.629,5.629,0,0,0,.078-.757c-.1-1.479-.226-2.956-.32-4.435-.1-1.51-.188-3.021-.241-4.533-.038-1.061,0-2.125-.009-3.187,0-.251-.01-.521-.335-.576-.067.065-.147.106-.149.15-.058,1.415-.158,2.83-.145,4.245.01,1.121.177,2.241.248,3.362.1,1.538.172,3.078.263,4.617a2.964,2.964,0,0,0,.119.761C1363.943,1253.109,1364.13,1253.168,1364.4,1253.352Zm6.138-32.947a1.2,1.2,0,0,0-.939,1.117c-.078.669-.192,1.334-.257,2-.051.512-.064,1.03-.067,1.545a3.223,3.223,0,0,0,.177.658c.815-1.185,1.818-2.01,2.428-3.132A6.522,6.522,0,0,1,1370.535,1220.4Zm26.88-17.864a4,4,0,0,0,1.812-2.131c.164-.546.05-.955-.4-1.166a17.559,17.559,0,0,0-1.945-.734,2.177,2.177,0,0,0-.633-.009Zm-54.989-10.978c.567-.144,1.2-.076,1.53-.7a9.489,9.489,0,0,1,.6-.878,15.288,15.288,0,0,1,2.175-2.559c.607-.573,1.252-1.105,1.873-1.663.146-.13.266-.288.425-.462a2.264,2.264,0,0,0-2.264.734c-.153.166-.319.321-.458.5-.88,1.111-1.759,2.222-2.627,3.341C1343.25,1190.428,1342.844,1191,1342.426,1191.563Zm46.883,53.541a4.865,4.865,0,0,0,2.443-.7,2.033,2.033,0,0,0,.268-3.444c-.414.688-.8,1.382-1.239,2.046C1390.335,1243.691,1389.845,1244.345,1389.309,1245.1Zm7.658-12.486.178-.118a6.013,6.013,0,0,0-.66-1.231,17.177,17.177,0,0,0-2.467-2.288c-1.769-1.553-3.673-2.953-5.527-4.407-.431-.338-.9-.624-1.332-.963-.684-.541-1.342-1.115-2.023-1.66a1.676,1.676,0,0,0-1.024-.442,13.253,13.253,0,0,0,1.342,1.2q1.169.937,2.351,1.858c1.044.809,2.111,1.589,3.141,2.415.981.785,1.908,1.639,2.9,2.414a12.3,12.3,0,0,1,2.768,2.8A4.528,4.528,0,0,0,1396.967,1232.618Zm-3.51-37.109c.56,1.325,1.145,2.578,1.62,3.871s.835,2.616,1.243,3.917c.522-.127.64-.422.515-.827-.381-1.226-.759-2.453-1.168-3.669a1.561,1.561,0,0,0-.446-.609c-.532-.479-.823-.992-.339-1.666-.4-.5-.475-1.151-1.052-1.528Zm-36.293,17.833c.021-.207.03-.365.054-.52a20.6,20.6,0,0,1,.594-3.7c.2-.576.393-1.156.563-1.742s.075-.73-.555-1.072c-1.068,3.377-1.554,6.021-1.3,7.123a1.463,1.463,0,0,0,.277.022A2.554,2.554,0,0,0,1357.165,1213.342Zm.136,18.055a11.991,11.991,0,0,0,3.517,4.983l.3-.434c-.559-.868-1.1-1.667-1.6-2.491-.512-.842-.984-1.707-1.516-2.635Zm9.68.575c-.872.892-1.436,1.968-2.22,2.93,1.094.67,2.076.155,3.112.02C1367.572,1233.926,1367.3,1233.018,1366.981,1231.972Zm22.406-1.48a8.885,8.885,0,0,0,.875-3.362,15.812,15.812,0,0,0-2.62-1.911,25.946,25.946,0,0,0,1.122,2.6C1389.233,1228.641,1388.929,1229.606,1389.387,1230.491Zm-20.16-15.983c-.481.446-.4,1.012-.424,1.548a8.838,8.838,0,0,0-.012,1.53c.069.5-.089,1.1.463,1.549l.864-.717c-.045-.37-.091-.657-.111-.945a6.244,6.244,0,0,1-.06-1.532A1.133,1.133,0,0,0,1369.228,1214.508Zm8.05,55.282c.894,1.2,1.376,2.474,2.421,3.353a.87.87,0,0,0,.443-1.123A2.937,2.937,0,0,0,1377.278,1269.789Zm-23.929-70.728a4.043,4.043,0,0,0,.912,2.034,5.8,5.8,0,0,0,2.122,2.258c.475-.882.456-.923-.2-1.552-.739-.709-1.452-1.446-2.181-2.166C1353.833,1199.469,1353.647,1199.322,1353.348,1199.061Zm38.557,7.486c.627-.347.653-.378.453-.979-.4-1.219-.8-2.438-1.249-3.642-.244-.66-.57-1.29-.874-1.928-.03-.064-.154-.083-.27-.141l-.294.482A19.89,19.89,0,0,1,1391.905,1206.547Zm2.193-1.388c.51-.347.909-.609,1.3-.887a.762.762,0,0,0,.3-1.008c-.272-.687-.481-1.4-.728-2.095a1.774,1.774,0,0,0-.223-.346,13.388,13.388,0,0,0-.27,2.13C1394.4,1203.644,1394.243,1204.327,1394.1,1205.159Zm-32.78-8.171a14.679,14.679,0,0,0-2.669,3.824c-.032.055-.094.116-.088.167.019.146.023.345.115.415a.461.461,0,0,0,.411-.045,1.127,1.127,0,0,0,.284-.381,10.519,10.519,0,0,1,.579-.99c.582-.767,1.2-1.51,1.795-2.265a.63.63,0,0,0,.059-.188Zm-7.264,49.7c-.417.273-.779.522-1.154.752s-.752.433-1.248.716c.5.317.859.585,1.254.784.371.188.589.68,1.188.63C1353.848,1248.607,1354.42,1247.713,1354.054,1246.689Zm36.911-51.128a6.873,6.873,0,0,0-2.97.545l1.435,1.532A7.9,7.9,0,0,0,1390.966,1195.561Zm-34.177,36.235a10.555,10.555,0,0,0-2.14,1.706c-.041.036-.005.162-.005.28a5.59,5.59,0,0,0,2.771-.488Zm32.247,1.771c.136-.072.249-.093.289-.159a19.366,19.366,0,0,0,1.655-3.365,11.063,11.063,0,0,0,.4-1.389c.078-.34.023-.652-.372-.712Zm8.121-.794c-.022.435-.037.649-.042.864a2,2,0,0,1-1.559,2.047,4.38,4.38,0,0,1-.819.241c-.465.042-.621.353-.866.791a1.774,1.774,0,0,0,1.516-.281,6.976,6.976,0,0,1,1.05-.664,2.306,2.306,0,0,0,1.079-1.285C1397.766,1233.925,1397.6,1233.437,1397.156,1232.772Zm-12.632-20.809c-.933.538-1.869,1.072-2.8,1.616-.6.349-1.186.713-1.832,1.1l.155.411C1381.531,1213.952,1383.288,1213.4,1384.524,1211.964Zm8.355-19.5c.546-1.67.013-2.536-1.393-2.5Zm2.246,42.769a1.5,1.5,0,0,0,1.346-1.026,1.318,1.318,0,0,0-.333-1.479Zm-7.992-23.579a4.107,4.107,0,0,0,3.195-2.016A12.268,12.268,0,0,0,1387.133,1211.651Zm-19.843,16.7c.558-.66,1.032-1.208,1.489-1.77.268-.33.069-.556-.189-.8C1368.041,1226.568,1367.233,1227.15,1367.29,1228.348Zm20.539-18.184a4.773,4.773,0,0,0-1.906,1.083C1386.693,1211.1,1386.875,1211,1387.83,1210.164Zm-24.127,27.089.49-1.195c-.706-.156-.707.438-.981.8Zm7.307-25.179a.9.9,0,0,0-.948.489l.44.6C1370.69,1212.71,1371.071,1212.532,1371.01,1212.074Zm25.582-14.69-1.258-.21C1395.74,1197.828,1395.74,1197.828,1396.592,1197.383Zm-15.774,15.976c-.7.069-.7.069-1.122.593C1380.4,1213.842,1380.4,1213.842,1380.818,1213.359Z"
        transform="translate(0)"
        fill="#424242"
      />
      <path
        id="パス_2"
        data-name="パス 2"
        d="M1392.684,1235.927a12.988,12.988,0,0,1,.452-2.589,2.4,2.4,0,0,1,2.062-1.532,2.33,2.33,0,0,1,1.811,1.246,6.606,6.606,0,0,1,.717,2.969,13.822,13.822,0,0,1-.063,2.486,2.819,2.819,0,0,1-1.334,2.127,2.057,2.057,0,0,1-2.915-.891A9.545,9.545,0,0,1,1392.684,1235.927Zm1.64,4.112a3.239,3.239,0,0,1,.691.164,1.045,1.045,0,0,0,1.305-.314,2.339,2.339,0,0,0,.564-.985,9.006,9.006,0,0,0-.367-5.5,1.474,1.474,0,0,0-1.282-.893,1.2,1.2,0,0,0-1.21.656,4.78,4.78,0,0,0-.582,1.509A7.8,7.8,0,0,0,1394.324,1240.039Z"
        transform="translate(-20.24 -19.443)"
        fill="#424242"
      />
    </g>
  </svg>
