<svg xmlns="http://www.w3.org/2000/svg" width="173.382" height="115.204" viewBox="0 0 173.382 115.204">
  <g id="_67" data-name="67" transform="translate(-1627.842 -945.018)">
    <path id="パス_22" data-name="パス 22" d="M1770.052,982.323l-1.535.524a13.707,13.707,0,0,0-2.567,6.58c-.152,1.213-.363,2.42-.5,3.634s-.214,2.421-.314,3.585a11.387,11.387,0,0,0,1.4,1.089c2.363,1.3,2.809,3.38,2.459,5.811-.015.109-.041.217-.061.321-.833.962-1.409,2.162-2.673,2.793l-1.691.25c-.555,2.431.358,15.891,1.336,19.678,1.339,0,2.714,0,4.089,0,1.278-.006,2.555-.022,3.833-.034,3.6-.034,7.2-.053,10.794-.108,2.225-.034,4.449-.162,6.674-.161a6.689,6.689,0,0,1,1.723.422c1.358,3.035,2.595,5.868,3.891,8.674,1.275,2.763,2.348,5.636,4.317,8.065l-.413.68c-.086,3.063-.2,5.946-.233,8.83a14.046,14.046,0,0,0,.267,2.98,17.9,17.9,0,0,1,.05,2.938c-.493,0-.861.019-1.227,0a84.179,84.179,0,0,0-11.136-.189c-2.666.187-5.323.183-7.984.209-3.219.031-6.438-.005-9.658-.012-4-.01-8-.037-12-.025-4.167.011-8.343-.114-12.495.146-3.228.2-6.458.02-9.669.281-2.677.218-5.317-.157-7.974-.171-3.381-.019-6.763.094-10.144.118-2.561.017-5.123-.032-7.684-.022-4.728.019-9.456.074-14.184.086-2.781.006-5.562-.055-8.343-.064-3.669-.012-7.343-.117-11,.05-1.613.073-3.206-.049-4.808-.013-1.714.039-3.427.127-5.141.14-1.155.008-2.312-.138-3.464-.105-1.832.053-3.661.206-5.492.3-.664.033-1.331.02-2,.02q-3.166,0-6.331-.008a12.152,12.152,0,0,1-1.666-.072c-.217-.03-.4-.281-.809-.587a5.926,5.926,0,0,1,.95-.258,47.515,47.515,0,0,1,6.791-.131,27.767,27.767,0,0,0,5.61-.133,25.344,25.344,0,0,1,2.825-.117q7-.027,14.006-.028c4.945-.007,9.889,0,14.833-.019,5.385-.023,10.771-.09,16.156-.1,2.337,0,4.675.16,7.011.126,4.447-.065,8.888.017,13.333.17,2.329.081,4.667-.091,7-.116,2.157-.023,4.316.026,6.473-.011,1.6-.028,3.207-.167,4.811-.21,1.667-.044,3.335-.026,5-.044.777-.008,1.553-.053,2.33-.05,1.6.007,3.2.033,4.808.054a17.135,17.135,0,0,0,2.274.021c2.553-.316,5.116-.042,7.658-.172,3.279-.168,6.556-.135,9.816-.014,5.072.189,10.115-.441,15.176-.241,1.274.05,2.545.167,3.819.216a11.1,11.1,0,0,0,1.436-.141,5.435,5.435,0,0,0,.066-1.318,31.335,31.335,0,0,1-.235-6.938c.03-1.7-.035-3.406-.059-5.125a3.686,3.686,0,0,0-2.171-.206c-2.851.408-5.7,1.1-8.61.442a2.137,2.137,0,0,0-.5-.041c-2.609.041-5.219.091-7.828.127-1.442.02-2.886-.024-4.326.032-2.995.116-5.952-.426-8.935-.467-1.047-.014-2.1.121-3.144.181a7.327,7.327,0,0,1-.983.017,87.037,87.037,0,0,0-12.623.318c-1.266.147-2.557.075-3.836.116-2.552.084-5.1.2-7.655.258-2.224.047-4.451,0-6.675.036a114.3,114.3,0,0,0-11.832.5,13.619,13.619,0,0,1-1.979-.14c-2.113-.058-4.227-.082-6.339-.141-.827-.024-1.651-.138-2.478-.157-1.665-.04-3.332-.068-5-.054-2.222.018-4.444.077-6.666.128-.72.016-1.441.1-2.16.089-2.875-.048-5.75-.1-8.623-.2a31.4,31.4,0,0,1-5.643-.378,7.792,7.792,0,0,0-1.658.085c-3.885.045-7.77.077-11.654.117-4.786.049-9.572.084-14.357.157-3.222.049-6.443.211-9.665.22-3.553.011-7.106-.111-10.659-.144-1.437-.014-2.875.056-4.25.086a4.015,4.015,0,0,0-.487,2.865c.373,2.331.028,4.667.228,6.991.1,1.2.206,2.41.32,3.743,6.073.169,12,.023,18-.292v.865a8.618,8.618,0,0,1-2.82.307q-5.912.16-11.825.3c-1.038.027-2.076.048-3.5.08-.9-.522-.907-1.825-1.009-2.993-.144-1.655-.1-3.326-.144-4.99-.059-2.047-.048-4.1-.224-6.138a8.186,8.186,0,0,1,1.431-4.873c.958-1.622,1.766-3.309,2.675-4.948.4-.726.852-1.427,1.3-2.124,1.114-1.721,2.241-3.434,3.493-5.35,1.177-.549,2.614.093,4.035.035,1.441-.059,2.882-.1,4.509-.15.349-.505.743-1.077,1.225-1.774l10.768-.384c-.19-1.683-.372-3.3.872-4.621a2.662,2.662,0,0,1,2.36.363c.67.373.742,1.355,1.7,1.671.081-1,.154-1.9.234-2.876l-.825-1.215c-.183-2.079-.367-4.18-.548-6.24l-1.455-1.6c-.163-3.585-.318-6.966-.475-10.425a7.419,7.419,0,0,1-2.253-4.8c-.138-1.912.926-3.372,2.1-4.891-.141-5.6-.283-11.263-.421-16.724a12.494,12.494,0,0,0-4.461-4.032,3.2,3.2,0,0,0-3.45-.169l-1.161-.349a2.54,2.54,0,0,1-.547-2.533,6.576,6.576,0,0,1,4.552-1.4l4.238,2.633a3.812,3.812,0,0,0,.281-2.757,41.945,41.945,0,0,1-.212-5.366l2.537-.667c.066-.394.137-.813.209-1.245l-1.946-.825c-.043-.814-.082-1.57-.124-2.357l1.627-.633a66.463,66.463,0,0,0-.537-9.07,6.286,6.286,0,0,1,3.409-.3c.517,2.949.273,5.95.624,8.926l2.185.73c.049.775.09,1.426.136,2.163l-1.887,1.49c.039.325.083.7.125,1.05l3.084.683c-.069.106-.138.212-.206.319.757.653,1.517,1.3,2.27,1.96a3.838,3.838,0,0,1,.837.8,9.556,9.556,0,0,0,3.812,3.146,60.37,60.37,0,0,0,7.583,3.4,14.166,14.166,0,0,0,2.742.657,40.973,40.973,0,0,0,4.254.716,25.321,25.321,0,0,0,3.638-.106,1.987,1.987,0,0,0,.938-.311,5.717,5.717,0,0,1,4.277-.957c.138.024.3-.1.548-.2a19.2,19.2,0,0,0-2.007-4.524l-1.859-.736a1.851,1.851,0,0,1-.21-2.286l1.165-.622c1.628.423,1.641,1.707,1.722,2.993,1.351,1.6,1.593,3.848,2.909,5.488l4.628-.616c.631-1.489,1.339-3.163,2.05-4.843l-1.074-1.559c.09-.427.2-.943.3-1.408a3.909,3.909,0,0,1,2.743-.028c.6,1.268.531,1.487-.855,2.828-.494,1.646-1.518,3.137-1.824,4.9l2.588.626.98-1.521c-.284-.715-.521-1.313-.727-1.834,1-1.325,1.165-1.358,2.776-.62.059.159.143.36.208.568.048.154.07.316.121.554-.555.773-1.132,1.576-1.763,2.452l2.178,1.4a106.516,106.516,0,0,0,15.325-1.743,32.741,32.741,0,0,0,3.555-.876c2.782-.76,5.543-1.6,8.342-2.3,1.926-.477,3.9-.76,5.957-1.149.229-3.342-.2-6.643-.293-9.95-.088-3.322-.164-6.644-.249-10.091l1.682-.664,1.527.756c0,.954.075,1.845-.013,2.72-.312,3.074.206,6.09.5,9.128.167,1.711.153,3.44.217,5.162.029.766.052,1.533.08,2.4.979.046,1.851.057,2.719.132a18.832,18.832,0,0,1,10.109,3.459c1.182.9,2.238,1.968,3.347,2.964a6.558,6.558,0,0,0,4.751,2.049,3.531,3.531,0,0,0,.65-.155,1.565,1.565,0,0,0,.2-.462c.152-2.6.238-5.2.442-7.794A51.635,51.635,0,0,1,1774.156,951a6.156,6.156,0,0,1,3.6-4c.762-.044,1.422-.065,2.08-.124a3.048,3.048,0,0,1,2.057.534,8.877,8.877,0,0,1,2.74,3.051,25.2,25.2,0,0,1,2.206,7.143c.626,2.816,1.144,5.663,1.561,8.518.49,3.346,1.147,6.671.915,10.1-.156,2.321.068,4.665.084,7a51.949,51.949,0,0,1-.656,10.617c-.261,1.3-.276,2.656-.474,3.976a19.491,19.491,0,0,1-1.631,6.254c-.659,1.274-1.211,2.6-1.793,3.868a7.4,7.4,0,0,1-7.5,1.875c-.468-.388-1.166-.913-1.8-1.506a10.411,10.411,0,0,1-2.6-5.111,90.111,90.111,0,0,1-2.211-11.732c-.354-2.435-.3-4.868-.526-7.294C1770.154,983.63,1770.115,983.088,1770.052,982.323Zm-89.773,2.044a22.23,22.23,0,0,1-5.64.9c-1.745-.661-2.047-.941-3.613-3.433-.358,1.484.319,2.394,1.532,3.141,2.378,1.464,4.749,1.057,7.129.1.248-.1.379-.489.564-.744a2.32,2.32,0,0,0,1.628-1.532c-.165-.663-.335-1.348-.505-2.033a1.271,1.271,0,0,0-.184.953c.034.324.079.648.131,1.065ZM1650.9,968.341h.892c.183.438.324.776.522,1.252,2.48-.174,3.94,1.758,5.869,2.872a7.194,7.194,0,0,0-1.477-2.135c-1.127-.959-2.39-1.758-3.515-2.565a2.956,2.956,0,0,0-2.235.629l-1.017.265c.11.649-.036,1.283.848,1.226C1650.823,969.323,1650.859,968.832,1650.9,968.341Zm83.169,57.974c.455-.727.848-1.324,1.207-1.941.308-.528.577-1.078.861-1.619a40.6,40.6,0,0,0,3.405-8.671,32.006,32.006,0,0,0,.743-4.756,12.766,12.766,0,0,0-1.853-8.934,7.367,7.367,0,0,1-.364-.739,23.154,23.154,0,0,0-3.819-4.827c-.446-.475-1.113-.736-1.587-1.191a3.9,3.9,0,0,0-1.668-1.041c-.585-.167-1.118-.5-1.7-.706-2.041-.718-4.058-1.541-6.148-2.076-2.143-.55-4.305-1.011-6.418-1.69a6.914,6.914,0,0,0-4.413-.175,6.27,6.27,0,0,1-3.446.344,6.679,6.679,0,0,0-2.306.053c-1.213.123-2.426.295-3.643.331-2,.06-4.006.079-6.006.014a28.26,28.26,0,0,1-3.136-.444l-1.064-.892a5.559,5.559,0,0,0-3.367,0,3.164,3.164,0,0,1-1.156.1,15.272,15.272,0,0,0-4.852,1.045c-2.1.675-3.819,2.015-5.707,3.059a6.5,6.5,0,0,0-1.689,1.056c-1.167,1.262-2.257,2.6-3.324,3.948a21.426,21.426,0,0,0-2.651,5.307,9.647,9.647,0,0,0-.984,4.858,14.007,14.007,0,0,1-.234,3.442,2.947,2.947,0,0,1-2.788,2.99c-.086.01-.159.133-.235.2-.034.666-.11,1.33-.083,1.989.01.254.252.5.469.894.736-.933,1.394-1.7,2.694-1.56l.868,1.29a4.148,4.148,0,0,1-1.157,3.8c-1.022.206-1.675-.542-2.278-1-.567.759-1.079,1.442-1.487,1.987.1,2.03.2,3.894.3,5.916,1.321.05,2.531.131,3.741.135,2.17.008,4.339-.027,6.509-.05,2.889-.03,5.779-.084,8.669-.094,2.439-.009,4.88.019,7.319.053,2.055.028,4.11.157,6.163.119,3.667-.067,7.331-.253,11-.336,1.82-.041,3.634.122,5.464.064,4.329-.138,8.664-.079,13-.119,1.442-.013,2.882-.094,4.323-.126C1732.119,1026.3,1733,1026.315,1734.064,1026.315Zm-91.831,11.247c1.213,0,2.269-.014,3.324,0,1.608.028,3.217.116,4.825.111,2.783-.007,5.566-.095,8.349-.089.995,0,1.989.258,2.985.267,4.112.036,8.224.018,12.336.027,4.23.011,8.46.044,12.69.042,5.23,0,10.46-.03,15.69-.048q5.672-.019,11.344-.044c1.829-.008,3.658-.043,5.487-.041,2.45,0,4.9.058,7.348.038,2.1-.016,4.19-.137,6.285-.154,3.261-.026,6.524.057,9.784-.017,3.337-.075,6.67-.3,10.006-.429,3.5-.138,7.008-.285,10.514-.358,5.226-.108,10.454-.149,15.681-.229,2.059-.032,4.12-.058,6.177-.149,3.223-.142,6.443-.332,9.664-.516a6.724,6.724,0,0,0,.988-.21c-1.245-2.855-2.455-5.628-3.679-8.431-2.613.063-5.157.121-7.7.187-.658.017-1.316.069-1.974.085-.715.018-1.431,0-2.145.023-1.945.064-3.889.179-5.834.207-2.333.034-4.667,0-7,0a1.429,1.429,0,0,0-1.392.573c-.1,1.217.5,2.59-.486,3.975a7.012,7.012,0,0,1-1.046.751,16.179,16.179,0,0,1-5.033,1.713,16.137,16.137,0,0,0-1.62.349c-.859.214-1.709.458-2.568.668-.64.156-1.288.278-2.087.448-.073-.026-.35-.228-.584-.187a12.7,12.7,0,0,1-3.292-.288c-1.159-.092-2.32-.248-3.478-.238a29.394,29.394,0,0,1-7.058-1.092c-2.413-.576-4.761-1.425-7.344-2.218-.132-.469-.3-1.083-.412-1.47.539-1.37,1.612-2.112,2.041-3.4a14.967,14.967,0,0,0-3.541-.2c-4.285.077-8.57.2-12.855.252-4.448.056-8.9.023-13.346.085-2.667.037-5.332.246-8,.263-6.726.043-13.453.018-20.179.025q-4.247,0-8.492.034a3.361,3.361,0,0,0-1.152.134c-.235.09-.381.415-.625.7.444.21.745.479,1.039.472,2.04-.047,4.079-.151,6.317-.246a1.4,1.4,0,0,1,.357.256,2.611,2.611,0,0,1,.316.513,32.5,32.5,0,0,0-1.531,3.563,7.138,7.138,0,0,1-1.532,2.837c-1.216.154-2.255.376-3.3.4-2.262.051-4.526.018-6.789-.014-1.441-.02-2.881-.1-4.321-.156a20.7,20.7,0,0,0-3.639-.127,27.775,27.775,0,0,1-5.214-.073c-.215-.431-.431-.866-.7-1.412.518-.922,1.023-1.842,1.547-2.751s1.071-1.811,1.715-2.9a6.989,6.989,0,0,1,1.6-.28c1.5.054,3,.194,4.491.335a11.075,11.075,0,0,0,3.522-.336c-.12-.185-.191-.318-.284-.432-.173-.212-.36-.561-.508-.56-3.5.023-6.916.068-10.337.146a1.114,1.114,0,0,0-.593.275c-1.123,1.886-2.075,3.514-3.056,5.124A12.356,12.356,0,0,0,1642.233,1037.562Zm155.085,1.962a4.464,4.464,0,0,1-1.378.2,16.54,16.54,0,0,0-3.65.1c-2.221.044-4.444.125-6.662.059-2.265-.067-4.521.315-6.786.065a9.3,9.3,0,0,0-1.5,0c-1.6.08-3.2.217-4.806.26-3.222.087-6.445.12-9.667.187q-4.74.1-9.48.225c-2.606.072-5.212.009-7.821.182-1.418.093-2.865-.073-4.307-.043-2.779.056-5.56-.1-8.34-.073-3.776.034-7.552.148-11.327.236-2.266.054-4.542.294-6.794.149-3.722-.239-7.441-.224-11.162-.206a92.262,92.262,0,0,1-9.825.015,13.732,13.732,0,0,0-2.456-.237c-2.05.169-4.083-.122-6.127-.092a62.426,62.426,0,0,0-8.318.215,3.418,3.418,0,0,1-.495.028q-3.165.014-6.33.023a20.452,20.452,0,0,1-3.828-.029,13.975,13.975,0,0,0-3.285-.1c-1.532.071-3.053-.007-4.578,0-1.717.011-3.434,0-5.151.006-.779,0-1.558.031-2.337.015-1.889-.038-3.777-.092-5.666-.147a22.146,22.146,0,0,1-4.1-.2v-4.1c.7-1.49,1.114-2.528,1.667-3.484.535-.924,1.463-1.629,1.608-2.87h-6.877c-.24.307-.466.55-.639.826-.473.751-.891,1.538-1.389,2.271a44.967,44.967,0,0,0-3.522,5.605c-.6,1.245-1.344,2.422-2,3.642a1.7,1.7,0,0,0-.038,1.9c.247.024.463.063.68.064,4.115.025,8.231.089,12.346.056,5.945-.047,11.89-.186,17.835-.247,6.233-.065,12.466-.115,18.7-.107,2.334,0,4.666.245,7,.278,4.618.065,9.236.063,13.854.084,2.827.013,5.65-.3,8.481-.017,1.043.1,2.1.045,3.152.073,1.5.039,3,.1,4.5.13,1.715.034,3.429.066,5.144.052.716-.006,1.431-.182,2.148-.194,3.782-.061,7.565-.079,11.347-.141q5.421-.09,10.842-.238c1.166-.03,2.331-.133,3.5-.19,3.585-.175,7.169-.357,10.755-.506,1-.042,2,.027,3,.032,2.729.014,5.478-.18,8.183.082,3.01.292,6,.158,9,.175,2.556.014,5.113-.014,7.669.025,1.557.025,3.125.3,4.666.18,2.1-.163,4.173-.595,6.334-.924A9.028,9.028,0,0,0,1797.318,1039.524Zm-17.985-33.8c-2.813.038-3.658-.535-4.513-2.951-.3-.836-.619-1.665-.855-2.518-.294-1.063-.56-2.139-.749-3.225-.276-1.582-.477-3.178-.7-4.77a28.059,28.059,0,0,1-.565-4.616,24.445,24.445,0,0,0-.541-4.371,32.65,32.65,0,0,0,.1,3.923c.219,2.487.487,4.97.738,7.454a38.475,38.475,0,0,0,2.157,9.521c.75,2.02,1.651,4.08,4.036,4.787,1.983.6,3.542-.415,5.144-1.366a19.772,19.772,0,0,0,1.125-2.027,21.212,21.212,0,0,0,1.928-5.3c.317-2.367.77-4.716,1.079-7.084.258-1.975.468-3.962.561-5.95.1-2.159.139-4.331.03-6.488-.171-3.375.328-6.759-.289-10.131-.477-2.612-.67-5.276-1.148-7.888-.509-2.781-1.122-5.549-1.85-8.279a17.686,17.686,0,0,0-1.747-4.307,4.019,4.019,0,0,0-4.251-2.267,9.559,9.559,0,0,1-.969.068,5.053,5.053,0,0,0-2.657,3.09,1.424,1.424,0,0,0,.047.5l1-.852,1.148.052a3.755,3.755,0,0,1,1.8,2.275,67.063,67.063,0,0,1,1.782,6.548c.585,3.255.94,6.554,1.318,9.843.208,1.8.255,3.623.386,5.434.156,2.157-.06,4.315.271,6.485a29.716,29.716,0,0,1,.062,5.314c-.048,1.554-.288,3.1-.319,4.657a43.216,43.216,0,0,1-.868,8.755A12.878,12.878,0,0,1,1779.333,1005.724Zm-112.75-14.652c.091-.919.233-1.736.237-2.554.006-1.208-.087-2.415-.136-3.623-.114-2.823-.246-5.645-.337-8.469-.094-2.871-.137-5.744-.223-8.615-.055-1.813-.15-3.626-.223-5.36a15.6,15.6,0,0,0-6.7-.208c-.071.173-.235.38-.227.578.415,9.227,1.312,18.434,1.131,27.686a3.821,3.821,0,0,0,.161.8,2.112,2.112,0,0,0,.57-.092,4.217,4.217,0,0,1,3.369-.329A11.237,11.237,0,0,0,1666.583,991.072Zm-24.2,47.836c0,.13,0,.261-.005.391.421.047.841.122,1.262.134,1.833.053,3.666.085,5.5.129,1.554.037,3.108.091,4.662.116,1.388.024,2.777.024,4.166.025q2.667,0,5.333-.018c.89-.006,1.781-.067,2.669-.043,1.443.038,2.885.2,4.325.177,2.995-.051,5.988-.212,8.983-.287,2.826-.07,5.651.086,8.478.1,2.386.012,4.77.263,7.157.353a57.434,57.434,0,0,0,6.66.1,72.976,72.976,0,0,1,8.5-.083c2.331.087,4.663.181,7,.183,1.886,0,3.772-.146,5.659-.2,2.22-.06,4.44-.11,6.661-.124,3.614-.022,7.229-.005,10.844-.02,1.221,0,2.441-.067,3.662-.089,1.668-.029,3.336-.056,5-.063.884,0,1.768.071,2.65.052,1.333-.029,2.664-.122,4-.163,1.78-.054,3.561-.067,5.34-.13,1.938-.068,3.874-.2,5.812-.255,2.168-.057,4.338-.028,6.505-.08,1.6-.038,3.191-.19,4.787-.211,3.441-.047,6.885.01,10.326-.074,2.437-.06,4.869-.281,7.357-.433l.389-.813a4.208,4.208,0,0,0-1.16-.357q-3.661.064-7.323.216c-1.108.047-2.21.243-3.317.275-3.889.113-7.778.214-11.668.26-3.106.038-6.214-.064-9.319-.007-3.388.062-6.774.243-10.161.358q-5.9.2-11.8.379c-1.161.037-2.322.085-3.483.094-2.056.015-4.111.009-6.167,0-2.28-.005-4.559-.033-6.839-.025-2.558.008-5.115.046-7.673.068s-5.123-.031-7.679.076a41.067,41.067,0,0,1-7.144-.027,13.531,13.531,0,0,0-2.164.048c-1.272.041-2.544.124-3.816.119-3.994-.016-7.988-.071-11.982-.1-1.6-.011-3.2.022-4.806.018-4.214-.009-8.427-.039-12.641-.036a42.039,42.039,0,0,1-4.648.077,71.252,71.252,0,0,0-9.159-.146c-2.049.034-4.1.047-6.148.024-1.221-.014-2.442-.13-3.664-.166A4.229,4.229,0,0,0,1642.381,1038.908Zm4.676-3.932a11.682,11.682,0,0,0,4.094.16,9.021,9.021,0,0,1,1.808-.151c2.049.083,4.095.22,6.143.328a49.125,49.125,0,0,0,9.824-.234,12.483,12.483,0,0,0,2.233-4.885H1665c.07,1.05.136,2.024.2,2.989-.956.426-.956.426-2.254-.262-.488-.871.017-1.971-.467-2.758-1.848,0-3.559.027-5.269-.009-1.328-.028-2.654-.139-3.981-.2a16.335,16.335,0,0,0-2.479-.059,1.852,1.852,0,0,0-1.252.68C1648.658,1031.926,1647.94,1033.356,1647.057,1034.976Zm91.714-52.853a18.319,18.319,0,0,0,.279,3.306,25.579,25.579,0,0,0,1.478,3.7,6.748,6.748,0,0,0,3.663,3.684,17.414,17.414,0,0,0,4.294,1.152,12.525,12.525,0,0,0,9.363-2.436,6.4,6.4,0,0,0,2.831-4.147,17.461,17.461,0,0,1,.448-1.93,13.163,13.163,0,0,0-.628-8.293,5.322,5.322,0,0,0-.907-1.755,15.453,15.453,0,0,0-4.96-4.076,6.5,6.5,0,0,0-2.541-.653,29.589,29.589,0,0,0-4.411.5,9.455,9.455,0,0,0-6.021,3.4A10.99,10.99,0,0,0,1738.771,982.123Zm-66.407-7.843a50.205,50.205,0,0,0,.258,7.916l1.864,1.9,4.591-.515c.275-.262.631-.6.953-.911-.193-2.869-.375-5.564-.567-8.4l-3.2-2.577C1674.567,972,1673.642,973.257,1672.364,974.28Zm92.57,23.687a4.267,4.267,0,0,0-3.617,2.212c-.853,1.543-.068,3.056.556,4.676l2.544.772c2.641-.107,3.162-1.945,3.492-3.549C1768.357,999.9,1766.675,998.858,1764.934,997.967Zm-56.024-25.939c-.113,1.685-.557,3.321.139,4.957a2.012,2.012,0,0,1,.023.99,20.719,20.719,0,0,0-.2,4.473c.137,1.69.09,3.418,1.183,4.995l1.828-.591a2.518,2.518,0,0,0,.128-.633c-.208-1.7-.514-3.387-.634-5.09-.171-2.432-.253-4.873-.282-7.311a1.817,1.817,0,0,0-1.2-1.994Zm48.071,57.34a5.107,5.107,0,0,0,.549-1.073c.466-1.968,1.351-3.89.757-5.993a9.344,9.344,0,0,0-.97-4.814,2.886,2.886,0,0,0-3.572-1.942c-.377.08-.738.234-1.22.39-.723,1.1-1.511,2.233-2.234,3.411a4.183,4.183,0,0,0-.482,1.392,3.03,3.03,0,0,0,.14.956l-.4.43c-.04.561-.08,1.113-.118,1.665a5.6,5.6,0,0,0,1.883,5.068c.17.141.367.253.523.408a3.064,3.064,0,0,0,3.933.618C1756.11,1029.7,1756.482,1029.578,1756.981,1029.368Zm-96.567-26.724c.055,1.67.054,3.149.166,4.618.116,1.513-.085,3.068.435,4.519,2.136.111,4.227.8,6.315-.4-.067-2.713-.122-5.37-.211-8.026a3.786,3.786,0,0,0-.371-1l-2.118.606c1.576,1.441,1.576,1.441,1.948,3.191a2.966,2.966,0,0,1-3.269,2.577c-.988-.065-1.643-1.136-2.435-2.063.068-.639.131-1.24.2-1.939l1.711-1.547ZM1696.7,972.05a1.647,1.647,0,0,0-.357,1.613,12.208,12.208,0,0,1,.192,2.806,9.447,9.447,0,0,0,.1,2.621,6.645,6.645,0,0,1,.04,2.131,8.979,8.979,0,0,0-.013,3.129,18.912,18.912,0,0,1,.113,2.618,1.68,1.68,0,0,0,.232.545,2.821,2.821,0,0,0,2.189-.479,9.119,9.119,0,0,1-.186-1.758,11.066,11.066,0,0,0-.207-4.293,1.46,1.46,0,0,1,.007-.5c.049-.825.16-1.651.138-2.474-.033-1.266-.132-2.532-.253-3.793-.067-.7-.234-1.387-.372-2.169Zm8.951-.507c0,2.041.039,3.741-.008,5.439-.076,2.763.36,5.513.148,8.281a10.378,10.378,0,0,0,.279,2.074l2.282-.374c-.107-.691-.229-1.227-.267-1.768a31.464,31.464,0,0,1-.239-4.961,9.919,9.919,0,0,0-.364-4.905,7.679,7.679,0,0,0,.133-3.39Zm-46.44,22.01a16.377,16.377,0,0,0-.715,1.534c-.217.622-.349,1.273-.479,1.765.607,3.912,3.778,5.937,7.358,4.75.668-.536,1.078-.866,1.489-1.194.255-.2.644-.353.747-.616a7.064,7.064,0,0,0,.841-3.828c-.113-.648-.274-1.288-.4-1.881a7.228,7.228,0,0,0-2.784-2.194h-3.01a6.832,6.832,0,0,0-1.075.427C1660.5,992.691,1659.86,993.139,1659.208,993.553Zm45.525-6.042c.03-1.493.09-2.751.073-4.009-.043-3.25-.281-6.5-.072-9.751a3.6,3.6,0,0,0-.071-.579l-.79-.724c-.017-.257-.034-.51-.056-.847l-1.268.153a5.231,5.231,0,0,0,.01,1.058,11.516,11.516,0,0,1,.212,5.087,8.787,8.787,0,0,0,.013,2.978,13.126,13.126,0,0,1-.016,4.452,2.032,2.032,0,0,0,.654,2.182Zm72.371-1.038c.16-1.143.363-2.055.4-2.974a111.692,111.692,0,0,0-.7-12.9,4.426,4.426,0,0,0-.835-2.727c-.8.3-.694,1.011-.919,1.525a18.624,18.624,0,0,1,.582,2.957c.1,2.8.74,5.577.445,8.4a28.694,28.694,0,0,0,.03,5.306Zm-1.66,8.6a20.217,20.217,0,0,1,.552,2.553,8.757,8.757,0,0,0,1.188,3.54,5.732,5.732,0,0,0,.7.789,29.382,29.382,0,0,0-.505-11.529,1.9,1.9,0,0,0-.859-1.476A31,31,0,0,0,1775.444,995.07Zm-81.768-22.121a21.454,21.454,0,0,0,.025,3.087,31.7,31.7,0,0,1,.272,6.469c-.068,1.267-.193,2.531-.285,3.7.814.913.814.913,1.866,1a25.219,25.219,0,0,0-.034-3.48,7.9,7.9,0,0,1,.155-3.393,9.323,9.323,0,0,1-.326-2.508,16.245,16.245,0,0,0-.4-5.455Zm6.352,2.141c-.056,2.118-.439,4.223-.073,6.188.376,2.023-.167,4.1.627,6.151l1.007.13c.138-1.052.291-1.977.37-2.908a11.183,11.183,0,0,0,.026-2.164,30.132,30.132,0,0,1-.176-6.554Zm46.566-9.525c.69-.39.8-.488.813-.775.025-.766.07-1.535.045-2.3-.061-1.882-.046-3.775-.267-5.64a43.608,43.608,0,0,1-.412-7.592,22.419,22.419,0,0,0-.235-3.016l-.989.049c.089,2.238.184,4.372.256,6.507s.127,4.262.179,6.393S1746.362,963.409,1746.594,965.565ZM1661.041,947.2a2.474,2.474,0,0,0-.149.62c.045,1.363.077,2.728.181,4.088.2,2.648.467,5.29.66,7.938.035.469.137.73.719.787.109-.2.319-.417.339-.652a8.056,8.056,0,0,0,.022-1.967c-.52-3.125-.387-6.288-.611-9.43-.031-.428-.111-.853-.172-1.31Zm3.479,72.025a17.333,17.333,0,0,0-.389-5.789c-.564-.119-1.136-.48-1.857.151.064,1.034.108,2.177.216,3.315a13.564,13.564,0,0,0,.361,1.931c.047.192.258.345.442.577ZM1780.146,980.2v-6.869l-1.765-.25a4.974,4.974,0,0,0-.08.9c.093.863.267,1.719.325,2.583.081,1.2.078,2.412.131,3.618.006.141.139.276.287.551Zm.342-11.477c-.475-1.227-.255-2.632-1-3.856a5.344,5.344,0,0,0-2.036,2.46l.714,2.64A3.846,3.846,0,0,0,1780.488,968.723Zm-115.883,38.6c1.241-1.947.869-2.744-1.364-3l-.912.673c-.039.4-.076.776-.117,1.19l1.092,1.452ZM1775.992,958.4c-.447,1.119-.9,2.235-1.332,3.36a1.268,1.268,0,0,0-.055.658c.169.88.371,1.754.626,2.933A13.2,13.2,0,0,0,1775.992,958.4Zm4.367,30.49a16.824,16.824,0,0,0,.368-3.874c-.874-.943-.874-.943-2.021-1.1-.073.581-.146,1.162-.175,1.4C1779.18,986.584,1779.676,987.552,1780.359,988.886Zm-120.98,38.339c1.064-1.18.223-2.651.881-3.82a2.832,2.832,0,0,0-.591-.447,5.034,5.034,0,0,0-.923-.14c-.2.75-.376,1.427-.553,2.1C1658.551,1025.677,1658.358,1026.63,1659.379,1027.225ZM1774.6,996.951a12.441,12.441,0,0,0,2.077,6.818,1.217,1.217,0,0,0,.356.347c.076.052.2.033.39.057.077-.228.16-.471.267-.786-1.193-.669-1.533-1.9-2.032-2.978A24.665,24.665,0,0,1,1774.6,996.951Zm-106.936,21.777c.357-.206.541-.248.609-.361a2.9,2.9,0,0,0,.268-2.351c-.028-.1-.265-.143-.476-.248l-.582.806C1667.534,1017.218,1667.588,1017.857,1667.661,1018.728Zm108.576-63.381-.153-1.322-.283-.036-1.173,3.473.232.116Zm-113.447,73.127a4.928,4.928,0,0,0-2.382-.4l-.722.682A3.454,3.454,0,0,0,1662.79,1028.474Zm37.589-56.3a3.466,3.466,0,0,0,1.393,2.283l-.484-2.451Zm72.97-4.858c-.661.85-.334,1.818-.349,3.014A4.184,4.184,0,0,0,1773.349,967.312Zm8.155,12.944a10.353,10.353,0,0,0-.04-3.919A8.759,8.759,0,0,0,1781.5,980.256Zm-117.519-24c-.081.542-.313,1.04.181,1.56.664-.35.653-.838.566-1.426Zm31.185,8.582c.667-.886.348-1.177-.109-1.494-.135.174-.265.271-.25.335C1694.877,963.968,1694.984,964.253,1695.17,964.834Zm78.2,22.469c-.331.5-.331.5.254,1.041-.017-.321-.016-.589-.053-.851C1773.558,987.421,1773.435,987.364,1773.367,987.3Zm-67.25-23.736c.819.468,1.166.4,1.444-.2Zm75.281,10.995.229-.005q-.034-.627-.071-1.255l-.158.007Zm-.023,17.843h.2v-1.134h-.2Zm-121.239-35.618c-.561.381-.429.639.131,1.146C1660.2,957.381,1660.174,957.115,1660.136,956.787Z" fill="#424242"/>
    <path id="パス_23" data-name="パス 23" d="M1789.746,1028.435l.9.6,2.681,5.852c-1.283.03-2.428.061-3.573.081-1.435.024-2.87.022-4.305.062-1.881.051-3.76.15-5.641.2-2.047.049-4.094.072-6.141.082a14.746,14.746,0,0,1-1.514-.149c-1-2.093-2.324-4.016-2.673-6.384,3.5-.381,6.836.292,10.207-.053C1782.971,1028.386,1786.308,1028.514,1789.746,1028.435Zm-16.8,5.655a16.07,16.07,0,0,0,5.513-.009,6.837,6.837,0,0,1,.991-.131c3.272-.032,6.545-.044,9.817-.081.694-.008,1.442.131,2.019-.432-.494-1.221-.969-2.394-1.48-3.659-.7-.046-1.42-.141-2.133-.13-2.664.042-5.329.084-7.99.194a38.225,38.225,0,0,1-6.311,0,16.359,16.359,0,0,0-2.536.092C1771.611,1031.46,1772.282,1032.782,1772.947,1034.09Z" fill="#424242"/>
    <path id="パス_24" data-name="パス 24" d="M1660.917,973.675l1.219-.556v-1.036c-.43-.516-1.313-.827-1.165-1.907l1.167-.484c-.243-1.177-1.059-2.4.156-3.67l.813-.044c.123.879.235,1.682.347,2.485l.167-.006c-.092.314-.185.628-.3,1.015l.836.308.289.727-1.316,2.442,1.222.256a2.832,2.832,0,0,1-1.036,2.636l1.631,1.167c-.489.563-.909,1.049-1.408,1.625-.064,2.558-.132,5.252-.2,7.995h-1.067c.1-2.546.2-5.034.288-7.335-.65-.885-1.165-1.584-1.758-2.39l1.738-.807Z" fill="#424242"/>
    <path id="パス_25" data-name="パス 25" d="M1650.77,1031l1.6.559.384,1.061a2.513,2.513,0,0,1-2.356,1.651l-.6-.587c.164-.6.253-1.023.4-1.428S1650.553,1031.472,1650.77,1031Z" fill="#424242"/>
    <path id="パス_26" data-name="パス 26" d="M1758.142,975.753c.484,1.469,1.075,2.914,1.421,4.414.333,1.447.414,2.951.6,4.389a10.561,10.561,0,0,1-2.626,5.494,3.968,3.968,0,0,1-1.255,1.037,17.709,17.709,0,0,1-6.86,1.75,1.37,1.37,0,0,1-.333-.011,10.584,10.584,0,0,1-5.426-2.308,5.015,5.015,0,0,1-.967-1.118,29.088,29.088,0,0,1-2-3.616,10.588,10.588,0,0,1-.354-5.9,12.6,12.6,0,0,1,1.9-4.375,5.647,5.647,0,0,1,3.124-2.361,4.5,4.5,0,0,0,.958-.269c1.761-1.144,3.75-.812,5.667-.892a3.455,3.455,0,0,1,1.42.383c.762.33,1.493.732,2.149,1.059l2.272,2.328Zm-14.542.019s-.168.282-.362.55a10.03,10.03,0,0,0-1.825,7.042,11.557,11.557,0,0,0,1.487,4.365c1.447,2.824,4.022,3.75,6.889,3.857A12.948,12.948,0,0,0,1754,990.8a7.073,7.073,0,0,0,4.25-3.964,7.485,7.485,0,0,0,.222-5.659l-1.291,1.442.65,2.224c-.936.9-2.14,1.664-1.954,3.276-1.073.239-1.677,1.327-2.8,1.084v.686c-.467.565-.966.209-1.422.177l-1.164.817-.346-1.19c-.93-.907-1.928.459-2.936-.18a2.938,2.938,0,0,0-2.473-2.057,7.445,7.445,0,0,1-1.405-.516c-.087-.035-.137-.163-.25-.306l.028-.524,1.077-.53-.53-1.691c-.483-.429-1.228-.582-1.471-1.409l1.147-.69a4.341,4.341,0,0,0-.671-2.3c-.129-.151-.019-.5-.019-.8.748-.2,1.535-.249,1.757-1,.055-.747.1-1.4.144-1.962.823-.567,1.351-.271,1.932.294-.386.755-.754,1.477-1.1,2.16l.984,1.345-1.986,1.788,1.062,1.264a2.248,2.248,0,0,0-.2,2.218l1.448.623v1.5l.819.443c.516-.332.835-.911,1.71-.588l.89,1.389,2.759-.478c-.06-.6-.108-1.078-.164-1.633l1.153-.6,1.142.74c.685-1.172-1.293-1.5-.59-2.631h1.454c.1-.371.185-.68.312-1.149l-1.493-1.117.931-1.358c-.078-.7-.6-.65-1-.806s-.765-.372-1.213-.6c.18-.45.526-.941.413-1.1a3.962,3.962,0,0,0-1.864-1.348,1,1,0,0,1-.595-1.192l1-.545c1.248.415,1.558,1.673,2.4,2.278l1.352-.3c.758.777.1,1.491.188,2.2l.839,1.48,1.033-.369a6.67,6.67,0,0,0-1.761-3.987,7.007,7.007,0,0,0-3.857-2.425,11.514,11.514,0,0,0-4.58.3A8.88,8.88,0,0,0,1743.6,975.772Z" fill="#424242"/>
    <path id="パス_27" data-name="パス 27" d="M1676.626,973.33c.691.595,1.327,1,1.1,1.952l-1,1.3H1675.1l-.955-1.345.9-1.775Zm-.5.994c-.418.455-.817.716-.355,1.273C1676.425,975.448,1676.53,975.095,1676.128,974.324Z" fill="#424242"/>
    <path id="パス_28" data-name="パス 28" d="M1752.867,1016.886h2.826a3.108,3.108,0,0,1,1.492,2.639c.156,1.961.63,3.962-.023,5.916-.327.978-.789,1.911-1.161,2.8l-1.747.956-1.329-.22a6.114,6.114,0,0,1-2.337-6.112,9.95,9.95,0,0,1,1.208-4.418C1752.161,1017.909,1752.53,1017.377,1752.867,1016.886Zm1.059.956c-1.885,1.575-2.739,5.444-1.943,8.4l1.416,1.623h.964a5.488,5.488,0,0,0,1.864-4.166,13.11,13.11,0,0,0-.709-5.549Z" fill="#424242"/>
    <path id="パス_29" data-name="パス 29" d="M1664.687,992.867c2.253,1.346,3.524,3.082,2.529,5.788-2.068,2.19-3.88,2.527-6.121,1.136a4.33,4.33,0,0,1-1.491-4.264C1660.491,993.208,1661.882,992.489,1664.687,992.867Zm-4.059,2.92c.091.845.171,1.593.234,2.178,1.825,1.5,1.825,1.5,3.65,1.389,1.879-1.275,2.106-1.85,1.462-4.027l-2.035-1.566-1.473.1Z" fill="#424242"/>
    <path id="パス_30" data-name="パス 30" d="M1753.528,1021.332c.054-1.193.054-1.193.692-1.9l.969.529c-.145.376-.258.671-.4,1.049.154.34.333.734.357.786v2.326l-.734.572c-.117.487-.229.955-.344,1.431-.915-.312-.915-.312-.749-1.677l-.908-1,.868-.563c-.09-.342-.186-.708-.3-1.126Z" fill="#424242"/>
    <path id="パス_31" data-name="パス 31" d="M1663.673,998.226l-1.627-.629v-1.464a1.69,1.69,0,0,1,2.08-.506C1664.8,996.509,1664.561,997.273,1663.673,998.226Z" fill="#424242"/>
  </g>
</svg>
