<?xml version="1.0" encoding="utf-8"?>
<!-- Generator: Adobe Illustrator 27.5.0, SVG Export Plug-In . SVG Version: 6.00 Build 0)  -->
<svg version="1.1" id="レイヤー_1" xmlns="http://www.w3.org/2000/svg" xmlns:xlink="http://www.w3.org/1999/xlink" x="0px"
	 y="0px" viewBox="0 0 173.4 115.2" style="enable-background:new 0 0 173.4 115.2;" xml:space="preserve">
<style type="text/css">
	.st0{fill:#2C3E50;}
</style>
<g id="_67" transform="translate(-1627.842 -945.018)">
	<path id="パス_22" class="st0" d="M1770.1,982.3l-1.5,0.5c-1.4,1.9-2.3,4.2-2.6,6.6c-0.2,1.2-0.4,2.4-0.5,3.6s-0.2,2.4-0.3,3.6
		c0.4,0.4,0.9,0.8,1.4,1.1c2.4,1.3,2.8,3.4,2.5,5.8c0,0.1,0,0.2-0.1,0.3c-0.8,1-1.4,2.2-2.7,2.8l-1.7,0.2
		c-0.6,2.4,0.4,15.9,1.3,19.7c1.3,0,2.7,0,4.1,0c1.3,0,2.6,0,3.8,0c3.6,0,7.2-0.1,10.8-0.1c2.2,0,4.4-0.2,6.7-0.2
		c0.6,0.1,1.2,0.2,1.7,0.4c1.4,3,2.6,5.9,3.9,8.7c1.3,2.8,2.3,5.6,4.3,8.1l-0.4,0.7c-0.1,3.1-0.2,5.9-0.2,8.8c0,1,0.1,2,0.3,3
		c0.1,1,0.1,2,0.1,2.9c-0.5,0-0.9,0-1.2,0c-3.7-0.3-7.4-0.4-11.1-0.2c-2.7,0.2-5.3,0.2-8,0.2c-3.2,0-6.4,0-9.7,0c-4,0-8,0-12,0
		c-4.2,0-8.3-0.1-12.5,0.1c-3.2,0.2-6.5,0-9.7,0.3c-2.7,0.2-5.3-0.2-8-0.2c-3.4,0-6.8,0.1-10.1,0.1c-2.6,0-5.1,0-7.7,0
		c-4.7,0-9.5,0.1-14.2,0.1c-2.8,0-5.6-0.1-8.3-0.1c-3.7,0-7.3-0.1-11,0.1c-1.6,0.1-3.2,0-4.8,0c-1.7,0-3.4,0.1-5.1,0.1
		c-1.2,0-2.3-0.1-3.5-0.1c-1.8,0.1-3.7,0.2-5.5,0.3c-0.7,0-1.3,0-2,0c-2.1,0-4.2,0-6.3,0c-0.6,0-1.1,0-1.7-0.1
		c-0.2,0-0.4-0.3-0.8-0.6c0.3-0.1,0.6-0.2,0.9-0.3c2.3-0.2,4.5-0.2,6.8-0.1c1.9,0.1,3.7,0.1,5.6-0.1c0.9-0.1,1.9-0.1,2.8-0.1
		c4.7,0,9.3,0,14,0c4.9,0,9.9,0,14.8,0c5.4,0,10.8-0.1,16.2-0.1c2.3,0,4.7,0.2,7,0.1c4.4-0.1,8.9,0,13.3,0.2c2.3,0.1,4.7-0.1,7-0.1
		c2.2,0,4.3,0,6.5,0c1.6,0,3.2-0.2,4.8-0.2c1.7,0,3.3,0,5,0c0.8,0,1.6-0.1,2.3-0.1c1.6,0,3.2,0,4.8,0.1c0.8,0.1,1.5,0.1,2.3,0
		c2.6-0.3,5.1,0,7.7-0.2c3.3-0.2,6.6-0.1,9.8,0c5.1,0.2,10.1-0.4,15.2-0.2c1.3,0.1,2.5,0.2,3.8,0.2c0.5,0,1-0.1,1.4-0.1
		c0.1-0.4,0.1-0.9,0.1-1.3c-0.3-2.3-0.4-4.6-0.2-6.9c0-1.7,0-3.4-0.1-5.1c-0.7-0.3-1.4-0.4-2.2-0.2c-2.9,0.4-5.7,1.1-8.6,0.4
		c-0.2,0-0.3,0-0.5,0c-2.6,0-5.2,0.1-7.8,0.1c-1.4,0-2.9,0-4.3,0c-3,0.1-6-0.4-8.9-0.5c-1,0-2.1,0.1-3.1,0.2c-0.3,0-0.7,0-1,0
		c-4.2-0.2-8.4-0.1-12.6,0.3c-1.3,0.1-2.6,0.1-3.8,0.1c-2.6,0.1-5.1,0.2-7.7,0.3c-2.2,0-4.5,0-6.7,0c-3.9,0-7.9,0.1-11.8,0.5
		c-0.7,0-1.3,0-2-0.1c-2.1-0.1-4.2-0.1-6.3-0.1c-0.8,0-1.7-0.1-2.5-0.2c-1.7,0-3.3-0.1-5-0.1c-2.2,0-4.4,0.1-6.7,0.1
		c-0.7,0-1.4,0.1-2.2,0.1c-2.9,0-5.8-0.1-8.6-0.2c-1.9,0-3.8-0.1-5.6-0.4c-0.6,0-1.1,0-1.7,0.1c-3.9,0-7.8,0.1-11.7,0.1
		c-4.8,0-9.6,0.1-14.4,0.2c-3.2,0-6.4,0.2-9.7,0.2c-3.6,0-7.1-0.1-10.7-0.1c-1.4,0-2.9,0.1-4.2,0.1c-0.5,0.9-0.7,1.9-0.5,2.9
		c0.4,2.3,0,4.7,0.2,7c0.1,1.2,0.2,2.4,0.3,3.7c6.1,0.2,12,0,18-0.3v0.9c-0.9,0.3-1.9,0.4-2.8,0.3c-3.9,0.1-7.9,0.2-11.8,0.3
		c-1,0-2.1,0-3.5,0.1c-0.9-0.5-0.9-1.8-1-3c-0.1-1.7-0.1-3.3-0.1-5c-0.1-2,0-4.1-0.2-6.1c-0.1-1.7,0.4-3.4,1.4-4.9
		c1-1.6,1.8-3.3,2.7-4.9c0.4-0.7,0.9-1.4,1.3-2.1c1.1-1.7,2.2-3.4,3.5-5.3c1.2-0.5,2.6,0.1,4,0c1.4-0.1,2.9-0.1,4.5-0.2
		c0.3-0.5,0.7-1.1,1.2-1.8l10.8-0.4c-0.2-1.7-0.4-3.3,0.9-4.6c0.8-0.3,1.7-0.1,2.4,0.4c0.7,0.4,0.7,1.4,1.7,1.7
		c0.1-1,0.2-1.9,0.2-2.9l-0.8-1.2c-0.2-2.1-0.4-4.2-0.5-6.2l-1.5-1.6c-0.2-3.6-0.3-7-0.5-10.4c-1.3-1.3-2.1-3-2.3-4.8
		c-0.1-1.9,0.9-3.4,2.1-4.9c-0.1-5.6-0.3-11.3-0.4-16.7c-1.1-1.7-2.7-3.1-4.5-4c-1-0.7-2.4-0.8-3.4-0.2l-1.2-0.3
		c-0.6-0.7-0.8-1.7-0.5-2.5c1.3-1,2.9-1.5,4.6-1.4l4.2,2.6c0.4-0.9,0.5-1.8,0.3-2.8c-0.2-1.8-0.3-3.6-0.2-5.4l2.5-0.7
		c0.1-0.4,0.1-0.8,0.2-1.2l-1.9-0.8c0-0.8-0.1-1.6-0.1-2.4l1.6-0.6c0-3-0.2-6.1-0.5-9.1c1.1-0.4,2.3-0.5,3.4-0.3
		c0.5,2.9,0.3,6,0.6,8.9l2.2,0.7c0,0.8,0.1,1.4,0.1,2.2l-1.9,1.5c0,0.3,0.1,0.7,0.1,1l3.1,0.7c-0.1,0.1-0.1,0.2-0.2,0.3
		c0.8,0.7,1.5,1.3,2.3,2c0.3,0.2,0.6,0.5,0.8,0.8c1,1.4,2.3,2.4,3.8,3.1c2.4,1.3,5,2.4,7.6,3.4c0.9,0.3,1.8,0.5,2.7,0.7
		c1.4,0.3,2.8,0.6,4.3,0.7c1.2,0.1,2.4,0,3.6-0.1c0.3,0,0.7-0.1,0.9-0.3c1.2-0.9,2.8-1.2,4.3-1c0.1,0,0.3-0.1,0.5-0.2
		c-0.5-1.6-1.1-3.1-2-4.5l-1.9-0.7c-0.6-0.6-0.7-1.6-0.2-2.3l1.2-0.6c1.6,0.4,1.6,1.7,1.7,3c1.4,1.6,1.6,3.8,2.9,5.5l4.6-0.6
		c0.6-1.5,1.3-3.2,2.1-4.8l-1.1-1.6c0.1-0.4,0.2-0.9,0.3-1.4c0.9-0.3,1.9-0.4,2.7,0c0.6,1.3,0.5,1.5-0.9,2.8
		c-0.5,1.6-1.5,3.1-1.8,4.9l2.6,0.6l1-1.5c-0.3-0.7-0.5-1.3-0.7-1.8c1-1.3,1.2-1.4,2.8-0.6c0.1,0.2,0.1,0.4,0.2,0.6
		c0,0.2,0.1,0.3,0.1,0.6c-0.6,0.8-1.1,1.6-1.8,2.5l2.2,1.4c5.1-0.2,10.3-0.8,15.3-1.7c1.2-0.2,2.4-0.5,3.6-0.9
		c2.8-0.8,5.5-1.6,8.3-2.3c1.9-0.5,3.9-0.8,6-1.1c0.2-3.3-0.2-6.6-0.3-10c-0.1-3.3-0.2-6.6-0.2-10.1l1.7-0.7l1.5,0.8
		c0,1,0.1,1.8,0,2.7c-0.3,3.1,0.2,6.1,0.5,9.1c0.2,1.7,0.2,3.4,0.2,5.2c0,0.8,0.1,1.5,0.1,2.4c1,0,1.9,0.1,2.7,0.1
		c3.6,0.2,7.1,1.4,10.1,3.5c1.2,0.9,2.2,2,3.3,3c1.2,1.3,3,2,4.8,2c0.2,0,0.4-0.1,0.7-0.2c0.1-0.1,0.2-0.3,0.2-0.5
		c0.2-2.6,0.2-5.2,0.4-7.8c0.4-4.9,1.5-9.8,3.3-14.4c0.5-1.8,1.8-3.3,3.6-4c0.8,0,1.4-0.1,2.1-0.1c0.7-0.1,1.5,0.1,2.1,0.5
		c1.1,0.8,2.1,1.8,2.7,3.1c1.1,2.3,1.8,4.7,2.2,7.1c0.6,2.8,1.1,5.7,1.6,8.5c0.5,3.3,1.1,6.7,0.9,10.1c-0.2,2.3,0.1,4.7,0.1,7
		c0.1,3.6-0.1,7.1-0.7,10.6c-0.3,1.3-0.3,2.7-0.5,4c-0.2,2.2-0.7,4.3-1.6,6.3c-0.7,1.3-1.2,2.6-1.8,3.9c-1.9,2-4.8,2.7-7.5,1.9
		c-0.5-0.4-1.2-0.9-1.8-1.5c-1.3-1.4-2.2-3.2-2.6-5.1c-1-3.9-1.7-7.8-2.2-11.7c-0.4-2.4-0.3-4.9-0.5-7.3
		C1770.2,983.6,1770.1,983.1,1770.1,982.3z M1680.3,984.4c-1.8,0.5-3.7,0.8-5.6,0.9c-1.7-0.7-2-0.9-3.6-3.4
		c-0.4,1.5,0.3,2.4,1.5,3.1c2.4,1.5,4.7,1.1,7.1,0.1C1679.9,985,1680.1,984.6,1680.3,984.4c0.7-0.2,1.4-0.8,1.6-1.6
		c-0.2-0.7-0.3-1.3-0.5-2c-0.2,0.3-0.3,0.6-0.2,1c0,0.3,0.1,0.6,0.1,1.1L1680.3,984.4z M1650.9,968.3h0.9c0.2,0.4,0.3,0.8,0.5,1.3
		c2.5-0.2,3.9,1.8,5.9,2.9c-0.4-0.8-0.9-1.5-1.5-2.1c-1.1-1-2.4-1.8-3.5-2.6C1652.4,967.7,1651.6,967.9,1650.9,968.3l-1,0.3
		c0.1,0.6,0,1.3,0.8,1.2C1650.8,969.3,1650.9,968.8,1650.9,968.3z M1734.1,1026.3c0.5-0.7,0.8-1.3,1.2-1.9c0.3-0.5,0.6-1.1,0.9-1.6
		c1.5-2.8,2.6-5.7,3.4-8.7c0.4-1.6,0.6-3.2,0.7-4.8c0.5-3.1-0.2-6.3-1.9-8.9c-0.1-0.2-0.3-0.5-0.4-0.7c-1.1-1.8-2.3-3.4-3.8-4.8
		c-0.4-0.5-1.1-0.7-1.6-1.2c-0.5-0.5-1-0.8-1.7-1c-0.6-0.2-1.1-0.5-1.7-0.7c-2-0.7-4.1-1.5-6.1-2.1c-2.1-0.5-4.3-1-6.4-1.7
		c-1.4-0.5-3-0.6-4.4-0.2c-1.1,0.4-2.3,0.6-3.4,0.3c-0.8-0.1-1.5-0.1-2.3,0.1c-1.2,0.1-2.4,0.3-3.6,0.3c-2,0.1-4,0.1-6,0
		c-1.1-0.1-2.1-0.2-3.1-0.4l-1.1-0.9c-1.1-0.3-2.3-0.3-3.4,0c-0.4,0.1-0.8,0.1-1.2,0.1c-1.7,0.1-3.3,0.4-4.9,1
		c-2.1,0.7-3.8,2-5.7,3.1c-0.6,0.3-1.2,0.6-1.7,1.1c-1.2,1.3-2.3,2.6-3.3,3.9c-1.1,1.6-2,3.4-2.7,5.3c-0.7,1.5-1.1,3.2-1,4.9
		c0.1,1.2,0,2.3-0.2,3.4c0,1.6-1.2,2.9-2.8,3c-0.1,0-0.2,0.1-0.2,0.2c0,0.7-0.1,1.3-0.1,2c0,0.3,0.3,0.5,0.5,0.9
		c0.7-0.9,1.4-1.7,2.7-1.6l0.9,1.3c0.3,1.4-0.2,2.8-1.2,3.8c-1,0.2-1.7-0.5-2.3-1c-0.6,0.8-1.1,1.4-1.5,2c0.1,2,0.2,3.9,0.3,5.9
		c1.3,0.1,2.5,0.1,3.7,0.1c2.2,0,4.3,0,6.5-0.1c2.9,0,5.8-0.1,8.7-0.1c2.4,0,4.9,0,7.3,0.1c2.1,0,4.1,0.2,6.2,0.1
		c3.7-0.1,7.3-0.3,11-0.3c1.8,0,3.6,0.1,5.5,0.1c4.3-0.1,8.7-0.1,13-0.1c1.4,0,2.9-0.1,4.3-0.1
		C1732.1,1026.3,1733,1026.3,1734.1,1026.3L1734.1,1026.3z M1642.2,1037.6c1.2,0,2.3,0,3.3,0c1.6,0,3.2,0.1,4.8,0.1
		c2.8,0,5.6-0.1,8.3-0.1c1,0,2,0.3,3,0.3c4.1,0,8.2,0,12.3,0c4.2,0,8.5,0,12.7,0c5.2,0,10.5,0,15.7,0c3.8,0,7.6,0,11.3,0
		c1.8,0,3.7,0,5.5,0c2.4,0,4.9,0.1,7.3,0c2.1,0,4.2-0.1,6.3-0.2c3.3,0,6.5,0.1,9.8,0c3.3-0.1,6.7-0.3,10-0.4c3.5-0.1,7-0.3,10.5-0.4
		c5.2-0.1,10.5-0.1,15.7-0.2c2.1,0,4.1-0.1,6.2-0.1c3.2-0.1,6.4-0.3,9.7-0.5c0.3,0,0.7-0.1,1-0.2c-1.2-2.9-2.5-5.6-3.7-8.4
		c-2.6,0.1-5.2,0.1-7.7,0.2c-0.7,0-1.3,0.1-2,0.1c-0.7,0-1.4,0-2.1,0c-1.9,0.1-3.9,0.2-5.8,0.2c-2.3,0-4.7,0-7,0
		c-0.5-0.1-1.1,0.1-1.4,0.6c-0.1,1.2,0.5,2.6-0.5,4c-0.3,0.3-0.7,0.5-1,0.8c-1.6,0.8-3.3,1.4-5,1.7c-0.5,0.1-1.1,0.2-1.6,0.3
		c-0.9,0.2-1.7,0.5-2.6,0.7c-0.6,0.2-1.3,0.3-2.1,0.4c-0.1,0-0.3-0.2-0.6-0.2c-1.1,0-2.2,0-3.3-0.3c-1.2-0.1-2.3-0.2-3.5-0.2
		c-2.4-0.1-4.8-0.4-7.1-1.1c-2.4-0.6-4.8-1.4-7.3-2.2c-0.1-0.5-0.3-1.1-0.4-1.5c0.5-1.4,1.6-2.1,2-3.4c-1.2-0.2-2.4-0.3-3.5-0.2
		c-4.3,0.1-8.6,0.2-12.9,0.3c-4.4,0.1-8.9,0-13.3,0.1c-2.7,0-5.3,0.2-8,0.3c-6.7,0-13.5,0-20.2,0c-2.8,0-5.7,0-8.5,0
		c-0.4,0-0.8,0-1.2,0.1c-0.2,0.1-0.4,0.4-0.6,0.7c0.4,0.2,0.7,0.5,1,0.5c2,0,4.1-0.2,6.3-0.2c0.1,0.1,0.3,0.2,0.4,0.3
		c0.1,0.2,0.2,0.3,0.3,0.5c-0.6,1.2-1.1,2.3-1.5,3.6c-0.3,1.1-0.8,2-1.5,2.8c-1.2,0.2-2.3,0.4-3.3,0.4c-2.3,0.1-4.5,0-6.8,0
		c-1.4,0-2.9-0.1-4.3-0.2c-1.2-0.1-2.4-0.2-3.6-0.1c-1.7,0.1-3.5,0.1-5.2-0.1c-0.2-0.4-0.4-0.9-0.7-1.4c0.5-0.9,1-1.8,1.5-2.8
		s1.1-1.8,1.7-2.9c0.5-0.2,1.1-0.2,1.6-0.3c1.5,0.1,3,0.2,4.5,0.3c1.2,0.1,2.4,0,3.5-0.3c-0.1-0.2-0.2-0.3-0.3-0.4
		c-0.2-0.2-0.4-0.6-0.5-0.6c-3.5,0-6.9,0.1-10.3,0.1c-0.2,0-0.4,0.1-0.6,0.3c-1.1,1.9-2.1,3.5-3.1,5.1
		C1643.1,1034.6,1642.5,1036.1,1642.2,1037.6L1642.2,1037.6z M1797.3,1039.5c-0.4,0.1-0.9,0.2-1.4,0.2c-1.2-0.1-2.4-0.1-3.7,0.1
		c-2.2,0-4.4,0.1-6.7,0.1c-2.3-0.1-4.5,0.3-6.8,0.1c-0.5,0-1,0-1.5,0c-1.6,0.1-3.2,0.2-4.8,0.3c-3.2,0.1-6.4,0.1-9.7,0.2
		c-3.2,0.1-6.3,0.1-9.5,0.2c-2.6,0.1-5.2,0-7.8,0.2c-1.4,0.1-2.9-0.1-4.3,0c-2.8,0.1-5.6-0.1-8.3-0.1c-3.8,0-7.6,0.1-11.3,0.2
		c-2.3,0.1-4.5,0.3-6.8,0.1c-3.7-0.2-7.4-0.2-11.2-0.2c-3.3,0.2-6.6,0.2-9.8,0c-0.8-0.2-1.6-0.2-2.5-0.2c-2.1,0.2-4.1-0.1-6.1-0.1
		c-2.8-0.1-5.6,0-8.3,0.2c-0.2,0-0.3,0-0.5,0c-2.1,0-4.2,0-6.3,0c-1.3,0.1-2.6,0.1-3.8,0c-1.1-0.2-2.2-0.2-3.3-0.1
		c-1.5,0.1-3.1,0-4.6,0c-1.7,0-3.4,0-5.2,0c-0.8,0-1.6,0-2.3,0c-1.9,0-3.8-0.1-5.7-0.1c-1.4,0.1-2.7,0-4.1-0.2v-4.1
		c0.7-1.5,1.1-2.5,1.7-3.5c0.5-0.9,1.5-1.6,1.6-2.9h-6.9c-0.2,0.3-0.5,0.6-0.6,0.8c-0.5,0.8-0.9,1.5-1.4,2.3
		c-1.3,1.8-2.5,3.7-3.5,5.6c-0.6,1.2-1.3,2.4-2,3.6c-0.4,0.6-0.4,1.3,0,1.9c0.2,0,0.5,0.1,0.7,0.1c4.1,0,8.2,0.1,12.3,0.1
		c5.9,0,11.9-0.2,17.8-0.2c6.2-0.1,12.5-0.1,18.7-0.1c2.3,0,4.7,0.2,7,0.3c4.6,0.1,9.2,0.1,13.9,0.1c2.8,0,5.7-0.3,8.5,0
		c1,0.1,2.1,0,3.2,0.1c1.5,0,3,0.1,4.5,0.1c1.7,0,3.4,0.1,5.1,0.1c0.7,0,1.4-0.2,2.1-0.2c3.8-0.1,7.6-0.1,11.3-0.1
		c3.6-0.1,7.2-0.1,10.8-0.2c1.2,0,2.3-0.1,3.5-0.2c3.6-0.2,7.2-0.4,10.8-0.5c1,0,2,0,3,0c2.7,0,5.5-0.2,8.2,0.1c3,0.3,6,0.2,9,0.2
		c2.6,0,5.1,0,7.7,0c1.6,0,3.1,0.3,4.7,0.2c2.1-0.2,4.2-0.6,6.3-0.9C1798.7,1041.6,1798.1,1040.5,1797.3,1039.5L1797.3,1039.5z
		 M1779.3,1005.7c-2.8,0-3.7-0.5-4.5-3c-0.3-0.8-0.6-1.7-0.9-2.5c-0.3-1.1-0.6-2.1-0.7-3.2c-0.3-1.6-0.5-3.2-0.7-4.8
		c-0.3-1.5-0.5-3.1-0.6-4.6c0-1.5-0.2-2.9-0.5-4.4c0,1.3,0,2.6,0.1,3.9c0.2,2.5,0.5,5,0.7,7.5c0.3,3.3,1,6.5,2.2,9.5
		c0.8,2,1.7,4.1,4,4.8c2,0.6,3.5-0.4,5.1-1.4c0.4-0.7,0.8-1.3,1.1-2c0.9-1.7,1.5-3.5,1.9-5.3c0.3-2.4,0.8-4.7,1.1-7.1
		c0.3-2,0.5-4,0.6-6c0.1-2.2,0.1-4.3,0-6.5c-0.2-3.4,0.3-6.8-0.3-10.1c-0.5-2.6-0.7-5.3-1.1-7.9c-0.5-2.8-1.1-5.5-1.8-8.3
		c-0.4-1.5-1-3-1.7-4.3c-0.8-1.6-2.5-2.5-4.3-2.3c-0.3,0-0.6,0.1-1,0.1c-1.3,0.6-2.2,1.7-2.7,3.1c0,0.2,0,0.3,0,0.5l1-0.9l1.1,0.1
		c0.9,0.5,1.5,1.3,1.8,2.3c0.7,2.2,1.3,4.3,1.8,6.5c0.6,3.3,0.9,6.6,1.3,9.8c0.2,1.8,0.3,3.6,0.4,5.4c0.2,2.2-0.1,4.3,0.3,6.5
		c0.2,1.8,0.2,3.5,0.1,5.3c0,1.6-0.3,3.1-0.3,4.7c0,2.9-0.3,5.9-0.9,8.8C1781.6,1002.1,1780.7,1004.1,1779.3,1005.7L1779.3,1005.7z
		 M1666.6,991.1c0.1-0.9,0.2-1.7,0.2-2.6c0-1.2-0.1-2.4-0.1-3.6c-0.1-2.8-0.2-5.6-0.3-8.5c-0.1-2.9-0.1-5.7-0.2-8.6
		c-0.1-1.8-0.2-3.6-0.2-5.4c-2.2-0.6-4.5-0.6-6.7-0.2c-0.1,0.2-0.2,0.4-0.2,0.6c0.4,9.2,1.3,18.4,1.1,27.7c0,0.3,0.1,0.5,0.2,0.8
		c0.2,0,0.4,0,0.6-0.1c1-0.6,2.2-0.7,3.4-0.3C1665,991,1665.8,991.1,1666.6,991.1L1666.6,991.1z M1642.4,1038.9c0,0.1,0,0.3,0,0.4
		c0.4,0,0.8,0.1,1.3,0.1c1.8,0.1,3.7,0.1,5.5,0.1c1.6,0,3.1,0.1,4.7,0.1c1.4,0,2.8,0,4.2,0c1.8,0,3.6,0,5.3,0c0.9,0,1.8-0.1,2.7,0
		c1.4,0,2.9,0.2,4.3,0.2c3-0.1,6-0.2,9-0.3c2.8-0.1,5.7,0.1,8.5,0.1c2.4,0,4.8,0.3,7.2,0.4c2.2,0.2,4.4,0.2,6.7,0.1
		c2.8-0.2,5.7-0.2,8.5-0.1c2.3,0.1,4.7,0.2,7,0.2c1.9,0,3.8-0.1,5.7-0.2c2.2-0.1,4.4-0.1,6.7-0.1c3.6,0,7.2,0,10.8,0
		c1.2,0,2.4-0.1,3.7-0.1c1.7,0,3.3-0.1,5-0.1c0.9,0,1.8,0.1,2.7,0.1c1.3,0,2.7-0.1,4-0.2c1.8-0.1,3.6-0.1,5.3-0.1
		c1.9-0.1,3.9-0.2,5.8-0.3c2.2-0.1,4.3,0,6.5-0.1c1.6,0,3.2-0.2,4.8-0.2c3.4,0,6.9,0,10.3-0.1c2.4-0.1,4.9-0.3,7.4-0.4l0.4-0.8
		c-0.4-0.2-0.8-0.3-1.2-0.4c-2.4,0-4.9,0.1-7.3,0.2c-1.1,0-2.2,0.2-3.3,0.3c-3.9,0.1-7.8,0.2-11.7,0.3c-3.1,0-6.2-0.1-9.3,0
		c-3.4,0.1-6.8,0.2-10.2,0.4c-3.9,0.1-7.9,0.3-11.8,0.4c-1.2,0-2.3,0.1-3.5,0.1c-2.1,0-4.1,0-6.2,0c-2.3,0-4.6,0-6.8,0
		c-2.6,0-5.1,0-7.7,0.1s-5.1,0-7.7,0.1c-2.4,0.2-4.8,0.2-7.1,0c-0.7,0-1.4,0-2.2,0c-1.3,0-2.5,0.1-3.8,0.1c-4,0-8-0.1-12-0.1
		c-1.6,0-3.2,0-4.8,0c-4.2,0-8.4,0-12.6,0c-1.5,0.1-3.1,0.1-4.6,0.1c-3-0.2-6.1-0.3-9.2-0.1c-2,0-4.1,0-6.1,0
		c-1.2,0-2.4-0.1-3.7-0.2C1643,1038.8,1642.7,1038.8,1642.4,1038.9L1642.4,1038.9z M1647.1,1035c1.3,0.3,2.7,0.3,4.1,0.2
		c0.6-0.1,1.2-0.2,1.8-0.2c2,0.1,4.1,0.2,6.1,0.3c3.3,0.3,6.6,0.2,9.8-0.2c1.1-1.4,1.9-3.1,2.2-4.9h-6.2c0.1,1.1,0.1,2,0.2,3
		c-1,0.4-1,0.4-2.3-0.3c-0.5-0.9,0-2-0.5-2.8c-1.8,0-3.6,0-5.3,0c-1.3,0-2.7-0.1-4-0.2c-0.8-0.1-1.7-0.1-2.5-0.1
		c-0.5,0.1-0.9,0.3-1.3,0.7C1648.7,1031.9,1647.9,1033.4,1647.1,1035L1647.1,1035z M1738.8,982.1c0,1.1,0.1,2.2,0.3,3.3
		c0.4,1.3,0.9,2.5,1.5,3.7c0.7,1.7,2,3,3.7,3.7c1.4,0.6,2.8,1,4.3,1.2c3.3,0.5,6.7-0.4,9.4-2.4c1.5-0.9,2.5-2.4,2.8-4.1
		c0.1-0.7,0.3-1.3,0.4-1.9c0.7-2.8,0.5-5.7-0.6-8.3c-0.2-0.6-0.5-1.2-0.9-1.8c-1.3-1.7-3-3.1-5-4.1c-0.8-0.4-1.7-0.6-2.5-0.7
		c-1.5,0.1-3,0.2-4.4,0.5c-2.4,0.3-4.5,1.5-6,3.4C1739.8,976.6,1738.7,979.3,1738.8,982.1L1738.8,982.1z M1672.4,974.3
		c-0.1,2.6,0,5.3,0.3,7.9l1.9,1.9l4.6-0.5c0.3-0.3,0.6-0.6,1-0.9c-0.2-2.9-0.4-5.6-0.6-8.4l-3.2-2.6
		C1674.6,972,1673.6,973.3,1672.4,974.3L1672.4,974.3z M1764.9,998c-1.5,0-2.9,0.9-3.6,2.2c-0.9,1.5-0.1,3.1,0.6,4.7l2.5,0.8
		c2.6-0.1,3.2-1.9,3.5-3.5C1768.4,999.9,1766.7,998.9,1764.9,998L1764.9,998z M1708.9,972c-0.1,1.7-0.6,3.3,0.1,5
		c0.1,0.3,0.1,0.7,0,1c-0.2,1.5-0.3,3-0.2,4.5c0.1,1.7,0.1,3.4,1.2,5l1.8-0.6c0.1-0.2,0.1-0.4,0.1-0.6c-0.2-1.7-0.5-3.4-0.6-5.1
		c-0.2-2.4-0.3-4.9-0.3-7.3c0.1-0.9-0.4-1.7-1.2-2L1708.9,972z M1757,1029.4c0.2-0.3,0.4-0.7,0.5-1.1c0.5-2,1.4-3.9,0.8-6
		c0.1-1.7-0.2-3.3-1-4.8c-0.5-1.5-2.1-2.4-3.6-1.9c-0.4,0.1-0.7,0.2-1.2,0.4c-0.7,1.1-1.5,2.2-2.2,3.4c-0.2,0.4-0.4,0.9-0.5,1.4
		c0,0.3,0,0.6,0.1,1l-0.4,0.4c0,0.6-0.1,1.1-0.1,1.7c-0.3,1.9,0.4,3.8,1.9,5.1c0.2,0.1,0.4,0.3,0.5,0.4c1,1.1,2.6,1.4,3.9,0.6
		C1756.1,1029.7,1756.5,1029.6,1757,1029.4L1757,1029.4z M1660.4,1002.6c0.1,1.7,0.1,3.1,0.2,4.6c0.1,1.5-0.1,3.1,0.4,4.5
		c2.1,0.1,4.2,0.8,6.3-0.4c-0.1-2.7-0.1-5.4-0.2-8c-0.1-0.3-0.2-0.7-0.4-1l-2.1,0.6c1.6,1.4,1.6,1.4,1.9,3.2
		c-0.2,1.6-1.7,2.8-3.3,2.6c-1-0.1-1.6-1.1-2.4-2.1c0.1-0.6,0.1-1.2,0.2-1.9l1.7-1.5L1660.4,1002.6z M1696.7,972
		c-0.4,0.4-0.5,1.1-0.4,1.6c0.2,0.9,0.2,1.9,0.2,2.8c-0.1,0.9-0.1,1.8,0.1,2.6c0.1,0.7,0.1,1.4,0,2.1c-0.2,1-0.2,2.1,0,3.1
		c0.1,0.9,0.1,1.7,0.1,2.6c0,0.2,0.1,0.4,0.2,0.5c0.8,0.1,1.6,0,2.2-0.5c-0.1-0.6-0.2-1.2-0.2-1.8c0.2-1.4,0.1-2.9-0.2-4.3
		c0-0.2,0-0.3,0-0.5c0-0.8,0.2-1.7,0.1-2.5c0-1.3-0.1-2.5-0.3-3.8c-0.1-0.7-0.2-1.4-0.4-2.2L1696.7,972z M1705.7,971.5
		c0,2,0,3.7,0,5.4c-0.1,2.8,0.4,5.5,0.1,8.3c0,0.7,0.1,1.4,0.3,2.1l2.3-0.4c-0.1-0.7-0.2-1.2-0.3-1.8c-0.2-1.6-0.3-3.3-0.2-5
		c0.3-1.6,0.2-3.3-0.4-4.9c0.3-1.1,0.3-2.3,0.1-3.4L1705.7,971.5z M1659.2,993.6c-0.3,0.5-0.5,1-0.7,1.5c-0.2,0.6-0.3,1.3-0.5,1.8
		c0.6,3.9,3.8,5.9,7.4,4.8c0.7-0.5,1.1-0.9,1.5-1.2c0.3-0.2,0.6-0.4,0.7-0.6c0.6-1.2,0.9-2.5,0.8-3.8c-0.1-0.6-0.3-1.3-0.4-1.9
		c-0.7-1-1.7-1.7-2.8-2.2h-3c-0.4,0.1-0.7,0.3-1.1,0.4C1660.5,992.7,1659.9,993.1,1659.2,993.6L1659.2,993.6z M1704.7,987.5
		c0-1.5,0.1-2.8,0.1-4c0-3.2-0.3-6.5-0.1-9.8c0-0.2,0-0.4-0.1-0.6l-0.8-0.7c0-0.3,0-0.5-0.1-0.8l-1.3,0.2c0,0.4,0,0.7,0,1.1
		c0.4,1.7,0.5,3.4,0.2,5.1c-0.2,1-0.2,2,0,3c0.2,1.5,0.2,3,0,4.5c-0.2,0.8,0,1.7,0.7,2.2L1704.7,987.5z M1777.1,986.5
		c0.2-1.1,0.4-2.1,0.4-3c0-4.3-0.2-8.6-0.7-12.9c0-1-0.3-1.9-0.8-2.7c-0.8,0.3-0.7,1-0.9,1.5c0.3,1,0.5,2,0.6,3
		c0.1,2.8,0.7,5.6,0.4,8.4c-0.2,1.8-0.1,3.5,0,5.3L1777.1,986.5z M1775.4,995.1c0.2,0.8,0.4,1.7,0.6,2.6c0.1,1.3,0.5,2.5,1.2,3.5
		c0.2,0.3,0.4,0.5,0.7,0.8c0.6-3.8,0.4-7.8-0.5-11.5c0-0.6-0.4-1.1-0.9-1.5C1776,990.9,1775.6,993,1775.4,995.1L1775.4,995.1z
		 M1693.7,973c-0.1,1-0.1,2.1,0,3.1c0.3,2.1,0.4,4.3,0.3,6.5c-0.1,1.3-0.2,2.5-0.3,3.7c0.8,0.9,0.8,0.9,1.9,1c0.1-1.2,0.1-2.3,0-3.5
		c-0.2-1.1-0.1-2.3,0.2-3.4c-0.2-0.8-0.3-1.7-0.3-2.5c0.2-1.8,0-3.7-0.4-5.5L1693.7,973z M1700,975.1c-0.1,2.1-0.4,4.2-0.1,6.2
		c0.4,2-0.2,4.1,0.6,6.2l1,0.1c0.1-1.1,0.3-2,0.4-2.9c0.1-0.7,0.1-1.4,0-2.2c-0.3-2.2-0.4-4.4-0.2-6.6L1700,975.1z M1746.6,965.6
		c0.7-0.4,0.8-0.5,0.8-0.8c0-0.8,0.1-1.5,0-2.3c-0.1-1.9,0-3.8-0.3-5.6c-0.4-2.5-0.5-5.1-0.4-7.6c0-1-0.1-2-0.2-3l-1,0
		c0.1,2.2,0.2,4.4,0.3,6.5s0.1,4.3,0.2,6.4S1746.4,963.4,1746.6,965.6L1746.6,965.6z M1661,947.2c-0.1,0.2-0.1,0.4-0.1,0.6
		c0,1.4,0.1,2.7,0.2,4.1c0.2,2.6,0.5,5.3,0.7,7.9c0,0.5,0.1,0.7,0.7,0.8c0.1-0.2,0.3-0.4,0.3-0.7c0.1-0.7,0.1-1.3,0-2
		c-0.5-3.1-0.4-6.3-0.6-9.4c0-0.4-0.1-0.9-0.2-1.3L1661,947.2z M1664.5,1019.2c0.2-1.9,0.1-3.9-0.4-5.8c-0.6-0.1-1.1-0.5-1.9,0.2
		c0.1,1,0.1,2.2,0.2,3.3c0.1,0.7,0.2,1.3,0.4,1.9c0,0.2,0.3,0.3,0.4,0.6L1664.5,1019.2z M1780.1,980.2v-6.9l-1.8-0.2
		c-0.1,0.3-0.1,0.6-0.1,0.9c0.1,0.9,0.3,1.7,0.3,2.6c0.1,1.2,0.1,2.4,0.1,3.6c0,0.1,0.1,0.3,0.3,0.6L1780.1,980.2z M1780.5,968.7
		c-0.5-1.2-0.3-2.6-1-3.9c-0.9,0.6-1.6,1.5-2,2.5l0.7,2.6C1779.1,969.8,1779.9,969.4,1780.5,968.7z M1664.6,1007.3
		c1.2-1.9,0.9-2.7-1.4-3l-0.9,0.7c0,0.4-0.1,0.8-0.1,1.2l1.1,1.5L1664.6,1007.3z M1776,958.4c-0.4,1.1-0.9,2.2-1.3,3.4
		c-0.1,0.2-0.1,0.4-0.1,0.7c0.2,0.9,0.4,1.8,0.6,2.9C1776.1,963.1,1776.4,960.7,1776,958.4z M1780.4,988.9c0.3-1.3,0.4-2.6,0.4-3.9
		c-0.9-0.9-0.9-0.9-2-1.1c-0.1,0.6-0.1,1.2-0.2,1.4C1779.2,986.6,1779.7,987.6,1780.4,988.9L1780.4,988.9z M1659.4,1027.2
		c1.1-1.2,0.2-2.7,0.9-3.8c-0.2-0.2-0.4-0.3-0.6-0.4c-0.3-0.1-0.6-0.1-0.9-0.1c-0.2,0.8-0.4,1.4-0.6,2.1
		C1658.6,1025.7,1658.4,1026.6,1659.4,1027.2L1659.4,1027.2z M1774.6,997c0,2.4,0.7,4.8,2.1,6.8c0.1,0.1,0.2,0.3,0.4,0.3
		c0.1,0.1,0.2,0,0.4,0.1c0.1-0.2,0.2-0.5,0.3-0.8c-1.2-0.7-1.5-1.9-2-3C1775.2,999.3,1774.9,998.1,1774.6,997z M1667.7,1018.7
		c0.4-0.2,0.5-0.2,0.6-0.4c0.4-0.7,0.5-1.6,0.3-2.4c0-0.1-0.3-0.1-0.5-0.2l-0.6,0.8C1667.5,1017.2,1667.6,1017.9,1667.7,1018.7
		L1667.7,1018.7z M1776.2,955.3l-0.2-1.3l-0.3,0l-1.2,3.5l0.2,0.1L1776.2,955.3z M1662.8,1028.5c-0.7-0.3-1.6-0.5-2.4-0.4l-0.7,0.7
		C1660.7,1029.2,1661.9,1029.1,1662.8,1028.5L1662.8,1028.5z M1700.4,972.2c0.1,0.9,0.6,1.7,1.4,2.3l-0.5-2.5L1700.4,972.2z
		 M1773.4,967.3c-0.7,0.8-0.3,1.8-0.3,3C1773.5,969.4,1773.6,968.3,1773.4,967.3L1773.4,967.3z M1781.5,980.3c0.2-1.3,0.2-2.6,0-3.9
		C1781.2,977.6,1781.2,979,1781.5,980.3L1781.5,980.3z M1664,956.3c-0.1,0.5-0.3,1,0.2,1.6c0.7-0.3,0.7-0.8,0.6-1.4L1664,956.3z
		 M1695.2,964.8c0.7-0.9,0.3-1.2-0.1-1.5c-0.1,0.2-0.3,0.3-0.2,0.3C1694.9,964,1695,964.3,1695.2,964.8L1695.2,964.8z M1773.4,987.3
		c-0.3,0.5-0.3,0.5,0.3,1c0-0.3,0-0.6-0.1-0.9C1773.6,987.4,1773.4,987.4,1773.4,987.3L1773.4,987.3z M1706.1,963.6
		c0.8,0.5,1.2,0.4,1.4-0.2L1706.1,963.6z M1781.4,974.6l0.2,0c0-0.4,0-0.8-0.1-1.3l-0.2,0V974.6z M1781.4,992.4h0.2v-1.1h-0.2V992.4
		z M1660.1,956.8c-0.6,0.4-0.4,0.6,0.1,1.1C1660.2,957.4,1660.2,957.1,1660.1,956.8L1660.1,956.8z"/>
	<path id="パス_23" class="st0" d="M1789.7,1028.4l0.9,0.6l2.7,5.9c-1.3,0-2.4,0.1-3.6,0.1c-1.4,0-2.9,0-4.3,0.1
		c-1.9,0.1-3.8,0.2-5.6,0.2c-2,0-4.1,0.1-6.1,0.1c-0.5,0-1-0.1-1.5-0.1c-1-2.1-2.3-4-2.7-6.4c3.5-0.4,6.8,0.3,10.2-0.1
		C1783,1028.4,1786.3,1028.5,1789.7,1028.4z M1772.9,1034.1c1.8,0.3,3.7,0.3,5.5,0c0.3-0.1,0.7-0.1,1-0.1c3.3,0,6.5,0,9.8-0.1
		c0.7,0,1.4,0.1,2-0.4c-0.5-1.2-1-2.4-1.5-3.7c-0.7,0-1.4-0.1-2.1-0.1c-2.7,0-5.3,0.1-8,0.2c-2.1,0.2-4.2,0.2-6.3,0
		c-0.8,0-1.7,0-2.5,0.1C1771.6,1031.5,1772.3,1032.8,1772.9,1034.1L1772.9,1034.1z"/>
	<path id="パス_24" class="st0" d="M1660.9,973.7l1.2-0.6v-1c-0.4-0.5-1.3-0.8-1.2-1.9l1.2-0.5c-0.2-1.2-1.1-2.4,0.2-3.7l0.8,0
		c0.1,0.9,0.2,1.7,0.3,2.5l0.2,0c-0.1,0.3-0.2,0.6-0.3,1l0.8,0.3l0.3,0.7l-1.3,2.4l1.2,0.3c0.2,1-0.2,2-1,2.6l1.6,1.2
		c-0.5,0.6-0.9,1-1.4,1.6c-0.1,2.6-0.1,5.3-0.2,8h-1.1c0.1-2.5,0.2-5,0.3-7.3c-0.7-0.9-1.2-1.6-1.8-2.4l1.7-0.8L1660.9,973.7z"/>
	<path id="パス_25" class="st0" d="M1650.8,1031l1.6,0.6l0.4,1.1c-0.4,1-1.3,1.6-2.4,1.7l-0.6-0.6c0.2-0.6,0.3-1,0.4-1.4
		S1650.6,1031.5,1650.8,1031z"/>
	<path id="パス_26" class="st0" d="M1758.1,975.8c0.5,1.5,1.1,2.9,1.4,4.4c0.3,1.4,0.4,3,0.6,4.4c-0.3,2-1.2,4-2.6,5.5
		c-0.3,0.4-0.8,0.8-1.3,1c-2.1,1-4.5,1.6-6.9,1.8c-0.1,0-0.2,0-0.3,0c-2-0.2-3.9-1-5.4-2.3c-0.4-0.3-0.7-0.7-1-1.1
		c-0.8-1.2-1.4-2.4-2-3.6c-0.7-1.9-0.8-3.9-0.4-5.9c0.3-1.6,1-3.1,1.9-4.4c0.7-1.1,1.8-2,3.1-2.4c0.3-0.1,0.6-0.1,1-0.3
		c1.8-1.1,3.8-0.8,5.7-0.9c0.5,0,1,0.2,1.4,0.4c0.8,0.3,1.5,0.7,2.1,1.1l2.3,2.3L1758.1,975.8z M1743.6,975.8c0,0-0.2,0.3-0.4,0.5
		c-1.5,2-2.1,4.5-1.8,7c0.2,1.5,0.7,3,1.5,4.4c1.4,2.8,4,3.8,6.9,3.9c1.4,0,2.9-0.3,4.2-0.8c1.9-0.7,3.5-2.1,4.2-4
		c0.8-1.8,0.9-3.8,0.2-5.7l-1.3,1.4l0.7,2.2c-0.9,0.9-2.1,1.7-2,3.3c-1.1,0.2-1.7,1.3-2.8,1.1v0.7c-0.5,0.6-1,0.2-1.4,0.2l-1.2,0.8
		l-0.3-1.2c-0.9-0.9-1.9,0.5-2.9-0.2c-0.3-1.1-1.3-1.9-2.5-2.1c-0.5-0.1-1-0.3-1.4-0.5c-0.1,0-0.1-0.2-0.2-0.3l0-0.5l1.1-0.5
		l-0.5-1.7c-0.5-0.4-1.2-0.6-1.5-1.4l1.1-0.7c0-0.8-0.2-1.6-0.7-2.3c-0.1-0.2,0-0.5,0-0.8c0.7-0.2,1.5-0.2,1.8-1
		c0.1-0.7,0.1-1.4,0.1-2c0.8-0.6,1.4-0.3,1.9,0.3c-0.4,0.8-0.8,1.5-1.1,2.2l1,1.3l-2,1.8l1.1,1.3c-0.5,0.7-0.5,1.5-0.2,2.2l1.4,0.6
		v1.5l0.8,0.4c0.5-0.3,0.8-0.9,1.7-0.6l0.9,1.4l2.8-0.5c-0.1-0.6-0.1-1.1-0.2-1.6l1.2-0.6l1.1,0.7c0.7-1.2-1.3-1.5-0.6-2.6h1.5
		c0.1-0.4,0.2-0.7,0.3-1.1l-1.5-1.1l0.9-1.4c-0.1-0.7-0.6-0.7-1-0.8s-0.8-0.4-1.2-0.6c0.2-0.5,0.5-0.9,0.4-1.1
		c-0.5-0.6-1.1-1.1-1.9-1.3c-0.5-0.2-0.7-0.7-0.6-1.2l1-0.5c1.2,0.4,1.6,1.7,2.4,2.3l1.4-0.3c0.8,0.8,0.1,1.5,0.2,2.2l0.8,1.5l1-0.4
		c-0.1-1.5-0.7-2.9-1.8-4c-1-1.2-2.3-2.1-3.9-2.4c-1.5-0.2-3.1-0.1-4.6,0.3C1746.3,973.8,1744.8,974.6,1743.6,975.8z"/>
	<path id="パス_27" class="st0" d="M1676.6,973.3c0.7,0.6,1.3,1,1.1,2l-1,1.3h-1.6l-1-1.3l0.9-1.8L1676.6,973.3z M1676.1,974.3
		c-0.4,0.5-0.8,0.7-0.4,1.3C1676.4,975.4,1676.5,975.1,1676.1,974.3L1676.1,974.3z"/>
	<path id="パス_28" class="st0" d="M1752.9,1016.9h2.8c0.9,0.6,1.5,1.6,1.5,2.6c0.2,2,0.6,4,0,5.9c-0.3,1-0.8,1.9-1.2,2.8l-1.7,1
		l-1.3-0.2c-1.9-1.4-2.8-3.8-2.3-6.1c0.1-1.5,0.5-3.1,1.2-4.4C1752.2,1017.9,1752.5,1017.4,1752.9,1016.9z M1753.9,1017.8
		c-1.9,1.6-2.7,5.4-1.9,8.4l1.4,1.6h1c1.2-1.1,1.9-2.6,1.9-4.2c0.2-1.9-0.1-3.8-0.7-5.5L1753.9,1017.8z"/>
	<path id="パス_29" class="st0" d="M1664.7,992.9c2.3,1.3,3.5,3.1,2.5,5.8c-2.1,2.2-3.9,2.5-6.1,1.1c-1.3-1-1.8-2.7-1.5-4.3
		C1660.5,993.2,1661.9,992.5,1664.7,992.9z M1660.6,995.8c0.1,0.8,0.2,1.6,0.2,2.2c1.8,1.5,1.8,1.5,3.7,1.4c1.9-1.3,2.1-1.8,1.5-4
		l-2-1.6l-1.5,0.1L1660.6,995.8z"/>
	<path id="パス_30" class="st0" d="M1753.5,1021.3c0.1-1.2,0.1-1.2,0.7-1.9l1,0.5c-0.1,0.4-0.3,0.7-0.4,1c0.2,0.3,0.3,0.7,0.4,0.8
		v2.3l-0.7,0.6c-0.1,0.5-0.2,1-0.3,1.4c-0.9-0.3-0.9-0.3-0.7-1.7l-0.9-1l0.9-0.6c-0.1-0.3-0.2-0.7-0.3-1.1L1753.5,1021.3z"/>
	<path id="パス_31" class="st0" d="M1663.7,998.2l-1.6-0.6v-1.5c0.5-0.6,1.4-0.9,2.1-0.5C1664.8,996.5,1664.6,997.3,1663.7,998.2z
		"/>
</g>
</svg>
