<?xml version="1.0" encoding="UTF-8"?><svg id="_レイヤー_2" xmlns="http://www.w3.org/2000/svg" viewBox="0 0 108.03 173.45"><defs><style>.cls-1{fill:#424242;}</style></defs><g id="_Шар_1"><g id="_26"><path class="cls-1" d="m68.16,53.26c-.47-2.12-.86-4.13-1.38-6.11-.67-2.54-.71-5.16-1.07-7.74-.3-2.13-.32-4.3-.48-6.59-.25.13-.51.23-.74.38-2.09,1.36-4.06,2.86-5.79,4.67-.55.57-1.21,1.05-1.88,1.48-1.95,1.22-3.94,2.37-5.89,3.58-1,.61-1.96,1.29-2.96,1.92-.89.56-1.81,1.09-2.7,1.66-1.05.67-2.03,1.45-3.12,2.04-2.18,1.17-4.41,2.26-6.63,3.36-1.5.74-3,1.51-4.55,2.15-2.12.89-4.24,1.82-6.44,2.45-2.48.71-4.96,1.6-7.61,1.55-.19,0-.37.02-.56.05-1.83.29-3.65.72-5.48.81-1.14.06-2.31.01-3.46.11-1.24.1-2.48.18-3.71.32-1.16.14-2.31.36-3.52.55-.4-.68-.16-1.26.28-1.7,1.32-1.32,2.25-2.93,3.4-4.38.38-.48.63-1.07.97-1.58,1.3-1.96,2.58-3.95,3.95-5.86.49-.69,1.22-1.22,1.85-1.82,2.07-1.97,4.16-3.92,6.22-5.9,2.12-2.03,4.45-3.77,6.89-5.37.72-.47,1.56-.76,2.34-1.12,1.12-.53,2.3-.97,3.36-1.61,1.14-.69,2.35-1.1,3.62-1.42.65-.16,1.33-.29,1.9-.82-.63-1.02-1.58-1.62-2.45-2.27-1.1-.82-2.08-1.74-2.97-2.8-1.24-1.47-2.67-2.77-4.02-4.15-.65-.66-1.3-1.34-1.96-1.99-.36-.36-.38-.35-.62-1.59.3-.14.62-.42.93-.41,4.46.16,8.91.42,13.38.33,3.16-.06,6.34.05,9.39,1.07.4.13.86.11,1.29.16,2.93.36,5.47,1.59,7.75,3.41.82.66,1.67,1.29,2.54,1.87,1.8,1.19,3.04,2.91,4.34,4.55.52.65,1.21,1.18,1.45,2.1.14.53.73.95,1.25,1.57.16-.42.29-.67.36-.94.58-2.17,1.37-4.26,2.41-6.25.23-.44.46-.88.64-1.34.86-2.14,2.01-4.13,3.27-6.05.6-.92,1.25-1.8,2.25-2.4.61-.37,1.01-1.06,1.56-1.53,1.12-.96,2.21-1.99,3.45-2.79,3.02-1.96,6.16-3.7,9.78-4.37.91-.17,1.83-.31,2.65-.85.29-.19.72-.17,1.08-.25.48-.11,1.01-.14,1.44-.35,1.33-.63,2.73-.69,4.16-.81,1.33-.11,2.63-.65,3.95-.99,1.62-.41,3.25-.83,4.87-1.21.2-.05.45.08.87.17-.34.59-.58,1.08-.89,1.51-1.3,1.82-2.5,3.68-3.55,5.66-.88,1.64-1.93,3.19-2.93,4.76-2.18,3.46-5.21,6.12-8.24,8.79-2.21,1.95-4.72,3.42-7.29,4.8-1.46.79-3.05,1.36-4.58,2.02-1.42.61-2.82,1.26-4.26,1.8-1.47.54-3.03.68-4.59.67-1.25,0-2.31.33-3.21,1.54.89.16,1.67.34,2.45.42,4.01.42,8.03.78,11.98,1.66.54.12,1.05.37,1.55.62,3.52,1.73,6.86,3.76,10.07,6,.61.42,1.16.94,1.67,1.48,2.09,2.21,3.93,4.62,5.45,7.26.25.43.57.81.86,1.22.71,1.01,1.6,1.93,2.1,3.04.62,1.37,1.58,2.32,2.73,3.18-.31.85-.34.89-.9.67-2.5-.98-5.08-1.52-7.78-1.7-1.67-.11-3.33-.15-4.99-.25-1.42-.09-2.83-.28-4.23-.51-2.81-.46-5.66-.77-8.31-1.89-2.27-.09-4.12-1.26-6-2.36-.32-.19-.66-.34-1.01-.48-1.11-.45-2.11-1.03-2.92-1.93-.28-.31-.67-.51-1.01-.75-.56.43-.22.85-.12,1.22.78,2.87,1.59,5.73,2.37,8.61.6,2.22,1.19,4.44,1.75,6.67.17.66.31,1.33.35,2,.13,2.73.4,5.47.28,8.19-.14,3.39.12,6.8-.53,10.19-.43,2.25-.54,4.56-.79,6.84-.24,2.22-.4,4.45-.75,6.64-.39,2.45-.93,4.87-1.46,7.29-.25,1.16-.37,2.32-.41,3.5-.08,2.36-.29,4.71-.44,7.17.5.38,1.23.5,1.85.43.88-.1,1.73.02,2.58,0,3.23-.1,6.46.09,9.67.24,2.64.13,5.32.36,7.88,1.24.98.34,2.08.33,3.12.5.49.08.96.26,1.45.31,1.69.18,2.4,1.4,2.91,2.77.31.82.21,1.63-.64,2.12-.9.52-1.16,1.32-1.37,2.28-.84,3.87-1.31,7.81-2.03,11.7-.29,1.58-.7,3.15-1.12,4.7-.62,2.29-.87,4.64-1.07,6.98-.2,2.36-.51,4.69-.99,7.01-.12.6-.17,1.21-.27,1.93.54.19.99.36,1.44.51.89.28,1.81.47,2.65.84.92.4,1.23,1.14,1.07,2.13-.07.43-.14.87-.31,1.26-.73,1.64-1.5,3.27-2.26,4.89-.41.86-1.08,1.41-1.87,1.98-.8.58-1.62.8-2.5,1.01-1.87.46-3.74.92-5.62,1.37-4.2,1.02-8.46,1.38-12.77,1.28-1.3-.03-2.61.11-3.91.09-1.66-.03-3.3.05-4.95.15-1.73.11-3.48-.09-5.22-.02-2.51.1-4.93-.49-7.38-.84-1.21-.18-2.45-.62-3.49-1.26-1.03-.63-1.92-1.57-2.68-2.52-1.08-1.35-1.96-2.87-2.98-4.27-.76-1.04-1.06-2.21-1.33-3.41.71-1.07,1.59-1.76,2.85-1.97.53-.08,1.03-.38,1.67-.63-.2-1.34-.33-2.63-.58-3.89-.6-2.98-1.24-5.95-2.19-8.86-.45-1.4-.55-2.9-.83-4.36-.15-.79-.33-1.57-.52-2.35-.25-1.02-.54-2.03-.78-3.06-.8-3.38-1.61-6.76-2.37-10.15-.18-.8-.65-1.31-1.24-1.69,0-.69.11-1.32-.02-1.9-.28-1.18.3-1.93,1.13-2.54,1.21-.88,2.53-1.54,4-1.95,2.95-.83,5.95-1.28,8.99-1.45,2.67-.15,5.33-.26,8-.36,1.61-.06,3.23-.05,4.85-.11.67-.02,1.34-.15,2.1-.24.34-1.38.88-2.68.93-4,.08-1.89.76-3.62.99-5.47.24-1.9.67-3.78,1.02-5.67.4-2.14.84-4.26,1.22-6.4.25-1.4.45-2.82.64-4.23.26-1.91.48-3.82.72-5.73.03-.25.07-.49.08-.74.32-5.09.62-10.19.36-15.29-.12-2.29-.44-4.56-1.16-6.76-.29-.88-.43-1.81-.62-2.72-.21-1.03-.4-2.06-.63-3.08-.05-.23-.17-.55-.35-.63-.31-.14-.72-.22-1.03-.13-.19.06-.37.47-.39.74-.02.29.16.59.22.9.15.79.21,1.53-.08,2.36-.44,1.28-.64,2.65-.92,3.98-.45,2.17-1.6,4.04-2.74,5.87-.68,1.09-1.62,2.06-2.58,2.92-1.58,1.4-3.31,2.63-4.91,4-1.24,1.06-2.72,1.73-4.01,2.68-1.74,1.28-3.72,2.13-5.52,3.33-1.48.99-2.97,1.98-4.39,3.04-2.11,1.58-3.94,3.43-5.36,5.67-.1.15-.24.27-.37.4-.04.04-.11.04-.17.06-.42-.08-.68-.29-.57-.77.49-2.05.81-4.16,1.53-6.13,1.14-3.15,2.42-6.27,3.89-9.28.95-1.94,2.33-3.67,3.52-5.49.55-.83,1.09-1.67,1.69-2.45,2.14-2.77,4.76-5.07,7.44-7.29.67-.55,1.3-1.17,2.02-1.65,2.61-1.73,5.4-3.06,8.52-3.6,1.22-.21,2.42-.5,3.75-.78Zm19.46,84.34c.16-.02.09-.03.03,0-.28.13-.57.26-.85.39-2.18,1.05-4.37,1.73-6.83.9-.71-.24-1.55-.22-2.32.27-.55.35-1.25.46-1.9.64-1.94.56-3.83.3-5.65-.44-.57-.23-1.04-.27-1.6-.13-.72.18-1.52.18-2.18.48-1.36.6-2.68.51-4.01.05-1.71-.58-3.37-.55-5.11-.04-1.47.43-3.06.62-4.52-.19-.95-.53-1.89-.53-2.88-.2-1.94.66-3.79.51-5.55-.58-.69-.42-1.46-.62-2.37-.54.29,1.81.53,3.51.86,5.2.18.91.54,1.78.75,2.69.33,1.45.56,2.92.9,4.36.3,1.33.68,2.64,1.03,3.96.33,1.25.24,2.62.9,3.77.7,1.22.4,2.66.95,3.9.17.37.22.8.33,1.24,2.3.29,4.51.68,6.74.82,2.85.18,5.72.12,8.57.24,3.68.15,7.33-.23,11-.32.93-.02,1.87.06,2.79-.02,3.14-.26,6.28-.53,9.42-.87,1.28-.14,2.54-.46,3.78-.69.13-.43.23-.72.3-1.02.66-3.1,1.32-6.2,1.96-9.3.1-.48.13-.99.13-1.49.02-1.25.17-2.48.56-3.68.09-.29.2-.61.18-.91-.09-2.4.66-4.67,1.1-6.98.06-.33.06-.68.08-.98-.89.19-1.69.56-2.43.46-1.33-.17-2.63-.62-4.15-1.01Zm-46.55-3.53c.31.06.5.14.67.11,1.27-.24,2.43-.06,3.48.76,1.17.93,2.52,1.03,3.9.59,1.59-.51,3.2-.67,4.71.09,1.77.89,3.47.71,5.2,0,1.1-.46,2.17-.41,3.27,0,.58.21,1.19.35,1.79.51,1.46.38,2.84-.12,4.2-.5.94-.26,1.78-.28,2.7.1,1.86.77,3.75.92,5.55-.16,1.39-.83,2.89-.86,4.34-.48,2.22.57,4.18.16,6.04-1.09.2-.14.43-.25.61-.35.59.12,1.21.1,1.67.36,1.5.85,2.98.55,4.5.13,1.14-.31,1.79-.97,1.91-2.2.17-1.66.46-3.31.69-4.96.07-.54.12-1.08.2-1.84-.63.3-1.06.51-1.49.69-.39.17-.78.35-1.19.44-1.63.37-3.27.71-4.91,1.05-.79.16-1.58.33-2.38.41-1.24.11-2.49.13-3.73.22-2.36.17-4.71.39-7.07.52-1.92.11-3.84.14-5.77.2-1.35.04-2.71.11-4.06.11-2.23,0-4.47-.17-6.69-.02-2.25.15-4.46.08-6.67-.27-.61-.1-1.22-.24-1.84-.28-3.05-.18-5.95-1.14-8.94-1.62-.43-.07-.84-.23-1.27-.32-.45-.09-.91-.13-1.6-.22.75,2.84,1.38,5.47,2.16,8.03Zm54.69,28.47c-.83.25-1.5.5-2.2.66-3.28.76-6.61,1.18-9.94,1.58-.92.11-1.85.2-2.78.25-2.16.12-4.33.23-6.49.32-2.15.09-4.3-.03-6.46.24-1.83.23-3.71-.01-5.57-.06-.99-.03-1.99-.18-2.98-.1-1.99.16-3.95.04-5.93-.11-3.17-.24-6.3-.6-9.4-1.32-.25-.06-.54,0-1,.02.99,1.69,1.8,3.22,2.96,4.51.61.68,1.29,1.42,2.09,1.8,1.16.55,2.45.85,3.71,1.18,2.3.6,4.67.67,7.01.71,3.1.05,6.2-.08,9.3-.17,3.17-.09,6.34-.29,9.51-.29,2.33,0,4.58-.37,6.82-.9,1.63-.38,3.28-.7,4.9-1.12.89-.23,1.86-.43,2.6-.93,2.13-1.45,3.28-3.58,3.86-6.28Zm-58.26-39.29c1.14,1.25,2.55,1.63,3.93,1.96,2.54.61,5.09,1.15,7.67,1.56,3.56.57,7.14.82,10.76.78,5.84-.07,11.68-.09,17.51-.39,1.05-.05,2.1-.16,3.15-.25,2.22-.2,4.47-.02,6.68-.5,1.7-.37,3.39-.79,5.1-1.09,2.19-.38,4.18-1.13,5.88-2.6.76-.65.82-.82.44-1.73-.26-.6-.62-1.06-1.26-1.29-.76-.27-1.49-.69-2.27-.84-3.97-.78-7.94-1.55-12.01-1.62-2.49-.05-4.97-.2-7.46-.28-1.43-.05-2.86-.06-4.29-.06-.29,0-.63.06-.59.61.24.07.52.22.8.22,1,.02,1.99-.04,2.99-.01,3.61.1,7.22.21,10.83.33,3.57.12,7.03.9,10.46,1.83.75.2,1.17.67,1.28,1.43.1.68-.12,1.25-.71,1.6-.48.28-.98.53-1.5.71-.58.2-1.21.28-1.8.46-2.26.69-4.57,1.17-6.91,1.39-3.68.35-7.38.69-11.08.72-5.16.05-10.32.14-15.48.08-2.42-.03-4.83-.33-7.25-.56-1.67-.15-3.33-.48-4.98-.63-2.25-.2-4.39-.7-6.53-1.31-1.06-.3-1.65-1.09-1.63-2.15,0-.23.09-.55.25-.67.69-.51,1.37-1.17,2.16-1.4,2.08-.59,4.2-1.09,6.36-1.38,3.66-.49,7.33-.43,11-.38,1.92.03,3.85-.22,5.77-.36.41-.03.73-.17.59-.8-.38-.03-.81-.13-1.22-.1-1.36.09-2.72.29-4.09.32-2.49.06-4.98.07-7.47.04-2.07-.02-4.09.29-6.1.69-1.4.28-2.74.84-4.14,1.1-1.77.33-3.28,1.09-4.65,2.36-.06.66-.12,1.4-.19,2.19Zm33.61-65.79c-.36.96-.18,1.68.05,2.39.78,2.43,1.35,4.93,1.44,7.47.13,3.65.25,7.31-.09,10.96-.09.92-.14,1.84-.2,2.77-.12,1.67-.24,3.35-.37,5.02-.09,1.17-.14,2.36-.34,3.52-.62,3.48-1.31,6.95-1.95,10.43-.45,2.44-.86,4.9-1.29,7.35-.23,1.28-.51,2.54-.7,3.82-.14.98-.18,1.97-.63,2.89-.18.37-.23.87-.16,1.28.3,1.94-.14,3.82-.38,5.72-.18,1.39-.01,2.69.6,3.99h1.91c.17-1.89.18-3.67,0-5.46-.11-1.11-.29-2.28-.07-3.34.57-2.71.62-5.43.69-8.17.03-.98.25-1.96.43-2.93.58-3.18,1.26-6.34,1.76-9.53.36-2.33.47-4.7.75-7.04.16-1.35.46-2.69.67-4.04.2-1.33.17-2.68.3-4.02.2-2.16.14-4.35.11-6.53-.04-2.05-.25-4.1-.26-6.14,0-1.51-.19-2.98-.55-4.43-.4-1.61-1.07-3.15-1.28-4.82-.04-.33-.22-.64-.4-1.15Zm20.69,79.88c1.15-.04,2.09-.47,2.91-1.19.1-.09.13-.37.07-.51-.06-.13-.27-.26-.42-.26-.24,0-.48.1-.72.15-1.54.37-3.05.57-4.55-.21-.37-.19-.84-.24-1.27-.27-.28-.02-.64.03-.86.19-2.08,1.53-4.35,1.66-6.74,1-.94-.26-1.79-.27-2.67.31-.61.4-1.36.63-2.07.82-1.28.35-2.61.46-3.85-.04-1.4-.56-2.71-.57-4.16-.13-2.24.68-3.31.53-5.56-.3-.29-.1-.6-.12-.91-.18-.9-.16-1.73.08-2.55.39-1.59.6-3.15.6-4.73-.07-1.42-.6-2.91-.68-4.38-.23-1.84.57-3.46.22-4.85-1.04-.91-.83-1.83-.51-2.78-.28-.35.08-.43.74-.13.93.21.13.44.26.68.3,1.17.22,2.26.66,3.31,1.22.97.53,2.03.56,3.1.37.49-.09.96-.26,1.43-.41.92-.28,1.75-.27,2.68.19,1.11.54,2.33.84,3.61.41.7-.23,1.43-.38,2.16-.54.85-.18,1.71-.29,2.58,0,.59.2,1.21.29,1.8.49.98.34,1.95.32,2.93.04.66-.19,1.32-.36,1.98-.54.86-.24,1.71-.28,2.54.09,2.32,1.05,4.63.82,6.89-.13,1.17-.49,2.29-.51,3.46-.2,1.77.48,3.43.29,5.02-.64,1.31-.77,2.68-.87,4.11-.28.62.25,1.31.35,1.96.52ZM37.81,49.64c1.41-5.76,4.61-10.44,7.3-15.64-.99.24-1.74.5-2.51.6-1.03.13-1.72.73-2.24,1.51-.64.98-1.15,2.04-1.73,3.07-.3.53-.6,1.07-.94,1.58-1.76,2.64-3.12,5.48-4.13,8.48-.23.68-.24,1.43-.39,2.38,1.7-.73,3.16-1.35,4.64-1.98Zm27.4,68.95c-2.81.13-5.6.45-8.36.33-2.3-.1-4.58.04-6.87.09-2.7.06-5.25.71-7.79,1.49-.35.11-.68.31-1.01.47-.48.23-.79.57-.72,1.24,1.27.57,2.48.98,4.03.51,2.47-.74,5-1.49,7.65-1.28.12,0,.25-.02.37-.03,2.77-.19,5.55-.32,8.32-.14.18.01.37,0,.55-.03,1.21-.21,2.42-.43,3.69-.66.34-.62.32-1.27.14-1.98Zm30.63,3.09c-.06-.81-.65-.94-1.29-1.06-2.13-.4-4.24-.89-6.37-1.24-1.59-.26-3.2-.5-4.8-.46-1.68.03-3.33-.28-5-.23-1.05.03-2.1-.03-3.15-.05-1.11-.02-2.22-.02-3.32-.09-.57-.04-1.18-.18-1.54.35-.36.52-.12,1.08.22,1.56.07.09.19.15.31.23.72,0,1.46-.04,2.2,0,1.8.11,3.59.22,5.39,0,.47-.06.98.12,1.45.25,1.38.38,2.73.64,4.19.25.75-.2,1.62-.2,2.39-.04,1.51.31,3.01.72,4.47,1.22,1.65.57,3.2.41,4.85-.7ZM49.67,33.2c-.94.08-1.57.05-2.16.2-.38.09-.82.36-1.03.68-.99,1.5-1.97,3.01-2.84,4.58-.84,1.51-1.57,3.08-2.31,4.65-.66,1.4-1.27,2.82-1.87,4.25-.08.18.06.46.12.87.61-.24,1.12-.41,1.6-.66.55-.29,1.02-.74,1.59-.95,1.14-.42,1.63-1.33,1.9-2.35.96-3.63,2.53-6.98,4.46-10.17.15-.26.26-.54.53-1.08Zm-25.99,22.11c1.37-.02,2.29-.49,3.12-.89.5-1.46.94-2.82,1.44-4.14.5-1.34,1.05-2.66,1.62-3.96.58-1.3,1.31-2.55,1.8-3.88.48-1.3,1.5-2.35,1.8-3.84-2.55.78-3.42,1.58-4.51,3.74-.08.17-.17.33-.26.49-1.47,2.37-2.8,4.8-3.82,7.4-.62,1.58-.71,3.24-1.19,5.08Zm7.81-2.74c.34-1.15.63-2.29,1.02-3.4.49-1.4.97-2.83,1.63-4.16.88-1.78,1.94-3.46,2.91-5.2.57-1.03,1.13-2.07,1.67-3.12.12-.23.46-.46.11-.77-2.18.41-3.59,1.67-4.63,3.62-1.7,3.17-3.08,6.49-4.61,9.74-.62,1.31-.88,2.79-1.33,4.29,1.31.08,2.25-.49,3.23-1.01Zm-3.24-11.32c-.87.51-1.42.91-2.03,1.18-1.15.5-1.9,1.37-2.45,2.45-.5.99-.96,2.01-1.5,2.98-1.33,2.4-2.39,4.9-3.11,7.54-.09.33-.09.68-.14,1.11,1.27.01,2.34-.15,3.28-.62.76-2.52,1.1-5.06,2.23-7.35,1.15-2.33,2.36-4.63,3.72-7.3Zm22.87-8.31c-.99,1.79-2.04,3.54-2.95,5.37-.92,1.85-1.76,3.75-2.3,6.02.63-.23,1.04-.32,1.4-.52.54-.3,1.02-.72,1.57-.99.84-.43,1.29-1.1,1.54-1.98.63-2.22,1.6-4.29,2.72-6.3.26-.47.45-.97.74-1.6h-2.71Zm-27.72,2.1c.05.1.1.2.15.31.74,0,1.48.02,2.22,0,1.48-.05,2.96-.22,4.43-.16,1.42.06,2.82.38,4.24.53.6.06,1.26.12,1.82-.06.81-.25,1.55-.72,2.51-1.19-.45-.27-.73-.58-1.02-.6-1.98-.11-3.88-.74-5.85-.92-2.7-.25-5.34-.19-7.69,1.42-.29.2-.53.45-.8.68Zm50.06,3.92c.13.59.16,1.01.31,1.38.86,2.12,1.78,4.22,2.62,6.35.58,1.46,1.51,2.69,2.33,4,.64,1.02,1.64,1.13,2.7,1.06.03-.17.07-.25.05-.29-.1-.22-.2-.44-.33-.64-1.15-1.76-2.22-3.56-2.73-5.63-.09-.35-.32-.67-.47-1-.38-.84-.86-1.65-1.1-2.53-.45-1.68-1.66-2.28-3.37-2.68Zm3.21-17.36c-.56-3.49.53-6.64,1.4-10.01-1.34.65-2.26,1.6-3.21,2.51-.08.08-.12.22-.14.33-.21.9-.44,1.79-.61,2.69-.32,1.76-.61,3.52-.88,5.28-.09.59-.08,1.2-.12,1.83,1.51-.32,1.64-.42,3.56-2.65Zm-54.28,23.42c-1.61.53-2.74,1.46-3.6,2.7-1.64,2.37-2.5,5.11-3.53,7.76-.19.49-.18,1.06-.27,1.6,2.12.11,2.36-.02,3.07-1.69.15-.34.25-.7.37-1.05,1.01-2.94,2.22-5.79,3.72-8.51.13-.24.16-.54.23-.82ZM82.2,8.52c-.71.33-1.35.56-1.92.91-.29.18-.56.51-.68.83-1.14,3.08-1.94,6.23-2.1,9.53-.01.24.21.49.36.8.57-.4,1.01-.73,1.48-1.03.96-.61,1.37-1.42,1.44-2.61.16-2.71.33-5.44,1.53-7.95.02-.04-.02-.11-.11-.48Zm4.93-2.13c-2.49.3-3.12.76-3.83,2.64-.2.52-.31,1.09-.59,1.56-.76,1.29-.55,2.76-.86,4.13-.15.66.04,1.39.08,2.3,1.19-.95,2.19-1.74,3.04-2.42.25-1.32.4-2.48.71-3.61.4-1.48.92-2.93,1.45-4.6Zm8.45,9.99c-.21-.1-.32-.21-.41-.2-3.51.41-7.01.85-10.52,1.25-.9.1-1.7.39-2.4.92-.42.32-.96.63-.85,1.43,1.23.15,2.45-.01,3.67-.2,1.29-.19,2.59-.29,3.87-.5,1.59-.26,3.19-.43,4.71-1.06.86-.36,1.38-.95,1.92-1.64Zm-18.12,6.15c.04.12.08.23.12.35.72.01,1.44.03,2.16.04,2.87.01,5.72-.12,8.51-.83.71-.18,1.42-.45,2.06-.81.49-.28,1.03-.67,1-1.44-1.92-.22-3.79,0-5.56.42-2.07.48-4.12.83-6.11.66-.8.6-1.49,1.11-2.18,1.62Zm7.92-6.53c.74.34,1.26.32,1.82.24,1.53-.22,3.08-.36,4.62-.58,1.53-.22,3.06-.47,4.59-.75,1.14-.21,1.83-.93,2.18-2.18-.4,0-.7-.03-.99,0-2.16.24-4.33.41-6.47.76-.94.15-1.81.14-2.65-.16-1.02.87-1.95,1.67-3.09,2.65Zm-7.38,25.17c.06.66.01.92.11,1.11.54,1.1,1.24,2.14,1.64,3.28.86,2.43,2.17,4.56,3.9,6.46.66.72,1.41,1.09,2.5.88-.52-.96-.95-1.86-1.47-2.69-1.15-1.84-2.2-3.73-3.01-5.75-.22-.55-.56-1.13-1.01-1.51-.69-.6-1.51-1.04-2.66-1.8Zm-58.85-2.61c.97.03,1.69-.01,2.42-.02,1.36,0,2.73,0,4.09.08,1.11.07,2.21.25,3.32.36.3.03.66.08.9-.04,1.03-.53,2.02-1.13,3.31-1.86-.71-.22-1.09-.41-1.49-.44-2.96-.29-5.92-.31-8.88-.08-1.35.11-2.68.39-3.66,2Zm56-.24c.79-.23,1.55-.46,2.32-.69.77-.23,1.53-.49,2.31-.68.78-.19,1.6-.25,2.36-.48.73-.23,1.55-.05,2.38-.5-1.05-.96-2.23-1.12-3.36-1.35-.41-.08-.86-.05-1.27.04-1.5.34-3.02.56-4.55.72-1,.1-2.1.15-2.97,1.06.91.74,1.76,1.43,2.78,1.87Zm-4.81-1.56c-.25,1.11-.3,1.12-.12,1.62,1.13,3.12,1.59,6.48,3.46,9.36.47.71.84,1.32,1.69,1.55.39.11.74.36,1.27.63-.3-.57-.58-.97-.73-1.4-1.2-3.44-3.09-6.61-4-10.16-.21-.83-.7-1.38-1.56-1.59Zm-8.07,31.71c-.29-1.44-.57-2.64-.76-3.86-.21-1.34-.31-2.69-.49-4.04-.04-.33-.2-.65-.32-.99-1.39.4-1.93,1.2-1.76,2.53.26,2.02.47,4.05.68,6.08.08.75.31,1.4.73,2.05.99-.38,1.39-1.18,1.92-1.79Zm-26.07-41.43c.66.7,1.16.94,1.86.8.78-.16,1.59-.19,2.39-.31.67-.1,1.28-.31,1.87-.72,1.16-.8,2.31-1.65,3.74-1.95.18-.04.32-.26.58-.49-1.09-.54-2.07-1.05-3.13-.69-2.16.73-4.29,1.56-6.41,2.41-.34.14-.55.58-.9.96Zm37.54-.92c1.88.11,3.55.2,5.22.29.12,0,.25,0,.37-.04,2-.61,4.14-.81,5.92-2.04.16-.11.26-.3.47-.56-3.22-.04-6.24.38-9.26.15-.12,0-.28,0-.36.07-.7.67-1.78.91-2.36,2.13Zm-18.99,39.36c-.3.08-.45.07-.53.14-1.37,1.15-1.66,2.67-1.42,4.33.15,1.1.37,2.19.63,3.27.17.7.26,1.48,1.14,1.89.54-.42,1.3-.59,1.55-1.11-.47-2.95-.91-5.68-1.37-8.52Zm31.48-51.81c1.14-.85,1.95-1.41,2.71-2.04.31-.26.57-.65.73-1.03.59-1.43,1.14-2.88,1.67-4.33.11-.3.05-.67.07-1.12-.51.15-.86.34-1.21.35-1.6.04-2.24,1.03-2.61,2.42-.39,1.49-.91,2.95-1.34,4.43-.09.31-.01.67-.01,1.33Zm-3.03,31.12c.13.41.22.7.31.98.64,2.03,1.98,3.71,2.98,5.55.66,1.22,1.63,2.57,3.48,2.18.01-.08.05-.16.03-.2-1.35-2.36-2.69-4.74-3.67-7.29-.1-.26-.33-.53-.56-.68-.69-.44-1.44-.71-2.56-.53Zm-10.11-28.68c-.26.18-.51.28-.62.46-.47.8-.93,1.6-1.32,2.43-.93,2-2.14,3.94-1.38,6.32.07.22-.05.49-.02.74.03.27.12.53.19.84.3-.12.48-.18.64-.26,1.09-.53,1.78-1.24,1.55-2.61-.1-.58.1-1.22.21-1.83.23-1.21.53-2.41.73-3.63.13-.76.37-1.55.02-2.46Zm-15.25,46.03c-1.5.62-2.09,1.58-1.91,2.98.26,2.08.52,4.17.85,6.24.08.51.2,1.13.97,1.31.4-.29.85-.62,1.48-1.08-.83-2.99-1.08-6.11-1.39-9.46Zm21.52-21.56c2.94-1.42,6.18-1.6,9.39-2.1-.91-1.27-2.07-1.57-3.45-1.29-.42.09-.86.12-1.29.15-2.16.19-4.23.86-6.34,1.32-.22.05-.41.22-.69.37.66.82,1.51,1.17,2.38,1.55Zm-51.97-.46c-3.27-.7-6.26-.58-9.28-.18-1.18.16-1.83.77-2.34,1.97.72-.04,1.28-.01,1.81-.12,1.35-.28,2.69-.27,4.06-.05.73.12,1.48.07,2.22.13,1.44.12,2.44-.63,3.54-1.74Zm55.27,2.57c1.87-.43,3.51-.71,5.09-1.19,1.61-.5,3.29-.2,4.97-.48-.22-.7-.74-.96-1.25-1.11-.59-.17-1.22-.27-1.83-.26-2.67.05-5.29.51-7.9,1.08-.36.08-.68.37-1.2.67.87.54,1.54.95,2.11,1.29Zm-27.26-9.81c-1.67,2.32-2.74,4.89-3.78,7.47-.07.18,0,.42,0,.91,1.45-.95,2.68-1.75,3.86-2.52-.27-2.28,1.41-3.83,1.88-5.85h-1.96Zm40.54,10.93c-.44-1.16-1.07-1.54-2.05-1.61-2.94-.23-5.81.07-8.61.98-.14.04-.23.23-.46.5.82.37,1.53.71,2.27,1,.21.08.49.09.72.04,2.6-.59,5.22-.99,8.14-.9Zm-46.17-12.2c-1.1-.67-2.21-.81-3.28-1.08-1.98-.49-4.05-.62-5.92-1.54-.31-.15-.74-.15-1.1-.1-.98.14-1.96.34-2.93.53-.23.05-.45.17-1.07.41.98.11,1.53.14,2.07.24,2.56.49,5.11,1,7.59,1.86,1.49.52,3.04.33,4.64-.33Zm-19.39-.02c.14.11.18.18.23.19,2.85.24,5.65.77,8.38,1.55,1.4.4,2.67.38,4-.03.23-.07.42-.29.67-.47-.23-.17-.31-.27-.42-.31-2.34-.88-4.82-1.09-7.26-1.52-.46-.08-.98.05-1.45.18-.85.23-1.62.39-2.47-.15-.65-.41-1.24-.02-1.69.57Zm-8.12,11.5c-.17-.15-.25-.28-.34-.3-2.51-.35-4.97.04-7.4.56-1.18.25-2.14,1.09-3.12,2.25.63-.07,1-.06,1.34-.15,1.76-.47,3.54-.82,5.35-.52,1.85.3,2.99-.74,4.19-1.84Zm71.12,4.67c1.98-.37,3.52-.66,5.31-.99-.54-.73-.92-1.26-1.25-1.71-4.7-.24-5.82-.14-7.42.63.11.15.18.35.31.43,1.08.6,2.18,1.18,3.04,1.64Zm-44.64-23.9c-.25-.92-.77-1.5-1.27-2.13-1.08-1.36-2.04-2.81-3.12-4.16-.77-.97-2.1-1.12-3.29-.43,1.72,1.55,3.14,3.33,4.39,5.25.1.15.22.31.36.39.71.38,1.42.75,2.15,1.08.19.09.46.01.77.01Zm-32.39,25.57c-1.1.44-1.86,1.1-2.37,1.92-.78,1.24-1.49,2.53-2.04,3.88-.25.61-.63,1.35-.3,2.12.22.06.4.14.57.14,1.48-.03,1.55-.15,1.98-1.57.43-1.41.97-2.78,1.46-4.16.24-.68.8-1.25.69-2.32Zm74.08-1.93c-.45-.22-.93-.5-1.45-.7-.23-.09-.53-.02-.94-.02.7,2.07,1.71,3.77,2.71,5.47.3.52.8.94,1.27,1.33.53.44,1.15.65,1.92.29-1.16-2.1-2.28-4.14-3.51-6.37Zm-81.75,1.12c1.92-.13,3.51-.39,5.09-.32,1.57.07,2.75-.48,3.78-1.54.17-.18.24-.46.39-.75-2.04-.42-3.85.06-5.61.58-.83.25-1.63.49-2.5.35-.38.56-.72,1.04-1.16,1.68Zm34.22-25.94c-.95-.33-1.43-.92-2.19-.69-1.83.57-3.65,1.13-5.46,1.76-.73.25-1.49.54-2.02,1.37.58.43,1.1.82,1.52,1.13,2.58-1.45,5.23-2.29,8.16-3.57Zm9.94,53.46c-.21-1.09-.41-2.18-.62-3.27-.21-1.11-.43-2.22-.66-3.41-1.03.81-1.48,1.3-1.56,1.94-.28,2.06.02,4.03.84,5.99.83-.27,1.47-.62,2.01-1.25Zm.97-55.91c.82,2.48,1.58,4.74,2.36,7.09.42.22.9.51,1.41.73.24.1.53.08.82.11-.07-1.72-.5-3.13-1.28-4.52-.78-1.4-1.75-2.52-3.32-3.42Zm9.57,37.46c-.64-.08-1.06.13-1.15.72-.08.61-.11,1.22-.1,1.84.02.86.03,1.73.15,2.59.18,1.26.35,2.52.95,3.93.63-1.08,1.71-1.8.64-3.05-.11-.13.05-.48.04-.72-.08-1.78-.14-3.57-.54-5.3Zm-8.95-26.52c-1.13-.76-2.54-1.02-3.42-2.13-.13-.16-.45-.21-.69-.24-2.02-.22-4.03-.44-6.37-.04.45.22.63.37.83.4,2.22.33,4.34.95,6.44,1.77.94.37,2.02,1.07,3.21.23Zm-2.58-6.11c0-1.02-.33-1.76-.75-2.4-1.02-1.54-2.12-3.03-3.21-4.53-.46-.64-1.11-.65-1.97-.41.67.95,1.19,1.88,1.89,2.64,1.11,1.2,1.99,2.51,2.4,4.16.5.16,1,.33,1.65.54Zm48.6-14.93c-.21-.1-.27-.15-.33-.15-2.61,0-5.12.66-7.64,1.23-.54.12-1,.58-1.83,1.09,3.34.22,6.12-.92,9.08-.87.16-.22.35-.46.5-.72.09-.15.13-.33.22-.58Zm-4.26-6.61c-.62,1.33-1.17,2.43-1.65,3.57-.11.27.02.66.05,1.01,1.59-.1,2.56-.77,3.06-2.17.21-.58.58-1.09.85-1.65.12-.24.16-.53.28-.96-.97.07-1.75.12-2.59.18Zm-3.31,6.1c.24-.8.38-1.45.63-2.06.35-.85.8-1.67,1.18-2.51.11-.25.15-.53.28-1.03-.93.24-1.63.42-2.3.59-.48,2.1-1.41,3.91-1.94,6.16.95-.5,1.63-.87,2.15-1.14Zm-62.03,13.2c1.2,1.42,1.19,1.41,2.55.83,1.31-.56,2.63-1.07,3.94-1.61.3-.12.56-.32,1.08-.62-2.91-.71-5.25-.14-7.57,1.41Zm17.94,50.43c-1.11.54-1.81,1.32-1.87,2.4-.06,1.2-.05,2.46.63,3.55,1.63-.44,1.99-.84,1.82-2.22-.15-1.21-.37-2.41-.59-3.73Zm44.15-24.38c-.09.12-.23.24-.21.29.66,1.61,1.61,3.05,2.73,4.37.58.68,1.32.77,2.29.33-.39-.52-.74-.93-1.03-1.38-.38-.6-1.05-1.06-.95-1.93.02-.21-.27-.56-.51-.68-.75-.38-1.55-.69-2.32-1.02Zm-40.71-29.59q-1.36-.78-2.31-.6c.1.23.17.47.3.66,1.24,1.79,2.48,3.56,2.96,5.76.11.53.44,1.05,1.3.98,0-.35.09-.73-.02-1.05-.41-1.17-.89-2.31-1.35-3.47-.27-.68-.53-1.36-.89-2.27Zm4.73,18.32c1.73-1.49,3.45-2.97,5.31-4.57-.73-.15-1.26-.34-1.8-.34-.47,0-1.11.04-1.39.33-1.2,1.24-2.08,2.69-2.13,4.58Zm-42.98,11.78c-2.1-.32-3.74-.02-5.35.44-.8.23-1.55.66-1.68,1.85,1.25-.19,2.36-.53,3.44-.48,1.5.07,2.35-.79,3.59-1.81Zm36.62-23.57c-1.07-.21-1.94-.61-2.73-.49-1.14.18-2.24.71-3.33,1.14-.19.08-.3.38-.57.77,1.37,0,2.5-.12,3.59.03,1.26.18,2.16-.2,3.04-1.45Zm41.12,136.41c1.67-.33,3.29-.37,4.58-1.74-1.16-.44-2.19-.85-3.23-1.22-.52-.18-1.06.08-1.18.62-.15.71-.48,1.41-.17,2.34Zm-14.18-134.9c-1.73-.02-3.46-.03-5.18-.06-.67-.01-1.19.21-1.58.94,1.04.36,1.91,1,3.04.74,1.32-.31,2.63-.61,3.72-1.62Zm-39.71-10.56c1.15,1.35,2.15,2.6,3.23,3.76.59.63,1.39.93,2.47,1.09-.21-.41-.28-.65-.43-.81-1.2-1.33-2.42-2.65-3.63-3.97-.45-.49-.95-.43-1.64-.07ZM10.24,57.49c.46-1.37.93-2.77,1.39-4.17.03-.09-.06-.22-.11-.36-1.76.28-2.07,1.92-2.89,3.07-.38.53-.54,1.08-.17,1.77.6-.1,1.14-.2,1.78-.31Zm25.9-37.73c1.1.35,1.98.81,3.02.36-.09-.29-.09-.51-.2-.62-1.01-.97-2.01-1.95-3.09-2.84-.25-.21-.78-.09-1.28-.13.09,1.4,1.65,1.85,1.54,3.22Zm29.1,42.9c.33-1.4.76-2.47.79-3.56.03-1.09.73-2.34-.44-3.36-.34.19-.67.35-.97.56-.14.1-.23.27-.3.35.5,1.91-.03,3.9.91,6Zm-19.88,97.42c-1.5-.15-2.53.36-3.58,1.19,1.14,1.18,2.5,1.45,4.17,1.61-.21-1.01-.38-1.83-.59-2.8ZM3.59,56.07c.11.11.21.21.32.32.99-.62,2-1.2,2.96-1.87.91-.64,2.04-1.03,2.71-2.14-1.35-.23-2.48.19-3.55.6-.48.18-.74.91-1.11,1.39-.44.57-.89,1.14-1.33,1.71Zm31.55-36.78c-.55-.57-1.19-1.07-1.62-1.72-.84-1.27-1.98-1.14-3.3-.99.96,2.26,2.85,2.65,4.92,2.71Zm35.66,26.18c.09-.05.17-.11.26-.16-.43-1.6-.72-3.24-1.32-4.77-.42-1.07-.72-2.09-.62-3.22.07-.79-.13-1.47-.93-2.41.08,1.13.11,1.86.19,2.58.07.67.23,1.34.29,2.02.13,1.68.86,3.21,1.26,4.82.1.43.57.76.87,1.14Zm.21-10c1.38-.46,2.6-.87,3.89-1.3-1.52-.61-4.52-.95-5.9-.66.56.8,1.19,1.43,2.01,1.96Zm-18.58,30.02c-.29-.01-.46-.05-.63-.03-1.12.18-2.08.81-3.12,1.19-.99.36-1.42,1.03-1.91,2.02,1.34-.42,2.49-.82,3.67-1.14,1.06-.29,1.61-.99,2-2.04Zm6.96-36.18c.52.26.94.47,1.58.79-.14-1.4-.21-2.56-.38-3.71-.14-.95-.72-1.6-1.76-2.24.26,1.85.98,3.36.56,5.16Zm-15.28,43.06c1.61-.66,2.78-1.2,3.99-1.61.83-.28,1.33-.81,1.8-1.74-.58.05-1.04-.03-1.37.14-1.31.66-2.58,1.39-3.84,2.13-.2.12-.27.48-.58,1.08Zm1.68,5.12c-1.93.96-2.08,1.43-1.29,3.57.95-.15.95-.15,1.8-.91-.16-.84-.34-1.73-.52-2.66Zm-15.77-55.28c1.04-.56,1.91-1.02,2.77-1.49.03-.01,0-.11.02-.26-1.29-1.35-2.65-.3-4.26-.15.56.72.96,1.23,1.47,1.89Zm71.61-13.68c.08-.28.19-.64.36-1.23-.75.12-1.29.19-1.81.3-.48.1-.95.37-1.42.36-1.12-.04-1.85.65-2.64,1.33,1.74-.24,3.49-.48,5.52-.75Zm-2.51-3.66l.17.34c.32-.1.71-.12.95-.33,1.23-1.04,2.6-1.84,4.02-2.58.16-.08.26-.27.67-.7-1.57.44-2.74.77-3.82,1.08-.69.77-1.34,1.48-1.98,2.2Zm-51.94,67.58c-.95.35-1.53.51-2.05.78-.82.42-1.61.89-2.39,1.38-.36.23-.66.54-.44,1.18.73-.3,1.43-.69,2.18-.87,1.19-.29,1.92-1.02,2.7-2.46Zm48.26-23.95c.9.69,1.64,1.08,2.49,1.1.69.02,1.47.22,2.12-.53-.34-.3-.61-.76-.95-.82-1.12-.2-2.26-.16-3.65.25Zm-26.73-23.39c-.9,1.4-1.63,2.77-1.83,4.52,1.18-.45,1.56-1.38,2.12-2.08-.1-.87-.2-1.65-.29-2.44ZM7.28,55.59c-1.22.81-2.5,1.16-3.45,2.36.5.06.85.11,1.21.14.25.02.5.03.74,0,1.14-.13,1.63-.85,1.5-2.5Zm95.46-2.23c-.47-2.36-1.8-3.16-3.69-2.44.18.19.32.39.51.51.98.61,1.96,1.2,3.18,1.93Zm-.78,1c-1.49-.98-2.65-1.95-4.13-2.49.31.61.76,1.1,1.1,1.65.66,1.06,1.55,1.33,3.03.84Zm2.29-50.53c-1.86.38-2.85,1.41-3.98,2.4,1.22.47,1.95-.64,2.95-.45.32-.61.61-1.15,1.03-1.95Zm-48.81,24.65c-.89-1.47-2.46-1.04-3.3-1.93-.5.27-1.16.21-1.35.98,1.51.31,2.93.6,4.65.96Zm-11.24,48.3c-.12-.06-.24-.17-.33-.16-1.21.2-2.16.86-2.97,1.73-.15.16-.11.5-.2.94,1.53-.62,2.96-.94,3.5-2.52Zm10.94-14.43c-.62.07-1.12.02-1.53.2-.97.44-2.14.56-2.79,1.57,2.1.07,3.22-.36,4.32-1.78ZM29.25,17.73c-.55-.59-1.07-1.14-1.6-1.71-.7.07-1.37.13-2.03.22-.16.02-.31.14-.7.33,1.43.49,2.65.91,3.88,1.32.08.03.21-.07.45-.17Zm32.74,10.23c-.26,1.01-.22,1.78-.05,2.5.67.32,1.24.69,2.05.29-.68-.88-.83-2.03-1.99-2.78Zm-4.71,30.5c2.69-.11,3.06-.28,3.54-1.61-1.33.24-2.46.71-3.54,1.61Zm10.51-14.31c.22-.57.43-.83.39-1.04-.28-1.45-.61-2.89-.94-4.34-.02-.11-.13-.2-.39-.55.17,1.72.3,3.16.47,4.6.04.34.23.65.48,1.33Zm-25.49,38.77c1.15-.82,1.19-1.02.39-2.16-.52.61-1.14,1.15-.39,2.16Zm-1.56-1.62c-.38,0-.61-.07-.69.01-.64.63-1.02,1.39-.95,2.39.51-.74,1.01-1.49,1.63-2.4Zm-14.34-62.75c.44.36.77.72,1.18.94.35.19.71.09.82-.39q-.99-.79-2-.55Zm30.63,12.18c.86.68,1.53.88,2.39.52q-.92-.59-2.39-.52Zm-1.59,29.94q1.67-.2,2.25-.87c-.8-.06-1.46.09-2.25.87Zm14.42-8.42c-.28-.79-.57-1.57-.85-2.36-.11.93-.1,1.81.85,2.36Z"/></g></g></svg>