<?xml version="1.0" encoding="utf-8"?>
<!-- Generator: Adobe Illustrator 27.5.0, SVG Export Plug-In . SVG Version: 6.00 Build 0)  -->
<svg version="1.1" id="レイヤー_1" xmlns="http://www.w3.org/2000/svg" xmlns:xlink="http://www.w3.org/1999/xlink" x="0px"
	 y="0px" viewBox="0 0 50 79" style="enable-background:new 0 0 50 79;" xml:space="preserve">
<style type="text/css">
	.st0{fill:#2C3E50;}
</style>
<g id="_97" transform="translate(-1335.378 -1176.75)">
	<path id="パス_1" class="st0" d="M1383.2,1197.9c0.4,1.6,0.5,3.3,0.4,5c-0.1,1.6-0.1,3.3-0.1,4.9c0,0.5-0.1,0.9-0.1,1.4
		c-0.1,1-0.2,2.1-0.3,3.1c-0.2,1.9-0.5,3.8-0.9,5.6c0.5,0.6,0.9,1.4,1.1,2.1c0.2,0.8-0.2,1.7-0.9,2.1c-0.3,0.2-0.6,0.4-0.9,0.6
		c-0.2,0.1-0.4,0.2-0.6,0.3c-0.4,0-0.8,0.3-1,0.8c-0.1,0.2-0.2,0.4-0.3,0.6c0.1,0.1,0.1,0.2,0.2,0.3c0.5,0.8,0.8,1.6,0.9,2.6
		c0,0.2,0,0.4-0.1,0.6c-0.4,0.8-1,1.4-1.8,1.8c-0.2,0.1-0.3,0.2-0.5,0.3c-0.5,0.3-1,0.5-1.6,0.5c-0.6-0.1-1.2,0.2-1.6,0.7
		c-1.1,1.2-2.4,2.3-3.9,3c-1,0.6-2,1-3.1,1.4c-1.2,0.4-2.5,0.7-3.8,1c-0.3,0-0.5,0.1-0.8,0.2c0.1,0.5,0.2,0.9,0.3,1.3
		c0.3,1.1,0.6,2.2,0.8,3.4c0.1,0.5,0.3,1,0.5,1.5c0.3,0.8,0.6,1.5,0.9,2.3c0.1,0.4,0.4,0.7,0.8,0.8c1.1,0.3,2.1,0.7,3.1,1.3
		c2,1.1,2.9,3.4,2.2,5.5c-0.3,0.8-1,1.4-1.9,1.6c-1.1,0.4-2.3,0.6-3.5,0.7c0,0-0.1,0-0.1,0c-1.4,0.5-2.9,0.3-4.3,0.3
		c-0.7,0-1.4,0-2.1-0.1c-0.9-0.1-1.7-0.3-2.6-0.4c-0.1,0-0.2-0.1-0.3-0.1c-1.2-0.2-2.3-0.4-3.5-0.8c-2.1-0.4-4-1.5-5.9-2.6
		c-0.3-0.2-0.6-0.3-0.9-0.4c-0.9-0.4-1.6-1-2.1-1.8c-0.2-0.3-0.5-0.6-0.5-1c-0.1-0.8,0.1-1.5,0.5-2.2c0.4-0.5,0.8-0.9,1.3-1.4
		c0.5-0.5,1-1,1.5-1.6c0.8-0.9,1.3-2,1.3-3.2c0.1-1.3,0.1-2.7,0.2-4c0-0.7,0.1-1.3,0.2-2c-0.4-0.2-0.8-0.4-1.2-0.6
		c-1.2-0.6-2.4-1.5-3.4-2.4c-0.8-0.7-1.6-1.3-2.4-2c-0.4-0.5-0.8-1-1.2-1.5c-0.3-0.3-0.5-0.7-0.8-1.1c-0.5-0.6-0.8-1.2-1-1.9
		c0-0.1-0.1-0.2-0.2-0.2c-0.5-0.8-0.9-1.6-1.2-2.4c-0.7-1.5-0.9-3.2-1.4-4.7c-0.1-0.1-0.1-0.3-0.1-0.4c0-0.9-0.2-1.7-0.4-2.6
		c-0.3-1.6-0.5-3.3-0.6-4.9c0-0.9-0.1-1.8-0.1-2.7c0-1.5,0.1-3.1,0.4-4.6c0.1-0.6,0.1-1.2,0.2-1.8c0.2-1.2,0.4-2.3,0.8-3.5
		c0.3-1.1,0.6-2.3,1-3.4c0-0.1,0.1-0.3,0.1-0.4c0.4-0.6,0.6-1.2,0.8-1.9c0.2-0.5,0.5-1,0.8-1.5c0.4-0.6,0.8-1.3,1.2-1.9
		c0.5-0.8,1.1-1.5,1.7-2.2c0.7-1,1.5-1.9,2.4-2.7c0.1-0.1,0.2-0.2,0.2-0.3c0.1-0.3,0.4-0.6,0.7-0.6c0.2-0.1,0.4-0.2,0.5-0.3
		c0.8-0.6,1.6-1.1,2.5-1.6c1.3-0.7,2.6-1.3,4-1.6c1-0.3,1.9-0.6,2.9-0.8c0.7-0.2,1.4-0.3,2.2-0.3c0.5,0,1-0.1,1.5-0.1
		c1.1-0.1,2.3,0,3.4,0.3c0.8,0.2,1.7,0.4,2.5,0.6c1.1,0.3,2.2,0.7,3.2,1.2c1.2,0.6,2.4,1.3,3.5,2c0.9,0.5,1.7,1,2.5,1.7
		c0.9,0.7,1.7,1.5,2.5,2.3c0.2,0.2,0.4,0.3,0.6,0.4c0.6,0.2,1.2,0.4,1.8,0.6c0.4,0.2,0.7,0.4,1,0.7c0.1,0.1,0.2,0.2,0.2,0.4
		c0.3,0.7,0.3,1.5,0,2.2c-0.1,0.3-0.2,0.6-0.3,0.9c0.3,0.5,0.5,1,0.8,1.5c0.1,0.2,0.3,0.4,0.5,0.5c0.7,0.2,1.4,0.5,2.1,0.8
		c0.4,0.2,0.9,0.5,1.2,0.8c0.2,0.2,0.4,0.5,0.3,0.8c0,0.8-0.3,1.6-0.9,2.1C1384.1,1197,1383.7,1197.5,1383.2,1197.9z M1370.4,1209.4
		l-0.9-0.7C1369.5,1209.2,1370,1209.3,1370.4,1209.4c0.2,0.5,0.7,0.8,1.2,0.8L1370.4,1209.4z M1384.3,1195.9
		c-0.4,0.4-0.9,0.8-1.3,1.1c-0.5,0.3-0.9,0.7-1.3,1.2c0.3-0.1,0.5-0.4,0.7-0.5c0.7-0.4,1.3-1,1.8-1.6
		C1384.2,1196.2,1384.3,1196,1384.3,1195.9c0.1-0.1,0.2-0.1,0.3-0.2c0.3-0.5,0.4-1,0.2-1.5c0,0-0.1,0-0.2-0.1c0.1,0.5,0,0.9-0.2,1.3
		C1384.4,1195.6,1384.4,1195.8,1384.3,1195.9L1384.3,1195.9z M1380.3,1199.3c-0.1,0-0.2,0-0.3,0.1c-0.7,0.5-1.4,0.9-2.1,1.4
		c-0.1,0.1-0.2,0.2-0.3,0.3c0.1,0,0.2,0,0.3-0.1c0.5-0.3,1.1-0.6,1.6-0.9C1379.8,1199.8,1380.1,1199.6,1380.3,1199.3
		c0.2,0,0.3-0.1,0.5-0.4C1380.5,1199,1380.4,1199.1,1380.3,1199.3L1380.3,1199.3z M1379.5,1222.3c0.4-0.1,0.8-0.4,1.1-0.8
		c0.3-0.7,0.8-1.3,0.8-2.2c0-0.4,0-0.4-0.5-0.6c-0.1,0.4-0.2,0.8-0.3,1.1C1380.2,1220.6,1379.9,1221.5,1379.5,1222.3
		c-0.1,0.3-0.3,0.6-0.4,0.9c-0.2,0.4-0.2,0.4,0.3,0.8C1379.7,1223.5,1379.8,1222.8,1379.5,1222.3L1379.5,1222.3z M1348.4,1193.8
		c0-0.4-0.2-0.7-0.5-0.9c-0.3-0.2-0.6-0.5-0.9-0.7c-0.7-0.5-1.4-1.1-2.2-1.6c-0.8-0.5-1.6-0.7-2.5-0.8c-0.7-0.1-1.3,0.2-1.7,0.8
		c-0.5,0.9-0.9,1.8-1.2,2.7c-0.5,1.3-1,2.6-1.3,4c-0.1,0.5-0.2,1-0.3,1.5c-0.2,0.7-0.3,1.4-0.4,2.1c-0.2,1.5-0.3,3.1-0.4,4.6
		c0,0.7-0.1,1.3,0,2c0.1,1.5,0.2,2.9,0.4,4.3c0.1,1,0.2,2.1,0.5,3.1c0.1,0.6,0.2,1.2,0.3,1.8c0,0.1-0.1,0.2-0.2,0.3
		c-0.1-0.1-0.2-0.1-0.3-0.2c0-0.1-0.1-0.2-0.1-0.4c-0.2-1.3-0.3-2.6-0.5-3.9c-0.1-0.8-0.2-1.5-0.3-2.3c-0.1-1-0.2-2-0.2-3
		c0-0.2,0.1-0.5,0.1-0.7c0-0.9,0-1.8,0-2.7c0.1-1.4,0.3-2.8,0.6-4.2c0.3-1.7,0.7-3.5,1.3-5.1c0.4-1.1,0.9-2.2,1.3-3.4
		c0-0.1,0-0.1,0-0.2l-0.5,0c-0.4,1.1-0.9,2.1-1.3,3.2c-0.6,1.5-1,3.1-1.3,4.7c-0.3,1.7-0.5,3.4-0.7,5c-0.2,1.5-0.2,3-0.1,4.5
		c0.1,1,0.1,2,0.2,3c0.2,1.4,0.5,2.8,0.7,4.2c0.1,1,0.3,2,0.6,3c0.2,0.7,0.4,1.4,0.6,2.1c0.5,1.2,0.8,2.5,1.7,3.5
		c0.1,0.1,0.1,0.2,0.1,0.3c0.5,1.1,1.1,2.1,1.9,3.1c0.8,1.1,1.9,1.9,2.9,2.8c0,0,0.1,0,0.2,0c0.2-0.4,0-0.7-0.3-0.9
		c-1-0.9-1.9-1.9-2.6-3.1c-0.4-0.6-0.7-1.1-1.1-1.7c-0.2-0.4-0.5-0.7-0.9-0.9c-0.4-0.1-0.6-0.5-0.4-0.9c0,0,0,0,0,0
		c0.1-0.2,0-0.5-0.1-0.7c-0.3-0.6-0.5-1.1-0.7-1.7c-0.3-0.7-0.5-1.4-0.8-2.2c-0.2-0.4-0.3-0.8-0.3-1.2c0.2,0,0.4-0.1,0.5,0.2
		s0.1,0.4,0.2,0.6c0.5,1.3,1,2.6,1.5,3.9c0.2,0.5,0.6,0.8,1,0.8c0.9,0.2,1.8,0.2,2.7,0.2c0.1,0,0.3-0.1,0.4-0.1
		c1.2-0.6,2.4-1.4,3.5-2.3c0.1-0.1,0.2-0.2,0.2-0.3c-0.1-0.1-0.2-0.1-0.3-0.1c-0.4-0.1-0.8-0.3-1.2-0.6c-0.3-0.3-0.7-0.5-1.1-0.6
		c-0.9-0.3-1.7-0.7-2.5-1.3c-0.8-0.6-1.5-1.3-2.2-2c-0.7-0.6-1.3-1.4-1.7-2.2c-0.4-0.8-0.4-1.7,0.1-2.5c0.1-0.1,0.1-0.3,0.2-0.4
		c0.6-1.1,1.6-1.9,2.7-2.3c0.2-0.1,0.5-0.2,0.7-0.3c0-0.2,0-0.4,0-0.6c0-0.6-0.1-1.3-0.1-1.9c0-0.7,0.1-1.5,0.2-2.2
		c0.3-2.3,1.1-4.6,2.3-6.6c0.4-0.8,1-1.5,1.8-2.1c0.1-0.1,0.2-0.2,0.3-0.2c0.3-0.3,0.7-0.5,1.1-0.6
		C1348.1,1193.9,1348.3,1193.9,1348.4,1193.8L1348.4,1193.8z M1348.9,1182.4c0.4-0.7,1.2-1.1,2-1.1c0.1,0,0.1,0,0.2-0.1
		c0.2-0.1,0.5-0.1,0.7,0.1c1.2,0.9,2.2,2.1,2.7,3.5c0,0.1,0.1,0.2,0.1,0.3c0.4,0.6,0.7,1.3,0.9,1.9c0.4,1,0.7,2,1,3.1
		c0.1,0,0.2-0.1,0.2-0.1c1-0.7,2.1-1.3,3.1-1.8c0.8-0.4,1.7-0.8,2.6-0.9c1-0.2,2-0.3,3.1-0.4c0.8-0.1,1.5,0,2.3,0.3
		c0.5,0.2,0.9,0.4,1.4,0.5c1.4,0.5,2.7,1.1,4,1.9c0.5,0.3,1,0.7,1.3,1.2c0.1,0.2,0.3,0.3,0.4,0.5c1-0.3,2-0.5,3.1-0.4
		c0.4-0.3,0.3-0.6,0.1-0.9c-0.6-1.1-1.3-2.1-2.1-3.1c-0.5-0.8-1.1-1.5-1.8-2.1c-0.4-0.2-0.7-0.5-1-0.8c-0.4-0.4-0.8-0.8-1.3-1
		c-1.5-1.1-3.2-2-4.9-2.8c-1.1-0.5-2.2-0.9-3.4-1.1c-0.7-0.1-1.4-0.2-2-0.4c-1.2-0.3-2.4-0.4-3.7-0.2c-0.9,0.1-1.8,0.3-2.7,0.5
		c-1.9,0.5-3.8,1.2-5.5,2.2c-0.4,0.2-0.8,0.5-1.3,0.8L1348.9,1182.4z M1349.7,1234.4c-0.1,0.6-0.2,1.2-0.2,1.8
		c0,1.8-0.1,3.7-0.2,5.5c-0.1,0.9-0.2,1.9-0.4,2.8c-0.1,0.3-0.2,0.7-0.3,1c-0.1,0.2-0.2,0.2-0.4,0.1c0.1-0.5,0.3-0.9,0.4-1.4
		c0.2-0.4,0.2-0.9,0.1-1.4c-0.8,0.8-1.5,1.6-2.3,2.5c-0.4,0.3-0.5,0.8-0.2,1.2c0,0,0.1,0.1,0.1,0.1c0.4,0.6,0.9,1,1.4,1.4
		c0.9,0.5,1.9,1,2.9,1.4c0.7,0.3,1.5,0.4,2.2,0.6c0.9,0.2,1.7,0.3,2.6,0.4c1.1,0.1,2.2-0.1,3.2-0.6c0.4-0.2,0.7-0.5,0.7-0.9
		c0.1-0.6,0.1-1.2-0.1-1.8c-0.3-0.8-0.5-1.7-0.9-2.5c-0.3-0.9-0.6-1.8-0.8-2.8c-0.4-1.6-0.7-3.2-1-4.9c-0.1,0-0.2-0.1-0.4-0.1
		c-1.4-0.4-2.8-0.7-4.2-1.1c-0.5-0.1-1-0.4-1.4-0.7C1350.5,1234.6,1350.1,1234.4,1349.7,1234.4L1349.7,1234.4z M1365.5,1226.1
		c0.4,0,0.7-0.1,1-0.1c0.6-0.1,1.1-0.3,1.7-0.4c1.1-0.3,2.2-0.7,3.2-1.3c0.7-0.4,1.3-0.9,2-1.3c0.1-0.1,0.2-0.2,0.3-0.3
		c0.3-0.3,0.5-0.6,0.8-0.9s0.6-0.5,0.6-1c-0.4-0.5-0.9-1.1-1.3-1.6c-0.9-1.1-1.8-2.2-2.7-3.2c-0.9-1.1-1.8-2.2-2.7-3.3
		c-0.4-0.4-0.4-0.4-0.9-0.1c-0.2,0.1-0.3,0.3-0.5,0.4c-0.1,0.1-0.2,0.1-0.3,0.1c-0.5,0.1-1,0.1-1.5-0.1c-0.2-0.1-0.4-0.1-0.6-0.1
		c-0.2,0.3-0.5,0.6-0.7,0.9c-0.6,0.8-1.2,1.6-1.8,2.3c-0.4,0.3-0.4,0.9-0.2,1.3c0.4,0.8,0.8,1.7,1.1,2.6c0.4,1,0.9,1.9,1.2,2.9
		C1364.6,1223.9,1365.1,1224.9,1365.5,1226.1L1365.5,1226.1z M1349.8,1205.8c-0.4,0.3-0.7,0.4-0.9,0.6c-0.7,0.4-1.4,0.7-2.1,1
		c-1,0.3-2,0.6-3,0.9c-0.7,0.2-1.5,0.5-2.2,0.8c-0.7,0.2-1.4,0.7-1.8,1.3c-0.2,0.3-0.4,0.6-0.6,0.9c-0.2,0.3-0.3,0.7-0.3,1.1
		c0,0.8,0.3,1.6,0.9,2.2c0.7,0.7,1.4,1.4,2.1,2.1c0.9,0.9,2,1.6,3.2,2c0.2,0.1,0.5,0.2,0.7,0.3c0.8,0.4,1.6,0.8,2.3,1.2l2.9-2.3
		c-0.3-1-0.5-1.9-0.7-2.8c-0.3-1.5-0.5-3.1-0.5-4.7c0-0.4,0-0.8,0-1.2c0-0.8,0-1.7,0.1-2.5
		C1349.8,1206.4,1349.8,1206.2,1349.8,1205.8L1349.8,1205.8z M1358.4,1237c0,0.7,0.1,1.3,0.2,2c0.3,1.2,0.6,2.4,1,3.6
		c0.3,1.3,0.8,2.5,1.4,3.6c0.6,1.1,1.3,2.1,2,3.1c0.5,0.5,0.7,1.1,0.5,1.8c-0.1,0.1-0.3,0.2-0.4,0.3c-0.1,0.1-0.3,0.1-0.4,0.1
		c-0.6,0.2-1.2,0.3-1.8,0.3c-1.2,0.1-2.4,0-3.6-0.3c-0.1,0-0.2,0-0.4,0c-0.5,0-0.9-0.1-1.4-0.2c-1.5-0.4-2.9-0.8-4.4-1.4
		c-1.6-0.5-3.1-1.4-4.4-2.4c-0.4-0.3-0.7-0.7-0.9-1.1c-0.1-0.1-0.2-0.3-0.3-0.5c-0.1,0.2-0.3,0.3-0.3,0.5c0,0.2,0.1,0.4,0.3,0.6
		c0.2,0.2,0.4,0.4,0.6,0.7c0.4,0.5,1,1,1.5,1.4c0.7,0.5,1.5,0.9,2.3,1.2c1.8,0.9,3.7,1.5,5.6,1.9c1.3,0.3,2.5,0.4,3.8,0.6
		c0.9,0.1,1.9,0.2,2.8,0.2c0.6,0,1.2-0.1,1.8-0.2c1.1-0.1,2.2-0.2,3.2-0.3c1.2-0.1,2.3-0.3,3.4-0.7c0.5-0.2,0.9-0.5,1.2-1
		c0.1-0.2,0.1-0.4,0-0.6c-0.4-0.8-1-1.6-1.8-2.1c-0.4-0.2-0.7-0.5-1.1-0.7c-0.6-0.3-1.3-0.5-2-0.7c0,0.4,0.2,0.8,0.6,0.8
		c0,0,0,0,0.1,0c0.2,0,0.3,0.1,0.5,0.1c1.3,0.3,2.2,1.5,2,2.9c0,0,0,0,0,0c-0.8,0.5-1.2,0.4-1.7-0.4c0,0,0,0,0-0.1
		c-0.3-0.5-0.7-1-1-1.5c-0.3-0.4-0.5-0.8-0.7-1.3c-0.1-0.3-0.2-0.5-0.4-0.8c-0.3-0.5-0.6-1-0.7-1.5c-0.6-1.4-1-2.8-1.4-4.3
		c-0.2-1-0.5-2-0.7-3c-0.1-0.2-0.2-0.4-0.3-0.7L1358.4,1237z M1357.5,1191.7c0.2,0.7,0.4,1.3,0.6,1.9c0.1,0.3,0.3,0.6,0.7,0.7
		c0.3,0.1,0.6,0.2,0.9,0.2c1.1,0.1,2.1,0.6,2.8,1.5c0.5,0.6,0.9,1.3,1.2,2.1c0.1,0.3,0.2,0.6,0.3,0.9c0.3-0.3,0.6-0.7,0.9-1.1
		c0.2-0.3,0.4-0.6,0.6-0.8c0.4-0.4,0.9-0.7,1.2-1.2c0.6-0.7,1.3-1.3,2.1-1.8c1.2-0.9,2.6-1.7,4.1-2.2c0.2-0.1,0.5-0.2,0.7-0.4
		c-0.1-0.1-0.1-0.2-0.1-0.2c-0.5-0.4-1-0.8-1.6-1.2c-1.1-0.5-2.2-1-3.3-1.3c-0.9-0.3-1.9-0.4-2.8-0.4c-0.8,0.1-1.6,0-2.3,0.2
		c-0.8,0.2-1.7,0.5-2.5,0.7c-0.7,0.3-1.3,0.7-1.9,1.1C1358.3,1190.8,1357.8,1191.2,1357.5,1191.7L1357.5,1191.7z M1349.8,1205.3
		c0.1-0.2,0.1-0.4,0.1-0.5c0-0.8,0.1-1.6,0.2-2.4c0-0.3,0.1-0.6,0.2-0.9c0.3-1.2,0.6-2.4,0.9-3.4c-1-1.3-2.1-2.3-2.6-3.8
		c-0.4,0-0.9,0.1-1.2,0.4c-0.3,0.3-0.7,0.6-1,0.8c-0.7,0.7-1.3,1.6-1.8,2.5c-0.3,0.7-0.6,1.3-0.9,2c-0.4,1.1-0.7,2.2-0.9,3.3
		c-0.2,1.2-0.3,2.4-0.2,3.6c0,0.3,0.1,0.6,0.2,0.9c0.6-0.2,1.3-0.3,1.9-0.5C1346.6,1207,1348.3,1206.3,1349.8,1205.3L1349.8,1205.3z
		 M1360.8,1209.7c-0.6-1.2-0.3-2.4-0.4-3.6c-0.3-0.1-0.6-0.2-0.8-0.2c-0.5-0.1-0.9-0.2-1.3-0.3c-0.9-0.4-1.8-0.5-2.8-0.6
		c-1.2,0-2.3,0.1-3.4,0.4c-0.5,0.1-0.7,0.3-0.7,0.8c0,1.1-0.1,2.1-0.1,3.2c0,1.9,0.2,3.8,0.7,5.7c0.1,0.5,0.2,1,0.5,1.5
		c0.5-0.4,1-0.7,1.4-1.1c0.9-0.7,1.8-1.5,2.8-2.2c0.8-0.7,1.6-1.3,2.4-2C1359.6,1210.7,1360.2,1210.2,1360.8,1209.7L1360.8,1209.7z
		 M1377.9,1214.3c0.1-0.5,0.2-0.9,0.3-1.3c0.1-1.2,0.5-2.3,0.6-3.5c0.2-1.5,0.2-3,0.2-4.6c0-0.9-0.1-1.9-0.2-2.8
		c0-0.1-0.1-0.3-0.1-0.4c-0.3,0.2-0.5,0.3-0.7,0.6c-0.8,1-1.8,1.6-3,1.9c-0.3,0.1-0.7,0.3-1,0.3c-0.5,0-1,0.2-1.3,0.5
		c-0.2,0.2-0.5,0.4-0.7,0.5c-0.7,0.4-1.4,0.8-2,1.2c-0.1,0.1-0.2,0.2-0.2,0.3c-0.3,0.7,0,1.4,0.6,1.8c0.5,0.4,1,0.7,1.6,1.1l1.4,1
		c0.6,0.4,1.2,0.8,1.7,1.2c0.8,0.6,1.5,1.2,2.2,1.8C1377.4,1214,1377.6,1214.2,1377.9,1214.3L1377.9,1214.3z M1375.8,1194.1
		c-0.5-0.6-0.9-1.1-1.3-1.6c-0.2-0.3-0.6-0.4-0.9-0.3c-0.6,0.2-1.2,0.4-1.7,0.6c-1.6,0.7-3.1,1.7-4.3,2.9c-0.3,0.3-0.6,0.6-0.9,0.8
		c-0.6,0.5-1.1,1-1.5,1.7c-0.5,0.8-1.1,1.6-1.6,2.4c-0.4,0.5-0.4,1.2,0,1.6c0,0,0,0,0,0c0.1,0.1,0.2,0.2,0.3,0.3
		c1.3-0.9,3.1-0.7,4.2,0.5c0.2-0.2,0.4-0.4,0.5-0.6c0.2-0.3,0.4-0.6,0.7-0.9c1-0.9,1.9-1.9,2.7-3c0.6-0.7,1.1-1.4,1.7-2.1
		C1374.4,1195.7,1375.1,1195,1375.8,1194.1L1375.8,1194.1z M1341.2,1224.4c0,0.1,0,0.2,0,0.3c0.6,0.9,1.2,1.8,1.8,2.7
		c0.7,0.9,1.5,1.8,2.4,2.5c0.1,0.1,0.1,0.1,0.2,0.1c0.8,0.3,1.7,0.2,2.4-0.3c0.6-0.5,1.2-1.1,1.8-1.6c0.2-0.2,0.3-0.4,0.3-0.7
		c0.1-0.7,0.2-1.4,0.3-2.1c0.2-1.1,0.5-2.3,0.7-3.4c0.1-0.3,0.1-0.6,0.1-0.8c-0.6-0.1-1.1-0.1-1.6-0.1c-0.3,0-0.5,0.1-0.8,0.2
		c-0.8,0.6-1.6,1.2-2.4,1.8c-1.3,1.1-3,1.7-4.7,1.5C1341.7,1224.3,1341.5,1224.4,1341.2,1224.4L1341.2,1224.4z M1371.8,1251.5
		c-0.7,0.5-1.5,0.9-2.3,1c-1.3,0.2-2.6,0.4-4,0.5c-1,0.1-1.9,0.1-2.9,0.2c-0.5,0.1-1,0.1-1.5,0c-1.2-0.2-2.5-0.2-3.7-0.4
		c-1.1-0.3-2.3-0.4-3.4-0.7c-1-0.2-2-0.6-3-1c-1.2-0.5-2.4-1-3.6-1.7c-0.7-0.4-1.2-1-1.7-1.6c-0.2-0.3-0.5-0.6-0.8-0.7
		c-0.1,0.1-0.1,0.2-0.2,0.4c0,0.2,0,0.5,0,0.7c0,0.2,0.1,0.4,0.2,0.5c0.1,0.1,0.2,0.2,0.2,0.4c0.2,0.4,0.6,0.8,1,1.1
		c0.5,0.3,1.1,0.6,1.6,0.9c0.7,0.4,1.4,0.8,2.2,1.2c1.4,0.8,2.9,1.4,4.5,1.7c1.1,0.2,2.3,0.4,3.4,0.6c1.3,0.3,2.7,0.5,4.1,0.4
		c0.2,0,0.4,0,0.7,0c1.1,0.1,2.3,0,3.4-0.2c0.1,0,0.3-0.1,0.4-0.1c1.1-0.1,2.1-0.3,3.1-0.6c0.6-0.1,1.2-0.4,1.6-0.9
		C1371.8,1252.9,1372,1252.2,1371.8,1251.5L1371.8,1251.5z M1355.6,1224c-0.4,0.4-0.7,0.8-1,1.1c-1.2,1.5-2.5,3-4,4.3
		c-0.2,0.2-0.4,0.4-0.4,0.7c-0.1,0.7-0.1,1.4-0.2,2.1c0,0.1,0,0.2,0,0.4c0,0.3,0.2,0.5,0.5,0.6c0.8,0.3,1.7,0.6,2.5,1
		c0.2,0,0.4,0.1,0.5,0.2c0.7,0.4,1.5,0.7,2.3,0.8c0.3,0.1,0.5,0.1,0.8,0.1c0-0.1,0.1-0.2,0.1-0.3c-0.1-0.9-0.2-1.9-0.2-2.8
		c-0.1-1.2-0.2-2.4-0.2-3.6c0-1,0-2.1,0.1-3.1c0.1-0.4-0.1-0.8-0.4-1.1C1355.8,1224.2,1355.7,1224.2,1355.6,1224L1355.6,1224z
		 M1363.3,1235.5c0.6-0.1,1.1-0.2,1.6-0.4c1.2-0.4,2.5-0.8,3.7-1.2c0.9-0.3,1.7-0.7,2.4-1.3c0.7-0.6,1.4-1.2,2.1-1.8
		c0.5-0.5,0.9-1,1.3-1.5c0.4-0.6,0.8-1.2,1.3-1.7c0.8-0.9,1.4-2,1.8-3.1c0.1-0.1,0.1-0.3,0-0.4c-0.3-0.5-0.7-1-1.1-1.5
		c-0.1,0.4-0.1,0.7-0.2,1c-0.3,1-0.5,1.9-0.9,2.9c-0.4,1.1-1,2.2-1.8,3.1c-0.8,1.1-1.8,1.9-3,2.5c-0.7,0.4-1.7,0.4-2.4-0.1
		c-0.6-0.4-1.1-1-1.5-1.6c-0.4-0.8-0.7-1.6-1-2.4c-0.1-0.2-0.2-0.4-0.3-0.7c-0.5,0.1-1,0.1-1.5,0.1c-0.5-0.1-1-0.1-1.6-0.1
		c0.1,0.6,0.1,1.1,0.2,1.7c0.1,0.9,0.2,1.9,0.3,2.8C1362.8,1233.1,1363,1234.3,1363.3,1235.5L1363.3,1235.5z M1366,1227.4
		c-0.2,0.4,0.1,0.6,0.2,0.9c0.4,1.1,1,2.2,1.8,3.1c0.5,0.6,1.2,0.8,1.9,0.5c0.4-0.2,0.7-0.3,1-0.6c1.3-0.9,2.3-2.1,3.1-3.4
		c0.4-0.7,0.7-1.4,1-2.1c0.5-1.1,0.8-2.3,0.9-3.5c-0.4,0.1-0.5,0.4-0.8,0.7c-0.4,0.5-0.9,0.9-1.5,1.3c-0.9,0.5-1.8,1-2.7,1.5
		c-0.5,0.2-1,0.4-1.4,0.6C1368.4,1226.9,1367.3,1227.3,1366,1227.4L1366,1227.4z M1361.8,1227.2c-0.7-0.2-1.4-0.4-2.1-0.6
		c-0.7-0.3-1.3-0.6-2-1c0,0.8,0,1.6,0,2.3c-0.1,1.5,0,3,0.2,4.4c0.1,0.7,0.1,1.3,0.1,2c0,0.4,0.1,0.7,0.3,1c1.5,0.3,3,0.3,4.5,0
		C1362.2,1232.7,1362.3,1229.9,1361.8,1227.2L1361.8,1227.2z M1354.8,1191.8c-0.1-0.2-0.2-0.4-0.3-0.6c-0.5-0.7-1.1-1.4-1.7-2.2
		c-0.1-0.2-0.3-0.3-0.4-0.5c-0.6-1-1.4-1.9-2.2-2.8c-0.3-0.2-0.5-0.5-0.7-0.8c-0.3-0.3-0.6-0.6-0.9-0.9c-0.1,0.4-0.2,0.8-0.2,1.1
		c-0.1,0.4-0.1,0.8-0.2,1.2c-0.2,1.3-0.5,2.6-0.1,3.9c0,0.1,0,0.1,0,0.2c0,0.3,0.1,0.5,0.3,0.7c0.8,0.7,1.5,1.5,2.2,2.2
		c0.6,0.6,1.2,1,1.8,1.6L1354.8,1191.8z M1369.1,1207.1c0-0.4-0.1-0.8-0.2-1.2c-0.2-0.7-0.5-1.4-0.8-2.1c-0.1-0.2-0.4-0.4-0.6-0.6
		c-0.3-0.4-0.7-0.6-1.2-0.7c-0.5-0.1-0.9,0-1.4,0.1c-0.8,0.3-1.4,0.8-1.8,1.6c0,0.1-0.1,0.2-0.2,0.3c-0.6,0.8-0.8,1.8-0.7,2.8
		c0.1,1.1,0.3,2.1,0.6,3.1c0.1,0.6,0.6,1.1,1.1,1.4c0.1,0,0.2,0.1,0.3,0.2c0.4,0.3,0.8,0.5,1.3,0.6c0.4,0.1,0.8,0.1,1.1-0.1
		c0.6-0.3,1.1-0.8,1.4-1.4C1368.6,1209.8,1369,1208.5,1369.1,1207.1L1369.1,1207.1z M1368.8,1204.4c0.2,0.3,0.3,0.2,0.5,0.2
		c0.7-0.3,1.4-0.5,2.1-0.6c0.2,0,0.4-0.1,0.6-0.3c1-0.6,2.1-1.2,3.1-1.8c0.9-0.5,1.8-1.1,2.6-1.6c0,0,0.1,0,0.1-0.1
		c0.1-0.1,0.2-0.3,0.2-0.4c-0.2-1.4-0.6-2.7-1.2-3.9c-0.1-0.2-0.2-0.4-0.3-0.5L1368.8,1204.4z M1355.9,1193.3
		c-0.9,0.9-1.6,1.9-2.1,3c0.4,0.4,0.7,0.9,1.1,1.3c0.7,0.8,1.5,1.5,2.3,2.2c0.3,0.3,0.6,0.6,0.8,0.8c0.4,0.4,0.8,0.7,1.2,1.1
		c0.8,0.7,1.5,1.5,2.2,2.2l0.9-0.7c-0.4-0.8-0.9-1.6-1.3-2.3c-0.6-0.9-1.1-1.9-1.7-2.8c-0.1-0.2-0.2-0.3-0.3-0.4
		c-0.6-0.8-1.2-1.6-1.7-2.5C1356.8,1194.6,1356.4,1194,1355.9,1193.3L1355.9,1193.3z M1380,1200.4c0.1,1,0.2,1.8,0.3,2.7
		c0.1,0.6,0.1,1.2,0.2,1.8c0,0.5,0.1,1.1,0.1,1.6c0,0.7-0.1,1.5-0.1,2.2c0,0.9-0.1,1.9-0.3,2.8c-0.4,1.2-0.6,2.5-0.9,3.8l1.5,1.3
		c0.1-0.2,0.2-0.3,0.2-0.5c0.1-1.2,0.4-2.3,0.6-3.5c0.2-1.1,0.2-2.3,0.3-3.5c0.1-1,0.2-2.1,0.3-3.2c0-0.5,0.1-1,0.1-1.5
		c0-1,0-2.1-0.1-3.1c-0.1-0.8-0.2-1.5-0.3-2.4C1381.1,1199.3,1380.5,1199.8,1380,1200.4L1380,1200.4z M1375.9,1219.9
		c0.1-0.2,0.2-0.3,0.2-0.4c0-1-0.1-1.9-0.2-2.9c-0.2-1.1-0.8-2.2-1.5-3.1c-0.8-1-1.7-1.8-2.7-2.5c-0.6-0.4-1.2-0.8-1.8-1.2
		c-0.2-0.1-0.4-0.2-0.6-0.3l-0.6,1.5c0.2,0.2,0.3,0.3,0.5,0.5c0.8,1,1.6,2,2.3,3c0.1,0.1,0.3,0.3,0.4,0.5c0.4,0.6,0.9,1.2,1.4,1.8
		c0.7,0.7,1.3,1.4,1.8,2.2C1375.4,1219.3,1375.6,1219.6,1375.9,1219.9L1375.9,1219.9z M1376.5,1185.2c-0.8-0.9-1.6-1.7-2.6-2.4
		c-0.6-0.5-1.2-0.9-1.9-1.3c-0.7-0.5-1.4-1-2.2-1.4c-1.2-0.7-2.5-1.2-3.9-1.6c-1.7-0.6-3.5-0.9-5.3-1.1c-1.1-0.1-2.3-0.1-3.4,0.1
		c-1.6,0.2-3.2,0.6-4.7,1.2c-0.1,0.1-0.3,0.1-0.4,0.1c-1.1,0.3-2.1,0.7-3.1,1.2c-0.6,0.4-1.3,0.7-1.9,1.1c-0.1,0.1-0.2,0.2-0.3,0.3
		c0.1,0,0.2,0,0.4,0.1c0.4,0.2,0.8,0.1,1.1-0.1c1.6-1,3.3-1.8,5.1-2.4c1.4-0.4,2.8-0.8,4.2-1c0.1,0,0.2,0,0.4,0c1.5,0,3-0.2,4.5,0.3
		c0.5,0.2,1,0.2,1.5,0.3c0.9,0.2,1.9,0.5,2.8,0.8c1.7,0.7,3.3,1.6,4.8,2.6c0.7,0.4,1.4,0.9,2,1.4c1,0.8,1.9,1.8,2.6,2.8
		c0.8,1,1.5,2.1,2.2,3.2c0.1,0.2,0.2,0.3,0.3,0.4c0.2-0.1,0.3-0.3,0.2-0.5c0,0,0,0,0-0.1c-0.2-0.3-0.3-0.7-0.5-1
		c-0.3-0.6-0.6-1.3-1.4-1.5c-0.1,0-0.1-0.1-0.2-0.1C1376.4,1186.3,1376.4,1185.8,1376.5,1185.2L1376.5,1185.2z M1361.1,1211.2
		c-0.1,0.1-0.3,0.2-0.4,0.3c-0.5,0.3-0.9,0.7-1.4,1.1c-0.8,0.7-1.6,1.4-2.4,2c-1,0.9-2,1.7-3,2.6c-0.3,0.2-0.5,0.5-0.8,0.7
		c0.4,0.6,0.4,1.2,0.9,1.7c0.2,0,0.3-0.1,0.5-0.2c0.8-0.4,1.5-0.8,2.2-1.3c0.9-0.6,1.7-1.3,2.2-2.2c0.3-0.5,0.7-0.9,1.1-1.4
		c0.4-0.4,0.7-1,0.8-1.5c0.1-0.4,0.1-0.8,0.2-1.2C1361.1,1211.6,1361.1,1211.4,1361.1,1211.2L1361.1,1211.2z M1378.1,1224.8
		c-0.2,0.3-0.3,0.6-0.5,0.9c-0.4,0.7-0.8,1.4-1.3,2c-0.4,0.5-0.8,1-1.2,1.6c-0.8,1.1-1.7,2.1-2.8,2.9c-0.7,0.6-1.4,1.1-2.1,1.6
		c-0.1,0.1-0.3,0.1-0.4,0.1c-0.2,0.1-0.3,0.1-0.5,0.2c-0.6,0.2-1.2,0.5-1.9,0.7c-0.4,0.2-0.9,0.2-1.3,0.4c-1.3,0.5-2.8,0.8-4.2,0.8
		c-1.4,0.1-2.7,0-4.1-0.2c-1.3-0.2-2.7-0.5-4-0.8c-0.2-0.1-0.5-0.2-0.7-0.3c-0.3-0.2-0.6-0.3-1-0.5c-1.4-0.4-2.7-1.1-3.9-1.9
		c-0.3-0.2-0.6-0.5-1-0.7c-0.4-0.2-0.9-0.3-1.4-0.1c0.1,0.1,0.2,0.2,0.3,0.3c0.6,0.5,1.3,1,2,1.3c0.5,0.2,1,0.4,1.4,0.6
		c0.6,0.2,1.1,0.5,1.6,0.8c0.3,0.2,0.6,0.4,0.9,0.5c0.7,0.2,1.4,0.4,2.1,0.6c1.3,0.3,2.6,0.6,3.9,0.8c2.1,0.2,4.2,0.2,6.3-0.3
		c1.2-0.2,2.4-0.5,3.5-0.9c0.7-0.3,1.5-0.6,2.2-1c1.7-0.8,3.3-1.9,4.6-3.3c0.3-0.2,0.4-0.6,0.3-0.9c-0.1-0.4,0.2-0.8,0.5-0.8
		c0,0,0,0,0,0c0.2-0.1,0.4-0.2,0.5-0.4c0.8-1.1,1.5-2.2,2.2-3.3C1378.5,1225.3,1378.4,1225.1,1378.1,1224.8L1378.1,1224.8z
		 M1355.4,1250.7l0,0.1c0.3,0.1,0.6,0.1,0.9,0.2c0.4,0.1,0.9,0.1,1.3,0.2c0.5,0.1,1,0.2,1.5,0.2c0.7,0,1.3,0,2,0
		c0.5,0,0.9-0.1,1.4-0.2c0.3,0,0.6-0.3,0.6-0.7c0-0.1,0-0.2-0.1-0.3c-0.2-0.3-0.3-0.6-0.5-0.8c-0.4-0.7-0.9-1.3-1.3-2
		c-0.2-0.4-0.4-0.8-0.6-1.2c-0.4-0.7-0.8-1.4-1-2.2c-0.4-1.1-0.6-2.2-0.9-3.3c-0.2-0.8-0.4-1.5-0.6-2.3c-0.1-0.5-0.1-1-0.2-1.6
		l-0.7-0.1c0,0.1,0,0.3,0,0.4c0.3,1.3,0.6,2.6,0.9,3.9c0.3,1.1,0.6,2.2,0.9,3.3c0.2,0.5,0.3,1,0.5,1.5c0.3,0.8,0.5,1.7,0.4,2.6
		c0,0.5-0.3,1-0.8,1.2c-0.7,0.4-1.4,0.6-2.1,0.7L1355.4,1250.7z M1342.5,1187.9c0.2,0,0.3,0.1,0.5,0.1c0.4,0,0.9,0.1,1.3,0.3
		c0.7,0.3,1.4,0.8,2.1,1.3c0.4,0.3,0.8,0.6,1.3,0.9c-0.1-2.2,0.2-4.4,0.7-6.6c-1.3-0.7-1.1-0.8-2.4,0.2c0,0,0,0-0.1,0.1
		c-0.6,0.6-1.3,1.1-1.9,1.7C1343.3,1186.3,1342.8,1187.1,1342.5,1187.9L1342.5,1187.9z M1356.1,1190.7c0.2-0.1,0.2-0.3,0.2-0.4
		c-0.1-0.2-0.2-0.5-0.2-0.7c-0.3-0.8-0.5-1.6-0.8-2.4c-0.4-1-0.8-1.9-1.3-2.8c-0.5-0.9-1.2-1.8-2-2.4c-0.5-0.4-1.2-0.4-1.7-0.1
		c-0.5,0.2-0.7,0.6-0.7,1.1c0.4,0.4,0.9,0.8,1.4,1.3c0.5,0.5,0.9,1,1.3,1.5c1.1,1.5,2.2,3,3.3,4.5
		C1355.7,1190.3,1355.8,1190.6,1356.1,1190.7L1356.1,1190.7z M1339.8,1190.2c0.2-0.1,0.4-0.2,0.6-0.3c0.5-0.3,1-0.5,1.6-0.5
		c1.1,0.1,2.2,0.4,3.2,1c0.6,0.4,1.1,0.8,1.7,1.2c1,0.7,2,1.6,2.9,2.5c0.5,0.6,1.1,1.1,1.6,1.7c0.8,0.8,1.6,1.6,2.5,2.3
		c0.9,0.9,1.7,1.7,2.6,2.6c1.3,1.2,2.6,2.5,3.9,3.7c0.4,0.4,0.8,0.7,1.3,1.1c0.2-0.2,0.1-0.3,0-0.5c-0.6-0.6-1.1-1.2-1.7-1.8
		c-0.6-0.7-1.2-1.3-1.9-1.9c-1-0.8-1.8-1.8-2.7-2.6c-0.4-0.3-0.7-0.7-1.1-1.1c-1-1-1.9-1.9-2.9-2.9c-0.8-0.7-1.6-1.4-2.3-2.1
		c-0.3-0.3-0.5-0.7-0.9-1c-1-0.8-2-1.6-3-2.4c-0.7-0.5-1.6-0.8-2.4-0.9c-1.1-0.1-2.2,0.4-2.9,1.2
		C1339.7,1189.7,1339.7,1190,1339.8,1190.2L1339.8,1190.2z M1361.2,1217l-1.2,1.5c0.1,0.4,0.1,0.7,0.2,1c0.1,0.3,0.1,0.7,0.2,1
		c0.2,0.5,0.4,1,0.9,1.4c0.1,0.1,0.2,0.2,0.2,0.4c0.2,0.6,0.3,1.2,0.5,1.8c0.1,0.6,0.2,1.2,0.3,1.8c0.8,0.3,1.7,0.4,2.6,0.2
		c-0.3-0.9-0.6-1.7-0.9-2.5c-0.1-0.4-0.3-0.8-0.4-1.2c-0.1-0.3-0.2-0.6-0.4-1c-0.4-0.9-0.8-1.8-1.2-2.7
		C1361.7,1218.2,1361.5,1217.6,1361.2,1217L1361.2,1217z M1345.4,1230.5c0,0.4,0.2,0.5,0.4,0.5c0.1,0,0.3,0,0.4,0
		c1,0.2,2.1-0.1,2.9-0.8c0.6-0.5,1.1-1,1.6-1.5c0.7-0.7,1.4-1.3,2-2.1c0.5-0.5,0.9-1.1,1.4-1.6c1.1-1.3,2.3-2.7,3.4-4
		c0.4-0.5,0.8-1.1,1.2-1.7c0.8-1,1.6-1.9,2.4-2.9c0.3-0.4,0.6-0.7,0.9-1.1c0.8-0.9,1.5-1.8,2.1-2.8l-0.4-0.4
		c-0.7,0.9-1.5,1.8-2.2,2.7c-0.4,0.5-0.8,0.9-1.2,1.4c-0.5,0.7-1,1.4-1.5,2c-1.7,2.2-3.5,4.3-5.3,6.5c-0.5,0.6-1,1.2-1.6,1.8
		c-0.4,0.4-0.8,0.8-1.2,1.2c-0.7,0.8-1.6,1.6-2.4,2.3c-0.7,0.6-1.6,0.7-2.5,0.5C1345.7,1230.5,1345.6,1230.5,1345.4,1230.5
		L1345.4,1230.5z M1363.4,1203c-0.3-0.4-0.6-0.8-0.8-1.2c-0.4-0.6-0.7-1.2-1.1-1.8c-0.8-1.3-1.7-2.5-2.4-3.8c-0.9-1.6-1.9-3.1-3-4.5
		c-0.7-1-1.5-2-2.2-3c-0.8-1.3-1.8-2.5-2.8-3.6c-0.8-0.9-1.8-1.8-2.7-2.6c-0.9-0.6-2.1-0.6-2.8,0.1c0,0,0,0.1-0.1,0.2
		c0.3-0.1,0.6-0.1,0.9-0.2c0.2,0,0.4-0.1,0.5-0.1c0.7,0.3,1.4,0.6,2.1,0.9c1,1,2,2,2.8,3.1c0.8,1.1,1.6,2.3,2.5,3.4
		c1,1.4,2,2.8,2.9,4.2c0.3,0.5,0.6,0.9,0.9,1.4c0.4,0.5,0.8,1.1,1.2,1.6c0.2,0.2,0.4,0.4,0.5,0.7c0.4,0.7,0.9,1.5,1.3,2.2
		c0.6,0.9,1.2,1.9,1.7,2.9c0.1,0.1,0.2,0.3,0.3,0.4L1363.4,1203z M1360,1205.4l0-0.1c-0.4-0.3-0.8-0.5-1.2-0.8
		c-1.4-0.7-2.6-1.6-3.6-2.7c-0.5-0.6-1.1-1-1.7-1.3c-0.7,1.3-0.9,2.8-0.7,4.2c0.4,0,0.9-0.1,1.3-0.1c1.2-0.1,2.3,0,3.4,0.3
		c0.6,0.1,1.3,0.3,1.9,0.5C1359.6,1205.4,1359.8,1205.4,1360,1205.4L1360,1205.4z M1381.7,1217.6c0.1-0.1,0.2-0.2,0.2-0.2
		c0.2-1.4,0.5-2.8,0.7-4.2c0.2-1.5,0.3-3,0.4-4.6c0.1-1.4,0.1-2.7,0.1-4.1c0-0.7,0-1.3,0-2c0-0.8,0-1.7,0-2.5
		c-0.1-0.6-0.2-1.2-0.3-1.7c0,0-0.1,0-0.1-0.1l-0.4,0.3c0.1,0.8,0.2,1.6,0.3,2.5c0.1,1.1,0.1,2.2,0.1,3.2c0,0.3,0,0.5,0,0.8
		c-0.1,0.9-0.2,1.8-0.2,2.7c-0.1,1.6-0.3,3.2-0.4,4.9c-0.1,0.8-0.2,1.6-0.4,2.4c-0.1,0.7-0.2,1.3-0.3,2L1381.7,1217.6z
		 M1376.8,1220.9l1.8,2.2c1-1.6,1.6-3.4,1.8-5.3l-1.6-1.2c-0.3,0.7-0.5,1.5-0.8,2.1C1377.6,1219.5,1377.2,1220.1,1376.8,1220.9
		L1376.8,1220.9z M1352.1,1197c-0.1,0.1-0.1,0.2-0.1,0.3c-0.3,1-0.5,1.9-0.8,2.9c-0.2,0.4-0.3,0.9-0.4,1.3c-0.2,1.4-0.4,2.7-0.5,4.1
		c-0.1,1.5-0.1,3-0.1,4.6c0,1.9,0.2,3.7,0.7,5.6c0.1,0.6,0.3,1.1,0.6,1.6c0.3-0.1,0.4-0.2,0.4-0.5c0-0.2-0.1-0.4-0.1-0.6
		c-0.2-0.6-0.3-1.3-0.5-1.9c-0.3-1.5-0.5-3-0.5-4.5c0-1.8,0.1-3.6,0.2-5.4c0-0.4,0.1-0.8,0.2-1.2c0.2-0.8,0.4-1.7,0.6-2.5
		c0.2-1,0.5-1.9,0.8-2.8C1352.6,1197.4,1352.6,1197.4,1352.1,1197L1352.1,1197z M1356.7,1191.7c0.2-0.2,0.4-0.4,0.6-0.6
		c0.5-0.5,1-0.9,1.6-1.2c0.1-0.1,0.2-0.2,0.4-0.3c0.3-0.2,0.7-0.4,1-0.6c1-0.4,2-0.7,2.9-1c0.1,0,0.2,0,0.3,0c0.7,0.1,1.4,0.1,2.1,0
		c1.1-0.1,2.1,0.1,3.1,0.4c0.9,0.3,1.9,0.7,2.7,1.1c0.2,0.1,0.4,0.2,0.6,0.4c0.4,0.3,0.8,0.6,1.2,0.8c0.6,0.4,1.2,1,1.6,1.6
		c0.3,0.5,0.7,0.9,1.1,1.4l0.3-0.4c-0.7-0.7-1.3-1.4-1.9-2.1c-0.4-0.6-0.9-1-1.5-1.3c-0.1,0-0.2-0.1-0.3-0.2c-1-0.7-2.2-1.2-3.4-1.6
		c-0.2-0.1-0.4-0.2-0.6-0.3c-0.9-0.5-1.9-0.7-2.9-0.6c-0.3,0-0.7,0.1-1,0.1c-1.1,0.1-2.2,0.4-3.3,0.7c-0.7,0.3-1.3,0.6-1.9,0.9
		c-0.7,0.4-1.5,0.8-2.2,1.2c-0.4,0.2-0.7,0.5-1,0.9L1356.7,1191.7z M1377.7,1186.2c0.2,0.1,0.4,0.1,0.5,0.2c0.3,0.1,0.7,0.3,1,0.5
		c0.5,0.3,0.8,0.9,0.7,1.4c0,0.6-0.3,1.3-0.6,1.8c-1.3,1.9-2.7,3.7-4.2,5.5c-0.1,0.1-0.2,0.3-0.3,0.4c-1.1,1.1-1.9,2.3-2.9,3.4
		c-0.6,0.7-1.1,1.3-1.7,1.9c-0.7,0.6-1.3,1.3-1.7,2.1l0.3,0.4c0.4-0.5,0.7-0.9,1.1-1.3c1.1-1.3,2.2-2.6,3.3-3.9
		c1.1-1.2,2.1-2.4,3.1-3.7c0.8-1.1,1.6-2.2,2.5-3.2c0.6-0.8,1.2-1.7,1.5-2.7c0.1-0.4,0.2-0.8,0.2-1.2c0-0.6-0.3-1.1-0.8-1.4
		c-0.7-0.5-1.5-0.8-2.3-0.9c-0.3-0.1-0.5,0.1-0.4,0.4c0,0.2,0.2,0.3,0.4,0.3L1377.7,1186.2z M1350.8,1226.9c1.4-1.1,2.7-2.5,3.6-4.1
		l-1.9-2.2l-0.5,0.2c-0.2,1-0.5,2-0.7,3C1351,1224.8,1350.8,1225.9,1350.8,1226.9L1350.8,1226.9z M1362.7,1200.8
		c0.7-0.8,0.7-0.9,0.6-1.7c-0.1-1.3-0.8-2.5-1.8-3.3c-0.7-0.6-1.6-0.9-2.5-0.8C1360.1,1197.1,1361.3,1199,1362.7,1200.8
		L1362.7,1200.8z M1357.7,1222.5c0,0.2-0.1,0.3-0.1,0.4c-0.1,0.4,0.1,0.8,0.4,1c1.1,0.7,2.2,1.3,3.5,1.7c0,0,0.1,0,0.2-0.1
		c-0.1-0.6-0.2-1.3-0.3-1.9c-0.1-0.4-0.2-0.8-0.4-1.2c-0.1-0.4-0.5-0.6-0.9-0.6C1359.4,1221.9,1358.5,1222.1,1357.7,1222.5
		L1357.7,1222.5z M1368.5,1211.6c-0.3,0.2-0.3,0.4-0.1,0.6c0.5,0.6,1.1,1.3,1.6,1.9c1,1.2,2,2.4,2.9,3.6c0.7,0.9,1.4,1.7,2.2,2.5
		c0.4,0.5,0.9,0.9,1.3,1.4c0.8,1.1,1.6,2.3,2.4,3.4c0.2,0.3,0.4,0.6,0.6,0.9c0.3,0.5,0.4,1,0.4,1.6c-0.1,0.6-0.4,1.1-0.9,1.3
		c-0.8,0.5-1.7,0.8-2.6,0.7c-0.1,0-0.2,0-0.3,0.1c-0.2,0.1-0.4,0.1-0.3,0.4c0.1,0.1,0.2,0.2,0.3,0.2c0.8,0.1,1.6-0.1,2.2-0.5
		c0.1-0.1,0.3-0.2,0.5-0.3c0.4-0.1,0.7-0.4,0.9-0.8c0.2-0.3,0.4-0.5,0.6-0.8c0.1-0.1,0.1-0.3,0.1-0.4c-0.1-1-0.5-2-1.1-2.8
		c-0.2-0.2-0.4-0.4-0.5-0.6c-0.8-1-1.5-2-2.3-2.9c-0.5-0.6-0.9-1.1-1.4-1.7c-0.4-0.5-0.8-1-1.3-1.5c-0.5-0.6-1-1.1-1.5-1.7
		c-0.5-0.6-1-1.3-1.5-1.9c-0.3-0.4-0.6-0.7-0.8-1C1369.4,1212.7,1369,1212.1,1368.5,1211.6L1368.5,1211.6z M1379.4,1191.7l-1.8,2.2
		c0.3,0.6,0.5,1.1,0.7,1.6c0.2,0.5,0.4,1.1,0.6,1.6c0.1,0.5,0.3,1,0.5,1.5c0.3-0.2,0.5-0.5,0.5-0.8c0.2-1.2,0.3-2.4,0.2-3.6
		C1380.1,1193.3,1379.8,1192.5,1379.4,1191.7L1379.4,1191.7z M1355.9,1223.6c0.2,0.2,0.4,0.5,0.7,0.7c0.2,0.2,0.5,0.4,0.8,0.5
		c1.1,0.9,2.5,1.5,3.9,1.8c0.6,0.1,1.2,0.2,1.8,0.3c0.3,0.1,0.5,0.1,0.8,0.1c0.8-0.1,1.7-0.2,2.5-0.2c0.1,0,0.3,0,0.4,0
		c1.2-0.3,2.3-0.7,3.4-1.2c0.1,0,0.2-0.1,0.3-0.1c1.3-0.4,2.4-1,3.4-1.9c0.7-0.5,1.2-1.2,1.7-1.9c-0.3-0.2-0.3-0.2-0.5,0
		c-0.3,0.3-0.7,0.6-1,1c-0.9,0.9-1.9,1.7-3,2.2c-1.1,0.6-2.3,1.1-3.5,1.3c-0.9,0.3-1.9,0.4-2.8,0.4c-0.9,0-1.8-0.1-2.6-0.3
		c-0.8-0.2-1.6-0.5-2.4-0.8c-1.2-0.5-2.4-1.2-3.4-2.1c0,0-0.1,0-0.2,0L1355.9,1223.6z M1340,1223.2c0,0.1,0,0.2,0.1,0.3
		c0.2,0.2,0.5,0.3,0.8,0.3c0.5,0,1,0,1.5,0.1c0.8,0.1,1.6-0.1,2.3-0.4c0.8-0.4,1.6-0.9,2.3-1.5c1-0.8,2.1-1.6,3.1-2.4
		c0.4-0.3,0.9-0.7,1.3-1.1c0.7-0.6,1.5-1,2.1-1.6c0.7-0.7,1.5-1.2,2.2-1.8c0.7-0.6,1.4-1.2,2.1-1.8c0.8-0.7,1.6-1.4,2.4-2.1
		c0.6-0.5,1.2-1,1.9-1.5c0.2-0.1,0.2-0.3,0-0.4c-0.6,0.5-1.2,1-1.8,1.4c-0.8,0.6-1.5,1.3-2.2,1.9c-1.2,1.1-2.4,2.1-3.7,3.1
		c-0.6,0.4-1.1,0.8-1.6,1.2c-0.6,0.6-1.4,1.2-2.1,1.7c-0.2,0.2-0.5,0.3-0.7,0.5c-1.1,0.9-2.3,1.8-3.4,2.7c-0.4,0.3-0.8,0.6-1.2,0.8
		c-0.4,0.2-0.8,0.4-1.2,0.5c-1.2,0.3-2.5,0.2-3.7-0.1C1340.2,1223.2,1340.1,1223.2,1340,1223.2L1340,1223.2z M1353,1197.8
		c-0.1,0.2-0.2,0.5-0.3,0.7c0,0.2,0,0.3,0.1,0.5c0.5,0.7,1.2,1.3,1.8,1.8c0.4,0.3,0.8,0.7,1.2,1.1c0.7,0.8,1.5,1.4,2.4,1.9
		c0.6,0.3,1.1,0.7,1.7,1c0.1,0.1,0.2,0.1,0.3,0.2l0.1-0.1L1353,1197.8z M1378.6,1214.9c0.1-0.1,0.1-0.2,0.1-0.2
		c0.3-0.6,0.4-1.2,0.5-1.9c0.3-1.1,0.5-2.2,0.6-3.3c0-0.4,0-0.8,0-1.2c0-1,0.1-2.1,0-3.1c0-1-0.2-2-0.3-3c0-0.5-0.1-1-0.4-1.4
		c-0.1,0.2-0.3,0.3-0.3,0.3c0.2,0.7,0.2,1.5,0.2,2.3c0.1,1.1,0.2,2.3,0.1,3.4c-0.1,1.3-0.2,2.5-0.3,3.8c-0.1,0.7-0.3,1.4-0.4,2.1
		c-0.1,0.6-0.2,1.2-0.4,1.7C1378.3,1214.6,1378.3,1214.8,1378.6,1214.9z M1355.9,1221.3c1.1-1.4,2.2-2.7,3.3-4.1
		c0.1-0.2,0.2-0.4,0-0.6c-0.5,0.5-0.9,0.9-1.4,1.4c-0.5,0.4-1.1,0.8-1.6,1.1c-0.6,0.3-1.2,0.6-1.7,0.9
		C1354.5,1220.8,1355.1,1221.1,1355.9,1221.3L1355.9,1221.3z M1357.6,1235.4c0-0.2,0.1-0.4,0.1-0.6c-0.1-1.1-0.2-2.3-0.2-3.4
		c-0.1-1.2-0.1-2.3-0.2-3.5c0-0.8,0-1.6,0-2.4c0-0.2,0-0.4-0.3-0.4c-0.1,0-0.1,0.1-0.1,0.1c0,1.1-0.1,2.2-0.1,3.2
		c0,0.9,0.1,1.7,0.2,2.6c0.1,1.2,0.1,2.4,0.2,3.5c0,0.2,0,0.4,0.1,0.6C1357.2,1235.2,1357.3,1235.3,1357.6,1235.4L1357.6,1235.4z
		 M1362.2,1210.3c-0.4,0.1-0.7,0.4-0.7,0.9c-0.1,0.5-0.1,1-0.2,1.5c0,0.4,0,0.8-0.1,1.2c0,0.2,0.1,0.3,0.1,0.5
		c0.6-0.9,1.4-1.5,1.9-2.4C1362.8,1211.4,1362.5,1210.9,1362.2,1210.3L1362.2,1210.3z M1382.8,1196.6c0.6-0.4,1.1-0.9,1.4-1.6
		c0.1-0.4,0-0.7-0.3-0.9c-0.5-0.2-1-0.4-1.5-0.6c-0.2,0-0.3,0-0.5,0L1382.8,1196.6z M1340.8,1188.2c0.4-0.1,0.9-0.1,1.2-0.5
		c0.1-0.2,0.3-0.5,0.5-0.7c0.5-0.7,1-1.4,1.7-2c0.5-0.4,1-0.8,1.4-1.3c0.1-0.1,0.2-0.2,0.3-0.4c-0.6-0.2-1.3,0.1-1.7,0.6
		c-0.1,0.1-0.2,0.2-0.3,0.4c-0.7,0.8-1.3,1.7-2,2.6C1341.4,1187.3,1341.1,1187.8,1340.8,1188.2L1340.8,1188.2z M1376.6,1229.1
		c0.7,0,1.3-0.2,1.9-0.5c0.8-0.4,1.1-1.3,0.7-2.1c-0.1-0.2-0.3-0.4-0.5-0.5c-0.3,0.5-0.6,1.1-0.9,1.6
		C1377.4,1228,1377,1228.5,1376.6,1229.1L1376.6,1229.1z M1382.4,1219.6l0.1-0.1c-0.1-0.3-0.3-0.6-0.5-0.9c-0.6-0.6-1.2-1.2-1.9-1.7
		c-1.4-1.2-2.8-2.3-4.2-3.4c-0.3-0.3-0.7-0.5-1-0.7c-0.5-0.4-1-0.9-1.5-1.3c-0.2-0.2-0.5-0.3-0.8-0.3c0.3,0.3,0.7,0.6,1,0.9
		c0.6,0.5,1.2,1,1.8,1.4c0.8,0.6,1.6,1.2,2.4,1.8c0.7,0.6,1.5,1.3,2.2,1.8c0.8,0.6,1.5,1.3,2.1,2.1
		C1382.3,1219.4,1382.3,1219.5,1382.4,1219.6L1382.4,1219.6z M1379.8,1191.2c0.4,1,0.9,2,1.2,3c0.4,1,0.6,2,0.9,3
		c0.4-0.1,0.5-0.3,0.4-0.6c-0.3-0.9-0.6-1.9-0.9-2.8c-0.1-0.2-0.2-0.3-0.3-0.5c-0.4-0.4-0.6-0.8-0.3-1.3c-0.3-0.4-0.4-0.9-0.8-1.2
		L1379.8,1191.2z M1352,1204.9c0-0.2,0-0.3,0-0.4c0.1-1,0.2-1.9,0.5-2.8c0.2-0.4,0.3-0.9,0.4-1.3c0.1-0.4,0.1-0.6-0.4-0.8
		c-0.8,2.6-1.2,4.6-1,5.4c0.1,0,0.1,0,0.2,0C1351.8,1204.9,1351.9,1204.9,1352,1204.9L1352,1204.9z M1352.1,1218.7
		c0.6,1.5,1.5,2.8,2.7,3.8l0.2-0.3c-0.4-0.7-0.8-1.3-1.2-1.9c-0.4-0.6-0.8-1.3-1.2-2L1352.1,1218.7z M1359.5,1219.1
		c-0.7,0.7-1.1,1.5-1.7,2.2c0.8,0.5,1.6,0.1,2.4,0C1360,1220.6,1359.8,1219.9,1359.5,1219.1L1359.5,1219.1z M1376.7,1218
		c0.4-0.8,0.6-1.7,0.7-2.6c-0.6-0.6-1.3-1-2-1.5c0.2,0.7,0.5,1.3,0.9,2C1376.5,1216.5,1376.3,1217.3,1376.7,1218L1376.7,1218z
		 M1361.2,1205.8c-0.4,0.3-0.3,0.8-0.3,1.2c0,0.4,0,0.8,0,1.2c0.1,0.4-0.1,0.8,0.4,1.2l0.7-0.5c0-0.3-0.1-0.5-0.1-0.7
		c-0.1-0.4-0.1-0.8,0-1.2C1361.9,1206.4,1361.7,1205.9,1361.2,1205.8C1361.2,1205.8,1361.2,1205.7,1361.2,1205.8L1361.2,1205.8z
		 M1367.4,1248c0.7,0.9,1.1,1.9,1.8,2.6c0.3-0.1,0.5-0.5,0.3-0.9C1369.3,1248.7,1368.4,1248,1367.4,1248L1367.4,1248z
		 M1349.1,1193.9c0.1,0.6,0.3,1.1,0.7,1.6c0.4,0.7,0.9,1.3,1.6,1.7c0.4-0.7,0.3-0.7-0.2-1.2c-0.6-0.5-1.1-1.1-1.7-1.7
		C1349.5,1194.3,1349.3,1194.1,1349.1,1193.9L1349.1,1193.9z M1378.6,1199.7c0.5-0.3,0.5-0.3,0.3-0.7c-0.3-0.9-0.6-1.9-1-2.8
		c-0.2-0.5-0.4-1-0.7-1.5c0,0-0.1-0.1-0.2-0.1l-0.2,0.4C1377.7,1196.4,1378.3,1198,1378.6,1199.7L1378.6,1199.7z M1380.2,1198.6
		c0.4-0.3,0.7-0.5,1-0.7c0.3-0.2,0.4-0.5,0.2-0.8c-0.2-0.5-0.4-1.1-0.6-1.6c0-0.1-0.1-0.2-0.2-0.3c-0.1,0.5-0.2,1.1-0.2,1.6
		C1380.5,1197.4,1380.4,1198,1380.2,1198.6L1380.2,1198.6z M1355.2,1192.4c-0.8,0.9-1.5,1.8-2,2.9c0,0-0.1,0.1-0.1,0.1
		c0,0.1,0,0.3,0.1,0.3c0.1,0,0.2,0,0.3,0c0.1-0.1,0.2-0.2,0.2-0.3c0.1-0.3,0.3-0.5,0.4-0.8c0.4-0.6,0.9-1.2,1.4-1.7c0,0,0-0.1,0-0.1
		L1355.2,1192.4z M1349.7,1230.3c-0.3,0.2-0.6,0.4-0.9,0.6c-0.3,0.2-0.6,0.3-1,0.5c0.4,0.2,0.7,0.4,1,0.6c0.3,0.1,0.5,0.5,0.9,0.5
		C1349.5,1231.8,1349.9,1231.1,1349.7,1230.3L1349.7,1230.3z M1377.9,1191.3c-0.8,0-1.6,0.1-2.3,0.4l1.1,1.2
		C1377.2,1192.4,1377.6,1191.9,1377.9,1191.3L1377.9,1191.3z M1351.7,1219c-0.6,0.4-1.1,0.8-1.6,1.3c0,0,0,0.1,0,0.2
		c0.7,0.1,1.5-0.1,2.1-0.4L1351.7,1219z M1376.4,1220.3c0.1-0.1,0.2-0.1,0.2-0.1c0.5-0.8,0.9-1.7,1.3-2.6c0.1-0.3,0.2-0.7,0.3-1.1
		c0.1-0.3,0-0.5-0.3-0.5L1376.4,1220.3z M1382.6,1219.7c0,0.3,0,0.5,0,0.7c0,0.7-0.5,1.4-1.2,1.6c-0.2,0.1-0.4,0.1-0.6,0.2
		c-0.4,0-0.5,0.3-0.7,0.6c0.4,0.1,0.8,0,1.2-0.2c0.3-0.2,0.5-0.4,0.8-0.5c0.4-0.2,0.7-0.6,0.8-1
		C1383.1,1220.6,1382.9,1220.2,1382.6,1219.7L1382.6,1219.7z M1372.9,1203.8c-0.7,0.4-1.4,0.8-2.1,1.2c-0.5,0.3-0.9,0.5-1.4,0.8
		l0.1,0.3C1370.6,1205.3,1372,1204.9,1372.9,1203.8L1372.9,1203.8z M1379.3,1188.9c0.4-1.3,0-1.9-1.1-1.9L1379.3,1188.9z
		 M1381,1221.6c0.5,0,0.9-0.3,1-0.8c0.2-0.4,0.1-0.8-0.3-1.1L1381,1221.6z M1374.9,1203.6c1-0.1,1.9-0.7,2.4-1.5
		C1376.5,1202.4,1375.7,1202.9,1374.9,1203.6L1374.9,1203.6z M1359.8,1216.3c0.4-0.5,0.8-0.9,1.1-1.4c0.2-0.3,0.1-0.4-0.1-0.6
		C1360.3,1215,1359.7,1215.4,1359.8,1216.3L1359.8,1216.3z M1375.5,1202.4c-0.5,0.2-1,0.4-1.5,0.8
		C1374.6,1203.1,1374.7,1203.1,1375.5,1202.4L1375.5,1202.4z M1357,1223.1l0.4-0.9c-0.5-0.1-0.5,0.3-0.7,0.6L1357,1223.1z
		 M1362.6,1203.9c-0.3,0-0.6,0.1-0.7,0.4l0.3,0.5C1362.4,1204.4,1362.7,1204.2,1362.6,1203.9L1362.6,1203.9z M1382.2,1192.7l-1-0.2
		C1381.5,1193,1381.5,1193,1382.2,1192.7L1382.2,1192.7z M1370.1,1204.9c-0.5,0.1-0.5,0.1-0.9,0.5
		C1369.8,1205.2,1369.8,1205.2,1370.1,1204.9L1370.1,1204.9z"/>
	<path id="パス_2" class="st0" d="M1363.7,1207.3c0-0.7,0.2-1.3,0.3-2c0.3-0.7,0.9-1.1,1.6-1.2c0.6,0.1,1.1,0.4,1.4,1
		c0.4,0.7,0.5,1.5,0.5,2.3c0,0.6,0,1.3,0,1.9c-0.1,0.7-0.4,1.3-1,1.6c-0.7,0.4-1.7,0.2-2.2-0.5c0,0-0.1-0.1-0.1-0.1
		C1363.9,1209.3,1363.7,1208.3,1363.7,1207.3z M1365,1210.4c0.2,0,0.4,0.1,0.5,0.1c0.3,0.2,0.8,0.1,1-0.2c0.2-0.2,0.4-0.5,0.4-0.8
		c0.3-1.4,0.3-2.9-0.3-4.2c-0.2-0.4-0.5-0.7-1-0.7c-0.4,0-0.8,0.2-0.9,0.5c-0.2,0.4-0.4,0.7-0.4,1.2
		C1364,1207.7,1364.2,1209.2,1365,1210.4L1365,1210.4z"/>
</g>
</svg>
