<svg xmlns="http://www.w3.org/2000/svg" width="125.003" height="111.027" viewBox="0 0 125.003 111.027">
  <g id="_74" data-name="74" transform="translate(-1474.222 -1175.673)">
    <path id="パス_32" data-name="パス 32" d="M1475.646,1224.965c.17-.642.284-1.074.345-1.3-.333-2.076-.583-3.975-.957-5.849-.231-1.161-.422-2.32-.608-3.486a36.449,36.449,0,0,1,.021-7.589,6.862,6.862,0,0,1,.334-1.474,17.169,17.169,0,0,1,2.2-5.461c1.445-2.032,3.156-3.854,5.791-4.393.718-.147,1.426-.35,2.136-.538a17.908,17.908,0,0,1,2.125-.564,19.51,19.51,0,0,1,2.426-.021c1.683-1.1,3.532-2.3,5.355-3.522a64.79,64.79,0,0,1,8.228-4.356c.864-.416,1.762-.761,2.633-1.162a109.327,109.327,0,0,1,12.281-4.364,104.453,104.453,0,0,1,14.146-3.421c4.352-.762,8.732-1.158,13.126-1.483a47.791,47.791,0,0,1,5.417-.292c3.77.152,7.565.069,11.263,1.116a38.625,38.625,0,0,0,5.648,1.131,39.922,39.922,0,0,1,8.434,2.472,8.246,8.246,0,0,1,1.292.779,10.123,10.123,0,0,0,1.959-.745c2.052-1.287,4.3-1.264,6.56-1.059a16.952,16.952,0,0,1,6.146,2.262c2.349,1.212,3.356,3.421,4.175,5.725a32.107,32.107,0,0,1,1.546,7.791c.262,2.792.472,5.588.713,8.481l.842,1.6a2.86,2.86,0,0,1-1.487,1.949l-1.85,5.173a7.438,7.438,0,0,0-2.194,1.519,3.351,3.351,0,0,1-1.6.909,26.3,26.3,0,0,1-6.982,1.021,19.148,19.148,0,0,1-3.194-.3c-.891-.1-1.779-.232-2.934-.385a36.862,36.862,0,0,1-12.1-5.569,6.12,6.12,0,0,0,.288,1.109,75.808,75.808,0,0,1,4.6,10,83.468,83.468,0,0,0,4.3,8.631c1.115,2.092,2.168,4.217,3.273,6.315.97,1.843,1.973,3.668,2.96,5.5q1.32,2.454,2.636,4.912a34.432,34.432,0,0,1,2.236,4.327c.656,1.82,1.834,3.335,2.581,5.1.769,1.813,1.787,3.52,2.711,5.265a19.128,19.128,0,0,0,1.176,2.021,22.666,22.666,0,0,0,1.565,1.774,12.705,12.705,0,0,1,1.313,4.462,1.929,1.929,0,0,1-1,2.144c-.982.55-1.982,1.073-3.005,1.543-3.852,1.767-7.692,3.565-11.587,5.233a16.875,16.875,0,0,1-5.182,1.509,5.37,5.37,0,0,0-1.15.267c-2.044.644-4.059,1.4-6.131,1.927-2.346.6-4.738,1.025-7.115,1.5-1.1.22-2.247.267-3.318.581a60.331,60.331,0,0,1-8.5,1.5c-2.121.306-4.231.7-6.355.975a14.746,14.746,0,0,1-4.016.256,12.177,12.177,0,0,0-2,.148c-1.58.051-3.161.069-4.742.095-.566.01-1.132-.008-1.7.013a31.3,31.3,0,0,1-5.044-.124c-2.456-.3-4.969-.108-7.438-.33-2.172-.2-4.427,0-6.481-.957a15.114,15.114,0,0,1-1.737-1.068c-.543-2.054-1.018-3.792-1.457-5.538-.15-.6-.191-1.219-.314-1.823-.559-2.76-1.186-5.508-1.684-8.279q-1.618-9.008-3.125-18.034c-.328-1.945-.518-3.912-.815-5.863-.176-1.152-.424-2.294-.662-3.436q-1.244-5.949-2.506-11.9c-.01-.047-.074-.084-.146-.162a2.874,2.874,0,0,0-2.056.456,29.6,29.6,0,0,1-6.631,1.978,20.259,20.259,0,0,1-3.655.685,29.359,29.359,0,0,1-3.882-.3c-1.246-1.176-2.475-2.339-3.707-3.5S1476.94,1226.176,1475.646,1224.965Zm25.453-6.03a5.007,5.007,0,0,0-1.087.407,33.423,33.423,0,0,1-6.108,3.522c-2.774,1.091-5.546,2.2-8.381,3.113a36.158,36.158,0,0,1-4.815.869c-.352.062-.7.168-1.282.312l1.281,1.108c1.089-.247,2.069-.5,3.062-.69a34.269,34.269,0,0,0,7.065-2.264c1.856-.789,3.6-1.8,5.407-2.678a42.867,42.867,0,0,0,4.862-3.015c.119-.079.15-.292.222-.443a10.77,10.77,0,0,0,1.548-1q1.989-1.824,3.88-3.753a2.73,2.73,0,0,0,.861-1.578l-.433-.384a1.714,1.714,0,0,0-.389.309,21.455,21.455,0,0,1-4.826,5.145A6.334,6.334,0,0,0,1501.1,1218.935Zm89.61,43.861c-.1-.356-.162-.688-.282-1-.693-1.786-1.365-3.58-2.111-5.343a31.469,31.469,0,0,0-2.2-4.71c-1.241-1.947-2.3-3.989-3.389-6.01a49.769,49.769,0,0,0-2.847-4.771c-1.282-1.852-2.68-3.623-3.972-5.467a19.772,19.772,0,0,0-2.552-3.557,3.3,3.3,0,0,1-.661-1.167c-.721-1.719-1.45-3.436-2.115-5.177a61.751,61.751,0,0,1-3.133-9.111c-.526-2.477-1.331-4.9-1.808-7.382-.634-3.308-1.225-6.624-1.963-9.913-.444-1.977-.837-3.965-1.279-6.068l-1.142-.761-2.559.564a4.772,4.772,0,0,0-1.088,2.8c-.15,1.676-.257,3.355-.4,5.032a3.9,3.9,0,0,1-.22,1.148c-.6,1.452-1.241,2.886-1.764,4.088a11.877,11.877,0,0,1-5.647,2.4c-1.845.248-3.71.356-5.567.528a7.149,7.149,0,0,0-1.158.126c-2.12.562-4.229,1.16-6.349,1.719a5.381,5.381,0,0,1-1.181.1c-1.017.034-2.036.09-3.053.071a7.758,7.758,0,0,1-5.639-2.249,12.566,12.566,0,0,1-1.676-2.332,53.525,53.525,0,0,0-3.969-6.21c-2.783-.5-3.958-.215-5.2,1.311.238,1.4.46,2.907.75,4.4.72,3.7,1.473,7.4,2.207,11.1a5.066,5.066,0,0,1,.057.675c.1,1.632.247,3.263.3,4.9.1,2.751.6,5.462.594,8.234a35.368,35.368,0,0,1-.46,7.046c-.579,2.815-.745,5.713-1.708,8.452a28.773,28.773,0,0,0-.847,2.924c-.717,3.019-1.4,6.045-2.1,9.07a74.993,74.993,0,0,0-1.833,14.242,8.179,8.179,0,0,0,.513,3.164,16.81,16.81,0,0,0,2.932.869c2.694.3,5.4.524,8.108.635,5.138.211,10.276.526,15.423.341a12.812,12.812,0,0,0,1.687-.119,37.066,37.066,0,0,1,3.993-.739,69.136,69.136,0,0,0,10.35-1.66c5.794-1.233,11.531-2.737,17.291-4.131,1.371-.331,2.757-.616,4.1-1.03a61.181,61.181,0,0,0,10.823-4.813A8.053,8.053,0,0,0,1590.709,1262.8Zm-18.49-70.115c1.976-3.443,4.852-5.835,6.931-8.834-.1-.437-.192-.811-.284-1.2-2.155-.8-4.275-1.549-6.358-2.385a28.427,28.427,0,0,0-5.722-1.419c-2.219-.393-4.459-.726-6.632-1.3a37.973,37.973,0,0,0-9.431-.854,20.049,20.049,0,0,0-5.682.442,4.282,4.282,0,0,1-.845.044c-2.134.146-4.284.182-6.4.469-3.127.425-6.235,1-9.339,1.572-1.435.265-2.847.667-4.262,1.038-2.235.586-4.5,1.083-6.687,1.821a122.407,122.407,0,0,0-12.844,4.777,73.55,73.55,0,0,0-8.559,4.429,61.42,61.42,0,0,1-5.95,3.878,11.458,11.458,0,0,0-1.94,1.5c.083.915.255,1.593,1.073,1.793.619-.425,1.151-.833,1.723-1.175,3.043-1.826,6.144-3.561,9.132-5.472a91.482,91.482,0,0,1,9.308-4.845c.235-.115.575-.015,1.2-.015a6.813,6.813,0,0,1-.94.862c-.642.357-1.322.642-1.973.983-2.347,1.23-4.724,2.408-7.022,3.722-2.729,1.561-5.389,3.243-8.079,4.871a6.171,6.171,0,0,0-1.9,1.42l2.584,1.491,3.2,3.225a6.894,6.894,0,0,0,.993-.183,2.745,2.745,0,0,0,.737-.409,10.61,10.61,0,0,1,8.276-1.929c1.67.227,3.359.324,5.041.461.941.077,1.884.114,2.935.176-.041-.617-.076-1.162-.121-1.84.477-.884,1.008-1.87,1.413-2.622a8.409,8.409,0,0,1,5.893-.431c2.039.595,3.177,2.425,4.428,3.9,7.73,1.331,18.975-.338,26.4-3.6.639-1.882,1.305-3.841,1.946-5.729a9.589,9.589,0,0,1,5.271-1.5,3.146,3.146,0,0,1,3.163,2.13c.3.763.439,1.645,1.237,2.18C1566.835,1193.552,1569.394,1192.313,1572.219,1192.681Zm-90.082,4.03a12.124,12.124,0,0,0-5.59,6.08,17.364,17.364,0,0,0-1.42,7.926,31.634,31.634,0,0,0,.794,7.721c.425,1.457.675,2.965,1.053,4.438a5.426,5.426,0,0,0,.557,1.112,3.24,3.24,0,0,0,.633.076,36.752,36.752,0,0,0,10.51-2.43c1.914-.831,3.758-1.827,5.69-2.61,4.88-1.978,8.144-5.708,10.985-9.922a2.31,2.31,0,0,0,.185-.471c-1.328-2.216-2.558-4.507-5.1-5.808l-2.926,1.778-1.524.083a29.369,29.369,0,0,1-2.061-2.293,5.393,5.393,0,0,0-2.34-1.868,16.8,16.8,0,0,0-2.363-.866,2.49,2.49,0,0,1-1.684-1.283c-.329-.582-.662-1.161-.969-1.7l.47-1.057C1485.095,1195.427,1483.661,1196.654,1482.137,1196.711Zm114.563,7.679c.988-2.548.068-5.026.568-7.221a13.052,13.052,0,0,1-.483-1.766c-.1-.827.018-1.694-.164-2.5a54.015,54.015,0,0,0-1.57-5.876,8.4,8.4,0,0,0-2.633-3.851,13.21,13.21,0,0,0-8.258-2.918,6.886,6.886,0,0,0-4.491,1.271c.081.548.17,1.1.243,1.651s.129,1.1.187,1.6a39.511,39.511,0,0,0-7.514,9.292l-2.947-.226a12.209,12.209,0,0,0-2.21,4.245c.148.2.243.44.418.552,1.378.878,2.731,1.81,4.17,2.579a34.514,34.514,0,0,0,11.713,3.583c1.841.251,3.728.164,5.572.4C1591.841,1205.533,1594.213,1204.809,1596.7,1204.39Zm-84.463,59.452.308.011a3.191,3.191,0,0,0,.227-.584c.7-3.775,1.329-7.564,2.113-11.322.4-1.929,1.051-3.811,1.636-5.7a82.245,82.245,0,0,0,1.8-8.964,19.53,19.53,0,0,0,.258-2.525,58.017,58.017,0,0,0-.356-10.323c-.241-2.014-.187-4.067-.476-6.073a65.744,65.744,0,0,0-1.395-7.823c-.656-2.434-1.022-4.945-1.517-7.43a20.074,20.074,0,0,0-6.961-.6c-.21,1.508-.416,2.989-.625,4.486,1.376,1.1.751,2.5.663,3.882.519,1.187,1.12,2.4,1.587,3.67a5.943,5.943,0,0,1-.865,6.219c-.5.612-1.044,1.192-1.559,1.794-.437.511-.861,1.032-1.24,1.487.33,2.251.634,4.372.952,6.491.5,3.343,1.029,6.683,1.521,10.028.474,3.225.888,6.459,1.383,9.681.41,2.675.882,5.341,1.362,8.005.3,1.66.663,3.308,1,4.961C1512.1,1263.43,1512.176,1263.634,1512.237,1263.842Zm43.008-71.114a8.16,8.16,0,0,0-1.281,3.231c-.212,1.186-.687,2.257-.983,3.393-.585,2.24-2.311,3.09-4.278,3.6-2.512.649-5.041,1.242-7.584,1.757-1.923.389-3.872.67-5.822.9a31.1,31.1,0,0,1-3.381.021c-.232-.077-.665-.21-1.09-.363a10.891,10.891,0,0,1-5.955-4.463,13.5,13.5,0,0,0-2.681-2.518c-.052-.047-.2.018-.389.041l-.275.688c2.519,2.992,3.661,6.808,6.417,9.664a10.051,10.051,0,0,0,2.725,1.085,22.516,22.516,0,0,0,5.405-.036c2.106-.31,4.153-1.017,6.232-1.522a10.211,10.211,0,0,1,1.667-.215,30.423,30.423,0,0,0,7.674-1.169,7.623,7.623,0,0,0,1.373-.626c2.183-1.264,2.856-3.477,3.211-5.7.369-2.321.356-4.7.521-7.23Zm40.181,17.447c-2.64.113-5.271.254-7.9.33a32.942,32.942,0,0,1-7.664-1.022,51.051,51.051,0,0,1-7.5-2.509c-2.481-.933-4.527-2.574-6.832-4.148.3,1.948.242,3.72.941,5.017,1.742,1.912,3.87,2.628,5.768,3.714a5.707,5.707,0,0,0,2.97,1.111,2.824,2.824,0,0,1,1.253.458,8.93,8.93,0,0,0,4.519,1.167,7.556,7.556,0,0,1,1.5.229,23.332,23.332,0,0,0,6.561-.006,21.467,21.467,0,0,0,2.909-.714C1594.588,1211.964,1595.179,1211.361,1595.426,1210.175Zm-87.134,4.1c-1.41,1.354-2.668,2.4-3.734,3.62a24.92,24.92,0,0,1-7.158,5.274c-2.176,1.18-4.459,2.137-6.706,3.167a35.691,35.691,0,0,1-5.871,1.981c-1.055.278-2.155.391-3.24.786a2.523,2.523,0,0,0,.311.559,5.972,5.972,0,0,0,5.8,1.509c3.156-.8,6.413-1.27,9.41-2.643a23.913,23.913,0,0,0,6.226-3.674c1.516-1.356,2.816-2.893,4.183-4.383C1509.223,1218.606,1508.982,1216.631,1508.292,1214.273Zm82.668,50.106c-1.539.841-2.923,1.585-4.295,2.35a45.578,45.578,0,0,1-11.756,4.671c-4.613,1.089-9.213,2.244-13.846,3.24-3.586.77-7.09,1.885-10.747,2.363-4.519.591-8.99,1.615-13.594,1.3-.168-.011-.338.022-.508.026a42.685,42.685,0,0,1-5.525.07c-3.875-.428-7.777-.111-11.652-.626-1.727-.229-3.491-.149-5.152-.806-.075-.03-.2.064-.411.141l.066.965a3.615,3.615,0,0,0,2.329.765c1.626.123,3.257.185,4.88.338.835.078,1.659.436,2.486.429a50.413,50.413,0,0,0,5.912.119,35.652,35.652,0,0,1,5.568-.11,44.349,44.349,0,0,0,6.905-.154c2.346-.289,4.688-.609,7.032-.917,2.407-.317,4.859-.443,7.21-1,4-.942,8.051-1.745,11.955-3.083.321-.11.644-.215.971-.308,3.26-.922,6.547-1.759,9.774-2.784,3.382-1.073,6.841-1.993,9.779-4.156a21.574,21.574,0,0,1,2.619-1.437Zm-86.909-38.862c.564,5.118,1.643,10.014,2.339,14.973s1.681,9.871,2.55,14.8c.861,4.889,1.737,9.775,2.676,15.058a4.979,4.979,0,0,0,.461-3.17c-.239-1.5-.524-2.994-.863-4.473-.816-3.565-1.4-7.175-2.05-10.77-.588-3.273-.951-6.587-1.419-9.882-.277-1.955-.55-3.911-.852-5.862q-.672-4.343-1.39-8.678c-.129-.775-.345-1.535-.541-2.3-.016-.06-.183-.081-.492-.206C1504.354,1225.151,1504.182,1225.36,1504.051,1225.517Zm92.225-17.406c-.444-.456-.885-.252-1.315-.146a26.932,26.932,0,0,1-11.022.086,52.319,52.319,0,0,1-9.927-2.542,26.85,26.85,0,0,1-7.153-4.032,4.722,4.722,0,0,0-.792-.416,4.65,4.65,0,0,0,1.519,1.993,26.708,26.708,0,0,0,6.169,3.446,39.312,39.312,0,0,0,9.236,2.617,38.471,38.471,0,0,0,7.411.341c1.894-.038,3.781-.418,5.675-.646C1596.171,1208.483,1596.228,1208.281,1596.276,1208.111Zm-92.9-4.587,2.592,3.5c.6-1.8,1.022-3.258.625-4.912-1.521-.177-3.011-.414-4.563.407Zm63.263-6.95a6.979,6.979,0,0,0,1.021-2.246l-3.556,1.025a7.138,7.138,0,0,0,.39,3.138Zm-45.9,1.13a5.564,5.564,0,0,0-3.759.251,1.184,1.184,0,0,0-.787,1.265l4.25-.541C1520.526,1198.4,1520.6,1198.143,1520.738,1197.7Zm39.51-6.366c-1-.723-1.556-.665-3.888.389l.859.534ZM1511.508,1276c0,.437,0,.706,0,.974.006.29.019.579.036,1.083C1512.173,1277.1,1512.171,1277.1,1511.508,1276Zm80.956-11.331c.448-.727.448-.727-.537-1.985C1592.151,1263.518,1592.294,1264.045,1592.464,1264.673Zm-81.878,15.922c-.538.509-.538.509.006.9a.775.775,0,0,0-.006-.9Z" fill="#424242"/>
    <path id="パス_33" data-name="パス 33" d="M1566.359,1256.194v2.8c-.483.533-.832.982-1.246,1.36a3.117,3.117,0,0,1-2.666.819,4.127,4.127,0,0,0-2.411.49,25.186,25.186,0,0,1-8.857,2.695,27.973,27.973,0,0,1-10.176-.9,38.667,38.667,0,0,1-5.459-1.773,16.876,16.876,0,0,1-7.421-6.681,6.186,6.186,0,0,0-.571-.841,16.944,16.944,0,0,1-3.1-6.342,20.267,20.267,0,0,1-1.26-4.9c-.044-1.185-.079-2.371-.071-3.556.007-1,.067-2,.131-3,.18-2.837,1.484-5.325,2.692-7.783a8.828,8.828,0,0,1,3.28-3.8,6.657,6.657,0,0,0,1.378-1.246,18.769,18.769,0,0,1,4.27-3.28c3.468-2.083,7.3-2.823,11.191-3.46a1.413,1.413,0,0,1,.337-.025c2.133.174,4.266.344,6.4.533a16.73,16.73,0,0,1,5.092,1.75,24.35,24.35,0,0,1,6.912,5.085,21.478,21.478,0,0,1,5.31,8.333,28.76,28.76,0,0,1,1.65,10.126,12.192,12.192,0,0,1-.49,3.153,27.667,27.667,0,0,1-1.732,5.234C1568.609,1252.8,1567.9,1254.808,1566.359,1256.194Zm.389-28.41a5.7,5.7,0,0,1-1.065-1.006,17.667,17.667,0,0,0-3.056-3.386,19.819,19.819,0,0,0-11.967-5.366c-1.065-.1-2.145-.055-3.218-.081a29.414,29.414,0,0,0-8.162,1.245,18.931,18.931,0,0,0-3.755,1.891,9.44,9.44,0,0,0-1.835,1.189,41.824,41.824,0,0,0-6.616,6.427,11.724,11.724,0,0,0-1.724,3.076,27.764,27.764,0,0,0-1.19,9.181,15.666,15.666,0,0,0,.294,3.533c.35,1.529.929,3.007,1.426,4.5a7.1,7.1,0,0,0,.568,1.411,47.792,47.792,0,0,0,3.216,5.156,15.831,15.831,0,0,0,5.113,4.591,42.28,42.28,0,0,0,6.131,2.35,15.525,15.525,0,0,0,2.158.381,23.408,23.408,0,0,0,3.316.565,42.8,42.8,0,0,0,5.57-.179,23.755,23.755,0,0,0,4.117-.907,17.485,17.485,0,0,0,2.306-1.048c.7-.32,1.409-.627,2.134-.948-.572-2.7-1.145-5.224-2.779-7.388l.531-1.426c.317-.1.581-.187.85-.254.322-.081.65-.141.98-.212,1.93,1.31,4.133,2.17,5.514,4.2,1.714-.885,1.63-2.9,2.842-3.98,1.025-3.034,2.487-5.957,2.458-9.266A25.625,25.625,0,0,0,1566.748,1227.784Zm-4.89,31.984c1.659.677,2.03.549,3.536-1.207a3.153,3.153,0,0,0-.792-2.827,11.368,11.368,0,0,0-4.407-3.348.916.916,0,0,0-1.244.327c.488,1.1,1.006,2.212,1.475,3.344C1560.916,1257.238,1560.733,1258.665,1561.858,1259.768Z" fill="#424242"/>
    <path id="パス_34" data-name="パス 34" d="M1571.053,1181.816c.02.211.036.373.051.525-.115.065-.222.178-.3.161a69.3,69.3,0,0,0-9.309-1.593c-2.018-.185-4.037-.386-6.044-.667a47.157,47.157,0,0,0-6.877-.08,2.035,2.035,0,0,1-.338.015c-3.061-.5-6.072.1-9.1.409-1,.1-2.021.1-3.018.241-2.4.345-4.785.735-7.173,1.136-.715.121-1.418.323-2.12.512a2.409,2.409,0,0,1-1.988-.114,6.024,6.024,0,0,1,.867-.357c3.09-.652,6.162-1.431,9.28-1.9s6.283-.638,9.43-.9a24.684,24.684,0,0,1,2.536,0c2.765.055,5.531.1,8.3.185,1.239.038,2.479.129,3.713.253,1.063.107,2.123.269,3.177.449q4.071.7,8.134,1.437A4.671,4.671,0,0,1,1571.053,1181.816Z" fill="#424242"/>
    <path id="パス_35" data-name="パス 35" d="M1550.075,1226.922c1.171.409,2.027.68,2.86,1.009a6.383,6.383,0,0,1,1.506.768c.936.708,1.771,1.555,2.726,2.233,1.59,1.128,2.163,2.858,2.754,4.542a15.743,15.743,0,0,1,.666,7,11.415,11.415,0,0,1-2.636,6.1c-.393.477-.736.994-1.234,1.674l-4.09,2.593c-1.607.128-3.063.325-4.521.336-1.283.01-2.567-.232-3.854-.284-1.209-.048-2-.985-3.065-1.333a18.552,18.552,0,0,1-2.165-1.046c-.765-1.453-2.2-2.718-2.807-4.536a7.224,7.224,0,0,0-.739-1.121,6.819,6.819,0,0,1-1.062-2.071,12.326,12.326,0,0,1,.035-5.024c.3-1.138.689-2.254.928-3.4a5.28,5.28,0,0,1,2.05-3.036c2.305-1.835,4.733-3.527,7.769-3.924C1546.927,1227.171,1548.672,1227.055,1550.075,1226.922Zm-11.5,20.638c-.193,1.064.925,1.489,1.02,2.18l4.384,2.2c1.537.025,3.617.026,5.694.1a8.008,8.008,0,0,0,5.649-2.182c.932-.8,1.733-1.762,2.556-2.614.346-.757.7-1.467,1-2.2,1.057-2.567,1.5-5.171.4-7.853a1.54,1.54,0,0,1-.176-.647,6.059,6.059,0,0,0-.9-3.056,4.733,4.733,0,0,0-3.428-2.921,2.394,2.394,0,0,1-.186-.157c-.164-.214-.284-.5-.5-.627-1.062-.618-2.149-1.193-2.9-1.6-1.787,0-3.2-.081-4.6.025a8.529,8.529,0,0,0-3.287.656c-2.606,1.384-5.435,2.556-6.95,5.376-.027.05-.05.1.008-.019l-1.389,5.21a5.178,5.178,0,0,1,.173,1.834,4.268,4.268,0,0,0,.788,2.886,10.589,10.589,0,0,1,1.557,2.585,1.262,1.262,0,0,0,1.138.878Z" fill="#424242"/>
    <path id="パス_36" data-name="パス 36" d="M1534.131,1223.757l1.809-.648a4.82,4.82,0,0,1,3.564,1.679c.041.528.092,1.192.13,1.7a5.177,5.177,0,0,1-2.919,3.254l-1.453-.258C1532.927,1227.362,1532.662,1226.046,1534.131,1223.757Z" fill="#424242"/>
    <path id="パス_37" data-name="パス 37" d="M1532.641,1236.2l-2.045.405c-2.84-1.3-3.244-3.371-1.174-5.984a4.82,4.82,0,0,1,2.905-.264C1534.672,1232.247,1534.777,1234.068,1532.641,1236.2Z" fill="#424242"/>
    <path id="パス_38" data-name="パス 38" d="M1542.985,1225.279c-.691-1.167-1.655-2.224-1.122-3.9l1.78-1.643,2.78.421,1.172,1.746c.042,2.145.042,2.145-.558,3.315l-1.643.862C1544.372,1226.289,1543.753,1225.582,1542.985,1225.279Z" fill="#424242"/>
    <path id="パス_39" data-name="パス 39" d="M1540.575,1255.28c-.139,2.638-.529,3.164-2.828,4l-1.79-.744-1.333-2.255a3.147,3.147,0,0,1,1.947-3.388l2.652.563Z" fill="#424242"/>
    <path id="パス_40" data-name="パス 40" d="M1531.661,1239.621c.149.8.282,1.509.442,2.363a9.476,9.476,0,0,1-.961,1.63,2.845,2.845,0,0,1-5-2.18c.1-2.358,1.957-3.557,4.083-2.613C1530.684,1239.025,1531.107,1239.309,1531.661,1239.621Z" fill="#424242"/>
    <path id="パス_41" data-name="パス 41" d="M1547.228,1261.511c-2.324-.407-3.016-.923-3.762-2.751a3.918,3.918,0,0,1,1.358-2.808c2.44-.619,3.58-.333,4.444,1.51C1549.9,1258.8,1549.109,1260.331,1547.228,1261.511Z" fill="#424242"/>
    <path id="パス_42" data-name="パス 42" d="M1528.729,1250.56c.068-.706.131-1.376.187-1.961,1.563-1.812,2.565-2.03,4.834-.984.271.541.616,1.233.993,1.987-.439.908-.848,1.756-1.223,2.532l-2.206.929A4.906,4.906,0,0,1,1528.729,1250.56Z" fill="#424242"/>
    <path id="パス_43" data-name="パス 43" d="M1564.939,1237.991c-2.988-1.413-3.423-3.672-1.088-5.517,2.9-.4,3.912.39,3.891,3.038C1567.223,1236.822,1566.553,1237.959,1564.939,1237.991Z" fill="#424242"/>
    <path id="パス_44" data-name="パス 44" d="M1558.411,1229.311c-.388-2.076-.34-2.258,1.014-3.946.883-.419,1.731.053,2.575.172,1.825,1.458,2.032,2.94.636,4.389C1561.208,1231.41,1560.138,1231.269,1558.411,1229.311Z" fill="#424242"/>
    <path id="パス_45" data-name="パス 45" d="M1568.72,1243.406c-.521,1.16-.852,2.456-2.226,3.125-1.386.217-2.181-.727-2.99-1.794l-.3-1.545,1.518-2.227C1567.358,1240.773,1567.805,1241.054,1568.72,1243.406Z" fill="#424242"/>
    <path id="パス_46" data-name="パス 46" d="M1553.633,1226.18a2.613,2.613,0,0,1-2.65-2.328c-.322-1.659.223-2.569,2.1-3.514,1.916.22,2.479.789,2.813,2.77C1556.176,1224.753,1555.1,1225.561,1553.633,1226.18Z" fill="#424242"/>
    <path id="パス_47" data-name="パス 47" d="M1553.173,1259.81a3.074,3.074,0,0,1-1.461-3.757l1-1.512,1.709-.117c2.192.9,2.447,1.568,1.65,4.163A2.652,2.652,0,0,1,1553.173,1259.81Z" fill="#424242"/>
    <path id="パス_48" data-name="パス 48" d="M1554.6,1230.415a2.394,2.394,0,0,0,.186.157,3.558,3.558,0,0,0,.523.836,10.616,10.616,0,0,1,2.752,4.157,15.553,15.553,0,0,1,.991,4.424,10.96,10.96,0,0,1-1.236,5.835,13.482,13.482,0,0,1-3.512,4.283,6.425,6.425,0,0,1-1.782.866c-.3.12-.695.027-.981.166a4.223,4.223,0,0,1-3.7.118l-1.646.387c-.55-.17-1.038-.306-1.517-.47-1.637-.56-3.307-1.018-4.462-2.5a6.446,6.446,0,0,0-1.629-1.114l.053.054a12.206,12.206,0,0,0-.891-1.805,9.044,9.044,0,0,1-1.632-5.892,11.088,11.088,0,0,1,2.08-6.327,9.284,9.284,0,0,1,4.048-3.4,26.164,26.164,0,0,1,3.374-1.069,9.532,9.532,0,0,1,6.724.644A11.141,11.141,0,0,0,1554.6,1230.415Zm-17.426,10.07a10.042,10.042,0,0,0,8.593,10c1.262.186,2.565-.1,3.842.173a1.94,1.94,0,0,0,.807-.191c.487-.14.983-.257,1.454-.44a9.669,9.669,0,0,0,1.821-.824,10.539,10.539,0,0,0,3.966-5.738,7.8,7.8,0,0,0-.04-5.941,3,3,0,0,1-.238-.986c-.128-1.7-1.284-2.9-2.305-4a9.766,9.766,0,0,0-5.526-2.689,12.517,12.517,0,0,0-4.81.536,9.226,9.226,0,0,0-6.437,4.966,5.783,5.783,0,0,0-.786,1.667C1537.307,1238.178,1537.271,1239.361,1537.17,1240.485Z" fill="#424242"/>
  </g>
</svg>
