<?xml version="1.0" encoding="UTF-8"?><svg id="_レイヤー_2" xmlns="http://www.w3.org/2000/svg" viewBox="0 0 118.23 107.97"><defs><style>.cls-1{fill:#424242;}</style></defs><g id="_Шар_1"><g id="_36"><path class="cls-1" d="m36.65,26.32c-.28,1.88-.05,3.7.1,5.53,0,.11.07.23.06.34-.23,2.34,1.12,4.02,2.43,5.69.99,1.27,2.02,2.52,3.12,3.7,1.71,1.85,2.25,4.07,2.37,6.49.11,2.34.35,4.69.37,7.03.01,2.18.5,4.34.24,6.53-.02.16.06.33.12.61.41.1.85.32,1.28.28,2.52-.2,5.03-.12,7.55.05,1.18.08,2.38.01,3.6.01,0-4.25.14-8.42-.04-12.58-.15-3.46-.11-6.9.02-10.35.03-.8-.03-1.61-.06-2.42-.1-2.55.09-5.05,1.11-7.43.1-.25.05-.56.09-.83.35-2.38,1.24-4.52,3.07-6.14,2.22-1.95,3.9-4.34,5.61-6.71.92-1.28,1.3-2.86,1.5-4.38.32-2.5.42-5.02.56-7.54.06-1.13.01-2.27.01-3.56.19-.16.49-.4.79-.65.9.14,1.75.27,2.61.4,2.92-.78,5.88-.14,8.94-.16.2.16.46.37.8.64.27-.25.55-.51.96-.88,1.76.1,3.64.25,5.52.32,1.59.06,3.18.02,4.77.02,1.14,0,2.29-.01,3.43-.03,2.01-.02,4.02-.06,6.03-.07.22,0,.44.09.76.15.17,1.02.35,2.02.5,3.03.15,1.02.28,2.05.38,3.08.13,1.3.2,2.6.35,3.89.15,1.27.59,2.44,1.32,3.52,1.1,1.62,2.05,3.33,3.19,4.91.76,1.06,1.72,1.99,2.62,2.95.88.93,1.64,1.89,2.11,3.12.49,1.28,1.16,2.49,1.69,3.77.66,1.61.76,3.23.84,4.89.07,1.49-.1,3.01.07,4.49.28,2.58.16,5.17.34,7.75.13,1.82.06,3.66.1,5.49.04,2,.11,4.01.15,6.01.01.69-.05,1.37-.06,2.06,0,.4-.1.85.04,1.19.34.78.27,1.57.23,2.37-.13,2.56-.04,5.12-.14,7.68-.13,3.1.05,6.22.08,9.32.01,1.14-.02,2.27-.02,3.41,0,.69-.01,1.38,0,2.08.02,1.49.27,3.01.04,4.45-.33,2.02-1.27,3.85-3.09,4.99-2.21,1.39-4.61,2.04-7.26,1.56-.77-.14-1.59.04-2.39.06-1.78.06-3.57.14-5.35.15-1.13,0-2.28-.2-3.4-.11-2.64.21-5.3.16-7.93.32-2.21.13-4.35-.48-6.53-.23-2.42.28-4.82-.17-7.24-.17-.84,0-1.69.06-2.6.1-.14,1.76-.24,3.42-.4,5.08-.11,1.15-.3,2.27-.96,3.28-.47.72-1.05,1.24-1.89,1.39-2.36.42-4.69,1.01-7.12,1.09-2.52.08-5.02.45-7.54.58-1.6.08-3.21-.01-4.82-.08-1.61-.06-3.22-.27-4.82-.26-3.09.02-6.17-.12-9.26-.18-2.47-.05-4.78-.56-7-1.57-.88-.4-1.72-.87-2.55-1.29-.41-1.27-.78-2.41-1.19-3.68-.6,0-1.22-.03-1.85,0-1.15.06-2.29.2-3.44.21-2.24.03-4.48.05-6.71-.02-2.05-.06-4.1-.25-6.14-.39-.23-.02-.5-.01-.67-.13-1.16-.78-2.55-.62-3.9-1.02-1.66-1.75-1.61-4.14-2.08-6.32.31-2.07.42-4.12.35-6.19-.14-4.59-.21-9.19-.28-13.79-.04-2.34-.07-4.68-.01-7.02.05-2,.28-4,.33-6.01.03-1.13-.18-2.26-.18-3.39,0-2.24.03-4.48.12-6.72.06-1.61.3-3.21.36-4.82.04-1.1.34-1.94,1.12-2.77.82-.88,1.64-1.75,2.52-2.58,2.62-2.51,4.01-5.52,3.69-9.25-.13-1.58.01-3.18.03-4.79.96-.46,1.85-.73,2.86-.65.62.05,1.26-.09,1.89-.12.86-.04,1.72-.1,2.57-.08,1.21.03,2.43.28,3.62.18,2.42-.21,4.83.03,7.24,0,1.82-.02,3.64-.22,5.46-.26,1.09-.03,2.18.07,3.27.15.74.05,1.32.38,1.7,1.22Zm69.42,47.88c.16-.28.33-.55.52-.88-.27-.42-.51-.79-.74-1.16-.07.03-.14.07-.21.1.16.64.31,1.28.47,1.91-.39.61-.14,1.23.02,1.83.17.67.41,1.32.55,1.99.64,3.08,1.22,6.16,1.88,9.23.23,1.06.62,2.08.96,3.22.53.07,1.01.13,1.82.23-.54-.35-.79-.51-1.03-.66-.12-.97-.13-1.91-.38-2.78-.72-2.46-1.14-5-1.97-7.43-.13-.37-.3-.76-.29-1.14.03-1.53-.85-2.78-1.18-4.2-.03-.12-.27-.19-.41-.28Zm-78.24,4.97c-.47.64-.93,1.29-1.43,1.98-.16,2.3-.43,4.59-.46,6.89-.04,3.73.03,7.47.17,11.2.05,1.47-.18,3.03.88,4.5,1.69,1.39,3.78,2.35,6.13,2.5,3.67.23,7.34.6,11.03.42,2.4-.12,4.79.19,7.2.18,1.98-.01,3.95.11,5.93-.09,2.06-.21,4.13-.28,6.19-.45,1.88-.15,3.76-.34,5.51-.91.53-.65.99-1.23,1.62-2,.12-1.53.23-3.25.41-4.96.21-2.07-.06-4.12-.07-6.19,0-1.5.03-3-.03-4.49-.08-2.01-.23-4.01-.38-6.01-.08-.97-.17-2-.88-2.72-1.58-1.59-3.21-3.12-4.85-4.65-.25-.24-.63-.35-1.13-.6.15.79.55,1.1.91,1.46,1.14,1.12,2.27,2.26,3.38,3.41.24.24.46.53.61.83.94,1.95,1.55,3.96,1.27,6.17-.07.57,0,1.15-.02,1.73-.1,3.04.49,6.07.12,9.12-.07.57-.04,1.15-.08,1.72-.09,1.26-.2,2.51-.3,3.64-1.08.99-2.17,1.63-3.46,1.82-.85.13-1.72.11-2.58.18-2.18.16-4.35.34-6.53.5-.92.07-1.83.2-2.75.19-1.96-.01-3.92-.13-5.88-.14-2.18,0-4.37.11-6.56.08-2.42-.04-4.84-.19-7.25-.31-1.43-.07-2.87-.14-4.29-.3-.67-.07-1.31-.34-1.81-.48-1.08-1.58-1.36-2.32-1.39-4.03-.06-3.04-.06-6.09-.12-9.13-.01-.53-.2-1.07-.28-1.46.11-.83.22-1.54.29-2.26.08-.85.16-1.71.19-2.57.06-1.56.48-3.05.9-4.54,1.78-1.3,5.11-4.43,5.8-5.45-.1-.04-.22-.13-.31-.11-.22.04-.5.08-.63.23-1.57,1.83-3.88,2.92-5.07,5.11Zm69.89-12.88c.22-.02.43-.03.58-.04.87-3.2,1.73-6.28,2.53-9.39.8-3.11,1.53-6.24,2.3-9.36.78-3.17,1.49-6.36,2.35-9.51.85-3.09,1.16-6.32,2.33-9.45.4.14.69.23,1.05.36-.34,1.49-.64,2.88-.98,4.26-.96,3.84-1.94,7.67-2.91,11.51-.15.61-.26,1.24-.42,1.85-.82,3.16-1.8,6.28-2.44,9.48-.54,2.69-1.57,5.25-1.95,7.98-.27,1.92-.72,3.82-1.1,5.8-.28.23-.62.51-1.04.86.32.58.6,1.11.98,1.79.2-.35.3-.47.34-.61.51-1.95.98-3.9,1.51-5.84.57-2.11,1.32-4.18,1.76-6.31,1.02-4.91,2.59-9.66,3.79-14.51.2-.82.48-1.65,1.5-2.44.18.22.35.42.39.47-.97,3.24-1.83,6.16-2.73,9.07-.54,1.75-.88,3.55-1.29,5.33-.19.84-.31,1.7-.54,2.53-.59,2.16-1.28,4.3-1.81,6.47-.52,2.16-.9,4.36-1.36,6.66-.2.13-.52.34-.94.61.52.76.33,1.77,1.17,2.51.3-1,.61-1.85.82-2.72.4-1.61.71-3.24,1.11-4.85.29-1.17.69-2.32.97-3.49.59-2.45,1.11-4.92,1.71-7.37.54-2.23,1.15-4.44,1.72-6.66.4-1.56.79-3.12,1.19-4.68.4-1.57.75-3.16,1.84-4.93.04.71.11,1.03.06,1.32-.53,3.36-1.38,6.63-2.33,9.89-.42,1.43-.93,2.84-1.16,4.3-.29,1.83-.66,3.6-1.33,5.33-.31.79-.4,1.68-.49,2.54-.04.36.21.74.32,1.11-.17.01-.34.03-.57.04-.39,1.44-.79,2.87-1.16,4.32-.34,1.32-.78,2.63-.91,3.97-.13,1.36-.26,2.67-1.14,3.84.22.17.38.29.65.5.37-1.1.81-2.05.99-3.04.35-1.94,1.02-3.77,1.61-5.64.4-1.29.87-2.62.5-4.03.32-.31.78-.57.92-.94.37-1.02.61-2.08.89-3.13.3-1.11.56-2.23.88-3.34.82-2.82,1.75-5.61,2.2-8.53.06-.39.16-.8.37-1.12.14-.2.51-.25.84-.39,0,1.19-.64,4.02-1.22,5.39,1.27,4.81,2.57,9.73,3.9,14.74.58-.47.53-.98.51-1.5-.14-3.28-.3-6.55-.37-9.83-.05-2.53-.03-5.07.05-7.6.08-2.53.25-5.03-.13-7.57-.37-2.48-.28-5.03-.5-7.54-.2-2.21-.06-4.52-1.45-6.47-.1-.13-.16-.32-.17-.49,0-.95-.65-1.57-1.17-2.25-.24-.32-.63-.56-.78-.91-.62-1.42-1.72-2.42-2.85-3.41-1.35-2.43-2.7-4.87-4.08-7.36-3.39.23-6.76-.13-10.14-.01-3.31.12-6.63,0-9.94-.03-3.37-.03-6.73.28-10.13.01-.26.44-.59.8-.71,1.22-.73,2.66-2.79,4.47-4.17,6.71-1.42.97-2.19,2.49-3.21,3.81-.14.18-.27.39-.45.52-.82.63-1.21,1.53-1.53,2.46-1.09,3.13-1.41,6.41-1.59,9.67-.16,2.86.04,5.74.06,8.62.02,2.53-.02,5.07.01,7.6.01.97.19,1.94.22,2.91.05,1.65.05,3.31.07,4.92.58.42,1.04.75,1.45,1.04.07,1.35.11,2.66.21,3.97.09,1.32.06,2.66.59,3.94.3-1.23.47-2.47.57-3.71.33-4.06.65-8.13.94-12.2.17-2.4.28-4.8.42-7.2.17-2.86.33-5.73.55-8.59.07-.87.3-1.73.52-3-.2-1.48-1.83-2.97-1.68-5.02.36-.25.63-.43.9-.62.11-.46-.36-1.09.53-1.37.18.29.46.58.58.93,1.78,5.11,3.79,10.13,5.84,15.13,1.44,3.51,2.91,7,4.19,10.58.83,2.32,1.86,4.57,2.69,6.89.79,2.22,1.55,4.44,2.63,6.54.26.51.45,1.06.64,1.6.41,1.19.73,2.42,1.21,3.58.93,2.29,2.04,4.51,2.9,6.83.58,1.55,1.46,2.96,1.9,4.59.38,1.42,1.22,2.71,1.87,4.06.14.29.32.57.5.89.36-.09.62-.15.94-.23-.08-.3-.11-.53-.2-.73-.66-1.53-1.34-3.05-2.01-4.57-.82-1.9-1.62-3.81-2.46-5.7-.82-1.84-1.72-3.64-2.49-5.49-.96-2.32-1.83-4.67-2.74-7.02-.64-1.66-1.32-3.31-1.89-5-1.63-4.79-3.22-9.6-5.27-14.24-1.56-3.53-3-7.11-4.51-10.65-.32-.74-.51-1.48-.38-2.55.37.49.66.76.8,1.1,1.18,2.68,2.34,5.37,3.49,8.07.95,2.21,1.95,4.41,2.79,6.66,1.86,4.96,3.63,9.95,5.46,14.92.65,1.78,1.3,3.56,2.04,5.31.83,1.95,1.79,3.84,2.67,5.77,1.14,2.5,2.24,5.01,3.38,7.5.47,1.04,1.18,2.01,1.45,3.1.29,1.2,1.04,2.09,1.59,3.13.01-.41-.05-.8-.19-1.16-1.41-3.65-2.81-7.3-4.25-10.94-1.47-3.72-3-7.41-4.47-11.13-1.39-3.52-2.75-7.05-4.09-10.58-.76-1.99-1.41-4.02-2.18-6-.89-2.3-1.86-4.57-2.82-6.84-.27-.63-.67-1.21-.93-1.84-.89-2.11-1.75-4.24-2.6-6.36-.7-1.76-1.39-3.53-2.05-5.31-.09-.24.03-.55.09-1.19.38.62.59.89.72,1.19,1.24,2.78,2.45,5.57,3.69,8.35.47,1.05.99,2.08,1.44,3.13,1.13,2.7,2.25,5.41,3.34,8.12,1.07,2.67,2.13,5.34,3.16,8.02.63,1.65,1.15,3.34,1.83,4.96,1.01,2.44,2.18,4.81,3.13,7.26,1.18,3.05,2.1,6.19,3.4,9.19,1.58,3.64,3.05,7.33,4.59,10.99.11.25.41.41.73.71.08-.35.2-.57.14-.65-.83-1.15-1.01-2.56-1.53-3.83-.95-2.34-1.94-4.67-2.52-7.14-.07-.28-.11-.59-.26-.82-.86-1.25-1.16-2.72-1.76-4.08-1.26-2.89-1.87-6.04-3.37-8.84-.32-.6-.54-1.27-.75-1.92-.78-2.41-1.66-4.77-2.83-7.02-.32-.61-.64-1.24-.83-1.9-.97-3.26-2.48-6.29-3.81-9.39-1.04-2.42-2.01-4.88-3.02-7.32-.22-.53-.51-1.02-.72-1.55-.43-1.06-.84-2.12-1.22-3.2-.06-.18.08-.44.19-.93.87,1.69,1.79,3.04,2.28,4.53,1.36,4.09,3.43,7.87,4.83,11.94.95,2.75,2.42,5.31,3.56,7.99,1.42,3.33,2.75,6.71,4.11,10.07.73,1.81,1.35,3.68,2.18,5.44.57,1.21.91,2.47,1.28,3.73.08.27.11.55.21.81.7,1.76,1.5,3.48,2.1,5.27.99,2.89,2.08,5.72,3.68,8.42.29.03.6.07,1.06.12-.25-.76-.38-1.38-.65-1.94-1.22-2.52-2.28-5.11-3.22-7.75-.31-.86-.72-1.68-1.04-2.54-.68-1.83-1.36-3.66-2-5.5-.45-1.3-.77-2.64-1.27-3.92-.69-1.75-1.65-3.41-2.2-5.2-1.16-3.75-2.71-7.32-4.49-10.8-.16-.31-.31-.62-.43-.94-.68-1.76-1.27-3.56-2.03-5.28-1.04-2.36-2.12-4.71-2.77-7.22-.13-.52-.16-1,0-1.9.28.64.45.88.5,1.14.22,1.27.82,2.38,1.35,3.53.53,1.15,1.06,2.3,1.55,3.47.85,2.02,1.57,4.09,2.51,6.06,1.97,4.09,3.78,8.25,5.39,12.5,1.39,3.65,2.59,7.38,4.06,11,1.22,3.02,2.1,6.17,3.62,9.08,1.03,1.97,1.87,4.04,2.82,6.11.34.05.66.09,1.09.15-.11-.62-.11-1.15-.31-1.59-.68-1.44-1.49-2.83-2.16-4.28-.72-1.56-1.36-3.15-1.99-4.75-.4-1.01-.69-2.06-1.06-3.08-1.29-3.62-2.56-7.25-3.89-10.85-1.39-3.77-2.82-7.53-4.28-11.27-.75-1.92-1.62-3.79-2.41-5.7-.31-.74-.39-1.62-.82-2.26-1.05-1.55-1.54-3.34-2.3-5.01-1.36-2.96-2.69-5.94-3.99-8.93-.62-1.42-1.14-2.88-1.68-4.33-.04-.11.1-.3.16-.47.2.04.36.07.52.1.21.49.4.97.61,1.45,2.13,4.77,4.28,9.53,6.37,14.32,1.51,3.47,2.98,6.95,4.4,10.46,1.53,3.78,3.02,7.58,4.46,11.4,1.18,3.12,2.27,6.28,3.36,9.43,1,2.88,2.01,5.76,3.47,8.44,1.21,2.21,2.27,4.49,3.19,6.99.37-.03.77-.06,1.39-.11-.45-1.16-.82-2.11-1.2-3.06-.23-.59-.48-1.17-.73-1.75-1.05-2.48-2.09-4.97-3.16-7.44-.57-1.32-1.19-2.61-1.8-3.91-1.25-2.66-2.1-5.46-3.11-8.2-1.28-3.45-2.72-6.85-4.01-10.3-1.39-3.72-2.95-7.36-4.65-10.94-.96-2.02-1.99-4.02-2.92-6.05-.29-.63-.59-1.34-.24-2.05.17-.01.27-.04.28-.02,2.08,3.16,3.26,6.78,5.09,10,.34.2.62.36.7.41.05.77-.01,1.35.15,1.85.3.92.75,1.8,1.11,2.71,1.16,3,2.31,6.01,3.47,9.01.09.24.3.44.63.92,2.66-10.05,5-19.9,7.46-29.77.1-.02.28-.1.43-.06.21.05.39.2.7.37-.87,3.59-1.71,7.16-2.59,10.73-.89,3.62-1.96,7.21-2.65,10.87-.67,3.6-1.98,7.05-2.43,10.68.18.14.31.23.43.32.11-.1.24-.17.27-.26.5-1.93,1.02-3.86,1.47-5.81.38-1.67.64-3.36,1.02-5.03.36-1.57.88-3.1,1.22-4.67.96-4.49,1.99-8.96,3.24-13.39.3-1.07.81-2.12.72-3.29,0-.08.13-.17.26-.34.27.09.57.2.95.33-.09.52-.13.98-.24,1.41-.64,2.5-1.33,4.99-1.94,7.49-.96,3.97-1.88,7.95-2.8,11.93-.36,1.57-.7,3.14-1.05,4.71-.6,2.69-1.2,5.38-1.8,8.08-.28.26-.56.51-.88.81.21.51.41,1.01.69,1.68.49-.67.76-1.17.63-1.88-.14-.19-.31-.41-.48-.64Zm-78.18-8.35c1.42.62.96,2.05,1.52,3.22.94-.95,1.69-1.97,3.13-2,.39.13.87.29,1.5.5.31-.95.62-1.86.93-2.8.29-.3.61-.63.94-.99,1.75.13,2.98,1.31,4.33,2.26.44-.25.83-.47,1.32-.75.78.58,1.55,1.15,2.38,1.77.73-.67,1.48-1.36,2.15-1.97h1.78c.39.34.8.7,1.19,1.04.17-.03.29-.03.4-.07.16-.06.31-.14.59-.27-.07-4.13.12-8.32-1.11-12.28q-1.02-.9-1.52-1.96c-.1-.21-.19-.42-.32-.61-.85-1.15-1.64-2.36-2.59-3.42-.95-1.06-1.56-2.24-1.79-3.71-.52-.04-.96-.1-1.4-.11-.57-.01-1.15.05-1.72.02-2.46-.11-4.9-.52-7.4-.19-2.21.29-4.47.22-6.71.31-.17,0-.34.05-.51.07-1.97.24-3.95.48-6.02.73-1.4,2.39-3.1,4.75-5.22,6.8-.62.6-1.04,1.38-1.15,2.27-.2,1.65-.46,3.3-.59,4.96-.22,2.81-.17,5.61.12,8.57,1.38-.21,2.67-.4,3.93-.59.5.31.93.58,1.41.87h3.41c.77.57,1.49,1.11,2.29,1.7.65-.87,1.18-1.68,1.8-2.42.75-.89,1.67-1.41,2.93-.97Zm8.78,31.48c-.7,3.08-.24,11.08.77,13.04,5.84.69,11.77.96,17.5.88.53-.47.89-.79,1.27-1.12.46.41.79.71.98.88,5.93.74,11.59-.27,17.32-.61-.16-.46-.26-.77-.38-1.11.7-.38.99.11,1.34.46.11.11.28.14.44.22.18-.2.34-.36.49-.53.14-.18.27-.37.39-.53.21-4.24.67-8.44.09-12.64-2.57.02-5,.7-7.37-.06-1.52.52-3.02.21-4.5.21-1.43,0-2.89-.25-4.29-.07-1.21.15-2.38.35-3.58.12-.9.17-1.8.26-2.71.3-1.14.05-2.35-.16-3.41.16-1.08.33-2.01.28-3.01.04-.85.11-1.69.09-2.54.11-.85.02-1.71.06-2.56.1-.51.02-1.05.18-1.52.07-1.56-.37-3.08-.22-4.69.09ZM110.59,21.5c-.2-.39-.32-.71-.51-1-1.24-1.79-2.69-3.44-3.7-5.39-.15-.29-.44-.54-.72-.73-.33-.22-.71-.41-1.1.08,1.5,2.81,3.03,5.61,4.73,7.38,1.43,1.96,2.4,3.29,3.37,4.63.29.93.69,1.8,1.05,2.7.19.48.38.98.43,1.48.26,2.46.48,4.92.69,7.38.14,1.6.14,3.21.36,4.8.21,1.49.21,2.94.16,4.44-.15,4.77-.13,9.56-.08,14.33.03,2.64.23,5.28.36,8.01.07.1.21.27.31.41-.15.48-.36.9-.4,1.33-.07.91-.08,1.83-.05,2.75.06,2,.2,4,.21,6.01.02,2.76-.04,5.52-.08,8.28-.01.74.07,1.51-.5,2.13-.39.12-.81.17-1.13.38-.9.59-1.88.81-2.94.85-1.37.05-2.74.24-4.12.28-2.3.06-4.6.03-6.9.08-1.42.03-2.89-.28-4.14.63-.81-.61-1.67-.59-2.53-.55-1.61.08-3.23.14-4.83.26-.6.04-1.2.22-2.06.38-.16-.07-.57-.25-1-.45-2.18,0-4.36-.03-6.55,0-2.17.04-4.35-.12-6.67.24.04.84.07,1.56.11,2.41.68.08,1.24.17,1.8.2,1.04.05,2.1-.08,3.11.1,1.5.28,2.98.17,4.47.09.4-.02.8-.04,1.2,0,3.08.37,6.18.21,9.28.25,2.87.04,5.72-.47,8.6-.15.4.04.81,0,1.21-.05,1.59-.17,3.19-.35,4.78-.51.22-.02.45.09.67.14,2.17.43,4.19-.04,6.2-.86,1.08-.44,1.76-1.19,2.38-2.14.71-1.07.93-2.21.92-3.44,0-2.08,0-4.15-.02-6.23-.03-2.24.12-4.48-.17-6.73-.21-1.59-.23-3.24-.05-4.83.47-4.14.2-8.29.21-12.43,0-2.01-.09-4.03-.22-6.04-.18-2.7.08-5.41-.26-8.12-.27-2.16-.31-4.36-.31-6.54,0-3.44.04-6.87-1.1-9.94-.48-.78-1.02-1.33-1.16-1.96-.45-1.95-1.69-3.23-3.3-4.36Zm-52.8,51.72c-2.18.06-4.07.13-5.95.17-1.94.04-3.88-.35-5.98.06.06,2.43,0,4.79.22,7.13.21,2.31-.07,4.66.41,7.05.59-.04,1.04-.07,1.49-.1.51-.03,1.04-.19,1.51-.07.89.22,1.72.06,2.52-.22.69-.24,1.33-.26,2.03-.12,1.24.25,2.49.17,3.75.19v-14.07ZM8.37,36.37c-1.17,2.21-2.8,4.03-4.7,5.65-1.37,1.17-2.2,2.64-1.88,4.55.03.17-.02.34-.04.52-.16,2.41-.31,4.83-.49,7.24-.21,2.76.24,5.5.06,8.27-.2,2.98-.14,5.98-.12,8.97.02,2.34-.29,4.67-.05,7.03.26,2.55.21,5.13.32,7.7.09,2.08.06,4.14-.17,6.21-.23,2.15.07,4.24,1.36,5.86,1.51.5,2.81.94,4.12,1.36.38.12.78.21,1.18.23,1.88.09,3.77.14,5.65.21.46.02.92.12,1.38.1,3.1-.16,6.2-.35,9.31-.54.16,0,.32-.1.51-.16.02-.24.08-.46.06-.68-.02-.22-.1-.43-.19-.75-.7-.06-1.38-.15-2.06-.15-1.15,0-2.31.12-3.46.08-4.19-.15-8.38-.34-12.57-.52-.75-.03-1.51-.03-2.07-.54-.49-.63-.94-1.21-1.54-1.99,0-.56.02-1.3,0-2.05-.04-1.65.09-3.34-.2-4.94-.35-1.94-.28-3.86-.27-5.8,0-.85.08-1.7.06-2.55-.02-1.2-.12-2.4-.12-3.61,0-1.65.24-3.32.09-4.96-.18-1.99-.18-3.99-.07-5.95.14-2.31.01-4.6-.11-6.88-.17-3.33.2-6.64.15-9.97,0-.28.14-.56.2-.84.09-.45.22-.89.25-1.35.11-1.6.86-2.9,2.03-3.87,1.69-1.39,2.64-3.33,4.03-4.93.13-.16.14-.43.18-.66.01-.09-.08-.19-.14-.35-.19.01-.41.02-.7.04ZM104.19,9.72c-1.15.1-2.22.32-3.28.27-2.93-.15-5.84-.44-8.77-.1-.17.02-.34-.04-.51-.05-.85-.07-1.71-.15-2.56-.22-2.63-.21-5.25.19-7.89,0-3.09-.22-6.2-.04-9.3-.02-.39,0-.77.14-1.18.22-.09.91-.16,1.75-.25,2.65,2.25-.01,4.33.33,6.45.21,3.42-.19,6.85.13,10.29-.05,2.32-.12,4.66.32,7,0,.4-.05.85.24.94.26,1.86-.22,3.4-.03,4.92-.06,1.54-.04,3.08-.1,4.74-.16-.21-1.05-.4-2-.59-2.97Zm-33.94,4.13c-.1.16-.18.25-.22.35-1.49,3.39-3.66,6.26-6.45,8.69-1.14.99-2.07,2.16-2.55,3.62-.38,1.14-.66,2.32-1.03,3.46-.83,2.6-1.24,5.25-.95,7.98.05.51.01,1.03,0,1.55-.08,2.81-.18,5.62-.26,8.44,0,.29.06.57.07.86.08,1.61.19,3.21.22,4.82.04,2.3,0,4.59.03,6.89,0,.51.16,1.02.3,1.51.05.17.28.29.55.54.43-1.08.35-2.03.32-2.98-.07-2.29-.14-4.59-.16-6.88-.02-2.76.13-5.53-.02-8.29-.15-2.88-.34-5.75.1-8.61.12-.79.17-1.6.32-2.38.33-1.75.7-3.49,1.07-5.23.22-1.04.8-1.87,1.48-2.68,1.89-2.24,3.8-4.47,5.56-6.82.91-1.23,1.53-2.68,2.23-4.05.1-.2-.02-.52-.04-.79h-.57ZM13.02,35.67c1.38-.48,2.88-.7,4.44-.73,2.3-.03,4.6-.13,6.88-.39,1.96-.22,3.88-.13,5.82.17,1.81.28,3.62.02,5.54-.27-.19-.61-.33-1.08-.48-1.56-2.94-.1-5.79-.24-8.65-.28-2.86-.03-5.72.03-8.58.07-2.87.04-5.74.11-8.68.18-.21.77-.69,1.46-.3,2.36,1.26.14,2.51.27,4.01.43Zm49.29,36.25c-.25-.79-.41-1.31-.55-1.79-3.02.08-5.88-.03-8.75.17-2.83.2-5.68-.06-8.61.27-1.19-.34-7.97-.45-10.21-.13-.03.33-.08.67-.1,1.01-.02.37,0,.75,0,1.25,1.35-.08,2.6-.18,3.85-.22,1.15-.04,2.3,0,3.44,0,.9,0,1.81,0,2.71-.02,1.48-.05,2.92-.5,4.44-.31,1.41.18,2.85.18,4.28.17,1.19,0,2.38-.19,3.58-.23,1.38-.05,2.76-.01,4.14-.03.51,0,1.02-.08,1.79-.14Zm5.19-33.24c-.15.54-.27.78-.28,1.02-.2,3.68-.38,7.36-.59,11.04-.11,1.94-.23,3.89-.37,5.83-.18,2.4-.48,4.8-.56,7.21-.1,3.09-.26,6.17-.63,9.34.2.08.43.18.75.32.1-.52.19-.91.23-1.29.33-3.47.66-6.95.98-10.42.16-1.77.33-3.54.45-5.32.07-1.02-.02-2.05.06-3.07.28-3.54.57-7.09.95-10.63.15-1.39-.28-2.54-.99-4.02Zm-24.22,5.98c-1.2-1.52-2.36-3.09-3.63-4.55-1.26-1.44-2.27-3.1-3.74-4.51-.59.93-.11,1.59.26,2.16.88,1.34,1.85,2.62,2.79,3.93.83,1.16,1.66,2.31,2.48,3.47.33.59.58,1.24.69,1.91.41,2.5.73,5.01.67,7.55-.02.8-.05,1.62.07,2.41.25,1.7-.02,3.43.4,5.11.02.1.13.17.24.31.17-.03.38-.07.73-.14-.12-2.96-.2-5.88-.36-8.78-.16-2.92-.39-5.84-.6-8.86Zm44.9,46.17c-.75-1.74-1.41-3.57-2.31-5.27-1.2-2.28-2.28-4.61-3.32-6.98-1.36-3.1-2.57-6.26-3.98-9.33-.18-.4-.32-.82-.54-1.38-.63.89-.51,1.64-.21,2.41,1.04,2.62,2.07,5.24,3.13,7.85.34.85.72,1.69,1.09,2.53.41.95.92,1.87,1.21,2.85.69,2.32,2.01,4.35,2.94,6.55.13.31.37.59.63.81.37.32.81.42,1.35-.04Zm-18.72-13.85c.2-.77.42-1.36.49-1.97.33-3.01.61-6.02.93-9.03.21-2,.49-3.99.66-5.99.24-2.8.4-5.6.6-8.56-.17-.4-.41-.95-.65-1.5-.51,4.49-1.45,8.84-1.67,13.28-.22,4.45-.63,8.89-.95,13.35.13.09.27.19.6.42Zm40.27-19.75c-.11,0-.22,0-.33.01,0,.9-.14,1.83.03,2.7.57,2.93,1.27,5.83,1.89,8.74.31,1.46.52,2.94.83,4.4.5,2.36,1.04,4.71,1.59,7.06.15.64.4,1.25.61,1.87.23-2.77.38-5.48-.35-8.16-.97-3.6-1.68-7.26-2.92-10.79-.15-.43-.22-.89-.33-1.34-.34-1.5-.67-2.99-1.01-4.49Zm-36.42,33.96c.37-.23.65-.3.7-.45.18-.54.34-1.1.4-1.66.25-2.51.44-5.03.69-7.54.2-2,.45-4,.66-6,.21-2.05.4-4.11.6-6.17.14-1.43.33-2.86.45-4.29.06-.78-.11-1.5-.9-2.11-.84,9.46-2.01,18.7-2.6,28.22Zm34.5-27.74c.14.3.35.59.42.91.53,2.3,1.04,4.6,1.55,6.9.07.34.11.68.17,1.02.23,1.3.43,2.61.71,3.9.35,1.63.96,3.23,1.12,4.87.25,2.6,1.2,5.01,1.76,7.53.05.21.32.37.55.61.36-1.3.38-1.62,0-2.4-.62-1.27-.74-2.62-.71-4.09-1.04-1.46-.72-3.32-1.21-5-.5-1.73-.9-3.5-1.14-5.3-.23-1.76-.66-3.5-1.06-5.24-.4-1.77-.88-3.52-1.39-5.56-.34.8-.56,1.31-.78,1.86Zm-40.06,12.17c.28-2.7.66-5.03.73-7.36.08-2.93.38-5.84.67-8.75.41-4.17.79-8.34,1.2-12.51.07-.67,0-1.25-.85-1.66-.09.52-.21.95-.24,1.39-.19,2.87-.17,5.77-.59,8.6-.59,3.94-.44,7.93-.94,11.87-.32,2.49-.54,4.99-.82,7.62.13.12.37.35.85.8Zm36.78.7c-.13.03-.25.06-.38.09-.39,1.6-.79,3.19-1.1,4.49,1.29,3.55,2.37,6.84,4.12,9.84.8-.22.6-.72.5-1.13-.39-1.61-.83-3.2-1.19-4.82-.46-2.06-.84-4.14-1.29-6.2-.17-.77-.43-1.51-.65-2.26Zm-29.93-17.4c-.12.27-.23.4-.24.55-.26,2.46-.5,4.91-.75,7.37-.13,1.31-.14,2.63-.39,3.92-.58,2.98-1.1,5.97-1,8.95-.25.41-.45.75-.67,1.12.09,1.09.15,2.19.29,3.26.14,1.09-.23,2.27.56,3.25.08-.6-.04-1.19,0-1.78.17-2.23.23-4.48.65-6.67.61-3.23.56-6.51,1-9.75.35-2.55.6-5.12.88-7.68.07-.63.06-1.26.04-1.89,0-.19-.2-.36-.37-.65Zm-64.86,1.85c-.36,2.03,1.39,3.01,1.4,4.55.53.38.99.7,1.36.96,1.26-.09,2.11-.57,2.68-1.66-.06-.55-.13-1.17-.19-1.73-1.04-.79-1.63-1.92-2.97-2.36-.67.07-1.45.16-2.27.25Zm61.77-15.49c-.08.07-.15.13-.23.2.06.21.13.43.19.64.45,1.48,1.22,2.88,1.6,4.34.97,3.69,2.68,7.08,3.87,10.68,1,3,2.23,5.93,3.42,8.86.62,1.53,1.38,3,2.11,4.58.45-.73.08-1.26-.12-1.76-1.37-3.53-2.78-7.04-4.15-10.57-.81-2.09-1.58-4.19-2.37-6.29-.91-2.42-1.81-4.85-2.76-7.26-.46-1.17-1.04-2.29-1.57-3.43Zm-40.77,24.65c1.08-.6,1.7-1.4,2.12-2.4-.06-.49-.13-1-.19-1.48-.99-1.01-1.03-2.82-2.79-3.06-.58.41-.88.94-.92,1.61-.09,1.68-.45,3.38.26,5.17.55.06,1.09.12,1.52.16Zm81.2,18.33c-.58-4.77-4.01-20.45-4.86-21.97-.11.28-.26.49-.24.67.16,1.31.3,2.62.56,3.91.49,2.41,1.09,4.8,1.56,7.22.36,1.85.91,3.66,1.1,5.56.11,1.13.46,2.25.76,3.35.14.52.44,1.01.67,1.52.24-.14.34-.2.44-.25Zm-51.58-14.93c-.55.06-1.03.11-1.58.16.47,4.65,0,9.19.44,13.81h1.36c-.08-4.68-.15-9.25-.23-13.97Zm-51.79,23.07c1.39.13,2.7.81,4.06,0-.15-1.86-1-3.37-1.93-4.85-.66-.12-1.21-.22-1.87-.34-.95,1.74-.88,3.42-.25,5.19Zm9.3-21.8c.68,1.16,1.3,2.22,1.97,3.35,1.53-.29,2.26-1.17,2.58-2.48-.4-.94-.78-1.83-1.06-2.48-.86-.57-1.51-1-2.23-1.47-1.35.71-.54,2.22-1.25,3.08Zm5.79-8.79c-.14,2.82.08,3.43,1.52,4.7.53,0,1-.11,1.38.02.72.25,1.2.02,1.61-.47.01-1.92-.18-2.31-2.05-4.26h-2.46Zm-16.98-1.46c-.45,1.8.61,2.84,1.5,3.94.64.78,1.5.7,2.38.52.28-.6.55-1.17.76-1.61-.8-1.4-1.52-2.68-2.28-4.02-.91.45-1.66.83-2.35,1.17Zm12.17-5.54c-2.24,1.09-3.03,2.77-2.45,5.27.5.21,1.1.46,1.71.72.48-.43.86-.76,1.21-1.08.31-1.53.42-2.99.18-4.47-.23-.15-.41-.27-.65-.43Zm58.28,18.35c-.13.02-.26.03-.39.05-.1.61-.2,1.21-.31,1.82.94,1.61,1.63,3.28,2.35,4.94.59,1.36,1.14,2.75,1.83,4.06.47.89,1.14,1.66,1.73,2.49.02-.02.05-.04.07-.06.1.21.21.42.31.62.19-.42.19-.76.06-1.05-1.87-4.29-3.76-8.58-5.65-12.87Zm-65.93-4.51c1.79.13,2.83-.65,3.77-2.85-.17-.81-.37-1.74-.59-2.77-.77.15-1.37.27-1.92.38-1.13,1.61-1.45,3.32-1.26,5.24Zm-4.48,18.2c1.48-1.14,2.42-2.46,3.09-4.02-.19-.77-.44-1.56-1.23-1.92-.36-.17-.85-.08-1.37-.11-.5,1.16-1.02,2.18-1.36,3.25-.32,1.02-.16,2,.88,2.81ZM104.14,8.43c-.17-2.42-.32-4.57-.46-6.63-.6-.52-1.1-.65-1.79-.23-.07,1.15-.19,2.35-.21,3.55-.03,1.16-.39,2.36.18,3.56.72-.08,1.38-.15,2.28-.25ZM27.99,57.19c-1.38,1.85-1.57,3.25-.63,4.8.68-.15,1.4-.31,2.2-.49.48-.58.99-1.19,1.45-1.74-.01-1.52-1.19-1.95-2.05-2.68-.36.04-.7.08-.97.11Zm-10.17,13.58c.9-.18,1.37-.71,1.36-1.34-.02-1.26.2-2.64-1.05-3.69-.62-.1-1.34-.22-2.12-.35-.23.49-.42.89-.55,1.17.21,1.05.39,1.94.58,2.93.6.43,1.24.89,1.78,1.28Zm-6.98,6.28c-1.67,1.72-2.06,3.53-1.28,5.73.52.15,1.04.3,1.62.47.55-1.23,1.04-2.32,1.51-3.36-.29-1.14-.69-2.11-1.85-2.84Zm32.75-3.15c.5,4.49.15,9.05.44,13.61h.82c.75-2.17-.48-4.38.27-6.26-.16-.89-.36-1.56-.38-2.23-.04-1.36.04-2.73.04-4.09,0-.34-.12-.68-.21-1-.02-.08-.17-.13-.28-.21-.15.04-.31.08-.7.19Zm-22.76-10c1.44,1.08,2.75.71,4.14-.21.14-.32.32-.73.48-1.12-.33-.84-.43-1.72-1.06-2.28-1.71-.07-2.32,1.52-3.55,2.08-.09.04-.13.18-.2.28,0,.22-.03.45,0,.67.04.22.14.43.19.58Zm-13.05-3.85c-1.41-.24-2.69,0-4.08.81.08,1.01-.29,2.09.23,3.19,1.84-.2,3.29-.91,4.28-2.34.08-.68.13-1.26-.43-1.66Zm26.97,2.58c.38-1.03,0-2.01-.33-2.97-.21-.61-.59-1.11-1.41-1.27-.21.1-.5.25-.48.24-.67,1.33-1.19,2.37-1.7,3.39.66.59,1.28,1.15,1.89,1.69.72-.38,1.36-.72,2.03-1.08ZM98.88,8.66c.67-.06,1.16-.11,1.6-.15.08-1.49.18-2.83.22-4.17.03-.96-.02-1.93-.04-3.05-.67.1-1.15.18-1.73.26-.26,2.36-.63,4.61-.05,7.11ZM4.08,91.89c.15,1.71-.07,3.45,1.7,4.6.21.02.54.08.88.1.38.02.75,0,1.07,0-.12-1.04-.23-1.94-.33-2.78-.3-.99-.85-1.76-1.73-2.41-.51.16-1.04.32-1.59.49Zm32.66-7.24c-.17.9-.31,1.62-.46,2.42.19.26.42.57.74,1,1.2-.11,2.42-.22,3.73-.34-.11-.78-.21-1.45-.32-2.2-.72-.61-1.46-1.22-2.23-1.86-.54.36-1.01.67-1.47.98Zm-25.93,5.04c.79.71,1.4,1.68,2.59,1.78.97-1.87.94-2.22-.48-4.79-.79-.62-1.54-.58-2.19.15-.45,1.01-.42,1.94.07,2.85Zm73.07-.12c.13-.04.27-.08.4-.12-.04-.25-.04-.52-.13-.76-.54-1.32-1.11-2.63-1.66-3.94-.71-1.68-1.42-3.36-2.13-5.05-.68-1.64-1.36-3.28-2.03-4.92-.26-.63-.5-1.26-.77-1.88-.03-.07-.19-.07-.35-.13-.05.41-.1.8-.12,1.01.34.79.62,1.42.88,2.05.55,1.32,1.03,2.67,1.65,3.96.94,1.95,1.78,3.92,2.41,6,.41,1.35,1.16,2.56,1.86,3.78Zm-62.44-2.5c-1.54,2.33-2.16,4.62-1.42,5.65.33.1.8.24,1.31.38.51-.37.96-.7,1.32-.96.13-2.91-.08-3.84-1.21-5.07ZM93.18,1.53c0,1.28-.17,2.44.05,3.53.23,1.18-.63,2.36.13,3.59.54-.05,1.09-.1,1.72-.16.48-2.09-.52-4.02-.31-6,.03-.29-.22-.61-.36-.96h-1.23Zm-31.12,84.85c.8-1.62.33-3.37.54-5.05.21-1.76.45-3.51.68-5.32-.33-.7-.52-1.57-1.65-1.8-.24,4.13.17,8.15.44,12.17Zm-47.54-12.27c-.17,1.31-.25,2.48.06,3.61.81.87,1.71,1.18,2.77.86.42-1.95.25-2.86-.83-4.47h-2.01Zm-10.68-3.48c-.36,1.16-.07,2.24-.12,3.28-.06,1.13-.01,2.27-.01,3.46,1.09.56,1.53-.26,1.99-.81.2-1.35.39-2.58.54-3.61-.82-.8-1.53-1.49-2.39-2.32Zm27.39,16.22c.23-1.16.45-2.22.65-3.23-.51-.63-1.05-.81-1.72-.43-.21.4-.42.8-.57,1.09-.56.33-1,.58-1.47.86.07.94.13,1.84.19,2.75,1.26.21,2.19,0,2.92-1.04Zm-15.92-3.23c-.84-.43-1.58-.81-2.33-1.19q-.76,1.13-.62,2.52,1.23.77,2.64,3.46,1.24-.05,1.39-1.24c-.46-.69-.91-1.36-1.31-1.97.08-.57.14-1.02.22-1.59Zm2.55,4.27c-.55.69-.8,1.17-1.18,1.46-.43.33-.99.51-1.61.82.14.81.27,1.58.4,2.32.59.29,1.05.51,1.5.73.52-.26.98-.48,1.39-.68.19-1.16.37-2.22.59-3.52-.24-.25-.55-.57-1.09-1.13ZM84.38,8.64c.65-2.56.05-4.9-.01-7.34-.59.03-1.03.05-1.51.08-.14.63-.26,1.18-.38,1.73.06,0,.13,0,.19,0,.13,1.73.27,3.46.41,5.26.41.09.73.15,1.3.27Zm3.74-.25c.71.06,1.18.1,1.65.14.47-3.47.34-5.59-.43-6.93-.35.06-.72.13-1.05.18-.06.23-.11.34-.11.45.04,1.38.13,2.74-.26,4.11-.16.55.1,1.21.19,2.04Zm9.4.07c.07-1.24.05-2.33.23-3.38.2-1.21.05-2.37-.19-3.67-.57.05-1.11.09-1.6.13-.56,2.52.15,4.73.63,7.03.37-.04.58-.07.94-.11ZM10.24,69.93c-.64.04-1.04.06-1.5.09-.59-.49-1.19-1-1.8-1.51-.81.09-1.65-.19-2.34.67.35.76.71,1.53,1.03,2.22.6.34,1.1.62,1.7.96.64-1.14,2.39-.78,2.91-2.43Zm-2.06,12.96v-3.83c-.58-.06-1.09-.12-1.61-.18-1.27,1.12-.74,2.69-1.18,4.01.31.46.58.88.85,1.28.88-.26,1.68-.44,1.93-1.28Zm28.2-20.29c.86.25,1.67.24,2.54-.08.17-1.48,1.16-2.92.06-4.31-1.21-.08-1.68.72-2.2,1.38-.37.48-.59,1.08-.84,1.55.17.56.3.99.44,1.46Zm-16.64,17.77c.62.78,1.3,1.64,2.09,2.63.49-.42.85-.74,1.18-1.02-.07-.69-.13-1.25-.19-1.8-.51-.43-.98-.84-1.29-1.1-1.07-.19-1.94-.35-2.73-.49-.5.56-.96,1.09-1.41,1.6.08.09.11.17.15.17.67,0,1.35,0,2.2,0ZM82.03,8.34c-.14-2.4-.07-4.63-.51-6.87h-1.18c-.09,1.87-.17,3.68-.26,5.66.17.37.41.88.67,1.44.4-.07.71-.13,1.28-.23ZM31.93,82.02c.36.66.62,1.14.81,1.49v1.87c.4.6.86,1.07,1.58,1.17,1.46-1.04,1.66-1.79.86-3.14-.35-.58-.73-1.15-1.13-1.77-.64.12-1.25.23-2.12.39Zm.21-4.47c-.05,1.15-.5,2.18.33,3.26.49-.11,1.03-.24,1.38-.32,1.31-1.3.98-2.82,1.3-4.2-.38-.2-.67-.36-1.05-.56-.69.65-1.35,1.27-1.95,1.83Zm-13.61-46.13c.51.08,1.1.17,1.86.29-.13-1.83-.25-3.51-.37-5.2-.59-.38-1.11-.41-1.72,0-.12.85-.26,1.75-.36,2.48.22.9.39,1.62.59,2.43Zm-8.72,41c-1.11-.27-1.64.43-2.26.84-.51,1.52-.81,3-.3,4.7.85-.54,1.84-.63,2.19-1.81-.73-1.21.56-2.35.37-3.73ZM79.08,8.41c-.04-2.46.43-4.71.03-7.04h-1.26c-.3,2.33-.5,4.58.27,6.88.2.03.47.08.96.16Zm-13.62,69.76c-.17-.49-.36-1.06-1.09-1.27-.16,1.83-.36,3.55-.44,5.26-.07,1.67-.02,3.35-.02,5.06.69-.01.76-.43.8-.92.23-2.63.48-5.25.74-8.13Zm-37.05-6.82c-.46.89-.79,1.54-1.11,2.17.23,1.03.15,2.13,1.18,2.82.76-.58,1.51-1.16,2.27-1.74-.24-.7-.45-1.28-.67-1.92-.46-.36-.94-.75-1.66-1.33ZM85.63,1.19c-.41,2.5.04,4.75.2,7.12.41-.03.71-.05,1.11-.07-.24-2.35.95-4.6-.08-6.88-.37-.05-.7-.09-1.24-.16Zm-49.56,76.96c-.26.77-.46,1.36-.65,1.95-.49,1.5-.29,1.97,1.23,2.92.73-.31.99-1.02,1.3-1.63-.03-.95.25-1.9-.57-2.72-.34-.13-.76-.3-1.32-.52Zm3.15,1.21c.32,1.09-.7,2.24.29,3.33,1.07-.35,1.7-1.12,2.25-1.91.11-2.61.06-2.75-1.27-3.2-.37.52-.77,1.07-1.27,1.78Zm-21.93,2.77c-.14,1.27-1.9,2.3-.33,3.83.45-.06.94-.12,1.35-.17,1.06-1.38,1.2-2.81,1-4.31-.86-.43-1.32.2-2.02.65ZM76.42,1.33h-1.33c-.07.22-.18.38-.17.54.06,1.95.13,3.9.2,5.79.35.48.61.94,1.35.77.21-2.33.16-4.66-.04-7.09Zm-40.54,74.47c.48.57.88,1.05,1.31,1.57.36-.08.69-.15,1.05-.22.44-1.17,1.11-2.27.57-3.61-1.07.07-2.07.13-3.2.19.1.78.18,1.39.27,2.07Zm15.58-12.1c-.57.05-1,.09-1.5.13-.34,1.87-.11,3.58.67,5.36.39-.06.8-.13,1.22-.2.06-1.82.11-3.48-.4-5.29Zm-25.24,8.46c-.83-.41-1.57-.78-2.46-1.22-.39.62-.78,1.23-1.12,1.77.23,1.16.74,2,1.47,2.79,1.56-.68,1.62-2.14,2.11-3.34Zm-1.32,12.34c-1.33-.73-2.41-.13-3.5.11-.18.04-.29.42-.4.6.81.78,1.54,1.5,2.28,2.2.36.34.78.48,1.42.07.06-.89.13-1.9.21-2.98Zm-8.54,9.79c-.74-.57-1.48-1.15-2.35-1.82-.36.37-.74.76-1.06,1.08.38,1.21.71,2.24,1.05,3.3h1.38c.35-.91.66-1.74.98-2.57Zm41.93-30.72c-1.09.53-.9,1.47-.87,2.3.04,1,.19,2,.29,2.99h1.24c.62-1.57.29-3.16.46-4.72-.47-.24-.82-.41-1.13-.57ZM27.35,31.46c-.08-1.85-.16-3.47-.23-5.08q-.94-.11-1.77.2c0,.98.12,2.03-.04,3.02-.12.74-.02,1.31.36,1.97.53-.04,1.03-.07,1.67-.11Zm-7.43,33.34c-.23.21-.42.4-.58.55.37,1.11.71,2.12,1.08,3.2.4.11.82.23,1.35.38.34-.49.65-.94.94-1.36-.15-.76-.29-1.41-.41-2.02-.8-.25-1.5-.47-2.37-.75Zm22.18,4.35v-5.05c-.5-.12-.92-.22-1.43-.35-.45,1.89-.43,3.64.1,5.4h1.33Zm-11.1-38.58c.33.42.62.8.94,1.21.83-1.3.97-3,.52-5.34-.02-.09-.14-.16-.29-.31-.43.08-.91.16-1.45.26.1,1.43.18,2.73.28,4.18Zm-14.09,1.08c.38-1.73.28-3.37.32-4.93q-.93-.38-1.81-.27c-.23,1.82-.11,3.58.76,5.27.21-.02.37-.03.73-.06Zm12.82-5.2c-.59-.6-1.02-.41-1.44-.03v4.69c.64.5,1.15.55,1.8.24-.12-1.7-.25-3.36-.36-4.9Zm5.82,4.79c-.1-1.64-.2-3.24-.31-4.96-.56.03-.98.05-1.51.07v5.1c.59.52,1.16.14,1.82-.22Zm55.82-22.49c.64-.72.75-.71.79-2.56.04-1.59.41-3.25-.39-4.79-.29.04-.46.06-.78.1-.11,2.04-.12,4.08.02,6.12.02.36.22.71.36,1.14Zm-18.13-.19c.34-.06.54-.09.85-.15,0-1.2.03-2.34,0-3.48-.03-1.17-.13-2.35-.19-3.48-.29-.05-.4-.09-.51-.07-.11.01-.21.07-.34.12-.6,2.3-.01,4.58.21,7.05Zm2.89,77.84c-.1.04-.2.08-.3.13-.12,1.45-.25,2.9-.37,4.33q1.57.46,2.63,0c-.65-1.48-1.31-2.97-1.96-4.45Zm-57.15,7.34c-.33.08-.65.15-.98.23-.33.97-1.45,1.56-1.14,2.84.92.05,1.81.1,2.72.15.57-1.26.34-2.26-.6-3.22Zm23.4-16.47v-3.4c-.8-.24-1.5-.5-2.26-.06-.06.69-.13,1.37-.18,1.98.5.97,1.5.83,2.45,1.48ZM14.35,31.62c.14-1.78.32-3.55-.19-5.45-.45.11-.75.18-1.09.27-.04,1.29-.09,2.48-.1,3.67,0,.39.06.81.19,1.17.15.41.48.63,1.19.34Zm-8.26,53.87c-.31-.27-.47-.44-.66-.56-.18-.11-.39-.17-.59-.25-.45.51-.85.97-1.24,1.41.17,1.54.33,3.05.5,4.59.26-.03.42-.05.74-.09-.07-1.77.13-3.49,1.26-5.1Zm55.55-16.7c.35-2.09.25-3.85-.3-5.05-.28.03-.59.06-1.01.1v5.24c.45-.1.84-.19,1.31-.29Zm-48.3,9.18c.11,1.06.23,2.16.37,3.46.66.73,1.14.9,1.98.49.16-.26.4-.63.56-.89,0-.96-.51-1.36-1.12-1.75-.66-.42-1.27-.92-1.79-1.31Zm10.64,18.55c-.23-1.14-1.14-1.78-1.82-2.67-.5.18-.95.34-1.45.52.15.82.29,1.53.43,2.27,1.01.28,1.93.39,2.84-.12ZM70.84,8.62c.44-.04.8-.07,1.2-.1-.12-2.24-.23-4.36-.34-6.48-.02-.4,0-.84-.66-.78-.06.14-.18.29-.18.44-.01,2.24,0,4.47,0,6.92Zm-28.57,79.1c.73-.61.18-1.33.33-1.92.14-.6.14-1.24.18-1.86.03-.66.13-1.33-.31-2.17-.49,1-1.61,1.21-1.7,1.98.54,1.43.99,2.59,1.51,3.98Zm3.18-24c-.37,2.15-.38,3.92-.03,5.34.32.04.68.08,1.13.13-.06-.81-.27-1.52-.13-2.13.26-1.09,0-2.11-.06-3.27-.31-.02-.57-.04-.92-.07Zm34.93,27.22c.14-.91-.44-1.51-.8-2.19-.37-.71-.72-1.42-1.04-2.15-.31-.73-.54-1.5-.87-2.22-.31-.7-.71-1.36-1.15-2.2-.19.43-.29.68-.41.95,1.14,1.08,1.1,2.64,1.74,3.9.66,1.3,1.33,2.61,2,3.93h.51Zm-55.94,3.93c.13-.05.26-.1.39-.15.06-2.03-.01-4.04-.39-6.14-.38.07-.64.12-.88.16-.05,1.66.8,3.27-.46,4.82.5.48.92.9,1.34,1.31Zm23.15-31.37c-.03,2.02-.36,3.84.18,5.71.39-.02.64-.03,1.03-.05-.13-1.87.25-3.63-.21-5.41-.26-.07-.48-.12-1-.26Zm5.35.07c-.4,1.76-.02,3.32.17,4.88.02.2.39.35.69.6.6-1.68.19-3.23.4-4.74.03-.19-.12-.41-.19-.62-.35-.04-.63-.07-1.07-.13Zm-26.62,11.48c-.42.5-.74.89-.97,1.16-.14.92-.27,1.69-.4,2.56.25.18.55.39.61.43.81-.63,1.48-1.14,2.1-1.63-.46-.86-.85-1.6-1.34-2.53Zm28.93-6.1c.43-.07.75-.12,1.1-.17v-5.11c-.44.09-.74.15-1.09.23-.03,1.71-.27,3.33-.01,5.06ZM23.08,26.4v3.65c.52.36.92.63,1.26.86.35-1.34.24-2.93-.15-4.61-.37.03-.69.06-1.11.1Zm-13.3-.06c-.82.37-.86,1.02-.81,1.72.05.68.05,1.36.11,2.03.05.55.17,1.09.27,1.72.45-.06.75-.09,1.13-.14-.43-1.81.24-3.64-.71-5.33Zm1.03,47.49c-.13.24-.3.56-.46.88.16-.1.32-.2.47-.3.39.64.77,1.29,1.23,2.05.52-.33.93-.58,1.27-.8.1-.75.19-1.35.25-1.83h-2.77Zm26.46-4.64c-.09-1.81-.17-3.52-.26-5.3-.33.11-.49.15-.81.26-.1,1.63-.19,3.3-.3,5.04h1.37Zm29.57,10.08c-.14.03-.28.05-.42.08-.12,2.04-.25,4.09-.35,6.13-.01.27.09.56.19.82.05.13.22.22.51.48,0-.87-.05-1.55.01-2.22.13-1.42.35-2.83.46-4.25.02-.34-.26-.69-.4-1.04ZM3.71,67.76c.82-.14,1.53-.26,2.25-.39.21-.99-.54-1.61-.71-2.41h-1.54v2.79Zm34.66,1.46c.42-.06.68-.09,1.1-.14-.28-1.75.29-3.45-.32-5.05-.71-.14-.89.26-.89.67,0,1.48.07,2.96.11,4.53Zm-33.1,9.57c-.51.03-1.06.07-1.68.1.19,1.78-.28,3.45.31,5.45.82-1.05.32-2.03.62-2.83.32-.84.48-1.73.75-2.72Zm38.09-15.05c-.4,3.7-.34,4.49.48,5.34.51-1.71.36-3.4.32-5.07,0-.09-.12-.17-.2-.27h-.6Zm27.74,11.8c.1.02.2.03.3.05.17-1,.36-2,.51-3.01.12-.84.19-1.7.3-2.54.16-1.21.33-2.41-.19-3.61-.31,3.04-.61,6.08-.92,9.12Zm-41.01,6.44c1.56-.79.61-2.08.64-3.25-.62.56-1.23,1.11-1.84,1.66.05.44.09.76.13,1.14.39.17.74.32,1.07.46Zm-3.59-18.98c-.23.63-.41,1.14-.61,1.7.59.37,1.06.97,1.88,1.07.52-.92.27-1.78.11-2.71-.47-.02-.86-.04-1.38-.07Zm-14.68-31.28c.43-1.86.38-4.92.07-5.3-.03-.03-.1-.03-.24-.07-.13.07-.32.18-.56.31.17,1.71-.17,3.46.73,5.06Zm21.04,38.33c-.98.4-1.81.74-2.66,1.08.52.74,1,1.43,1.58,2.28.89-.95.87-2.09,1.07-3.36Zm-16.99.76c-.27.94-1.17,1.25-1.3,2.18.95.05,1.83.1,2.8.15v-1.24c-.47-.34-.88-.63-1.5-1.08Zm18.99-6.7c-.46.04-.72.06-1.09.1-.07,1.58.29,3.01.61,4.46.7-1.41.46-2.89.48-4.56Zm5.46-1.82c.65.09,1.08.15,1.54.22.1-1.11.13-2.1-.32-3.17-1.44.61-.97,1.81-1.22,2.95Zm-16.27,17.14v3.61c.26.06.52.11.87.19.16-1.02.29-1.91.44-2.86-.36-.26-.71-.51-1.31-.93Zm49.27-24.31c-.11,0-.22,0-.34,0,.05,2.2-.67,4.35-.15,6.95.19-1.3.34-2.23.46-3.17.12-.95.2-1.91.32-3.07-.04-.1-.17-.41-.29-.71ZM21.04,26.38c0,.87-.03,1.61.01,2.35.01.26.16.54.31.77.07.11.28.14.5.23.23-.42.44-.82.54-1-.21-.93-.37-1.68-.53-2.43-.25.02-.42.04-.83.08Zm62.28,49.29c.09,2.09.7,3.46,1.86,4.48-.14-.46-.2-.79-.33-1.09-.5-1.14-1.02-2.27-1.53-3.4Zm-60.77-5.59c-.93-.15-1.54-.26-2.21-.37-.13.28-.24.52-.34.73q.48.63,1.3.99c.34-.37.71-.78,1.24-1.35Zm1.07,8.67c.25-.77.43-1.25.56-1.74.03-.13-.1-.3-.18-.49-.24.02-.45.04-.6.06-.4.62-.76,1.16-1.22,1.88.54.11.93.19,1.45.29Zm-3.9,9.25c.06-.66.11-1.28.18-2.05-.58.47-1.04.84-1.56,1.25.29.46.56.96,1.38.8Zm12.53-.36c.78.41,1.56.82,2.56.1-.98-.15-1.73-.7-2.56-.1Zm35.99-.75q.4-.88.11-3.36c-.39,1.82-.4,1.99-.11,3.36Zm-57.22-2.49c-.59-.12-.96-.2-1.7-.35.53.64.82.99,1.24,1.49.18-.43.28-.68.47-1.14Zm61.28-19.65c.08,0,.15,0,.23.01v-1.57s-.1,0-.15,0c-.03.52-.05,1.05-.08,1.57ZM21.68,31.67c.85-.48.49-.85,0-1.55v1.55Zm49.48,45.61c-.44.41-.61.56-.87.8.33.21.54.35.87.55v-1.35Zm-4.23-43.44c.1-.03.2-.07.3-.11-.1-.26-.2-.52-.3-.79-.09.03-.17.06-.26.09.09.27.17.53.26.8Z"/><path class="cls-1" d="m64.83,49.82c-.43-.13-.65-.2-.87-.27,0-.09.01-.18.02-.27.17-.02.37-.1.52-.05.11.04.15.25.34.6Z"/><path class="cls-1" d="m46.19,100.08c-.64-.31-1.32-.3-1.22-1.25.55.22,1.25.11,1.22,1.25Z"/><path class="cls-1" d="m67.35,96.46c-.51-.49-.69-.66-.96-.91.31-.25.54-.43.96-.77v1.68Z"/><path class="cls-1" d="m56.32,90.52c-.71.25-.98,0-1.09-.53q.72-.27,1.09.53Z"/><path class="cls-1" d="m54.76,94.43c-.27-.17-.49-.32-.68-.44.03-.15.01-.23.05-.26.41-.41.77-.44,1.08.22-.13.14-.27.29-.44.48Z"/><path class="cls-1" d="m56.35,101.74c-.09.15-.2.32-.36.57-.34-.12-.62-.23-.98-.36.13-.22.18-.41.29-.47.37-.19.75-.27,1.05.26Z"/><path class="cls-1" d="m37.55,95.1v-1.32c.43.45.63.66.89.92-.23.22-.38.36-.53.5l-.36-.1Z"/><path class="cls-1" d="m59.79,101.26h1.15c-.2.43-.34.72-.61,1.31-.25-.6-.37-.91-.54-1.31Z"/><path class="cls-1" d="m33.48,92.37c-.45-.39-.7-.6-1.07-.92.36-.15.58-.24.94-.39.05.45.08.75.13,1.31Z"/><path class="cls-1" d="m51.01,95.86c.03-.43.04-.64.07-1.05.47.3.8.51,1.46.93-.72.06-1.03.08-1.53.12Z"/><path class="cls-1" d="m49.15,90.81c-.32-.3-.55-.53-.85-.82q.97-.24.85.82Z"/><path class="cls-1" d="m32.5,95.77c-.14.42-.2.61-.3.91-.29-.13-.5-.23-1.05-.48.62-.19.89-.28,1.35-.43Z"/><path class="cls-1" d="m30.89,93.65c-.44.28-.56.36-.77.5-.18-.27-.34-.52-.72-1.1.65.26.95.38,1.49.6Z"/><path class="cls-1" d="m57.91,90.48c.36.45.53.67.76.97-.27.16-.44.26-.76.46v-1.42Z"/><path class="cls-1" d="m46.2,90.48c-.19.32-.27.45-.45.77-.21-.38-.36-.65-.71-1.27.6.25.81.34,1.16.49Z"/><path class="cls-1" d="m35.46,99.19c-.62.31-.83.09-.86-.66.32.1.53.11.68.22.11.08.12.28.18.44Z"/><path class="cls-1" d="m64.27,98.54c-.38.28-.51.37-.77.56-.14-.34-.25-.62-.51-1.28.62.34.87.48,1.28.71Z"/><path class="cls-1" d="m47.88,93.43c.54.58.32.84-.22,1.12-.35-.44-.4-.76.22-1.12Z"/><path class="cls-1" d="m30.08,100.46c-.3-.15-.45-.22-.64-.32.05-.22.11-.42.17-.7.61.12.82.35.46,1.02Z"/><path class="cls-1" d="m62.9,99.87c.31-.24.44-.33.56-.43.51.2.77.46.28,1.08-.26-.19-.49-.37-.84-.64Z"/><path class="cls-1" d="m54.03,99.85h1.17q-.45.67-1.17,0Z"/><path class="cls-1" d="m31.75,101.71c-.16-.23-.24-.36-.44-.64.41-.07.71-.12,1.02-.17.04.09.08.17.12.26-.22.18-.44.35-.69.56Z"/><path class="cls-1" d="m48.69,101.97c-.22-.3-.34-.47-.59-.8.45-.1.76-.16,1.07-.23.06.09.11.17.17.26-.19.23-.39.46-.65.77Z"/><path class="cls-1" d="m35.92,102.06c-.07-.24-.15-.47-.29-.93.42.11.82.14.83.23.03.25-.09.53-.15.79l-.39-.09Z"/><path class="cls-1" d="m36.38,95.59c.06.38.09.62.17,1.14-.46-.31-.68-.46-1.08-.74.39-.18.6-.27.91-.41Z"/><path class="cls-1" d="m57.68,93.24c.29.19.57.38.94.62q-.72.21-.94-.62Z"/><path class="cls-1" d="m39.61,98.09c.23.1.46.2.71.3q-.42.63-.71-.3Z"/><path class="cls-1" d="m59.32,97.86c.28.23.4.33.63.52-.19.22-.35.41-.56.65-.22-.2-.38-.34-.58-.52.17-.21.31-.38.52-.65Z"/><path class="cls-1" d="m51,98.96c.15.19.27.35.42.54-.18.15-.3.25-.47.4-.14-.19-.26-.36-.41-.56.17-.14.29-.24.46-.39Z"/><path class="cls-1" d="m30.13,90.22c-.17.65-.23.87-.34,1.29-.32-.3-.49-.47-.78-.75.34-.16.54-.26,1.12-.54Z"/><path class="cls-1" d="m42.61,100.29c.46.42.67.62,1.01.94-.72.2-.93-.01-1.01-.94Z"/><path class="cls-1" d="m36.47,91.46c-.22-.31-.37-.52-.65-.93.5.03.77.04,1.27.07-.27.39-.42.59-.62.87Z"/><path class="cls-1" d="m41.8,92.76c.83-.19,1.1.02.67.83-.28-.35-.48-.59-.67-.83Z"/><path class="cls-1" d="m63.87,92.24c.55.29.77.41,1.15.61-.35.25-.57.41-.9.65-.08-.4-.13-.64-.26-1.26Z"/><path class="cls-1" d="m44.66,92.85c.16.03.32.06.55.1-.01.23-.02.43-.04.91-.36-.38-.55-.59-.74-.8.08-.07.16-.14.24-.21Z"/><path class="cls-1" d="m62.82,94.5c.17.35.29.6.59,1.21-.61-.32-.86-.45-1.21-.64.23-.21.37-.34.62-.57Z"/><path class="cls-1" d="m58.09,95.67c.24.21.48.43.8.71-.72.31-.96.07-.8-.71Z"/><path class="cls-1" d="m43.7,95.96c.99.06,1.21.25.86.98-.27-.31-.45-.52-.86-.98Z"/><path class="cls-1" d="m42.91,97.61c-.79.05-1.03-.12-.93-.93.35.35.56.56.93.93Z"/><path class="cls-1" d="m55.76,97.65c-.21.25-.31.36-.49.59-.17-.26-.3-.46-.59-.92.51.15.75.23,1.08.33Z"/><path class="cls-1" d="m39.16,91.87c.88-.07.88.22.69.88-.28-.37-.43-.56-.69-.88Z"/><path class="cls-1" d="m40.86,102.96c-.1-.44-.14-.63-.2-.86q.73.13.2.86Z"/><path class="cls-1" d="m39.18,100.52c.28.07.57.15.85.22-.03.1-.06.21-.08.31-.28-.08-.57-.15-.85-.23.03-.1.05-.2.08-.3Z"/><path class="cls-1" d="m67.75,91.61q-.7.59-.97-.23c.34.08.6.14.97.23Z"/><path class="cls-1" d="m60.8,90.86c-.12-.23-.25-.46-.37-.69.08-.05.17-.11.25-.16.16.22.33.44.49.66-.12.07-.25.13-.37.2Z"/><path class="cls-1" d="m42.3,90.45c.29.32.48.53.82.9-.81.06-1.06-.09-.82-.9Z"/><path class="cls-1" d="m41.42,95.7c-.06-.25-.08-.35-.13-.56.19-.09.41-.2.6-.29.39.4.29.56-.47.85Z"/><path class="cls-1" d="m34.61,94.99c-.48-.46-.68-.65-.97-.92.32-.09.48-.14.75-.22.05.28.1.51.22,1.13Z"/></g></g></svg>