<svg xmlns="http://www.w3.org/2000/svg" width="69.864" height="30.301" viewBox="0 0 69.864 30.301">
  <g id="_30" data-name="30" transform="translate(1033.402 -1845.985) rotate(90)">
    <path id="パス_7" data-name="パス 7" d="M1858.313,992.066a7.5,7.5,0,0,1-1.033-3.435c-.129-1.46-.4-2.906-.562-4.364a23.626,23.626,0,0,0-.817-3.418,8.481,8.481,0,0,0-.881-1.9c-.249-.445-.59-.438-.9-.039a3.429,3.429,0,0,0-.3.531,1,1,0,0,1-1.23.557.906.906,0,0,1-.623-1.022c.011-.349,0-.7,0-1.057a18.883,18.883,0,0,1-2.98-1.678,2.649,2.649,0,0,1-.638-.6,10.582,10.582,0,0,1-2.039-3.855,2.352,2.352,0,0,1-.119-.511c-.081-1.048-.2-2.1-.2-3.145a5.455,5.455,0,0,1,.339-1.541,14.7,14.7,0,0,1,.541-1.392.825.825,0,0,1,.249-.353c.552-.385,1.108-.764,1.683-1.113a1.3,1.3,0,0,1,.666-.188,5.384,5.384,0,0,1,2.544.588,10.715,10.715,0,0,1,3.939,3.683,8.281,8.281,0,0,1,.711,1.6,19.451,19.451,0,0,1,.6,1.93,4.705,4.705,0,0,1,.191,1.388,4.812,4.812,0,0,1-1.143,3.494c.38.48.747.96,1.131,1.424a6.974,6.974,0,0,1,1.155,2.164c.373,1.049.723,2.108,1.132,3.143a6.8,6.8,0,0,0,1.564,2.262,2.05,2.05,0,0,0,.355-.394,4.922,4.922,0,0,1,.954-1.339,4.668,4.668,0,0,0,1.025-1.825c.322-.913.647-1.826,1.018-2.719a11.318,11.318,0,0,1,.695-1.2,5.825,5.825,0,0,1,1.13-1.395,5.2,5.2,0,0,0-.7-2.183.775.775,0,0,1-.119-.487,4.383,4.383,0,0,0-.031-.881,8.747,8.747,0,0,1,.532-3.9,6.953,6.953,0,0,1,1.765-2.808,10.5,10.5,0,0,1,2.387-1.922,4.37,4.37,0,0,1,3.2-.513,2.994,2.994,0,0,1,2.391,2.291c.092.34.207.675.274,1.019a4.381,4.381,0,0,1,.118,1.045c-.067,1.254-.1,2.518-.283,3.757a7.028,7.028,0,0,1-1.225,2.985,7.157,7.157,0,0,1-2.328,2.237,2.27,2.27,0,0,0-.356.258,1.5,1.5,0,0,1-.96.383,3.9,3.9,0,0,0-.726.167,5.185,5.185,0,0,0-.062.689.968.968,0,0,1-.515,1.031,1.578,1.578,0,0,0-.32.287c-.758-.18-.9-1.04-1.527-1.393a3.647,3.647,0,0,0-1.229,1.706c-.273.676-.455,1.39-.725,2.068-.329.825-.347,1.718-.606,2.555a11.264,11.264,0,0,0-.32,2.511,17.438,17.438,0,0,1-.992,3.834,1.784,1.784,0,0,0,.011,1.194q.721,2.076,1.4,4.166c.169.526.283,1.07.408,1.609.339,1.459.958,2.824,1.411,4.244.365,1.143.7,2.3,1.071,3.439.2.612.436,1.212.667,1.814.389,1.01.869,1.994,1.158,3.031.285,1.02.779,1.952,1.078,2.959.35,1.178.661,2.369,1.029,3.541.254.807.442,1.631.761,2.423a20.4,20.4,0,0,1,.635,2.282c.177.65.369,1.3.536,1.948a18.819,18.819,0,0,1,.689,3.886c.053,1.26.2,2.517.155,3.782a3.8,3.8,0,0,1-.043.614.6.6,0,0,1-.553.484c-.255,0-.338-.2-.437-.379a1.1,1.1,0,0,1-.05-.167c-.527-1.485-1.045-2.973-1.586-4.453-.231-.633-.534-1.24-.764-1.873-.309-.847-.584-1.706-.85-2.569-.161-.525-.434-1.016-.646-1.527-.293-.7-.585-1.408-.862-2.118-.169-.432-.315-.873-.458-1.314-.271-.836-.563-1.668-.791-2.517a15,15,0,0,0-1.047-2.885,2.368,2.368,0,0,1-.12-.235c-.65-1.789-1.281-3.586-1.952-5.367-.506-1.344-1.064-2.67-1.6-4-.271-.677-.532-1.358-.807-2.034q-.678-1.667-1.37-3.328a2.3,2.3,0,0,0-.236-.34c-.361,1-.708,1.916-1.024,2.843-.538,1.581-1.053,3.169-1.583,4.752-.25.747-.49,1.5-.773,2.234-.4,1.037-.66,2.117-1.012,3.168-.344,1.026-.745,2.034-1.1,3.056-.64,1.825-1.262,3.657-1.9,5.483-.145.414-.337.811-.5,1.217-.253.62-.521,1.236-.751,1.866-.45,1.237-.869,2.486-1.316,3.725s-.923,2.468-1.368,3.708c-.128.357-.16.75-.294,1.1-.333.876-.693,1.742-1.06,2.605-.043.1-.189.16-.3.247a7.692,7.692,0,0,1-.392-.8,1.113,1.113,0,0,1-.1-.671,3.455,3.455,0,0,0,.1-1.129,19.033,19.033,0,0,1,.417-3.222,9,9,0,0,0,.236-1.122,45.513,45.513,0,0,1,1.069-5.345c.31-1.371.7-2.731,1.137-4.067q.7-2.122,1.37-4.253c.174-.558.359-1.113.539-1.67.331-1.024.658-2.049.993-3.073.411-1.253.829-2.5,1.239-3.758.182-.556.361-1.114.522-1.677.194-.676.357-1.362.554-2.036.189-.647.461-1.274.6-1.929.277-1.324.848-2.556,1.142-3.872a1.348,1.348,0,0,1,.143-.415,2.8,2.8,0,0,0,.384-1.145A5.913,5.913,0,0,1,1858.313,992.066Zm5.136,7.4a.862.862,0,0,1,.574.616c.105.366.23.727.362,1.085.557,1.514,1.121,3.025,1.68,4.538.284.769.559,1.542.846,2.31.3.8.619,1.581.9,2.38.38,1.076.684,2.181,1.11,3.238,1.009,2.5,2,5.015,2.833,7.585q.6,1.837,1.234,3.661c.377,1.08.782,2.15,1.175,3.225.037.1.075.2.113.3a2.7,2.7,0,0,0,.1-1.3,36.529,36.529,0,0,0-1.182-5.312c-.253-.933-.569-1.85-.847-2.777-.578-1.935-1.1-3.889-1.739-5.8-.536-1.608-1.1-3.21-1.76-4.777-.466-1.107-.833-2.256-1.219-3.4-.5-1.471-.973-2.952-1.461-4.427a19.562,19.562,0,0,1-.685-2.085,34,34,0,0,0-.98-3.372c-.4-1.256-.865-2.493-1.292-3.742-.151-.443-.232-.913-.413-1.342-.489-1.161-.979-2.324-1.537-3.452-.375-.758-.873-1.456-1.307-2.185a13.152,13.152,0,0,1-.954-1.678c-.431-1.053-.753-2.149-1.161-3.212a8.762,8.762,0,0,0-1.211-2.122,1.58,1.58,0,0,0-1.935-.635,5.538,5.538,0,0,1-.681.173,1.97,1.97,0,0,0-1.5,1.8c0,.117-.026.266.033.344a.78.78,0,0,0,.39.3c.1.024.28-.091.352-.195.115-.162.153-.377.254-.553a1.027,1.027,0,0,1,1.479-.5,1.372,1.372,0,0,1,.514.446,6.046,6.046,0,0,1,.463.847,25.016,25.016,0,0,1,1.182,3.765,2.561,2.561,0,0,1,.05.348c.064.4.135.809.194,1.215.033.226.052.454.069.683.043.583.059,1.169.128,1.748.077.638.25,1.266.294,1.9a6.735,6.735,0,0,0,.529,1.928,35.184,35.184,0,0,0,2.23,3.881c.169.316.541.522.82.779.021.02.036.047.055.068a12.653,12.653,0,0,1,1.79,2.806,1.537,1.537,0,0,1,.138.923.578.578,0,0,1-.515-.4c-.329-.685-.684-1.357-1.04-2.028-.038-.072-.157-.1-.36-.222.1.335.141.531.215.714.274.681.568,1.354.839,2.036.618,1.552,1.228,3.107,1.841,4.66.354.9.722,1.79,1.056,2.695.354.961.665,1.938,1.013,2.9.629,1.739,1.392,3.425,1.926,5.2.506,1.682,1.118,3.333,1.7,4.993.214.608.483,1.2.716,1.8.507,1.314,1,2.632,1.509,3.946.231.6.492,1.193.71,1.8.408,1.13.792,2.268,1.2,3.4.032.088.139.149.256.268a1.493,1.493,0,0,0-.057-.931q-.813-2.141-1.6-4.29c-.274-.74-.548-1.481-.8-2.229-.3-.887-.569-1.783-.864-2.672-.193-.583-.43-1.153-.608-1.741a37.544,37.544,0,0,0-1.478-3.951c-.289-.674-.562-1.356-.808-2.047-.443-1.243-.843-2.5-1.3-3.742-.372-1.019-.833-2.005-1.187-3.03-.586-1.692-1.149-3.391-1.83-5.049a13.965,13.965,0,0,1-.486-1.411A3.681,3.681,0,0,1,1863.449,999.466Zm-15.232,31.32c.215-.727.423-1.457.649-2.182q.654-2.1,1.325-4.193c.55-1.732,1.111-3.461,1.654-5.2.49-1.567.957-3.141,1.55-4.674.38-.984.771-1.963,1.116-2.959.565-1.635,1.091-3.283,1.645-4.922.367-1.084.764-2.157,1.128-3.241.429-1.277.834-2.561,1.255-3.841.119-.361.3-.706.378-1.074a7.1,7.1,0,0,1,.891-2.1c.164-.275.318-.557.467-.819a8.591,8.591,0,0,0-1.806-2.908c-.1.485-.164.854-.265,1.212-.441,1.574-1,3.111-1.41,4.7-.394,1.526-.875,3.029-1.325,4.54-.293.983-.582,1.967-.906,2.94-.434,1.306-.9,2.6-1.348,3.9-.245.719-.474,1.443-.7,2.169-.377,1.233-.731,2.473-1.117,3.7-.325,1.036-.715,2.052-1.015,3.094-.34,1.183-.618,2.383-.91,3.58-.187.769-.367,1.54-.52,2.316-.181.917-.3,1.845-.5,2.758A12.028,12.028,0,0,0,1848.217,1030.786Zm20.472-54.642a4.763,4.763,0,0,0,3.264-.887,2.414,2.414,0,0,0,.535-.579,4.822,4.822,0,0,0,.476-.725,8.7,8.7,0,0,0,.779-1.656,8.964,8.964,0,0,0,.12-4.6,1.7,1.7,0,0,0-1.129-1.353,2.825,2.825,0,0,0-2.131.265,4.473,4.473,0,0,0-1.7,1.861,9.9,9.9,0,0,0-1.192,3.653,4.353,4.353,0,0,0,.687,3.5A3.141,3.141,0,0,1,1868.689,976.144Zm-20.4-6.344a8.856,8.856,0,0,0,.122,1.019c.079.341.254.659.337,1a6.974,6.974,0,0,0,2.3,3.567,1.09,1.09,0,0,0,.358.247,10.374,10.374,0,0,0,1.27.343,1.758,1.758,0,0,0,1.967-.835c.138-.224.269-.453.425-.665a2.144,2.144,0,0,0,.334-1.761,5.744,5.744,0,0,0-1.114-2.738.857.857,0,0,1-.129-.225,6.537,6.537,0,0,0-2.148-2.6,2.692,2.692,0,0,0-2.554-.522c-.278.089-.584.17-.668.5A8.426,8.426,0,0,0,1848.289,969.8Zm6.39,6.309a1.254,1.254,0,0,0,1-.221,2.2,2.2,0,0,0,.937-1.229,6.457,6.457,0,0,0-.16-3.98c-.111-.27-.161-.564-.254-.842a8.305,8.305,0,0,0-1.132-2.369,10.2,10.2,0,0,0-3.125-2.8,3.307,3.307,0,0,0-3.472-.142,2.5,2.5,0,0,0-1.2,1.121c-.214.481-.407.973-.59,1.467a12.087,12.087,0,0,0-.3,2.164,3.731,3.731,0,0,1,.217,1.635,3.787,3.787,0,0,0,.295,1.095c.244.6.516,1.185.812,1.758a4.959,4.959,0,0,0,1.427,1.878,24.44,24.44,0,0,0,2.564,1.537c.514.274.8.137,1.288-.445a3.094,3.094,0,0,0-.462-.222c-.422-.124-.856-.209-1.274-.345a1.49,1.49,0,0,1-.606-.331,7.755,7.755,0,0,1-2.244-3.407c-.116-.453-.244-.9-.359-1.357a5.668,5.668,0,0,1,0-3.012,6.013,6.013,0,0,0,.157-.77,1.255,1.255,0,0,1,1.018-1.088,3.646,3.646,0,0,1,2.551.21,5.923,5.923,0,0,1,2.271,1.994,15.032,15.032,0,0,1,1.644,3.1,4.175,4.175,0,0,1,.326,1.536,2.725,2.725,0,0,1-.542,1.884A11.383,11.383,0,0,0,1854.679,976.109Zm15.31.643c.081.13.11.239.168.259a1.524,1.524,0,0,0,1.274-.077c.6-.352,1.154-.8,1.723-1.205.79-.569,1.105-1.5,1.692-2.227a.731.731,0,0,0,.088-.247,10.661,10.661,0,0,0,.595-2.286c.05-.643.031-1.293.1-1.925a9.169,9.169,0,0,0-.309-3.127,2.15,2.15,0,0,0-.76-1.253,3.041,3.041,0,0,0-2.9-.489,8.466,8.466,0,0,0-4.755,4.343,4.973,4.973,0,0,0-.335.993c-.136.48-.27.962-.375,1.45a4.963,4.963,0,0,0,.1,2.836q.306.824.6,1.652c.254.7.319.741,1.2.638a1.066,1.066,0,0,0-.164-.306,2.635,2.635,0,0,1-.669-1.4,5.464,5.464,0,0,1,.005-2.867c.151-.6.355-1.168.563-1.746a8.343,8.343,0,0,1,1.5-2.742,3.385,3.385,0,0,1,3.123-1.214,1.987,1.987,0,0,1,1.715,1.225,6.142,6.142,0,0,1,.531,2.116c0,.408-.052.816-.076,1.225a6.948,6.948,0,0,1-.6,2.728c-.3.6-.593,1.216-.946,1.789a2.883,2.883,0,0,1-1.76,1.362A13.416,13.416,0,0,0,1869.989,976.752Zm-6.385,13.735a5,5,0,0,0,.481-1.355,7.484,7.484,0,0,0,.447-2.4,7.53,7.53,0,0,1,.148-1.567,32,32,0,0,1,1.234-4.648,8.076,8.076,0,0,1,1.29-2.278.926.926,0,0,1,1.632.159c.1.177.185.367.3.539a.32.32,0,0,0,.466-.013,1.48,1.48,0,0,0-.753-2.106c-.372-.062-.761-.021-1.132-.086a1.609,1.609,0,0,0-1.709.827,13.3,13.3,0,0,0-1.053,1.919c-.366.827-.635,1.7-.971,2.536a7.048,7.048,0,0,1-.643,1.333,10.007,10.007,0,0,0-1.3,1.957c-.059.154-.315.232-.476.342.165.512.259.914.421,1.284.35.8.74,1.586,1.106,2.381C1863.259,989.672,1863.411,990.042,1863.6,990.487Zm-3.431,6.417c-.237.524-.511,1.036-.7,1.576-.394,1.1-.744,2.215-1.112,3.324-.341,1.028-.67,2.06-1.029,3.082-.475,1.35-1.054,2.669-1.445,4.042-.62,2.178-1.459,4.273-2.221,6.4-.138.386-.307.763-.437,1.152q-.719,2.169-1.418,4.345c-.131.411-.225.833-.336,1.25a.35.35,0,0,0,.287-.186c.43-1.026.9-2.039,1.262-3.09.332-.969.655-1.94,1.01-2.9.518-1.4,1.035-2.805,1.513-4.221.45-1.333.832-2.689,1.274-4.025.5-1.5,1-3,1.551-4.489.223-.608.355-1.236.555-1.845.3-.918.686-1.808,1.014-2.718A2.647,2.647,0,0,0,1860.174,996.9Z" transform="translate(0 0)" fill="#424242"/>
    <path id="パス_8" data-name="パス 8" d="M1875.48,1021.036a1.777,1.777,0,0,1-.163-1.482.64.64,0,0,1,.575-.451,1.373,1.373,0,0,1,1.316.691.9.9,0,0,1-.362,1.2A1.387,1.387,0,0,1,1875.48,1021.036Zm.3-1.016c.005.043.013.129.027.214.034.205.081.408.321.465a.588.588,0,0,0,.586-.285c.1-.189.042-.406-.181-.611a1.05,1.05,0,0,0-.209-.153C1876.056,1019.508,1875.787,1019.671,1875.776,1020.02Z" transform="translate(-15.419 -29.312)" fill="#424242"/>
  </g>
</svg>
