<?xml version="1.0" encoding="UTF-8"?><svg id="_レイヤー_2" xmlns="http://www.w3.org/2000/svg" viewBox="0 0 89.98 171.3"><defs><style>.cls-1{fill:#424242;}</style></defs><g id="_Шар_1"><g id="_76"><path class="cls-1" d="m7.38,57.09c-.02-1.14.71-1.98,1.21-2.91.77-1.44,1.53-2.87,2.55-4.17,2.67-3.38,5.7-6.42,9.11-9.03,2.65-2.03,5.61-3.6,8.77-4.73.74-.26,1.54-.36,2.33-.54,1.54-1.89,3.25-3.6,5.34-4.76,1.04-2.48,1.99-4.89,3.84-6.87-.54-1.23-.99-2.46-1.85-3.55-1.06-1.37-1.88-2.92-1.96-4.76-.05-1.24-.32-2.48-.28-3.71.12-3.39.9-6.58,3.2-9.25,1.19-1.38,2.64-2.32,4.37-2.72.85-.2,1.79-.03,2.54-.03,2.24,1.31,3.69,2.92,4.32,5.36.6,2.3,1.28,4.57,1.55,6.92.22,1.9.19,3.83-.47,5.69-.57,1.6-1.2,3.16-2.44,4.23-.26.82-.48,1.52-.71,2.25,1.61,2.11,2.82,4.46,3.78,6.96,1.19.68,2.36,1.35,3.59,2.05.42.64.89,1.34,1.31,1.98.98.51,1.87,1.01,2.79,1.44.71.33,1.47.55,2.2.84.73.29,1.52.49,2.17.91,1.95,1.24,3.89,2.49,5.74,3.86,1.9,1.42,3.43,3.23,4.8,5.16.16.23.32.46.52.66,1.59,1.63,2.6,3.67,3.83,5.56.77,1.18,1.4,2.45,2.06,3.7.34.65.68,1.31.9,2,.41,1.31,1.01,2.5,1.96,3.58-.06.64-.12,1.31-.18,1.92.93,2.79,1.51,5.6,1.91,8.46.08.56.19,1.11.32,1.66.9,3.84,1.15,7.77,1.59,11.67.29,2.55.42,5.14.26,7.74-.11,1.79.13,3.61.22,5.41.1,1.79.24,3.59.32,5.38.05,1.07.01,2.14.03,3.2.05,2.82.1,5.64.16,8.46,0,.17.05.34.08.57.24.31.52.65.75.94.21,1.13-.6,1.72-1.11,2.46-.02,2.14-.01,4.26.24,6.41.25,2.11.08,4.27.07,6.41,0,.9-.04,1.81-.12,2.71-.15,1.69-.03,3.36.08,5.05.21,3.38.2,6.77.26,10.16.02,1.17-.03,2.35,0,3.52,0,.33.15.65.21.98.1.5.26.99.27,1.49.03,1.74.01,3.48.01,5.25-.54.73-1.27,1.16-2.06,1.64-2.59,1.54-5.44,2.11-8.33,2.65-2.94.55-5.84,1.31-8.8,1.76-3.51.53-7.01,1.23-10.58,1.3-1.96.04-3.92.35-5.88.52-.39.04-.8.08-1.18.01-1.86-.33-3.71.09-5.56.07-.89,0-1.79.28-2.68.28-1.24,0-2.48-.16-3.72-.22-2.81-.15-5.62-.26-8.43-.43-1.35-.08-2.68-.28-4.03-.42-1.01-.11-2.02-.3-3.03-.31-1.99,0-3.92-.38-5.85-.74-3.1-.57-6.24-1.05-9.26-1.91-2.9-.83-5.82-1.77-8.3-3.68-.92-1.61-1.09-3.41-1.28-5.19-.08-.72-.06-1.46-.04-2.19.02-1.05.13-2.11.13-3.16.01-2.76,0-5.52-.03-8.29-.06-4.17-.35-8.36-.17-12.52.17-3.95.17-7.89.13-11.79-.31-.6-.59-1.15-.89-1.74.23-.46.46-.9.67-1.31-.06-2.76-.15-5.46-.16-8.17,0-1.12.4-2.27.24-3.35-.21-1.37-.08-2.7-.04-4.04.05-1.8.16-3.6.22-5.41.04-1.35.04-2.7.05-4.05,0-2.03-.16-4.08.03-6.09.29-3.24.23-6.5.97-9.72.65-2.84.97-5.76,1.39-8.65.1-.66.01-1.34.01-2.31q.37-.9,1.37-1.8c.63-1.81,1.22-3.57,1.86-5.31.19-.52.54-.97.82-1.46.1.72.18,1.41-.1,2.16-.63,1.69-1.13,3.42-1.66,5.14-.05.17.06.4.11.68.81-.24.92-.9,1.13-1.45.46-1.2.85-2.44,1.32-3.64.94-2.42,1.9-4.83,3.39-6.99.54-.79.93-1.7,1.57-2.4,1.56-1.7,3.18-3.36,4.86-4.95,2.8-2.65,5.76-5.09,9.45-6.47,1.27-.48,2.5-1.04,3.74-1.58.21-.09.4-.25.89-.56-1.33.03-2.24.2-3.15.55-3.59,1.41-6.95,3.21-9.85,5.8-.59.53-1.11,1.14-1.74,1.61-2.39,1.77-4.17,4.1-5.95,6.43-1.39,1.82-2.45,3.86-3.57,5.9-.19-.08-.33-.13-.48-.19Zm73.18,6.07c.14-.06.29-.12.46-.19.32.41.63.79.96,1.2.25-.15.43-.26.65-.4-.07-.53-.08-1.04-.2-1.53-.19-.76-.36-1.55-.71-2.25-1-2.01-1.99-4.05-3.17-5.95-1.6-2.59-3.31-5.11-5.33-7.4-.48-.54-.9-1.15-1.41-1.66-2.08-2.09-4.61-3.58-7.05-5.2-.96-.64-2-1.02-3.1-.91-1.36-.74-2.63-1.42-3.97-2.15-.29.24-.55.46-.93.78.41.22.65.35.9.47,1.11.55,2.24,1.05,3.31,1.66,1.66.96,3.2,2.14,4.91,2.97,2.3,1.12,4.1,2.84,5.71,4.69,2.84,3.26,5.41,6.76,7.5,10.57.78,1.42,1.38,2.94,2.06,4.4-.24.39-.41.66-.58.94-.28-.37-.56-.64-1.09-.69-2.23-.23-4.45-.53-6.68-.78-.31-.03-.63.07-1.03.13.08.31.13.51.2.74,1.27.15,2.49.27,3.71.43,1.22.16,2.43.41,3.65.52.4.04.82-.25,1.24-.39ZM1.89,156.71c-.18,1.22-.1,2.19.03,3.19.28,2,1.17,3.51,3.1,4.31.42.17.83.36,1.24.54,2.66,1.15,5.46,1.77,8.29,2.34,1.08.22,2.13.57,3.21.8.66.14,1.34.13,2,.24,1.22.2,2.43.48,3.66.63,2.74.35,5.51.36,8.25.85,1.76.32,3.59.24,5.39.32,1.06.05,2.13.06,3.19.09,1.91.05,3.83.18,5.74.14,1.63-.03,3.27-.45,4.89-.36,2.03.11,4.05.05,6.07-.06,2.09-.11,4.23-.03,6.25-.48,4.02-.9,8.2-.83,12.12-2.17,2-.04,3.89-.64,5.83-1.05,2.5-.53,4.92-1.21,7.07-2.65.64-1.64.86-3.96.44-5.17-.29.19-.56.37-.83.56-1.22.83-2.48,1.62-3.95,1.91-3.49.68-6.98,1.37-10.49,1.89-3.57.52-7.16.91-10.76,1.22-4.27.37-8.55.79-12.85.74-3.38-.04-6.77.16-10.14-.08-3.83-.27-7.67-.15-11.49-.67-3.13-.43-6.31-.46-9.41-1.19-.44-.1-.9-.15-1.35-.14-1.9.05-3.68-.49-5.44-1.11-.48-.17-.97-.32-1.45-.49-1.98-.66-3.99-1.26-5.77-2.4-.89-.57-1.8-1.11-2.85-1.77Zm12.05-43.03c3.18-.38,6.07-.73,9.06-1.09-.02-1.34.28-2.49.17-3.76-.15-1.77.09-3.58.18-5.38.09-1.75.19-3.5.3-5.24.11-1.8.28-3.6.36-5.41.17-3.71.29-7.42.43-11.13.05-1.4.61-2.73.51-4.16-.12-1.63.27-3.22.53-4.82.08-.48.07-.98.1-1.55-3.09-.31-6.1-.62-9.22-.93-.15.21-.45.45-.52.75-.22.88-.44,1.77-.51,2.66-.22,2.87-.39,5.74-.56,8.61-.21,3.54-.44,7.08-.59,10.63-.16,3.6-.27,7.21-.34,10.82-.04,2.25.02,4.51.05,6.76.01,1,.03,2.01.05,3.25Zm36.01-1.91c.08-.22.16-.33.15-.43-.18-2.65-.42-5.29-.55-7.94-.08-1.64-.01-3.28.03-4.92.11-4.38-.45-8.75-.44-13.13,0-.9-.02-1.81-.08-2.71-.23-3.14-.49-6.29-.75-9.43-.03-.38-.17-.76-.26-1.18-1.2-.26-2.38-.39-3.55-.2-.8.13-1.55.16-2.35.02-.65-.11-1.34-.02-2.07-.02-.12.31-.33.61-.34.93-.05,1.12-.06,2.24-.04,3.36.03,1.24.22,2.47.17,3.71-.11,2.7-.54,5.37-.45,8.08.03.84.04,1.69-.07,2.52-.33,2.63-.07,5.27-.1,7.9-.03,2.92-.11,5.85-.11,8.77,0,1.45.13,2.9.21,4.49,3.21.14,6.29.29,9.37.4.42.02.85-.17,1.21-.25Zm1.74-40.05c-.48.54-.25,1.05-.2,1.54.22,2.7.52,5.39.63,8.09.08,1.91.06,3.81.29,5.72.2,1.67.34,3.35.38,5.03.08,3.1.1,6.2.1,9.29,0,2.09-.11,4.18-.08,6.26.02,1.44.2,2.88.58,4.19,3.21.28,6.27.54,9.41.82,0-1.65,0-3.17,0-4.68,0-1.52-.02-3.05-.05-4.57-.03-1.57-.05-3.14-.11-4.7-.06-1.52-.36-3.03,0-4.54-.7-1.44-.23-3-.45-4.49-.21-1.47-.33-2.95-.51-4.43-.19-1.55-.34-3.1-.52-4.66-.18-1.51-.35-3.03-.57-4.54-.21-1.5-.47-3-.75-4.75-2.78.32-5.53-.11-8.16.44Zm23.79,42.31c0-1.84-.03-3.41,0-4.97.08-3.74-.37-7.44-.59-11.16-.09-1.5-.19-2.99-.47-4.49-.32-1.76-.2-3.6-.37-5.4-.21-2.24-.43-4.49-.78-6.71-.44-2.76-.98-5.51-1.59-8.23-.2-.87.04-1.97-1.11-2.62-2.45-.04-4.97.36-7.52.87.26,1.85.54,3.57.73,5.29.31,2.84.62,5.67.94,8.5.38,3.3.72,6.61,1.07,9.92.02.22.05.45.03.68-.34,2.98.19,5.94.17,8.91-.02,2.42.26,4.84.42,7.26.02.38.09.76.14,1.16,1.48.18,2.88.35,4.28.5,1.45.16,2.9.31,4.65.49Zm-46.58-42.66c-.15.3-.32.5-.33.7-.16,2.08-.28,4.16-.43,6.24-.13,1.79-.19,3.59-.46,5.36-.12.83-.32,1.64-.3,2.48,0,.51-.02,1.02-.07,1.53-.22,2.17-.56,4.34-.24,6.54.03.22-.02.45-.04.67-.18,1.55-.48,3.1-.53,4.65-.09,3.27-.04,6.54-.08,9.81-.01.88-.14,1.77-.23,2.73,1.69.32,3.25,0,4.81,0,1.62,0,3.24-.17,4.84-.26.17-.57.4-1.01.41-1.44,0-1.63-.04-3.25-.11-4.88-.11-2.42-.31-4.83-.38-7.25-.04-1.4.13-2.81.19-4.22.08-1.97.13-3.95.2-5.92.04-1.11.05-2.23.11-3.34.12-2.08.38-4.16.36-6.24-.02-1.85-.21-3.7,0-5.55.04-.32-.08-.65-.14-1.09-2.54-.46-5.05-.56-7.56-.53Zm45.49-1.61c.78,3.83,1.57,7.44,2.24,11.08.36,1.97.41,3.99.7,5.98.32,2.17.31,4.36.6,6.55.4,3.05.68,6.13.56,9.24-.06,1.64-.17,3.32.33,4.95.11.36.07.78.09,1.17.15,2.05.29,4.1.43,6.06,2.23.42,4.32.81,6.55,1.24.01-.74.05-1.41.03-2.07-.05-2.36-.2-4.73-.16-7.09.05-3.26-.08-6.51-.36-9.76-.02-.28-.05-.56-.05-.84-.02-1.8.02-3.61-.06-5.41-.17-3.93-.81-7.81-1.52-11.68-.19-1.03-.03-2.12-.03-3.18-.25-.56-.4-1.15-.45-1.74-.2-2.26-.91-4.37-1.71-6.5-2.45.69-4.82,1.35-7.18,2.02ZM10.59,114.23c.07-.51.17-.9.17-1.29-.03-5.13.37-10.25.17-15.38-.11-2.92.19-5.86.3-8.79.04-1.17-.03-2.35.07-3.51.28-3.43.65-6.85.9-10.28.11-1.52.13-3.04.63-4.51.06-.19-.03-.43-.06-.72-1.97-.38-3.89-.74-5.85-1.12-.19.34-.45.61-.5.92-.25,1.32-.48,2.65-.65,3.98-.3,2.29-.55,4.59-.81,6.89-.14,1.23-.28,2.47-.35,3.71-.13,2.53-.18,5.07-.33,7.6-.14,2.3-.47,4.59-.55,6.9-.11,3.31-.06,6.63-.09,9.95-.02,2.31-.07,4.63-.09,6.94,0,.14.13.29.25.55,2.27-.62,4.54-1.23,6.79-1.84Zm29,13.27c-.51,1.23-.75,2.3-.48,3.45.09.38.16.77.18,1.16.11,1.8.19,3.6.29,5.4.13,2.31.31,4.61.39,6.92.03.97.19,1.87.57,2.89,3.42-.17,6.82.32,10.19-.11.49-6.71-.04-13.23-.64-19.71h-10.5Zm27.45,20.84c2.94.38,5.6.72,8.43,1.09.08-.68.21-1.33.22-1.98.02-2.08,0-4.16,0-6.24-.02-4.11.11-8.23-.32-12.34-.12-1.1-.02-2.21-.02-3.45-3.07.42-6.01.81-8.98,1.21-.16.32-.42.62-.43.92-.04,1.06-.17,2.16.06,3.17.32,1.39.3,2.79.41,4.19.13,1.85.31,3.7.41,5.56.06,1.12-.04,2.26,0,3.38.05,1.45.16,2.91.25,4.48Zm-31.12-20.73c-1.71-.57-3.3-.35-4.88-.35-1.61,0-3.21-.38-5.03-.22.37,6.92.31,13.7.81,20.59,1.23-.11,2.28-.23,3.34-.29,1.07-.06,2.15-.01,3.22-.08,1.04-.07,2.12.29,3.29-.22-.19-6.46-.27-12.91-.76-19.42Zm-21.65-2.07c0,2.91-.01,5.72,0,8.52.01,1.69.08,3.39.11,5.08.05,2.82.08,5.64.15,8.46,0,.42.18.83.29,1.31,2.82-.28,5.49-.55,8.11-.81.62-.88.47-1.83.46-2.71-.04-3.1-.25-6.21-.24-9.31,0-2.81-.38-5.62-.16-8.43.02-.32-.1-.64-.15-.94-2.65-.43-5.2-.85-7.75-1.25-.26-.04-.53.05-.81.08Zm64.21-.62c.14,8.49.49,16.86.17,25.31,1.27.27,2.43.51,3.58.77,1.13.25,2.12,1.05,3.4.97.08-.25.2-.46.21-.67.04-1.64.06-3.27.07-4.91.01-1.81-.11-3.63.04-5.42.2-2.37-.02-4.73-.13-7.08-.14-2.94-.24-5.87-.19-8.81.01-.88-.05-1.74-.27-2.72-2.31.86-4.52,1.69-6.88,2.57Zm-14.98,23.31c.17-7.23-.54-14.24-.78-21.31-3.06.14-6.02.27-9.12.41,0,1.84-.12,3.52.02,5.18.33,3.77.75,7.52.61,11.31-.05,1.27-.07,2.59.55,3.89,2.82-.14,5.62.74,8.71.52Zm-52.39,1.24c0-1.14,0-2.26,0-3.37,0-.62-.07-1.24-.03-1.85.07-1.24.31-2.47.27-3.7-.14-4.45-.36-8.9-.55-13.35-.03-.78-.05-1.56-.07-2.26-1.61-.83-5.51-2.01-6.79-2.04-.04,1.05-.11,2.1.08,3.15.43,2.42.07,4.84.11,7.26.02,1.24-.1,2.48-.11,3.72-.01.89.06,1.79.07,2.68.01,1.12,0,2.25.01,3.37.01,1.4.06,2.8.06,4.2,0,1.45-.08,2.91-.09,4.36,0,.18.21.36.4.67,2.01-1.43,4.26-2.12,6.65-2.83ZM79.76,61.51c-.43-1.41-.71-2.53-1.55-3.44-.34-.36-.53-.86-.79-1.29-.52-.87-.94-1.82-1.57-2.6-1.84-2.26-3.37-4.77-5.44-6.85-1.63-1.64-3.32-3.21-5.38-4.31-1.34-.72-2.65-1.49-3.99-2.2-1.16-.62-2.35-1.21-3.53-1.81,5.67,6.52,10.47,13.51,13.54,21.61,2.85.29,5.63.58,8.71.9Zm-51.94-1.58c1.08-3.1,2.05-6.05,3.13-8.96.6-1.63,1.27-3.26,2.09-4.79,1.27-2.39,2.7-4.69,4.05-7.04.04-.07-.01-.2-.03-.36-.16-.09-.35-.19-.67-.37-2.94,2.81-5.91,5.57-8.78,8.43-1.23,1.23-2.36,2.59-3.33,4.04-1.44,2.16-2.69,4.43-4,6.67-.53.91-.91,1.88-1.09,3.04,2.48-.11,4.84-.22,7.2-.33.34-.02.68-.05,1.01-.12.16-.03.3-.14.43-.21Zm-12.84,1.69c1.08-2.73,2.24-5.38,3.82-7.85,1.56-2.46,2.89-5.04,4.69-7.38,1.79-2.33,4.04-4.18,6.01-6.42-.96-.41-1.5.31-2.15.53-2.79.92-5.04,2.75-7.18,4.66-2.02,1.8-3.89,3.77-5.79,5.7-.63.64-1.24,1.32-1.71,2.08-.66,1.04-1.24,2.15-1.75,3.27-.88,1.94-1.67,3.91-2.6,6.1,2.39-.01,4.42-.91,6.66-.68ZM42.82,3.85c-1.53,1.7-2.35,3.43-2.59,5.37-.2,1.56-.26,3.14-.22,4.71.03,1.15.34,2.28.54,3.53,1.47-.45,2.69-1.1,4.16-1.06,1.54.03,2.7.97,4.21,1.49.22-1.67.51-3.21.62-4.76.14-1.97-.34-3.9-.72-5.81-.41-2.03-1.64-3.53-3.7-4.25-.83.29-1.62.57-2.29.8Zm-3.47,120.46c3.71-.05,7.22-.11,10.69-.16.41-2.26.31-7.46-.13-9.52-1.37-.44-9.11-.53-10.6-.09-.25,3.14-.05,6.33.04,9.76Zm12.55-92.09c-4.98,1.48-9.78,1.87-14.42-.23-2.14.74-3.34,2.39-4.84,3.95.7.34,1.29.64,1.89.9,1.98.89,4.15.92,6.24,1.35.49.1,1,.08,1.5.09,1.01.02,2.03-.06,3.04.03,3.31.29,6.52-.11,9.62-1.31.56-.22,1.15-.47,1.41-1.09-.32-.55-.63-1.08-.88-1.52-1.22-.74-2.36-1.44-3.55-2.17Zm.07,6.85c1.15,2.42,2.19,4.64,3.26,6.85,1.11,2.28,2.15,4.59,2.88,7.03.71,2.36,1.46,4.7,2.19,7.04,2.53.62,5.1-.16,7.84.97-3.99-8.45-8.74-15.85-15.13-22.22-.28.08-.54.16-1.05.32Zm-.88,124.19c.02-1.49.09-2.93.06-4.37-.03-1.49-.15-2.99-.23-4.55-.64,0-1.14,0-1.64,0-2.36,0-4.72-.02-7.08,0-.59,0-1.26-.12-1.84.6,0,1.26-.07,2.66.02,4.05.09,1.42-.37,2.91.45,4.29,3.36-.08,6.67.54,10.27-.03Zm-24.72-48.13c-.57,2.41.19,4.65-.01,6.89-.05.54.14,1.1.21,1.63,2.13.49,7.91.73,9.26.4.34-3.88.23-8.16-.26-9.57-3.06.22-6.14.44-9.2.66Zm36.75,8.73c.26-2.47.11-7.1-.3-8.6-3.04.04-6.09-.49-9.3-.47-.03.79-.06,1.45-.06,2.11,0,1.3.03,2.6.01,3.89-.01,1.12.11,2.21.6,3.35,3.05.16,6.07.22,9.06-.28Zm-26.37,39.31c.31-1.83.3-7.29.03-8.6-2.16,0-4.29-.04-6.42.02-1,.03-1.99.27-2.93.41-.36,1.61-.23,6.12.19,7.51,2.97.63,5.99.77,9.13.67Zm-27.68-40.39c-.02.06-.04.12-.06.19.17.09.34.2.52.26.59.2,1.17.43,1.77.56,4.96,1.09,9.97,1.77,15.03,2.15,3.26.25,6.53.42,9.79.62.34.02.68.02,1.02,0,5.08-.16,10.15.08,15.24-.28,4.04-.29,8.12-.21,12.17-.55,1.74-.15,3.49-.31,5.22-.54,1.51-.2,3-.6,4.51-.71,2.11-.14,4.12-.68,6.11-1.29,2.26-.7,4.46-1.61,6.67-2.45.53-.2,1.04-.46,1.51-.77.22-.14.32-.47.63-.94-1.55.33-2.78.67-3.95,1.23-.86.41-1.76.76-2.67,1.06-1.12.38-2.25.7-3.39,1.01-2.12.57-4.2,1.3-6.44,1.4-1.24.05-2.49.19-3.69.47-1.44.33-2.88.51-4.35.6-.96.06-1.91.2-2.86.26-1.41.09-2.81.19-4.22.21-2.87.03-5.75-.01-8.62.01-2.82.03-5.64.13-8.45.14-2.65,0-5.31.02-7.96-.13-3.49-.2-6.98-.54-10.46-.87-2.53-.24-5.06-.56-7.58-.88-1.83-.23-3.66-.51-5.49-.77Zm54.57,32.13c-3.17-.04-6.08-.47-9.27-.2.26,2.85-.31,5.66.25,8.58,2.97-.18,5.84-.36,8.68-.54.83-2.65.42-5.16.34-7.84Zm-16.01-115.21c.3,1.48.62,2.91.88,4.35.26,1.44.46,2.89.68,4.33.36,2.28.72,4.55,1.07,6.83.24,1.53.11,3.12.71,4.56,2.54.25,4.61.12,5.74-.36-.28-1.02-.45-2.09-.86-3.06-1.33-3.16-2.14-6.53-3.85-9.53-.25-.44-.41-.93-.59-1.4-.61-1.57-1.2-3.15-1.82-4.71-.12-.31-.27-.62-.48-.88-.36-.45-.82-.57-1.48-.13Zm35.51,25.51c-.03-.06-.07-.13-.1-.19-.8.22-1.63.36-2.4.67-2.67,1.07-5.46,1.76-8.26,2.28-3.15.58-6.38.74-9.58,1.04-2.73.26-5.49.1-8.2.63-.44.09-.9.06-1.35.07-.85.02-1.7.04-2.54.06-2.81.08-5.63.2-8.44.22-2.11,0-4.2-.38-6.33-.35-2.53.03-5.07-.19-7.6-.32-1.97-.1-3.94-.23-5.92-.36-.73-.05-1.46-.1-2.18-.2-2.34-.35-4.67-.77-7.01-1.1-2.84-.4-5.63-1.07-8.4-1.78-.12-.03-.29.08-.52.16.3.69.87.99,1.45,1.12,2.75.6,5.46,1.37,8.27,1.67,1.96.2,3.94.3,5.88.64,2.46.43,4.94.42,7.41.63,2.93.25,5.87.25,8.81.47,4.34.32,8.68.3,13.02.15,2.77-.1,5.54-.37,8.3-.24,4.39.2,8.65-.69,12.96-1.17,2.62-.29,5.19-1.04,7.79-1.55,1.59-.31,2.96-1.08,4.32-1.88.26-.15.44-.43.66-.65Zm-38.82-25.42c-1.75,6.42-3.14,12.86-3.32,19.6,2.23.13,4.28.59,6.45.34-1.11-6.7-1.75-13.36-3.13-19.94Zm-6.82,19.82c.1-.72.19-1.22.22-1.71.14-1.86.17-3.73.42-5.57.55-3.91,1.24-7.79,2.51-11.55.13-.38.14-.81.2-1.21-.85-.15-.98.47-1.2.87-1.55,2.81-3.07,5.64-4.59,8.47-.1.19-.14.43-.21.64-.82,2.22-1.67,4.42-2.45,6.65-.38,1.09-.61,2.23-.93,3.42h6.02Zm34.67,10.6c.37,2.42.72,4.63,1.06,6.85.03.22,0,.47.09.67,1.12,2.52,1.06,5.27,1.49,7.92.27,1.66.28,3.36.43,5.04.23,2.53.51,5.06.71,7.59.09,1.18.02,2.37.09,3.55.14,2.31.42,4.61.49,6.92.11,3.89.1,7.77.15,11.66,0,.43.14.85.22,1.36.45-.07.76-.13,1.12-.18.06-.64.12-1.19.17-1.75.21-2.43-.01-4.85-.09-7.27-.13-3.77-.44-7.54-.58-11.32-.12-3.14-.36-6.27-.78-9.38-.08-.62-.28-1.24-.26-1.85.12-2.73-.34-5.4-.72-8.07-.46-3.24-1.21-6.43-1.83-9.64-.1-.5-.18-.99-.27-1.5-.3-.27-.59-.53-.89-.81-.25.09-.45.16-.61.21ZM38.25,30.88c2.62,2.24,10.35,1.78,12.84.16-.51-2.12-1.73-3.88-3.03-5.7-2.34,1.4-4.56.43-6.89.02-1.05.43-1.36,1.55-1.86,2.45-.52.95-1.18,1.92-1.07,3.07Zm-.66,41.43c-.25,3.26,0,6.3-.25,9.33-.15,1.79.12,3.61.07,5.41-.05,1.73-.35,3.46-.43,5.19-.13,2.69-.4,5.4-.18,8.06.22,2.68.1,5.36.27,8.04.12,1.9-.13,3.81-.13,5.72,0,3.1.07,6.19.13,9.29,0,.42-.07.96.72.99.44-.58.52-1.29.52-2.03,0-2.93,0-5.86,0-8.79,0-3.44.03-6.89.04-10.33.01-1.97.05-3.95.05-5.92,0-3.27,0-6.54,0-9.81,0-.68,0-1.36.04-2.03.15-2.36.36-4.71.45-7.07.05-1.34-.07-2.69-.1-4.03-.02-.73,0-1.45-.04-2.18,0-.14-.17-.27-.31-.47-.35.25-.61.44-.85.61Zm14.89,51.77c0-3.15,0-6.13,0-9.11,0-.67.18-1.37.03-2.01-.8-3.51-.33-7.06-.5-10.59-.17-3.49.13-6.99-.27-10.48-.24-2.13-.33-4.28-.47-6.41-.14-2.1.05-4.21-.24-6.32-.29-2.12-.35-4.28-.52-6.42-.02-.27-.13-.54-.2-.84h-1.11c.08,1.09.13,2.09.22,3.09.2,2.36.52,4.71.61,7.06.12,3.32.25,6.64.14,9.97,0,.22,0,.45.02.67.08,1.18.17,2.35.24,3.53.22,3.77-.09,7.55.3,11.32.22,2.13.25,4.27.32,6.41.08,2.36.42,4.72.23,7.09-.08.99-.08,2.02.45,2.99.24.01.45.03.75.05Zm-38.26-1.68c2.94.6,5.8.99,8.69.94.23-2.25.15-7.2-.13-8.17-2.89.23-5.73.75-8.56,1.35v5.89Zm68.02-55.31c.15.56.22.93.36,1.29.14.37.38.69.5,1.06.75,2.32,1.23,4.69,1.37,7.12.06,1,.16,2,.31,2.99.58,3.67,1.19,7.33,1.41,11.04.21,3.66.27,7.34.39,11,.02.5,0,1.01,0,1.51.07,2.47.17,4.95.22,7.42.06,2.43.07,4.86.12,7.29,0,.15.13.29.22.5.27-.08.52-.14.8-.22.07-1.71.2-3.34.2-4.96,0-2.2-.1-4.4-.2-6.59-.08-1.91-.25-3.82-.33-5.73-.11-2.48-.18-4.96-.25-7.44-.05-1.8.01-3.61-.13-5.41-.27-3.36-.49-6.74-1.06-10.06-.5-2.93-.9-5.91-1.84-8.76-.28-.84-.39-1.73-.61-2.75-.53.25-.92.43-1.48.7Zm-21.36,4.46c.25,1.41.56,2.78.73,4.17.41,3.29.37,6.64,1.23,9.88.04.16,0,.34.02.5.27,3.99.6,7.97.79,11.96.13,2.76.03,5.53.07,8.3.03,2.16.1,4.33.18,6.49.06,1.68.18,3.36.27,5.04.09,1.74.18,3.49.29,5.23,0,.15.15.29.25.47.22-.02.43-.04.8-.07,0-1.11-.01-2.17,0-3.23.06-5.08-.11-10.16-.34-15.24-.1-2.25-.19-4.5-.28-6.76-.1-2.31-.11-4.62-.31-6.92-.19-2.18-.64-4.33-.89-6.51-.43-3.81-.79-7.63-1.19-11.44-.08-.78-.18-1.57-.87-2.13-.23.08-.44.15-.73.25Zm14.49,45.35c-2.61-.89-6.98-1.24-8.8-.72-.32,3.53-.23,5.98.31,7.27,2.46-.28,4.96-.56,7.45-.88.42-.05.83-.3,1.33-.49-.09-1.79.23-3.52-.3-5.19ZM4.51,68.04c-.12.32-.21.47-.24.63-.55,3.34-1.16,6.67-1.62,10.03-.35,2.57-.53,5.16-.72,7.74-.09,1.24-.08,2.49,0,3.73.14,2.13-.24,4.24-.16,6.37.06,1.51-.08,3.03-.11,4.55-.04,2.25-.12,4.5-.08,6.75.05,3.38.19,6.76.31,10.14,0,.13.24.26.6.61,0-1.36,0-2.4,0-3.44-.01-1.41-.08-2.81-.06-4.22.06-3.38.16-6.77.26-10.15.06-1.97.12-3.93.26-5.9.19-2.76.6-5.52.66-8.28.08-3.67.47-7.29.97-10.91.24-1.79.54-3.57.72-5.37.07-.7.35-1.45-.05-2.2-.22-.03-.43-.05-.73-.09Zm9.49,2.1c-.1.23-.2.38-.22.53-.34,2.79-.75,5.58-.97,8.38-.33,4.15-.52,8.3-.76,12.46-.09,1.63-.19,3.26-.2,4.89,0,1.46.18,2.92.16,4.38-.04,3.61-.15,7.21-.22,10.82-.05,2.48-.13,4.95-.07,7.43.02.99.36,1.98.59,2.96.03.12.24.21.38.31.16-.11.29-.2.44-.31,0-1.64.04-3.27,0-4.9-.07-2.59-.22-5.18-.31-7.76-.03-.9.02-1.81,0-2.71-.02-2.09-.14-4.18-.07-6.26.1-3.38.38-6.75.46-10.12.04-1.57.59-3.12.22-4.7.5-3.23.68-6.48.8-9.74.07-1.84.33-3.67.5-5.51-.08-.05-.17-.14-.27-.16-.1-.03-.22,0-.46.01Zm36.82,78.13c-3.63.25-7.03-.35-10.5.33v4.64c1.85,0,3.58-.06,5.3.02,1.78.08,3.55.23,5.43.11-.08-1.69-.15-3.25-.23-5.1Zm-23.55,5.49c1.65-.05,3.23.03,4.78-.17,1.59-.2,3.23.23,4.89-.34,0-.88.03-1.67,0-2.45-.04-.77-.15-1.53-.23-2.26-1.78-.38-5.86-.41-8.19-.03-.53.09-1.04.33-1.61.51.16,1.67-.06,3.24.37,4.74Zm-1.81-30.39c-.11-1.38-.28-2.72-.3-4.06-.04-2.43-.01-4.86.04-7.28.08-3.73.24-7.45.28-11.18.02-2.09.04-4.17.47-6.24.13-.6.16-1.25.1-1.86-.22-2.04.11-4.05.29-6.07.24-2.64.56-5.28.84-7.91.03-.28.1-.56.07-.83-.2-1.63-.15-3.23.21-4.84.13-.59.12-1.22.19-1.95-.41.14-.7.24-1.09.37-.2,2.56-.4,5.09-.59,7.61-.01.17-.04.34-.06.51-.2,1.96-.57,3.92-.56,5.89.02,3.05-.38,6.06-.44,9.1-.04,2.08-.4,4.14-.5,6.22-.11,2.48-.1,4.97-.14,7.45-.02,1.24-.06,2.48-.1,3.72-.04,1.24-.15,2.48-.13,3.72.03,2.03.12,4.06.2,6.09.02.5.06,1.01.12,1.51,0,.09.14.16.29.33.2-.07.44-.15.82-.28Zm-1.76,38.68c-.12-2.2-.09-4.42-.46-6.73-2.81.11-5.46.19-8.09,1.03,0,1.04-.02,2.04,0,3.05.02.55.14,1.1.21,1.63,3.26.75,6.97,1.23,8.33,1.03Zm51.52-.75c.09-1.74.18-3.29.27-4.93-2.8-.57-5.49-.67-8.16-.91-.49,2.05-.48,4.81.03,6.87,2.55-.34,5.11-.67,7.87-1.03ZM48.51,19.42c-1.97-2.05-4.12-2.53-6.35-1.52-.34.51-.68,1.01-1.01,1.54-.63,1.03-.72,2.04-.17,3.19.46.97,1.13,1.64,2.06,2.02.69.16,1.37.31,2.06.47,1.49.21,2.42-.58,3.11-1.97.1-1.21.21-2.53.3-3.73Zm-3.1-17.12c1.76.7,2.74,1.51,3.53,3.21.42.91.7,1.89.95,2.87.9,3.53.73,7.02-.38,10.48-.14.44-.09.85.22,1.2.2-.09.35-.1.39-.18,1.21-2.43,1.84-4.97,1.31-7.69-.34-1.77-.84-3.51-1.11-5.29-.39-2.57-1.64-4.5-3.81-5.84-1.93-.41-3.47.18-5.01,1.38-2.02,1.57-2.89,3.7-3.55,5.99-.26.9-.43,1.87-.42,2.81.02,1.69.14,3.38.34,5.06.16,1.35.82,2.49,1.79,3.49.15-.19.28-.28.27-.35-.17-.99-.36-1.98-.55-2.96-.45-2.35-.42-4.72-.17-7.08.14-1.35.62-2.61,1.27-3.83,1.04-1.97,2.37-3.43,4.95-3.26Zm7.87,161.12c.09-5.68.33-11.18.23-16.68-.12-6.3-.54-12.59-.85-18.89,0-.2-.16-.4-.23-.57-.89-.22-1.12.37-1.15.92-.07,1.23-.18,2.5.04,3.7.26,1.39.5,2.75.45,4.18-.05,1.29.08,2.59.09,3.89.03,3.55.04,7.1.04,10.65,0,1.13-.21,2.28-.04,3.38.32,2.02.27,4.03.17,6.04-.05,1.09.16,2.11.42,3.13.23.07.39.12.83.25Zm33.24-41.51c-.04.65-.1,1.2-.1,1.75,0,.73.05,1.47.07,2.2.05,2.13,0,4.28.18,6.4.23,2.63.29,5.27.27,7.9-.02,3.21-.06,6.43-.09,9.64-.02,2.32-.03,4.63-.02,6.95,0,.38.12.75.21,1.3.49-.26.85-.46,1.25-.68.03-1.49.09-2.89.08-4.29-.01-1.52-.11-3.05-.13-4.57-.02-2.2.22-4.42-.03-6.59-.36-3.16-.02-6.31-.18-9.47-.03-.55.2-1.12.16-1.67-.14-1.91-.34-3.81-.51-5.72-.02-.28.03-.56.03-.84,0-.78,0-1.56,0-2.34,0-.08-.13-.17-.25-.31-.23.08-.48.17-.94.34Zm-46.27-53.24c.69.11,1.13.24,1.56.24,1.35,0,2.7-.06,4.05-.11.66-.02,1.32-.07,2.08-.12-.16-2.05.13-4-.27-6.02-1.21-.19-2.31-.23-3.44-.12-1.14.11-2.33-.46-3.56.27-.14,1.87-.27,3.75-.42,5.86Zm-28.2,56.34c-.41.59-.28,1.15-.26,1.71.09,2.53.22,5.05.24,7.58.04,3.44.23,6.87.07,10.32-.1,2.18-.03,4.39.22,6.59.26,2.23.33,4.49.22,6.74-.04.82.15,1.65.25,2.57h1.32c0-1.05.07-2-.01-2.94-.21-2.41-.43-4.81-.4-7.23.02-1.01-.08-2.02-.15-3.03-.07-1.12-.21-2.25-.24-3.37-.06-2.39.22-4.78.08-7.19-.15-2.63-.11-5.27-.19-7.91-.04-1.22-.15-2.44-.23-3.69-.42-.06-.68-.1-.94-.14Zm12,1.89c-.04.42-.11.8-.11,1.17.05,2.36.04,4.72.21,7.07.34,4.63.25,9.25.13,13.88-.05,2.2.1,4.4.16,6.6.04,1.35.05,2.7.14,4.04.05.89.21,1.77.32,2.69.45.04.76.07,1.22.11.04-.6.1-1.09.09-1.57-.01-.79-.13-1.58-.09-2.37.23-4.63-.39-9.24-.46-13.86-.04-2.76-.17-5.52-.27-8.28-.12-3.09-.25-6.19-.38-9.28,0-.05-.05-.09-.11-.2h-.85Zm12.89.97c.09,1.35.21,2.7.26,4.04.14,3.61.25,7.21.39,10.82.08,2.13.21,4.26.28,6.39.07,2.26.19,4.52.11,6.77-.05,1.4.37,2.8.03,4.19.45.97-.13,2.14.57,3.13.22-.03.43-.06.6-.09.07-.17.15-.28.15-.38.03-4.46.07-8.92.06-13.38,0-1.06-.17-2.12-.25-3.18-.13-1.73-.34-3.46-.34-5.2,0-1.79-.39-3.58-.1-5.38.04-.27,0-.56-.02-.84-.08-.78-.2-1.56-.25-2.35-.09-1.46-.14-2.93-.22-4.39,0-.15-.12-.29-.2-.46-.19,0-.36-.02-.52,0-.1.02-.2.1-.54.28Zm-13.65,21.31c-2.98.21-5.76.16-8.41,1.09-.09,1.61-.28,3.06.24,4.5,1.41.47,2.7-.01,4.01-.23,1.36-.22,2.79.24,4.15-.34v-5.02Zm42.71,13.22c0-1.8,0-3.36,0-4.93,0-.5.08-1.01.07-1.51-.07-3.15-.27-6.31-.2-9.46.11-4.98-.26-9.92-.68-14.87-.09-1.1-.01-2.22-.01-3.33.05,0,.1,0,.15,0-.18-.51-.36-1.02-.55-1.55-.19.02-.35.03-.61.06-.12.41-.34.83-.35,1.26-.04,1.13-.04,2.26.03,3.39.13,2.01.38,4.02.48,6.04.17,3.44.3,6.87.39,10.31.09,3.5.13,6.99.17,10.49,0,.79-.09,1.57-.12,2.36-.02.61-.16,1.24.24,1.82.34-.03.66-.05,1-.08Zm-2.47-12.99c-2.62-.26-5.11-.53-7.6-.74-.42-.04-.86.14-1.24.22-.5,1.4-.48,3.27.03,4.52,1.47.11,2.98.31,4.49.31,1.48,0,2.99.42,4.6-.06-.09-1.38-.17-2.66-.28-4.24Zm-5.63-86.45c-3.46-.54-5.19-.52-6.64.06-.26,2.25-.08,4.19.5,5.62,1.6.22,6.18-.22,7.38-.75-.41-1.61-.82-3.24-1.25-4.93Zm-41.2,4.05c3.22.76,6.36.96,9.62.96.29-1.67.56-3.2.83-4.8-.49-.1-.82-.26-1.13-.21-2.78.44-5.62.44-8.44,1.16-.28.93-.56,1.83-.89,2.9Zm13.08,1.29c2.34.08,4.57.16,6.9.24.41-2.01.12-3.92.39-5.91-1.9-.27-3.64,0-5.37,0-.42,0-.84.19-1.07.25-.39,1.34-.68,2.48-1.05,3.59-.21.63-.3,1.2.2,1.82Zm37.49,85.97c1.26.15,2.6.47,3.93.43,1.39-.04,2.75.68,4.19.2.09-1.46.28-2.85-.07-4.32-2.73-.55-5.4-1.1-8.3-.93.34,1.59-.6,3.04.26,4.63ZM34.19,38.02c-.56.43-.97.83-1.45,1.11-2.11,1.24-3.81,2.97-5.59,4.61-.45.42-.92.85-1.29,1.34-1.37,1.85-2.75,3.71-4.04,5.61-.82,1.21-1.41,2.58-2.25,3.77-2.33,3.27-3.41,7.05-4.52,10.82-.08.27-.2.55-.2.82,0,.22.17.44.28.69.79-.37.83-1.03,1.02-1.6.61-1.75,1.06-3.58,1.86-5.25,1.36-2.83,2.9-5.59,4.45-8.33,1.74-3.06,4.27-5.5,6.62-8.06,1.59-1.73,3.53-3.15,5.3-4.71.16-.14.24-.35.38-.56-.22-.1-.36-.17-.57-.26Zm42.32,87.18c-.49,1.16-.32,2.36-.17,3.5.59,4.43.32,8.89.36,13.33.02,2.48-.14,4.97-.19,7.45-.03,1.17-.02,2.35-.03,3.52,0,.84-.04,1.68-.04,2.52,0,1.74,0,3.48,0,5.3.37-.03.62-.05.86-.07.82-3.38.53-6.67.3-9.95.07-.62.17-1.23.19-1.83.02-1.01-.01-2.01-.03-3.02-.09-6.66-.18-13.32-.28-19.98,0-.26-.11-.52-.17-.77h-.8ZM3.1,155.25c-.1-11.21.25-22.26-.2-33.38-.28-.13-.55-.26-.92-.44,0,1.66.04,3.16,0,4.66-.07,2.03-.24,4.05-.29,6.07-.05,1.96-.04,3.92.01,5.87.07,2.76.23,5.52.3,8.28.06,2.42.48,4.83.05,7.26-.1.57-.02,1.27,1.06,1.68ZM42.67,39.23c-.67.69-.94,1.12-1.08,1.69-.39,1.58-.89,3.14-1.23,4.73-.69,3.2-1.32,6.41-1.42,9.71-.06,2.08-.45,4.14-.66,6.22-.21,2.07-.63,4.13-.3,6.22.06.41.11.8.83.79.13-.42.35-.88.39-1.36.31-3.42.56-6.84.86-10.26.19-2.13.3-4.29.66-6.39.55-3.21,1.3-6.39,1.93-9.59.08-.42.01-.88.01-1.75Zm3.27.2c-.26.9-.17,1.65-.03,2.42.39,2.33.78,4.66,1.11,7,.44,3.13.77,6.27,1.24,9.39.38,2.52.66,5.04.55,7.58-.04.99.19,1.88.51,2.86.35-.03.65-.05,1.05-.08-.05-.9-.09-1.68-.15-2.46-.23-2.97-.43-5.95-.7-8.91-.18-1.9-.39-3.8-.71-5.68-.62-3.61-1.49-7.16-1.98-10.8-.04-.33-.13-.67-.28-.96-.08-.15-.34-.21-.61-.36ZM11.1,150.55c-2.63.41-4.75,1.61-6.85,3.03-.02,1.21-.05,2.44.47,3.72.44.2.93.43,1.53.7,1.21-1.92,3.41-1.57,5.23-2.43-.05-1.39-.09-2.78-.15-4.17,0-.21-.11-.43-.23-.86Zm74.76,2.99c-2.31-.9-4.34-2.16-6.88-1.9-.4,1.48-.29,2.9,0,4.26,1.2.41,2.34.73,3.41,1.2,1.11.49,2.15,1.12,3.34,1.75.09-.47.21-.79.21-1.11,0-1.34-.05-2.68-.08-4.2ZM50.74,39.38c-.08.03-.16.06-.24.08.03.36-.02.74.1,1.07.7,1.89,1.46,3.78,2.28,5.61,1.67,3.71,3.16,7.47,4.41,11.34.52,1.61,1.01,3.23,1.47,4.86.25.86.43,1.74.6,2.62.2,1.04.23,2.13.96,3.09.25-.02.5-.05.83-.08-.54-2.42-.98-4.75-1.6-7.02-.71-2.61-1.6-5.17-2.39-7.76-.18-.59-.21-1.23-.45-1.79-.69-1.6-1.43-3.18-2.19-4.75-1.08-2.23-2.2-4.45-3.31-6.67-.11-.22-.31-.4-.46-.6Zm11.55,28.43c.68,0,1.24.05,1.79,0,1.84-.18,3.69-.39,5.53-.61.15-.02.29-.15.51-.28-.09-.37-.14-.75-.26-1.11-.23-.63-.5-1.24-.74-1.82-1.16-.42-5.18-.54-7.87-.24.33,1.3.66,2.58,1.04,4.06Zm-7.56-29.35c-.11,1.02.76,1.37,1.26,1.98,1.18,1.43,2.44,2.79,3.56,4.26.91,1.19,1.63,2.53,2.51,3.75,2.08,2.88,4.01,5.84,5.52,9.05.64,1.36,1.22,2.75,1.77,4.15.67,1.7,1.27,3.43,1.91,5.15.03.09.16.14.29.26.16-.06.36-.14.64-.25-1.46-5.98-4.64-11.13-7.32-16.49-3.08-4.2-6.15-8.42-10.16-11.86Zm-15.62.63c-1.02-.01-1.13.74-1.45,1.29-.68,1.17-1.19,2.44-1.97,3.53-.93,1.29-1.66,2.67-2.28,4.11-.82,1.91-1.58,3.86-2.3,5.81-.6,1.63-1.15,3.29-1.66,4.95-.31,1.02-.52,2.07-.76,3.11-.33,1.42-.69,2.84-.96,4.28-.1.55-.17,1.16.34,2.07.45-1.86.8-3.32,1.16-4.78.31-1.25.61-2.5.99-3.73.73-2.31,1.53-4.6,2.28-6.9.67-2.04,1.32-4.07,2.5-5.9.24-.38.42-.8.62-1.2.64-1.25,1.28-2.5,1.94-3.74.51-.97,1.04-1.94,1.56-2.91ZM11.06,121.7c-.15-1.61-.28-3.09-.43-4.71-2.18.5-4.08,1.32-5.78,2.66,1.45,1.26,4.16,2.18,6.22,2.04Zm64.63-55.16c1.28-.99,3.15-.78,4.62-2-.99-.24-1.77-.5-2.58-.59-.83-.1-1.69,0-2.53-.04-.82-.05-1.64-.16-2.44-.25-.57,1.26.44,1.99.59,2.89h2.33Zm8.51,92.87c-1.71-1.27-3.37-1.94-5.27-2.27-.2,1.16-.45,2.23.03,3.39,1.67-.39,3.39-.23,5.25-1.12Zm-4.74-38.43c1.97-.17,4.41-.99,5.62-1.96-1.01-.25-1.9-.47-2.8-.69-.9-.22-1.8-.43-2.83-.67v3.31Zm-11.68-59.42c-1.1-.06-1.88-.11-2.66-.15-1.24-.06-2.47-.13-3.71-.17-.15,0-.3.11-.5.19.05.32.1.64.17,1.03,2.62.15,5.16.3,7.7.45.02-.35.03-.57.04-.83-.38-.2-.78-.4-1.04-.53ZM11.53,160.08c-.05-1.31.12-2.29-.2-3.32-1.48.31-2.98.39-4.14,1.82,1.48.51,2.78.96,4.34,1.49Zm11.42-46.19c-.16-.13-.25-.25-.33-.25-2.77-.07-5.46.49-8.14,1.07-.14.03-.23.3-.48.65.6,0,.98.03,1.35,0,2.17-.24,4.34-.48,6.51-.75.41-.05.94-.01,1.09-.71Zm30.25-.51c.37.19.54.36.72.37,2.76.22,5.52.43,8.28.63.25.02.51-.11,1.01-.24-1.67-.97-3.33-.53-4.85-.86-1.59-.35-3.29-.41-5.17.1ZM18.34,62.23c.02.13.05.26.07.39,1.49.19,2.95-.25,4.42-.36,1.5-.11,3.02-.02,4.46-.66-.24-.2-.5-.34-.74-.33-2.57.19-5.13.39-7.69.62-.18.02-.35.22-.53.34Zm-7.86,53.32c-2.45.13-5.5,1.1-6.63,2.17.17.24.34.48.57.81,2.07-.91,4.06-1.78,6.05-2.67.04-.02,0-.2,0-.3Zm-2.25-49.95c.99.18,1.85.33,2.71.49.87.16,1.73.48,2.66.23.11-.46.21-.89.3-1.32.02-.1-.05-.21-.09-.31-1.78-.29-4.11.06-5.58.92Zm27.72,47.38c-3.01-.42-5.8.47-8.61.19-.3-.03-.63.14-1.02.23.1.29.16.49.21.65,1.15,0,2.23.04,3.3-.01,1.02-.05,2.03-.16,3.04-.3.98-.14,2.11.33,3.08-.75Zm30.97,1.89c2.73.24,5.46.49,8.19.73.04,0,.11-.05.13-.09.02-.03-.02-.09-.03-.14-1.64-.65-6.57-1.13-8.29-.49ZM8.16,63.9c1.94.11,3.86-.08,5.76-.51.22-.05.4-.27.6-.42-2.27-.41-4.31.19-6.36.93Zm31.18,49.23c1.94.08,3.67.15,5.4.23.95.05,1.89.16,2.84.17.44,0,.98.13,1.43-.56-2.47.03-4.74-.32-7.27-.11-.56-.25-1.36-.36-2.4.27Zm8.13-52.29c-1.3,0-2.47.03-3.64,0-.78-.03-1.56-.17-2.34-.2-.2,0-.41.2-.61.31,2.2.46,4.34.67,6.51.51.03-.25.05-.41.07-.61Zm38.13,57.23c-1.22-1.39-5.15-2.21-6.29-1.48,2.2.52,4.25,1,6.29,1.48Zm-34.66-57.3c.03.8.42.87.83.87,1.63.02,3.27.04,4.9.03.21,0,.43-.18.64-.27-2.1-.89-4.22-.08-6.37-.63Zm-13.49.53c-.36-.36-.43-.5-.5-.5-1.84.03-3.69.07-5.53.14-.15,0-.28.22-.71.57,2.41.14,4.43-.18,6.75-.2ZM3.96,121.19c.52.35.93,1.03,1.89.64-.7-.34-1.13-.9-1.89-.64Z"/></g></g></svg>