<svg id="グループ_3" data-name="グループ 3" xmlns="http://www.w3.org/2000/svg" xmlns:xlink="http://www.w3.org/1999/xlink" width="384.281" height="272.051" viewBox="0 0 384.281 272.051">
  <defs>
    <clipPath id="clip-path">
      <rect id="長方形_9" data-name="長方形 9" width="384.282" height="272.051" fill="none"/>
    </clipPath>
  </defs>
  <g id="グループ_2" data-name="グループ 2" transform="translate(0 0)" clip-path="url(#clip-path)">
    <path id="パス_83" data-name="パス 83" d="M351.705,27.972c3.493,0,6.438,0,9.383,0,5.311.007,10.6.368,15.482,2.638,4.1,1.908,7.482,4.887,7.677,9.665A21.194,21.194,0,0,1,382.41,50.9q-3.753,7.379-7.506,14.76c-.183.358-.611.652-.657,1.008-.677,5.25-4.328,8.938-7.015,13.075a180.172,180.172,0,0,1-11.895,16.794c-4.51,5.462-7.514,11.892-11.99,17.33-1.971,2.4-4.023,4.724-5.961,7.149-5.81,7.273-11.481,14.665-17.417,21.833a50.8,50.8,0,0,1-8.7,8.92c-3.926,2.906-8.258,3.765-12.783,4.384-4.186.572-7.859-1.285-11.605-2.75-4.018-1.572-8.071-3.059-12.124-4.552-.355-.129-.884.139-1.2-.032-6.525-3.522-13.937-5.041-20.292-8.95a17.8,17.8,0,0,1-5.973-5.924c-.772-1.263-1.514-2.546-2.181-3.668-2.21-6.574.282-12.109,3.631-17.32a35.952,35.952,0,0,1,5.391-5.98c5.715-5.554,11.581-10.958,17.245-16.563a65.372,65.372,0,0,1,9.006-6.905c1.777-1.236,3.634-2.356,5.54-3.583,4.335-6.448,9.059-12.657,15.482-17.34,1.855-1.351,3.719-2.685,5.549-4.067,1.039-.784,2.02-1.645,3.391-2.77-.92-.219-1.334-.467-1.572-.353-9.775,4.673-20.061,8.013-30.281,11.491-8.426,2.867-16.965,5.406-25.425,8.178-2.945.966-5.822,2.152-8.7,3.322-3.376,1.373-6.6,3.047-10.22,3.889-2.152.5-3.994,2.2-6.119,2.955-7.127,2.529-14.317,4.87-21.482,7.29-2.816.954-5.647,1.877-8.441,2.894-6.448,2.351-12.917,4.649-19.3,7.161-6.022,2.366-11.934,5.007-17.916,7.467-3.364,1.382-6.73,2.782-10.179,3.919-2.4.789-5,.954-7.4,1.728-6.048,1.947-12,4.177-18.06,6.1-3.984,1.268-8.086,2.169-12.119,3.3-6.5,1.818-12.9,4.157-19.506,5.411-7.6,1.441-14.9,3.863-22.378,5.7-4.936,1.21-9.66,3.266-14.572,4.607-4.951,1.351-9.979,2.488-15.039,3.342A117.575,117.575,0,0,1,27.6,145.637c-3.872.183-7.769-.265-11.659-.353-2.4-.051-4.8.1-7.2.061a11.478,11.478,0,0,1-3.179-.465c-4.016-1.244-5.781-3.583-5.54-7.772.17-2.952.487-5.915,2.127-8.582a39.408,39.408,0,0,0,2.612-5.479,28.938,28.938,0,0,1,7.346-10.074c4.274-3.948,8.456-8,12.822-11.841,2.994-2.634,6.856-3.782,10.417-5.418,2.088-.957,4.235-1.791,6.379-2.626a12.13,12.13,0,0,1,3.069-.922,6.474,6.474,0,0,0,5.058-2.887c2.943-4.179,7.324-6.715,11.5-9.468,2.59-1.711,5.141-3.481,7.7-5.231,2.346-1.6,4.651-3.249,7.467-4.016,2.351-.643,4.629-1.553,6.978-2.2a10.219,10.219,0,0,1,3.169-.243c2.551.124,5.1.363,7.329.531,4.269-2.892,8.154-5.566,12.092-8.154a21.1,21.1,0,0,1,2.95-1.295,18.3,18.3,0,0,0,3.286-1.592c4.559-3.322,9.887-5,15.071-6.856A47.038,47.038,0,0,1,145.3,48.291c3.515.151,6.229-1.524,8.8-3.573,2.317-1.847,4.5-3.868,6.893-5.608,6.718-4.887,14.472-6.681,22.58-6.542a21.41,21.41,0,0,0,10.1-2.285c3.756-1.852,7.392-3.948,11.079-5.941a1.954,1.954,0,0,1,.348-.2c6.36-1.665,12.257-5.068,19.141-4.79a75.412,75.412,0,0,0,11.32-.287c3.863-.431,7.8-.971,10.517-4.478a6.85,6.85,0,0,1,3.4-2.074c6.336-1.828,12.369-4.788,19.082-5.214,2.816-.178,5.635-.316,8.453-.436,2.161-.09,4.337.012,6.479-.214a15.975,15.975,0,0,0,5.114-1.168c4.228-2,8.723-2.758,13.27-3.461A170.6,170.6,0,0,1,326.562.069c6.749-.056,13.513-.3,20.275.66,5.182.737,8.816,3.855,12.489,6.968,1.733,1.47,1.465,3.7.589,5.686-1.964,4.43-3.571,9.071-7.2,12.559a8.811,8.811,0,0,0-1.008,2.03m-89.027,78.841a8.652,8.652,0,0,0-6.762,2.94c1.77-.521,3.432-.915,5.009-1.526.657-.256,1.132-.981,1.689-1.492l4.089-.82c-2.149-.516-2.149-.516-4.026.9m50.264,32.325c.329-.341.854-.633.959-1.032.587-2.29-.168-4.4-.759-6.616a37.681,37.681,0,0,0-6.606-14.054,11.551,11.551,0,0,0-1.18-1.132c.764,3.1,1.222,6.026,3.262,8.592a16.664,16.664,0,0,1,3.919,10.765,22.164,22.164,0,0,0,.479,3.544c-1.446,3.3-2.889,6.594-4.384,10a51.088,51.088,0,0,1-6.706,2.672,43.717,43.717,0,0,1-6.762.679c5.99,1.144,11.525.462,15.986-4.06.548-1.577,1.039-3.118,1.619-4.625a6.62,6.62,0,0,0,.173-4.739m.75-87.216c3.3-2.668,6.309-5.148,9.371-7.562,5.2-4.109,10.405-8.21,15.67-12.233a9.606,9.606,0,0,1,3.595-1.816c3.378-.73,5.674-3.193,8.037-5.233,4.079-3.517,6.051-8.533,7.616-13.616a5.93,5.93,0,0,0-.127-2.01c-2.843-2.176-5.231-4.912-8.84-5.683a43.524,43.524,0,0,0-8-1.266c-6.078-.139-12.167-.039-18.245.156-3.782.122-7.574,1.015-11.323.813-6.535-.35-12.425,1.989-18.576,3.293,2.178,2.062,4.179,3.965,6.194,5.856.394.368.845.679,1.275,1.01,1.816,1.409,3.739,2.7,5.43,4.245,4.038,3.683,8.431,6.662,13.835,7.964.594.141,1.076.74,1.789,1.258-.282.905-.538,1.728-.8,2.578-5.223.38-9.872-.991-14.4-2.8-2.351-.937-4.917-1.813-6.769-3.425-4.191-3.644-8.675-6.847-13.092-10.176-4.315-3.252-9.079-3.938-14.078-3.816-7.672.187-14.862,2.626-21.92,5.406-1.7.672-3.6,1.3-4.269,3.522.394.55.662,1.3,1.185,1.594,4.228,2.351,7.09,6.267,10.768,9.217,3.556,2.85,6.949,6,11.286,7.769,4.1,1.677,8.159,3.473,12.593,5.372.051.346.156,1.081.275,1.93a9.709,9.709,0,0,1-2.8,1.01,36.044,36.044,0,0,1-5.6-.414c-3.612-.521-7.273-1.017-10.444-2.977-1.7-1.051-3.057-2.7-4.81-3.622-6.036-3.176-10.994-7.874-16.677-11.535-4.824-3.106-9.69-6.031-15.84-4.824-.918.18-1.9-.01-2.84.085a30.68,30.68,0,0,0-6.014.784c-4.508,1.4-8.976,2.962-13.345,4.741a9.723,9.723,0,0,0-4.946,3.556,29.962,29.962,0,0,1,4.342,1.991c4.138,2.811,8.176,5.764,12.265,8.643a32.83,32.83,0,0,0,3.7,2.451c2.636,1.365,5.566,2.271,7.962,3.958a16.637,16.637,0,0,0,6.934,2.979,9.693,9.693,0,0,1,2.59,1.436l-1.77,2.711c-3.237-.7-6.413-1.309-9.544-2.088-5.255-1.309-9.48-5.075-14.8-6.3-.969-.221-1.769-1.2-2.636-1.84-3.038-2.249-5.99-4.639-9.67-5.815-1.8-.574-3.641-1.02-5.406-1.677A32.139,32.139,0,0,0,178.553,35.4c-8.256.737-15.429,3.636-21.085,9.862.222.26.353.533.57.655,2.821,1.585,5.73,3.028,8.465,4.749,3.184,2,6.258,4.184,9.3,6.4,1.631,1.185,2.977,2.782,4.661,3.87,2.147,1.382,4.522,2.4,6.762,3.646,1.056.587,1.967,1.458,3.052,1.976,2.539,1.215,4.941,2.758,7.9,3,.664.056,1.246,1.11,2.049,1.879-.954.857-1.616,1.451-2.054,1.847-3.171-.406-6.029-.553-8.782-1.171a43.214,43.214,0,0,1-15.986-6.64c-4.51-3.206-9.359-5.936-13.109-8.283-3.95-1.735-6.891-3.079-9.877-4.315a23.5,23.5,0,0,0-4.561-1.485,37.023,37.023,0,0,0-17.15,1.081c-4.476,1.3-8.684,3.583-12.934,5.591-2.429,1.149-4.717,2.6-7.044,3.953-1.314.762-2.865,1.278-3.585,2.828a15.423,15.423,0,0,0,1.937,1.107,18.4,18.4,0,0,1,7.837,6.2,13.418,13.418,0,0,0,3.252,3c2.495,1.58,5.085,3.03,7.721,4.367,5.773,2.926,11.6,5.747,17.639,8.726v1.93c-.441.221-.7.472-.915.443-4.673-.626-9.449-.879-13.99-2.035-5.988-1.526-12.058-3.147-16.918-7.424a17.857,17.857,0,0,0-2.86-1.5c-1.5-.879-2.945-1.852-4.44-2.743-3.31-1.972-6.635-3.916-9.955-5.873-.078.195-.158.389-.239.584l-8.8-.879c-.811.18-2,.428-3.188.713C76.9,72.74,72.011,74.833,68.085,78.813a11.329,11.329,0,0,1-2.29,1.67c-2.77,1.658-5.584,3.242-8.344,4.919a7.836,7.836,0,0,0-1.378,1.519,21.633,21.633,0,0,0,2.473,1.044,40.046,40.046,0,0,1,11.167,4.744c2.607,1.67,5.384,3.074,8.122,4.527,1.653.881,3.378,1.626,5.068,2.444,4.23,2.047,8.129,4.812,12.844,5.82.587.127,1.069.742,1.75,1.239-.282.8-.531,1.5-.857,2.419-1.877-.117-3.631-.095-5.343-.36-4.257-.66-8.5-1.421-12.732-2.2-2.7-.5-5.17-1.529-6.333-2.777-4.388-1.93-7.781-3.551-11.272-4.934-5.608-2.22-11.118-5.214-17.5-3.276-1.913.582-3.795,1.288-5.644,2.047-5.766,2.366-11.479,4.814-15.777,9.619a20.453,20.453,0,0,1-2.831,2.312c-3.741,2.906-6.574,6.693-9.755,10.137a10.424,10.424,0,0,0-1.441,2.449c-1.57,3.12-3.111,6.258-4.9,9.872-.265,2.261-.594,5.055-.9,7.669,2.7,2.607,5.708,3.064,8.9,3.028,5.007-.054,10.016-.063,15.025-.056,5.557.007,11.111.044,16.568-1.263,5.379-1.292,10.775-2.524,16.142-3.858,2.748-.684,5.457-1.519,8.176-2.315,6.608-1.928,13.177-3.984,19.822-5.778,6.126-1.655,12.352-2.948,18.491-4.559,4.96-1.3,9.86-2.831,14.781-4.281,1.682-.5,3.359-1.025,5.016-1.594,5.625-1.933,11.174-4.121,16.877-5.776,6.871-2,13.8-3.775,20.416-6.538,4.749-1.984,9.361-4.335,14.2-6.053,10.7-3.8,21.178-8.239,32.136-11.345,5.07-1.436,10.013-3.337,14.976-5.133a137.108,137.108,0,0,0,13.209-5.123c7.224-3.5,14.811-5.966,22.371-8.529,10.6-3.6,21.268-7.007,31.834-10.707,5.233-1.833,10.313-4.1,15.429-6.253a23.551,23.551,0,0,0,3.176-1.984c1.129.092,2.468.2,3.936.324m2.512,90.96a5.4,5.4,0,0,0,.991-.745q6.824-8.31,13.608-16.651c.426-.521.74-1.134,1.149-1.672a54.715,54.715,0,0,1,4.479-5.764,74.034,74.034,0,0,0,9.612-12.54q6.334-9.9,13.453-19.231c5.491-7.209,10.729-14.584,14.251-23.052,1.813-4.357,4.184-8.48,6.114-12.793a20.371,20.371,0,0,0,2.013-6.56c.2-2.716.874-5.868-1.74-7.964-3.193-2.558-6.7-4.7-10.914-4.96-4.028-.246-8.086-.044-12.116-.285a39.338,39.338,0,0,0-10.422,1.015,15.485,15.485,0,0,0-5.245,2c-3.741,2.434-7.377,5.046-10.892,7.8a30.037,30.037,0,0,0-6.387,6.236,10.6,10.6,0,0,0,1.509.2c6.18-.285,12.009,1.261,17.729,3.378,2.025.747,4,1.7,6.073,2.242,5.089,1.331,10.225,2.478,15.7,3.782.195.5.511,1.3.993,2.514-2.884.8-5.469,1.451-8.01,2.244-4.14,1.295-8.334.988-12.467.273-4.663-.808-9.271-1.95-13.883-3.023a43.62,43.62,0,0,0-12.868-1.156c-5.951.4-11.369,2.03-15.8,6.3-2.626,2.534-5.338,5-8.173,7.3-1.889,1.529-2.741,3.49-3.722,5.939,1.8.168,3.254.431,4.7.419a47.47,47.47,0,0,1,18.3,3.12c4.2,1.679,8.105,3.992,12.73,4.754,3.544.582,6.937,2.108,10.383,3.254,1.66.553,3.32,1.127,4.919,1.833a7.5,7.5,0,0,1,1.655,1.492,6.856,6.856,0,0,1-1.149.976c-4,1.872-8.358,2.1-12.635,2.553a21.847,21.847,0,0,1-6.467-.3c-7.28-1.438-14.511-3.13-21.782-4.617-2.619-.535-5.335-1.254-7.94-1.044a97.689,97.689,0,0,0-18.71,2.93c-1.28.36-2.568.694-3.756,1.015-2.174,2.943-5.233,4.788-7.759,8.314,2.714-.565,4.615-1.088,6.552-1.339,8.1-1.042,15.967.6,23.5,3.135,5.907,1.989,10.563,6.27,14.516,11.223,3.537,4.432,5.433,9.614,7.4,14.794a5.9,5.9,0,0,1,.489,1.945c.049,3.476.024,6.954.024,10.709m-60.187-7.777c1.974.713,4.225,1.6,6.521,2.346,3.332,1.083,6.813,1.752,9.573,4.206a6.122,6.122,0,0,0,2.636.925,46.364,46.364,0,0,1,14.051,5.491c7.088,2.11,13.143,2.388,18.277-1.658,4.318-6.379,3.812-12.693.621-19.391-3.335-2.108-4.079-6.036-5.143-10.106-4.259-2.466-8.65-5.012-13.876-8.037-2.986-.148-6.891-.265-10.778-.582a18.637,18.637,0,0,1-3.773-1.117c-4.291-.141-8.149,1.361-12.094,3.227a25.372,25.372,0,0,0-9.449,7.808c-2.609,3.361-1.093,6.966-1.382,10.461-.024.314.341.689.577,1,1.322,1.711,2.66,3.41,4.24,5.43M277.07,89l.251.832c1.438-.28,2.877-.545,4.311-.845a46.282,46.282,0,0,1,16.887-.757c6.8,1.1,13.552,2.565,20.255,4.165a33.041,33.041,0,0,0,17.941-.2c-.832-.358-1.2-.506-1.563-.674-6.681-3.1-14.387-3.4-20.679-7.557a2.754,2.754,0,0,0-.387-.119c-7.784-3.488-16.016-3.369-23.933-3.171L277.07,89M359.75,59.029c-.567-.475-.735-.733-.944-.774-5.659-1.146-11.376-2.118-16.626-4.676-7.073-3.449-14.587-3.32-22.183-3.045-1.341,1.811-3.86,2.495-4.41,5.136,4.929-.034,9.643-.606,14.263.667,1.034.287,2.064.6,3.113.82,6.165,1.29,12.338,2.556,18.264,3.78l8.524-1.908M132.943,85.985c-3.4-1.7-6.426-3.113-9.361-4.7-3.919-2.125-7.959-4.255-10.7-7.842C110.1,69.79,106.352,68,102.139,66.273c-1.385,1.117-2.709,2.183-4.464,3.593,4.25,2.653,8.081,5.053,11.922,7.436,1.6.993,3.3,1.843,4.824,2.943,5.282,3.826,11.367,5.362,17.654,6.353.095.015.217-.146.869-.611M151.11,50.45a26.945,26.945,0,0,0,3.259,1.672,59.311,59.311,0,0,1,13.557,6.932c3.926,2.561,7.886,5.072,11.907,7.484a18.668,18.668,0,0,0,8.519,2.32,49.121,49.121,0,0,0-7.63-5.257,33.127,33.127,0,0,1-6.562-4.617,24.39,24.39,0,0,0-2.427-2.108q-6.086-3.954-12.255-7.784a7.1,7.1,0,0,0-5.584-1.076L151.11,50.45M50.556,92.413C58.069,95.305,65.1,97.992,72.1,100.73a13.02,13.02,0,0,1,1.993,1.336c3.631,2.285,7.774,2.48,12.194,3.332-.94-1.1-1.4-2.032-2.152-2.436-1.991-1.071-4.091-1.952-6.18-2.84a30.214,30.214,0,0,1-6.382-3.344,48.455,48.455,0,0,0-17.948-7.813l-3.072,3.449M238.73,22.125c4.773,2.865,9.259,5.223,12.769,9a21.525,21.525,0,0,0,4.138,3.2c2.137,1.387,4.332,2.7,6.579,3.9a71.124,71.124,0,0,0,6.564,3.1,11.061,11.061,0,0,0,2.892.365c-3.651-2.519-7.55-4.3-10.7-7.258a1.689,1.689,0,0,0-.346-.207A37.7,37.7,0,0,1,251.9,26.6a25.831,25.831,0,0,0-7.759-5.669c-1.877-.94-3.563-.764-5.413,1.2M285.068,9.213c.151.316.17.455.251.514,5.364,3.816,10.928,7.346,15.775,11.892,1.9,1.782,4.593,2.556,7.93,2.952-4.608-5.805-11.2-8.446-15.088-14.078-2.928-.465-5.581-2.67-8.867-1.28m-93.2,25.362,7.533,2.87c2.626,1,5.221,1.972,7.363,3.972a21.283,21.283,0,0,0,8.624,5.046,15.336,15.336,0,0,0,3.086.027c-1.49-.978-2.142-1.395-2.777-1.828-3-2.04-6.068-3.975-8.959-6.155-3.437-2.592-6.727-5.369-11.681-5.579l-3.188,1.648m80.009,69.171a18.722,18.722,0,0,0,10.88,1.852,16.926,16.926,0,0,1,2.772.256c.713.046,1.431.01,2.147.01a31.233,31.233,0,0,0-15.8-2.118m30.179,9.765c.146-.195.292-.389.436-.584-.287-.426-.479-1.005-.879-1.251q-3.782-2.326-7.657-4.51a7.36,7.36,0,0,0-2.059-.346c2.13,3.481,6.411,3.023,8.417,5.917.309.448,1.149.526,1.743.774m-54.119,7.942c-2,2.938-.613,5.36-.156,7.779.915-2.307,1.779-4.61.156-7.779M276.554,145.9a12.738,12.738,0,0,0,8.234,3.145c-3-1.825-5.408-3.023-8.234-3.145m-7.762-2.373c.112-.287.222-.577.333-.867-2.407-1.017-4.576-2.8-7.623-1.825q3.647,1.347,7.29,2.692M226.4,50.5c-2.607-1.38-4.191-2.972-7.129-2.809,2.149,1.735,3.938,2.838,7.129,2.809M249.8,117.624c1.672-2.2,2.892-3.8,4.113-5.4-2.108.842-3.678,2.1-4.113,5.4M252.292,136c.11-2.225-.964-3.378-3.111-3.561L252.292,136" transform="translate(0 -0.001)" fill="#424242"/>
    <path id="パス_84" data-name="パス 84" d="M141.141,103.584c-1.268,2.045-2.363,4.045-3.683,5.89-3.332,4.661-7.609,7.92-13.467,8.767-1.329.19-2.612.7-3.926,1-2.758.645-5.64.733-8.358,1.241-6.922,1.292-13.728.185-20.577.01a20.034,20.034,0,0,1-5.574-.925c-6.669-2.147-13.564-3.709-19.6-7.545a39.225,39.225,0,0,0-4.089-1.728,23.607,23.607,0,0,1-9.838-8.2,12.13,12.13,0,0,1,.577-3.069c2.536-5.416,5.605-10.262,10.795-13.82,7.219-4.953,15.181-6.7,23.631-7.265,5.936-.4,11.868-.854,18.087-1.3a92.253,92.253,0,0,1,7.1-7.56c3-2.595,5.951-5.53,10.288-5.912a1.279,1.279,0,0,0,.389-.1c1.959-.884,3.8-1.908,6.063-2.144,8.487-.888,16.962-1.806,25.51-1.037a19.557,19.557,0,0,1,3.571.723c4.668,1.339,9.317,2.748,13.986,4.087a18.67,18.67,0,0,1,5.764,2.826c1.86,1.336,3.989,2.232,5.885,3.415a30.381,30.381,0,0,1,6.443,6c3.863,4.437,3.941,8.11.324,12.769-4.087,5.265-8.718,10.033-14.927,12.742-4.569,1.993-9.356,3.544-14.482,3.123-2.264-.187-4.466.3-6.815-.073-3.325-.531-6.625-1.066-9.9-1.872a13.454,13.454,0,0,0-3.176-.039m3.249-36.378c-.854-.358-1.594-.677-2.341-.981-2-.818-4-1.779-6.238-1.256-3.142.738-6.409,1.246-9.337,2.512-2.171.937-4.912,2.156-4.4,5.133A14.58,14.58,0,0,0,130,78.475c3.77,1.341,6.9,3.644,10.337,5.479.835.445,1.56,1.112,2.414,1.5a8.423,8.423,0,0,0,3.408,1.127,16.578,16.578,0,0,1,8.078,2.181,73.531,73.531,0,0,1,7.869,1.451,12.129,12.129,0,0,0,2.75.621c3.242-.071,6.484-.26,9.724-.475a8.05,8.05,0,0,0,2.361-.57c2.259-.876,4.488-1.823,6.944-2.831.764-1.022,1.648-2.205,2.539-3.4-.056-1.154-.107-2.222-.173-3.549-3.06-2.3-6.173-4.651-9.3-6.981a3.842,3.842,0,0,0-1.424-.762c-3.422-.694-6.433-2.867-10.081-2.772a4.466,4.466,0,0,1-1.5-.543c-2.884-1.115-5.771-2.227-7.725-2.982l-11.831,1.234m-6.922,37.7c-3.208,1.064-5.562,2.01-8,2.621-7.543,1.891-15.3,1.066-22.955,1.64a6.339,6.339,0,0,1-1.2-.183c-4.423-.562-8.86-1.042-13.268-1.711a53.385,53.385,0,0,1-6.292-1.538c-2.458-.691-4.851-1.665-7.341-2.181a30.412,30.412,0,0,1-10.539-3.982,35.23,35.23,0,0,1-3.726-2.363,8.2,8.2,0,0,1-2.225-2.853,17.489,17.489,0,0,1-.706-3.9c-4.023,2.965-4.987,7.229-6.852,11.425,1.373,1.144,2.767,2.156,3.98,3.352,2.5,2.463,5.8,3.354,8.826,4.822a87.294,87.294,0,0,0,17.724,6.73,60.434,60.434,0,0,0,14.811,1.845,104.734,104.734,0,0,0,21.716-2.278c6.672-1.509,12-4.651,16.047-11.442M70.917,94.666c2.668.664,5.072.83,7.015,1.867a21.518,21.518,0,0,0,6,2.259,31.522,31.522,0,0,1,6.6,1.828c3.045,1.348,6.187,1.536,9.4,1.614,2.945.073,5.966-.241,8.818.314,4.571.888,9.084.621,13.657.462,3.23-.11,6.048-.852,8.47-3.213a6.816,6.816,0,0,0-1.295-1.081c-3.924-1.83-7.879-3.59-11.242-6.418a7.814,7.814,0,0,0-2.2-1.022,26.774,26.774,0,0,1-11.581-8.081,6.4,6.4,0,0,1-2.3-.041c-2.967-1.173-5.873-.528-8.714.253a12.414,12.414,0,0,1-8.137-.207c-4.827,1.9-10.461.489-14.7,4.384a18.655,18.655,0,0,1,2.332,1.782c.212.217-.041.884-.127,1.83-1.273-1.032-2.149-1.74-3.15-2.553-.626.511-1.2.978-1.789,1.458,1.081,1.679,2.025,3.152,2.935,4.566m35.546-14.609c1.606,3.561,1.548,3.658,3.257,4.659,2.672,1.565,5.435,2.984,8.154,4.474a17.677,17.677,0,0,1,2.444,1.412,56.138,56.138,0,0,0,14.589,7.815,83.88,83.88,0,0,0,19.606,4.663c8.536,1.086,16.364-.83,23.872-4.6a7.526,7.526,0,0,0,3.2-2.741c-3.972.414-7.66.966-11.367,1.149-7.523.37-14.711-1.787-21.981-3.257-5.231-1.059-9.539-4.225-14.217-6.506-4.208-2.054-8.076-4.807-12.124-7.27-1.375-1.563-2.792-3.176-4.479-5.092-.555-1.327-1.283-3.064-2.113-5.05-3.529,3.332-6.664,6.409-8.84,10.342m79.676,9.69c-2.327.606-4.313.713-5.839,1.609-3.137,1.843-6.443,1.8-9.826,1.643a8.365,8.365,0,0,0-5.615,1.358,55.6,55.6,0,0,0,16.181-.94,7.89,7.89,0,0,0,5.1-3.67m-92.822,14.48c-1.485-.5-2.962-1.017-4.454-1.492C84.8,101.442,80.484,101,76.748,98.6a6.127,6.127,0,0,0-5.447-.562c2.855,1.862,18.413,6.409,22.015,6.187M144.2,64.594c3.9-.36,7.725-.711,11.948-1.1-3.464-1.643-10.052-2.01-15.181-.874l3.232,1.974M97.965,104.9c4.325,1.555,8.83,1.049,13.316.9a43.426,43.426,0,0,0-13.316-.9m-28.628-7.85c-1.733-2.935-3.086-5.231-4.573-7.75-1.1,4.386-.382,5.7,4.573,7.75m119.6-16.583c.024,3.313-.477,5.958-3.188,8.217,2.918.168,3.554-1.443,4.182-3.05s1.538-3.252-.993-5.167M164.627,65.2c-.273.224-.426.295-.462.4a.377.377,0,0,0,.156.319c2.6,1.575,5.588,1.563,8.351,2.48l.212-.776L164.627,65.2m-8.833,27.582c1.989.307,3.977.626,5.97.9.2.027.443-.2,1.071-.5-2.541-.684-4.617-1.911-7.041-.4m-2.9-.587c-1.706-1.726-3.425-3.4-6.8-1.937l6.8,1.937m-17.281,9.811c-3.13.312-3.13.312-4.768,2.354,1.429-.828,3.415-.248,4.768-2.354m-16.539-29.5a7.261,7.261,0,0,0,.652-.365c.1-.083.265-.187.265-.285.019-1.185.012-2.368.012-3.529-1.088,1.835-1.088,1.835-.93,4.179M91.289,80.2l-.095.679c.75-.049,1.5-.073,2.251-.156.63-.071,1.251-.209,1.874-.319l-.061-.377-3.97.173m40.679,1.458c-.219.219-.441.436-.66.655a4.528,4.528,0,0,0,3.814,1.937l-3.154-2.592" transform="translate(74.608 85.452)" fill="#424242"/>
    <path id="パス_85" data-name="パス 85" d="M128.621,116.6l-5.644-.341c-2.21-2.035-2.21-2.035-2.324-4.929,1.438-.876,3.033-1.845,4.817-2.93,1.142.531,2.332,1.081,3.4,1.572,1.66,2.244.737,4.206-.243,6.628m-.93-2.95c-.251-1.862-1.21-2.419-2.565-2.229-1.015.141-2.147.37-2.015,2.1,1.409.608,2.819,1.081,4.581.129" transform="translate(173.011 155.447)" fill="#424242"/>
    <path id="パス_86" data-name="パス 86" d="M131.557,88.39a5.748,5.748,0,0,1,4.9,5.289c-3.169,2.169-5.33,2.088-8.1-.209.268-2.1,1.855-3.4,3.2-5.08" transform="translate(184.058 126.748)" fill="#424242"/>
    <path id="パス_87" data-name="パス 87" d="M81.482,47.322c.971.535,1.9,1.049,2.67,1.47,1.134,2.113.443,3.868-.35,5.79-.747.365-1.575.767-2.492,1.212l-4.028-2.558c-.095-3.237,2.453-4.2,4.2-5.915m.881,2.977c-1.67.243-2.68.611-2.77,2.432,1.061-.11,2-.2,3.047-.312-.11-.835-.175-1.329-.277-2.12" transform="translate(110.814 67.858)" fill="#424242"/>
    <path id="パス_88" data-name="パス 88" d="M109.227,87.382c1.051-1.154,2.01-2.21,3.181-3.5,1.526,1,2.828,1.852,4.267,2.792-.166,1.319-.307,2.458-.477,3.807l-5.15-.331c-.552-.842-1.124-1.711-1.821-2.77" transform="translate(156.628 120.287)" fill="#424242"/>
    <path id="パス_89" data-name="パス 89" d="M104.317,91.614H99.106c-.613-2.595,1.183-3.722,2.376-5.085,3.084.26,3.084.26,4.921,2.069a5.362,5.362,0,0,1-2.086,3.016" transform="translate(141.937 124.079)" fill="#424242"/>
    <path id="パス_90" data-name="パス 90" d="M99.4,51.049c-3.081,1.572-3.809,1.473-6.6-.891l2.183-4.578,3.5.983c.3,1.468.584,2.882.91,4.486" transform="translate(133.079 65.36)" fill="#424242"/>
    <path id="パス_91" data-name="パス 91" d="M113.884,91.412c2.057.329,2.85,1.616,3.2,3.471-.353.613-.752,1.3-1.29,2.232l-4.727.745c-.268-1.013-.465-1.772-.667-2.536,1.227-1.375,2.373-2.663,3.485-3.911" transform="translate(158.308 131.082)" fill="#424242"/>
    <path id="パス_92" data-name="パス 92" d="M131.054,77.407c-2.573.219-3.619-1.173-4.542-3.03.9-1.275,1.726-2.451,2.617-3.714.662.037,1.295.073,1.989.11.823,2.244,2.573,4.33-.063,6.635" transform="translate(181.414 101.327)" fill="#424242"/>
    <path id="パス_93" data-name="パス 93" d="M53.272,61.436c2.327,1.5,2.58,3.325,1.4,5.486-3.3.891-3.3.891-5.253-1.645a4.578,4.578,0,0,1,3.853-3.841" transform="translate(70.865 88.097)" fill="#424242"/>
    <path id="パス_94" data-name="パス 94" d="M99.972,103.877,102.8,100.5l3.653,1.947c-.192,1.246-.365,2.356-.548,3.534-2.4.156-4.386.282-5.934-2.1" transform="translate(143.356 144.112)" fill="#424242"/>
    <path id="パス_95" data-name="パス 95" d="M92.892,57.562l-5.2.314c-.063-.964-.112-1.689-.141-2.127,1.232-1.933,3.461-.455,4.564-1.959,1.643,1.3,1.643,1.3.774,3.773" transform="translate(125.549 77.131)" fill="#424242"/>
    <path id="パス_96" data-name="パス 96" d="M83.345,54.929l-1.309,1.48-1.959-1.042c.462-.84.818-1.49,1.358-2.475.752.8,1.312,1.4,1.911,2.037" transform="translate(114.826 75.845)" fill="#424242"/>
    <path id="パス_97" data-name="パス 97" d="M132.183,82.362c-1.047-.791-1.509-1.565-.487-2.962l1.555,1.8-1.068,1.161" transform="translate(188.027 113.857)" fill="#424242"/>
    <path id="パス_98" data-name="パス 98" d="M119.772,87.469c-.752-.363-1.5-.728-2.495-1.207.65-.518.935-.745,1.441-1.146.516.611,1,1.188,1.487,1.765-.146.195-.29.392-.433.589" transform="translate(168.171 122.052)" fill="#424242"/>
    <path id="パス_99" data-name="パス 99" d="M109.644,48.867c1.253.428,2.507.854,3.945,1.344-.214.621-.375,1.086-.677,1.964-1.327-.891-2.441-1.643-3.558-2.4.1-.3.195-.606.29-.91" transform="translate(156.81 70.074)" fill="#424242"/>
    <path id="パス_100" data-name="パス 100" d="M113.533,47.151c-1.356-1.124-2.01-1.67-2.843-2.361,2.242-.406,2.242-.406,2.843,2.361" transform="translate(158.725 63.949)" fill="#424242"/>
    <path id="パス_101" data-name="パス 101" d="M111.309,51.907v2.488l-2.848-1.431,2.848-1.056" transform="translate(155.529 74.433)" fill="#424242"/>
    <path id="パス_102" data-name="パス 102" d="M107.252,52.617l-2.312,2.215c-.28-.84-.424-1.278-.672-2.018.9-.061,1.548-.1,2.984-.2" transform="translate(149.517 75.451)" fill="#424242"/>
    <path id="パス_103" data-name="パス 103" d="M116.462,57.485l-1.857,1.662c-.479-.728-.832-1.261-1.611-2.444,1.548.348,2.329.526,3.468.781" transform="translate(162.029 81.311)" fill="#424242"/>
    <path id="パス_104" data-name="パス 104" d="M105.488,48.938c.64.993.983,1.526,1.353,2.1-.406.38-.679.638-1.392,1.312-.419-.528-.8-1.01-1.273-1.609l1.312-1.8" transform="translate(149.385 70.175)" fill="#424242"/>
    <path id="パス_105" data-name="パス 105" d="M125.446,50.392c-2.3-.034-3.013-.587-2.741-2.509a7.093,7.093,0,0,1,1.4.718,13.953,13.953,0,0,1,1.341,1.791" transform="translate(175.876 68.662)" fill="#424242"/>
    <path id="パス_106" data-name="パス 106" d="M113.218,47.03c.217-.983.321-1.463.462-2.1l2.621,1.105-3.084,1" transform="translate(162.351 64.427)" fill="#424242"/>
    <path id="パス_107" data-name="パス 107" d="M110.38,48.517l-2.867-1.395c1-.533,1.56-.835,2.322-1.244.161.781.258,1.251.545,2.638" transform="translate(154.17 65.789)" fill="#424242"/>
    <path id="パス_108" data-name="パス 108" d="M112.721,49.06c-.475-.737-.806-1.249-1.587-2.461l3.016.876-1.429,1.585" transform="translate(159.362 66.821)" fill="#424242"/>
    <path id="パス_109" data-name="パス 109" d="M112.506,55.122c-1.292-.6-1.567-1.441-.93-2.736,1.217.65,1.945,1.334.93,2.736" transform="translate(159.523 75.12)" fill="#424242"/>
    <path id="パス_110" data-name="パス 110" d="M106.329,54c-.372-1.29-.528-1.825-.813-2.814,1.054.2,1.7.331,2.8.548L106.329,54" transform="translate(151.306 73.396)" fill="#424242"/>
    <path id="パス_111" data-name="パス 111" d="M109.594,51.847c-1.032-1.047-1.546-1.567-2.429-2.466,2.088-.239,2.58.3,2.429,2.466" transform="translate(153.671 70.737)" fill="#424242"/>
    <path id="パス_112" data-name="パス 112" d="M109.687,55.124c.81.37,1.4.643,2.178,1-1.731,1.144-1.731,1.144-2.178-1" transform="translate(157.287 79.046)" fill="#424242"/>
    <path id="パス_113" data-name="パス 113" d="M109.038,55.9c-1.2-1.02-1.752-1.49-2.376-2.023,1.838-.974,1.838-.974,2.376,2.023" transform="translate(152.949 76.426)" fill="#424242"/>
    <path id="パス_114" data-name="パス 114" d="M115.005,49.913l-.438-1.511c.864-.63,1.592-.952,2.356.7-.65.277-1.173.5-1.918.815" transform="translate(164.285 68.672)" fill="#424242"/>
    <path id="パス_115" data-name="パス 115" d="M105.768,47.84l2.653.54c-1.129,1.611-1.129,1.611-2.653-.54" transform="translate(151.668 68.601)" fill="#424242"/>
    <path id="パス_116" data-name="パス 116" d="M106.516,55.393l2.183-.543c.034.674.058,1.129.112,2.166-.91-.643-1.395-.986-2.3-1.623" transform="translate(152.74 78.653)" fill="#424242"/>
    <path id="パス_117" data-name="パス 117" d="M119.337,47.941c-.652-.19-1.307-.377-2.069-.6.258-.567.4-.891.7-1.553l1.709,1.58c-.114.19-.226.382-.341.572" transform="translate(168.158 65.66)" fill="#424242"/>
    <path id="パス_118" data-name="パス 118" d="M88.738,68.186c-.762-1.241-1.078-1.762-1.645-2.687l2.979-.146c-.455.969-.735,1.563-1.334,2.833" transform="translate(124.888 93.714)" fill="#424242"/>
    <path id="パス_119" data-name="パス 119" d="M88.721,66.051h-1.8V64.043c1.378-.146,2.045.231,1.8,2.008" transform="translate(124.643 91.794)" fill="#424242"/>
    <path id="パス_120" data-name="パス 120" d="M95,70.806l-1.611.969-1.256-2.047c1.353-.959,1.981-.153,2.867,1.078" transform="translate(132.118 99.381)" fill="#424242"/>
    <path id="パス_121" data-name="パス 121" d="M90.979,65.269c-.438-.608-.762-1.061-1.2-1.667,1.862-.148,1.862-.148,1.2,1.667" transform="translate(128.743 91.118)" fill="#424242"/>
    <path id="パス_122" data-name="パス 122" d="M86.249,69.612c-.195-1.1-.3-1.709-.555-3.128,1.107,1.054,1.609,1.533,2.251,2.144-.594.343-.9.523-1.7.983" transform="translate(122.882 95.336)" fill="#424242"/>
    <path id="パス_123" data-name="パス 123" d="M84.322,62.981h2.286c-.075.6-.139,1.115-.282,2.254-.784-.884-1.146-1.29-2-2.254" transform="translate(120.915 90.312)" fill="#424242"/>
    <path id="パス_124" data-name="パス 124" d="M86.306,66.846c-.589.122-1.073.221-1.711.355-.168-.589-.3-1.056-.46-1.616,1.412-.652,1.979-.185,2.171,1.261" transform="translate(120.647 93.633)" fill="#424242"/>
    <path id="パス_125" data-name="パス 125" d="M62.294,72.276c1.146,1.12,1.65,1.611,2.738,2.67-1.638.465-2.256.64-3.4.961.209-1.156.336-1.857.657-3.631" transform="translate(88.385 103.641)" fill="#424242"/>
    <path id="パス_126" data-name="パス 126" d="M64.487,71.05c1.1.543,1.648.818,2.641,1.312-.83.677-1.356,1.107-1.884,1.538-.207-.784-.416-1.565-.757-2.85" transform="translate(92.472 101.883)" fill="#424242"/>
    <path id="パス_127" data-name="パス 127" d="M70.362,74.82c1.417.781,1.991,1.1,2.782,1.536-.5.543-.823.888-1.336,1.441-.421-.864-.723-1.487-1.446-2.977" transform="translate(100.897 107.289)" fill="#424242"/>
    <path id="パス_128" data-name="パス 128" d="M68.8,70.99l2.4.669c-1.619,1.025-1.619,1.025-2.4-.669" transform="translate(98.655 101.797)" fill="#424242"/>
    <path id="パス_129" data-name="パス 129" d="M63.9,74.278c.565.119,1.134.241,1.794.382-.9,1.271-.9,1.271-1.794-.382" transform="translate(91.632 106.512)" fill="#424242"/>
    <path id="パス_130" data-name="パス 130" d="M67.852,74.987c.484.316.964.63,1.638,1.073-.543.489-.884.8-1.351,1.222-.382-.579-.652-.986-.891-1.346.207-.324.336-.528.6-.949" transform="translate(96.431 107.529)" fill="#424242"/>
  </g>
</svg>
