<?xml version="1.0" encoding="utf-8"?>
<!-- Generator: Adobe Illustrator 27.5.0, SVG Export Plug-In . SVG Version: 6.00 Build 0)  -->
<svg version="1.1" id="レイヤー_1" xmlns="http://www.w3.org/2000/svg" xmlns:xlink="http://www.w3.org/1999/xlink" x="0px"
	 y="0px" viewBox="0 0 136.6 164.4" style="enable-background:new 0 0 136.6 164.4;" xml:space="preserve">
<style type="text/css">
	.st0{fill:#2C3E50;}
</style>
<g id="_91" transform="translate(0 0)">
	<path id="パス_9" class="st0" d="M131.2,152.7c1.5-0.1,3-0.4,4.4-1c1-0.3,1.2-0.7,0.9-1.7c-0.1-0.4-0.3-0.7-0.4-1.1
		c-0.1-0.2-0.1-0.5-0.1-0.7c-1.6-1-3.1-1.8-4.4-2.8c-1.9-1.3-3.1-3.5-3-5.8c0.2-2.9,0.2-5.8,0.2-8.7c0-0.7-0.1-1.4-0.1-2.1
		c-0.2-3.4-0.1-6.9,0.3-10.3c0-0.4,0-0.8,0.1-1.2c2-2.2,4.5-4,7.3-5.2c0-0.9-0.6-1.2-1.1-1.3c-3.6-1.1-7.3-2.2-11-3.2
		c-0.7-2.7-0.2-5.5,1.4-7.8c2.1-3.1,4.4-6.2,5.2-10c0.6-2,0.7-4.1,0.5-6.2c-0.3-1.8-0.4-3.6-0.5-5.5c-0.2-2.5-1.5-4.4-2.9-6.3
		c-0.7-0.9-1.5-1.7-2.5-2.3c-2-1.6-4.3-2.9-6.7-3.8c-1.3-0.5-2.7-0.8-3.9-1.3c-2.5-0.9-4.9-2-7.4-2.9c-2.3-0.8-4.8-1.3-7.1-2.1
		c-1.7-0.6-3.3-1.4-4.9-2.1c-0.3-0.2-0.6-0.4-1-0.6c-5.5-2.8-10.9-5.9-16.2-9.2c-2.4-1.5-4.4-3.4-6.1-5.6c-0.4-0.5-0.5-1.1-0.4-1.7
		c0.1-2.4,0-4.8-0.2-7.2c-0.5-4.2-1.5-8.2-3-12.1c-0.7-1.9-1.3-3.8-2.8-5.3c-0.3-0.4-0.6-0.8-0.8-1.3c-0.4-0.7-0.9-1.4-1.5-1.9
		c-1.7-1.3-3-2.9-3.9-4.8c-1.9-3.4-5.3-5.6-9.2-6c-1.8-0.3-3.5-0.4-5.3-0.2c-1.6,0.2-3-0.6-4.4-0.9c-1.3-0.3-2.6-0.4-3.9-0.3
		c-1.9,0.1-3.8,0.5-5.6,1.2c-0.7,0.3-1.4,0.6-2,1c-2.7,2-4.9,4.6-6.6,7.5c-0.2,0.3-0.4,0.7-0.5,1c-0.8,1.7-2,3.1-3.6,4
		c-1.8,1.2-3.3,2.8-4.5,4.6c-1.3,1.7-2.5,3.4-3.7,5.1c-1.2,1.7-2.1,3.5-2.6,5.5c-0.4,1.1-0.7,2.3-0.7,3.5c0,0.7-0.7,1.4-0.8,2.1
		c-0.3,2.6-0.6,5.1-0.7,7.7c-0.1,1.8-0.6,3.5-1.5,5c-0.9,1.9-1.7,3.8-2.3,5.8c-1,2.7-1.4,5.5-1.2,8.4C0.4,63.7,0,65,0,66.2
		c0,2,0.2,3.9,0.4,5.9c0.2,1.8,0.4,3.7,0.6,5.5c0.2,2.1,0.6,4.1,1.3,6.1C2.7,85,3,86.3,3,87.6c0.2,3.3,0.2,6.6,1,9.8
		c0.8,3.5,2.4,6.8,4.5,9.7c1.3,1.7,2.6,3.3,4.1,4.9c0.7,0.6,1.5,1.2,2.3,1.6c1.4,0.8,2.9,1.6,4.3,2.3c0.2,0.1,0.3,0.3,0.5,0.3
		c1.6-0.1,2.2,1.2,3.3,2c1.1,0.8,2.1,1.6,3.2,2.3c1.8,0.9,3.8,1.2,5.7,0.9c1.1-0.1,2.3-0.3,3.4-0.6c3.3-0.8,6.4-2.5,8.9-4.9
		c1.2-1.1,2.4-2.2,3.8-3.5l2.3,1.7c-0.1,1.7-0.2,3.4-0.3,5.1c-0.1,1.2-0.1,2.4-0.1,3.6c0,3,0,6.1-0.1,9.1c0,1.6-0.2,3.2-0.3,4.7
		c0,0.3-0.1,0.6-0.3,0.9c-1.7,2-3.3,4.2-6.3,4.3c-0.4,0-0.8,0.1-1.2,0.2c-0.2,0.9-0.4,1.8-0.5,2.6c-0.2,1,0.4,2,1.4,2.2
		c2.8,1.1,5.7,2.2,8.5,3.3c3,1.2,5.9,2.5,8.9,3.7c3.1,1.2,6.3,2.3,9.4,3.4c4.3,1.5,8.6,2.9,12.9,4.4c2.7,0.9,5.4,1.8,8.1,2.6
		c0.5,0.1,1,0.2,1.4,0.1c3.8-0.9,7.6-1.9,11.4-2.9c3-0.8,5.9-1.9,8.9-2.8c2-0.6,4-1.1,6-1.7c1.8-0.5,3.6-1.1,5.4-1.7
		c0.3-0.1,0.6-0.2,0.9-0.3C126.8,154.4,129.1,153.6,131.2,152.7c-0.3-0.1-0.6-0.2-1-0.2c-1.2,0.2-2.5,0.5-3.7,0.9
		c-1.9,0.5-3.9,1.1-5.8,1.7s-3.9,1.1-5.8,1.7c-2.5,0.6-5,1.4-7.4,2.3c-1.9,0.7-3.9,1.3-6,1.7c-2.4,0.6-5,1-7.3,1.9
		c-1,0.4-2.1,0.6-3.2,0.4v-1.2c0.5-0.1,0.9-0.2,1.3-0.3c2.8-0.8,5.6-1.6,8.4-2.4s5.6-1.6,8.4-2.3c1.6-0.4,3.3-0.8,4.9-1.3
		c1-0.4,2-0.7,3.1-1c3.5-0.7,7-1.7,10.3-3.1c2.4-0.9,4.8-1.5,7.2-2.2c0.2,0,0.4,0,0.6,0.1c0.1,0.4,0.2,0.8,0.4,1.4
		c-0.5,0.1-1,0.3-1.5,0.5C133.1,151.6,131.7,151.4,131.2,152.7z M53.3,139.5c0.2,0,0.4,0,0.6,0.1c3.4,1.3,6.8,2.6,10.3,3.9
		c0.5,0.2,1.1,0.4,1.6,0.6c3.2,0.9,6.3,2.1,9.2,3.5c0.8,0.4,1.6,0.7,2.5,1c3,0.9,5.9,1.8,8.9,2.7c0.8,0.3,1.7,0.6,2.5,0.9
		c0.3,0.1,0.5,0.5,1,1c-0.5,0-1-0.1-1.5-0.2c-1.4-0.4-2.9-0.9-4.3-1.4c-2.7-1-5.5-2-8.2-3c-3.2-1.2-6.4-2.4-9.6-3.7
		c-2.3-0.8-4.6-1.7-6.8-2.7c-1.6-0.8-3.4-1.3-5.1-2.1C53.9,140.1,53.6,139.8,53.3,139.5c-1.6,0-2.1-0.2-2.9-1.4L53.3,139.5z
		 M58.7,63.1c-0.7,2.6-1.4,4.9-2.1,7.2c-0.3,1-0.6,1.1-1.8,1c-0.4-0.1-0.9-0.1-1.3-0.1c-1.9,0.5-3.9,0.7-5.8,0.6
		c-1.8,0-3.4,0.8-5.2,1.2c-2.1,0.4-4.3,0.7-6.3,1.3c-4,1.1-7.9,2.5-11.8,3.6c-3.8,1-7.6,2.5-11.1,4.4c-2,1.1-4.2,2-6.4,3
		c-0.2-0.4-0.4-0.7-0.5-1.1c-0.4-1.6-0.7-3.2-1.1-4.8c-0.8-3-1.2-6.1-1.2-9.2c-0.1-4.4,0.3-8.9,1.2-13.2c0.5-2.7,1.3-5.3,2.4-7.8
		c0.2-0.5,0.5-0.9,0.8-1.5c1.3,0.7,2.4,1.3,3.5,1.9c2.7,1.5,5.5,2.9,8.3,4.1c3.5,1.4,7,2.6,10.6,3.5c2.3,0.5,4.5,1.3,6.8,1.8
		c2.5,0.6,5.1,1.1,7.6,1.6c3.2,0.6,6.3,1.2,9.5,1.8C56,62.5,57.2,62.8,58.7,63.1L58.7,63.1z M21,18c0.5,0.8,1,1.5,1.4,2.3
		c1.8,3,3.8,5.8,6.1,8.5c2.9,3.5,6.2,6.7,9.7,9.6c2.8,2.3,5.7,4.4,8.6,6.5c2,1.5,4.1,2.7,6.1,4.2c1.7,1.2,3.4,2.5,5.1,3.7
		c0.8,0.4,1.3,1.3,1.2,2.2c-0.1,2-0.2,3.9-0.3,5.9c-0.1,0.4-0.2,0.7-0.5,1c-3.8-0.7-7.4-1.3-11.1-1.9c-2.7-0.5-5.5-1.1-8.2-1.7
		c-2.3-0.5-4.5-1.1-6.8-1.7c-1.8-0.4-3.6-0.9-5.3-1.5c-3.8-1.5-7.6-3-11.4-4.7c-1.9-0.8-3.7-2-5.5-3c-0.7-0.3-1.1-0.9-1.1-1.6
		c0-1.6,0.1-3.3,0.3-4.9c0.4-2.6,1-5.1,1.9-7.5c1.1-3.8,2.8-7.3,5.1-10.5C17.6,20.8,19.2,19.2,21,18L21,18z M41.5,5.2
		c-0.3,4.1-0.1,8.2,0.8,12.2c0.8,4,1.8,8,4.2,11.5c0.7-0.9,0.7-0.9,0.4-1.5c-1.9-3.9-3.2-8.2-3.7-12.5c-0.2-1.6-0.5-3.3-0.5-4.9
		c-0.2-1.4-0.1-2.8,0.3-4.2c0.8-0.2,1.5-0.3,2.2-0.5c1.9-0.4,3.8-0.3,5.6,0.4c2.4,0.8,4.5,2.3,6.1,4.3c0.4,0.5,0.8,1,1.3,1.4
		c1.3,1.4,1.3,1.6,0.4,3.3c-1.4,2.6-2.2,5.6-2.3,8.5c0,1.7,0.1,3.4,0.2,5.1c0.2,3.7,0.8,7.4,1.8,11c0.1,0.6,0.2,1.2,0.2,1.8
		c-2.1-1.7-4-3.5-5.7-5.5c-1.8-2-3.3-4.2-4.7-6.5c-0.8,0.8-0.6,1.3-0.1,2c1.9,2.9,4.1,5.6,6.6,8.1c1.3,1.3,2.5,2.7,3.8,4
		c0.5,0.5,0.9,1.1,0.9,1.8c0.2,1.9,0.4,3.8,0.5,5.7c0,0.5-0.1,0.9-0.2,1.4c-0.6-0.4-1.1-0.7-1.5-1c-2.4-1.7-4.8-3.3-7.2-5
		c-3.1-2.2-6.2-4.4-9.2-6.7c-4.2-3.2-8.1-6.7-11.5-10.7c-2.9-3.4-5.5-7.1-7.8-10.9c0.3-0.6,0.6-1.2,1-1.8c0.7-0.8,1.2-1.6,1.7-2.5
		c0.9-1.9,2.1-3.6,3.6-5.1c2.2-2.8,5.6-4.5,9.3-4.5C39.1,3.8,40.4,4.3,41.5,5.2L41.5,5.2z M21.1,111.8c-2.1,0.2-2.6,0.1-4.2-1.3
		c-0.9-0.8-1.9-1.6-2.8-2.6c-1.1-1.1-2-2.2-2.8-3.5c-2.1-3.8-3.5-7.9-4.1-12.1c-0.3-1.9-0.6-3.9,0.1-5.8c1.8-1.3,3.8-2.3,5.9-3
		c0.6-0.2,1.2-0.5,1.7-0.8c2.9-1.4,5.9-2.6,9-3.5c3.6-1.2,7.3-2.2,10.9-3.2c1.1-0.4,2.3-0.7,3.5-0.9c1.4-0.2,2.7-0.5,4.1-0.9
		c2.3-0.5,4.5-1.4,6.9-1.3c1.5,0.1,2.9-0.1,4.3-0.5c0.8-0.2,1.6,0,2.3,0.4c-0.8,1.8-1.5,3.5-2.2,5.2c-0.5,1.1-1,2-2.4,2.1
		c-0.3,0-0.7,0.3-1,0.5c-2.8,1.5-5.6,3.2-8.2,5.1c-3.6,2.5-6.7,5.6-9.4,9c-2.8,3.5-5.3,7.1-7.8,10.8
		C23.4,107.4,22.4,109.5,21.1,111.8L21.1,111.8z M117.8,93.2c-0.9,0.4-1.9,0.4-2.8,0c-1.7-0.4-3.4-1-5-1.8c-2-0.9-4.1-1.6-6.1-2.4
		c-0.5-0.2-1-0.6-1.3-1c-1.1-1.8-3.3-2.5-5.3-1.8c-0.6,0.3-1.4,0.3-2,0.1c-1.1-0.4-2.3-0.4-3.3,0c-0.8,0.4-1.8,0.3-2.6-0.2
		c-1-0.7-2.1-0.7-3.2-1.1c-2.3-0.8-4.1-0.1-6,1.1c-1.8,1-3,2.8-3.2,4.9c-0.4,3.2,0.4,6,2.9,8.1v2.5c-0.3,0-0.7,0.1-1.1,0.2
		c-2.6,0.4-5.2,0.8-7.9,1.2c-0.8,0.1-1.5,0.5-2.3,0.7c-3.1,0.7-6.1,1.4-9.2,2.1c-0.5,0.1-1,0.2-1.5,0.3c-1.7,0.3-3.5,0.6-5.2,0.9
		c-0.3,0-0.6,0-0.9,0c0.1-0.2,0.1-0.4,0.2-0.5c3.2-2.1,5.9-4.7,8.1-7.9c2.1-3.1,4.2-6.2,5.2-9.9c0.2-0.9,0.9-1.7,1.8-2
		c3.4-1.3,6.9-2.4,10.4-3.5c4.1-1.2,8.3-1.9,12.5-2.2c4.3-0.3,8.5-1.3,12.8-1c0.8,0,1.5-0.1,2.3-0.3c1.2-0.3,2.4-0.4,3.6-0.5
		c3,0,5.9,0.2,8.9,0.4c0.6,0.1,1.2,0.3,1.7,0.6c-0.7,0.7-1.2,1.1-1.7,1.6c-1.3,1.2-1.8,3.1-1.3,4.9c0.1,0.5,0.2,1,0.3,1.5
		c0.3,1.2,0.6,2.3,0.9,3.5C117.4,92.2,117.6,92.7,117.8,93.2L117.8,93.2z M49.7,103.5c-0.3,0.4-0.5,0.6-0.6,0.9
		c-1.9,3.2-4.2,6.1-6.9,8.7c-0.4,0.3-0.5,0.9-0.9,1.2c-2.8,1.8-5.6,3.6-9.1,3.8c-1.5,0-3,0.4-4.4-0.6c-2.2-1.5-4.3-3-5.4-5.8
		c1-1.7,2-3.6,3.2-5.3c1.8-2.7,3.7-5.3,5.5-8c2.2-3.2,4.7-6.1,7.6-8.7c3.8-3.4,8-6.2,12.6-8.3c0.3-0.1,0.5-0.1,0.8-0.1
		c-1.1,3.7-2.4,7.2-2.6,10.9C49.1,96.1,48.8,99.8,49.7,103.5L49.7,103.5z M120.3,107.4l13.2,4.2c-0.9,0.3-1.4,0.6-1.9,0.7
		c-3.6,0.8-7.2,1.6-10.7,2.5c-4,1-8.1,1.9-12.1,3.1c-4.1,1.3-8.3,2.1-12.5,3.2c-3.1,0.8-6.3,0.7-9.3-0.2c-3.9-1.2-7.9-2.1-11.8-3.5
		c-2.5-0.9-5.1-1.3-7.7-2c-2.4-0.6-4.9-1.2-7.3-1.9c-2.9-0.9-5.8-1.8-8.7-2.8c-0.6-0.2-1.3-0.2-1.6-0.9c0.3-1.1,1-1.4,2.1-1.5
		c0.8-0.1,1.6-0.2,2.4-0.4c2.7-0.6,5.4-1.2,8.1-1.8c-0.8,2.6-0.2,4.5,1.7,5.4c1.7,0.8,3.4,1.4,5.1,2c3.5,1.1,7.1,1.9,10.7,2.4
		c1.5,0.2,3,0.4,4.5,0.5c3.5,0.2,7,0.4,10.4,0.5c0.9,0,1.8,0,2.6-0.1c2.3-0.4,4.6-0.8,6.9-1.2c1.9-0.3,3.8-0.6,5.6-1.1
		c2.9-0.8,5.8-1.8,8.6-2.8c0.4-0.1,0.7-0.2,1.1-0.3c0.7-0.3,1.2-0.7,1-1.6C120.6,108.9,120.4,108.1,120.3,107.4L120.3,107.4z
		 M60.2,14.1c1.1,0.2,1.1,1.2,1.5,1.8c1.7,2.5,3.2,5.2,4.2,8c0.4,1.1,0.5,2.3,0.9,3.5c1,2.9,1.5,5.9,1.5,8.9
		c-0.1,0.8-0.1,1.6-0.1,2.4c0.3,1.5-0.2,2.9-0.2,4.3c0,0.7-0.4,1.3-1.1,1.4c-1.3,0.4-2.7,0.8-3.9,1.3c-0.9,0.4-1.9,0.9-2.7,1.5
		c-0.1-1.4-0.1-2.7-0.4-3.9c-0.6-3.4-1.1-6.9-1.9-10.2c-0.7-3.5-0.9-7-0.8-10.6c0.2-2.4,0.8-4.8,1.8-6.9
		C59.4,14.9,59.8,14.5,60.2,14.1z M50.8,102.8c-0.2-1-0.4-2-0.4-3.1c0.1-3.2,0.1-6.5,0.4-9.6c0.5-3.6,1.5-7.1,3.2-10.3
		c0.6-1.2,1.1-2.5,1.7-3.8c0.7-1.3,0.9-2.9,1.8-4.1c0.2,0.1,0.4,0.2,0.6,0.3c1.5,1.1,2.9,2.2,4.4,3.3c0.5,0.3,0.7,0.9,0.6,1.5
		c-0.2,5.7-1.5,11.3-3.9,16.5c-0.9,2-2.2,3.8-3.9,5.3c-0.6,0.5-1.2,1.1-1.7,1.8C53,101.6,52,102.4,50.8,102.8L50.8,102.8z
		 M66.2,85.6c-0.1-0.3-0.1-0.7-0.1-1c0.7-2.4,1-4.8,1-7.3c0.2-1.9,1.7-3.4,3.6-3.6c1.6-0.2,3.3-0.4,4.9-0.7c1.7-0.3,3.4-0.5,5.1-0.4
		c2.2,0.1,4.4,0,6.6,0.1c2.1,0.1,4.1,0.2,6.3,0.3c0,0.4-0.1,0.7-0.2,1c-0.6,1.8-1.5,3.5-2.7,4.9c-0.5,0.7-1.2,1.1-2.1,1.2
		c-0.8,0.1-1.6,0.1-2.5,0.3c-3,0.6-6,1.1-8.9,1.8c-1.8,0.4-3.6,1-5.4,1.6c-1.6,0.5-3.1,1.2-4.6,1.7C66.9,85.5,66.6,85.6,66.2,85.6
		L66.2,85.6z M67.9,45.5c0.3,0.7,0.5,1.4,0.6,2.1c1,5.1,1.1,10.3,0.3,15.4c-0.8,4-2.5,7.7-5,10.9c-0.2,0.2-0.4,0.3-0.6,0.4
		c-0.4-0.1-0.8-0.3-1.2-0.6c-0.8-0.7-1.6-1.4-2.4-2.1c-1.1-0.9-1.7-1.9-1.1-3.3c0.2-0.5,0.3-1.1,0.4-1.6c1-3,1.5-6.1,1.6-9.3
		c0-1.3-0.2-2.7,0.6-3.9c0.1-0.2,0.1-0.4,0-0.5c-0.6-0.9-0.2-1.9-0.4-2.8c-0.2-1.2,0.5-2.5,1.6-2.9C64.1,46.5,66,45.8,67.9,45.5
		L67.9,45.5z M89.5,159.2c-0.4,0-0.8,0-1.2-0.1c-2.9-1-5.9-1.9-8.8-2.9c-2.3-0.8-4.6-1.6-7-2.4c-1.9-0.7-3.8-1.3-5.7-2
		c-2.9-1.1-5.8-2.3-8.6-3.4c-2.1-0.9-4.2-1.8-6.3-2.7s-4.3-1.6-6.4-2.4c-0.3-0.1-0.6-0.3-1.3-0.7c1.9-0.5,3.7-1.6,4.9-3.2
		c4.5,1.8,8.9,3.6,13.4,5.4c4.5,1.8,9.1,3.4,13.6,5.3c4.4,1.8,9.1,2.9,13.4,4.7L89.5,159.2z M73.5,57.6c0.4,0.2,0.7,0.3,1,0.4
		c1.5,0.5,2.5,1.8,4.1,2.3c2.7,1,5.3,2.3,8,3.3s5.4,2,8.2,3.1c0,1.6,0.4,3.1-0.7,4.7c-1.2,0.1-2.3,0.2-3.5,0.1
		c-1.2-0.2-2.5-0.3-3.7-0.2c-1,0.1-2-0.3-3-0.2c-3.9,0.2-7.8,0.2-11.7,1.2c-0.7,0.3-1.5,0.2-2.1-0.3C72.3,67.6,73,62.7,73.5,57.6
		L73.5,57.6z M91,155.9c1.5-0.4,2.9-0.8,4.4-1.2c3.6-1.1,7.3-2.1,10.9-3.2c2-0.6,4-1.2,6-1.8c5-1.6,10.1-2.9,15-4.8
		c0.5-0.2,1.1-0.3,1.6-0.4l4.6,3.9c-0.7,0.3-1.4,0.6-2.1,0.8c-1,0.1-2,0.3-2.9,0.6c-4.5,2-9.3,3.1-14.1,4.5
		c-2.9,0.8-5.9,1.5-8.8,2.4c-3.1,0.9-6.2,1.9-9.3,2.7c-1.7,0.5-3.3,1.2-5.3,0.8C90.7,158.7,90.7,157.3,91,155.9L91,155.9z M71.1,43
		c0.3,0.1,0.6,0.3,0.8,0.5c1.5,1.8,3.4,3,5.1,4.5c0.3,0.3,0.7,0.5,1.1,0.8c2.9,1.7,5.8,3.4,8.6,5.1c2.2,1.3,4.4,2.6,6.8,4
		c0.8,2.1,1.8,4.3,1,6.8C93.8,65,92.8,65,92,64.6c-2.5-1-5-2.1-7.6-3c-3.3-1.2-6.5-2.8-9.5-4.7c-1-0.5-1.6-1.5-1.5-2.6
		c-0.1-3-0.6-6-1.6-8.9C71.7,44.7,71.5,44,71.1,43L71.1,43z M117.7,105c-1.3-0.1-2.5-0.5-3.7-1c-1.9-0.6-3.8-1.4-5.8-1.4
		c-0.9-0.1-1.8-0.4-2.7-0.7c-0.5-0.1-0.9-0.4-1.4-0.6c-2.6-0.9-5.3-1.7-7.9-2.6c-0.6-0.2-1.2-0.3-1.8-0.2c-0.7,0.3-1.6,0.5-2.4,0.4
		c-0.8-0.1-1.5,0-2.3,0.2c1.3-0.7,2.2-2,2.3-3.5c0.3-1.5,0.9-2.9,0.7-4.4c-0.1-0.7,0.3-1.1,1-1c0.4,0.1,0.9,0.1,1.3,0.3
		c0.1,0.3,0.2,0.5,0.3,0.8c0.3,1.3,1.5,2.3,2.9,2.3c0.4,0.1,0.9,0.1,1.3,0.1c1-0.1,2,0.2,2.8,0.9c1,0.6,2,1,3.1,1.4
		c0.9,0.4,1.9,0.8,2.8,1.1c1.2,0.5,2.5,1,3.7,1.3c1.6,0.2,3.2,0.3,4.9,0.3c0.6,0,1.2,0.1,2.2,0.2C117.6,100.7,117.6,102.8,117.7,105
		L117.7,105z M42.8,143.7c1.1,0.2,2.2,0.5,3.2,0.9c3.2,1.3,6.4,2.6,9.7,3.9s6.4,2.7,9.6,4c2.6,1,5.4,1.8,8.1,2.8c2.9,1,5.8,2,8.8,3
		c2.4,0.8,4.9,1.6,7.5,2.4c-0.1,0.6-0.2,1.2-0.3,1.9c-0.7-0.2-1.1-0.3-1.6-0.4c-5.4-1.8-10.8-3.5-16.2-5.4c-3.2-1.1-6.5-2.2-9.6-3.4
		c-4.9-1.9-9.8-4-14.7-6c-1.3-0.5-2.6-1.1-3.8-1.7C42.3,145.2,42.4,145.2,42.8,143.7L42.8,143.7z M130.9,113.7l0.2,0.3
		c-0.4,0.2-0.7,0.5-1,0.8c-1.1,1.2-2.6,2.1-4.2,2.4c-2.1,0.5-4.1,1.1-6.2,1.6c-1.8,0.4-3.6,0.8-5.3,1.2c-2.6,0.6-5.2,1.2-7.7,1.9
		c-2.7,0.7-5.4,1.4-8.1,2.1c-1.7,0.4-3.4,0.8-5.2,1.2c-0.7,0.2-1.4,0.3-2.2,0.1c-0.1-1.9,0-2.1,1.7-2.3c0.1,0,0.3,0,0.4,0
		c2.1-0.4,4.1-0.7,6.1-1.2c2.1-0.5,4.3-1.1,6.4-1.7c0.9-0.2,1.8-0.5,2.8-0.7c2.6-0.7,5.1-1.5,7.7-2.2c3.5-0.9,7-1.6,10.5-2.4
		C128.1,114.3,129.5,114,130.9,113.7L130.9,113.7z M89.6,124.6c-0.4,0-0.9-0.1-1.3-0.2c-1.8-0.5-3.7-0.9-5.5-1.4
		c-1.7-0.4-3.5-0.7-5.2-1.2c-4.4-1.3-8.8-2.7-13.2-4.1c-3.4-1-6.9-2.1-10.4-3c-1.7-0.6-3.3-1.5-4.7-2.6c-0.4-0.4-0.7-0.8-1-1.3
		c4.9,1.5,9.4,2.9,13.9,4.2c4.6,1.3,9.3,2.4,13.8,3.9c4.5,1.5,9.1,2.4,13.7,3.9c0,0.3,0,0.6,0,0.8S89.7,124.1,89.6,124.6L89.6,124.6
		z M130.3,83.4c0.3,3.6,0,6.8-1.7,9.7c-0.7,1.3-1.5,2.5-2.3,3.7c-0.4,0.7-0.8,1.3-1.3,1.9c-1.8,1.9-2.7,4.4-2.4,7
		c0,0.4,0,0.8-0.1,1.2c-1.2-0.4-2.2-0.6-3.2-1.1c-0.4-0.2-0.6-0.6-0.6-1c-0.3-1.6-0.1-3.3,0.7-4.8c0.7-1.3,1.3-2.7,2.9-3.4
		c0.4-0.2,0.7-0.5,0.9-0.9c0.5-0.6,1-1.3,1.5-1.9c1.2-1.3,2-2.9,2.3-4.7c0.1-1,0.1-2.1,0.2-3.2L130.3,83.4z M5.5,85.7
		c-0.3,0.3-0.6,0.5-1.1,0.9c-0.7-2-1.4-4-1.9-6.1C2,78,1.9,75.4,1.6,72.8c-0.4-3.4-1-6.8-0.3-10.2c0-0.3,0-0.5,0-0.8
		c-0.2-1.6,0-3.2,0.5-4.8c0.8-2.1,1.3-4.3,2.1-6.5c0.6-1.6,1.5-3.2,2.5-4.6C7.1,46.5,7.5,47,7,47.8c-1.9,3.6-2.5,7.5-3.3,11.4
		c-0.4,2.5-0.7,5-0.8,7.5c-0.2,3,0,6.1,0.5,9.1C3.9,79.1,4.7,82.3,5.5,85.7L5.5,85.7z M7.8,45.3c-0.8-0.3-1.3-1.1-1.2-2
		c-0.2-3.2,0.2-6.5,0.9-9.6c0.6-2.9,1.8-5.7,3.4-8.2c1.6-2.3,3.2-4.6,4.9-6.8c1.1-1.2,2.2-2.2,3.5-3.2c0.1-0.1,0.3-0.1,0.7-0.1
		c0.2,0.5,0.3,1.1,0.4,1.5c-2.5,2.3-4.6,4.8-6.4,7.6c-0.4,0.6-0.8,1.3-1.1,2c-0.9,2.3-1.8,4.7-2.6,7.1c-1.1,2.8-1.7,5.8-1.9,8.8
		C8.1,43.4,8,44.4,7.8,45.3L7.8,45.3z M122.3,95.2c-1.3,1-2.5,2-3.9,2.1c-2.6,0.1-5.3,0.3-7.9-0.8c-1.5-0.7-3-1.3-4.6-1.8
		c-1.7-0.5-3.1-1.6-4.7-2.4c-0.9-0.4-1-1-0.5-1.9c0.5-0.9,0.9-0.9,1.9-0.6c3.8,1.4,7.4,3.2,11.3,4.3c1.4,0.4,2.9,0.5,4.3,0.3
		c0.5-0.1,1.1-0.1,1.6,0C120.5,94.7,121.3,94.9,122.3,95.2L122.3,95.2z M84.5,97c0.9-0.3,1.7-0.5,2.5-0.7c1.8-0.4,3.1-2.1,2.8-3.9
		c-0.1-1.8-1.1-3.4-2.7-4.3c-1.7-1-3.8-0.9-5.3,0.4c-0.5,0.4-1,0.8-1.4,1.3c-0.4,0.6-0.6,1.2-0.7,1.9c-0.1,1.2,0.2,2.4,0.9,3.4
		c0.8,1,0.7,1.3-0.6,2.4c-1.8-1.9-2.5-4.5-1.8-7c0.1-1,0.6-2,1.4-2.6c1.9-1.2,3.8-2.8,6.4-1.7c0.2,0,0.4,0.1,0.6,0.1
		c2.1,0.6,3.8,1.6,4.4,3.9c0.5,2,0.3,4.2-0.6,6.1c-0.2,0.5-0.6,0.8-1,1.1c-0.9,0.5-1.8,1-2.7,1.4c-0.8,0.3-1.7,0.3-2.4,0
		C84.3,98.2,84.4,97.7,84.5,97L84.5,97z M90.9,151.4v-24.1c0.6-0.5,1.5-0.7,2.3-0.6c0,4,0,8,0,12.1c0.2,4.1,0.1,8.2-0.2,12.3
		L90.9,151.4z M5.5,87.4C5.8,88.7,5.9,90,6,91.3c0.3,4.4,1.6,8.6,3.7,12.4c0.4,0.8,0.9,1.6,1.4,2.4c1.2,1.9,3,3.3,4.6,4.7
		c1.1,1.2,2.6,1.9,4.1,2.1c0.2,0,0.3,0.2,0.6,0.3c-0.1,0.5-0.2,0.9-0.4,1.5c-2.3-0.6-4.5-1.7-6.3-3.2c-2.4-2.1-4.4-4.6-5.9-7.4
		c-1-1.6-1.7-3.4-2.3-5.2c-0.8-2.3-1.3-4.8-1.3-7.3c0-0.9,0-1.8,0-2.7C4.1,88,4.1,88,5.5,87.4L5.5,87.4z M128.1,143.2
		c-0.3,0.2-0.6,0.4-0.9,0.5c-2.9,1-5.7,2-8.6,3c-3.1,1-6.3,1.8-9.4,2.8c-1.6,0.5-3.2,1.2-4.9,1.5c-1.9,0.4-3.8,1-5.6,1.6
		c-2.3,0.7-4.6,1.3-7,1.9c-0.2,0-0.5,0-0.7,0c-0.2-1.8-0.2-1.8,1.1-2.1c1.1-0.3,2.2-0.6,3.3-0.8c4.4-0.8,8.7-2.1,13.1-3.3
		c2.1-0.6,4.2-1.1,6.2-1.7c1.5-0.4,3-0.8,4.5-1.3c2.6-0.8,5.1-1.7,7.7-2.5C127.4,142.6,127.9,142.5,128.1,143.2L128.1,143.2z
		 M64.8,75c0.5-0.8,0.9-1.6,1.4-2.4c0.9-1.4,1.7-2.8,2.4-4.3c1.4-3.6,2.1-7.4,2.1-11.3c-0.1-2.5-0.2-5-0.6-7.5
		c-0.1-1.3-0.3-2.5-0.5-3.8c-0.1-0.5,0-0.9,0.8-0.9c0.3,1.1,0.5,2.2,0.9,3.2c0.7,2.4,1.1,4.9,1,7.5c0.1,3.3-0.3,6.6-1.2,9.7
		c-0.2,0.9-0.4,1.8-0.7,2.7c-0.9,2-1.9,3.9-2.9,5.8c-0.3,0.5-0.7,1-1.2,1.4C65.8,75.6,65.4,75.6,64.8,75z M21.5,16.1
		c-0.6-0.7-0.7-1.2-0.3-1.9c1-1.4,1.9-3,2.7-4.5c1.3-2.9,3.7-4.8,6-6.7c0.8-0.7,1.7-1.1,2.7-1.3C34.4,1.3,36.2,1.1,38,1
		c1.3-0.1,2.5,0.3,3.5,1.1c0,0.3-0.1,0.5-0.1,0.8c-0.1,0.2-0.1,0.3-0.2,0.4c-0.1,0-0.2,0.1-0.2,0.1c-0.2,0-0.5-0.1-0.7-0.2
		c-2.9-1-6-0.6-8.6,1c-3.1,2-5.7,4.7-7.4,8C23.5,13.6,22.6,15,21.5,16.1L21.5,16.1z M51.2,105.1c0.1-0.5,0-0.9,0.1-1
		c2.2-1.3,3.5-3.4,5.3-5.1c0.6-0.5,1.1-1,1.6-1.6c1.8-2.6,3.2-5.5,4.1-8.5c1.3-3.8,1.9-7.8,2-11.9c0.1-0.2,0.1-0.4,0.3-0.6l1.4,0.1
		c0,4.5-0.8,8.9-2.4,13.1c-0.3,1.3-0.8,2.5-1.5,3.7c-1.8,2.8-3.7,5.4-5.6,8.1c-0.3,0.3-0.6,0.7-1,0.9c-1,0.8-2.1,1.6-3.2,2.4
		C52,104.8,51.6,105,51.2,105.1z M60.4,12.1l0.3-0.2c0.2,0,0.4,0,0.5,0.1c0.9,0.4,1.6,1.1,2.1,1.8c1.1,1.5,2.1,3.1,3.1,4.7
		c1,2.4,1.9,4.8,2.6,7.3c1.7,5.5,2,11.4,1,17.1c0,0.2-0.3,0.5-0.5,0.7c0.2-5.7,0.1-11.2-1.4-16.7C66.6,21.5,64,16.5,60.4,12.1
		L60.4,12.1z M52.1,137.4c-1.3-0.5-1.3-0.6-1.3-1.6c0-2.3,0.1-4.7,0.1-7c0.1-4,0.2-8.1,0.3-12.1c0-0.4,0.1-0.9,0.2-1.3
		c0.8-0.2,1.3,0,1.6,0.4c-0.1,1.6-0.1,3-0.2,4.3c-0.1,2.3-0.2,4.5-0.3,6.8C52.4,130.3,52.7,133.7,52.1,137.4L52.1,137.4z
		 M49.7,106.2l0.3,0.3c-0.1,0.2-0.2,0.5-0.3,0.7c-1.6,2.7-3.5,5.2-5.9,7.4c-1.3,1.3-2.7,2.4-4.3,3.3c-2.9,1.6-6.2,2.5-9.6,2.5
		c-1.1,0.1-2.2-0.1-3.1-0.7c-1.3-1-2.7-1.9-4-2.9c-0.5-0.5-0.9-1-1.2-1.7c-0.1-0.2,0.2-0.6,0.2-0.5c1.1,0.9,2.2,1.7,3.2,2.6
		c1.3,1.2,3,2,4.8,2.1c2.3,0.2,4.7-0.2,6.9-1c0.8-0.3,1.4-0.8,2.2-1.1c1.8-0.6,3.3-1.8,4.4-3.4c0.4-0.6,0.9-1.1,1.4-1.6
		c1.6-1.5,3-3.2,4.2-5.1C49.1,106.7,49.4,106.5,49.7,106.2L49.7,106.2z M42.5,2.9c0.5-0.2,1-0.4,1.5-0.5c3,0,6-0.2,8.9,1.1
		c2.5,1.1,4.6,3,5.9,5.4c0.5,0.7,0.7,1.6,0.5,2.4c-1.1-1.2-2-2.2-2.9-3.2c-1.7-1.8-3.9-3.1-6.3-3.7c-2-0.6-4.2-0.6-6.2,0
		c-0.4,0.1-0.8,0.1-1.2,0.2C42.7,4,42.7,3.5,42.5,2.9z M124.4,142.2l-0.5-0.2c0-2.8,0-5.5,0-8.3c0-4.2,0.1-8.4,0.2-12.5
		c0-0.6,0.1-1.3,0.2-1.9c0.1-0.6,0.5-0.7,1.2-0.5c0.1,1.1,0,2.2,0,3.3c-0.3,4.1-0.4,8.2-0.3,12.3c0.2,2.3,0.1,4.6-0.3,6.9
		C124.9,141.7,124.6,142,124.4,142.2L124.4,142.2z M82.9,149l-0.4-0.1c-0.1-4-0.1-8.1-0.2-12.1c0-2.3-0.1-4.5-0.1-6.8
		c-0.1-1.8,0-3.6,0.4-5.4c0.6-0.2,1-0.1,1.1,0.4c0.1,0.7,0.1,1.4,0.1,2.1c-0.1,3.7-0.6,7.4-0.1,11.1c0,0.2,0,0.4-0.1,0.6
		c-0.1,1.3-0.2,2.6-0.2,4c-0.1,1.8-0.1,3.6-0.2,5.3C83.2,148.4,83,148.7,82.9,149L82.9,149z M117.1,84c1.4-1.7,2.6-3.1,4.9-3.1
		c1.3,0,2.6,0.8,3.2,2c0.4,0.7,0.1,1.6-0.6,1.9c0,0,0,0,0,0c-0.9,0.6-2,0.8-3.1,0.6C119.9,85.5,118.3,85,117.1,84L117.1,84z
		 M129.6,80c-2.3-3.8-4.8-7.5-9-9.7c0.3-0.8-0.3-1.5,0.2-2.5c1.7,1,3.3,2.2,4.9,3.4C128.2,73.5,130,76.2,129.6,80L129.6,80z
		 M79.8,104.5c1.8,0.1,1.1-1.8,2.2-2.1c1.4,1.1,2.5,2.6,3.2,4.2c-1.2,0.4-2.3,0.9-3.6,0.4c-2-0.8-4-1.5-6-2.4
		c-0.5-0.2-1.1-0.3-1.1-1.2c0.9-0.1,1.8-0.3,2.8-0.4s1.9-0.2,2.9-0.2C80,103.3,79.9,103.9,79.8,104.5L79.8,104.5z M126.4,141.6
		c0-1.4,0-2.7,0-3.9c-0.2-6-0.1-12,0.2-18c0-0.4,0.1-0.8,0.2-1.1c0-0.4,0.4-0.6,0.8-0.6c0.1,0,0.1,0,0.2,0.1
		c-0.1,1.9-0.2,3.7-0.2,5.5c0,4.2,0,8.5,0,12.7c0,1.4,0,2.8,0,4.1C127.5,141,127.4,141.5,126.4,141.6L126.4,141.6z M87.1,150.1
		l-0.3-0.1c0-2.5,0-5.1,0-7.6c0-0.5,0.1-1,0-1.5c-0.1-2.9-0.2-5.8-0.3-8.7c0-1.8,0.1-3.5,0.2-5.3c0-0.5,0-1.1,0.6-1.4
		c0.2,0.2,0.3,0.3,0.3,0.3c0.2,7.5-0.1,15-0.2,22.5c0,0.3,0,0.5-0.1,0.8C87.3,149.4,87.2,149.8,87.1,150.1L87.1,150.1z M99.4,108.5
		c-2,0.6-4,0.8-6.1,0.8c-1.3-0.1-2.6-0.1-3.9,0c-1.2,0.2-2.5,0.2-3.7-0.1c-0.8-0.1-1.5-0.5-1.9-1.1c2.1-0.2,3.9-0.4,5.8-0.6
		c0.2,0,0.5,0.1,0.6,0.3c0.5,0.6,1.2,0.6,1.8,0.7c1.1-1.1,1.1-1.1,2.3-1.2c1.5-0.1,3,0.1,4.4,0.6C99,108.1,99.2,108.3,99.4,108.5
		L99.4,108.5z M117.7,88.2c2.6,1.1,5.6,1,8.2-0.3c0.1,2.6-0.6,3.4-2.8,3.8c-1.2,0.2-2.4,0.1-3.5-0.4
		C117.8,90.6,117.8,90.5,117.7,88.2L117.7,88.2z M85.2,125.2c0.8,1.5,0.5,24-0.1,24.5l-0.7-0.3c0-1,0-2,0-2.9
		c-0.1-3.7,0.5-7.4,0.2-11.2c-0.1-2.5,0-4.9,0.3-7.4C84.9,127,85.1,126.1,85.2,125.2L85.2,125.2z M54.1,116.3l0.4,0
		c0.1,0.2,0.2,0.5,0.3,0.8c0,2.8-0.1,5.5-0.2,8.3c0,1.8-0.2,3.5-0.1,5.3c0.2,2.6,0.1,5.2-0.4,7.8c-0.7,0-0.7-0.5-0.7-0.9
		c0-2.1,0-4.3,0.1-6.4c0.1-4.5,0.2-9.1,0.4-13.6C54,117,54,116.6,54.1,116.3L54.1,116.3z M94.6,126l0.4-0.1c0.1,0.2,0.4,0.4,0.4,0.7
		c0,1.4,0.1,2.9,0,4.3c0,1.6-0.2,3.1-0.2,4.7c0,4.3,0.2,8.6-0.1,12.9c-0.1,0.7-0.2,1.3-0.4,1.9l-0.4,0C94.5,142.2,94,134.1,94.6,126
		L94.6,126z M89.5,126.3c0.4,7.1,0,14.1,0.1,21.2c0,1.2-0.1,2.3-0.2,3.8c-0.4-0.4-0.8-0.6-0.8-0.8c-0.1-1.1-0.2-2.1-0.2-3.2
		c0.1-2.9,0.4-5.8,0.5-8.7c0.1-2.8,0-5.7-0.1-8.5C88.7,128.8,89,127.5,89.5,126.3L89.5,126.3z M92,79.6c0.1-0.3,0.2-0.6,0.3-0.8
		c0.6-1.2,1.4-2.3,1.9-3.5c0.9-1.8,1.5-3.8,1.8-5.8c0.1-1.3,0.2-2.6,0.2-4c0-2,0.3-3.9-0.6-5.8c-0.1-0.2,0-0.5,0.1-0.8
		c0.5,0.2,0.8,0.7,0.9,1.2c0.9,4.3,0.8,8.7-0.5,12.9c-0.6,1.8-1.4,3.5-2.2,5.2C93.5,79,92.8,79.5,92,79.6L92,79.6z M111.6,112.5
		c-0.9,0.3-1.4,0.5-1.9,0.7c-1.2,0.6-2.7,0.5-3.8-0.3c-1.8-1.1-3.6-2-5.4-3.1c-0.1,0-0.1-0.2-0.2-0.4c0.7-0.3,1.5-0.3,2.2-0.1
		c2.7,1,5.5,1.9,8.3,2.6C111,112,111.1,112.2,111.6,112.5L111.6,112.5z M121,72.4c2.5,1.7,4.5,3.9,6,6.5c0.4,0.7,1.2,1.4,0.7,2.6
		c-1-1.3-2.1-2.6-3.3-3.7c-1.3-1-2.7-1.9-4.2-2.8C120.6,74.2,120.7,73.4,121,72.4L121,72.4z M57.5,139.6c0.1-7.2-0.6-14.4,0.5-21.6
		C58.5,125.2,58.4,132.4,57.5,139.6L57.5,139.6z M101.1,88.3c-0.5,0.4-1,0.9-1.4,1.4c-0.3,0.6-0.6,1.2-0.8,1.8
		c-0.2,0.5-0.7,0.8-1.2,0.6c-0.1,0-0.3-0.1-0.4-0.2c-1.1-0.8-1.4-2.3-0.8-3.5C97.5,86.8,99.3,86.7,101.1,88.3L101.1,88.3z
		 M121.3,119.7c0,7.4,0.5,14.7-0.1,22.4c-0.2-0.5-0.4-0.7-0.4-0.8c0.3-2.2,0.3-4.5-0.1-6.7c-0.1-0.3-0.1-0.6-0.1-0.9
		c0.1-4.2,0.2-8.5,0.4-12.7C121,120.5,121.1,120.1,121.3,119.7L121.3,119.7z M82.6,95.3c0.4-1.7,0.7-3.4,1.1-5
		c0-0.2,0.1-0.4,0.2-0.5c0.6-1.3,1.2-1.4,2.3-0.3c-0.5,1.5-1,3-1.5,4.5c-0.2,0.5-0.4,0.9-0.7,1.3C83.6,95.8,83.1,95.6,82.6,95.3
		L82.6,95.3z M125.2,80.5c-0.3,0-0.6-0.1-0.9-0.2c-0.8-0.5-1.8-0.7-2.7-0.5c-1.1,0.1-2.2-0.3-2.9-1.3c0.6-0.6,0.7-1.6,1.6-2
		C122.1,77.7,124.1,78.4,125.2,80.5L125.2,80.5z M55.9,137.5c-0.1-0.3-0.1-0.6-0.2-0.8c0-3.7,0-7.4,0-11.1c0-2.7,0.1-5.3,0.1-8
		c0.1-0.4,0.2-0.7,0.4-1c0.2,0.4,0.4,0.5,0.4,0.7C56,124,56.4,130.7,55.9,137.5L55.9,137.5z M118.5,67.3c0.3,0.1,0.5,0.2,0.5,0.2
		c1,3.1,0.8,6.4-0.5,9.4c-0.3,0.7-0.9,1.3-1.7,1.3C118.4,74.8,119,71,118.5,67.3L118.5,67.3z M86.2,95.3c-0.4-0.8-0.3-1.8,0.1-2.6
		c0.4-0.8,0.2-1.9,1.1-2.4C89.2,92.5,88.8,94.4,86.2,95.3L86.2,95.3z M117.1,85.7c1.5,0.4,3.1,0.7,4.6,0.9c1.5,0.3,2.7-0.9,4.2-0.7
		C123.9,88.5,119.5,88.5,117.1,85.7L117.1,85.7z M96.6,137.2c0.7,1.4,0.4,2.8,0.5,4.3s0.1,2.9,0.1,4.3c0,3.3,0,3.3-0.7,4.5
		C96,145.7,96.9,141.4,96.6,137.2L96.6,137.2z M98.4,100.9l0,0.3c-2.7-0.1-5.5-0.2-8.2-0.4c0,0-0.1-0.1-0.1-0.1s0-0.1,0-0.2
		c0.8-0.2,1.6-0.5,2.4-0.6c0.6-0.2,1.2-0.2,1.9-0.1C95.7,100,97,100.5,98.4,100.9L98.4,100.9z M95,89.1l-3.1-0.2l-0.3-1.2
		c1.2-0.5,2.6-0.6,3.9-0.1C95.3,88.1,95.2,88.5,95,89.1L95,89.1z M81.8,100.8c-0.3-0.4-0.7-0.7-0.7-0.9c0.1-0.8,0.3-1.6,0.5-2.4
		c0.2-0.9,0.8-0.9,1.4-0.4C83,98.4,82.6,99.7,81.8,100.8L81.8,100.8z M98.4,139.6c-0.3-1.3-0.1-2.7-0.3-4c-0.3-1.4-0.3-2.9,0.1-4.3
		C98.7,134,98.7,136.8,98.4,139.6L98.4,139.6z M82.5,89.6c0.1,1.4-0.2,2.8-0.9,4C80.5,91.7,80.7,90.7,82.5,89.6L82.5,89.6z
		 M124.3,92.7c-1.9,1.5-3.6,1.4-4.6,0H124.3z M122.9,125.6l-0.2-0.1v-3.4h0.2V125.6z M126.4,83.1l0.4-0.3c0.2,0.4,0.4,0.8,0.6,1.3
		c-0.1,0.1-0.3,0.2-0.4,0.3L126.4,83.1z M96.8,127.6h0.1v1.5l-0.1,0V127.6z M98.6,142.3l-0.3,0v-1.2l0.2,0
		C98.5,141.5,98.6,141.9,98.6,142.3L98.6,142.3z M98.2,128.8l0.3,0c0,0.4-0.1,0.7-0.1,1.1l-0.2,0L98.2,128.8z M96.6,132.5l-0.3-0.1
		l0.4-0.9l0.3,0.1L96.6,132.5z"/>
</g>
</svg>
