<?xml version="1.0" encoding="utf-8"?>
<!-- Generator: Adobe Illustrator 27.5.0, SVG Export Plug-In . SVG Version: 6.00 Build 0)  -->
<svg version="1.1" id="グループ_3" xmlns="http://www.w3.org/2000/svg" xmlns:xlink="http://www.w3.org/1999/xlink" x="0px"
	 y="0px" viewBox="0 0 384.3 272.1" style="enable-background:new 0 0 384.3 272.1;" xml:space="preserve">
<style type="text/css">
	.st0{clip-path:url(#SVGID_00000136385244198757395000000001424629558054536351_);}
	.st1{fill:#2C3E50;}
</style>
<g>
	<defs>
		<rect id="SVGID_1_" width="384.3" height="272.1"/>
	</defs>
	<clipPath id="SVGID_00000126313589677860200000000010974564764568654495_">
		<use xlink:href="#SVGID_1_"  style="overflow:visible;"/>
	</clipPath>
	
		<g id="グループ_2" transform="translate(0 0)" style="clip-path:url(#SVGID_00000126313589677860200000000010974564764568654495_);">
		<path id="パス_83" class="st1" d="M351.7,28c3.5,0,6.4,0,9.4,0c5.3,0,10.6,0.4,15.5,2.6c4.1,1.9,7.5,4.9,7.7,9.7
			c0.3,3.6-0.3,7.3-1.8,10.6c-2.5,4.9-5,9.8-7.5,14.8c-0.2,0.4-0.6,0.7-0.7,1c-0.7,5.2-4.3,8.9-7,13.1c-3.6,5.8-7.6,11.4-11.9,16.8
			c-4.5,5.5-7.5,11.9-12,17.3c-2,2.4-4,4.7-6,7.1c-5.8,7.3-11.5,14.7-17.4,21.8c-2.5,3.3-5.4,6.3-8.7,8.9c-3.9,2.9-8.3,3.8-12.8,4.4
			c-4.2,0.6-7.9-1.3-11.6-2.8c-4-1.6-8.1-3.1-12.1-4.6c-0.4-0.1-0.9,0.1-1.2,0c-6.5-3.5-13.9-5-20.3-8.9c-2.4-1.5-4.5-3.5-6-5.9
			c-0.8-1.3-1.5-2.5-2.2-3.7c-2.2-6.6,0.3-12.1,3.6-17.3c1.6-2.2,3.4-4.2,5.4-6c5.7-5.6,11.6-11,17.2-16.6c2.8-2.6,5.8-4.9,9-6.9
			c1.8-1.2,3.6-2.4,5.5-3.6c4.3-6.4,9.1-12.7,15.5-17.3c1.9-1.4,3.7-2.7,5.5-4.1c1-0.8,2-1.6,3.4-2.8c-0.9-0.2-1.3-0.5-1.6-0.4
			c-9.8,4.7-20.1,8-30.3,11.5c-8.4,2.9-17,5.4-25.4,8.2c-2.9,1-5.8,2.2-8.7,3.3c-3.4,1.4-6.6,3-10.2,3.9c-2.2,0.5-4,2.2-6.1,3
			c-7.1,2.5-14.3,4.9-21.5,7.3c-2.8,1-5.6,1.9-8.4,2.9c-6.4,2.4-12.9,4.6-19.3,7.2c-6,2.4-11.9,5-17.9,7.5
			c-3.4,1.4-6.7,2.8-10.2,3.9c-2.4,0.8-5,1-7.4,1.7c-6,1.9-12,4.2-18.1,6.1c-4,1.3-8.1,2.2-12.1,3.3c-6.5,1.8-12.9,4.2-19.5,5.4
			c-7.6,1.4-14.9,3.9-22.4,5.7c-4.9,1.2-9.7,3.3-14.6,4.6c-5,1.4-10,2.5-15,3.3c-4.6,0.8-9.3,1.3-14,1.5c-3.9,0.2-7.8-0.3-11.7-0.4
			c-2.4-0.1-4.8,0.1-7.2,0.1c-1.1,0-2.1-0.2-3.2-0.5c-4-1.2-5.8-3.6-5.5-7.8c0.2-3,0.5-5.9,2.1-8.6c1-1.8,1.9-3.6,2.6-5.5
			c1.7-3.9,4.2-7.3,7.3-10.1c4.3-3.9,8.5-8,12.8-11.8c3-2.6,6.9-3.8,10.4-5.4c2.1-1,4.2-1.8,6.4-2.6c1-0.4,2-0.8,3.1-0.9
			c2-0.1,3.9-1.2,5.1-2.9c2.9-4.2,7.3-6.7,11.5-9.5c2.6-1.7,5.1-3.5,7.7-5.2c2.3-1.6,4.7-3.2,7.5-4c2.4-0.6,4.6-1.6,7-2.2
			c1-0.2,2.1-0.3,3.2-0.2c2.6,0.1,5.1,0.4,7.3,0.5c4.3-2.9,8.2-5.6,12.1-8.2c0.9-0.5,1.9-0.9,2.9-1.3c1.1-0.4,2.2-1,3.3-1.6
			c4.6-3.3,9.9-5,15.1-6.9c5.8-2,11.8-2.8,17.9-2.5c3.5,0.2,6.2-1.5,8.8-3.6c2.3-1.8,4.5-3.9,6.9-5.6c6.7-4.9,14.5-6.7,22.6-6.5
			c3.5,0.1,7-0.7,10.1-2.3c3.8-1.9,7.4-3.9,11.1-5.9c0.1-0.1,0.2-0.1,0.3-0.2c6.4-1.7,12.3-5.1,19.1-4.8c3.8,0.2,7.6,0.1,11.3-0.3
			c3.9-0.4,7.8-1,10.5-4.5c0.9-1,2.1-1.7,3.4-2.1c6.3-1.8,12.4-4.8,19.1-5.2c2.8-0.2,5.6-0.3,8.5-0.4c2.2-0.1,4.3,0,6.5-0.2
			c1.8-0.1,3.5-0.5,5.1-1.2c4.2-2,8.7-2.8,13.3-3.5c8.2-1.2,16.4-1.9,24.7-2c6.7-0.1,13.5-0.3,20.3,0.7c5.2,0.7,8.8,3.9,12.5,7
			c1.7,1.5,1.5,3.7,0.6,5.7c-2,4.4-3.6,9.1-7.2,12.6C352.3,26.6,352,27.3,351.7,28 M262.7,106.8c-2.6-0.1-5.1,1-6.8,2.9
			c1.8-0.5,3.4-0.9,5-1.5C261.6,108,262.1,107.2,262.7,106.8l4-0.9C264.6,105.4,264.6,105.4,262.7,106.8 M312.9,139.1
			c0.3-0.3,0.9-0.6,1-1c0.6-2.3-0.2-4.4-0.8-6.6c-1.2-5.1-3.5-9.9-6.6-14.1c-0.4-0.4-0.8-0.8-1.2-1.1c0.8,3.1,1.2,6,3.3,8.6
			c2.5,3,3.9,6.8,3.9,10.8C312.6,136.9,312.8,138,312.9,139.1c-1.4,3.4-2.8,6.7-4.3,10.1c-2.2,1-4.4,1.9-6.7,2.7
			c-2.2,0.4-4.5,0.6-6.8,0.7c6,1.1,11.5,0.5,16-4.1c0.5-1.6,1-3.1,1.6-4.6C313.4,142.4,313.5,140.7,312.9,139.1 M313.7,51.9
			c3.3-2.7,6.3-5.1,9.4-7.6c5.2-4.1,10.4-8.2,15.7-12.2c1.1-0.9,2.3-1.5,3.6-1.8c3.4-0.7,5.7-3.2,8-5.2c4.1-3.5,6.1-8.5,7.6-13.6
			c0.1-0.7,0-1.4-0.1-2c-2.8-2.2-5.2-4.9-8.8-5.7c-2.6-0.7-5.3-1.1-8-1.3c-6.1-0.1-12.2,0-18.2,0.2c-3.8,0.1-7.6,1-11.3,0.8
			c-6.5-0.3-12.4,2-18.6,3.3c2.2,2.1,4.2,4,6.2,5.9c0.4,0.4,0.8,0.7,1.3,1c1.8,1.4,3.7,2.7,5.4,4.2c4,3.7,8.4,6.7,13.8,8
			c0.6,0.1,1.1,0.7,1.8,1.3c-0.3,0.9-0.5,1.7-0.8,2.6c-5.2,0.4-9.9-1-14.4-2.8c-2.4-0.9-4.9-1.8-6.8-3.4c-4.2-3.6-8.7-6.8-13.1-10.2
			c-4.3-3.3-9.1-3.9-14.1-3.8c-7.7,0.2-14.9,2.6-21.9,5.4c-1.7,0.7-3.6,1.3-4.3,3.5c0.4,0.5,0.7,1.3,1.2,1.6
			c4.2,2.4,7.1,6.3,10.8,9.2c3.6,2.8,6.9,6,11.3,7.8c4.1,1.7,8.2,3.5,12.6,5.4c0.1,0.3,0.2,1.1,0.3,1.9c-0.9,0.5-1.8,0.8-2.8,1
			c-1.9,0-3.7-0.1-5.6-0.4c-3.6-0.5-7.3-1-10.4-3c-1.7-1.1-3.1-2.7-4.8-3.6c-6-3.2-11-7.9-16.7-11.5c-4.8-3.1-9.7-6-15.8-4.8
			c-0.9,0.2-1.9,0-2.8,0.1c-2,0.1-4,0.3-6,0.8c-4.5,1.4-9,3-13.3,4.7c-2,0.6-3.7,1.9-4.9,3.6c1.5,0.5,2.9,1.2,4.3,2
			c4.1,2.8,8.2,5.8,12.3,8.6c1.2,0.9,2.4,1.7,3.7,2.5c2.6,1.4,5.6,2.3,8,4c2.1,1.5,4.4,2.5,6.9,3c0.9,0.3,1.8,0.8,2.6,1.4l-1.8,2.7
			c-3.2-0.7-6.4-1.3-9.5-2.1c-5.3-1.3-9.5-5.1-14.8-6.3c-1-0.2-1.8-1.2-2.6-1.8c-3-2.2-6-4.6-9.7-5.8c-1.8-0.6-3.6-1-5.4-1.7
			c-4.5-1.8-9.4-2.5-14.3-2.1c-8.3,0.7-15.4,3.6-21.1,9.9c0.2,0.3,0.4,0.5,0.6,0.7c2.8,1.6,5.7,3,8.5,4.7c3.2,2,6.3,4.2,9.3,6.4
			c1.6,1.2,3,2.8,4.7,3.9c2.1,1.4,4.5,2.4,6.8,3.6c1.1,0.6,2,1.5,3.1,2c2.5,1.2,4.9,2.8,7.9,3c0.7,0.1,1.2,1.1,2,1.9
			c-1,0.9-1.6,1.5-2.1,1.8c-3.2-0.4-6-0.6-8.8-1.2c-5.7-1.1-11.2-3.4-16-6.6c-4.5-3.2-9.4-5.9-13.1-8.3c-3.9-1.7-6.9-3.1-9.9-4.3
			c-1.5-0.6-3-1.1-4.6-1.5c-5.7-1-11.6-0.6-17.1,1.1c-4.5,1.3-8.7,3.6-12.9,5.6c-2.4,1.1-4.7,2.6-7,4c-1.3,0.8-2.9,1.3-3.6,2.8
			c0.6,0.4,1.3,0.8,1.9,1.1c3.1,1.3,5.8,3.4,7.8,6.2c0.9,1.2,2,2.2,3.3,3c2.5,1.6,5.1,3,7.7,4.4c5.8,2.9,11.6,5.7,17.6,8.7v1.9
			c-0.4,0.2-0.7,0.5-0.9,0.4c-4.7-0.6-9.4-0.9-14-2c-6-1.5-12.1-3.1-16.9-7.4c-0.9-0.6-1.9-1.1-2.9-1.5c-1.5-0.9-2.9-1.9-4.4-2.7
			c-3.3-2-6.6-3.9-10-5.9c-0.1,0.2-0.2,0.4-0.2,0.6l-8.8-0.9c-0.8,0.2-2,0.4-3.2,0.7c-5.3,1.3-10.2,3.4-14.1,7.4
			c-0.7,0.7-1.5,1.2-2.3,1.7c-2.8,1.7-5.6,3.2-8.3,4.9c-0.5,0.4-1,1-1.4,1.5c0.8,0.4,1.6,0.7,2.5,1c3.9,1,7.7,2.6,11.2,4.7
			c2.6,1.7,5.4,3.1,8.1,4.5c1.7,0.9,3.4,1.6,5.1,2.4c4.2,2,8.1,4.8,12.8,5.8c0.6,0.1,1.1,0.7,1.8,1.2c-0.3,0.8-0.5,1.5-0.9,2.4
			c-1.9-0.1-3.6-0.1-5.3-0.4c-4.3-0.7-8.5-1.4-12.7-2.2c-2.7-0.5-5.2-1.5-6.3-2.8c-4.4-1.9-7.8-3.6-11.3-4.9
			c-5.6-2.2-11.1-5.2-17.5-3.3c-1.9,0.6-3.8,1.3-5.6,2c-5.8,2.4-11.5,4.8-15.8,9.6c-0.9,0.9-1.8,1.6-2.8,2.3
			c-3.7,2.9-6.6,6.7-9.8,10.1c-0.6,0.7-1.1,1.6-1.4,2.4c-1.6,3.1-3.1,6.3-4.9,9.9c-0.3,2.3-0.6,5.1-0.9,7.7c2.7,2.6,5.7,3.1,8.9,3
			c5-0.1,10-0.1,15-0.1c5.6,0,11.1,0,16.6-1.3c5.4-1.3,10.8-2.5,16.1-3.9c2.7-0.7,5.5-1.5,8.2-2.3c6.6-1.9,13.2-4,19.8-5.8
			c6.1-1.7,12.4-2.9,18.5-4.6c5-1.3,9.9-2.8,14.8-4.3c1.7-0.5,3.4-1,5-1.6c5.6-1.9,11.2-4.1,16.9-5.8c6.9-2,13.8-3.8,20.4-6.5
			c4.7-2,9.4-4.3,14.2-6.1c10.7-3.8,21.2-8.2,32.1-11.3c5.1-1.4,10-3.3,15-5.1c4.5-1.5,8.9-3.2,13.2-5.1c7.2-3.5,14.8-6,22.4-8.5
			c10.6-3.6,21.3-7,31.8-10.7c5.2-1.8,10.3-4.1,15.4-6.3c1.1-0.6,2.2-1.2,3.2-2C310.9,51.7,312.2,51.8,313.7,51.9 M316.2,142.9
			c0.4-0.2,0.7-0.5,1-0.7c4.5-5.5,9.1-11.1,13.6-16.7c0.4-0.5,0.7-1.1,1.1-1.7c1.4-2,2.9-3.9,4.5-5.8c3.6-3.8,6.9-8,9.6-12.5
			c4.2-6.6,8.7-13,13.5-19.2c5.5-7.2,10.7-14.6,14.3-23.1c1.8-4.4,4.2-8.5,6.1-12.8c1-2.1,1.7-4.3,2-6.6c0.2-2.7,0.9-5.9-1.7-8
			c-3.2-2.6-6.7-4.7-10.9-5c-4-0.2-8.1,0-12.1-0.3c-3.5-0.1-7,0.2-10.4,1c-1.9,0.3-3.6,1-5.2,2c-3.7,2.4-7.4,5-10.9,7.8
			c-2.4,1.7-4.6,3.9-6.4,6.2c0.5,0.1,1,0.2,1.5,0.2c6.2-0.3,12,1.3,17.7,3.4c2,0.7,4,1.7,6.1,2.2c5.1,1.3,10.2,2.5,15.7,3.8
			c0.2,0.5,0.5,1.3,1,2.5c-2.9,0.8-5.5,1.5-8,2.2c-4.1,1.3-8.3,1-12.5,0.3c-4.7-0.8-9.3-2-13.9-3c-4.2-1-8.5-1.4-12.9-1.2
			c-6,0.4-11.4,2-15.8,6.3c-2.6,2.5-5.3,5-8.2,7.3c-1.9,1.5-2.7,3.5-3.7,5.9c1.8,0.2,3.3,0.4,4.7,0.4c6.2-0.2,12.5,0.9,18.3,3.1
			c4.2,1.7,8.1,4,12.7,4.8c3.5,0.6,6.9,2.1,10.4,3.3c1.7,0.6,3.3,1.1,4.9,1.8c0.6,0.4,1.2,0.9,1.7,1.5c-0.3,0.4-0.7,0.7-1.1,1
			c-4,1.9-8.4,2.1-12.6,2.6c-2.2,0.2-4.3,0.1-6.5-0.3c-7.3-1.4-14.5-3.1-21.8-4.6c-2.6-0.5-5.3-1.3-7.9-1
			c-6.3,0.4-12.6,1.3-18.7,2.9c-1.3,0.4-2.6,0.7-3.8,1c-2.2,2.9-5.2,4.8-7.8,8.3c2.7-0.6,4.6-1.1,6.6-1.3c8.1-1,16,0.6,23.5,3.1
			c5.9,2,10.6,6.3,14.5,11.2c3.5,4.4,5.4,9.6,7.4,14.8c0.3,0.6,0.4,1.3,0.5,1.9C316.2,135.6,316.2,139.1,316.2,142.9 M256,135.1
			c2,0.7,4.2,1.6,6.5,2.3c3.3,1.1,6.8,1.8,9.6,4.2c0.8,0.5,1.7,0.8,2.6,0.9c5,1.1,9.7,2.9,14.1,5.5c7.1,2.1,13.1,2.4,18.3-1.7
			c4.3-6.4,3.8-12.7,0.6-19.4c-3.3-2.1-4.1-6-5.1-10.1c-4.3-2.5-8.6-5-13.9-8c-3-0.1-6.9-0.3-10.8-0.6c-1.3-0.2-2.6-0.6-3.8-1.1
			c-4.3-0.1-8.1,1.4-12.1,3.2c-3.7,1.8-7,4.5-9.4,7.8c-2.6,3.4-1.1,7-1.4,10.5c0,0.3,0.3,0.7,0.6,1
			C253.1,131.4,254.4,133.1,256,135.1 M277.1,89l0.3,0.8c1.4-0.3,2.9-0.5,4.3-0.8c5.5-1.3,11.3-1.5,16.9-0.8
			c6.8,1.1,13.6,2.6,20.3,4.2c5.9,1.6,12.1,1.5,17.9-0.2c-0.8-0.4-1.2-0.5-1.6-0.7c-6.7-3.1-14.4-3.4-20.7-7.6
			c-0.1,0-0.3-0.1-0.4-0.1c-7.8-3.5-16-3.4-23.9-3.2L277.1,89 M359.8,59c-0.6-0.5-0.7-0.7-0.9-0.8c-5.7-1.1-11.4-2.1-16.6-4.7
			c-7.1-3.4-14.6-3.3-22.2-3c-1.3,1.8-3.9,2.5-4.4,5.1c4.9,0,9.6-0.6,14.3,0.7c1,0.3,2.1,0.6,3.1,0.8c6.2,1.3,12.3,2.6,18.3,3.8
			L359.8,59 M132.9,86c-3.4-1.7-6.4-3.1-9.4-4.7c-3.9-2.1-8-4.3-10.7-7.8c-2.8-3.7-6.5-5.4-10.7-7.2c-1.4,1.1-2.7,2.2-4.5,3.6
			c4.2,2.7,8.1,5.1,11.9,7.4c1.6,1,3.3,1.8,4.8,2.9c5.3,3.8,11.4,5.4,17.7,6.4C132.2,86.6,132.3,86.5,132.9,86 M151.1,50.4
			c1,0.6,2.1,1.2,3.3,1.7c4.8,1.7,9.4,4,13.6,6.9c3.9,2.6,7.9,5.1,11.9,7.5c2.6,1.4,5.5,2.2,8.5,2.3c-2.4-2-4.9-3.7-7.6-5.3
			c-2.4-1.3-4.6-2.8-6.6-4.6c-0.8-0.8-1.6-1.5-2.4-2.1c-4.1-2.6-8.1-5.2-12.3-7.8c-1.6-1.1-3.7-1.5-5.6-1.1L151.1,50.4 M50.6,92.4
			c7.5,2.9,14.5,5.6,21.5,8.3c0.7,0.4,1.4,0.8,2,1.3c3.6,2.3,7.8,2.5,12.2,3.3c-0.9-1.1-1.4-2-2.2-2.4c-2-1.1-4.1-2-6.2-2.8
			c-2.3-0.9-4.4-2-6.4-3.3C66.2,93,60.1,90.3,53.6,89L50.6,92.4 M238.7,22.1c4.8,2.9,9.3,5.2,12.8,9c1.2,1.2,2.6,2.3,4.1,3.2
			c2.1,1.4,4.3,2.7,6.6,3.9c2.1,1.1,4.3,2.2,6.6,3.1c0.9,0.2,1.9,0.4,2.9,0.4c-3.7-2.5-7.5-4.3-10.7-7.3c-0.1-0.1-0.2-0.2-0.3-0.2
			c-3.3-2.1-6.2-4.6-8.7-7.6c-2.2-2.4-4.8-4.3-7.8-5.7C242.3,20,240.6,20.2,238.7,22.1 M285.1,9.2c0.2,0.3,0.2,0.5,0.3,0.5
			c5.4,3.8,10.9,7.3,15.8,11.9c1.9,1.8,4.6,2.6,7.9,3c-4.6-5.8-11.2-8.4-15.1-14.1C291,10,288.4,7.8,285.1,9.2 M191.9,34.6l7.5,2.9
			c2.6,1,5.2,2,7.4,4c2.4,2.3,5.4,4.1,8.6,5c1,0.1,2.1,0.1,3.1,0c-1.5-1-2.1-1.4-2.8-1.8c-3-2-6.1-4-9-6.2
			c-3.4-2.6-6.7-5.4-11.7-5.6L191.9,34.6 M271.9,103.7c3.4,1.7,7.1,2.3,10.9,1.9c0.9,0,1.9,0.1,2.8,0.3c0.7,0,1.4,0,2.1,0
			C282.7,103.8,277.2,103.1,271.9,103.7 M302.1,113.5c0.1-0.2,0.3-0.4,0.4-0.6c-0.3-0.4-0.5-1-0.9-1.3c-2.5-1.6-5.1-3.1-7.7-4.5
			c-0.7-0.2-1.4-0.3-2.1-0.3c2.1,3.5,6.4,3,8.4,5.9C300.6,113.2,301.5,113.3,302.1,113.5 M247.9,121.5c-2,2.9-0.6,5.4-0.2,7.8
			C248.7,126.9,249.6,124.6,247.9,121.5 M276.6,145.9c2.3,2,5.2,3.1,8.2,3.1C281.8,147.2,279.4,146,276.6,145.9 M268.8,143.5
			c0.1-0.3,0.2-0.6,0.3-0.9c-2.4-1-4.6-2.8-7.6-1.8C263.9,141.7,266.4,142.6,268.8,143.5 M226.4,50.5c-2.6-1.4-4.2-3-7.1-2.8
			C221.4,49.4,223.2,50.5,226.4,50.5 M249.8,117.6c1.7-2.2,2.9-3.8,4.1-5.4C251.8,113.1,250.2,114.3,249.8,117.6 M252.3,136
			c0.1-2.2-1-3.4-3.1-3.6L252.3,136"/>
		<path id="パス_84" class="st1" d="M215.7,189c-1.3,2-2.4,4-3.7,5.9c-3.3,4.7-7.6,7.9-13.5,8.8c-1.3,0.2-2.6,0.7-3.9,1
			c-2.8,0.6-5.6,0.7-8.4,1.2c-6.9,1.3-13.7,0.2-20.6,0c-1.9,0-3.8-0.4-5.6-0.9c-6.7-2.1-13.6-3.7-19.6-7.5c-1.3-0.7-2.7-1.2-4.1-1.7
			c-4-1.8-7.4-4.6-9.8-8.2c0.1-1,0.3-2.1,0.6-3.1c2.5-5.4,5.6-10.3,10.8-13.8c7.2-5,15.2-6.7,23.6-7.3c5.9-0.4,11.9-0.9,18.1-1.3
			c2.2-2.7,4.6-5.2,7.1-7.6c3-2.6,6-5.5,10.3-5.9c0.1,0,0.3,0,0.4-0.1c2-0.9,3.8-1.9,6.1-2.1c8.5-0.9,17-1.8,25.5-1
			c1.2,0.1,2.4,0.4,3.6,0.7c4.7,1.3,9.3,2.7,14,4.1c2.1,0.6,4,1.6,5.8,2.8c1.9,1.3,4,2.2,5.9,3.4c2.4,1.7,4.6,3.7,6.4,6
			c3.9,4.4,3.9,8.1,0.3,12.8c-4.1,5.3-8.7,10-14.9,12.7c-4.6,2-9.4,3.5-14.5,3.1c-2.3-0.2-4.5,0.3-6.8-0.1c-3.3-0.5-6.6-1.1-9.9-1.9
			C217.9,188.9,216.8,188.9,215.7,189 M219,152.7c-0.9-0.4-1.6-0.7-2.3-1c-2-0.8-4-1.8-6.2-1.3c-3.1,0.7-6.4,1.2-9.3,2.5
			c-2.2,0.9-4.9,2.2-4.4,5.1c1.9,2.8,4.7,4.9,7.9,5.9c3.8,1.3,6.9,3.6,10.3,5.5c0.8,0.4,1.6,1.1,2.4,1.5c1,0.6,2.2,1,3.4,1.1
			c2.8,0,5.6,0.8,8.1,2.2c2.6,0.3,5.3,0.8,7.9,1.5c0.9,0.3,1.8,0.5,2.8,0.6c3.2-0.1,6.5-0.3,9.7-0.5c0.8-0.1,1.6-0.3,2.4-0.6
			c2.3-0.9,4.5-1.8,6.9-2.8c0.8-1,1.6-2.2,2.5-3.4c-0.1-1.2-0.1-2.2-0.2-3.5c-3.1-2.3-6.2-4.7-9.3-7c-0.4-0.4-0.9-0.6-1.4-0.8
			c-3.4-0.7-6.4-2.9-10.1-2.8c-0.5-0.1-1-0.3-1.5-0.5c-2.9-1.1-5.8-2.2-7.7-3L219,152.7 M212.1,190.4c-3.2,1.1-5.6,2-8,2.6
			c-7.5,1.9-15.3,1.1-23,1.6c-0.4,0-0.8-0.1-1.2-0.2c-4.4-0.6-8.9-1-13.3-1.7c-2.1-0.4-4.2-0.9-6.3-1.5c-2.5-0.7-4.9-1.7-7.3-2.2
			c-3.7-0.7-7.3-2-10.5-4c-1.3-0.7-2.5-1.5-3.7-2.4c-0.9-0.8-1.7-1.7-2.2-2.9c-0.4-1.3-0.6-2.6-0.7-3.9c-4,3-5,7.2-6.9,11.4
			c1.4,1.1,2.8,2.2,4,3.4c2.5,2.5,5.8,3.4,8.8,4.8c5.6,2.9,11.6,5.1,17.7,6.7c4.8,1.2,9.8,1.8,14.8,1.8c7.3,0,14.6-0.8,21.7-2.3
			C202.7,200.3,208,197.1,212.1,190.4 M145.5,180.1c2.7,0.7,5.1,0.8,7,1.9c1.9,1,3.9,1.8,6,2.3c2.3,0.4,4.5,1,6.6,1.8
			c3,1.3,6.2,1.5,9.4,1.6c2.9,0.1,6-0.2,8.8,0.3c4.6,0.9,9.1,0.6,13.7,0.5c3.2-0.1,6-0.9,8.5-3.2c-0.4-0.4-0.8-0.8-1.3-1.1
			c-3.9-1.8-7.9-3.6-11.2-6.4c-0.7-0.5-1.4-0.8-2.2-1c-4.5-1.6-8.5-4.4-11.6-8.1c-0.8,0.1-1.5,0.1-2.3,0c-3-1.2-5.9-0.5-8.7,0.3
			c-2.7,0.8-5.5,0.8-8.1-0.2c-4.8,1.9-10.5,0.5-14.7,4.4c0.8,0.5,1.6,1.1,2.3,1.8c0.2,0.2,0,0.9-0.1,1.8c-1.3-1-2.1-1.7-3.2-2.6
			c-0.6,0.5-1.2,1-1.8,1.5C143.7,177.2,144.6,178.7,145.5,180.1 M181.1,165.5c1.6,3.6,1.5,3.7,3.3,4.7c2.7,1.6,5.4,3,8.2,4.5
			c0.9,0.4,1.7,0.9,2.4,1.4c4.5,3.3,9.4,5.9,14.6,7.8c6.3,2.3,12.9,3.9,19.6,4.7c8.5,1.1,16.4-0.8,23.9-4.6c1.3-0.6,2.4-1.5,3.2-2.7
			c-4,0.4-7.7,1-11.4,1.1c-7.5,0.4-14.7-1.8-22-3.3c-5.2-1.1-9.5-4.2-14.2-6.5c-4.2-2.1-8.1-4.8-12.1-7.3c-1.4-1.6-2.8-3.2-4.5-5.1
			c-0.6-1.3-1.3-3.1-2.1-5C186.4,158.5,183.2,161.6,181.1,165.5 M260.7,175.2c-2.3,0.6-4.3,0.7-5.8,1.6c-3.1,1.8-6.4,1.8-9.8,1.6
			c-2-0.2-4,0.3-5.6,1.4c5.4,0.5,10.9,0.2,16.2-0.9C257.8,178.4,259.6,177.1,260.7,175.2 M167.9,189.7c-1.5-0.5-3-1-4.5-1.5
			c-4.1-1.3-8.4-1.7-12.1-4.1c-1.6-1-3.6-1.2-5.4-0.6C148.8,185.4,164.3,189.9,167.9,189.7 M218.8,150c3.9-0.4,7.7-0.7,11.9-1.1
			c-3.5-1.6-10.1-2-15.2-0.9L218.8,150 M172.6,190.4c4.3,1.6,8.8,1,13.3,0.9C181.5,190.3,177,190,172.6,190.4 M143.9,182.5
			c-1.7-2.9-3.1-5.2-4.6-7.8C138.3,179.1,139,180.5,143.9,182.5 M263.5,165.9c0,3.3-0.5,6-3.2,8.2c2.9,0.2,3.6-1.4,4.2-3.1
			C265.2,169.5,266.1,167.8,263.5,165.9 M239.2,150.7c-0.3,0.2-0.4,0.3-0.5,0.4c0,0.1,0.1,0.2,0.2,0.3c2.6,1.6,5.6,1.6,8.4,2.5
			l0.2-0.8L239.2,150.7 M230.4,178.2c2,0.3,4,0.6,6,0.9c0.2,0,0.4-0.2,1.1-0.5C234.9,178,232.8,176.7,230.4,178.2 M227.5,177.6
			c-1.7-1.7-3.4-3.4-6.8-1.9L227.5,177.6 M210.2,187.5c-3.1,0.3-3.1,0.3-4.8,2.4C206.9,189,208.9,189.6,210.2,187.5 M193.7,158
			c0.2-0.1,0.4-0.2,0.7-0.4c0.1-0.1,0.3-0.2,0.3-0.3c0-1.2,0-2.4,0-3.5C193.5,155.6,193.5,155.6,193.7,158 M165.9,165.7l-0.1,0.7
			c0.8,0,1.5-0.1,2.3-0.2c0.6-0.1,1.3-0.2,1.9-0.3l-0.1-0.4L165.9,165.7 M206.6,167.1c-0.2,0.2-0.4,0.4-0.7,0.7
			c0.9,1.2,2.3,2,3.8,1.9L206.6,167.1"/>
		<path id="パス_85" class="st1" d="M301.6,272l-5.6-0.3c-2.2-2-2.2-2-2.3-4.9c1.4-0.9,3-1.8,4.8-2.9c1.1,0.5,2.3,1.1,3.4,1.6
			C303.5,267.7,302.6,269.6,301.6,272 M300.7,269.1c-0.3-1.9-1.2-2.4-2.6-2.2c-1,0.1-2.1,0.4-2,2.1
			C297.5,269.6,298.9,270,300.7,269.1"/>
		<path id="パス_86" class="st1" d="M315.6,215.1c2.7,0.4,4.7,2.6,4.9,5.3c-3.2,2.2-5.3,2.1-8.1-0.2
			C312.7,218.1,314.3,216.8,315.6,215.1"/>
		<path id="パス_87" class="st1" d="M192.3,115.2c1,0.5,1.9,1,2.7,1.5c1.1,2.1,0.4,3.9-0.4,5.8c-0.7,0.4-1.6,0.8-2.5,1.2l-4-2.6
			C188,117.9,190.5,116.9,192.3,115.2 M193.2,118.2c-1.7,0.2-2.7,0.6-2.8,2.4c1.1-0.1,2-0.2,3-0.3
			C193.3,119.4,193.3,118.9,193.2,118.2"/>
		<path id="パス_88" class="st1" d="M265.9,207.7c1.1-1.2,2-2.2,3.2-3.5c1.5,1,2.8,1.9,4.3,2.8c-0.2,1.3-0.3,2.5-0.5,3.8l-5.1-0.3
			C267.1,209.6,266.6,208.7,265.9,207.7"/>
		<path id="パス_89" class="st1" d="M246.3,215.7H241c-0.6-2.6,1.2-3.7,2.4-5.1c3.1,0.3,3.1,0.3,4.9,2.1
			C248,213.9,247.3,215,246.3,215.7"/>
		<path id="パス_90" class="st1" d="M232.5,116.4c-3.1,1.6-3.8,1.5-6.6-0.9l2.2-4.6l3.5,1C231.9,113.4,232.1,114.8,232.5,116.4"/>
		<path id="パス_91" class="st1" d="M272.2,222.5c2.1,0.3,2.8,1.6,3.2,3.5c-0.4,0.6-0.8,1.3-1.3,2.2l-4.7,0.7
			c-0.3-1-0.5-1.8-0.7-2.5C269.9,225,271.1,223.7,272.2,222.5"/>
		<path id="パス_92" class="st1" d="M312.5,178.7c-2.6,0.2-3.6-1.2-4.5-3c0.9-1.3,1.7-2.5,2.6-3.7c0.7,0,1.3,0.1,2,0.1
			C313.4,174.3,315.1,176.4,312.5,178.7"/>
		<path id="パス_93" class="st1" d="M124.1,149.5c2.3,1.5,2.6,3.3,1.4,5.5c-3.3,0.9-3.3,0.9-5.3-1.6
			C120.6,151.4,122.1,149.8,124.1,149.5"/>
		<path id="パス_94" class="st1" d="M243.3,248l2.8-3.4l3.7,1.9c-0.2,1.2-0.4,2.4-0.5,3.5C246.9,250.2,244.9,250.4,243.3,248"/>
		<path id="パス_95" class="st1" d="M218.4,134.7l-5.2,0.3c-0.1-1-0.1-1.7-0.1-2.1c1.2-1.9,3.5-0.5,4.6-2
			C219.3,132.2,219.3,132.2,218.4,134.7"/>
		<path id="パス_96" class="st1" d="M198.2,130.8l-1.3,1.5l-2-1c0.5-0.8,0.8-1.5,1.4-2.5C197,129.5,197.6,130.1,198.2,130.8"/>
		<path id="パス_97" class="st1" d="M320.2,196.2c-1-0.8-1.5-1.6-0.5-3l1.6,1.8L320.2,196.2"/>
		<path id="パス_98" class="st1" d="M287.9,209.5c-0.8-0.4-1.5-0.7-2.5-1.2c0.7-0.5,0.9-0.7,1.4-1.1c0.5,0.6,1,1.2,1.5,1.8
			C288.2,209.1,288.1,209.3,287.9,209.5"/>
		<path id="パス_99" class="st1" d="M266.5,118.9c1.3,0.4,2.5,0.9,3.9,1.3c-0.2,0.6-0.4,1.1-0.7,2c-1.3-0.9-2.4-1.6-3.6-2.4
			C266.3,119.5,266.4,119.2,266.5,118.9"/>
		<path id="パス_100" class="st1" d="M272.3,111.1c-1.4-1.1-2-1.7-2.8-2.4C271.7,108.3,271.7,108.3,272.3,111.1"/>
		<path id="パス_101" class="st1" d="M266.8,126.3v2.5l-2.8-1.4L266.8,126.3"/>
		<path id="パス_102" class="st1" d="M256.8,128.1l-2.3,2.2c-0.3-0.8-0.4-1.3-0.7-2C254.7,128.2,255.3,128.2,256.8,128.1"/>
		<path id="パス_103" class="st1" d="M278.5,138.8l-1.9,1.7c-0.5-0.7-0.8-1.3-1.6-2.4C276.6,138.4,277.4,138.5,278.5,138.8"/>
		<path id="パス_104" class="st1" d="M254.9,119.1c0.6,1,1,1.5,1.4,2.1c-0.4,0.4-0.7,0.6-1.4,1.3c-0.4-0.5-0.8-1-1.3-1.6
			L254.9,119.1"/>
		<path id="パス_105" class="st1" d="M301.3,119.1c-2.3,0-3-0.6-2.7-2.5c0.5,0.2,1,0.4,1.4,0.7
			C300.5,117.8,300.9,118.4,301.3,119.1"/>
		<path id="パス_106" class="st1" d="M275.6,111.5c0.2-1,0.3-1.5,0.5-2.1l2.6,1.1L275.6,111.5"/>
		<path id="パス_107" class="st1" d="M264.5,114.3l-2.9-1.4c1-0.5,1.6-0.8,2.3-1.2C264.2,112.4,264.3,112.9,264.5,114.3"/>
		<path id="パス_108" class="st1" d="M272.1,115.9c-0.5-0.7-0.8-1.2-1.6-2.5l3,0.9L272.1,115.9"/>
		<path id="パス_109" class="st1" d="M272,130.2c-1.3-0.6-1.6-1.4-0.9-2.7C272.3,128.2,273,128.8,272,130.2"/>
		<path id="パス_110" class="st1" d="M257.6,127.4c-0.4-1.3-0.5-1.8-0.8-2.8c1.1,0.2,1.7,0.3,2.8,0.5L257.6,127.4"/>
		<path id="パス_111" class="st1" d="M263.3,122.6c-1-1-1.5-1.6-2.4-2.5C262.9,119.9,263.4,120.4,263.3,122.6"/>
		<path id="パス_112" class="st1" d="M267,134.2c0.8,0.4,1.4,0.6,2.2,1C267.4,136.3,267.4,136.3,267,134.2"/>
		<path id="パス_113" class="st1" d="M262,132.3c-1.2-1-1.8-1.5-2.4-2C261.4,129.3,261.4,129.3,262,132.3"/>
		<path id="パス_114" class="st1" d="M279.3,118.6l-0.4-1.5c0.9-0.6,1.6-1,2.4,0.7C280.6,118.1,280,118.3,279.3,118.6"/>
		<path id="パス_115" class="st1" d="M257.4,116.4l2.7,0.5C259,118.6,259,118.6,257.4,116.4"/>
		<path id="パス_116" class="st1" d="M259.3,134l2.2-0.5c0,0.7,0.1,1.1,0.1,2.2C260.6,135,260.2,134.7,259.3,134"/>
		<path id="パス_117" class="st1" d="M287.5,113.6c-0.7-0.2-1.3-0.4-2.1-0.6c0.3-0.6,0.4-0.9,0.7-1.6l1.7,1.6
			C287.7,113.2,287.6,113.4,287.5,113.6"/>
		<path id="パス_118" class="st1" d="M213.6,161.9c-0.8-1.2-1.1-1.8-1.6-2.7l3-0.1C214.5,160,214.2,160.6,213.6,161.9"/>
		<path id="パス_119" class="st1" d="M213.4,157.8h-1.8v-2C212.9,155.7,213.6,156.1,213.4,157.8"/>
		<path id="パス_120" class="st1" d="M227.1,170.2l-1.6,1l-1.3-2C225.6,168.1,226.2,169,227.1,170.2"/>
		<path id="パス_121" class="st1" d="M219.7,156.4c-0.4-0.6-0.8-1.1-1.2-1.7C220.4,154.6,220.4,154.6,219.7,156.4"/>
		<path id="パス_122" class="st1" d="M209.1,164.9c-0.2-1.1-0.3-1.7-0.6-3.1c1.1,1.1,1.6,1.5,2.3,2.1
			C210.2,164.3,209.9,164.5,209.1,164.9"/>
		<path id="パス_123" class="st1" d="M205.2,153.3h2.3c-0.1,0.6-0.1,1.1-0.3,2.3C206.5,154.7,206.1,154.3,205.2,153.3"/>
		<path id="パス_124" class="st1" d="M207,160.5c-0.6,0.1-1.1,0.2-1.7,0.4c-0.2-0.6-0.3-1.1-0.5-1.6
			C206.2,158.6,206.8,159,207,160.5"/>
		<path id="パス_125" class="st1" d="M150.7,175.9c1.1,1.1,1.7,1.6,2.7,2.7c-1.6,0.5-2.3,0.6-3.4,1
			C150.2,178.4,150.4,177.7,150.7,175.9"/>
		<path id="パス_126" class="st1" d="M157,172.9c1.1,0.5,1.6,0.8,2.6,1.3c-0.8,0.7-1.4,1.1-1.9,1.5
			C157.5,175,157.3,174.2,157,172.9"/>
		<path id="パス_127" class="st1" d="M171.3,182.1c1.4,0.8,2,1.1,2.8,1.5c-0.5,0.5-0.8,0.9-1.3,1.4
			C172.3,184.2,172,183.6,171.3,182.1"/>
		<path id="パス_128" class="st1" d="M167.5,172.8l2.4,0.7C168.2,174.5,168.2,174.5,167.5,172.8"/>
		<path id="パス_129" class="st1" d="M155.5,180.8c0.6,0.1,1.1,0.2,1.8,0.4C156.4,182.4,156.4,182.4,155.5,180.8"/>
		<path id="パス_130" class="st1" d="M164.3,182.5c0.5,0.3,1,0.6,1.6,1.1c-0.5,0.5-0.9,0.8-1.4,1.2c-0.4-0.6-0.7-1-0.9-1.3
			C163.9,183.1,164,182.9,164.3,182.5"/>
	</g>
</g>
</svg>
