<svg xmlns="http://www.w3.org/2000/svg" width="135.244" height="179.012" viewBox="0 0 135.244 179.012">
  <g id="_77" data-name="77" transform="translate(-837.378 -2412.494)">
    <path id="パス_76" data-name="パス 76" d="M963.63,2419.661c-.046-.276-.092-.552-.152-.906,1.19-1.477,2.372-2.987,3.6-4.456a5.69,5.69,0,0,1,3.54-1.805,3.965,3.965,0,0,1,1.968,2.028c.217,1.538-.64,2.821-1.267,4.093-1.445,2.934-3.008,5.817-4.648,8.648-1.1,1.894-2.421,3.658-3.625,5.492-1.411,2.15-2.743,4.355-4.218,6.46-2.3,3.278-4.729,6.463-7.028,9.74-2.4,3.417-4.823,6.813-7.059,10.345-1.291,2.041-2.932,3.861-4.409,5.784-.446.582-.874,1.179-1.307,1.771-1.534,2.1-3.095,4.177-4.589,6.3-1.134,1.615-2.109,3.344-3.282,4.928-2.15,2.9-4.425,5.713-6.59,8.6-1.455,1.945-2.791,3.98-4.226,5.941a13.375,13.375,0,0,1-1.529,1.486v.5c-1.568,2.238-3.122,4.383-4.6,6.58a96.6,96.6,0,0,1-7.029,9.681c-1.655,1.906-2.943,4.128-4.426,6.186-.987,1.37-2.039,2.693-3.042,4.052-1.2,1.632-2.388,3.277-3.577,4.92-.493.683-.974,1.374-1.524,2.149l1.18,1.837a4.648,4.648,0,0,0-1.615,3.052c-.479,2.012-.94,4.134-2.939,5.351.3.715.544,1.272.762,1.841a20.971,20.971,0,0,1,1.494,8.915,6.765,6.765,0,0,1-2.959,5.411c-.214.674-.434,1.307-.615,1.952a5.574,5.574,0,0,0-.361,1.639,8.285,8.285,0,0,1-.921,3.91,30.678,30.678,0,0,0-1.5,4.276,29.916,29.916,0,0,1-2.8,6.3,14.037,14.037,0,0,0-1.251,2.922,29.262,29.262,0,0,1-2.215,4.179c-.748,1.511-1.61,2.967-2.435,4.44-.384.687-.76,1.383-1.2,2.032-.956,1.4-1.944,2.773-2.939,4.143-.293.4-.652.76-.967,1.122a7.827,7.827,0,0,1-3.494-.8,44.573,44.573,0,0,0-5.258-2.255,2.96,2.96,0,0,0-2.025-1.061c-1.538-1.133-3.6-1.448-4.71-3.1l-1.861-.581.086-.127c-.6-.481-1.2-.971-1.813-1.444-1.614-1.248-3.587-2.023-4.872-3.708a2.317,2.317,0,0,0-.54-.392c-1.359-.963-2.845-1.756-3.813-3.208-.26-.391-.863-.535-1.222-.881a9.538,9.538,0,0,1-.94-1.257l-.859-.492-3.307-4.324-.079.071c-.394-.859-.789-1.719-1.251-2.728.953-.711,1.934-1.533,3-2.221a39.189,39.189,0,0,0,5.35-4.141,16.005,16.005,0,0,0,1.122-1.26,6.891,6.891,0,0,1,.89-.992,23.758,23.758,0,0,0,2.974-3.136c2.405-2.625,4.639-5.418,7.166-7.916a24.656,24.656,0,0,1,7.49-5.411l2.141-1.793c-.125.208-.029.117-.015.015a6.244,6.244,0,0,1,4.007-5.036,14.389,14.389,0,0,1,4.554-1.184,16.635,16.635,0,0,1,5.577,0,3.366,3.366,0,0,0,.361-.791,5.279,5.279,0,0,1,4.561-4.772,2.409,2.409,0,0,0,.387-.162l.907-1.7,1.551-.118c5.488-7.943,11.3-15.606,17.1-23.272l.65.433c-.288.461-.523.9-.82,1.3-2.424,3.249-4.875,6.478-7.286,9.736-1.916,2.589-3.817,5.19-5.666,7.827-.931,1.326-2.116,2.519-2.508,4.278l.735.529c.643-.936,1.2-1.779,1.791-2.592.295-.4.693-.733.993-1.134,1.043-1.4,2.059-2.814,3.094-4.217.369-.5.785-.966,1.142-1.474.875-1.244,1.709-2.518,2.594-3.755,1.936-2.705,3.994-5.33,5.818-8.109,2.259-3.44,4.451-6.917,6.97-10.182,2.068-2.679,4.016-5.45,6.035-8.167,1.476-1.987,3.009-3.932,4.466-5.933,1.364-1.872,2.66-3.793,3.99-5.69,1.3-1.852,2.638-3.676,3.9-5.553,1.506-2.243,2.923-4.546,4.427-6.791.974-1.454,2.04-2.847,3.053-4.276.916-1.291,1.736-2.658,2.737-3.877,2.4-2.929,4.533-6.055,6.7-9.152,2.27-3.24,4.389-6.595,6.795-9.729a87.912,87.912,0,0,0,7.372-11.571,5.537,5.537,0,0,0,.862-3.578ZM874.948,2587.17c.6-.348,1.157-.735,1.168-1.547a2.185,2.185,0,0,0-1.153,1.56,1.376,1.376,0,0,0-.747,1.577Zm3.418-37.057a7.408,7.408,0,0,0,2.833,2.006c2.265,1.134,4.6,2.136,6.915,3.162a3.09,3.09,0,0,0,.992.063c-.067-.283-.1-.439-.138-.586-.6-.219-1.187-.39-1.738-.643-2.5-1.151-4.985-2.332-7.483-3.484-.448-.206-.934-.329-1.4-.49-.075-.146-.113-.34-.231-.432-1.319-1.036-2.621-2.1-3.985-3.07a48.946,48.946,0,0,1-4.714-4.261,24.481,24.481,0,0,1-2.045-2.451l-.649.472c1.838,1.907,3.622,3.741,5.386,5.594,1.619,1.7,3.734,2.707,5.614,4.042C877.875,2550.146,878.148,2550.091,878.366,2550.113Zm7.233,12.737c-.829.019-.848.744-1.121,1.264-1.229,2.344-2.386,4.733-3.738,7-1.634,2.744-3.414,5.4-5.177,8.068a72.52,72.52,0,0,1-5.877,8.229,15.113,15.113,0,0,0-.985,1.411l.739.458c.994-1.219,2.051-2.326,2.891-3.578,2.038-3.039,3.988-6.137,5.949-9.228.935-1.474,1.739-3.036,2.731-4.469a44.509,44.509,0,0,0,4.563-9.2c.222-.62.445-1.241.621-1.73l-.725.481C885.51,2561.961,885.555,2562.405,885.6,2562.85Zm8.392-35.406c.726-1.087,1.311-1.971,1.9-2.85a22.79,22.79,0,0,1,1.729-2.509,103.091,103.091,0,0,0,6.387-8.225c1.952-2.692,3.975-5.333,5.952-8.007,1.1-1.5,2.2-3,3.265-4.523,1.643-2.356,3.252-4.736,4.883-7.1,1.375-1.993,2.683-4.039,4.169-5.946,1-1.286,1.922-2.624,2.89-3.93,1.294-1.745,2.771-3.356,4.049-5.111,2.193-3.01,4.285-6.093,6.435-9.133,1.431-2.023,2.873-4.039,4.344-6.033.837-1.135,1.808-2.175,2.605-3.336,2.361-3.44,4.665-6.92,6.993-10.384.47-.7.921-1.415,1.423-2.092,1.306-1.763,2.655-3.495,3.948-5.267.995-1.363,1.928-2.772,2.9-4.155,1.511-2.157,3.089-4.254,4.482-6.507,2.014-3.259,4.083-6.487,6.049-9.778a4.673,4.673,0,0,0,.7-1.136,20.328,20.328,0,0,1,1.8-3.991c.4-.85.681-1.762.925-2.41a2.1,2.1,0,0,0-1.515-1.8c-2.754.9-4.126,3.15-5.543,5.425a3.954,3.954,0,0,1,.17,3.515,20.42,20.42,0,0,1-1.1,2.455,67.259,67.259,0,0,1-7.517,11.595c-.964,1.241-1.877,2.523-2.767,3.817-2.044,2.973-4.033,5.984-6.1,8.941-1.194,1.709-2.506,3.335-3.743,5.015q-2.26,3.066-4.483,6.161c-1.418,1.97-2.909,3.9-4.2,5.947a61.32,61.32,0,0,1-6.088,8.741,3.315,3.315,0,0,0-.318.393c-.99,1.5-1.927,3.043-2.976,4.5-1.769,2.464-3.615,4.872-5.415,7.314-1,1.361-1.934,2.78-2.979,4.108-2.434,3.093-4.807,6.23-7,9.5-.63.939-1.21,1.91-1.832,2.854-1.177,1.784-2.349,3.571-3.558,5.333-.826,1.2-1.783,2.32-2.547,3.559s-1.786,2.243-2.562,3.479c-1.527,2.429-3.367,4.66-5.056,6.988-.721.994-1.388,2.026-2.118,3.1Zm-43,50.946c.2.5.638.407,1.037.336,1.517-1.641,3.008-3.251,4.494-4.866.074-.08.089-.21.157-.3.518-.669,1-1.368,1.57-1.994,3.322-3.674,6.833-7.176,9.959-11.031a108.075,108.075,0,0,0,6.6-8.583c.376-.573.717-1.171,1.161-1.9a1.48,1.48,0,0,0-1.524.884,32.973,32.973,0,0,1-3.89,4.679c-2.211,2.4-4.445,4.787-6.641,7.205-1,1.1-2.016,2.224-2.923,3.385-1.351,1.729-2.667,3.471-4.135,5.113C854.828,2573.583,852.966,2575.99,850.99,2578.39Zm17.243-28.55c-.485.55-1.077,1.31-1.759,1.976a62.261,62.261,0,0,0-6.564,6.761c-1.865,2.465-4.079,4.67-6.18,6.952-2.559,2.78-5.159,5.521-7.8,8.337.066.243.139.571.25.887a2.6,2.6,0,0,0,.3.474c.328-.231.555-.376.765-.543a19.832,19.832,0,0,0,2.782-3.167q3.87-4.694,7.847-9.3c1.582-1.829,3.254-3.581,4.9-5.35.614-.659,1.291-1.259,1.921-1.9,1.1-1.124,2.167-2.279,3.281-3.388,1.315-1.309,2.666-2.58,3.994-3.876.062-.061.045-.2.071-.341l-.426-.32Zm10,1.623c-.279.32-.4.434-.493.571-1.02,1.553-2.027,3.113-3.052,4.662-.556.839-1.138,1.662-1.713,2.488-2.326,3.346-5.244,6.2-7.823,9.334s-5.369,6.095-8.024,9.168a35.886,35.886,0,0,0-2.194,3c-.106.152-.056.414-.083.672l1.2.245c.832-1.115,1.662-2.238,2.505-3.352,1.354-1.789,2.676-3.6,4.088-5.348,1.136-1.4,2.411-2.685,3.577-4.062,1.345-1.59,2.559-3.3,3.971-4.823a94.54,94.54,0,0,0,6.628-8.561c.755-1.031,1.349-2.179,2.065-3.353Zm1.45,1.426c-.6.863-1.116,1.525-1.537,2.244a56.88,56.88,0,0,1-4.137,5.752c-1.511,1.968-3.126,3.857-4.717,5.762-1.229,1.471-2.494,2.91-3.738,4.368-1.062,1.243-2.181,2.445-3.163,3.749-1.9,2.518-3.714,5.095-5.558,7.653-.051.071-.02.2-.034.41l1.05.337c.578-.717,1.132-1.348,1.624-2.024,1.755-2.412,3.487-4.84,5.232-7.258.593-.822,1.151-1.676,1.811-2.441,1.8-2.091,3.777-4.048,5.456-6.232,2.338-3.041,4.489-6.227,6.678-9.38A4.3,4.3,0,0,0,879.685,2552.889Zm-18.727,32.348c.724.446,1.077.03,1.376-.366,1.522-2.024,3.048-4.047,4.526-6.1,1.119-1.558,2.109-3.212,3.262-4.743,1.729-2.3,3.442-4.6,4.968-7.04a42.572,42.572,0,0,1,3.3-4.71,22.653,22.653,0,0,0,3.735-6.779,2.123,2.123,0,0,0,.008-.614c-.221.15-.344.19-.391.272-.8,1.418-1.582,2.847-2.391,4.26a109.512,109.512,0,0,1-8.039,11.266c-1.631,2.161-3.416,4.206-5.016,6.389-1.667,2.273-3.2,4.644-4.774,6.985A8.673,8.673,0,0,0,860.958,2585.237Zm13.583-35.967c-.248-.068-.408-.154-.447-.117a292.227,292.227,0,0,0-23.878,27.122,8.086,8.086,0,0,0-.571,1.055c.466-.079.788-.036.937-.176a24.282,24.282,0,0,0,1.873-1.949c1.019-1.208,1.951-2.49,2.992-3.677a45.257,45.257,0,0,0,4.269-5.232,3.132,3.132,0,0,1,.333-.385q2.5-2.754,5.01-5.506c2.387-2.627,4.8-5.23,7.143-7.9C873.065,2551.521,873.748,2550.379,874.541,2549.27Zm-32.454,20.622c1.756-1.584,3.394-3.042,5.008-4.526a22.808,22.808,0,0,0,2.78-2.716c1.787-2.323,4.015-4.225,5.939-6.419,2.08-2.371,4.472-4.466,6.722-6.687q2.765-2.73,5.507-5.48c.038-.039-.028-.181-.075-.439a6.612,6.612,0,0,0-1.713,1.034q-3.57,3.216-7.1,6.482c-.736.682-1.441,1.4-2.111,2.147-1.656,1.845-3.22,3.777-4.941,5.558-1.992,2.063-4.152,3.962-6.165,6.006a22.286,22.286,0,0,1-4.841,4.1c-.06.034-.046.2-.081.385Zm17.6,14.852,1.8-2.522c2.1-2.936,4.142-5.912,6.308-8.8,1.827-2.433,3.9-4.687,5.672-7.155,1.669-2.323,3.406-4.6,4.912-7.049a54.682,54.682,0,0,0,2.84-5.164c.021-.045-.1-.159-.252-.383-.321.51-.615.959-.89,1.42-.43.72-.822,1.463-1.276,2.168-.487.757-1.016,1.489-1.547,2.217-1.756,2.409-3.454,4.865-5.3,7.2-2.3,2.918-4.739,5.732-7.1,8.6-.574.7-1.118,1.418-1.642,2.152-1.463,2.049-2.909,4.111-4.377,6.19Zm-5.926-4.481c.313-.358.617-.688.9-1.033,1.433-1.747,2.832-3.523,4.3-5.242,2.272-2.665,4.585-5.295,6.888-7.933a37.917,37.917,0,0,1,2.835-3.147,28.238,28.238,0,0,0,4.083-5.163c.763-1.122,1.586-2.2,2.354-3.32.576-.837,1.131-1.692,1.648-2.566a4.9,4.9,0,0,0,.259-1.214,5.89,5.89,0,0,0-.939.928,30.778,30.778,0,0,1-2.557,3.551c-1.736,2.292-3.363,4.659-5.3,6.8-2.562,2.836-5.048,5.742-7.569,8.616q-3.456,3.94-6.92,7.873a1.777,1.777,0,0,0-.612,1.536Zm26.88-19.327c-.905,1.2-1.656,2.095-2.3,3.063-1.317,1.968-2.525,4.011-3.876,5.954-1.412,2.033-2.966,3.967-4.409,5.98-1.543,2.151-3.015,4.353-4.551,6.509a16.345,16.345,0,0,1-1.477,1.543l-1.066,2.351,1.04.246c.2-.251.411-.512.61-.785.9-1.227,1.8-2.452,2.681-3.688,1.868-2.609,3.781-5.189,5.577-7.848,2.4-3.554,4.711-7.17,7.053-10.764A4.574,4.574,0,0,0,880.645,2560.936Zm-32.226,16.041c.935-1.1,1.679-1.935,2.381-2.8,1.024-1.268,2.005-2.57,3.028-3.838,1.6-1.976,3.222-3.927,4.81-5.908.385-.48.606-1.1,1.013-1.552,1.128-1.259,2.311-2.469,3.478-3.692q3.331-3.489,6.67-6.973c1.053-1.1,2.11-2.2,3.145-3.318a1.942,1.942,0,0,0,.25-.634,22.541,22.541,0,0,0-3.768,3.151q-3.146,3.186-6.221,6.441c-1.4,1.475-2.8,2.951-4.125,4.5-.654.766-1.083,1.728-1.712,1.948l-9.546,11.537Zm38.1-20.655-.286-.084c-.631,1.42-1.21,2.866-1.9,4.254-1.132,2.263-2.35,4.482-3.513,6.73a56.759,56.759,0,0,1-4.48,7.356c-1.758,2.42-3.478,4.867-5.231,7.292-1.416,1.958-2.855,3.9-4.318,5.9l.49.78a9.848,9.848,0,0,0,1.049-.927c.984-1.164,1.993-2.313,2.883-3.547.854-1.185,1.485-2.535,2.365-3.7,2.458-3.246,4.422-6.806,6.6-10.228a74.931,74.931,0,0,0,6.188-12.759A4.7,4.7,0,0,0,886.519,2556.322Zm-19.1-14.113c-.479.063-.721.027-.872.128-.607.406-1.163.892-1.78,1.28-3.044,1.91-5.371,4.634-7.957,7.054-1.6,1.5-2.88,3.319-4.387,4.918-1.187,1.259-2.03,2.8-3.435,3.887-1.868,1.448-3.252,3.434-5.256,4.765a29.612,29.612,0,0,1-3.722,2.611,2.928,2.928,0,0,0-.557.473,6.272,6.272,0,0,0,.58.622,3.677,3.677,0,0,0,.633.332c.976-.8,1.986-1.515,2.869-2.365,2.316-2.228,4.59-4.5,6.852-6.784.993-1,1.906-2.084,2.872-3.113,1.892-2.015,3.777-4.038,5.7-6.022a41.6,41.6,0,0,1,5.911-5.322A9.949,9.949,0,0,0,867.416,2542.209Zm1.641,2.281a14.809,14.809,0,0,0-3.015,2.731c-2.476,2.465-4.96,4.923-7.411,7.411-1.726,1.752-3.413,3.543-5.1,5.329-2.081,2.2-4.115,4.445-6.232,6.61-1.058,1.083-2.252,2.034-3.389,3.041-.445.394-.664,1.08-1.41,1.1a1.574,1.574,0,0,0-.11.387l1.035.566c1.853-1.724,3.73-3.347,5.461-5.112,1.934-1.971,3.718-4.088,5.6-6.111,2.379-2.556,4.757-5.116,7.2-7.61,2.521-2.572,4.761-5.44,7.756-7.527.066-.046.052-.206.091-.385ZM885.2,2555.4c-.264.177-.393.216-.434.3-1.141,2.322-2.225,4.673-3.423,6.965a64.251,64.251,0,0,1-3.281,5.727c-1.8,2.728-3.779,5.342-5.653,8.024-1.742,2.493-3.436,5.02-5.174,7.516-.763,1.095-1.583,2.152-2.451,3.326l.875.473c1.268-1.737,2.51-3.41,3.721-5.107q2.015-2.825,3.98-5.684c1.568-2.274,3.211-4.5,4.646-6.861,1.613-2.648,3.066-5.4,4.522-8.137.9-1.691,1.69-3.44,2.483-5.184A5.245,5.245,0,0,0,885.2,2555.4Zm-19.279-13.834-.139-.306c-.2.051-.409.09-.607.154a13.192,13.192,0,0,0-3.763,2.523,48.728,48.728,0,0,0-6.757,6.592c-1.157,1.3-2.235,2.678-3.405,3.97s-2.4,2.521-3.61,3.766a37.462,37.462,0,0,1-2.98,2.959c-1.479,1.209-3.076,2.275-4.638,3.38-.451.319-.975.544-1.057,1.238.6.4,1.042.01,1.492-.309a59.673,59.673,0,0,0,7.555-6.488,24.223,24.223,0,0,0,2.8-2.907,59.908,59.908,0,0,1,4.357-5.142c1.251-1.377,2.567-2.7,3.922-3.975,1.1-1.037,2.291-1.989,3.477-2.934C863.654,2543.215,864.795,2542.4,865.916,2541.566Zm22.347,18.311-.338-.177q-.4.91-.794,1.822c-1.1,2.523-1.923,5.142-3.272,7.587-1.144,2.072-2.366,4.1-3.558,6.136-.91,1.557-2,3.009-2.943,4.547a69.987,69.987,0,0,1-6.236,9.035,1.144,1.144,0,0,0-.145,1.472,4.63,4.63,0,0,0,.741-.67c2.341-3.38,4.736-6.726,6.973-10.174,1.716-2.645,3.228-5.422,4.832-8.139a1.534,1.534,0,0,1,.293-.408,5.819,5.819,0,0,0,1.5-2.608q.836-2.217,1.614-4.458C887.39,2562.526,887.82,2561.2,888.263,2559.877ZM844.7,2573.6c.516-.577.765-.873,1.032-1.152,2.455-2.564,4.946-5.1,7.361-7.7,2.032-2.187,3.982-4.45,5.951-6.694.133-.152.12-.432.221-.833a4.131,4.131,0,0,0-.777.461c-2.785,2.956-5.548,5.932-8.343,8.879-1.119,1.181-2.3,2.308-3.462,3.444-.877.855-1.778,1.685-2.892,2.738Zm42.222-34.02c-.314.513-.631,1.024-.942,1.538a21.341,21.341,0,0,1-1.315,2.157c-1.488,1.9-3.038,3.76-4.559,5.639a4.675,4.675,0,0,0-.305.519l1.3.584C883.634,2547.2,886.9,2541.625,886.919,2539.576Zm-2.319,12.136c2.581-2.079,3.788-5.015,4.9-7.991a3.375,3.375,0,0,0,.155-2.782c-.216.25-.359.353-.417.492-.694,1.645-1.363,3.3-2.068,4.94a10.652,10.652,0,0,1-.739,1.311,17.344,17.344,0,0,0-2.228,3.682Zm-5.925-2.881a34.065,34.065,0,0,0,3.935-4.347c1.846-2.319,2.645-3.577,2.916-4.974-.445.517-.765.879-1.073,1.251a30.946,30.946,0,0,1-2.025,2.44c-1.482,1.456-3.047,2.828-4.566,4.246-.106.1-.119.3-.2.5Zm-7.769-6.7c.94-1,1.855-2.027,2.828-2.994a11.817,11.817,0,0,1,3.675-2.377c1.263-.552,2.582-.977,4.2-1.58a13.7,13.7,0,0,0-8.041,2.632,11.023,11.023,0,0,0-2.871,3.056A.821.821,0,0,0,870.906,2542.135Zm3.962,3.894c1.482-.722,2.233-1.892,3.251-2.737,1.082-.9,2.062-1.917,3.081-2.89.939-.9,1.87-1.8,2.8-2.7a8.588,8.588,0,0,0-3.36,1.908c-1.025.792-2.005,1.643-3.05,2.407a9.045,9.045,0,0,0-2.477,2.742A4.563,4.563,0,0,0,874.868,2546.029Zm14-8.076-.326-.071a16.478,16.478,0,0,1-1.608,4.682,30.361,30.361,0,0,1-3.768,6.536,2.107,2.107,0,0,0-.652,1.8,3.824,3.824,0,0,0,.749-.529c.421-.525.77-1.11,1.2-1.63a23.185,23.185,0,0,0,4.389-9.2A6.606,6.606,0,0,0,888.866,2537.953Zm-12.2,9.19,5.373-4.653a28.917,28.917,0,0,0,2.761-3.833c-.374.14-.553.156-.655.253-2.709,2.558-5.409,5.125-8.182,7.758Zm-6.281-1.336a21.035,21.035,0,0,0-3.712,2.986c-1.324,1.384-2.643,2.774-3.92,4.2a6.97,6.97,0,0,0-1.775,2.662l9.66-9.214Zm-1.9-6.591a12.833,12.833,0,0,0,1.244-1.463,6.892,6.892,0,0,1,3.215-2.833c.818-.363,1.666-.66,2.505-.974.593-.221,1.194-.421,1.818-.64-.123-.184-.154-.266-.182-.265a10.565,10.565,0,0,0-7.207,2.6A4.5,4.5,0,0,0,868.486,2539.216Zm10.714-1.85a3.012,3.012,0,0,0-2.287.594c-.874.623-1.724,1.282-2.622,1.865-1.033.671-1.518,1.787-2.274,2.679-.268.317-.363.85.4,1.106A30.8,30.8,0,0,1,879.2,2537.366Zm2.085.5-.167-.265a29.86,29.86,0,0,0-2.895,1.538A21.943,21.943,0,0,0,874.05,2543a2.215,2.215,0,0,0-.48,1.911,6.582,6.582,0,0,0,.939-.92,11.439,11.439,0,0,1,3.338-3.282C879.068,2539.87,880.144,2538.823,881.285,2537.868Zm-11.614,2.026c1.641-1.335,2.957-2.436,4.306-3.493,1.406-1.1,3.24-1.268,5.166-2.116a14.5,14.5,0,0,0-8.458,3.2Zm24.595-10.08a7.661,7.661,0,0,0-5.475-4.12l-.573.643a33.352,33.352,0,0,1,3,1.718,29.494,29.494,0,0,1,2.467,2.188Zm-2.533,15.81-.357-.158a3.551,3.551,0,0,0-.388.886,11.084,11.084,0,0,1-2.22,5.2,2.523,2.523,0,0,0-.565,1.582A10.258,10.258,0,0,0,891.733,2545.624Zm-2.062.7c-.588,1-1.226,1.98-1.752,3.014s-1.652,1.784-1.757,3.046a.7.7,0,0,0,1.1-.259C888.306,2550.3,889.963,2548.737,889.671,2546.319Zm-2.135-12.166a10.792,10.792,0,0,0,3.154-4.535,5.8,5.8,0,0,0-2.861,2.793C887.552,2532.919,887.032,2533.377,887.536,2534.153Zm.617,1.582a5.441,5.441,0,0,0,3.314-5.11C890.446,2532.411,888.943,2533.643,888.153,2535.735Zm-1.944-7.758A3.655,3.655,0,0,0,883,2531.3a1.292,1.292,0,0,0,.86,1.694C883.228,2530.5,884.977,2529.4,886.209,2527.977Zm6.376,4.062c-.824.557-.8,1.559-1.289,2.287-.512.76-1.068,1.49-1.6,2.233l.324.243A5.888,5.888,0,0,0,892.585,2532.039Zm-6.8,2.335,3.089-5.087c-1.318.658-1.4.737-2.692,2.779C886.073,2532.7,885.954,2533.39,885.785,2534.374Zm6.505,14.817-2.156,3.977C891.615,2552.587,892.4,2551.2,892.29,2549.191Zm-7.748-16.883.307.2,1.786-3.085A3.943,3.943,0,0,0,884.542,2532.308Zm3.222,24.053c-.665.73-.665.73-.277,1.785A1.869,1.869,0,0,0,887.764,2556.361Zm-4.652-.435a.936.936,0,0,0,.456-1.369C883.375,2555.136,883.244,2555.531,883.112,2555.926Z" fill="#424242"/>
    <path id="パス_77" data-name="パス 77" d="M963.687,2419.608a15.861,15.861,0,0,1-.858,1.623c-2.375,3.5-4.807,6.958-6.991,10.588a22.449,22.449,0,0,1-2.867,3.976,12.482,12.482,0,0,0-1.9,2.988,34.669,34.669,0,0,1-4.783,7.158,39.027,39.027,0,0,0-2.8,3.826c-2.145,3.178-4.222,6.4-6.378,9.573q-4.522,6.654-9.124,13.255c-1.159,1.672-2.361,3.314-3.572,4.949a3.287,3.287,0,0,1-.785.579l-.448-.453c2.492-3.488,5.038-6.938,7.464-10.472,3.413-4.973,6.9-9.894,10.124-15a86.289,86.289,0,0,1,6.327-8.791,49.331,49.331,0,0,0,3.326-5.106,39.566,39.566,0,0,1,3.143-4.382,32.878,32.878,0,0,0,2.455-3.851,64.38,64.38,0,0,1,4.8-7.11c.889-1.072,1.585-2.3,2.384-3.482Z" fill="#424242"/>
    <path id="パス_78" data-name="パス 78" d="M923.176,2477.67l.448.453c-.61.874-1.223,1.746-1.829,2.623-1.153,1.665-2.3,3.335-3.454,5q-2.64,3.8-5.3,7.593a6.194,6.194,0,0,1-.7.722l-.362-.356a5.181,5.181,0,0,1,.465-1.23c.81-1.146,1.706-2.229,2.525-3.368.848-1.181,1.648-2.4,2.462-3.6.753-1.115,1.454-2.268,2.254-3.349C920.814,2480.634,922.01,2479.163,923.176,2477.67Z" fill="#424242"/>
    <path id="パス_79" data-name="パス 79" d="M911.349,2495.465a17.576,17.576,0,0,1-3.409,5.095,5.29,5.29,0,0,1-1.4.825c.539-.9,1.042-1.814,1.624-2.68.647-.963,1.353-1.887,2.059-2.809a7.729,7.729,0,0,1,.8-.793C911.135,2495.223,911.242,2495.344,911.349,2495.465Z" fill="#424242"/>
    <path id="パス_80" data-name="パス 80" d="M911.349,2495.465c-.107-.121-.214-.242-.322-.362a1.25,1.25,0,0,1,.955-1.4l.362.356A1.733,1.733,0,0,1,911.349,2495.465Z" fill="#424242"/>
  </g>
</svg>
