<svg xmlns="http://www.w3.org/2000/svg" width="136.61" height="164.432" viewBox="0 0 136.61 164.432">
  <g id="_91" data-name="91" transform="translate(0 0)">
    <path id="パス_9" data-name="パス 9" d="M1524.359,1129.2a13.926,13.926,0,0,0,4.429-.975c.958-.332,1.188-.747.922-1.705-.1-.362-.291-.7-.389-1.061a4.459,4.459,0,0,1-.1-.745c-1.566-.992-3.062-1.8-4.4-2.821a6.566,6.566,0,0,1-2.957-5.813c.154-2.91.174-5.826.226-8.74.013-.7-.078-1.392-.122-2.088a59.808,59.808,0,0,1,.275-10.26c.041-.373.039-.751.06-1.181a20.352,20.352,0,0,1,7.269-5.178c.043-.88-.55-1.15-1.145-1.328-3.634-1.089-7.276-2.15-10.98-3.24a9.192,9.192,0,0,1,1.425-7.779c2.131-3.118,4.434-6.191,5.241-10.011a16.271,16.271,0,0,0,.463-6.2,51.221,51.221,0,0,1-.5-5.458c-.152-2.481-1.48-4.41-2.927-6.254a12.546,12.546,0,0,0-2.469-2.346,26.319,26.319,0,0,0-6.742-3.847c-1.3-.455-2.652-.789-3.944-1.272-2.484-.929-4.915-2.005-7.42-2.871-2.331-.806-4.754-1.341-7.087-2.141-1.673-.574-3.267-1.38-4.887-2.1-.344-.153-.631-.431-.972-.594a181.953,181.953,0,0,1-16.152-9.229,23.925,23.925,0,0,1-6.114-5.637,2.4,2.4,0,0,1-.429-1.716,52.629,52.629,0,0,0-.213-7.19,49.518,49.518,0,0,0-2.957-12.135c-.715-1.89-1.31-3.84-2.849-5.3a9.025,9.025,0,0,1-.83-1.265,7.54,7.54,0,0,0-1.535-1.9,13.18,13.18,0,0,1-3.91-4.761,12.025,12.025,0,0,0-9.18-6.028,21.954,21.954,0,0,0-5.3-.22c-1.569.153-2.962-.579-4.423-.939a11.415,11.415,0,0,0-3.927-.283,17.171,17.171,0,0,0-5.554,1.161,8.973,8.973,0,0,0-2,1.017,23.681,23.681,0,0,0-6.564,7.544c-.171.34-.361.671-.526,1.015a9.216,9.216,0,0,1-3.626,4.027,17.023,17.023,0,0,0-4.5,4.581c-1.269,1.664-2.5,3.357-3.713,5.062a16.864,16.864,0,0,0-2.573,5.469,11.322,11.322,0,0,0-.719,3.485c.031.683-.684,1.37-.776,2.092-.327,2.566-.633,5.143-.747,7.725a12,12,0,0,1-1.492,5.015,44.955,44.955,0,0,0-2.287,5.813,21.621,21.621,0,0,0-1.2,8.4c.076,1.246-.349,2.518-.331,3.774.029,1.958.217,3.914.384,5.867.157,1.83.387,3.654.561,5.483a24.927,24.927,0,0,0,1.35,6.1,13.957,13.957,0,0,1,.716,3.9c.21,3.271.178,6.552.955,9.793a26.611,26.611,0,0,0,4.508,9.743,58.007,58.007,0,0,0,4.063,4.861,9.465,9.465,0,0,0,2.3,1.6c1.425.816,2.892,1.557,4.339,2.335.166.09.319.319.468.31,1.556-.095,2.238,1.23,3.276,1.973,1.077.772,2.1,1.633,3.241,2.295a9.06,9.06,0,0,0,5.716.923,21.444,21.444,0,0,0,3.351-.649,20.206,20.206,0,0,0,8.907-4.865c1.176-1.147,2.414-2.23,3.78-3.485l2.325,1.653c-.106,1.706-.225,3.4-.313,5.1q-.093,1.8-.116,3.61c-.036,3.045-.024,6.092-.086,9.137-.032,1.582-.171,3.163-.286,4.742a1.672,1.672,0,0,1-.254.9c-1.692,2.033-3.309,4.193-6.32,4.3a9.9,9.9,0,0,0-1.18.191c-.166.906-.374,1.762-.47,2.631a1.846,1.846,0,0,0,1.38,2.185c2.831,1.1,5.675,2.177,8.49,3.318,2.981,1.209,5.912,2.541,8.907,3.712,3.12,1.22,6.277,2.35,9.442,3.449,4.3,1.493,8.618,2.936,12.938,4.369q4.045,1.341,8.125,2.578a2.858,2.858,0,0,0,1.448.055c3.807-.947,7.621-1.876,11.4-2.937,2.977-.836,5.893-1.884,8.855-2.778,2-.6,4.032-1.073,6.036-1.654,1.82-.527,3.62-1.122,5.428-1.692a8.854,8.854,0,0,1,.892-.316,42.54,42.54,0,0,0,6.663-2.321,2.976,2.976,0,0,0-1.041-.188c-1.233.244-2.461.531-3.672.869-1.945.542-3.875,1.139-5.812,1.708s-3.881,1.131-5.82,1.7a70.365,70.365,0,0,0-7.43,2.255,43.779,43.779,0,0,1-5.966,1.7c-2.441.64-4.951,1.018-7.345,1.877a5.342,5.342,0,0,1-3.208.356v-1.178c.467-.122.889-.224,1.307-.343,2.8-.793,5.589-1.6,8.387-2.383s5.59-1.554,8.391-2.307c1.642-.441,3.3-.812,4.943-1.262a31.451,31.451,0,0,1,3.055-.962,55.427,55.427,0,0,0,10.294-3.1c2.37-.886,4.786-1.523,7.21-2.181a1.81,1.81,0,0,1,.594.064c.121.418.239.826.4,1.4a10.618,10.618,0,0,0-1.457.476C1526.279,1128.175,1524.943,1127.976,1524.359,1129.2Zm-77.883-13.135a2.477,2.477,0,0,1,.565.078q5.128,1.962,10.253,3.938c.53.2,1.058.418,1.6.576a53.231,53.231,0,0,1,9.218,3.51,16.4,16.4,0,0,0,2.463.994c2.954.931,5.925,1.807,8.88,2.73a22.556,22.556,0,0,1,2.477.943c.289.13.493.454,1.035.979a11.56,11.56,0,0,1-1.46-.189c-1.45-.435-2.907-.855-4.333-1.362-2.743-.976-5.471-1.992-8.2-3.017-3.193-1.2-6.376-2.431-9.563-3.65a73.484,73.484,0,0,1-6.821-2.74c-1.628-.817-3.4-1.347-5.083-2.053a4.658,4.658,0,0,1-.989-.787c-1.629.045-2.1-.142-2.9-1.374Zm5.4-76.411c-.749,2.584-1.374,4.893-2.1,7.171-.316.995-.634,1.089-1.764.98a4.007,4.007,0,0,0-1.3-.093,20.826,20.826,0,0,1-5.837.561c-1.821-.049-3.445.79-5.173,1.157-2.108.448-4.271.682-6.34,1.26-3.962,1.107-7.856,2.453-11.811,3.583a53.384,53.384,0,0,0-11.083,4.4c-2.034,1.113-4.2,1.983-6.374,2.992a6.376,6.376,0,0,1-.542-1.124c-.383-1.584-.7-3.184-1.086-4.769a40.164,40.164,0,0,1-1.226-9.175,57.458,57.458,0,0,1,1.226-13.214,40.662,40.662,0,0,1,2.361-7.79c.221-.489.533-.937.846-1.478,1.289.7,2.383,1.324,3.508,1.892a91.681,91.681,0,0,0,8.334,4.092,78.371,78.371,0,0,0,10.627,3.516c2.284.518,4.519,1.253,6.8,1.781,2.529.586,5.083,1.06,7.631,1.559,3.166.62,6.34,1.2,9.506,1.827C1449.247,1039.016,1450.4,1039.316,1451.875,1039.656Zm-37.682-45.141c.51.795,1,1.518,1.448,2.263a67.072,67.072,0,0,0,6.095,8.473,72.941,72.941,0,0,0,9.7,9.563c2.795,2.282,5.721,4.409,8.643,6.53,2,1.45,4.1,2.748,6.132,4.157,1.717,1.191,3.363,2.485,5.1,3.65a2.305,2.305,0,0,1,1.207,2.173c-.095,1.955-.15,3.911-.271,5.864a3.521,3.521,0,0,1-.455,1.044c-3.757-.652-7.438-1.258-11.1-1.938q-4.107-.76-8.182-1.684c-2.282-.519-4.54-1.148-6.8-1.743a51.433,51.433,0,0,1-5.306-1.463q-5.758-2.2-11.411-4.67c-1.906-.837-3.684-1.967-5.522-2.961a1.8,1.8,0,0,1-1.117-1.627,40.875,40.875,0,0,1,.284-4.918,48.4,48.4,0,0,1,1.86-7.539,33.662,33.662,0,0,1,5.084-10.513A18.247,18.247,0,0,1,1414.193,994.515Zm20.461-12.8a42.209,42.209,0,0,0,.755,12.186c.753,4.023,1.813,7.982,4.206,11.507.657-.866.684-.879.356-1.549a40.906,40.906,0,0,1-3.726-12.51c-.224-1.63-.452-3.267-.521-4.907a10.817,10.817,0,0,1,.263-4.213c.8-.183,1.475-.34,2.154-.495a9.791,9.791,0,0,1,5.61.409,12.99,12.99,0,0,1,6.065,4.318,17.658,17.658,0,0,0,1.268,1.416c1.323,1.406,1.342,1.609.4,3.3a19.321,19.321,0,0,0-2.3,8.542,49.015,49.015,0,0,0,.236,5.085,60.336,60.336,0,0,0,1.779,11.05,15.646,15.646,0,0,1,.219,1.788,45.726,45.726,0,0,1-5.734-5.544,48.053,48.053,0,0,1-4.747-6.507c-.8.77-.573,1.328-.117,1.978a58.906,58.906,0,0,0,6.557,8.111c1.3,1.295,2.521,2.673,3.8,3.989a2.837,2.837,0,0,1,.932,1.8c.156,1.89.379,3.774.537,5.664a6.98,6.98,0,0,1-.178,1.357c-.623-.406-1.051-.668-1.463-.955-2.387-1.663-4.787-3.31-7.152-5-3.088-2.213-6.211-4.386-9.2-6.721a76.975,76.975,0,0,1-11.527-10.691,90.68,90.68,0,0,1-7.776-10.865c.332-.611.621-1.24,1-1.813a16.344,16.344,0,0,0,1.725-2.494,19.154,19.154,0,0,1,3.554-5.115,11.689,11.689,0,0,1,9.251-4.469A5.327,5.327,0,0,1,1434.654,981.716Zm-20.369,106.568c-2.134.234-2.622.085-4.159-1.31-.935-.848-1.941-1.63-2.8-2.552a19.092,19.092,0,0,1-2.839-3.513,34.4,34.4,0,0,1-4.1-12.133c-.264-1.929-.649-3.894.072-5.838a24.945,24.945,0,0,1,5.863-3,12.3,12.3,0,0,0,1.723-.8,55.714,55.714,0,0,1,8.968-3.48c3.6-1.226,7.275-2.183,10.919-3.25a19.669,19.669,0,0,1,3.467-.861,35.13,35.13,0,0,0,4.068-.9c2.269-.522,4.473-1.378,6.863-1.273a12.3,12.3,0,0,0,4.31-.48,3.1,3.1,0,0,1,2.334.44c-.752,1.765-1.5,3.495-2.227,5.233-.463,1.1-1.03,2.029-2.428,2.068-.343.009-.681.309-1.017.485a84.369,84.369,0,0,0-8.228,5.07,43.463,43.463,0,0,0-9.372,9.038c-2.76,3.46-5.279,7.119-7.777,10.777C1416.619,1083.924,1415.578,1086.032,1414.285,1088.284Zm96.693-18.557a3.475,3.475,0,0,1-2.834-.014,28.1,28.1,0,0,1-4.979-1.773c-1.985-.945-4.11-1.595-6.147-2.44a3.041,3.041,0,0,1-1.274-1.029,4.358,4.358,0,0,0-5.287-1.753,2.971,2.971,0,0,1-2.026.065,5.469,5.469,0,0,0-3.347-.047,2.749,2.749,0,0,1-2.57-.183c-.961-.7-2.144-.7-3.191-1.071-2.3-.813-4.118-.072-6.036,1.077a6.37,6.37,0,0,0-3.195,4.9c-.381,3.166.382,6.039,2.936,8.111v2.479c-.266.043-.695.116-1.125.182-2.62.4-5.245.781-7.858,1.225-.8.136-1.549.5-2.34.687-3.066.723-6.14,1.418-9.212,2.12-.494.113-.988.229-1.487.318q-2.622.473-5.247.921a5.414,5.414,0,0,1-.859.007c.078-.25.077-.416.155-.471a29.819,29.819,0,0,0,8.092-7.858c2.058-3.143,4.213-6.183,5.183-9.857a2.627,2.627,0,0,1,1.8-1.969c3.428-1.294,6.909-2.433,10.426-3.453a60.286,60.286,0,0,1,12.478-2.211c4.282-.308,8.516-1.254,12.843-1.014a11.436,11.436,0,0,0,2.256-.282,22.725,22.725,0,0,1,3.569-.526c2.974.04,5.947.226,8.917.408a7.48,7.48,0,0,1,1.7.585c-.713.667-1.209,1.142-1.716,1.6a4.632,4.632,0,0,0-1.265,4.856c.112.487.16.989.275,1.476.277,1.168.565,2.334.874,3.494C1510.613,1068.767,1510.8,1069.223,1510.978,1069.727Zm-68.121,10.353c-.262.376-.452.63-.621.9a42.72,42.72,0,0,1-6.851,8.744c-.364.335-.54.918-.94,1.167-2.83,1.761-5.642,3.647-9.131,3.75-1.471.044-2.981.386-4.4-.555-2.227-1.475-4.311-3.034-5.386-5.762,1.023-1.715,2.022-3.55,3.174-5.285,1.785-2.688,3.685-5.3,5.519-7.958a53.787,53.787,0,0,1,7.561-8.748,50.938,50.938,0,0,1,12.59-8.345,2.9,2.9,0,0,1,.776-.05c-1.073,3.681-2.4,7.164-2.616,10.92C1442.311,1072.592,1442.046,1076.312,1442.857,1080.08Zm70.653,3.826,13.161,4.172c-.924.323-1.422.55-1.944.672-3.574.832-7.169,1.575-10.725,2.475-4.047,1.025-8.138,1.855-12.141,3.1-4.1,1.271-8.326,2.11-12.485,3.183a17.169,17.169,0,0,1-9.334-.25c-3.944-1.154-7.933-2.134-11.83-3.469-2.5-.858-5.138-1.337-7.712-1.991-2.437-.619-4.891-1.179-7.3-1.884-2.91-.851-5.783-1.826-8.67-2.751-.585-.187-1.286-.186-1.561-.907.268-1.125,1.012-1.449,2.106-1.452a11.834,11.834,0,0,0,2.394-.412c2.681-.575,5.359-1.167,8.147-1.776-.78,2.55-.192,4.529,1.661,5.394a45.812,45.812,0,0,0,5.118,1.975,62.8,62.8,0,0,0,10.707,2.354c1.5.216,3.011.4,4.524.491,3.474.211,6.951.373,10.429.515a13.722,13.722,0,0,0,2.634-.141c2.3-.358,4.6-.772,6.9-1.191,1.864-.34,3.755-.594,5.57-1.111,2.905-.826,5.756-1.841,8.631-2.769a10.771,10.771,0,0,0,1.094-.3c.668-.3,1.193-.737,1.043-1.593C1513.783,1085.456,1513.646,1084.677,1513.51,1083.906ZM1453.4,990.6c1.108.228,1.081,1.174,1.49,1.766a35.94,35.94,0,0,1,4.241,7.992c.411,1.116.529,2.337.882,3.479a28.038,28.038,0,0,1,1.532,8.91,10.942,10.942,0,0,0-.091,2.4c.347,1.507-.181,2.892-.191,4.332a1.3,1.3,0,0,1-1.055,1.375c-1.329.4-2.666.788-3.95,1.3a26.43,26.43,0,0,0-2.747,1.505c-.125-1.442-.148-2.693-.355-3.912-.584-3.425-1.13-6.862-1.9-10.246a44.347,44.347,0,0,1-.772-10.573,19.044,19.044,0,0,1,1.832-6.942A6.167,6.167,0,0,1,1453.4,990.6Zm-9.373,88.776a20.107,20.107,0,0,1-.415-3.08c.071-3.218.073-6.453.434-9.644a30.671,30.671,0,0,1,3.192-10.272c.622-1.244,1.124-2.547,1.737-3.8.652-1.327.867-2.862,1.811-4.082a4.9,4.9,0,0,1,.594.316c1.461,1.091,2.9,2.215,4.385,3.273a1.482,1.482,0,0,1,.643,1.453,43.9,43.9,0,0,1-3.876,16.494,14.541,14.541,0,0,1-3.9,5.277,9.192,9.192,0,0,0-1.684,1.785A6.067,6.067,0,0,1,1444.028,1079.376Zm15.421-17.291a2.819,2.819,0,0,1-.078-.994,26.085,26.085,0,0,0,1-7.279,3.991,3.991,0,0,1,3.551-3.6c1.627-.22,3.268-.378,4.876-.7a22.552,22.552,0,0,1,5.063-.444c2.211.058,4.425.024,6.635.091,2.072.063,4.141.206,6.3.318a7,7,0,0,1-.17,1.043,15.9,15.9,0,0,1-2.713,4.941,2.859,2.859,0,0,1-2.057,1.183c-.819.076-1.648.115-2.454.266-2.977.558-5.961,1.094-8.914,1.762-1.838.415-3.641,1.006-5.432,1.6-1.551.516-3.058,1.161-4.595,1.72A4.406,4.406,0,0,1,1459.449,1062.085Zm1.67-40.062a20.052,20.052,0,0,1,.641,2.132,44.506,44.506,0,0,1,.281,15.439,26.783,26.783,0,0,1-5.006,10.9,2.452,2.452,0,0,1-.639.447,5.9,5.9,0,0,1-1.2-.579c-.843-.668-1.619-1.42-2.447-2.107-1.057-.877-1.691-1.851-1.084-3.289a14.878,14.878,0,0,0,.425-1.649,33.7,33.7,0,0,0,1.574-9.31c.006-1.3-.154-2.673.641-3.87a.606.606,0,0,0-.037-.538c-.574-.875-.227-1.862-.379-2.782a2.576,2.576,0,0,1,1.647-2.9A18.868,18.868,0,0,1,1461.119,1022.023Zm21.606,113.748a6.384,6.384,0,0,1-1.226-.127q-4.416-1.436-8.818-2.919c-2.33-.787-4.647-1.611-6.971-2.419-1.9-.661-3.82-1.274-5.7-1.994-2.89-1.109-5.76-2.273-8.624-3.45-2.1-.863-4.158-1.831-6.268-2.667s-4.272-1.566-6.407-2.355c-.313-.116-.6-.306-1.324-.683a9.8,9.8,0,0,0,4.936-3.157c4.5,1.808,8.94,3.622,13.4,5.37,4.536,1.778,9.126,3.423,13.64,5.253,4.433,1.8,9.127,2.866,13.36,4.685Zm-16.067-101.659c.4.159.674.279.953.373,1.508.507,2.544,1.786,4.069,2.34,2.726.99,5.349,2.261,8.046,3.336s5.415,2.044,8.188,3.084c.012,1.561.367,3.148-.747,4.713a21.744,21.744,0,0,1-3.494.123,15.338,15.338,0,0,0-3.748-.173c-.979.124-2.012-.254-3.009-.2-3.912.207-7.846.214-11.687,1.176a2.187,2.187,0,0,1-2.12-.254C1465.458,1044.127,1466.158,1039.211,1466.658,1034.112Zm17.523,98.315c1.461-.392,2.924-.759,4.372-1.179,3.64-1.054,7.273-2.131,10.908-3.2,1.992-.586,3.991-1.152,5.973-1.772,5.007-1.567,10.087-2.91,14.981-4.83a12.133,12.133,0,0,1,1.617-.437l4.6,3.9a18.932,18.932,0,0,1-2.093.806,18.616,18.616,0,0,0-2.94.6c-4.534,2-9.346,3.088-14.073,4.452-2.913.84-5.864,1.548-8.782,2.371-3.092.872-6.153,1.858-9.254,2.7-1.681.457-3.345,1.2-5.263.8A10.073,10.073,0,0,1,1484.181,1132.427Zm-19.841-112.873a4.415,4.415,0,0,1,.847.5c1.451,1.774,3.416,2.97,5.069,4.515a6.3,6.3,0,0,0,1.089.759q4.317,2.574,8.643,5.131c2.216,1.3,4.442,2.592,6.785,3.958.786,2.059,1.755,4.269,1.007,6.765a2.943,2.943,0,0,1-2.584-.057c-2.51-1.03-5-2.125-7.563-3a44.09,44.09,0,0,1-9.483-4.72,2.829,2.829,0,0,1-1.536-2.617,29.846,29.846,0,0,0-1.563-8.928C1464.868,1021.208,1464.654,1020.567,1464.34,1019.554Zm46.544,61.983a11.864,11.864,0,0,1-3.724-1c-1.917-.583-3.756-1.41-5.839-1.416a9.894,9.894,0,0,1-2.714-.719c-.481-.148-.931-.4-1.41-.552-2.638-.865-5.275-1.735-7.927-2.558a3.348,3.348,0,0,0-1.819-.205,4.465,4.465,0,0,1-2.355.373,8.428,8.428,0,0,0-2.281.16,4.323,4.323,0,0,0,2.346-3.524c.253-1.468.922-2.876.654-4.438-.112-.656.329-1.05,1.025-1.015a8.1,8.1,0,0,1,1.3.273c.1.285.19.517.267.753a3.028,3.028,0,0,0,2.906,2.314,8.393,8.393,0,0,0,1.319.08,4.134,4.134,0,0,1,2.814.868,19.7,19.7,0,0,0,3.095,1.422c.929.4,1.866.773,2.813,1.123a21.876,21.876,0,0,0,3.744,1.27,45.882,45.882,0,0,0,4.877.314c.618.038,1.234.121,2.224.222C1510.828,1077.224,1510.848,1079.3,1510.884,1081.537Zm-74.868,38.672a30.723,30.723,0,0,1,3.214.876c3.236,1.268,6.447,2.6,9.659,3.928s6.366,2.746,9.6,3.994c2.646,1.023,5.368,1.849,8.053,2.772,2.922,1.006,5.832,2.042,8.76,3.03,2.449.827,4.915,1.6,7.509,2.446-.095.641-.182,1.226-.287,1.94-.657-.166-1.145-.259-1.612-.412-5.405-1.777-10.816-3.536-16.206-5.356-3.235-1.092-6.469-2.2-9.645-3.447-4.928-1.939-9.808-4-14.7-6.021-1.282-.53-2.569-1.057-3.807-1.677C1435.537,1121.776,1435.566,1121.714,1436.016,1120.209Zm88.061-30.019.158.262a6.28,6.28,0,0,0-1,.782,7.756,7.756,0,0,1-4.213,2.4c-2.081.514-4.148,1.082-6.23,1.592-1.769.433-3.554.8-5.326,1.226q-3.873.926-7.739,1.891c-2.7.676-5.382,1.392-8.08,2.063-1.714.427-3.443.792-5.16,1.206a3.685,3.685,0,0,1-2.152.088c-.108-1.944,0-2.089,1.669-2.349.125-.02.255-.006.379-.029,2.051-.39,4.115-.726,6.148-1.193,2.147-.494,4.265-1.113,6.4-1.678.918-.243,1.84-.474,2.754-.733,2.555-.723,5.088-1.526,7.662-2.171,3.5-.877,7.023-1.641,10.539-2.443C1521.274,1090.784,1522.677,1090.493,1524.077,1090.19Zm-41.308,10.924a12.36,12.36,0,0,1-1.272-.162c-1.839-.452-3.669-.939-5.509-1.386-1.721-.419-3.477-.718-5.172-1.222-4.418-1.314-8.805-2.738-13.219-4.069-3.447-1.04-6.9-2.065-10.383-2.984a14.615,14.615,0,0,1-4.733-2.615,6.61,6.61,0,0,1-.96-1.331c4.922,1.478,9.418,2.864,13.935,4.175,4.607,1.338,9.286,2.447,13.839,3.944,4.49,1.477,9.141,2.368,13.659,3.885,0,.328.018.576-.006.82S1482.859,1100.653,1482.769,1101.114Zm40.722-41.2c.276,3.553-.018,6.774-1.665,9.745-.7,1.26-1.5,2.463-2.266,3.685a12.786,12.786,0,0,1-1.251,1.877,8.711,8.711,0,0,0-2.384,6.957,8.419,8.419,0,0,1-.083,1.223c-1.154-.374-2.188-.64-3.154-1.062a1.5,1.5,0,0,1-.642-1.046,7.435,7.435,0,0,1,.68-4.794c.728-1.285,1.321-2.732,2.878-3.362a2.868,2.868,0,0,0,.917-.9c.521-.622.977-1.3,1.521-1.9a8.686,8.686,0,0,0,2.262-4.692c.147-1.048.12-2.12.172-3.19Zm-124.829,2.328c-.319.266-.6.5-1.075.893a55.5,55.5,0,0,1-1.9-6.086c-.488-2.523-.586-5.12-.919-7.676-.442-3.388-.951-6.766-.261-10.182a2.839,2.839,0,0,0-.011-.759,11.616,11.616,0,0,1,.454-4.785c.75-2.143,1.334-4.344,2.083-6.487a21.575,21.575,0,0,1,2.478-4.581c.82.473,1.149.938.711,1.768-1.888,3.579-2.515,7.544-3.283,11.438a67.12,67.12,0,0,0-.771,7.528,40.585,40.585,0,0,0,.473,9.089C1397.114,1055.644,1397.948,1058.837,1398.662,1062.239Zm2.311-40.387a1.974,1.974,0,0,1-1.23-2.013,34.49,34.49,0,0,1,.9-9.594,25.822,25.822,0,0,1,3.354-8.214c1.586-2.283,3.15-4.59,4.89-6.752a28.847,28.847,0,0,1,3.452-3.2c.112-.1.339-.069.653-.123.156.55.3,1.065.436,1.535a39.107,39.107,0,0,0-6.433,7.621,10.661,10.661,0,0,0-1.128,1.968c-.914,2.349-1.814,4.706-2.612,7.1a26.468,26.468,0,0,0-1.858,8.839A17.169,17.169,0,0,1,1400.973,1021.852Zm114.485,49.886c-1.309,1.011-2.464,1.987-3.92,2.063-2.637.137-5.311.271-7.856-.759a48.432,48.432,0,0,0-4.61-1.767c-1.743-.5-3.128-1.624-4.7-2.413-.88-.441-.961-1.046-.462-1.885.516-.867.855-.947,1.879-.582,3.794,1.353,7.383,3.226,11.278,4.334a9.861,9.861,0,0,0,4.306.31,5.052,5.052,0,0,1,1.645.047C1513.748,1071.219,1514.458,1071.464,1515.458,1071.738Zm-37.772,1.769c.909-.262,1.693-.5,2.481-.713a3.565,3.565,0,0,0,2.817-3.947,5.206,5.206,0,0,0-2.732-4.308,4.552,4.552,0,0,0-5.325.392,5.6,5.6,0,0,0-1.354,1.316,3.743,3.743,0,0,0-.695,1.911,5.39,5.39,0,0,0,.9,3.417c.778,1,.659,1.251-.578,2.434a7.331,7.331,0,0,1-1.789-7,3.938,3.938,0,0,1,1.382-2.629c1.943-1.244,3.843-2.758,6.413-1.721a5.075,5.075,0,0,0,.563.083c2.126.575,3.8,1.619,4.437,3.929a9.316,9.316,0,0,1-.608,6.115,2.473,2.473,0,0,1-.987,1.092,19.708,19.708,0,0,1-2.723,1.351,3.069,3.069,0,0,1-2.439-.017C1477.523,1074.7,1477.591,1074.2,1477.686,1073.507Zm6.431,54.4v-24.094a2.843,2.843,0,0,1,2.295-.606c0,4.017-.01,8.037,0,12.057a111.983,111.983,0,0,1-.223,12.277Zm-85.4-63.982a28.792,28.792,0,0,1,.492,3.9,29.377,29.377,0,0,0,3.723,12.409c.443.831.942,1.634,1.434,2.439,1.177,1.927,2.968,3.255,4.6,4.743a6.849,6.849,0,0,0,4.148,2.089c.164.012.317.164.578.307-.127.463-.25.915-.405,1.478a16.692,16.692,0,0,1-6.3-3.205,27.823,27.823,0,0,1-5.907-7.359,25.061,25.061,0,0,1-2.294-5.185,22.666,22.666,0,0,1-1.333-7.255c.005-.886,0-1.772-.049-2.656C1397.342,1064.535,1397.322,1064.536,1398.713,1063.928Zm122.582,55.84a5.069,5.069,0,0,1-.9.538c-2.863,1.006-5.715,2.046-8.607,2.963-3.126.99-6.3,1.841-9.436,2.787-1.63.491-3.206,1.211-4.864,1.545a57.953,57.953,0,0,0-5.642,1.6c-2.292.707-4.632,1.257-6.955,1.86a2.784,2.784,0,0,1-.688.007c-.2-1.757-.208-1.77,1.12-2.109,1.1-.282,2.207-.576,3.326-.783,4.422-.821,8.724-2.109,13.054-3.289q3.117-.851,6.225-1.727c1.518-.427,3.04-.841,4.542-1.32,2.582-.822,5.149-1.694,7.726-2.535C1520.62,1119.164,1521.078,1119.033,1521.295,1119.768ZM1458,1051.54c.476-.831.919-1.594,1.351-2.363a44.973,44.973,0,0,0,2.375-4.311,30.136,30.136,0,0,0,2.077-11.257,67.417,67.417,0,0,0-.575-7.539c-.116-1.259-.317-2.509-.466-3.765-.055-.467.007-.882.814-.9.281,1.056.517,2.151.866,3.208a24.464,24.464,0,0,1,1.025,7.477,34.231,34.231,0,0,1-1.222,9.736,19.944,19.944,0,0,1-.684,2.745c-.875,1.956-1.864,3.864-2.872,5.757a5.79,5.79,0,0,1-1.214,1.421C1459.052,1052.143,1458.56,1052.13,1458,1051.54Zm-43.342-58.9c-.6-.679-.729-1.19-.3-1.854a36.926,36.926,0,0,0,2.706-4.543c1.31-2.9,3.721-4.753,6.005-6.725a6.162,6.162,0,0,1,2.684-1.339,51.541,51.541,0,0,1,5.449-.637,5.33,5.33,0,0,1,3.534,1.072,7.075,7.075,0,0,1-.135.81,2.035,2.035,0,0,1-.24.435c-.12.035-.184.076-.237.064a7,7,0,0,1-.729-.182,10.209,10.209,0,0,0-8.577,1,20.708,20.708,0,0,0-7.359,7.98A15.328,15.328,0,0,1,1414.656,992.641ZM1444.4,1081.6c.055-.467-.009-.908.135-.993,2.176-1.273,3.512-3.422,5.328-5.064a10.84,10.84,0,0,0,1.582-1.624,30.615,30.615,0,0,0,4.1-8.5,40.52,40.52,0,0,0,2.027-11.893,2.245,2.245,0,0,1,.252-.618l1.37.078a40.007,40.007,0,0,1-2.36,13.123,16.539,16.539,0,0,1-1.479,3.683c-1.77,2.756-3.714,5.4-5.611,8.076a4.54,4.54,0,0,1-.958.912c-1.047.811-2.1,1.615-3.181,2.381A5.515,5.515,0,0,1,1444.4,1081.6Zm9.194-92.925.3-.238a1.636,1.636,0,0,1,.54.08,5.2,5.2,0,0,1,2.1,1.848,50.206,50.206,0,0,1,3.081,4.74,56.748,56.748,0,0,1,2.553,7.287,36.742,36.742,0,0,1,1.038,17.135c-.041.246-.3.457-.457.684.209-5.676.092-11.2-1.447-16.684A38.671,38.671,0,0,0,1453.6,988.677Zm-8.283,125.206c-1.326-.549-1.35-.55-1.34-1.643q.035-3.507.114-7.013.146-6.07.328-12.14a12.048,12.048,0,0,1,.168-1.273c.757-.161,1.33-.047,1.611.416-.063,1.566-.119,2.951-.174,4.336q-.135,3.385-.269,6.772C1445.621,1106.8,1445.87,1110.272,1445.314,1113.883Zm-2.445-31.162.314.29c-.1.222-.19.451-.306.665a30.059,30.059,0,0,1-5.851,7.367,21.23,21.23,0,0,1-4.332,3.342,20.2,20.2,0,0,1-9.6,2.489,4.721,4.721,0,0,1-3.072-.714c-1.319-.985-2.7-1.893-3.972-2.929a5.227,5.227,0,0,1-1.19-1.652c-.1-.183.19-.569.152-.468,1.073.868,2.18,1.718,3.236,2.628a7.765,7.765,0,0,0,4.784,2.076,15.987,15.987,0,0,0,6.861-1.046c.752-.317,1.416-.848,2.174-1.141a9.314,9.314,0,0,0,4.425-3.374,7.982,7.982,0,0,1,1.382-1.561,22.772,22.772,0,0,0,4.169-5.117A6.6,6.6,0,0,1,1442.869,1082.721ZM1435.728,979.4a5.4,5.4,0,0,1,1.533-.512c3,.04,5.966-.221,8.917,1.06a12.089,12.089,0,0,1,5.881,5.378,2.952,2.952,0,0,1,.529,2.445c-1.077-1.188-2.031-2.183-2.921-3.233a12.755,12.755,0,0,0-6.279-3.671,11.031,11.031,0,0,0-6.182-.039,9.955,9.955,0,0,1-1.186.164C1435.929,980.5,1435.852,980.076,1435.728,979.4Zm81.924,139.37-.473-.182c0-2.773-.023-5.547.005-8.319q.063-6.267.19-12.532a12.638,12.638,0,0,1,.206-1.887c.1-.566.494-.676,1.194-.466a30.742,30.742,0,0,1-.019,3.322,106.616,106.616,0,0,0-.288,12.307,32.482,32.482,0,0,1-.294,6.946C1518.112,1118.252,1517.831,1118.5,1517.652,1118.769Zm-41.565,6.72-.392-.11q-.1-6.054-.2-12.107c-.035-2.262-.054-4.524-.09-6.786a20.99,20.99,0,0,1,.4-5.385c.6-.186,1.039-.084,1.132.449a10.708,10.708,0,0,1,.125,2.057c-.074,3.709-.613,7.412-.147,11.13a3.322,3.322,0,0,1-.071.558c-.076,1.318-.159,2.634-.213,3.953-.071,1.774-.1,3.55-.191,5.324A3.21,3.21,0,0,1,1476.087,1125.489Zm34.2-64.972c1.388-1.65,2.6-3.121,4.863-3.06a3.716,3.716,0,0,1,3.2,1.957,1.444,1.444,0,0,1-.608,1.95,4.281,4.281,0,0,1-3.058.632A6.557,6.557,0,0,1,1510.29,1060.517Zm12.49-4c-2.327-3.8-4.784-7.456-8.981-9.681.283-.768-.312-1.525.152-2.527a53.7,53.7,0,0,1,4.86,3.405C1521.413,1049.988,1523.172,1052.759,1522.78,1056.521Zm-49.8,24.558c1.828.134,1.132-1.8,2.207-2.113a11.9,11.9,0,0,1,3.2,4.192c-1.192.41-2.332.87-3.613.362-1.987-.79-3.988-1.547-5.967-2.358-.481-.2-1.134-.325-1.066-1.226.909-.132,1.828-.288,2.752-.393s1.857-.158,2.878-.242C1473.245,1079.871,1473.128,1080.4,1472.977,1081.079Zm46.6,37.039c0-1.4.033-2.655-.005-3.908-.183-6-.118-12,.243-17.995a5.3,5.3,0,0,1,.182-1.121.682.682,0,0,1,.961-.538c-.083,1.874-.215,3.7-.233,5.519-.041,4.23-.028,8.46-.034,12.69,0,1.383.014,2.765.007,4.147C1520.695,1117.51,1520.587,1118.053,1519.577,1118.118Zm-39.24,8.54-.282-.063q0-3.79,0-7.579c0-.5.062-1,.048-1.5-.084-2.909-.221-5.817-.259-8.726-.023-1.773.092-3.547.16-5.32.02-.531.015-1.1.586-1.407.173.176.332.261.335.35.222,7.487-.091,14.969-.243,22.453a4.158,4.158,0,0,1-.067.756C1480.545,1125.969,1480.432,1126.312,1480.337,1126.658Zm12.295-41.621a19.409,19.409,0,0,1-6.1.781,21.331,21.331,0,0,0-3.938-.006,9.876,9.876,0,0,1-3.736-.082,2.618,2.618,0,0,1-1.9-1.106c2.091-.225,3.94-.436,5.791-.607a.854.854,0,0,1,.648.3c.473.64,1.16.633,1.791.749,1.054-1.083,1.052-1.119,2.27-1.2a9.753,9.753,0,0,1,4.445.632A4.48,4.48,0,0,1,1492.632,1085.037Zm18.308-20.352a9.726,9.726,0,0,0,8.193-.35c.118,2.553-.57,3.442-2.779,3.845a6.522,6.522,0,0,1-3.533-.4C1511.05,1067.117,1510.99,1067.053,1510.94,1064.685Zm-32.566,37.052c.839,1.49.547,24.006-.053,24.52l-.7-.256c0-1.04.018-1.987,0-2.933-.087-3.726.516-7.427.191-11.177a53.67,53.67,0,0,1,.263-7.4C1478.116,1103.572,1478.269,1102.655,1478.374,1101.737Zm-31.065-8.947.381-.036a2.46,2.46,0,0,1,.3.8c-.035,2.768-.107,5.534-.162,8.3-.034,1.756-.17,3.52-.061,5.267a30.333,30.333,0,0,1-.424,7.771c-.656-.043-.7-.461-.688-.94.032-2.147.028-4.3.082-6.443q.168-6.818.389-13.634A7.945,7.945,0,0,1,1447.309,1092.79Zm40.471,9.751.387-.135c.14.22.394.437.4.662.04,1.441.052,2.885.023,4.327-.032,1.575-.182,3.149-.166,4.723.041,4.294.212,8.589-.108,12.878a18.307,18.307,0,0,1-.351,1.938l-.386-.038C1487.707,1118.778,1487.18,1110.658,1487.78,1102.541Zm-5.077.3c.444,7.075-.033,14.136.124,21.2.026,1.172-.114,2.348-.192,3.8-.405-.383-.763-.559-.785-.769a21.986,21.986,0,0,1-.171-3.188c.124-2.9.4-5.8.473-8.7.072-2.841-.029-5.686-.06-8.53A7.2,7.2,0,0,1,1482.7,1102.837Zm2.467-46.666a5.937,5.937,0,0,1,.275-.834c.629-1.162,1.351-2.281,1.893-3.481a17.383,17.383,0,0,0,1.812-5.762c.1-1.315.178-2.635.186-3.953.013-1.953.269-3.934-.569-5.814-.1-.221.044-.549.076-.828a1.877,1.877,0,0,1,.91,1.168,26.033,26.033,0,0,1-.463,12.949,41.552,41.552,0,0,1-2.237,5.206A2.463,2.463,0,0,1,1485.17,1056.171Zm19.62,32.9c-.852.318-1.381.5-1.9.712a3.921,3.921,0,0,1-3.786-.265c-1.76-1.089-3.607-2.034-5.41-3.053-.079-.045-.082-.222-.156-.443a3.255,3.255,0,0,1,2.172-.06,72.645,72.645,0,0,0,8.253,2.569C1504.173,1088.571,1504.349,1088.771,1504.79,1089.066Zm9.443-40.126a20.038,20.038,0,0,1,6.038,6.512c.431.688,1.179,1.387.744,2.629a36.233,36.233,0,0,0-3.333-3.718,38.159,38.159,0,0,0-4.173-2.766C1513.753,1050.7,1513.951,1049.976,1514.233,1048.94Zm-63.509,67.182c.119-7.217-.59-14.44.477-21.613A115.933,115.933,0,0,1,1450.724,1116.122Zm43.537-51.324a10.208,10.208,0,0,0-1.4,1.436,15.915,15.915,0,0,0-.8,1.841.953.953,0,0,1-1.558.391,2.771,2.771,0,0,1-.771-3.535C1490.719,1063.288,1492.51,1063.2,1494.261,1064.8Zm20.227,31.436c-.034,7.356.482,14.672-.115,22.364-.242-.536-.383-.7-.372-.848a22.851,22.851,0,0,0-.115-6.733,3.942,3.942,0,0,1-.073-.946c.108-4.235.216-8.469.351-12.7A4.8,4.8,0,0,1,1514.488,1096.234Zm-38.636-24.461c.36-1.723.7-3.381,1.058-5.036a2.259,2.259,0,0,1,.213-.525c.643-1.291,1.213-1.356,2.343-.33-.505,1.516-.981,3.01-1.507,4.485a5.841,5.841,0,0,1-.713,1.339C1476.807,1072.342,1476.314,1072.158,1475.852,1071.773Zm42.6-14.721a3.336,3.336,0,0,1-.87-.162,4.112,4.112,0,0,0-2.745-.5,3.145,3.145,0,0,1-2.915-1.267c.643-.59.689-1.593,1.618-2.035C1515.264,1054.243,1517.318,1054.883,1518.452,1057.052Zm-69.344,56.994a4.726,4.726,0,0,1-.162-.85c-.019-3.711-.041-7.421-.027-11.132.009-2.651.058-5.3.123-7.951a3.689,3.689,0,0,1,.426-1.033c.222.356.407.515.394.653C1449.2,1100.478,1449.641,1107.258,1449.108,1114.046Zm62.554-70.244c.3.138.481.164.5.236a13.613,13.613,0,0,1-.479,9.4,1.982,1.982,0,0,1-1.693,1.338A19.759,19.759,0,0,0,1511.662,1043.8Zm-32.213,28.048a3.014,3.014,0,0,1,.1-2.644c.4-.782.191-1.863,1.113-2.423C1482.425,1069.076,1481.995,1070.97,1479.449,1071.85Zm30.821-9.6a43.518,43.518,0,0,0,4.64.889c1.533.313,2.7-.868,4.231-.693C1517.116,1065.011,1512.69,1065.033,1510.27,1062.253Zm-20.488,51.44c.738,1.357.365,2.85.457,4.279s.12,2.888.133,4.333c.03,3.329.019,3.329-.72,4.5C1489.187,1122.255,1490.13,1117.975,1489.782,1113.693Zm1.828-36.307-.042.284q-4.111-.172-8.223-.352c-.036,0-.086-.092-.1-.148s.025-.11.041-.171c.781-.213,1.556-.47,2.351-.628a4.748,4.748,0,0,1,1.856-.136C1488.885,1076.537,1490.241,1076.992,1491.61,1077.386Zm-3.362-11.8-3.146-.211-.33-1.25a4.942,4.942,0,0,1,3.882-.052C1488.515,1064.588,1488.388,1065.06,1488.248,1065.581Zm-13.221,11.771c-.293-.377-.692-.661-.666-.9a16.143,16.143,0,0,1,.514-2.407c.234-.876.761-.862,1.436-.42A8.006,8.006,0,0,1,1475.027,1077.352Zm16.527,38.734c-.261-1.316-.126-2.669-.258-4a8.822,8.822,0,0,1,.118-4.284A29.246,29.246,0,0,1,1491.554,1116.086Zm-15.868-49.981a6.636,6.636,0,0,1-.93,4.042C1473.694,1068.188,1473.928,1067.208,1475.686,1066.1Zm41.855,3.133c-1.916,1.462-3.576,1.445-4.612,0Zm-1.445,32.845-.218-.055v-3.4l.218,0Zm3.527-42.446.384-.284c.211.418.427.834.62,1.26a2.664,2.664,0,0,1-.4.3Zm-29.654,44.462.11,0v1.534l-.11-.005Zm1.813,14.742-.257.013v-1.247l.175-.01Q1491.74,1118.219,1491.782,1118.841Zm-.4-13.531.327-.022c-.033.363-.065.725-.1,1.088l-.229-.018Zm-1.542,3.662-.309-.12.375-.929.285.111Z" transform="translate(-1393.202 -976.528)" fill="#424242"/>
  </g>
</svg>
