<svg xmlns="http://www.w3.org/2000/svg" width="83.592" height="88.322" viewBox="0 0 83.592 88.322">
  <g id="_12" data-name="12" transform="translate(-1058.204 -255.839)">
    <path id="パス_59" data-name="パス 59" d="M1101.938,256.262l1.384,1.232c.691,2.241.421,3.072-1.664,5.1a6.312,6.312,0,0,0,.225,3.691c1.482.768,3.165.644,4.761.918s3.164.9,4.885.721a16.787,16.787,0,0,0,4.28,1.839c-1.839-1.638-3.267-3.7-5.485-4.988v-1.353a9.357,9.357,0,0,1,3.914-4.483c1.223-.321,2.418-.546,3.55-.95a16.043,16.043,0,0,1,7.378-.725c.526.061,1.066.016,1.587.1a13.841,13.841,0,0,1,1.991.469c.945.3,1.869.673,2.832,1.026l1.169-1.526,1.623-.262a14.977,14.977,0,0,0,3,3.134c.543.416.511.458.764,1.441l-1.235,1.262c.438.592.791,1.112,1.185,1.6a20.171,20.171,0,0,1,3.195,6.686,10.763,10.763,0,0,1,.229,5.788,16.387,16.387,0,0,0-.382,2.326,5.885,5.885,0,0,1-.593,2.126c-.183.376-.217.826-.408,1.2a11.236,11.236,0,0,1-.843,1.216,8.9,8.9,0,0,1-.96.438,6.4,6.4,0,0,1-.951.167c-1.881-1.16-3.78-2.275-5.619-3.481-1.8-1.183-3.546-2.459-5.315-3.694-.3.257-.009.323.106.454a49.838,49.838,0,0,1,3.8,4.418,51.006,51.006,0,0,1,3.472,6.064,19.537,19.537,0,0,1,1.069,3.473c.256.907.492,1.821.7,2.741a2.947,2.947,0,0,1-.08.838,6.687,6.687,0,0,1,.883,3.341c.019,2.749.092,5.508-.109,8.245a38.841,38.841,0,0,1-1.825,9.979c-.051.148-.05.314-.089.468a19.83,19.83,0,0,1-2.42,5.629,16.694,16.694,0,0,1-2.282,3.237c-1.535,1.526-3.093,3.033-4.538,4.641-.747.831-1.633,1.487-2.408,2.23-.044.2-.135.367-.1.5.293,1.227.358,2.492.713,3.712.443,1.522.928,3.025,1.458,4.519a1.8,1.8,0,0,1-.466,2.123l-1.227.274a2.812,2.812,0,0,1-2.041-1.9c-.922-1.955-1.9-3.884-2.858-5.82a2.481,2.481,0,0,0-.376-.417,23.049,23.049,0,0,1-6.793,2.508c-2.009.312-3.965,1.126-5.811.93a21.93,21.93,0,0,1-2.243.256c-1.641.012-3.282-.041-4.923-.071-.049,0-.1-.061-.147-.054-2.933.455-5.63-.657-8.4-1.272a12.572,12.572,0,0,1-3.2-.865c-1-.535-2.1-.648-3.1-1.11-.035-.017-.1.03-.143.045-1.277,2.416-2.552,4.83-3.658,6.924-1.081.945-1.99.628-2.959.576-.173-.263-.364-.556-.477-.729.9-3.027,1.753-5.9,2.589-8.783a4.372,4.372,0,0,0,.056-.974,7.92,7.92,0,0,0-2.474-2.124,4.517,4.517,0,0,1-1.548-1.327c-1.364-1.816-2.924-3.5-4.162-5.393a43.759,43.759,0,0,1-4.309-7.529,42.3,42.3,0,0,1-1.27-4.094,26.969,26.969,0,0,1-.742-3.055,14.9,14.9,0,0,1-.125-2c-.057-2.375-.1-4.754,0-7.125a48.683,48.683,0,0,1,1.046-7.307,39.194,39.194,0,0,1,3.151-8.7,18.077,18.077,0,0,1,4.067-5.622,9.58,9.58,0,0,0,.757-1c-1.7.532-2.619,1.689-3.822,2.372-1.24.7-2.409,1.535-3.476,2.225l-2.789,1.113-1.492-.318a12.2,12.2,0,0,1-1.125-1.193,7.621,7.621,0,0,1-1.63-4.678,15.454,15.454,0,0,0-.407-2.976,5.433,5.433,0,0,1,.154-2,22.427,22.427,0,0,1,2.171-5.421c.644-1.386,1.819-2.4,2.627-3.679.076-.121.26-.173.379-.247.2-.9-.614-1.26-1.041-1.879a16.656,16.656,0,0,1,4.518-3.613l1.489,1.531c1.061-.351,2.175-.652,3.237-1.083a18.782,18.782,0,0,1,6.747-1.532,15.815,15.815,0,0,1,4.093.35,13.537,13.537,0,0,1,5.309,2.4,16.039,16.039,0,0,1,1.782,1.862l.52,1.853a2.389,2.389,0,0,1-.419.832c-.96.908-1.963,1.774-2.972,2.628a50.6,50.6,0,0,0-4.1,3.7c.957-.409,1.915-.814,2.87-1.228.912-.4,1.821-.8,2.709-1.242,3.069-1.123,6.314-1.2,9.559-1.514.624-1.47.024-3.012.259-4.57a3.972,3.972,0,0,1-1.3-4.376l2.246-1.6Zm-14.422,5.988a3.948,3.948,0,0,0-.914.141c-1.177.48-2.326,1.03-3.508,1.495a19.348,19.348,0,0,0-4.746,2.833,43.743,43.743,0,0,1-4.914,3.724,39.246,39.246,0,0,0-4.43,3.326,81.444,81.444,0,0,0-6.306,5.748,8.319,8.319,0,0,0-1.289,1.792.508.508,0,0,0,.357.837,30.367,30.367,0,0,1,5.456-5.738c.846-.72,1.635-1.5,2.488-2.215.89-.741,1.83-1.421,2.74-2.14,1.16-.916,2.251-1.933,3.478-2.748,2.6-1.727,5.264-3.352,7.906-5.012a4.357,4.357,0,0,1,.843-.426,9.753,9.753,0,0,0,2.806-1.656.989.989,0,0,0,1.163-.513C1088.037,261.784,1087.656,261.746,1087.516,262.25Zm-19,25.11a3.1,3.1,0,0,0-1.07,1.439,50.115,50.115,0,0,0-2.212,9.065,22.625,22.625,0,0,0-.348,2.667,74.55,74.55,0,0,0,.1,8.23,8.957,8.957,0,0,0,.483,2.424c.327.876.517,1.8.8,2.7a16.878,16.878,0,0,0,1.328,3.82c.758,1.263,1.461,2.558,2.213,3.824.619,1.042,1.243,2.083,1.924,3.084.475.7,1.1,1.291,1.571,1.992a17.081,17.081,0,0,0,4.394,4.511,5.034,5.034,0,0,1,.628.484,21.877,21.877,0,0,0,10.454,5.349q1,.246,2,.483c1.594.376,3.18.8,4.788,1.1a21.53,21.53,0,0,0,2.988.246c.572.026,1.148-.052,1.723-.059.843-.009,1.688.033,2.531,0,.738-.031,1.473-.134,2.208-.215.522-.057,1.049-.1,1.562-.2,1.76-.355,3.533-.667,5.268-1.121a14.119,14.119,0,0,0,6.015-2.7,6.744,6.744,0,0,1,2.894-1.559,3.731,3.731,0,0,0,1.317-.853c.654-.531,1.273-1.1,1.9-1.664a9.252,9.252,0,0,0,1.749-1.611c1.028-1.58,2.566-2.652,3.776-4.043a4.531,4.531,0,0,1,1.012-.671,1.593,1.593,0,0,1,.335-1.3,12.879,12.879,0,0,0,2.12-4.747c.176-.822.579-1.594.762-2.414.413-1.855.8-3.718,1.106-5.594a33.349,33.349,0,0,0,.42-4.382c.023-.864.2-6.378.1-7.275a6.139,6.139,0,0,0-.116-1.7c-.638-1.451-.562-3.06-1.137-4.523-.461-1.173-.708-2.431-1.177-3.6a30.927,30.927,0,0,0-3.562-5.935,29.55,29.55,0,0,0-3.537-4.042,35.446,35.446,0,0,0-2.75-2.611,28.93,28.93,0,0,0-5.294-3.723,46.162,46.162,0,0,0-4.976-2.46,8.751,8.751,0,0,1-1.181-.629c-1.126-.151-2.319-.3-3.508-.473-1.572-.229-3.141-.476-4.711-.718a19.981,19.981,0,0,0-2.2-.333c-1.483-.061-2.969-.049-4.453-.041-.581,0-1.162.07-1.742.118q-1.263.107-2.526.227a9.64,9.64,0,0,0-3.239.743c-1.569.734-3.133,1.479-4.71,2.2a27.649,27.649,0,0,0-7.033,4.559,46.041,46.041,0,0,0-7.324,7.884,3.831,3.831,0,0,1-.549.532C1069.47,285.074,1068.348,285.971,1068.52,287.36Zm-7.984-6.736c.5-.626.862-1.15,1.3-1.6a57.46,57.46,0,0,1,5.731-5.387c1.464-1.144,2.9-2.331,4.374-3.454,1.858-1.413,3.747-2.784,5.628-4.165a26.932,26.932,0,0,1,4.991-3.05c1.613-.715,3.225-1.435,4.966-2.209a10.209,10.209,0,0,0-5.829-2.87,17.735,17.735,0,0,0-9.925,1.418,15.245,15.245,0,0,0-4.075,2.054c-1.174.978-2.419,1.871-3.571,2.872a7.859,7.859,0,0,0-1.687,1.894,47.744,47.744,0,0,0-2.355,4.641,8.369,8.369,0,0,0-.643,4.366c.174,1.558.3,3.121.446,4.741Zm79.143.2c.314-1.124.582-1.866.719-2.632a15.03,15.03,0,0,0,.275-2.681,16.114,16.114,0,0,0-.257-3.774,16.378,16.378,0,0,0-1.659-4.267,32.677,32.677,0,0,0-3.138-4.185,9.394,9.394,0,0,0-1.406-1.02c-2.485-2.044-1.777-2.273-5.184-3.124-.252-.063-.475-.246-.727-.308a16.226,16.226,0,0,0-2.01-.416,23.009,23.009,0,0,1-2.847-.208c-1.874-.456-3.551.317-5.282.688a35.4,35.4,0,0,0-3.8,1.275c-.094.508-1.183.349-1.225,1.154a30.32,30.32,0,0,0,3.527,1.484,17.7,17.7,0,0,1,4.157,2.177c1.675,1,3.274,2.131,4.9,3.217,1.409.943,2.885,1.806,4.194,2.873C1133.38,273.908,1136.861,276.744,1139.679,280.824Zm-27.437-18.28-.059.189c.8.372,1.6.728,2.389,1.119,1.557.775,3.149,1.494,4.644,2.376,1.636.964,3.217,2.033,4.752,3.153,1.618,1.182,3.158,2.47,4.72,3.726.859.69,1.692,1.412,2.54,2.116,1.46,1.212,2.954,2.386,4.373,3.643a16,16,0,0,1,2.674,3.3,2.676,2.676,0,0,0,.537.464,1.148,1.148,0,0,0-.1-1.441c-.812-.972-1.613-1.953-2.432-2.919a17.883,17.883,0,0,0-1.681-1.883c-1.663-1.474-3.367-2.9-5.083-4.317-.692-.57-1.448-1.066-2.194-1.567q-1.9-1.276-3.829-2.513c-1.778-1.138-3.531-2.321-5.365-3.361-1.422-.806-2.95-1.423-4.359-2.09Zm-37.723,12.934-1.757-2.432c-.694.532-1.322.987-1.919,1.478-.818.672-1.611,1.373-2.417,2.059a44.966,44.966,0,0,0-4.342,4.122,3.84,3.84,0,0,0-.945,1.767C1067.458,280.812,1070.825,278.083,1074.519,275.478Zm49.665-4.6a12.839,12.839,0,0,0-1.244-1.073c-1.241-.8-2.481-1.6-3.77-2.315-1.893-1.048-3.82-2.033-5.751-3.009-.236-.119-.584-.016-.921-.016,1.109,2.354,7.848,7.314,10.06,8.221Zm1.79,4.5c1.256,1.034,2.4,2.057,3.634,2.967,1.188.88,2.451,1.66,3.7,2.452a18.926,18.926,0,0,0,4.237,2.212,15.057,15.057,0,0,0-2.648-3.337c-1.561-1.492-3.286-2.814-4.956-4.189-.8-.663-1.643-1.285-2.567-2Zm-48.069-3.532c2.517-.926,4.224-2.705,6.1-4.25.526-.434,1.034-.892,1.575-1.307a13.883,13.883,0,0,0,3.172-3.029,12.27,12.27,0,0,0-3.415,1.443,8.456,8.456,0,0,0-1.65.883,14.7,14.7,0,0,1-3.118,2.117,12.4,12.4,0,0,0-3.962,2.708C1077.031,270.878,1077.447,271.336,1077.905,271.842Z" fill="#424242"/>
    <path id="パス_60" data-name="パス 60" d="M1124.1,281.186a7.382,7.382,0,0,1,2.441,2.486c.025.047.033.108.069.143,1.564,1.495,2.185,3.591,3.372,5.331a4.5,4.5,0,0,1,.984,2.466,1.967,1.967,0,0,0,.191.766,7.707,7.707,0,0,1,.62,3c.066,1.955.315,3.907.551,5.852a25.652,25.652,0,0,1,0,5.227c-.19,2.276-.742,4.489-1.012,6.741a19.119,19.119,0,0,1-1.437,4.176,13.072,13.072,0,0,0-.736,2.052,5.324,5.324,0,0,1-1.071,2.27c-1.169,1.506-2.355,3-3.619,4.428a31.8,31.8,0,0,1-2.655,2.52,34.21,34.21,0,0,1-4.784,3.315,14.783,14.783,0,0,1-2.189.9q-1.749.728-3.489,1.479a8.682,8.682,0,0,1-2.582.734c-1.37.14-2.729.385-4.1.515-1.314.125-2.629.18-3.946.356a20.961,20.961,0,0,1-6.477-.32,11.236,11.236,0,0,1-1.515-.472,4.579,4.579,0,0,0-1.046-.35,14.58,14.58,0,0,1-4.449-1.185c-1.9-.76-3.906-1.361-5.442-2.838a1.649,1.649,0,0,0-.531-.33,11,11,0,0,1-4.476-3.681c-.789-.991-1.753-1.861-2.432-2.918-1.208-1.881-2.7-3.588-3.575-5.68a8.822,8.822,0,0,0-.79-1.717c-.325-.462-.156-1.083-.7-1.5-.29-.225-.176-.912-.361-1.339a22.14,22.14,0,0,1-1.151-5.711,44.194,44.194,0,0,1-.371-5.058,17.874,17.874,0,0,0,.007-3.62.869.869,0,0,1,.044-.472,25.37,25.37,0,0,0,.79-3.357c.435-1.9,1.093-3.757,1.611-5.644a9.826,9.826,0,0,1,1.477-3.3c1.44-1.955,2.851-3.936,4.38-5.82a39.674,39.674,0,0,1,3.2-3.305,10.174,10.174,0,0,1,1.295-.894c1.253-.884,2.471-1.822,3.761-2.647a29.081,29.081,0,0,1,10.8-3.491,45.872,45.872,0,0,1,4.747-.225,49.434,49.434,0,0,1,5.018.614,29.917,29.917,0,0,1,7.782,2.154,26.893,26.893,0,0,1,8.371,5.022c.775.716,1.641,1.332,2.455,2.007A2.311,2.311,0,0,1,1124.1,281.186Zm3.366,39.178c.169-.538.3-1.092.515-1.61.245-.587.595-1.129.849-1.712a19.342,19.342,0,0,0,1.482-4.692c.132-.836.311-1.664.425-2.5a51.691,51.691,0,0,0,.681-5.654A47.639,47.639,0,0,0,1131,298.5c-.143-1.458-.389-2.907-.542-4.365a10.1,10.1,0,0,0-1.118-3.764c-.573-1.066-1.324-2.042-1.837-3.134a20.934,20.934,0,0,0-3.161-4.539,38.164,38.164,0,0,0-3.974-3.651,27.3,27.3,0,0,0-6.75-4.411c-1.206-.56-2.457-.963-3.7-1.412a29.159,29.159,0,0,0-3.934-1.194,39.12,39.12,0,0,0-7.43-.8,24.92,24.92,0,0,0-5.2.36,25.835,25.835,0,0,0-9.55,3.618,46.234,46.234,0,0,0-6.023,4.646,41.876,41.876,0,0,0-5.474,6.987,11.936,11.936,0,0,0-1.92,5,9.283,9.283,0,0,1-.418,1.7,34.147,34.147,0,0,0-1.466,8.84c-.156,2.968.557,5.789.736,8.687a3.421,3.421,0,0,0,.236.754q.473,1.5.943,3a8.424,8.424,0,0,0,.753,1.56c.824,1.351,1.222,2.917,2.233,4.185.683.859,1.114,1.918,1.795,2.779.917,1.159,1.971,2.209,2.958,3.314a22.762,22.762,0,0,0,6.13,4.466,17.383,17.383,0,0,0,5.762,2.037,8.907,8.907,0,0,1,1.98.565,17.686,17.686,0,0,0,7.626,1.055c1.784-.07,3.57-.159,5.356-.308a16.128,16.128,0,0,0,6.413-1.51,7.369,7.369,0,0,1,1.779-.7,18.443,18.443,0,0,0,6.3-3.241A27.278,27.278,0,0,0,1127.47,320.364Z" fill="#424242"/>
    <path id="パス_61" data-name="パス 61" d="M1083.38,283.3c.191.068.45.08.562.214,1.623,1.947,3.227,3.91,4.833,5.871a6.686,6.686,0,0,0,.484.628c2.182,2.082,4.078,4.428,6.125,6.634.859.926,1.8,1.78,2.651,2.62l3.509-.4c.274-.241.645-.537.982-.867,1.586-1.556,3.134-3.152,4.757-4.668a28.29,28.29,0,0,1,2.86-2.27,10.429,10.429,0,0,0,2.108-1.673,2.082,2.082,0,0,1,.595-.335l1.526.249c2.179-1.962,4.512-3.911,6.7-6.145.247.2.431.353.666.547a4.127,4.127,0,0,1-.452.709,9.855,9.855,0,0,0-1.575,1.537c-.412.67-1.094.9-1.6,1.391-.957.912-1.894,1.845-2.77,2.7-.1.76-.184,1.385-.264,1.986-1.6,2.595-4.03,4.349-6.167,6.388-1.149,1.1-2.3,2.191-3.464,3.268-.581.536-1.2,1.029-1.562,1.337a3.285,3.285,0,0,0,.963,3.056c.982,1.247,2.075,2.407,3.078,3.64a10.49,10.49,0,0,1,.845,1.414c-.016.82-.163,1.467-1.008,1.812l-1.142-.074c-2.483-1.561-4.087-3.864-5.764-6.259a15.431,15.431,0,0,0-1.715-.478,2.468,2.468,0,0,1-2.372-2.322,2.12,2.12,0,0,0-.283-.6,24.99,24.99,0,0,1-4.271-2.016c-1.248-.684-2.584-1.209-3.889-1.786-2.558-1.132-5.131-2.233-7.679-3.388a26.876,26.876,0,0,1-2.657-1.435,3.574,3.574,0,0,1-1.711-1.894l-3.111-1.9.539-.794,2.7,1.486,2.768-.226c1.93.841,3.687,1.571,5.413,2.368,1.823.84,3.6,1.768,5.426,2.613,1.438.667,2.907,1.271,4.367,1.89a7.663,7.663,0,0,0,.981.236c-.787-.936-1.34-1.707-2.007-2.362a53.278,53.278,0,0,1-3.547-4.039c-1.319-1.582-2.753-3.068-4.1-4.628-.863-1-1.667-2.046-2.478-3.086a1.924,1.924,0,0,1-.2-.586Zm30.817,7.162a1.629,1.629,0,0,0-1.967.3c-.833.651-1.612,1.378-2.486,1.968a21.84,21.84,0,0,0-4.153,3.862c-.244.279-.436.682-.743.813-1.03.439-1.481,1.394-2.223,2.155l1.361,1.958,1.763-1.655q1.152-1.078,2.3-2.155c1.7-1.586,3.451-3.122,5.076-4.782A2.7,2.7,0,0,0,1114.2,290.459Zm-36.874,2.182c.819.575,1.305.986,1.852,1.285,1.161.638,2.339,1.251,3.54,1.811,1.294.6,2.635,1.106,3.931,1.707,2.25,1.044,4.479,2.133,6.719,3.2.764.362,1.53.722,2.309,1.051a5.464,5.464,0,0,0,.939.208c.171-.446.312-.817.474-1.239-.806-.4-1.5-.789-2.224-1.1-1.987-.863-4.009-1.649-5.978-2.55-3.034-1.389-6.035-2.85-9.052-4.274A3.118,3.118,0,0,0,1077.323,292.641Zm24.583,13.559c.667.9,1.332,1.719,1.9,2.6a14.167,14.167,0,0,0,3.193,3.049c.141.115.514-.055.955-.118-1.269-2.536-3.6-4-4.761-6.424-.353.171-.594.267-.811.4A3.632,3.632,0,0,0,1101.906,306.2Z" fill="#424242"/>
    <path id="パス_62" data-name="パス 62" d="M1102.84,325.919l-1.556.146c-1.748,1.072-1.748,1.072-2.084,2.122h2.477c1.822.648,2.049,1.874,1.9,3.421-.251.3-.588.694-.888,1.05l-2.082.454a3.51,3.51,0,0,1-2.894-2.116c0-.836-.006-1.781.006-2.726a1.057,1.057,0,0,1,.133-.452,4.717,4.717,0,0,1,3.6-2.767A1.126,1.126,0,0,1,1102.84,325.919Zm-.418,5.24c.118-1.129-.054-1.577-.851-1.761a3.756,3.756,0,0,0-1.541.057,1.376,1.376,0,0,0-1.083,1.232l.792,1.108,1.346.164Z" fill="#424242"/>
    <path id="パス_63" data-name="パス 63" d="M1071.929,306.735l-.49-1.04,1.329.085a4.3,4.3,0,0,0,1.71-1.712h-2.022a6.856,6.856,0,0,1-2.068-2.611,6.422,6.422,0,0,1,1.867-3.226,13.417,13.417,0,0,1,1.935.586,2.926,2.926,0,0,1,1.033.931,4.926,4.926,0,0,1,.682,4.15C1074.934,305.183,1074.363,307.071,1071.929,306.735Zm-.075-5.991a2.2,2.2,0,0,0,1.159,2.322l2.018-.4c-.137-.893-.256-1.665-.349-2.274a1.774,1.774,0,0,0-2.029-.717Z" fill="#424242"/>
    <path id="パス_64" data-name="パス 64" d="M1103.409,275.6c.04-.458.071-.822.115-1.324l-1.37-.961-.987.593-.654,1.612a1.451,1.451,0,0,1-.607-1.623,2.889,2.889,0,0,1,1.767-1.5l1.987.477a6.88,6.88,0,0,1,.866,1.37,5.657,5.657,0,0,1,.03,1.636c-.617.775-1.144,1.939-2.423,2.484-.422.181-.667.777-1.088,1.3,1.183.052,2.236.109,3.289.14.545.017,1.065.041,1.313.755-.15.094-.31.28-.476.287-1.628.065-3.256.1-5,.146l-.475-.915.336-1.113Z" fill="#424242"/>
    <path id="パス_65" data-name="パス 65" d="M1124.658,303.264c.143.444.206.641.318.99l2,.919a2.9,2.9,0,0,0,1.977-2.459l-.365-.707c-.8-.545-1.96-.068-2.475-1.246.466-.3,1.191-.438,1.264-1.145a3.574,3.574,0,0,0-.125-.885c-.977-.223-1.67.889-2.657.4-.083-1.082.942-1.127,1.473-1.629l1.4.217c1.123.662,1.086,1.725,1.028,2.87,1.2.564,1.444,1.667,1.472,2.967-.2.458-.427.991-.619,1.437a3.113,3.113,0,0,1-3.24,1,3.71,3.71,0,0,1-2.363-2.295Z" fill="#424242"/>
    <path id="パス_66" data-name="パス 66" d="M1097.536,281.332a1.59,1.59,0,0,1-.676-1.535c0-.955.035-1.909.034-2.863,0-.514-.045-1.028-.076-1.673l-1.513.882-.658-.29c0-.2-.043-.337.007-.4a4.788,4.788,0,0,1,.661-.674,12.1,12.1,0,0,0,1.151-.843,8.018,8.018,0,0,0,.812-1.183l.669.282c.025.527.065,1.045.071,1.563.023,1.9.032,3.81.051,5.714C1098.073,280.691,1098.115,281.073,1097.536,281.332Z" fill="#424242"/>
    <path id="パス_67" data-name="パス 67" d="M1124.451,318.365l-1.131-.642a2.4,2.4,0,0,1,.232-2.592,2.631,2.631,0,0,1,2.485.187,3.987,3.987,0,0,1-.087,2.522Z" fill="#424242"/>
    <path id="パス_68" data-name="パス 68" d="M1124.55,289.968c-.6.028-1.247.218-1.883-.411q-.084-.914-.2-2.16l.88-.857c1.051-.236,1.506.511,2.141.725C1125.889,288.834,1125.812,289.05,1124.55,289.968Z" fill="#424242"/>
    <path id="パス_69" data-name="パス 69" d="M1111.8,277.5l1.01-1.1c1.15-.331,1.644.553,2.3,1.071-.045,1.617-.415,2.022-2.192,2.4A3,3,0,0,1,1111.8,277.5Z" fill="#424242"/>
    <path id="パス_70" data-name="パス 70" d="M1075.3,286.627a2.78,2.78,0,0,1,2.432.662c.039.433.081.9.132,1.472l-.891,1.033-1.3.135-.921-.693C1074.652,288.284,1074.51,287.339,1075.3,286.627Z" fill="#424242"/>
    <path id="パス_71" data-name="パス 71" d="M1077.387,317.944l-1.23.47c-.584-.389-1.419-.43-1.7-1.437.264-.6.006-1.552.9-2.04.824-.171,1.377.424,2.069.6l.453,1.108Z" fill="#424242"/>
    <path id="パス_72" data-name="パス 72" d="M1115.71,328.629c-1.377.243-1.377.243-2.4-.479-.413-.737-.062-1.34.339-2l1.209-.624,1.374.718C1116.988,327.217,1116.453,327.915,1115.71,328.629Z" fill="#424242"/>
    <path id="パス_73" data-name="パス 73" d="M1087.464,326.24c.155.528.286.971.406,1.377a2.008,2.008,0,0,1-1.665,1.7c-1.389-.546-1.58-.848-1.487-2.329A2.212,2.212,0,0,1,1087.464,326.24Z" fill="#424242"/>
    <path id="パス_74" data-name="パス 74" d="M1087.644,279.191l-1.725.368c-.37-.444-.665-.8-.915-1.1-.156-1,.422-1.539,1.026-2.129l1.135-.074.769.824C1087.835,277.8,1087.746,278.454,1087.644,279.191Z" fill="#424242"/>
    <path id="パス_75" data-name="パス 75" d="M1083.38,283.3l-.357.367a7.036,7.036,0,0,1-.831-.689c-.6-.672-1.167-1.375-1.747-2.065l-.262.182c.019-.243.039-.486.054-.675C1081.118,280,1082.875,281.693,1083.38,283.3Z" fill="#424242"/>
  </g>
</svg>
