<?xml version="1.0" encoding="UTF-8"?><svg id="_レイヤー_2" xmlns="http://www.w3.org/2000/svg" viewBox="0 0 183.44 54.5"><defs><style>.cls-1{fill:#424242;}</style></defs><g id="_Шар_1"><g id="_38"><path class="cls-1" d="m169.98,50.89c-.5,1.25-1.71,1.5-2.78,1.87-.89.31-1.86.4-3.01.62-.76-.33-1.68-.73-2.68-1.16-.96.68-1.98,1.4-2.9,2.05q-4.55.45-9.37-1.84c-1.51.5-3.15.36-4.69-.35-2.58-1.2-5.16-2.42-6.35-5.33-.32-.78-.87-1.46-1.35-2.26-.41-.21-.9-.43-1.35-.7-2.28-1.36-3.62-3.42-4.1-5.97-.28-1.48-.23-3.01-.33-4.46-.57-1.07-1.16-2.09-1.66-3.14-.58-1.22-.84-2.51-.67-3.88.12-1,.15-2.02.31-3.02.09-.56.34-1.1.59-1.62.48-1.01,1.07-1.97,1.51-3,.24-.57.4-1.24.37-1.85-.09-1.62.11-3.02,1.15-4.43.97-1.31,1.78-2.68,2.97-3.88,1.56-1.56,3.36-2.1,5.38-2.36.21-.03.42-.05.73-.08,1.57-3.59,4.72-4.74,8.53-5.16.56.11,1.35.27,2.3.46.83-.36,1.79-.78,3.11-1.36,2.01-.32,5.67,1.7,7.23,2.7,3.16-.65,6.03.03,8.7,2.05.29.97,1.34,1.8.91,3.03.9.41,1.76.81,2.63,1.21.51.23.77.57.52,1.14-1-.49-1.99-.98-2.99-1.47-.82.4-1.63.69-2.32,1.16-2.09,1.42-3.8,3.25-5.11,5.4-.66,1.08-1.15,2.29-1.53,3.49-.43,1.37.02,2.57,1.08,3.46,4.24-3.03,8.69-5.02,13.99-4.56.28-.35.57-.72.82-1.03.16-1.81-.26-3.4-1.4-4.65-.7-.76-1.71-1.24-2.58-1.84.31-.08.61-.17.89-.24,1.66.72,2.83,1.81,3.41,3.56.52,1.59,1.08,3.13.08,4.85.31.42.56.9.93,1.22,1.88,1.63,2.49,3.74,2.48,6.12,0,2.46-.79,4.69-1.99,6.85,1.27,2.34.39,4.7-.09,7-.19.89-1.02,1.7-1.71,2.4-.98,1-1.8,2.2-3.3,2.64-.72.21-1.33.83-2.06,1.31-.45,1.83-1.81,3.2-3,4.7-.45.14-.91.27-1.36.41.94-1.18,1.96-2.31,2.8-3.55.72-1.08,1.02-2.32.63-3.65-.16-.55-.2-1.14-.25-1.47-.62-1.15-1.02-2.16-1.65-2.98-1.29-1.68-2.67-3.3-4.1-4.86-.44-.48-1.14-.76-1.77-1.01-.63-.25-1.33-.35-2.1-.54-1.18.53-2.46,1.03-3.12,2.42,1.39,2.52,2.31,5.17,2.68,7.98.38,2.87.03,5.66-1.11,8.3,2.19,1.4,4.26,1.17,6.35.02.53-.3,1.13-.48,1.69-.71Zm-20.91-30.6c-5.27-2.77-7.46-7.27-7.7-13.04-1.69.39-3.45.17-4.77,1.51-.25.26-.63.4-.89.65-.41.39-.85.78-1.15,1.26-.48.75-.75,1.66-1.31,2.34-.99,1.18-1.04,2.6-.95,3.92.17,2.55,1.65,4.41,3.77,5.78,2.34,1.5,4.93,1.72,7.63,1.75,2.54.03,4.68-1.6,5.37-4.16Zm25.46,24.32c2.19-.92,3.77-2.17,5.07-3.85,1.23-1.58,1.47-3.43,1.56-5.27.08-1.61-.36-3.19-1.8-4.24-.73-.53-1.39-1.21-2.2-1.55-1.41-.59-2.9-1.01-4.38-1.43-.76-.22-1.55-.38-2.33-.42-1.95-.1-3.72.6-5.43,1.31-.49.96-1.1,1.8-.85,2.97.32.07.62.17.93.2,1.19.11,2.14.69,2.89,1.56,1.42,1.65,2.9,3.27,4.12,5.06.85,1.25,1.33,2.76,1.95,4.16.19.42.28.88.47,1.49Zm-23.43-10.26c-2.68,5.75-6.88,9.13-13.01,10.17.42.9.85,1.58,1.06,2.32.3,1.05.92,1.83,1.76,2.4,1.72,1.16,3.52,2.24,5.6,2.62.68.13,1.51.01,2.12-.29.74-.36,1.45-.94,1.96-1.59,2.47-3.08,4.06-6.49,3.78-10.56-.02-.26-.02-.54.05-.8.35-1.43-.16-2.6-1.08-3.79-.7-.16-1.46-.33-2.24-.5Zm-19.23-14.62c-1.18,1.56-1.8,3.21-2.1,5.09-.46,2.9.34,5.38,2.05,7.63.43.56,1.11,1.05,1.78,1.29,1.73.64,3.5.88,5.29.1.82-.36,1.68-.65,2.53-.93,2.44-.81,4.18-2.46,5.61-4.74-.16-1.03-.33-2.15-.49-3.26-5.99,1.24-10.99.07-14.66-5.18Zm34,3.05c-.74,1.67-.89,3.26-.57,5.05,5.92-2.1,10.88-.29,15.4,3.42.04-.02.1-.02.13-.06,2.54-3.05,2.93-9.53-2.16-12.48-.34-.2-.8-.22-1.22-.24-1.72-.09-3.35.33-4.99.82-2.43.72-4.59,1.87-6.58,3.48Zm-18.59,6.98c-.44.39-.87.65-1.13,1.03-.62.93-1.43,1.54-2.47,1.92-1.34.49-2.68.97-3.96,1.58-2.09,1-4.19,1.08-6.35.35-.37-.12-.76-.19-1.23-.3-.02,2.29.15,4.33,1.36,6.24,1.82,2.87,4.08,3.65,7.21,2.63,2.73-.89,4.87-2.75,6.84-4.74.94-.95,1.52-2.25,2.21-3.31-.13-2.16-.47-4.05-2.47-5.41Zm3.79-10.25c1.1-.79,2.54-.98,3.24-2.31-1.57-2.51-2.77-5.14-2.56-8.2.03-.46-.1-.96-.25-1.4-.49-1.42-.33-2.82.02-4.23.09-.34.13-.69.23-1.21-.89-.09-1.68-.33-2.43-.22-1.09.17-2.22.45-3.19.95-3.28,1.67-4.48,4.32-3.56,8.08.32,1.32.95,2.61,1.64,3.79,1.34,2.29,3.02,4.24,5.96,4.46.25.02.49.17.89.32Zm-1,32.26c.69.45,1.27.91,1.93,1.23,1.89.9,3.79,1.37,5.91.59,2.9-1.07,4.06-3.34,4.34-6.13.42-4.13-.64-7.97-2.51-11.38-1.67-.9-3.06-.82-4.46.13.72,5.98-.9,11.19-5.22,15.57Zm21.36-43.54c.43-1.81-.58-3.78-2.34-4.23-1.84-.48-3.72-.9-6-.39-.73,1.06-1.69,2.32-2.47,3.67-.31.54-.22,1.31-.36,1.97-.56,2.62-1.44,5.21-.86,8.19.67.82,1.91.97,3.15,1.49,1.52-4.84,4.78-8.12,8.88-10.69Zm-13.21,8.96c.4-2.48.36-4.91,1-7.28.64-2.37,1.24-4.66,3.04-6.75-1.55-.73-2.88-1.58-4.33-1.97-3.39-.93-5.91.95-5.83,4.58.05,2.08.37,4.18.8,6.22.43,2.1,1.47,3.95,2.96,5.7.7-.15,1.42-.3,2.36-.5Z"/><path class="cls-1" d="m105.45,50.55c-.21.27-.37.62-.64.78-.72.44-1.49.8-2.29,1.03-1.29.44-2.59.85-3.86,1.34-1.42.54-2.83.39-4.19-.07-1.44-.49-2.76-.85-4.29-.17-.82.37-1.9.37-2.82.23-1.55-.24-3.06-.72-4.59-1.09-.41-.1-.82-.19-1.44-.33-.42-.35-1.02-.8-1.55-1.31-.75-.72-1.56-1.24-2.63-1.37-1.24-.15-1.75-1.3-2.57-2.02-.51-.45-.9-1.07-1.46-1.43-1.02-.66-1.7-1.58-2.39-2.52-1.58-2.14-2.78-4.49-3.88-6.9-.23-.51-.34-1.13-.3-1.69.06-.9-.15-1.68-.66-2.4-.93-1.3-1.06-2.74-.76-4.26.19-.99.23-1.97,0-2.99-.13-.62,0-1.4.26-1.98.64-1.38.76-2.81.76-4.29,0-.57.08-1.19.32-1.69.65-1.35,1.23-2.72,2.22-3.93.92-1.11,1.49-2.53,2.2-3.78,2.78-1.51,3.13-1.83,4.5-4.13.86-.23,1.78-.35,2.58-.73.8-.38,1.47-1.03,2.27-1.61,1.85.38,2.86-1.25,4.21-1.95,1.92-.18,3.74-.26,5.54-.84,1.18-.38,2.52-.36,3.79-.31,1.78.07,3.58.23,5.34.52,1.59.27,3.07.87,3.87,2.47l.05-.03c-.47-.13-.94-.25-1.47-.39.18,2.08.37,3.97.49,5.87.08,1.21.07,2.42.05,3.63-.02,1.01-.23,2.02-.17,3.02.12,2.22.34,4.43.53,6.64.39.6.77,1.18,1.13,1.73.44,3.24.84,6.43-1.62,9.36-.05.73-.37,1.76-.13,2.63.85,3.13.05,6.32.53,9.47.31,2.02.3,4.09.43,6.15.92-.22,1.79-.43,2.66-.63h0Zm-3.85-27.87c-.74-2.75-2.25-4.54-5-5.13-.5-.11-.96-.41-1.45-.59-.98-.36-1.96-.93-2.96-.99-2.32-.13-4.36.69-5.99,2.44-.39.42-.86.84-1.38,1.04-2.46.98-3.65,2.76-3.62,5.45.79.66.74,1.56.61,2.48-.1.74-.27,1.48-.25,2.22.04,1.53.45,2.93,1.79,3.88,1.07.76,2.16,1.51,3.34,2.33h1.33c1.55.48,2.81.88,3.88,1.21,1.56-.16,2.92-.3,4.1-.42,1.12-.78,2.14-1.48,3.51-2.43.85-.93,2-2.18,3.1-3.37.19-1.53.52-2.96.49-4.38-.03-1.36.1-2.92-1.49-3.74Zm-17.21,29.71c0-1.83.04-3.51-.01-5.2-.04-1.48-.48-3.02-.21-4.43.47-2.46.26-4.87.23-7.41-.82-.66-1.68-1.34-2.17-1.73-2.02-2.48-1.61-4.92-1.15-7.26-.31-.45-.55-.79-.62-.88-.6-2.67,1-4.23,2.18-5.95.58-.26,1.16-.52,1.81-.81,0-2.09.23-4.2-.06-6.23-.4-2.81-.37-5.57-.02-8.36.07-.54.07-1.1.11-1.79-2.89,1.37-5.54,2.63-8.19,3.89-.57.34-.82.88-.71,1.59.5,3.01.2,6.04.02,9.04-.23,3.93-.03,7.82.44,11.73.19,1.62.03,3.29-.03,4.94-.03.95-.26,1.9-.24,2.85.03,1.38.25,2.76.32,4.14.1,1.96.17,3.93.17,5.89,0,.85.24,1.55.81,2.22,1.94.18,2.98,1.83,4.12,2.64,1.22.43,2.11.74,3.18,1.11Zm14.63.22c0-1.61,0-3.03,0-4.45-.01-1.49-.19-3-.04-4.47.25-2.56-.28-5.02-.54-7.8-.72.62-1.22,1.06-1.55,1.35-1.68.18-3.16.53-4.61.43-1.42-.1-2.81-.68-4.28-1.06-.32,1.34-.32,2.7-.11,4.06.44,2.79.72,5.57.17,8.38-.05.25-.02.54.05.79.25.97.52,1.93.82,3.02.39,0,.85.03,1.3,0,.99-.07,2.06-.46,2.95-.2,1.38.41,2.76.57,4.29.75.51-.25,1.12-.56,1.56-.78Zm-.46-35.39c-.09-5.41-.19-10.61-.28-15.78-3.33-.62-7.94-.97-10.36.59-1.1,4.54.2,9.06.04,13.63,1.74-.24,3.34-.47,4.82-.67.95.44,1.86.68,2.55,1.22.95.75,1.99.87,3.23,1.01Zm-26.46-7.2c-.38.33-.52.41-.59.53-.93,1.64-1.77,3.32-3.07,4.77-.73.82-1.31,2.09-1.33,3.17-.04,2.22-.26,4.33-1.1,5.89.04,1.7.27,2.99.06,4.21-.27,1.6.07,2.92.99,4.18.16.21.25.47.43.79-.24,1.57.19,3.06,1.04,4.47,1.13,1.85,2.22,3.73,3.32,5.6.13.23.22.48.33.73.13-.09.26-.18.39-.27.02-.4.09-.8.06-1.2-.26-3.18-.46-6.34-.12-9.54.18-1.71-.08-3.47-.11-5.21-.02-1,.01-2,.03-3,.04-2.33.05-4.66.14-6.99.05-1.37.39-2.74-.33-4.06-.16-.3-.13-.72-.13-1.09-.02-.88,0-1.75,0-2.96Z"/><path class="cls-1" d="m44.7,7.92c.26.04.6,0,.77.15,1.49,1.39,3.33,2.5,3.89,4.64.31,1.18.87,2.12,1.84,2.88,1.15.89,1.43,2.28,1.52,3.58.07,1.09.3,2.08.59,3.1.28,1.02.43,2.08.48,3.12.05,1.09.21,2.2.11,3.28-.23,2.41.03,4.88-1.16,7.18-1.33,2.56-2.83,4.95-4.85,7.03-.53.54-.81,1.36-1.1,2.09-.33.82-.82,1.33-1.64,1.79-1.6.9-3.04,2.1-4.57,3.14-.65.44-1.33.83-2.02,1.22-.59.33-1.21.6-1.79.95-.59.35-1.15.77-1.74,1.14-.77.48-1.57.6-2.43.19-.7-.33-1.39-.2-2.16-.12-1.3.14-2.64-.06-3.96-.14-2.06-.11-4.12-.25-6.18-.35-2.91-.14-5.72-.45-7.51-3.26-.34-.53-1.03-.88-1.63-1.18-1.39-.71-2.72-1.46-3.39-3.02-.25-.14-.51-.34-.8-.46-1.33-.54-2.11-1.54-2.07-2.94.03-1.21-.45-2.28-1.09-3.09-1.08-1.36-1.47-2.92-1.86-4.49-.24-.97-.54-1.83-1.23-2.35-.25-1.82-.76-3.52-.63-5.17.15-1.85-.53-3.79.5-5.59.35-.62.33-1.45.58-2.15.23-.62.62-1.19.92-1.79.21-.42.47-.84.53-1.29.12-.95.7-1.62,1.26-2.29.67-.81,1.4-1.6,2.22-2.25.84-.66,1.39-1.44,1.69-2.45.28-.95.83-1.69,1.67-2.25,1.5-1.01,2.79-2.38,4.68-2.71.14-.03.28-.15.4-.25,1.64-1.44,3.75-1.93,5.68-2.78.75-.33,1.63-.38,2.46-.46.74-.07,1.49.02,2.23-.02,1.97-.1,1.97-.11,3.56.59,1.8-.61,3.6.15,5.43.21,0,0,.01.18.02.27,0,0-.08.03-.08.03-1.31.46-2.6.28-3.55-.08-1.14.14-1.96.25-2.87.36-.24,1.63-.86,3.16-2.64,3.57-.96.22-2.07.03-3.07-.18-1.48-.3-1.39-2.03-2.47-3.04-.86.37-1.8.69-2.67,1.16-1.66.9-3.28,1.87-4.92,2.82-1.54.9-2.95,1.89-3.39,3.8-.12.53-.46,1.14-.89,1.46-2,1.51-3.03,3.71-4.37,5.71-.8,1.2-.82,2.63-1.39,3.87-.92,2-.44,4.07-.5,6.1-.04,1.42.33,2.85.5,4.2.38.37.73.72,1.11,1.08.52-1.31,1.04-2.63,1.59-4.02,2.33-.03,4.03,1.29,5.92,1.74.42,2.28-.48,4.36-2.42,5.83-1.09.12-2.01-.02-2.74-1.1-.43-.64-1.27-1-2.23-1.72.36,1.79.3,3.3,1.26,4.45,1.04,1.24,1.46,2.69,1.79,4.2.14.61.27,1.22.33,1.49,1.03.79,1.96,1.24,2.49,1.97.98,1.32,2.24,2.07,3.73,2.54,1.3-2.17,2.71-3.07,5.77-3.67.31.17.68.37,1.05.57.41.94.85,1.89,1.56,2.55,1.01.92,1.21,1.94.98,3.17-.08.44-.17.88-.26,1.35,1.89.17,3.62.33,5.5.49-.04-.6-.09-1.2-.15-1.95,1.52-.76,2.95-1.81,4.77-1.42,1.17,1.07.72,2.3.55,3.4.67.84,1.49.66,2.1.3,1.77-1.06,3.67-1.96,5.28-3.16,1.66-1.24,3.37-2.37,5.13-3.44.74-.45,1.25-.98,1.43-1.81.19-.86.61-1.56,1.24-2.17,1.72-1.65,2.83-3.71,3.99-5.75.95-1.68,1.37-3.42,1.36-5.33,0-1.75.3-3.51.2-5.25-.07-1.32-.1-2.73-.89-3.95-2,1.38-4.58,1.49-6.18.3-1.44-1.07-1.76-3.13-.9-5.45,1.15-1.47,3.05-.84,4.3-1.68-.34-.83-.79-1.53-.89-2.27-.11-.9-.63-1.4-1.19-1.98-.86-.89-1.64-1.87-2.45-2.8l-.02.03Z"/><path class="cls-1" d="m105.45,50.55h0c.05-.29.1-.58.15-.87.62-.08,1.15-.15,1.49-.19,1.82-1.55,3.49-2.97,4.94-4.2-.18-2.2-.58-4.07-.42-5.89.32-3.73-.13-7.44-.11-11.16,0-1.06-.12-2.12-.15-3.18-.03-1.32-.04-2.64-.04-3.95,0-1.38.2-2.79,0-4.15-.4-2.73-.68-5.46-.4-8.22.03-.25-.03-.51-.04-.66-.82-.59-1.55-1.11-2.28-1.62-.39-.27-.75-.59-1.17-.79-1.15-.54-2.35-.98-3.48-1.56-.38-.19-.6-.68-.9-1.03l-.05.03c1.07.44,2.14.87,3.21,1.32.63.27,1.28.54,1.86.89,1.61.97,3.38,1.78,4.13,3.47.69.57,1.25,1.03,1.81,1.49-.08.06-.16.12-.24.17.46,1.22.91,2.43,1.41,3.77-.02.04-.11.26-.2.49-.19,0-.38,0-.54,0-.06.21-.11.31-.11.41.16,3.44.32,6.88.48,10.33.05,1,.06,2.01.11,3.01.05.95.33,1.93.15,2.83-.43,2.19-.17,4.34-.02,6.51.05.76.12,1.51.19,2.45,1.46-1.81,1.61-2.15,1.96-3.8.12-.57.37-1.1.48-1.67.18-.92.32-1.85.43-2.78.1-.88.14-1.78.2-2.66.08-1.16.36-2.36.16-3.47-.31-1.74-.93-3.42-1.29-5.18-.4-1.92-.54-4.06-2.2-5.53-.08-.07-.03-.3-.04-.46.29.08.7.07.83.26.6.87,1.24,1.74,1.64,2.71.42,1.02.7,2.13.81,3.22.14,1.49.68,2.86,1.06,4.27.36,1.36.48,2.7.04,4.06-.37,1.17-.64,2.37-.08,3.52-.88,4.53-2.86,8.45-5.8,11.92-1,1.18-2.08,2.25-3.3,3.21-.87.68-1.56,1.58-2.29,2.35-.86.12-1.63.23-2.39.34Z"/><path class="cls-1" d="m33.82,1.65s.08-.03.08-.03c1.49-.51,2.7-.3,3.83.97.59.67,1.6,1.01,2.47,1.39,1.52.66,3.02,1.29,3.65,3.04.13.36.56.61.85.91l.02-.03c-.22.12-.44.24-.82.44-.57-.77-1.09-1.48-1.61-2.18-.96-.71-2.05-1.22-3.11-1.79-.6-.32-1.22-.67-1.72-1.13-.74-.68-1.53-1.08-2.55-1.11-.37-.01-.73-.31-1.1-.47Z"/><path class="cls-1" d="m33.21,11.85c1.93-.26,3.06.39,3.88,1.78.56.94,1.28,1.79,1.84,2.56-.69,2.47-.83,3.03-5.54,5.58-1.77-1.19-3.44-2.66-3.59-4.97-.16-2.45,1.56-3.9,3.41-4.95Z"/><path class="cls-1" d="m33.68,36.28c.97-.13,1.81-.25,2.73-.37,1.83.6,3.05,2.41,3.05,4.76-.92,1.23-1.9,2.54-2.87,3.85-2.27.67-4.49-1.39-5.24-5.02.74-1.02,1.56-2.16,2.33-3.22Z"/><path class="cls-1" d="m17.38,33.25c.35-1.82,1.02-3.38,2.36-4.81,1.33.1,2.69.2,3.94.29,1.95,2.22,1.16,5.99-1.45,7.46-2-.19-3.53-1.2-4.85-2.95Z"/><path class="cls-1" d="m11.69,12.97c1.28-.64,2.32-.8,3.3.13.55,1.42,1.21,2.83,0,4.47-1.16-.21-2.38-.43-3.41-.61-1.1-1.6-.04-2.76.11-3.98Z"/><path class="cls-1" d="m45.03,30.92c-1.21-.05-1.95-.83-2.83-1.53-.24-1.41.22-2.55,1.2-3.74,1.01.36,1.93.69,2.79,1,.37,1.8-.05,3.14-1.17,4.27Z"/><path class="cls-1" d="m21.88,10.97c.13,1.11-.05,2.15-1.01,2.9-1.47-.01-1.62-.07-3.09-1.24.22-.79.48-1.67.78-2.72.54-.14,1.12-.29,1.55-.4.69.57,1.2,1,1.77,1.47Z"/></g></g></svg>