<svg xmlns="http://www.w3.org/2000/svg" width="591" height="591" viewBox="0 0 591 591">
  <path id="楕円形_1" data-name="楕円形 1" d="M295.5,1a296.682,296.682,0,0,0-59.353,5.983A292.879,292.879,0,0,0,130.843,51.3a295.363,295.363,0,0,0-106.7,129.572,293.008,293.008,0,0,0-17.16,55.279,297.381,297.381,0,0,0,0,118.706A292.879,292.879,0,0,0,51.3,460.157a295.363,295.363,0,0,0,129.572,106.7,293.008,293.008,0,0,0,55.279,17.16,297.381,297.381,0,0,0,118.706,0,292.879,292.879,0,0,0,105.3-44.312,295.363,295.363,0,0,0,106.7-129.572,293.007,293.007,0,0,0,17.16-55.279,297.381,297.381,0,0,0,0-118.706,292.879,292.879,0,0,0-44.312-105.3,295.363,295.363,0,0,0-129.572-106.7,293.007,293.007,0,0,0-55.279-17.16A296.682,296.682,0,0,0,295.5,1m0-1C458.7,0,591,132.3,591,295.5S458.7,591,295.5,591,0,458.7,0,295.5,132.3,0,295.5,0Z" fill="#707070"/>
</svg>
